<?xml version="1.0" encoding="utf-8"?>
<!-- Generator: Adobe Illustrator 21.1.0, SVG Export Plug-In . SVG Version: 6.00 Build 0)  -->
<svg version="1.1" id="Layer_1" xmlns="http://www.w3.org/2000/svg" xmlns:xlink="http://www.w3.org/1999/xlink" x="0px" y="0px"
	 viewBox="0 0 103.8 103.4" style="enable-background:new 0 0 103.8 103.4;" xml:space="preserve">
<style type="text/css">
	.st0{fill:#7A5D2C;}
	.st1{fill:#FFFFFF;}
</style>
<g id="master">
	<path id="bg" class="st0" d="M102.2,64.2c-6.8,27.8-34.9,44.5-62.5,37.6C11.9,94.9-4.8,66.9,2.1,39.2C8.9,11.4,37-5.3,64.6,1.6
		C92.4,8.3,109.2,36.5,102.2,64.2L102.2,64.2L102.2,64.2L102.2,64.2z"/>
	<path id="logo" class="st1" d="M67.9,49.4v-3.2h6v-4h4.3V29.1h4.7v-1.8H64.7v1.8h7.8V40h-4.7v3.1h-5.5v1.5h-6.6l0.2-0.2
		c0.6-1.2,1.6-1.5,1.6-1.5c0.5,2.5,1.8,0.9,1.8,0.9s0.9-2.1-1.3-1.8c-2,0.3-3.1,2.4-3.1,2.4l0,0.1l-2.2-5.7v0h0l0,0v0h-0.1v0
		l-2.2,5.7l0-0.1c0,0-1.1-2-3.1-2.4c-2.2-0.4-1.3,1.8-1.3,1.8s1.4,1.6,1.8-0.9c0,0,1,0.4,1.6,1.5l0.2,0.2h-6.6v-1.5h-5.5V40h-4.7
		V29.1h7.8v-1.8H22.8v1.8h4.7v13.2h4.3v4h6v3.2h5.5v1.1l-4.5,2l4.5,1.6v1.4h-5.5v3.1h-6v3.6h-4.3v13.4h-4.7v1.7h18.2v-1.7h-7.8v-11
		h4.7v-3.5h5.6v-1.4H50c-0.6,1.4-1.9,2-1.9,2c-0.3-2.5-1.8-0.9-1.8-0.9s-1.1,1.6,1.3,1.8c1.7,0.1,2.7-1.6,3-2.2l2.3,5.5v-6.2h0v6.2
		h0.1v0l0,0h0v0l2.3-5.5c0.3,0.6,1.3,2.3,3,2.2c2.3-0.2,1.3-1.8,1.3-1.8s-1.5-1.6-1.8,0.9c0,0-1.4-0.5-1.9-2h6.6v1.4h5.6v3.5h4.7v11
		h-7.8v1.7h18.2v-1.7h-4.7V62.3h-4.3v-3.6h-6v-3.1h-5.5v-1.4l4.5-1.6l-4.5-2v-1.1H67.9z M44.4,52.4l1-0.7l1,0.7l-1,0.6L44.4,52.4z
		 M59.5,54.1l-0.5,0.6l-0.7,0v-0.5l-1.6-1.5l-1.2,1.3l0.7,1.8l-2-0.7l-1.5,1.6l-1.5-1.6l-2,0.7l0.7-1.8l-1.2-1.3l-1.6,1.5v0.5
		l-0.7,0L46,54.1v-0.4l1.9-1.2L46,51.1l0.7-0.9l0.5,0.4l1.1,1.3l0.5,0l1.3-1L49.4,49l1.3,0.8l0.6-0.1l1.4-1.5l1.4,1.5l0.6,0.1
		l1.3-0.8L55.4,51l1.3,1l0.5,0l1.1-1.3l0.5-0.4l0.7,0.9l-1.9,1.3l1.9,1.2V54.1z M60.1,53l-1-0.6l1-0.7l1,0.7L60.1,53z"/>
</g>
<g id="guides">
</g>
</svg>
