<?xml version="1.0" encoding="utf-8"?>
<!-- Generator: Adobe Illustrator 21.1.0, SVG Export Plug-In . SVG Version: 6.00 Build 0)  -->
<svg version="1.1" id="Layer_1" xmlns="http://www.w3.org/2000/svg" xmlns:xlink="http://www.w3.org/1999/xlink" x="0px" y="0px"
	 viewBox="0 0 103.8 103.4" style="enable-background:new 0 0 103.8 103.4;" xml:space="preserve">
<style type="text/css">
	.st0{fill:#27DBD8;}
	.st1{fill:#FFFFFF;}
</style>
<g id="master">
	<path id="bg" class="st0" d="M102.2,64.2c-6.8,27.8-34.9,44.5-62.5,37.6C11.9,94.9-4.8,66.9,2.1,39.2C8.9,11.4,37-5.3,64.6,1.6
		C92.4,8.3,109.2,36.5,102.2,64.2L102.2,64.2L102.2,64.2L102.2,64.2z"/>
</g>
<g>
	<path class="st1" d="M41.6,30.6c3.2,2.5,6.4,4.7,9.8,6.9c0.5,0.2,0.8,0.2,1.2,0c3.5-2,6.7-4.3,9.8-6.8c0.5-0.3,0.6-0.7,0.2-1.1
		c-3.5-5.4-7-10.9-10.6-16.6c-3.6,5.6-7.1,11.2-10.7,16.7C41.1,30.1,41.2,30.4,41.6,30.6z"/>
	<path class="st1" d="M79,61.4c0-0.1,0-0.3,0-0.4c-0.1-0.3,0-0.6-0.1-0.8c-0.1-0.5-0.1-0.9-0.2-1.3c-0.2-1.4-0.5-2.8-0.9-4.2
		c-3.2-11.2-11.5-19.8-11.5-19.8c-0.5-0.7-0.7-0.8-1.5-0.2c-3.5,2.8-7.2,5.3-11.1,7.6c-1,0.6-1.8,0.6-2.8,0
		c-3.9-2.3-7.7-4.9-11.3-7.7c-0.5-0.4-0.7-0.4-1-0.2c0,0,0,0,0,0S28.5,44.8,25.9,57.7c-0.4,1.5-0.6,3.2-0.6,5.2c0,0.2,0,0.4,0,0.6
		c0,4.3,1,8.7,3.7,13c4.7,7.9,13.3,13.2,23.1,13.2c13.2,0,24.2-9.5,26.5-22c0.2-0.9,0.3-1.9,0.4-2.9c0-0.1,0-0.1-0.1-0.2
		c0-0.6,0.1-1.1,0.1-1.7C79,62.4,79,61.9,79,61.4z"/>
</g>
</svg>
