<?xml version="1.0" encoding="utf-8"?>
<!-- Generator: Adobe Illustrator 21.1.0, SVG Export Plug-In . SVG Version: 6.00 Build 0)  -->
<svg version="1.1" id="Layer_1" xmlns="http://www.w3.org/2000/svg" xmlns:xlink="http://www.w3.org/1999/xlink" x="0px" y="0px"
	 viewBox="0 0 103.8 103.4" style="enable-background:new 0 0 103.8 103.4;" xml:space="preserve">
<style type="text/css">
	.st0{fill:#362B63;}
	.st1{fill:#FFFFFF;}
</style>
<g id="master">
	<path id="bg" class="st0" d="M102.2,64.2c-6.8,27.8-34.9,44.5-62.5,37.6C11.9,94.9-4.8,66.9,2.1,39.2C8.9,11.4,37-5.3,64.6,1.6
		C92.4,8.3,109.2,36.5,102.2,64.2L102.2,64.2L102.2,64.2L102.2,64.2z"/>
	<path class="st1" d="M80,28.8H25.1c-3,0-5.4,2.4-5.4,5.4V68c0,3,2.4,5.4,5.4,5.4H80c3,0,5.4-2.4,5.4-5.4V34.2
		C85.4,31.3,83,28.8,80,28.8z M82.1,34.6v3c-2.8-0.7-5.1-2.8-5.8-5.7h3.1C80.9,31.9,82.1,33.1,82.1,34.6z M73.2,70.3H31.6
		c-0.8-4.5-4.3-7.8-8.7-8.7V40.6c4.5-0.8,8-4.2,8.8-8.7h41.5c0.8,4.5,4.3,8.1,8.9,8.8v20.7C77.5,62.1,73.9,65.7,73.2,70.3z
		 M25.6,31.9h3c-0.7,2.7-3,4.9-5.7,5.5v-2.8C22.9,33.1,24.1,31.9,25.6,31.9z M22.9,67.6v-2.8c2.7,0.7,4.9,2.8,5.5,5.5h-2.8
		C24.1,70.3,22.9,69.1,22.9,67.6z M79.4,70.3h-3.2c0.7-2.8,3-5.1,6-5.8v3.1C82.1,69.1,80.9,70.3,79.4,70.3z"/>
	<path class="st1" d="M52.7,36.5c-8.1,0-14.7,6.6-14.7,14.7S44.6,66,52.7,66s14.7-6.6,14.7-14.7S60.8,36.5,52.7,36.5z M52.7,63.3
		c-6.6,0-12-5.4-12-12s5.4-12,12-12s12,5.4,12,12S59.3,63.3,52.7,63.3z"/>
	<path class="st1" d="M51.5,43.5c-0.8,0-1.4,0.6-1.4,1.4v6.9c0,0.8,0.6,1.4,1.4,1.4s1.4-0.6,1.4-1.4v-6.9
		C52.9,44.1,52.3,43.5,51.5,43.5z"/>
	<path class="st1" d="M50,51.8c0,0.8,0.6,1.4,1.4,1.4h6.9c0.8,0,1.4-0.6,1.4-1.4s-0.6-1.4-1.4-1.4h-6.9C50.7,50.4,50,51,50,51.8z"/>
</g>
</svg>
