<?xml version="1.0" encoding="utf-8"?>
<!-- Generator: Adobe Illustrator 21.1.0, SVG Export Plug-In . SVG Version: 6.00 Build 0)  -->
<svg version="1.1" id="Layer_1" xmlns="http://www.w3.org/2000/svg" xmlns:xlink="http://www.w3.org/1999/xlink" x="0px" y="0px"
	 viewBox="0 0 103.8 103.4" style="enable-background:new 0 0 103.8 103.4;" xml:space="preserve">
<style type="text/css">
	.st0{fill:#089A8B;}
	.st1{fill:none;stroke:#FFFFFF;stroke-width:0.5;stroke-miterlimit:10;}
</style>
<g id="master">
	<path id="bg" class="st0" d="M102.2,64.2c-6.8,27.8-34.9,44.5-62.5,37.6C11.9,94.9-4.8,66.9,2.1,39.2C8.9,11.4,37-5.3,64.6,1.6
		C92.4,8.3,109.2,36.5,102.2,64.2L102.2,64.2L102.2,64.2L102.2,64.2z"/>
	<polygon class="st1" points="52.5,19.2 52.5,34.4 63.1,51.7 52.8,85.2 74.2,72.1 67,39.4 	"/>
	<line class="st1" x1="63.1" y1="51.7" x2="67" y2="39.4"/>
	<line class="st1" x1="74.2" y1="72.1" x2="63.1" y2="51.7"/>
	<polygon class="st1" points="52.5,19.2 52.5,34.4 41.7,51.7 51.9,85.2 30.5,72.1 37.7,39.4 	"/>
	<line class="st1" x1="41.7" y1="51.7" x2="37.7" y2="39.4"/>
	<line class="st1" x1="30.5" y1="72.1" x2="41.7" y2="51.7"/>
	<line class="st1" x1="74.2" y1="72.1" x2="30.5" y2="72.1"/>
</g>
<rect x="51.6" y="16.8" class="st0" width="2.3" height="2.3"/>
</svg>
