<?xml version="1.0" encoding="utf-8"?>
<!-- Generator: Adobe Illustrator 21.1.0, SVG Export Plug-In . SVG Version: 6.00 Build 0)  -->
<svg version="1.1" id="Layer_1" xmlns="http://www.w3.org/2000/svg" xmlns:xlink="http://www.w3.org/1999/xlink" x="0px" y="0px"
	 viewBox="0 0 103.8 103.4" style="enable-background:new 0 0 103.8 103.4;" xml:space="preserve">
<style type="text/css">
	.st0{fill:#1AD0CE;}
	.st1{fill:#FFFFFF;}
</style>
<g id="master">
	<path id="bg" class="st0" d="M102.2,64.2c-6.8,27.8-34.9,44.5-62.5,37.6C11.9,94.9-4.8,66.9,2.1,39.2C8.9,11.4,37-5.3,64.6,1.6
		C92.4,8.3,109.2,36.5,102.2,64.2L102.2,64.2L102.2,64.2L102.2,64.2z"/>
</g>
<g id="bancor">
	<polygon class="st1" points="50,18.5 65.4,27.2 50.2,36.2 34.9,27.3 	"/>
	<polygon class="st1" points="52.5,41.8 68,32.9 68,50.6 52.5,59.6 	"/>
	<polygon class="st1" points="46.2,41.6 30.8,32.7 30.8,50.6 46.2,59.6 	"/>
	<polygon class="st1" points="46.2,65.9 30.8,57.1 30.8,74.9 46.2,83.9 	"/>
	<polygon class="st1" points="52.5,65.9 73.2,54.1 73.2,71.9 52.5,83.5 	"/>
</g>
<g id="guides">
</g>
</svg>
