<?xml version="1.0" encoding="utf-8"?>
<!-- Generator: Adobe Illustrator 21.1.0, SVG Export Plug-In . SVG Version: 6.00 Build 0)  -->
<svg version="1.1" id="Layer_1" xmlns="http://www.w3.org/2000/svg" xmlns:xlink="http://www.w3.org/1999/xlink" x="0px" y="0px"
	 viewBox="0 0 103.8 103.4" style="enable-background:new 0 0 103.8 103.4;" xml:space="preserve">
<style type="text/css">
	.st0{fill:#7ABEBE;}
	.st1{fill:#FFFFFF;}
</style>
<g id="master">
	<path id="bg" class="st0" d="M102.2,64.2c-6.8,27.8-34.9,44.5-62.5,37.6C11.9,94.9-4.8,66.9,2.1,39.2C8.9,11.4,37-5.3,64.6,1.6
		C92.4,8.3,109.2,36.5,102.2,64.2L102.2,64.2L102.2,64.2L102.2,64.2z"/>
</g>
<path class="st1" d="M79.8,17.7c-1.2-1.3-3.1-1.3-4.4-0.2L67,25c-1.3,1.2-3.2,1.1-4.4-0.2l-1.2-1.3c0,0-6.5-7.1-6.5-7.1
	c-2.2-2.4-5.9-2.6-8.3-0.4L17.1,42.9c-2.4,2.2-2.6,5.9-0.4,8.3l8.7,9.6c1.1,1.2,3,1.3,4.2,0.2l2.5-2.3c1.2-1.1,1.3-3,0.2-4.2
	l-4.1-4.5c-1.4-1.6-1.3-4,0.3-5.4l18.6-16.9c1.6-1.4,4-1.3,5.4,0.3l5.8,6.4l3.5,3.7c1.5,1.7,4.2,1.8,5.8,0.2l14-12.7
	c1.7-1.5,1.8-4.2,0.2-5.8L79.8,17.7z"/>
<path class="st1" d="M23.3,86.5c1.2,1.3,3.1,1.4,4.4,0.2l8.5-7.7c1.3-1.2,3.2-1.1,4.4,0.2l1.2,1.3c0,0,6.4,7.1,6.4,7.1
	c2.2,2.4,5.9,2.6,8.3,0.4l29.6-26.6c2.4-2.2,2.6-5.9,0.4-8.3l-8.7-9.6c-1.1-1.2-3-1.3-4.2-0.2l-2.5,2.3c-1.2,1.1-1.3,3-0.2,4.2
	l4.1,4.5c1.4,1.6,1.3,4-0.3,5.4L56,76.5c-1.6,1.4-4,1.3-5.4-0.3l-5.8-6.4L41.4,66c-1.5-1.7-4.2-1.8-5.8-0.3l-14,12.8
	c-1.7,1.5-1.8,4.2-0.3,5.8L23.3,86.5z"/>
</svg>
