<?xml version="1.0" encoding="utf-8"?>
<!-- Generator: Adobe Illustrator 22.0.1, SVG Export Plug-In . SVG Version: 6.00 Build 0)  -->
<svg version="1.1" id="Layer_1" xmlns="http://www.w3.org/2000/svg" xmlns:xlink="http://www.w3.org/1999/xlink" x="0px" y="0px"
	 viewBox="0 0 103.8 103.4" style="enable-background:new 0 0 103.8 103.4;" xml:space="preserve">
<style type="text/css">
	.st0{fill:#1D649C;}
	.st1{enable-background:new    ;}
	.st2{fill:#FFFFFF;}
</style>
<g id="master">
	<path id="bg" class="st0" d="M102.2,64.2c-6.8,27.8-34.9,44.5-62.5,37.6C11.9,94.9-4.8,66.9,2.1,39.2C8.9,11.4,37-5.3,64.6,1.6
		C92.4,8.3,109.2,36.5,102.2,64.2L102.2,64.2L102.2,64.2L102.2,64.2z"/>
	<g id="logo">
		<g class="st1">
			<path class="st2" d="M15.8,57.7c0.3,0.2,0.6,0.3,1,0.4c0.4,0.1,0.8,0.2,1.2,0.2c0.5,0,0.9-0.1,1.2-0.4c0.3-0.2,0.5-0.6,0.5-1.2
				c0-0.5-0.1-0.8-0.3-1.1c-0.2-0.3-0.5-0.6-0.8-0.8c-0.3-0.2-0.6-0.4-1-0.6c-0.4-0.2-0.7-0.4-1-0.7c-0.3-0.3-0.6-0.6-0.8-1
				s-0.3-0.9-0.3-1.4c0-0.9,0.2-1.6,0.7-2.1s1.2-0.7,2.1-0.7c0.6,0,1.1,0.1,1.5,0.2s0.8,0.3,1.1,0.4l-0.4,1.3
				c-0.3-0.1-0.6-0.3-1-0.4c-0.4-0.1-0.7-0.1-1.1-0.1c-0.5,0-0.9,0.1-1.1,0.3s-0.4,0.6-0.4,1c0,0.4,0.1,0.7,0.3,0.9
				c0.2,0.3,0.5,0.5,0.8,0.7c0.3,0.2,0.6,0.4,1,0.6c0.4,0.2,0.7,0.5,1,0.8c0.3,0.3,0.6,0.7,0.8,1.1s0.3,0.9,0.3,1.6
				c0,0.4-0.1,0.8-0.2,1.1c-0.1,0.4-0.3,0.7-0.6,0.9c-0.3,0.3-0.6,0.5-1,0.6s-0.9,0.2-1.4,0.2c-0.6,0-1.2-0.1-1.6-0.2
				c-0.5-0.1-0.9-0.3-1.2-0.5L15.8,57.7z"/>
			<path class="st2" d="M23.2,49.3c0.4-0.3,0.9-0.5,1.5-0.6c0.6-0.1,1.2-0.2,1.9-0.2c0.6,0,1.1,0.1,1.5,0.3c0.4,0.2,0.7,0.4,0.9,0.7
				c0.2,0.3,0.3,0.7,0.4,1.1c0.1,0.4,0.1,0.8,0.1,1.2c0,0.9,0,1.7-0.1,2.5s-0.1,1.6-0.1,2.3c0,0.5,0,1.1,0.1,1.5
				c0,0.5,0.1,0.9,0.2,1.3h-1.2l-0.4-1.3H28c-0.2,0.4-0.5,0.7-0.9,1c-0.4,0.3-1,0.4-1.7,0.4c-0.8,0-1.4-0.3-1.9-0.8
				c-0.5-0.5-0.7-1.3-0.7-2.2c0-0.6,0.1-1.1,0.3-1.6c0.2-0.4,0.5-0.8,0.9-1c0.4-0.3,0.8-0.4,1.4-0.6s1.1-0.2,1.8-0.2
				c0.1,0,0.3,0,0.4,0s0.3,0,0.5,0c0-0.4,0.1-0.8,0.1-1.2c0-0.8-0.1-1.4-0.4-1.7c-0.2-0.3-0.7-0.5-1.3-0.5c-0.4,0-0.8,0.1-1.3,0.2
				c-0.5,0.1-0.9,0.3-1.2,0.5L23.2,49.3z M27.9,54.5c-0.1,0-0.3,0-0.4,0c-0.1,0-0.3,0-0.4,0c-0.3,0-0.7,0-1,0.1
				c-0.3,0.1-0.6,0.2-0.9,0.3c-0.3,0.1-0.5,0.3-0.6,0.6s-0.2,0.6-0.2,0.9c0,0.6,0.1,1,0.4,1.3c0.3,0.3,0.6,0.5,1.1,0.5
				c0.6,0,1.1-0.1,1.4-0.4s0.6-0.6,0.7-1V54.5z"/>
			<path class="st2" d="M37.6,59.4v-6.6c0-1.1-0.1-1.9-0.4-2.4c-0.3-0.5-0.7-0.7-1.4-0.7c-0.6,0-1.1,0.2-1.4,0.5
				c-0.4,0.3-0.7,0.8-0.8,1.3v7.9H32V48.6h1.1l0.3,1.2h0.1c0.3-0.4,0.6-0.7,1.1-1c0.5-0.3,1-0.4,1.7-0.4c0.5,0,0.9,0.1,1.2,0.2
				c0.4,0.1,0.7,0.4,0.9,0.7c0.2,0.3,0.4,0.7,0.5,1.2c0.1,0.5,0.2,1.2,0.2,2v7H37.6z"/>
			<path class="st2" d="M40.5,48.6h1.3v-2.1l1.6-0.5v2.6h2.3V50h-2.3v6.5c0,0.6,0.1,1.1,0.2,1.4c0.2,0.3,0.4,0.4,0.7,0.4
				c0.3,0,0.5,0,0.7-0.1c0.2-0.1,0.4-0.1,0.7-0.2l0.3,1.2c-0.3,0.2-0.7,0.3-1.1,0.4c-0.4,0.1-0.8,0.1-1.2,0.1
				c-0.7,0-1.2-0.2-1.6-0.7c-0.3-0.5-0.5-1.2-0.5-2.3V50h-1.3V48.6z"/>
			<path class="st2" d="M47.5,45.3c0-0.3,0.1-0.6,0.3-0.8c0.2-0.2,0.5-0.3,0.8-0.3s0.6,0.1,0.8,0.3c0.2,0.2,0.3,0.5,0.3,0.9
				c0,0.3-0.1,0.6-0.3,0.8s-0.5,0.3-0.8,0.3s-0.6-0.1-0.8-0.3C47.6,45.9,47.5,45.6,47.5,45.3z M47.8,48.6h1.6v10.8h-1.6V48.6z"/>
			<path class="st2" d="M57.3,59.4V53c0-0.6,0-1.1-0.1-1.5s-0.1-0.7-0.2-1c-0.1-0.3-0.3-0.5-0.5-0.6c-0.2-0.1-0.5-0.2-0.8-0.2
				c-0.5,0-0.9,0.2-1.2,0.6c-0.3,0.4-0.6,0.8-0.7,1.3v7.8h-1.6V48.6h1.1l0.3,1.2h0.1c0.3-0.4,0.7-0.8,1.1-1c0.4-0.3,1-0.4,1.6-0.4
				c0.5,0,1,0.1,1.4,0.4s0.6,0.7,0.8,1.3c0.3-0.5,0.6-0.9,1.1-1.2c0.5-0.3,1-0.4,1.6-0.4c0.5,0,0.9,0.1,1.2,0.2
				c0.3,0.1,0.6,0.3,0.8,0.7c0.2,0.3,0.4,0.7,0.5,1.2c0.1,0.5,0.2,1.2,0.2,1.9v7.1h-1.6v-6.9c0-0.9-0.1-1.6-0.3-2.1
				s-0.6-0.7-1.2-0.7c-0.5,0-1,0.2-1.3,0.5c-0.3,0.3-0.6,0.8-0.7,1.4v7.8H57.3z"/>
			<path class="st2" d="M72.8,58.7c-0.3,0.3-0.8,0.6-1.3,0.7s-1.1,0.3-1.7,0.3c-0.7,0-1.3-0.1-1.8-0.4c-0.5-0.3-0.9-0.7-1.2-1.2
				c-0.3-0.5-0.6-1.1-0.7-1.8c-0.2-0.7-0.2-1.5-0.2-2.3c0-1.9,0.3-3.3,1-4.2s1.6-1.5,2.9-1.5c0.4,0,0.8,0.1,1.2,0.2
				c0.4,0.1,0.8,0.3,1.1,0.6s0.6,0.7,0.8,1.3s0.3,1.3,0.3,2.1c0,0.2,0,0.5,0,0.8c0,0.3,0,0.6-0.1,0.9h-5.5c0,0.6,0.1,1.2,0.2,1.7
				c0.1,0.5,0.3,0.9,0.5,1.3s0.5,0.6,0.8,0.8c0.3,0.2,0.8,0.3,1.3,0.3c0.4,0,0.8-0.1,1.2-0.2c0.4-0.1,0.7-0.3,0.9-0.5L72.8,58.7z
				 M71.6,52.9c0-1.1-0.1-1.9-0.5-2.4c-0.3-0.5-0.8-0.8-1.4-0.8c-0.7,0-1.2,0.3-1.6,0.8c-0.4,0.5-0.6,1.3-0.7,2.4H71.6z"/>
			<path class="st2" d="M80.9,59.4v-6.6c0-1.1-0.1-1.9-0.4-2.4s-0.7-0.7-1.4-0.7c-0.6,0-1.1,0.2-1.4,0.5c-0.4,0.3-0.7,0.8-0.8,1.3
				v7.9h-1.6V48.6h1.1l0.3,1.2h0.1c0.3-0.4,0.6-0.7,1.1-1c0.5-0.3,1-0.4,1.7-0.4c0.5,0,0.9,0.1,1.2,0.2c0.4,0.1,0.7,0.4,0.9,0.7
				c0.2,0.3,0.4,0.7,0.5,1.2c0.1,0.5,0.2,1.2,0.2,2v7H80.9z"/>
			<path class="st2" d="M83.7,48.6h1.3v-2.1l1.6-0.5v2.6H89V50h-2.3v6.5c0,0.6,0.1,1.1,0.2,1.4c0.2,0.3,0.4,0.4,0.7,0.4
				c0.3,0,0.5,0,0.7-0.1c0.2-0.1,0.4-0.1,0.7-0.2l0.3,1.2c-0.3,0.2-0.7,0.3-1.1,0.4c-0.4,0.1-0.8,0.1-1.2,0.1
				c-0.7,0-1.2-0.2-1.6-0.7c-0.3-0.5-0.5-1.2-0.5-2.3V50h-1.3V48.6z"/>
		</g>
		<circle class="st2" cx="10.3" cy="53.6" r="1.4"/>
		<circle class="st2" cx="94" cy="53.7" r="1.4"/>
		<path class="st2" d="M10.8,49.2l-1-0.2c0.1-0.2,0.7-3.7,2.6-7.7c2.5-5.4,5.8-9.2,9.6-10.9c9.8-4.2,19.6-0.6,26,10.4l-1.3,0.1
			c-6.5-10.1-15.2-13.5-24.4-9.5C13.6,35.2,10.9,49.1,10.8,49.2z"/>
		<path class="st2" d="M77.3,74.4c-4.6,0-9.3-2-13.6-5.8c-3.2-2.8-5.5-6.2-5.6-6.3h1.3c0.1,0.1,7.4,11,17.9,11
			c10.9,0,15.2-10.1,15.9-15.4l1,0.2C93.4,63.7,88.9,74.4,77.3,74.4z"/>
	</g>
</g>
</svg>
