<?xml version="1.0" encoding="utf-8"?>
<!-- Generator: Adobe Illustrator 22.1.0, SVG Export Plug-In . SVG Version: 6.00 Build 0)  -->
<svg version="1.1" id="Layer_1" xmlns="http://www.w3.org/2000/svg" xmlns:xlink="http://www.w3.org/1999/xlink" x="0px" y="0px"
	 viewBox="0 0 103.8 103.4" style="enable-background:new 0 0 103.8 103.4;" xml:space="preserve">
<style type="text/css">
	.st0{fill:#FF18A2;}
	.st1{fill:#FFFFFF;}
</style>
<path id="bg" class="st0" d="M102.2,64.2c-6.8,27.8-34.9,44.5-62.5,37.6C11.9,94.9-4.8,66.9,2.1,39.2C8.9,11.4,37-5.3,64.6,1.6
	C92.4,8.3,109.2,36.5,102.2,64.2L102.2,64.2L102.2,64.2L102.2,64.2z"/>
<g id="XMLID_6_">
	<path id="XMLID_15_" class="st1" d="M20,53.6c-0.9-0.1-1.5,0.5-1.7,1.4c-0.4,1.4,0.8,2.3,2,2.6c1.3,0.3,2.7,0.1,3-1.4
		c0.3-1-0.2-1.8-1.1-2.1l0.5-2.2c2.2,0.7,3.1,2.6,2.5,4.7c-0.6,2.6-3,3.8-5.5,3.1c-2.5-0.6-4-2.8-3.4-5.3c0.5-1.8,2.1-3.5,4.2-3.1
		L20,53.6z"/>
	<path id="XMLID_12_" class="st1" d="M18.6,45.5c0.7-2.7,3-3.7,5.5-3.1c2.5,0.6,4.1,2.6,3.4,5.3c-0.7,2.7-3,3.7-5.5,3.1
		C19.5,50.2,17.9,48.2,18.6,45.5z M25.5,47.2c0.4-1.4-0.8-2.3-2-2.6c-1.3-0.3-2.7-0.1-3,1.4c-0.4,1.4,0.8,2.3,2,2.6
		C23.8,48.9,25.2,48.6,25.5,47.2z"/>
	<path id="XMLID_9_" class="st1" d="M20.1,40.1l1.1-4.3c0.4-1.5,1.4-2.8,3.1-2.4c0.9,0.2,1.7,0.9,1.8,1.9l0,0
		c0.4-0.9,1.5-0.9,2.3-0.7c0.4,0.1,1.6,0.3,2,0.1l-0.5,2.2c-0.3,0.1-1.2-0.1-1.4-0.1c-0.9-0.2-1.8-0.2-2,0.8l-0.4,1.7l3.1,0.8
		l-0.5,2.2L20.1,40.1z M24.3,38.8l0.5-1.9c0.2-0.7-0.1-1.1-0.7-1.3c-0.6-0.2-1,0.3-1.2,0.9l-0.4,1.8L24.3,38.8z"/>
	<path id="XMLID_7_" class="st1" d="M22.2,31.5l1.7-6.8l1.8,0.4l-1.1,4.6l1.5,0.4l1-4.2l1.7,0.4l-1,4.2l1.6,0.4l1.2-4.7l1.9,0.5
		l-1.7,6.9L22.2,31.5z"/>
</g>
<path id="XMLID_159_" class="st1" d="M83,46.4c0.3-0.9,2.3-6.6-2-11.4c-4.3-4.8-10.9-6.3-10.9-6.3l2.5-10.9l-6.4-1.6l-2.6,10.6
	l-5.2-1.2l2.8-10.9l-6.9-1.7l-2.7,11l-13.4-3.5l-1.7,7.4c0,0,2.9,0.7,5.5,1.3c2.6,0.7,2.4,4,2.4,4s-6,25-7,28.5
	c-0.9,3.5-4.4,2.3-4.4,2.3l-3.8-1.2l-3.5,7.5L39.1,74l-2.8,10.6l6.6,1.9l2.8-10.9l5.3,1.2l-3,10.9l6.6,1.9l3.1-11.4c0,0,0,0,5.4,1.1
	c5.4,1.1,11.6-0.3,15.5-4.4c2.6-2.8,4.3-8.1,3.4-12.6c-1.2-6.4-7-8.7-7-8.7l0.1-0.3C80.7,53,82.6,47.2,83,46.4z M68.2,64.3
	c-0.4,1.8-2.1,6.2-8.8,5.7c-6.7-0.5-11.6-2.4-11.6-2.4l3.6-14.5c0,0,6.5,0.9,11.5,3.4C68,59,68.6,62.5,68.2,64.3z M70.3,43.4
	c-1.6,7.8-13.9,3.9-17.1,2.9L56.5,33C56.5,33,72,35.6,70.3,43.4z"/>
</svg>
