<?xml version="1.0" encoding="utf-8"?>
<!-- Generator: Adobe Illustrator 21.1.0, SVG Export Plug-In . SVG Version: 6.00 Build 0)  -->
<svg version="1.1" id="Layer_1" xmlns="http://www.w3.org/2000/svg" xmlns:xlink="http://www.w3.org/1999/xlink" x="0px" y="0px"
	 viewBox="0 0 103.8 103.4" style="enable-background:new 0 0 103.8 103.4;" xml:space="preserve">
<style type="text/css">
	.st0{fill:#ECB634;}
	.st1{fill:#FFFFFF;}
</style>
<path id="bg" class="st0" d="M102.2,64.2c-6.8,27.8-34.9,44.5-62.5,37.6C11.9,94.9-4.8,66.9,2.1,39.2C8.9,11.4,37-5.3,64.6,1.6
	C92.4,8.3,109.2,36.5,102.2,64.2L102.2,64.2L102.2,64.2L102.2,64.2z"/>
<g id="logoi">
	<polygon class="st1" points="54.2,31.8 93.9,31.8 93.9,39.8 63,39.8 63,61.6 84.8,61.6 84.8,54.9 69.6,54.9 69.6,46.9 93.7,46.9 
		93.7,69.6 54.2,69.6 	"/>
	<path class="st1" d="M42.2,31.8H51v37.8H11.5V46.8h30.6v-15H42.2z M20.3,54.9v6.7h21.8v-6.7H20.3z"/>
	<rect x="11.5" y="31.8" class="st1" width="27.4" height="11.4"/>
</g>
</svg>
