<?xml version="1.0" encoding="utf-8"?>
<!-- Generator: Adobe Illustrator 21.1.0, SVG Export Plug-In . SVG Version: 6.00 Build 0)  -->
<svg version="1.1" id="Layer_1" xmlns="http://www.w3.org/2000/svg" xmlns:xlink="http://www.w3.org/1999/xlink" x="0px" y="0px"
	 viewBox="0 0 103.8 103.4" style="enable-background:new 0 0 103.8 103.4;" xml:space="preserve">
<style type="text/css">
	.st0{fill:#003C4C;}
	.st1{fill:#FFFFFF;}
</style>
<g id="master">
	<path id="bg" class="st0" d="M102.2,64.2c-6.8,27.8-34.9,44.5-62.5,37.6C11.9,94.9-4.8,66.9,2.1,39.2C8.9,11.4,37-5.3,64.6,1.6
		C92.4,8.3,109.2,36.5,102.2,64.2L102.2,64.2L102.2,64.2L102.2,64.2z"/>
	<path id="M" class="st1" d="M82.5,40.2c-0.1-1.5-0.9-2.8-2.1-3.6l0,0l0,0c0,0,0,0-0.1,0L55.1,22.2l-1-0.4c-0.3-0.2-0.7-0.4-1.1-0.5
		c0,0,0,0-0.1,0c-0.2,0-0.4-0.1-0.6-0.1c0,0,0,0,0,0s0,0,0,0c-0.2,0-0.4,0-0.6,0.1c0,0,0,0-0.1,0c-0.4,0.1-0.8,0.2-1.1,0.5l-1,0.4
		L24.2,36.6c0,0,0,0-0.1,0l0,0l0,0c-1.2,0.8-1.9,2.1-2.1,3.6h0v3.6v6v25c0,0.6,0.5,1,1,1h10.4c0.5,0,1-0.4,1-1V48.3v-0.2
		c0,0,0-3.1,1.8-4.2s7.2-4.1,7.2-4.1s2.3-1.4,2.7,1.1v16.5c0,1.1,0.9,2,2,2h1h6.3h1c1.1,0,2-0.9,2-2V40.8c0.4-2.5,2.7-1.1,2.7-1.1
		s5.4,3,7.2,4.1s1.8,4.2,1.8,4.2v0.2v26.6c0,0.6,0.5,1,1,1h10.4c0.5,0,1-0.4,1-1v-25v-6L82.5,40.2L82.5,40.2z"/>
</g>
<g id="guides">
</g>
</svg>
