<?xml version="1.0" encoding="utf-8"?>
<!-- Generator: Adobe Illustrator 21.1.0, SVG Export Plug-In . SVG Version: 6.00 Build 0)  -->
<svg version="1.1" id="Layer_1" xmlns="http://www.w3.org/2000/svg" xmlns:xlink="http://www.w3.org/1999/xlink" x="0px" y="0px"
	 viewBox="0 0 103.8 103.4" style="enable-background:new 0 0 103.8 103.4;" xml:space="preserve">
<style type="text/css">
	.st0{fill:#F68E20;}
	.st1{fill:#FFFFFF;}
</style>
<g id="master">
	<path id="bg" class="st0" d="M102.2,64.2c-6.8,27.8-34.9,44.5-62.5,37.6C11.9,94.9-4.8,66.9,2.1,39.2C8.9,11.4,37-5.3,64.6,1.6
		C92.4,8.3,109.2,36.5,102.2,64.2L102.2,64.2L102.2,64.2L102.2,64.2z"/>
</g>
<g>
	<g>
		<polygon class="st1" points="38.1,42.3 33.4,55.1 28.7,42.3 21,42.3 16.3,55.2 11.6,42.3 5.2,42.3 12.1,61.1 20.5,61.1 24.9,49 
			29.2,61.1 37.6,61.1 44.4,42.3 		"/>
		<g>
			<g>
				<polygon class="st1" points="90.2,49.9 99.3,42.3 90.1,42.3 85.5,46.1 				"/>
			</g>
			<polygon class="st1" points="69.9,36.3 60.6,36.3 78.9,51.7 73.1,56.5 61.1,42.3 53.3,42.3 32.5,67.1 40.3,67.1 57.2,46.9 
				62.1,52.7 55.7,52.7 52.5,56.6 65.4,56.6 69.1,61.1 76.9,61.1 76.9,61.1 83.5,55.6 90.1,61.1 99.3,61.1 			"/>
		</g>
	</g>
</g>
</svg>
