<?xml version="1.0" encoding="utf-8"?>
<!-- Generator: Adobe Illustrator 21.1.0, SVG Export Plug-In . SVG Version: 6.00 Build 0)  -->
<svg version="1.1" id="Layer_1" xmlns="http://www.w3.org/2000/svg" xmlns:xlink="http://www.w3.org/1999/xlink" x="0px" y="0px"
	 viewBox="0 0 103.8 103.4" style="enable-background:new 0 0 103.8 103.4;" xml:space="preserve">
<style type="text/css">
	.st0{fill:#63C5BA;}
	.st1{fill:#FFFFFF;}
</style>
<g id="master">
	<path id="bg" class="st0" d="M102.2,64.2c-6.8,27.8-34.9,44.5-62.5,37.6C11.9,94.9-4.8,66.9,2.1,39.2C8.9,11.4,37-5.3,64.6,1.6
		C92.4,8.3,109.2,36.5,102.2,64.2L102.2,64.2L102.2,64.2L102.2,64.2z"/>
	<path class="st1" d="M51.7,20.3c-17.7,0-32.1,14.4-32.1,32.1S34,84.4,51.7,84.4s32.1-14.4,32.1-32.1S69.4,20.3,51.7,20.3z
		 M51.7,76.1C38.6,76.1,28,65.4,28,52.4c0-13.1,10.6-23.7,23.7-23.7s23.7,10.6,23.7,23.7C75.4,65.4,64.8,76.1,51.7,76.1z"/>
	<rect x="36.6" y="41.3" class="st1" width="29.5" height="8.9"/>
	<rect x="46.6" y="45.8" class="st1" width="8.9" height="24.2"/>
</g>
</svg>
