<?xml version="1.0" encoding="utf-8"?>
<!-- Generator: Adobe Illustrator 21.1.0, SVG Export Plug-In . SVG Version: 6.00 Build 0)  -->
<svg version="1.1" id="Layer_1" xmlns="http://www.w3.org/2000/svg" xmlns:xlink="http://www.w3.org/1999/xlink" x="0px" y="0px"
	 viewBox="0 0 103.8 103.4" style="enable-background:new 0 0 103.8 103.4;" xml:space="preserve">
<style type="text/css">
	.st0{fill:#FF5500;}
	.st1{fill:#FFFFFF;}
</style>
<path id="bg" class="st0" d="M101.8,64.1c-6.8,27.8-34.9,44.5-62.5,37.6C11.5,94.8-5.2,66.8,1.7,39.1C8.5,11.3,36.6-5.4,64.2,1.5
	C92,8.2,108.8,36.4,101.8,64.1L101.8,64.1L101.8,64.1L101.8,64.1z"/>
<g id="logo">
	<polygon class="st1" points="52.1,20.6 82.3,72.8 63.7,62.1 52.1,41.9 	"/>
	<polygon class="st1" points="51.7,20.6 21.5,72.8 40.1,62.1 51.7,41.9 	"/>
	<polygon class="st1" points="21.5,73.5 82.3,73.5 63.6,62.7 40.3,62.7 	"/>
	<polygon class="st1" points="51.9,42.8 62.9,61.9 40.9,61.9 	"/>
</g>
</svg>
