<svg xmlns="http://www.w3.org/2000/svg" xmlns:xlink="http://www.w3.org/1999/xlink" xmlns:fi="http://pattern.flaticon.com/" x="0" y="0" width="1500" height="750" viewBox="0 0 1500 750"><rect x="0px" y="0px" width="100%" height="100%" opacity="0" fill="#ffffff"/><defs><path d="M416,224.001c3.156-0.01,6.01-1.875,7.288-4.76l0.056-0.128l31.936-71.856c0.466-1.023,0.711-2.132,0.72-3.256v-136    c0.053-4.365-3.442-7.947-7.807-8C448.129,0,448.064,0,448,0.001H304c-3.047-0.017-5.838,1.699-7.2,4.424l-32,64h0.08    c-0.574,1.105-0.875,2.331-0.88,3.576v64h-48v-128c0.053-4.365-3.442-7.947-7.807-8C208.129,0,208.064,0,208,0.001H64    c-3.032-0.001-5.805,1.712-7.16,4.424l-32,64h0.08c-0.588,1.102-0.903,2.328-0.92,3.576v144c0,4.418,3.582,8,8,8h64v32H64    c-3.032-0.001-5.805,1.712-7.16,4.424l-32,64h0.08c-0.588,1.102-0.903,2.328-0.92,3.576v144c0,4.418,3.582,8,8,8h144    c3.156-0.01,6.01-1.875,7.288-4.76l0.056-0.128l29.856-67.112H264v64c0,4.418,3.582,8,8,8h144c3.156-0.01,6.01-1.875,7.288-4.76    l0.056-0.128l31.936-71.856c0.466-1.023,0.711-2.132,0.72-3.256v-136c0.053-4.365-3.442-7.947-7.807-8    c-0.064-0.001-0.129-0.001-0.193,0h-96v-32H416z M440,142.305l-16,36V73.889l16-32V142.305z M308.944,16.001h126.112l-24,48    H284.944L308.944,16.001z M184,136.001V73.889l16-32v94.112H184z M195.688,152.001L184,178.305v-26.304H195.688z M68.944,16.001    h126.112l-24,48H44.944L68.944,16.001z M40,208.001v-128h128v56H96v16h72v56H40z M68.944,272.001H96v48H44.944L68.944,272.001z     M168,464.001H40v-128h56v72h16v-72h56V464.001z M171.056,320.001H112v-48h83.056L171.056,320.001z M184,434.305v-26.304h11.688    L184,434.305z M200,392.001h-16v-62.112l16-32V392.001z M264.8,324.425h0.08c-0.574,1.105-0.875,2.331-0.88,3.576v64h-48v-128    c0.053-4.365-3.442-7.947-7.807-8c-0.064-0.001-0.129-0.001-0.193,0h-96v-32h64c3.156-0.01,6.01-1.875,7.288-4.76l0.056-0.128    l29.856-67.112H264v64c0,4.418,3.582,8,8,8h64v32h-32c-3.047-0.017-5.838,1.699-7.2,4.424L264.8,324.425z M336,272.001v48h-51.056    l24-48H336z M408,464.001H280v-56h72v-16h-72v-56h128V464.001z M440,398.305l-16,36V329.889l16-32V398.305z M435.056,272.001    l-24,48H352v-48H435.056z M336,136.001v72h-56v-128h128v128h-56v-72H336z" transform="matrix(0.12499973922967911 0 0 0.12499973922967911 183.99999887085198 154)" id="L1_0"/><g transform="matrix(0.125 0 0 0.125 79 274)" id="L1_1"><path d="M240,128c-61.856,0-112,50.144-112,112s50.144,112,112,112c61.828-0.066,111.934-50.172,112-112    C352,178.144,301.856,128,240,128z M323.248,192.392c6.982,12.132,11.197,25.657,12.344,39.608h-39.784    c-0.356-11.672-1.667-23.294-3.92-34.752C303.088,196.024,313.648,194.392,323.248,192.392z M313.216,178.056    c-7.888,1.424-16.352,2.616-25.264,3.544c-3.155-11.087-7.926-21.648-14.16-31.344    C289.08,156.025,302.648,165.593,313.216,178.056z M200.184,232c0.363-11.182,1.68-22.313,3.936-33.272    C215.696,199.568,227.752,200,240,200s24.304-0.432,35.88-1.272c2.256,10.959,3.573,22.09,3.936,33.272H200.184z M279.816,248    c-0.364,11.182-1.68,22.313-3.936,33.272C264.304,280.432,252.248,280,240,280s-24.304,0.432-35.88,1.272    c-2.256-10.959-3.573-22.09-3.936-33.272H279.816z M240,144c11.536,0,23.84,14.704,31.72,38.96    C261.456,183.624,250.832,184,240,184c-10.832,0-21.456-0.376-31.72-1.04C216.16,158.704,228.464,144,240,144z M206.208,150.256    c-6.234,9.696-11.005,20.257-14.16,31.344c-8.912-0.928-17.376-2.12-25.264-3.544C177.352,165.593,190.92,156.025,206.208,150.256    z M156.752,192.392c9.6,2,20.144,3.632,31.36,4.856c-2.253,11.458-3.564,23.08-3.92,34.752h-39.784    C145.555,218.049,149.771,204.524,156.752,192.392z M156.752,287.608c-6.982-12.132-11.197-25.657-12.344-39.608h39.784    c0.356,11.672,1.667,23.294,3.92,34.752C176.912,283.976,166.352,285.608,156.752,287.608z M166.784,301.944    c7.888-1.424,16.352-2.616,25.264-3.544c3.155,11.087,7.926,21.648,14.16,31.344C190.92,323.974,177.352,314.407,166.784,301.944z     M240,336c-11.536,0-23.84-14.704-31.72-38.96c10.264-0.664,20.888-1.04,31.72-1.04c10.832,0,21.456,0.376,31.72,1.04    C263.84,321.296,251.536,336,240,336z M273.792,329.744c6.234-9.696,11.005-20.257,14.16-31.344    c8.912,0.928,17.376,2.12,25.264,3.544C302.648,314.407,289.08,323.974,273.792,329.744z M323.248,287.608    c-9.6-2-20.144-3.632-31.36-4.856c2.253-11.458,3.564-23.081,3.92-34.752h39.784C334.445,261.951,330.229,275.476,323.248,287.608    z"/><path d="M88,0H8C3.582,0,0,3.582,0,8v64c0,4.418,3.582,8,8,8h32v16H8v16h80V96H56V80h32c4.418,0,8-3.582,8-8V8    C96,3.582,92.418,0,88,0z M80,64H16V16h64V64z"/><path d="M472,0h-80c-4.418,0-8,3.582-8,8v64c0,4.418,3.582,8,8,8h32v16h-32v16h80V96h-32V80h32c4.418,0,8-3.582,8-8V8    C480,3.582,476.418,0,472,0z M464,64h-64V16h64V64z"/><path d="M88,448c4.418,0,8-3.582,8-8v-64c0-4.418-3.582-8-8-8H8c-4.418,0-8,3.582-8,8v64c0,4.418,3.582,8,8,8h32v16H0v16h96v-16    H56v-16H88z M16,432v-48h64v48H16z"/><path d="M472,448c4.418,0,8-3.582,8-8v-64c0-4.418-3.582-8-8-8h-80c-4.418,0-8,3.582-8,8v64c0,4.418,3.582,8,8,8h32v16h-40v16h96    v-16h-40v-16H472z M400,432v-48h64v48H400z"/><path d="M126.84,115.496l11.72-3.912l-5.088-15.168l-24,8c-2.393,0.785-4.271,2.662-5.056,5.056l-8,24l15.2,5.056l3.912-11.72    l22.848,22.848l11.312-11.312L126.84,115.496z"/><path d="M375.616,109.504c-0.783-2.413-2.675-4.305-5.088-5.088l-24-8l-5.056,15.2l11.72,3.912l-22.848,22.848l11.312,11.312    l22.848-22.848l3.912,11.72l15.2-5.056L375.616,109.504z"/><path d="M149.624,341.624l-11.28-11.28l-22.848,22.848l-3.912-11.72l-15.2,5.056l8,24c0.785,2.393,2.662,4.271,5.056,5.056l24,8    l5.056-15.2l-11.72-3.912L149.624,341.624z"/><path d="M368.384,341.472l-3.912,11.72l-22.848-22.848l-11.312,11.312l22.848,22.848l-11.72,3.912l5.088,15.168l24-8    c2.393-0.785,4.271-2.662,5.056-5.056l8-24L368.384,341.472z"/><rect x="232px" y="32px" width="16px" height="64px"/><rect x="232px" y="0px" width="16px" height="16px"/><rect x="268px" y="95px" width="22px" height="16px" transform="matrix(0.7071 -0.7071 0.7071 0.7071 8.4729 228.4487)"/><rect x="192px" y="92px" width="16px" height="22px" transform="matrix(0.7071 -0.7071 0.7071 0.7071 -14.9572 171.885)"/><rect x="232px" y="384px" width="16px" height="64px"/><rect x="232px" y="464px" width="16px" height="16px"/><rect x="272px" y="364px" width="16px" height="22px" transform="matrix(0.7071 -0.7071 0.7071 0.7071 -183.8628 308.1211)"/><rect x="193px" y="365px" width="16px" height="16px" transform="matrix(0.7071 -0.7071 0.7071 0.7071 -205.2891 252.3805)"/><rect x="384px" y="232px" width="64px" height="16px"/><rect x="464px" y="232px" width="16px" height="16px"/><rect x="364px" y="191px" width="22px" height="16px" transform="matrix(0.7071 -0.7071 0.7071 0.7071 -31.2901 324.4526)"/><rect x="368px" y="268px" width="16px" height="22px" transform="matrix(0.7071 -0.7071 0.7071 0.7071 -87.8309 347.8724)"/><rect x="32px" y="232px" width="64px" height="16px"/><rect x="0px" y="232px" width="16px" height="16px"/><rect x="96px" y="188px" width="16px" height="22px" transform="matrix(0.7071 -0.7071 0.7071 0.7071 -110.9606 132.1214)"/><rect x="92px" y="272px" width="22px" height="16px" transform="matrix(0.7071 -0.7071 0.7071 0.7071 -167.5318 155.5481)"/></g><g transform="matrix(0.124972403049469 0 0 0.124972403049469 313 43)" id="L1_2"><path d="M360.106,176.056c-26.51,0-48,21.49-48,48c0,26.51,21.49,48,48,48c26.51,0,48-21.49,48-48    C408.08,197.558,386.605,176.083,360.106,176.056z M360.106,256.056c-17.673,0-32-14.327-32-32s14.327-32,32-32    c17.673,0,32,14.327,32,32S377.779,256.056,360.106,256.056z"/><path d="M192.106,319.888c-13.255-17.673-38.327-21.255-56-8s-21.255,38.327-8,56c2.274,3.032,4.968,5.726,8,8v56.168    c0,4.418,3.582,8,8,8h32c4.418,0,8-3.582,8-8v-56.168C201.779,362.633,205.361,337.561,192.106,319.888z M172.106,364.704    c-2.47,1.426-3.994,4.06-4,6.912v52.44h-16v-52.44c-0.006-2.852-1.53-5.486-4-6.912c-7.422-4.224-12.004-12.108-12-20.648    c0-13.255,10.745-24,24-24s24,10.745,24,24C184.11,352.596,179.528,360.48,172.106,364.704z"/><path d="M478.735,96.046c-3.38-9.596-12.455-16.009-22.629-15.989c-13.224-0.025-23.964,10.675-23.989,23.899    c-0.019,10.174,6.393,19.249,15.989,22.629v89.472h-0.408c-3.907-42.234-37.359-75.685-79.592-79.592v-25.88    c12.497-4.418,19.046-18.131,14.627-30.627s-18.131-19.046-30.627-14.627c-12.497,4.418-19.046,18.131-14.627,30.627    c2.416,6.835,7.793,12.211,14.627,14.627v25.88c-48.4,4.413-84.059,47.226-79.647,95.626c1.028,11.281,4.225,22.257,9.415,32.326    c-0.573-0.188-1.167-0.309-1.768-0.36h-24v-32c0-2.704-0.184-5.352-0.408-8h0.408v-192h105.472    c4.418,12.497,18.131,19.046,30.627,14.627s19.046-18.131,14.627-30.627c-4.418-12.497-18.131-19.046-30.627-14.627    c-6.835,2.416-12.211,7.793-14.627,14.627H248.106c-4.418,0-8,3.582-8,8v155.048c-16.217-24.476-42.742-40.185-72-42.64V24.056    c0-4.418-3.582-8-8-8H46.634C42.216,3.559,28.503-2.989,16.007,1.429S-3.039,19.559,1.379,32.056    C5.797,44.553,19.51,51.102,32.007,46.684c6.835-2.416,12.211-7.793,14.627-14.627h105.472v104.408    c-14.103,1.167-27.769,5.466-40,12.584v-30.464c12.497-4.418,19.046-18.131,14.627-30.627s-18.131-19.046-30.627-14.627    C83.609,77.748,77.06,91.46,81.479,103.957c2.416,6.835,7.793,12.211,14.627,14.627v42.12    c-16.152,14.463-26.923,33.976-30.552,55.352h-18.92c-4.418-12.497-18.131-19.046-30.627-14.627s-19.046,18.131-14.627,30.627    c4.418,12.497,18.131,19.046,30.627,14.627c6.835-2.416,12.211-7.793,14.627-14.627h17.472v32h-24c-4.418,0-8,3.582-8,8v200    c0,4.418,3.582,8,8,8h240c4.418,0,8-3.582,8-8V274.76c9.954,14.149,23.871,25.038,40,31.296v166c0,4.418,3.582,8,8,8h104    c4.418,0,8-3.582,8-8v-32c0-4.418-3.582-8-8-8h-48v-16h24c4.418,0,8-3.582,8-8v-32c0-4.418-3.582-8-8-8h-24v-62    c31.126-12.05,52.693-40.75,55.608-74h8.392c4.418,0,8-3.582,8-8v-97.472C476.579,122.191,483.129,108.518,478.735,96.046z     M384.106,16.056c4.418,0,8,3.582,8,8s-3.582,8-8,8s-8-3.582-8-8S379.688,16.056,384.106,16.056z M24.106,32.056    c-4.418,0-8-3.582-8-8s3.582-8,8-8s8,3.582,8,8S28.524,32.056,24.106,32.056z M24.106,232.056c-4.418,0-8-3.582-8-8s3.582-8,8-8    s8,3.582,8,8S28.524,232.056,24.106,232.056z M104.106,88.056c4.418,0,8,3.582,8,8s-3.582,8-8,8s-8-3.582-8-8    S99.688,88.056,104.106,88.056z M80.106,232.056c0-44.183,35.817-80,80-80s80,35.817,80,80v32h-24v-32c0-30.928-25.072-56-56-56    c-30.928,0-56,25.072-56,56v32h-24V232.056z M200.106,232.056v32h-80v-32c0-22.091,17.909-40,40-40    S200.106,209.965,200.106,232.056z M272.106,464.056h-224v-184h224V464.056z M360.106,80.056c4.418,0,8,3.582,8,8s-3.582,8-8,8    s-8-3.582-8-8S355.688,80.056,360.106,80.056z M428.79,245.669c-7.059,22.445-24.639,40.025-47.084,47.084    c-3.333,1.048-5.6,4.138-5.6,7.632v75.672c0,4.418,3.582,8,8,8h24v16h-24c-4.418,0-8,3.582-8,8v32c0,4.418,3.582,8,8,8h48v16h-88    V300.384c0-3.494-2.267-6.584-5.6-7.632c-37.933-11.929-59.013-52.351-47.084-90.284c11.929-37.933,52.351-59.013,90.284-47.084    C419.639,167.314,440.719,207.736,428.79,245.669z M456.106,112.056c-4.418,0-8-3.582-8-8s3.582-8,8-8s8,3.582,8,8    S460.524,112.056,456.106,112.056z"/><path d="M304.106,48.056c-2.122,0-4.156,0.844-5.656,2.344l-24,24c-1.5,1.5-2.344,3.534-2.344,5.656v56h16V83.368l19.312-19.312    h12.688v-16H304.106z"/><rect x="184px" y="0px" width="16px" height="96px"/><path d="M53.106,137.808l-37-29.592v-44.16h-16v48c-0.001,2.43,1.103,4.729,3,6.248l37,29.592v36.16h16v-40    C56.107,141.626,55.003,139.327,53.106,137.808z"/><path d="M472.106,0.056h-48v16h40v48h16v-56C480.106,3.638,476.524,0.056,472.106,0.056z"/></g></defs><g fi:class="KUsePattern"><pattern id="pattern_L1_0" width="350" height="350" patternUnits="userSpaceOnUse"><use xlink:href="#L1_0" x="-350" y="-350"/><use xlink:href="#L1_0" x="0" y="-350"/><use xlink:href="#L1_0" x="350" y="-350"/><use xlink:href="#L1_0" x="-350" y="0"/><use xlink:href="#L1_0" x="0" y="0"/><use xlink:href="#L1_0" x="350" y="0"/><use xlink:href="#L1_0" x="-350" y="350"/><use xlink:href="#L1_0" x="0" y="350"/><use xlink:href="#L1_0" x="350" y="350"/></pattern><rect x="0" y="0" width="100%" height="100%" fill="url(#pattern_L1_0)"/></g><g fi:class="KUsePattern"><pattern id="pattern_L1_1" width="350" height="350" patternUnits="userSpaceOnUse"><use xlink:href="#L1_1" x="-350" y="-350"/><use xlink:href="#L1_1" x="0" y="-350"/><use xlink:href="#L1_1" x="350" y="-350"/><use xlink:href="#L1_1" x="-350" y="0"/><use xlink:href="#L1_1" x="0" y="0"/><use xlink:href="#L1_1" x="350" y="0"/><use xlink:href="#L1_1" x="-350" y="350"/><use xlink:href="#L1_1" x="0" y="350"/><use xlink:href="#L1_1" x="350" y="350"/></pattern><rect x="0" y="0" width="100%" height="100%" fill="url(#pattern_L1_1)"/></g><g fi:class="KUsePattern" opacity="1"><pattern id="pattern_L1_2" width="350" height="350" patternUnits="userSpaceOnUse"><use xlink:href="#L1_2" x="-350" y="-350"/><use xlink:href="#L1_2" x="0" y="-350"/><use xlink:href="#L1_2" x="350" y="-350"/><use xlink:href="#L1_2" x="-350" y="0"/><use xlink:href="#L1_2" x="0" y="0"/><use xlink:href="#L1_2" x="350" y="0"/><use xlink:href="#L1_2" x="-350" y="350"/><use xlink:href="#L1_2" x="0" y="350"/><use xlink:href="#L1_2" x="350" y="350"/></pattern><rect x="0" y="0" width="100%" height="100%" fill="url(#pattern_L1_2)"/></g></svg>