<?xml version="1.0" encoding="utf-8"?>
<!-- Generator: Adobe Illustrator 21.1.0, SVG Export Plug-In . SVG Version: 6.00 Build 0)  -->
<svg version="1.1" id="Layer_1" xmlns="http://www.w3.org/2000/svg" xmlns:xlink="http://www.w3.org/1999/xlink" x="0px" y="0px"
	 viewBox="0 0 103.8 103.4" style="enable-background:new 0 0 103.8 103.4;" xml:space="preserve">
<style type="text/css">
	.st0{fill:#00A9C8;}
	.st1{fill:#FFFFFF;}
</style>
<g id="master">
	<path id="bg" class="st0" d="M102.2,64.2c-6.8,27.8-34.9,44.5-62.5,37.6C11.9,94.9-4.8,66.9,2.1,39.2C8.9,11.4,37-5.3,64.6,1.6
		C92.4,8.3,109.2,36.5,102.2,64.2L102.2,64.2L102.2,64.2L102.2,64.2z"/>
</g>
<g id="logo">
	<path id="face" class="st1" d="M39.3,43.3l-1.5-1.7c-1.8,3.1-2.9,6.8-2.9,10.7c0,10.7,7.7,19.4,17.3,19.4S69.3,63,69.3,52.3
		c0-3.9-1-7.6-2.8-10.7l-1.4,1.5c0.5,1,2.9,6-1.3,10.2c-2.7,2.6-5.9,1.6-8,0.4l-3.7,4.2l-3.6-4.1c-2.2,1.3-5.3,2.2-7.9-0.5
		C36.5,49.3,38.7,44.4,39.3,43.3L39.3,43.3z"/>
	<path id="top" class="st1" d="M38.1,38.9c3.4-4.5,8.5-7.4,14-7.4c5.6,0,10.7,2.9,14.1,7.5L52.3,55L38.1,38.9z M40.4,39.1L40.4,39.1
		l11.8,13.4L64,39.2c-2.8-3.8-7.1-6.2-11.8-6.2C47.4,33,43.3,35.3,40.4,39.1z"/>
	<path id="eye" class="st1" d="M41.6,45.9l-0.4-0.4c0,0-1.7,3.1,0.1,5.3s3.9,0.9,4.7,0.5c0.1-0.1,0.2-0.1,0.2-0.2L41.6,45.9z"/>
	<path id="eye_1_" class="st1" d="M62.8,45.9l0.4-0.4c0,0,1.7,3.1-0.1,5.3s-3.9,0.9-4.7,0.5c-0.1-0.1-0.2-0.1-0.2-0.2L62.8,45.9z"/>
	<path id="Path-6" class="st1" d="M7,47.2h25.6c0,0-1.9,10.1,3.8,17.8C36.4,65.1,11.5,65.8,7,47.2z"/>
	<path id="Path-6_1_" class="st1" d="M97.3,47.2H71.7c0,0,1.9,10.1-3.8,17.8C67.9,65.1,92.8,65.8,97.3,47.2z"/>
</g>
</svg>
