<?xml version="1.0" encoding="utf-8"?>
<!-- Generator: Adobe Illustrator 22.1.0, SVG Export Plug-In . SVG Version: 6.00 Build 0)  -->
<svg version="1.1" id="Layer_1" xmlns="http://www.w3.org/2000/svg" xmlns:xlink="http://www.w3.org/1999/xlink" x="0px" y="0px"
	 viewBox="0 0 103.8 103.4" style="enable-background:new 0 0 103.8 103.4;" xml:space="preserve">
<style type="text/css">
	.st0{fill:#9E9072;}
	.st1{fill:#FFFFFF;}
</style>
<path id="bg" class="st0" d="M102.2,64.2c-6.8,27.8-34.9,44.5-62.5,37.6C11.9,94.9-4.8,66.9,2.1,39.2C8.9,11.4,37-5.3,64.6,1.6
	C92.4,8.3,109.2,36.5,102.2,64.2L102.2,64.2L102.2,64.2L102.2,64.2z"/>
<path class="st1" d="M79,51.6c8.5-5.5,6.6-22-7.6-22.7h-4.7v-7.6c1.4-1,2.9-1.7,4.7-2v-1h-18l0,1c1.8,0.3,3.4,1,4.7,2v7.6H47.6
	l0,5.2c8.1,0,16.2,0,24.3,0c9.7,1.2,8.9,13.7,0.2,14.9c-1.8,0-3.6,0-5.4,0V36.5h-8.6V49H37.2V21.2c1.3-1.1,3-1.6,4.7-2v-1h-18v1
	c1.9,0.3,3.4,1,4.7,2l0,60.6c-1.4,1-3,1.7-4.8,1.9v1h18v-1c-1.8-0.3-3.4-1-4.7-2.1V54.2h20.9v15H47.6v5.2h10.5v7.3
	c-1.2,1.2-2.8,1.8-4.7,2.1v1h18v-1c-1.9-0.3-3.4-1-4.7-2v-7.4h5.4C84.2,74,88.3,58.1,79,51.6z M72,69.2h-5.3v-15l5.3,0
	C81.7,55.8,80.5,68.4,72,69.2z"/>
</svg>
