<?xml version="1.0" encoding="utf-8"?>
<!-- Generator: Adobe Illustrator 21.1.0, SVG Export Plug-In . SVG Version: 6.00 Build 0)  -->
<svg version="1.1" id="Layer_1" xmlns="http://www.w3.org/2000/svg" xmlns:xlink="http://www.w3.org/1999/xlink" x="0px" y="0px"
	 viewBox="0 0 103.8 103.4" style="enable-background:new 0 0 103.8 103.4;" xml:space="preserve">
<style type="text/css">
	.st0{fill:#301147;}
	.st1{fill:#FFFFFF;}
</style>
<g id="master">
	<path id="bg" class="st0" d="M102.2,64.2c-6.8,27.8-34.9,44.5-62.5,37.6C11.9,94.9-4.8,66.9,2.1,39.2C8.9,11.4,37-5.3,64.6,1.6
		C92.4,8.3,109.2,36.5,102.2,64.2L102.2,64.2L102.2,64.2L102.2,64.2z"/>
</g>
<path class="st1" d="M65.2,22.8c-5.1-4.4-13-15-13-15s-7.9,10.6-13,15s-8.8,10.5-4.2,16.6s14,1.8,14,1.8s-0.5,4.9-3.5,8.1
	c0,0-1.2,1.3-0.1,2.5s6.9,6.9,6.9,6.9s5.8-5.7,6.9-6.9s-0.1-2.5-0.1-2.5c-3-3.2-3.5-8.1-3.5-8.1s9.5,4.4,14-1.8S70.3,27.2,65.2,22.8
	z"/>
<path class="st1" d="M70.3,54.6c-4.7,0-8.9,1.9-12,5l-6.7,5.9l-5.8-6l0,0c-3.1-3.1-7.3-5-12-5c-9.3,0-16.9,7.6-16.9,16.9
	c0,9.3,7.6,16.9,16.9,16.9c4.9,0,9.3-2.1,12.4-5.4l1-1c0,0,0,0,0,0l0.1-0.1l0,0c0.1-0.2,0.3-0.4,0.3-0.7c0-0.3-0.1-0.5-0.3-0.7l0,0
	l-0.1-0.1c0,0,0,0,0,0l-3.6-4l0,0c-0.2-0.3-0.5-0.5-0.8-0.5c-0.3,0-0.6,0.1-0.8,0.4l-1.2,1.2c-1.9,1.6-4.2,3.2-7,3.2
	c-5.1,0-9.2-4.1-9.2-9.2s4.1-9.2,9.2-9.2c2.4,0,4.6,0.9,6.3,2.4l17.7,18.1l0,0c3.1,3.4,7.5,5.6,12.5,5.6c9.3,0,16.9-7.6,16.9-16.9
	C87.2,62.2,79.7,54.6,70.3,54.6z M70.3,80.7c-2.3,0-4.3-0.8-6-2.2v0l0,0c-0.4-0.3-0.8-0.7-1.1-1.1L57,71l7.8-6.9
	c1.5-1.2,3.5-1.9,5.6-1.9c5.1,0,9.2,4.1,9.2,9.2S75.4,80.7,70.3,80.7z"/>
</svg>
