<?xml version="1.0" encoding="utf-8"?>
<!-- Generator: Adobe Illustrator 22.1.0, SVG Export Plug-In . SVG Version: 6.00 Build 0)  -->
<svg version="1.1" id="Layer_1" xmlns="http://www.w3.org/2000/svg" xmlns:xlink="http://www.w3.org/1999/xlink" x="0px" y="0px"
	 viewBox="0 0 103.8 103.4" style="enable-background:new 0 0 103.8 103.4;" xml:space="preserve">
<style type="text/css">
	.st0{fill:#002352;}
	.st1{fill:#FFFFFF;}
</style>
<path id="bg" class="st0" d="M102.2,64.2c-6.8,27.8-34.9,44.5-62.5,37.6C11.9,94.9-4.8,66.9,2.1,39.2C8.9,11.4,37-5.3,64.6,1.6
	C92.4,8.3,109.2,36.5,102.2,64.2L102.2,64.2L102.2,64.2L102.2,64.2z"/>
<path class="st1" d="M66.7,25.2l1.8-4.8c0.2-0.5-0.2-1-0.7-1h-6.8l-2.2,5.6h-3l1.8-4.6c0.2-0.5-0.2-1-0.7-1h-6.8L48,25.1H26.7
	c-1,0-1.9,0.5-2.4,1.4L19,35.8h7.4h32.4c1.3,0,2.6,0.2,3.9,0.7c2.4,1,5.1,3.2,4.4,8.1c-1.2,8.3-9.6,22.9-27.9,23.1l9.5-24.6
	c0.4-1-0.4-2.1-1.4-2.1H34.6L19.3,78.7c0,0,3.1,0.4,7.9,0.4l-1.5,4h7c0.6,0,1.1-0.3,1.3-0.9l1.3-3.4c1-0.1,2.1-0.2,3.1-0.3L36.6,83
	h7c0.6,0,1.1-0.3,1.3-0.9l2-5.2c11.4-2.6,23.8-8.3,31.1-20.3C92.7,32.6,77.3,26.3,66.7,25.2z"/>
</svg>
