<?xml version="1.0" encoding="utf-8"?>
<!-- Generator: Adobe Illustrator 22.0.1, SVG Export Plug-In . SVG Version: 6.00 Build 0)  -->
<svg version="1.1" id="Layer_1" xmlns="http://www.w3.org/2000/svg" xmlns:xlink="http://www.w3.org/1999/xlink" x="0px" y="0px"
	 viewBox="0 0 103.8 103.4" style="enable-background:new 0 0 103.8 103.4;" xml:space="preserve">
<style type="text/css">
	.st0{fill:#FFFFFF;}
</style>
<g id="master">
	<path id="bg" d="M102.2,64.2c-6.8,27.8-34.9,44.5-62.5,37.6C11.9,94.9-4.8,66.9,2.1,39.2C8.9,11.4,37-5.3,64.6,1.6
		C92.4,8.3,109.2,36.5,102.2,64.2L102.2,64.2L102.2,64.2L102.2,64.2z"/>
</g>
<path class="st0" d="M27.4,69.2L15.9,88.6c0,0,4.7,6.4,18,11.5l6.6-17.8l4.4-12l4.6-13.2c0,0,1.5-4.3,1.6-4.3l0.2-0.5
	c0,0,0.1-0.2,0.1-0.2l0.1-0.1l0.1-0.1c0,0,0.1-0.1,0.1-0.1l0.1,0l0.1,0.1l0.2,0.4l0.4,1.3l0.9,2.5l3.1,9.5l2.7,8.4l4.2,12.8l3.3,9
	l1.7,4.9c0,0,10.5-2.9,19.4-11.7l-6.4-9.5l-4.2-7.1l-4.2-8.2l-3.5-7.2l-2.8-6.6l-2.3-6.5l-2.2-6.4L60,30.1l-2.3-7.6l-2-7.6l-2.3-8.4
	l-1.3-4.2l-2.5,8l-3.4,11.2l-2.7,8.5l-3.2,9.5l-2.7,7.7l-3.1,7.4l-3.3,7.1L27.4,69.2z"/>
</svg>
