<?xml version="1.0" encoding="utf-8"?>
<!-- Generator: Adobe Illustrator 21.1.0, SVG Export Plug-In . SVG Version: 6.00 Build 0)  -->
<svg version="1.1" id="Layer_1" xmlns="http://www.w3.org/2000/svg" xmlns:xlink="http://www.w3.org/1999/xlink" x="0px" y="0px"
	 viewBox="0 0 103.8 103.4" style="enable-background:new 0 0 103.8 103.4;" xml:space="preserve">
<style type="text/css">
	.st0{fill:#F60051;}
	.st1{fill:#FFFFFF;}
</style>
<g id="master">
	<path id="bg" class="st0" d="M102.2,64.2c-6.8,27.8-34.9,44.5-62.5,37.6C11.9,94.9-4.8,66.9,2.1,39.2C8.9,11.4,37-5.3,64.6,1.6
		C92.4,8.3,109.2,36.5,102.2,64.2L102.2,64.2L102.2,64.2L102.2,64.2z"/>
	<polygon id="F" class="st1" points="35.1,44.8 35.1,40.3 25.2,40.3 21.9,40.3 18.7,40.3 18.7,62.1 25.2,62.1 25.2,53.2 33.5,53.2 
		33.5,49.4 25.2,49.4 25.2,44.8 	"/>
	<path id="U" class="st1" d="M53.3,40.3v3.9v8.9c0,2.1-1.7,3.8-3.8,3.8c-2.1,0-3.8-1.7-3.8-3.8v-8.9v-3.9h-6.1v13.1
		c0,5.5,4.4,9.9,9.9,9.9s9.9-4.4,9.9-9.9V40.3H53.3z"/>
	<polygon id="N" class="st1" points="79.7,40.3 79.7,53.5 70.6,40.3 65.2,40.3 65.2,62.1 70.6,62.1 70.6,50.1 79.7,62.1 85.1,62.1 
		85.1,40.3 	"/>
</g>
<g id="guides">
</g>
</svg>
