<?xml version="1.0" encoding="utf-8"?>
<!-- Generator: Adobe Illustrator 21.1.0, SVG Export Plug-In . SVG Version: 6.00 Build 0)  -->
<svg version="1.1" xmlns="http://www.w3.org/2000/svg" xmlns:xlink="http://www.w3.org/1999/xlink" x="0px" y="0px"
	 viewBox="0 0 103.8 103.4" style="enable-background:new 0 0 103.8 103.4;" xml:space="preserve">
<style type="text/css">
	.st0{fill:#39B03E;}
	.st1{fill:#FFFFFF;}
</style>
<g id="master">
	<g>
		<path id="Shape_1_" class="st0" d="M102.2,64.2c-6.8,27.8-34.9,44.5-62.5,37.6C11.9,94.9-4.8,66.9,2.1,39.2
			C8.9,11.4,37-5.3,64.6,1.6C92.4,8.3,109.2,36.5,102.2,64.2L102.2,64.2L102.2,64.2L102.2,64.2z"/>
		<g id="civic_1_">
			<path class="st1" d="M52.6,79.5c-15.5,0-27.9-12.5-27.9-27.9c0-15.5,12.5-27.9,27.9-27.9c12.6,0,23.2,8.3,26.7,19.7H89
				c-3.8-16.7-18.6-29.1-36.3-29.1c-20.6,0-37.3,16.7-37.3,37.3S32,88.9,52.6,88.9c17.8,0,32.6-12.4,36.3-29.1h-9.7
				C75.7,71.3,65.1,79.5,52.6,79.5z"/>
			<path class="st1" d="M56.1,65.3V54.5c3.1-1.4,5.2-4.4,5.2-8c0-4.9-4-8.8-8.8-8.8s-8.8,4-8.8,8.8c0,3.4,1.9,6.3,4.7,7.8v11
				L56.1,65.3L56.1,65.3z"/>
		</g>
	</g>
</g>
<g id="guides">
</g>
</svg>
