<?xml version="1.0" encoding="utf-8"?>
<!-- Generator: Adobe Illustrator 21.1.0, SVG Export Plug-In . SVG Version: 6.00 Build 0)  -->
<svg version="1.1" id="Layer_1" xmlns="http://www.w3.org/2000/svg" xmlns:xlink="http://www.w3.org/1999/xlink" x="0px" y="0px"
	 viewBox="0 0 103.8 103.4" style="enable-background:new 0 0 103.8 103.4;" xml:space="preserve">
<style type="text/css">
	.st0{fill:#4F5BBD;}
	.st1{fill:#FFFFFF;}
</style>
<g id="master">
	<path id="bg" class="st0" d="M102.2,64.2c-6.8,27.8-34.9,44.5-62.5,37.6C11.9,94.9-4.8,66.9,2.1,39.2C8.9,11.4,37-5.3,64.6,1.6
		C92.4,8.3,109.2,36.5,102.2,64.2L102.2,64.2L102.2,64.2L102.2,64.2z"/>
</g>
<path class="st1" d="M24.3,66.4c0,0-0.1,5,3.6,8.7c3.7,3.7,11.5,3.6,11.5,3.6s23.3,0.3,28.9-24.5c0,0-3.8,1.4-11,0.4
	S35.4,51.3,29,56.5C23.7,60.8,24.3,66.4,24.3,66.4z"/>
<path class="st1" d="M80.5,35.8c0,0,0.1-5-3.6-8.7c-3.7-3.7-11.5-3.6-11.5-3.6S42.1,23.2,36.4,48c0,0,3.8-1.4,11-0.4
	c7.2,1,22.1,3.3,28.4-1.9C81.1,41.4,80.5,35.8,80.5,35.8z"/>
</svg>
