<?xml version="1.0" encoding="utf-8"?>
<!-- Generator: Adobe Illustrator 21.1.0, SVG Export Plug-In . SVG Version: 6.00 Build 0)  -->
<svg version="1.1" id="Layer_1" xmlns="http://www.w3.org/2000/svg" xmlns:xlink="http://www.w3.org/1999/xlink" x="0px" y="0px"
	 viewBox="0 0 103.8 103.4" style="enable-background:new 0 0 103.8 103.4;" xml:space="preserve">
<style type="text/css">
	.st0{fill:#9877E3;}
	.st1{fill:#FFFFFF;}
</style>
<g id="master">
	<path id="bg" class="st0" d="M102.2,64.2c-6.8,27.8-34.9,44.5-62.5,37.6C11.9,94.9-4.8,66.9,2.1,39.2C8.9,11.4,37-5.3,64.6,1.6
		C92.4,8.3,109.2,36.5,102.2,64.2L102.2,64.2L102.2,64.2L102.2,64.2z"/>
</g>
<path id="logo" class="st1" d="M82.5,51.6c0-3.4-2.7-6.1-6.1-6.1H31.3c2.2-6.4,7.9-11,15-11.3h1.7h23.2h5.7v0
	c3.2-0.2,5.8-2.8,5.8-6.1s-2.6-5.9-5.8-6.1v0H48.9c-0.6,0-1.3-0.1-1.9-0.1c-16.4,0-28.6,13.3-28.6,29.7c0,16.3,12,29.5,28.2,29.7
	l0,0l29.8,0.1l0,0c3.4,0,6.1-2.7,6.1-6.1s-2.7-6.1-6.1-6.1h-5.5H47.1v0c0,0,0,0,0,0c-7.5,0-13.5-4.7-15.8-11.4h45.1
	C79.8,57.8,82.5,55,82.5,51.6z"/>
</svg>
