<?xml version="1.0" encoding="utf-8"?>
<!-- Generator: Adobe Illustrator 21.1.0, SVG Export Plug-In . SVG Version: 6.00 Build 0)  -->
<svg version="1.1" id="Layer_1" xmlns="http://www.w3.org/2000/svg" xmlns:xlink="http://www.w3.org/1999/xlink" x="0px" y="0px"
	 viewBox="0 0 103.8 103.4" style="enable-background:new 0 0 103.8 103.4;" xml:space="preserve">
<style type="text/css">
	.st0{fill:#36CB8C;}
	.st1{fill:#FFFFFF;}
</style>
<g id="master">
	<path id="bg" class="st0" d="M102.2,64.2c-6.8,27.8-34.9,44.5-62.5,37.6C11.9,94.9-4.8,66.9,2.1,39.2C8.9,11.4,37-5.3,64.6,1.6
		C92.4,8.3,109.2,36.5,102.2,64.2L102.2,64.2L102.2,64.2L102.2,64.2z"/>
</g>
<g>
	<path class="st1" d="M75.4,47.2V34H58.1V16.8H42.6c0,0-1,40.9,0,54.5c0.7,8.8,7.7,19.5,31.4,14.1c0.5-0.5-2.7-11.8-2.7-11.8
		s-11.8,2.7-13.6-5.5c0,0.9,0-20.9,0-20.9L75.4,47.2z"/>
	<circle class="st1" cx="31.7" cy="40.4" r="7.3"/>
</g>
</svg>
