<?xml version="1.0" encoding="utf-8"?>
<!-- Generator: Adobe Illustrator 21.1.0, SVG Export Plug-In . SVG Version: 6.00 Build 0)  -->
<svg version="1.1" id="Layer_1" xmlns="http://www.w3.org/2000/svg" xmlns:xlink="http://www.w3.org/1999/xlink" x="0px" y="0px"
	 viewBox="0 0 103.8 103.4" style="enable-background:new 0 0 103.8 103.4;" xml:space="preserve">
<style type="text/css">
	.st0{fill:#7322EF;}
	.st1{display:none;}
	.st2{display:inline;fill:#FFFFFF;}
	.st3{fill:#FFFFFF;}
</style>
<g id="master">
	<path id="Shape_1_" class="st0" d="M102.2,64.2c-6.8,27.8-34.9,44.5-62.5,37.6C11.9,94.9-4.8,66.9,2.1,39.2
		C8.9,11.4,37-5.3,64.6,1.6C92.4,8.3,109.2,36.5,102.2,64.2L102.2,64.2L102.2,64.2L102.2,64.2z"/>
	<g id="Stox_1_" class="st1">
		<rect x="36.3" y="53.2" class="st2" width="1.4" height="11"/>
		<path class="st2" d="M10.2,62.7v1.6c0,0,5.2,0.3,8.5-4.1c0,0,2.4-2.8,2.4-7s2.9-6.7,2.9-6.7s2.3-2.7,6.9-2.7s13.3,0,13.3,0v-1.5
			H30.7c0,0-5.5,0-8,3.1c-2.5,3-3.1,4.8-3.2,7.9c0,3.1-1.5,5.2-2.3,6.2S14.5,62.6,10.2,62.7z"/>
		<path class="st2" d="M74.5,42.2c0,0,10.9,0.5,10.9,11s-10.9,11-10.9,11v-1.6c0,0,9.4-0.8,9.4-9.4s-9.4-9.5-9.4-9.5V42.2z"/>
		<path class="st2" d="M96.1,42.2c0,0-10.9,0.5-10.9,11s10.9,11,10.9,11v-1.6c0,0-9.4-0.8-9.4-9.4s9.4-9.5,9.4-9.5V42.2z"/>
		<path class="st2" d="M59.8,42.3c-6,0-10.9,4.9-10.9,10.9s4.9,10.9,10.9,10.9s10.9-4.9,10.9-10.9S65.8,42.3,59.8,42.3z M59.8,62.7
			c-5.2,0-9.5-4.2-9.5-9.5s4.2-9.5,9.5-9.5s9.5,4.2,9.5,9.5S65,62.7,59.8,62.7z"/>
	</g>
	<g id="S">
		<rect x="72.5" y="51.9" class="st3" width="3.1" height="24.1"/>
		<path class="st3" d="M15.2,72.8v3.5c0,0,11.4,0.7,18.7-9c0,0,5.3-6.1,5.3-15.4s6.4-14.7,6.4-14.7s5-5.9,15.1-5.9s29.2,0,29.2,0V28
			H60.2c0,0-12.1,0-17.6,6.8c-5.5,6.6-6.8,10.5-7,17.3c0,6.8-3.3,11.4-5,13.6C28.8,68,24.6,72.6,15.2,72.8z"/>
	</g>
</g>
<g id="guides">
</g>
</svg>
