<?xml version="1.0" encoding="utf-8"?>
<!-- Generator: Adobe Illustrator 22.0.1, SVG Export Plug-In . SVG Version: 6.00 Build 0)  -->
<svg version="1.1" id="Layer_1" xmlns="http://www.w3.org/2000/svg" xmlns:xlink="http://www.w3.org/1999/xlink" x="0px" y="0px"
	 viewBox="0 0 103.8 103.4" style="enable-background:new 0 0 103.8 103.4;" xml:space="preserve">
<style type="text/css">
	.st0{fill:#CC9933;}
	.st1{fill:#FFFFFF;}
</style>
<path id="bg" class="st0" d="M102.2,64.2c-6.8,27.8-34.9,44.5-62.5,37.6C11.9,94.9-4.8,66.9,2.1,39.2C8.9,11.4,37-5.3,64.6,1.6
	C92.4,8.3,109.2,36.5,102.2,64.2L102.2,64.2L102.2,64.2L102.2,64.2z"/>
<path class="st1" d="M16.7,47.2l-6.5,6.6l20.1,20c0,0,5.8,6.7,11.8,5.3s8.6-3.6,16-10.3s9-14.1,9-16.2c0-2.1-0.5-3.4-1.9-5.9
	c-1.4-2.5-10.8-11.4-10.8-11.4l-13-13l-7.1,7.3l17.8,17.6c0,0,3.6,3.3,3.8,5.2s0.3,3.4-1.6,6s-8.6,9.3-11.4,10.1s-4.9-0.2-7.4-2.8"
	/>
<path class="st1" d="M69.3,29.1l-6.6-6.5l-20,20.1c0,0-6.7,5.8-5.3,11.8s3.6,8.6,10.3,16s14.1,9,16.2,9c2.1,0,3.4-0.5,5.9-1.9
	s11.4-10.8,11.4-10.8l13-13l-7.3-7.1L69.2,64.5c0,0-3.3,3.6-5.3,3.8c-1.9,0.2-3.4,0.3-6-1.6s-9.3-8.6-10.1-11.4s0.2-4.9,2.8-7.4"/>
</svg>
