<?xml version="1.0" encoding="utf-8"?>
<!-- Generator: Adobe Illustrator 21.1.0, SVG Export Plug-In . SVG Version: 6.00 Build 0)  -->
<svg version="1.1" id="Layer_1" xmlns="http://www.w3.org/2000/svg" xmlns:xlink="http://www.w3.org/1999/xlink" x="0px" y="0px"
	 viewBox="0 0 103.4 103.4" style="enable-background:new 0 0 103.4 103.4;" xml:space="preserve">
<style type="text/css">
	.st0{fill:#B4D100;}
	.st1{fill:#FFFFFF;}
</style>
<path id="Shape_1_" class="st0" d="M101.7,64.2c-6.8,27.8-34.9,44.5-62.5,37.6C11.4,94.9-5.3,66.9,1.6,39.2
	C8.4,11.4,36.5-5.3,64.1,1.6C91.9,8.3,108.7,36.5,101.7,64.2L101.7,64.2L101.7,64.2L101.7,64.2z"/>
<g id="logo">
	<path class="st1" d="M16.8,56.6c0,0,26.6-2.1,39.8-7.4c0,0,3.9,0,12.6-23.6l7.5-5.6c0,0,1.4-1.2,1.6,0.7c0.2,1.8,1.2,9.1,1.2,9.1
		l-9.7,18c0,0-2.2,5.7-12.5,6.8C46.9,55.8,31.4,56.7,16.8,56.6z"/>
	<path class="st1" d="M20,73.8h12.6c0,0-1.4-1-1.4-2.6s-0.1-12.6-0.1-12.6s-5.8,0.3-9.8,0.3l0.1,12.4C21.5,71.3,21.9,72.6,20,73.8z"
		/>
	<path class="st1" d="M36.5,58.2l0,13.5c0,0,0.1,1-1.5,2h12.8c0,0-1.4-1.1-1.4-2.4s0-13.4,0-13.4S39.6,58.1,36.5,58.2z"/>
	<path class="st1" d="M51.4,57.6v14.4c0,0-0.7,1.8-1.6,1.8h13.1c0,0-1.5-1.1-1.5-2.1s0-15.8,0-15.8S59.1,56.9,51.4,57.6z"/>
	<path class="st1" d="M66.4,54.2v17.5c0,0-0.6,2.1-1.8,2.1H78c0,0-1.6-0.8-1.6-2.2s0-31.6,0-31.6S71.9,51.9,66.4,54.2z"/>
</g>
</svg>
