<?xml version="1.0" encoding="utf-8"?>
<!-- Generator: Adobe Illustrator 22.0.1, SVG Export Plug-In . SVG Version: 6.00 Build 0)  -->
<svg version="1.1" id="Layer_1" xmlns="http://www.w3.org/2000/svg" xmlns:xlink="http://www.w3.org/1999/xlink" x="0px" y="0px"
	 viewBox="0 0 103.8 103.4" style="enable-background:new 0 0 103.8 103.4;" xml:space="preserve">
<style type="text/css">
	.st0{fill:#60D7AF;}
	.st1{fill:#FFFFFF;}
</style>
<g id="master">
	<path id="bg" class="st0" d="M102.2,64.2c-6.8,27.8-34.9,44.5-62.5,37.6C11.9,94.9-4.8,66.9,2.1,39.2C8.9,11.4,37-5.3,64.6,1.6
		C92.4,8.3,109.2,36.5,102.2,64.2L102.2,64.2L102.2,64.2L102.2,64.2z"/>
</g>
<g id="Shape">
	<path class="st1" d="M40.9,40.9v21.2h21.2c11.6,0,21-9.4,21-21c0,0,0,0,0,0V19.9H61.9C50.3,19.9,40.9,29.3,40.9,40.9
		C40.9,40.9,40.9,40.9,40.9,40.9L40.9,40.9z"/>
	<path class="st1" d="M77.8,72.8H30.2V25.2c0-2.9-2.3-5.2-5.2-5.2h-5.5v63.5H83V78C83,75.1,80.7,72.8,77.8,72.8z"/>
</g>
</svg>
