<?xml version="1.0" encoding="iso-8859-1"?>
<!-- Generator: Adobe Illustrator 19.0.0, SVG Export Plug-In . SVG Version: 6.00 Build 0)  -->
<svg version="1.1" id="Capa_1" xmlns="http://www.w3.org/2000/svg" xmlns:xlink="http://www.w3.org/1999/xlink" x="0px" y="0px"
	 viewBox="0 0 481.162 481.162" style="enable-background:new 0 0 481.162 481.162;" xml:space="preserve">
<g>
	<g>
		<path d="M345.135,273.26h-8c-4.418,0-8,3.582-8,8v32c0,4.418,3.582,8,8,8h8c13.255,0,24-10.745,24-24
			S358.39,273.26,345.135,273.26z M345.135,305.26v-16c4.418,0,8,3.582,8,8S349.553,305.26,345.135,305.26z"/>
	</g>
</g>
<g>
	<g>
		<path d="M345.135,353.26h-8c-4.418,0-8,3.582-8,8v32c0,4.418,3.582,8,8,8h8c13.255,0,24-10.745,24-24
			S358.39,353.26,345.135,353.26z M345.135,385.26v-16c4.418,0,8,3.582,8,8S349.553,385.26,345.135,385.26z"/>
	</g>
</g>
<g>
	<g>
		<path d="M385.535,337.26c8.712-7.136,15.6-20.272,15.6-44c-0.024-27.15-20.931-49.712-48-51.8v-16.2h-16v16h-16v-16h-16v16h-16
			c-4.418,0-8,3.582-8,8v32c0,4.418,3.582,8,8,8h8v96h-8c-4.418,0-8,3.582-8,8v32c0,4.418,3.582,8,8,8h24v16h16v-16h8v16h16v-16.2
			c27.069-2.088,47.976-24.65,48-51.8C401.135,357.532,394.247,344.396,385.535,337.26z M361.135,345.26c6.56,0,24,0,24,36
			c-0.022,19.873-16.127,35.978-36,36h-52v-16h8c4.418,0,8-3.582,8-8v-112c0-4.418-3.582-8-8-8h-8v-16h52
			c19.873,0.022,35.978,16.127,36,36c0,36-17.44,36-24,36c-4.418,0-8,3.582-8,8S356.717,345.26,361.135,345.26z"/>
	</g>
</g>
<g>
	<g>
		<path d="M399.577,207.458c-19.483-9.363-40.826-14.216-62.442-14.198c-21.641,0.025-42.995,4.965-62.448,14.448
			c34.793-71.853,4.749-158.307-67.104-193.1C135.73-20.185,49.276,9.859,14.483,81.712c-34.793,71.853-4.749,158.307,67.104,193.1
			c39.789,19.267,86.207,19.267,125.996,0c-34.418,71.617-4.263,157.576,67.354,191.994c71.617,34.418,157.576,4.263,191.994-67.354
			C501.35,327.835,471.194,241.876,399.577,207.458z M145.135,273.26C74.204,273.499,16.51,216.191,16.272,145.261
			C16.033,74.33,73.341,16.636,144.271,16.398c70.931-0.239,128.625,57.069,128.863,127.999
			c0.111,32.968-12.461,64.716-35.111,88.671c-1.739,1.648-3.432,3.341-5.08,5.08C209.26,260.681,177.824,273.251,145.135,273.26z
			 M425.1,430.292c-23.772,22.474-55.251,34.988-87.965,34.968c-70.591,0.101-127.898-57.043-127.998-127.633
			c-0.047-32.808,12.524-64.378,35.11-88.175c1.733-1.648,3.427-3.341,5.08-5.08c51.34-48.538,132.308-46.267,180.846,5.074
			C478.712,300.786,476.44,381.754,425.1,430.292z"/>
	</g>
</g>
<g>
	<g>
		<path d="M145.135,121.26c-4.418,0-8-3.582-8-8s3.582-8,8-8s8,3.582,8,8s3.582,8,8,8h32c4.418,0,8-3.582,8-8
			c-0.033-27.813-20.473-51.387-48-55.36V41.26h-16V57.9c-30.575,4.656-51.587,33.218-46.93,63.793
			c4.142,27.195,27.422,47.355,54.93,47.567c4.418,0,8,3.582,8,8s-3.582,8-8,8s-8-3.582-8-8s-3.582-8-8-8h-32c-4.418,0-8,3.582-8,8
			c0.033,27.813,20.473,51.387,48,55.36v16.64h16v-16.64c30.575-4.656,51.587-33.218,46.93-63.793
			C195.924,141.632,172.643,121.472,145.135,121.26z M145.119,217.26c-19.005-0.004-35.383-13.379-39.184-32h16.56
			c4.418,12.497,18.131,19.046,30.627,14.627s19.046-18.131,14.627-30.627c-3.389-9.585-12.449-15.995-22.615-16
			c-22.091-0.005-39.996-17.917-39.992-40.008c0.005-22.091,17.917-39.996,40.008-39.992c19.005,0.004,35.383,13.379,39.184,32
			h-16.56c-4.418-12.497-18.131-19.046-30.627-14.627c-12.497,4.418-19.046,18.131-14.627,30.627
			c3.389,9.585,12.449,15.995,22.615,16c22.091,0.005,39.996,17.917,39.992,40.008C185.122,199.36,167.21,217.265,145.119,217.26z"
			/>
	</g>
</g>
<g>
	<g>
		<path d="M239.647,84.612l-13.024,9.296c21.944,30.718,21.944,71.986,0,102.704l13.024,9.296
			C265.558,169.628,265.558,120.893,239.647,84.612z"/>
	</g>
</g>
<g>
	<g>
		<path d="M63.647,93.908l-13.024-9.296c-25.911,36.281-25.911,85.015,0,121.296l13.024-9.296
			C41.703,165.894,41.703,124.626,63.647,93.908z"/>
	</g>
</g>
<g>
	<g>
		<path d="M431.647,276.612l-13.024,9.296c21.944,30.718,21.944,71.986,0,102.704l13.024,9.296
			C457.558,361.628,457.558,312.893,431.647,276.612z"/>
	</g>
</g>
<g>
	<g>
		<path d="M255.647,285.908l-13.024-9.296c-25.911,36.281-25.911,85.015,0,121.296l13.024-9.296
			C233.703,357.894,233.703,316.626,255.647,285.908z"/>
	</g>
</g>
<g>
	<g>
		<path d="M41.575,324.052l-14.776,6.136c2.112,5.088,4.432,10.144,6.888,15.04l14.304-7.2
			C45.703,333.492,43.535,328.78,41.575,324.052z"/>
	</g>
</g>
<g>
	<g>
		<path d="M26.375,264.54l-15.904,1.72c0.584,5.48,1.376,10.984,2.344,16.376l15.752-2.832
			C27.655,274.78,26.927,269.652,26.375,264.54z"/>
	</g>
</g>
<g>
	<g>
		<path d="M31.839,294.86l-15.504,3.944c1.36,5.328,2.936,10.68,4.672,15.896l15.2-5.064
			C34.559,304.78,33.135,299.812,31.839,294.86z"/>
	</g>
</g>
<g>
	<g>
		<path d="M72.975,376.812L60.527,386.9c3.456,4.272,7.104,8.48,10.848,12.496l11.704-10.936
			C79.591,384.724,76.191,380.796,72.975,376.812z"/>
	</g>
</g>
<g>
	<g>
		<path d="M55.383,351.564l-13.744,8.176c2.792,4.696,5.808,9.384,8.96,13.92l13.136-9.144
			C60.799,360.3,57.991,355.94,55.383,351.564z"/>
	</g>
</g>
<g>
	<g>
		<path d="M117.967,418.74l-9.12,13.136c4.568,3.2,9.248,6.184,13.92,8.952l8.168-13.744
			C126.591,424.492,122.223,421.692,117.967,418.74z"/>
	</g>
</g>
<g>
	<g>
		<path d="M93.991,399.388l-10.904,11.704c4,3.752,8.24,7.4,12.512,10.848l10.032-12.472
			C101.631,406.268,97.743,402.876,93.991,399.388z"/>
	</g>
</g>
<g>
	<g>
		<path d="M144.463,434.484l-7.168,14.288c4.912,2.472,9.984,4.8,15.064,6.896l6.12-14.784
			C153.751,438.924,149.031,436.764,144.463,434.484z"/>
	</g>
</g>
<g>
	<g>
		<path d="M172.927,446.268l-5.04,15.184c5.224,1.736,10.568,3.304,15.888,4.648l3.944-15.496
			C182.767,449.34,177.791,447.884,172.927,446.268z"/>
	</g>
</g>
<g>
	<g>
		<path d="M202.783,453.86l-2.84,15.752c5.336,0.96,10.848,1.744,16.384,2.336l1.704-15.904
			C212.871,455.484,207.735,454.756,202.783,453.86z"/>
	</g>
</g>
<g>
	<g>
		<path d="M469.455,199.884l-15.752,2.832c0.912,5.024,1.64,10.152,2.192,15.264l15.904-1.72
			C471.215,210.78,470.423,205.276,469.455,199.884z"/>
	</g>
</g>
<g>
	<g>
		<path d="M359.535,41.692l-8.2,13.744c4.344,2.592,8.712,5.392,12.968,8.344l9.12-13.136
			C368.855,47.468,364.175,44.46,359.535,41.692z"/>
	</g>
</g>
<g>
	<g>
		<path d="M329.911,26.852l-6.12,14.784c4.728,1.96,9.448,4.12,14.016,6.4l7.168-14.288
			C340.063,31.276,334.991,28.948,329.911,26.852z"/>
	</g>
</g>
<g>
	<g>
		<path d="M265.943,10.572l-1.704,15.904c5.16,0.56,10.296,1.288,15.248,2.184l2.84-15.752
			C276.991,11.948,271.479,11.164,265.943,10.572z"/>
	</g>
</g>
<g>
	<g>
		<path d="M298.495,16.46l-3.944,15.496c4.952,1.264,9.928,2.72,14.792,4.336l5.04-15.2
			C309.135,19.332,303.815,17.764,298.495,16.46z"/>
	</g>
</g>
<g>
	<g>
		<path d="M386.671,60.58l-10.032,12.472c4,3.2,7.888,6.592,11.64,10.08l10.904-11.704C395.151,67.66,390.943,64.028,386.671,60.58z
			"/>
	</g>
</g>
<g>
	<g>
		<path d="M431.671,108.86l-13.136,9.144c2.936,4.216,5.744,8.576,8.352,12.952l13.752-8.176
			C437.839,118.084,434.823,113.396,431.671,108.86z"/>
	</g>
</g>
<g>
	<g>
		<path d="M448.567,137.292l-14.288,7.168c2.288,4.568,4.448,9.28,6.4,14.008l14.776-6.136
			C453.343,147.244,451.023,142.188,448.567,137.292z"/>
	</g>
</g>
<g>
	<g>
		<path d="M410.895,83.164L399.191,94.06c3.488,3.736,6.888,7.664,10.104,11.648l12.448-10.048
			C418.287,91.388,414.639,87.18,410.895,83.164z"/>
	</g>
</g>
<g>
	<g>
		<path d="M461.271,167.82l-15.184,5.064c1.6,4.856,3.08,9.824,4.344,14.784l15.512-3.952
			C464.583,178.388,463.007,173.036,461.271,167.82z"/>
	</g>
</g>
<g>
</g>
<g>
</g>
<g>
</g>
<g>
</g>
<g>
</g>
<g>
</g>
<g>
</g>
<g>
</g>
<g>
</g>
<g>
</g>
<g>
</g>
<g>
</g>
<g>
</g>
<g>
</g>
<g>
</g>
</svg>
