<?xml version="1.0" encoding="iso-8859-1"?>
<!-- Generator: Adobe Illustrator 19.0.0, SVG Export Plug-In . SVG Version: 6.00 Build 0)  -->
<svg version="1.1" id="Capa_1" xmlns="http://www.w3.org/2000/svg" xmlns:xlink="http://www.w3.org/1999/xlink" x="0px" y="0px"
	 viewBox="0 0 480.488 480.488" style="enable-background:new 0 0 480.488 480.488;" xml:space="preserve">
<g>
	<g>
		<path d="M464.128,427.1c-1.801-30.565-18.507-58.293-44.688-74.168l-27.408-16.448l27.408-16.448
			c26.181-15.875,42.887-43.603,44.688-74.168c14.046-6.406,20.239-22.985,13.834-37.031c-4.55-9.978-14.515-16.373-25.482-16.353
			H351.6c0.564-5.315,0.858-10.655,0.88-16C352.612,79.149,273.814,0.137,176.479,0.005C79.145-0.127,0.132,78.671,0,176.005
			s78.666,176.347,176.001,176.479c49.61,0.067,96.951-20.778,130.399-57.417c7.268,10.062,16.492,18.555,27.12,24.968
			l27.408,16.448l-27.408,16.448c-26.181,15.875-42.887,43.603-44.688,74.168c-14.046,6.406-20.239,22.985-13.834,37.031
			c4.55,9.978,14.515,16.373,25.482,16.353h152c15.437,0.027,27.974-12.465,28.001-27.902
			C480.501,441.615,474.106,431.65,464.128,427.1z M176.48,336.484c-88.366,0-160-71.634-160-160s71.634-160,160-160
			s160,71.634,160,160c-0.02,5.347-0.341,10.689-0.96,16H319.4c0.67-5.308,1.031-10.65,1.08-16
			c0.134-79.661-64.336-144.348-143.998-144.482S32.134,96.338,32,176s64.336,144.348,143.998,144.482
			c45.34,0.076,88.078-21.172,115.386-57.366c1.569,6.006,3.734,11.841,6.464,17.416
			C267.558,316.082,223.185,336.539,176.48,336.484z M285.232,243.908c-37.272,60.027-116.149,78.473-176.175,41.201
			C49.03,247.836,30.584,168.96,67.856,108.933S184.005,30.46,244.031,67.732c37.607,23.351,60.471,64.484,60.449,108.751
			c-0.057,5.354-0.461,10.698-1.208,16h-2.792c-15.464,0.051-27.959,12.628-27.908,28.092
			C272.603,229.986,277.359,238.752,285.232,243.908z M288.48,220.484c0-6.627,5.373-12,12-12h152c6.627,0,12,5.373,12,12
			c0,6.627-5.373,12-12,12h-152C293.852,232.484,288.48,227.111,288.48,220.484z M341.752,306.316
			c-20.607-12.481-34.2-33.874-36.744-57.832h142.944c-2.544,23.958-16.137,45.351-36.744,57.832l-34.728,20.84L341.752,306.316z
			 M341.752,366.652l34.728-20.84l34.728,20.84c20.607,12.481,34.2,33.874,36.744,57.832H305.008
			C307.552,400.526,321.144,379.133,341.752,366.652z M452.48,464.484h-152c-6.627,0-12-5.373-12-12c0-6.627,5.373-12,12-12h152
			c6.627,0,12,5.373,12,12C464.48,459.111,459.107,464.484,452.48,464.484z"/>
	</g>
</g>
<g>
	<g>
		<path d="M262.136,106.836l-24-24.008c-3.174-3.001-8.138-3.001-11.312,0l-16.8,16.8c-13.223-7.322-28.093-11.157-43.208-11.144
			H128.48c-4.418-0.004-8.003,3.575-8.007,7.993c-0.003,3.368,2.104,6.378,5.271,7.527c18.527,6.754,35.907,16.311,51.536,28.336
			l-94.456,94.488c-3.123,3.124-3.123,8.188,0,11.312l24,24c3.124,3.123,8.188,3.123,11.312,0l94.488-94.456
			c12.03,15.638,21.589,33.03,28.344,51.568c1.16,3.146,4.159,5.235,7.512,5.232c0.469-0.001,0.938-0.041,1.4-0.12
			c3.82-0.679,6.602-4,6.6-7.88v-38.336c0.01-15.112-3.825-29.978-11.144-43.2l16.8-16.8
			C265.259,115.024,265.259,109.96,262.136,106.836z M112.48,245.172l-12.688-12.688l89.856-89.856
			c4.432,4.027,8.661,8.256,12.688,12.688L112.48,245.172z M240.48,180.484c-18.232-31.558-44.442-57.768-76-76h2.32
			c40.67,0.04,73.631,32.994,73.68,73.664V180.484z M236.208,121.452c-3.796-4.636-8.044-8.884-12.679-12.681l8.951-8.975
			l12.688,12.688L236.208,121.452z"/>
	</g>
</g>
<g>
	<g>
		<rect x="64.48" y="400.484" width="16" height="16"/>
	</g>
</g>
<g>
	<g>
		<rect x="64.48" y="432.484" width="16" height="16"/>
	</g>
</g>
<g>
	<g>
		<rect x="96.48" y="432.484" width="16" height="16"/>
	</g>
</g>
<g>
	<g>
		<rect x="32.48" y="432.484" width="16" height="16"/>
	</g>
</g>
<g>
	<g>
		<rect x="0.48" y="464.484" width="16" height="16"/>
	</g>
</g>
<g>
	<g>
		<rect x="128.48" y="464.484" width="16" height="16"/>
	</g>
</g>
<g>
	<g>
		<rect x="64.48" y="464.484" width="16" height="16"/>
	</g>
</g>
<g>
	<g>
		<rect x="96.48" y="464.484" width="16" height="16"/>
	</g>
</g>
<g>
	<g>
		<rect x="32.48" y="464.484" width="16" height="16"/>
	</g>
</g>
<g>
	<g>
		<rect x="400.48" y="64.484" width="16" height="16"/>
	</g>
</g>
<g>
	<g>
		<rect x="432.48" y="64.484" width="16" height="16"/>
	</g>
</g>
<g>
	<g>
		<rect x="432.48" y="32.484" width="16" height="16"/>
	</g>
</g>
<g>
	<g>
		<rect x="432.48" y="96.484" width="16" height="16"/>
	</g>
</g>
<g>
	<g>
		<rect x="464.48" y="128.484" width="16" height="16"/>
	</g>
</g>
<g>
	<g>
		<rect x="464.48" y="0.484" width="16" height="16"/>
	</g>
</g>
<g>
	<g>
		<rect x="464.48" y="64.484" width="16" height="16"/>
	</g>
</g>
<g>
	<g>
		<rect x="464.48" y="32.484" width="16" height="16"/>
	</g>
</g>
<g>
	<g>
		<rect x="464.48" y="96.484" width="16" height="16"/>
	</g>
</g>
<g>
</g>
<g>
</g>
<g>
</g>
<g>
</g>
<g>
</g>
<g>
</g>
<g>
</g>
<g>
</g>
<g>
</g>
<g>
</g>
<g>
</g>
<g>
</g>
<g>
</g>
<g>
</g>
<g>
</g>
</svg>
