<?xml version="1.0" encoding="iso-8859-1"?>
<!-- Generator: Adobe Illustrator 19.0.0, SVG Export Plug-In . SVG Version: 6.00 Build 0)  -->
<svg version="1.1" id="Capa_1" xmlns="http://www.w3.org/2000/svg" xmlns:xlink="http://www.w3.org/1999/xlink" x="0px" y="0px"
	 viewBox="0 0 480 480" style="enable-background:new 0 0 480 480;" xml:space="preserve">
<g>
	<g>
		<path d="M240,128c-61.856,0-112,50.144-112,112s50.144,112,112,112c61.828-0.066,111.934-50.172,112-112
			C352,178.144,301.856,128,240,128z M323.248,192.392c6.982,12.132,11.197,25.657,12.344,39.608h-39.784
			c-0.356-11.672-1.667-23.294-3.92-34.752C303.088,196.024,313.648,194.392,323.248,192.392z M313.216,178.056
			c-7.888,1.424-16.352,2.616-25.264,3.544c-3.155-11.087-7.926-21.648-14.16-31.344
			C289.08,156.025,302.648,165.593,313.216,178.056z M200.184,232c0.363-11.182,1.68-22.313,3.936-33.272
			C215.696,199.568,227.752,200,240,200s24.304-0.432,35.88-1.272c2.256,10.959,3.573,22.09,3.936,33.272H200.184z M279.816,248
			c-0.364,11.182-1.68,22.313-3.936,33.272C264.304,280.432,252.248,280,240,280s-24.304,0.432-35.88,1.272
			c-2.256-10.959-3.573-22.09-3.936-33.272H279.816z M240,144c11.536,0,23.84,14.704,31.72,38.96
			C261.456,183.624,250.832,184,240,184c-10.832,0-21.456-0.376-31.72-1.04C216.16,158.704,228.464,144,240,144z M206.208,150.256
			c-6.234,9.696-11.005,20.257-14.16,31.344c-8.912-0.928-17.376-2.12-25.264-3.544C177.352,165.593,190.92,156.025,206.208,150.256
			z M156.752,192.392c9.6,2,20.144,3.632,31.36,4.856c-2.253,11.458-3.564,23.08-3.92,34.752h-39.784
			C145.555,218.049,149.771,204.524,156.752,192.392z M156.752,287.608c-6.982-12.132-11.197-25.657-12.344-39.608h39.784
			c0.356,11.672,1.667,23.294,3.92,34.752C176.912,283.976,166.352,285.608,156.752,287.608z M166.784,301.944
			c7.888-1.424,16.352-2.616,25.264-3.544c3.155,11.087,7.926,21.648,14.16,31.344C190.92,323.974,177.352,314.407,166.784,301.944z
			 M240,336c-11.536,0-23.84-14.704-31.72-38.96c10.264-0.664,20.888-1.04,31.72-1.04c10.832,0,21.456,0.376,31.72,1.04
			C263.84,321.296,251.536,336,240,336z M273.792,329.744c6.234-9.696,11.005-20.257,14.16-31.344
			c8.912,0.928,17.376,2.12,25.264,3.544C302.648,314.407,289.08,323.974,273.792,329.744z M323.248,287.608
			c-9.6-2-20.144-3.632-31.36-4.856c2.253-11.458,3.564-23.081,3.92-34.752h39.784C334.445,261.951,330.229,275.476,323.248,287.608
			z"/>
	</g>
</g>
<g>
	<g>
		<path d="M88,0H8C3.582,0,0,3.582,0,8v64c0,4.418,3.582,8,8,8h32v16H8v16h80V96H56V80h32c4.418,0,8-3.582,8-8V8
			C96,3.582,92.418,0,88,0z M80,64H16V16h64V64z"/>
	</g>
</g>
<g>
	<g>
		<path d="M472,0h-80c-4.418,0-8,3.582-8,8v64c0,4.418,3.582,8,8,8h32v16h-32v16h80V96h-32V80h32c4.418,0,8-3.582,8-8V8
			C480,3.582,476.418,0,472,0z M464,64h-64V16h64V64z"/>
	</g>
</g>
<g>
	<g>
		<path d="M88,448c4.418,0,8-3.582,8-8v-64c0-4.418-3.582-8-8-8H8c-4.418,0-8,3.582-8,8v64c0,4.418,3.582,8,8,8h32v16H0v16h96v-16
			H56v-16H88z M16,432v-48h64v48H16z"/>
	</g>
</g>
<g>
	<g>
		<path d="M472,448c4.418,0,8-3.582,8-8v-64c0-4.418-3.582-8-8-8h-80c-4.418,0-8,3.582-8,8v64c0,4.418,3.582,8,8,8h32v16h-40v16h96
			v-16h-40v-16H472z M400,432v-48h64v48H400z"/>
	</g>
</g>
<g>
	<g>
		<path d="M126.84,115.496l11.72-3.912l-5.088-15.168l-24,8c-2.393,0.785-4.271,2.662-5.056,5.056l-8,24l15.2,5.056l3.912-11.72
			l22.848,22.848l11.312-11.312L126.84,115.496z"/>
	</g>
</g>
<g>
	<g>
		<path d="M375.616,109.504c-0.783-2.413-2.675-4.305-5.088-5.088l-24-8l-5.056,15.2l11.72,3.912l-22.848,22.848l11.312,11.312
			l22.848-22.848l3.912,11.72l15.2-5.056L375.616,109.504z"/>
	</g>
</g>
<g>
	<g>
		<path d="M149.624,341.624l-11.28-11.28l-22.848,22.848l-3.912-11.72l-15.2,5.056l8,24c0.785,2.393,2.662,4.271,5.056,5.056l24,8
			l5.056-15.2l-11.72-3.912L149.624,341.624z"/>
	</g>
</g>
<g>
	<g>
		<path d="M368.384,341.472l-3.912,11.72l-22.848-22.848l-11.312,11.312l22.848,22.848l-11.72,3.912l5.088,15.168l24-8
			c2.393-0.785,4.271-2.662,5.056-5.056l8-24L368.384,341.472z"/>
	</g>
</g>
<g>
	<g>
		<rect x="232" y="32" width="16" height="64"/>
	</g>
</g>
<g>
	<g>
		<rect x="232" width="16" height="16"/>
	</g>
</g>
<g>
	<g>
		<rect x="268.686" y="95.997" transform="matrix(0.7071 -0.7071 0.7071 0.7071 8.4729 228.4487)" width="22.624" height="16"/>
	</g>
</g>
<g>
	<g>
		<rect x="192.005" y="92.685" transform="matrix(0.7071 -0.7071 0.7071 0.7071 -14.9572 171.885)" width="16" height="22.624"/>
	</g>
</g>
<g>
	<g>
		<rect x="232" y="384" width="16" height="64"/>
	</g>
</g>
<g>
	<g>
		<rect x="232" y="464" width="16" height="16"/>
	</g>
</g>
<g>
	<g>
		<rect x="272.004" y="364.691" transform="matrix(0.7071 -0.7071 0.7071 0.7071 -183.8628 308.1211)" width="16" height="22.624"/>
	</g>
</g>
<g>
	<g>
		<rect x="193.522" y="365.996" transform="matrix(0.7071 -0.7071 0.7071 0.7071 -205.2891 252.3805)" width="16.968" height="16"/>
	</g>
</g>
<g>
	<g>
		<rect x="384" y="232" width="64" height="16"/>
	</g>
</g>
<g>
	<g>
		<rect x="464" y="232" width="16" height="16"/>
	</g>
</g>
<g>
	<g>
		<rect x="364.691" y="191.997" transform="matrix(0.7071 -0.7071 0.7071 0.7071 -31.2901 324.4526)" width="22.624" height="16"/>
	</g>
</g>
<g>
	<g>
		<rect x="368.004" y="268.645" transform="matrix(0.7071 -0.7071 0.7071 0.7071 -87.8309 347.8724)" width="16" height="22.624"/>
	</g>
</g>
<g>
	<g>
		<rect x="32" y="232" width="64" height="16"/>
	</g>
</g>
<g>
	<g>
		<rect y="232" width="16" height="16"/>
	</g>
</g>
<g>
	<g>
		<rect x="96.005" y="188.69" transform="matrix(0.7071 -0.7071 0.7071 0.7071 -110.9606 132.1214)" width="16" height="22.624"/>
	</g>
</g>
<g>
	<g>
		<rect x="92.686" y="272.003" transform="matrix(0.7071 -0.7071 0.7071 0.7071 -167.5318 155.5481)" width="22.624" height="16"/>
	</g>
</g>
<g>
</g>
<g>
</g>
<g>
</g>
<g>
</g>
<g>
</g>
<g>
</g>
<g>
</g>
<g>
</g>
<g>
</g>
<g>
</g>
<g>
</g>
<g>
</g>
<g>
</g>
<g>
</g>
<g>
</g>
</svg>
