<?xml version="1.0" encoding="iso-8859-1"?>
<!-- Generator: Adobe Illustrator 19.0.0, SVG Export Plug-In . SVG Version: 6.00 Build 0)  -->
<svg version="1.1" id="Capa_1" xmlns="http://www.w3.org/2000/svg" xmlns:xlink="http://www.w3.org/1999/xlink" x="0px" y="0px"
	 viewBox="0 0 480 480" style="enable-background:new 0 0 480 480;" xml:space="preserve">
<g>
	<g>
		<path d="M480,152V64c0-41.768-150.4-48-240-48S0,22.232,0,64v88c0.7,8.372,5.491,15.858,12.8,20
			C5.425,176.073,0.609,183.597,0,192v88c0.7,8.372,5.491,15.858,12.8,20C5.425,304.073,0.609,311.597,0,320v88
			c0,44.296,156.992,56,240,56s240-11.704,240-56v-88c-0.609-8.403-5.425-15.927-12.8-20c7.309-4.142,12.1-11.628,12.8-20v-88
			c-0.609-8.403-5.425-15.927-12.8-20C474.509,167.858,479.3,160.372,480,152z M464,408c0,13.6-79.064,40-224,40S16,421.6,16,408
			v-65.816C58.016,368.376,173.048,376,240,376s181.984-7.624,224-33.816V408z M240,360c-144.936,0-224-26.4-224-40
			c0-1.8,2.936-6.016,13.168-11.144C78.512,329.688,179.12,336,240,336s161.488-6.312,210.832-27.144
			C461.064,313.984,464,318.2,464,320C464,333.6,384.936,360,240,360z M464,280c0,13.6-79.064,40-224,40S16,293.6,16,280v-65.816
			C58.016,240.376,173.048,248,240,248s181.984-7.624,224-33.816V280z M240,232c-144.936,0-224-26.4-224-40
			c0-1.8,2.936-6.016,13.168-11.144C78.512,201.688,179.12,208,240,208s161.488-6.312,210.832-27.144
			C461.064,185.984,464,190.2,464,192C464,205.6,384.936,232,240,232z M464,152c0,13.6-79.064,40-224,40S16,165.6,16,152V86.184
			C58.016,112.376,173.048,120,240,120s181.984-7.624,224-33.816V152z M240,104C95.064,104,16,77.6,16,64c0-10.4,54.752-32,224-32
			s224,21.6,224,32C464,77.6,384.936,104,240,104z"/>
	</g>
</g>
<g>
	<g>
		<rect x="208" y="144" width="64" height="16"/>
	</g>
</g>
<g>
	<g>
		<rect x="208" y="272" width="64" height="16"/>
	</g>
</g>
<g>
	<g>
		<rect x="208" y="400" width="64" height="16"/>
	</g>
</g>
<g>
</g>
<g>
</g>
<g>
</g>
<g>
</g>
<g>
</g>
<g>
</g>
<g>
</g>
<g>
</g>
<g>
</g>
<g>
</g>
<g>
</g>
<g>
</g>
<g>
</g>
<g>
</g>
<g>
</g>
</svg>
