<?xml version="1.0" encoding="iso-8859-1"?>
<!-- Generator: Adobe Illustrator 19.0.0, SVG Export Plug-In . SVG Version: 6.00 Build 0)  -->
<svg version="1.1" id="Capa_1" xmlns="http://www.w3.org/2000/svg" xmlns:xlink="http://www.w3.org/1999/xlink" x="0px" y="0px"
	 viewBox="0 0 480 480" style="enable-background:new 0 0 480 480;" xml:space="preserve">
<g>
	<g>
		<path d="M475.48,112.798l-232-112c-2.198-1.062-4.762-1.062-6.96,0l-232,112c-2.763,1.335-4.519,4.132-4.52,7.2
			c0,210.032,226.16,352.8,235.784,358.8c2.583,1.601,5.849,1.601,8.432,0c9.624-6,235.784-148.768,235.784-358.8
			C479.999,116.93,478.243,114.132,475.48,112.798z M240,462.454C209.088,441.87,19.456,308.166,16.048,124.998L240,16.878
			l223.952,108.12C460.544,308.166,270.912,441.87,240,462.454z"/>
	</g>
</g>
<g>
	<g>
		<path d="M240,103.998c-75.111,0-136,60.889-136,136s60.889,136,136,136c75.076-0.084,135.916-60.924,136-136
			C376,164.887,315.111,103.998,240,103.998z M330.2,318.886l-12.544-12.544l-11.312,11.312l12.544,12.544
			c-19.747,17.337-44.666,27.67-70.888,29.392v-15.592h-16v15.592c-26.222-1.722-51.141-12.055-70.888-29.392l12.544-12.544
			l-11.312-11.312L149.8,318.886c-17.337-19.747-27.67-44.666-29.392-70.888H136v-16h-15.592
			c1.722-26.222,12.055-51.141,29.392-70.888l12.544,12.544l11.312-11.312l-12.544-12.544c19.747-17.337,44.666-27.67,70.888-29.392
			v15.592h16v-15.592c26.222,1.722,51.141,12.055,70.888,29.392l-12.544,12.544l11.312,11.312L330.2,161.11
			c17.337,19.747,27.67,44.666,29.392,70.888H344v16h15.592C357.87,274.219,347.537,299.138,330.2,318.886z"/>
	</g>
</g>
<g>
	<g>
		<path d="M326.063,234.789c-0.265-0.309-0.554-0.598-0.863-0.863l-29.368-25.176c-17.258-30.847-56.254-41.863-87.101-24.605
			c-30.847,17.258-41.863,56.254-24.605,87.101c11.319,20.231,32.692,32.76,55.874,32.752c23.175,0.021,44.542-12.513,55.832-32.752
			L325.2,246.07C328.554,243.193,328.94,238.142,326.063,234.789z M284.304,260.054c-0.765,0.652-1.398,1.445-1.864,2.336
			c-12.367,23.448-41.401,32.432-64.849,20.065s-32.432-41.401-20.065-64.849c8.31-15.756,24.661-25.614,42.474-25.608
			c17.803-0.011,34.146,9.847,42.44,25.6c0.466,0.891,1.099,1.684,1.864,2.336l23.4,20.064L284.304,260.054z"/>
	</g>
</g>
<g>
</g>
<g>
</g>
<g>
</g>
<g>
</g>
<g>
</g>
<g>
</g>
<g>
</g>
<g>
</g>
<g>
</g>
<g>
</g>
<g>
</g>
<g>
</g>
<g>
</g>
<g>
</g>
<g>
</g>
</svg>
