<?xml version="1.0" encoding="iso-8859-1"?>
<!-- Generator: Adobe Illustrator 19.0.0, SVG Export Plug-In . SVG Version: 6.00 Build 0)  -->
<svg version="1.1" id="Capa_1" xmlns="http://www.w3.org/2000/svg" xmlns:xlink="http://www.w3.org/1999/xlink" x="0px" y="0px"
	 viewBox="0 0 480 480" style="enable-background:new 0 0 480 480;" xml:space="preserve">
<g>
	<g>
		<path d="M472,68.1h-24v-24c0-13.255-10.745-24-24-24h-80c-13.255,0-24,10.745-24,24v24h-16v-24c0-13.255-10.745-24-24-24h-80
			c-13.255,0-24,10.745-24,24v24h-16v-24c0-13.255-10.745-24-24-24H56c-13.255,0-24,10.745-24,24v24H8c-4.418,0-8,3.582-8,8v32
			c0,4.418,3.582,8,8,8h24v24c0,13.255,10.745,24,24,24h80c13.255,0,24-10.745,24-24v-24h16v24c0,13.255,10.745,24,24,24h16v48h-40
			c-13.255,0-24,10.745-24,24v120c0,13.255,10.745,24,24,24h128c13.255,0,24-10.745,24-24v-120c0-13.255-10.745-24-24-24h-40v-48h16
			c13.255,0,24-10.745,24-24v-24h16v24c0,13.255,10.745,24,24,24h80c13.255,0,24-10.745,24-24v-24h24c4.418,0,8-3.582,8-8v-32
			C480,71.682,476.418,68.1,472,68.1z M336,44.1c0-4.418,3.582-8,8-8h80c4.418,0,8,3.582,8,8v24h-16v-8c0-4.418-3.582-8-8-8h-48
			c-4.418,0-8,3.582-8,8v8h-16V44.1z M400,116.1h-32c4.418,0,8-3.582,8-8v-32c0-4.418-3.582-8-8-8h32c-4.418,0-8,3.582-8,8v32
			C392,112.518,395.582,116.1,400,116.1z M192,44.1c0-4.418,3.582-8,8-8h80c4.418,0,8,3.582,8,8v24h-16v-8c0-4.418-3.582-8-8-8h-48
			c-4.418,0-8,3.582-8,8v8h-16V44.1z M256,116.1h-32c4.418,0,8-3.582,8-8v-32c0-4.418-3.582-8-8-8h32c-4.418,0-8,3.582-8,8v32
			C248,112.518,251.582,116.1,256,116.1z M48,44.1c0-4.418,3.582-8,8-8h80c4.418,0,8,3.582,8,8v24h-16v-8c0-4.418-3.582-8-8-8H72
			c-4.418,0-8,3.582-8,8v8H48V44.1z M112,116.1H80c4.418,0,8-3.582,8-8v-32c0-4.418-3.582-8-8-8h32c-4.418,0-8,3.582-8,8v32
			C104,112.518,107.582,116.1,112,116.1z M16,100.1v-16h56v16H16z M144,140.1c0,4.418-3.582,8-8,8H56c-4.418,0-8-3.582-8-8v-24h16v8
			c0,4.418,3.582,8,8,8h48c4.418,0,8-3.582,8-8v-8h16V140.1z M152,100.1h-32v-16h96v16H152z M304,228.1c4.418,0,8,3.582,8,8v120
			c0,4.418-3.582,8-8,8H176c-4.418,0-8-3.582-8-8v-120c0-4.418,3.582-8,8-8H304z M232,212.1v-48h16v48H232z M288,140.1
			c0,4.418-3.582,8-8,8h-80c-4.418,0-8-3.582-8-8v-24h16v8c0,4.418,3.582,8,8,8h48c4.418,0,8-3.582,8-8v-8h16V140.1z M296,100.1h-32
			v-16h96v16H296z M432,140.1c0,4.418-3.582,8-8,8h-80c-4.418,0-8-3.582-8-8v-24h16v8c0,4.418,3.582,8,8,8h48c4.418,0,8-3.582,8-8
			v-8h16V140.1z M464,100.1h-56v-16h56V100.1z"/>
	</g>
</g>
<g>
	<g>
		<path d="M261.166,251.974c-13.255-11.69-33.476-10.421-45.166,2.834c-10.667,12.095-10.667,30.237,0,42.332v42.96
			c0,4.418,3.582,8,8,8h32c4.418,0,8-3.582,8-8v-42.96C275.69,283.885,274.421,263.664,261.166,251.974z M250.64,287.932
			c-1.682,1.518-2.641,3.678-2.64,5.944V332.1h-16v-38.224c0.001-2.266-0.958-4.426-2.64-5.944
			c-3.401-2.993-5.353-7.302-5.36-11.832c0-8.837,7.163-16,16-16s16,7.163,16,16C255.993,280.63,254.041,284.939,250.64,287.932z"/>
	</g>
</g>
<g>
	<g>
		<path d="M217.064,442.356l-2.408,15.848c5.6,0.848,11.376,1.416,17.032,1.696l0.8-16
			C227.324,443.644,222.176,443.129,217.064,442.356z"/>
	</g>
</g>
<g>
	<g>
		<path d="M263.432,442.332c-5.114,0.785-10.265,1.308-15.432,1.568l0.8,16c5.703-0.298,11.388-0.883,17.032-1.752L263.432,442.332z
			"/>
	</g>
</g>
<g>
	<g>
		<path d="M293.344,434.484c-4.845,1.81-9.78,3.372-14.784,4.68l4.04,15.48c5.534-1.442,10.989-3.17,16.344-5.176L293.344,434.484z"
			/>
	</g>
</g>
<g>
	<g>
		<path d="M187.104,434.636l-5.6,14.984c5.361,1.997,10.822,3.716,16.36,5.152l4-15.504
			C196.867,437.982,191.94,436.436,187.104,434.636z"/>
	</g>
</g>
<g>
	<g>
		<path d="M134.904,401.956l-11.064,11.52c4.126,3.949,8.449,7.687,12.952,11.2l9.848-12.576
			C142.559,408.919,138.642,405.534,134.904,401.956z"/>
	</g>
</g>
<g>
	<g>
		<path d="M321.04,420.716c-4.365,2.762-8.869,5.296-13.496,7.592l7.104,14.328c5.124-2.537,10.115-5.335,14.952-8.384
			L321.04,420.716z"/>
	</g>
</g>
<g>
	<g>
		<path d="M159.336,420.948l-8.512,13.552c4.842,3.036,9.835,5.823,14.96,8.352l7.072-14.344
			C168.224,426.22,163.711,423.696,159.336,420.948z"/>
	</g>
</g>
<g>
	<g>
		<path d="M380.248,350.812c-2,4.768-4.243,9.43-6.72,13.968l14.048,7.656c2.739-5.015,5.217-10.169,7.424-15.44L380.248,350.812z"
			/>
	</g>
</g>
<g>
	<g>
		<path d="M376.416,193.996l-12.984,9.376c3.016,4.198,5.819,8.545,8.4,13.024l13.872-8
			C382.854,203.442,379.754,198.636,376.416,193.996z"/>
	</g>
</g>
<g>
	<g>
		<path d="M389.216,321.204c-0.984,5.071-2.226,10.088-3.72,15.032l15.312,4.64c1.652-5.469,3.027-11.017,4.12-16.624
			L389.216,321.204z"/>
	</g>
</g>
<g>
	<g>
		<path d="M114.816,378.348l-13.16,9.096c3.229,4.71,6.7,9.25,10.4,13.6l12.168-10.4
			C120.885,386.705,117.745,382.601,114.816,378.348z"/>
	</g>
</g>
<g>
	<g>
		<path d="M392,290.38v1.72c0,4.592-0.208,9.216-0.616,13.752l15.936,1.432c0.448-5.008,0.68-10.112,0.68-15.2v-1.92L392,290.38z"/>
	</g>
</g>
<g>
	<g>
		<path d="M393.496,223.668l-14.624,6.544c2.109,4.721,3.978,9.546,5.6,14.456l15.2-5
			C397.886,234.233,395.824,228.893,393.496,223.668z"/>
	</g>
</g>
<g>
	<g>
		<path d="M365.408,378.004c-2.927,4.257-6.067,8.363-9.408,12.304l12.2,10.344c3.697-4.353,7.168-8.892,10.4-13.6L365.408,378.004z
			"/>
	</g>
</g>
<g>
	<g>
		<path d="M345.408,401.644c-3.721,3.581-7.625,6.967-11.696,10.144l9.872,12.592c4.496-3.528,8.8-7.312,12.92-11.2L345.408,401.644
			z"/>
	</g>
</g>
<g>
	<g>
		<path d="M404.152,256.204l-15.632,3.4c1.099,5.05,1.937,10.152,2.512,15.288l15.904-1.784
			C406.295,267.43,405.366,261.788,404.152,256.204z"/>
	</g>
</g>
<g>
	<g>
		<path d="M75.752,256.652c-1.201,5.593-2.117,11.242-2.744,16.928l15.912,1.728c0.565-5.137,1.39-10.242,2.472-15.296
			L75.752,256.652z"/>
	</g>
</g>
<g>
	<g>
		<path d="M99.928,351.228l-14.736,6.232c2.224,5.26,4.715,10.402,7.464,15.408l14.024-7.704
			C104.196,360.636,101.942,355.984,99.928,351.228z"/>
	</g>
</g>
<g>
	<g>
		<path d="M88,292.1v-1.296l-16-0.144v1.44c0,5.208,0.24,10.488,0.72,15.688l15.936-1.488C88.216,301.596,88,296.82,88,292.1z"/>
	</g>
</g>
<g>
	<g>
		<path d="M86.336,224.1c-2.317,5.225-4.365,10.565-6.136,16l15.2,4.952c1.593-4.914,3.44-9.742,5.536-14.464L86.336,224.1z"/>
	</g>
</g>
<g>
	<g>
		<path d="M90.872,321.644l-15.704,3.08c1.108,5.608,2.499,11.157,4.168,16.624l15.304-4.688
			C93.126,331.723,91.868,326.711,90.872,321.644z"/>
	</g>
</g>
<g>
	<g>
		<path d="M103.328,194.38c-3.325,4.642-6.414,9.448-9.256,14.4l13.896,7.936c2.565-4.477,5.358-8.818,8.368-13.008L103.328,194.38z
			"/>
	</g>
</g>
<g>
</g>
<g>
</g>
<g>
</g>
<g>
</g>
<g>
</g>
<g>
</g>
<g>
</g>
<g>
</g>
<g>
</g>
<g>
</g>
<g>
</g>
<g>
</g>
<g>
</g>
<g>
</g>
<g>
</g>
</svg>
