<?xml version="1.0" encoding="iso-8859-1"?>
<!-- Generator: Adobe Illustrator 19.0.0, SVG Export Plug-In . SVG Version: 6.00 Build 0)  -->
<svg version="1.1" id="Capa_1" xmlns="http://www.w3.org/2000/svg" xmlns:xlink="http://www.w3.org/1999/xlink" x="0px" y="0px"
	 viewBox="0 0 480.008 480.008" style="enable-background:new 0 0 480.008 480.008;" xml:space="preserve">
<g>
	<g>
		<path d="M477.004,465.756l-40-32c-1.419-1.135-3.183-1.753-5-1.752h-76.248l-26.672-32h110.92c22.08-0.026,39.974-17.92,40-40
			v-320c-0.026-22.08-17.92-39.974-40-40h-400c-22.08,0.026-39.974,17.92-40,40v320c0.026,22.08,17.92,39.974,40,40h110.92
			l-26.672,32H48.004c-1.817-0.001-3.581,0.617-5,1.752l-40,32c-3.451,2.759-4.011,7.794-1.252,11.244
			c1.519,1.899,3.82,3.005,6.252,3.004h464c4.418,0.002,8.002-3.578,8.004-7.996C480.009,469.575,478.904,467.275,477.004,465.756z
			 M40.004,384.004c-13.255,0-24-10.745-24-24v-320c0-13.255,10.745-24,24-24h400c13.255,0,24,10.745,24,24v320
			c0,13.255-10.745,24-24,24H40.004z M171.756,400.004h136.496l26.672,32h-189.84L171.756,400.004z M30.812,464.004l20-16h378.4
			l19.984,16H30.812z"/>
	</g>
</g>
<g>
	<g>
		<path d="M440.004,32.004h-400c-4.418,0-8,3.582-8,8v288c0,4.418,3.582,8,8,8h400c4.418,0,8-3.582,8-8v-288
			C448.004,35.586,444.422,32.004,440.004,32.004z M432.004,320.004h-384v-272h384V320.004z"/>
	</g>
</g>
<g>
	<g>
		<rect x="200.004" y="352.004" width="80" height="16"/>
	</g>
</g>
<g>
	<g>
		<path d="M360.004,120.004h-8c-4.418,0-8,3.582-8,8v32c0,4.418,3.582,8,8,8h8c13.255,0,24-10.745,24-24
			S373.259,120.004,360.004,120.004z M360.004,152.004v-16c4.418,0,8,3.582,8,8S364.422,152.004,360.004,152.004z"/>
	</g>
</g>
<g>
	<g>
		<path d="M360.004,200.004h-8c-4.418,0-8,3.582-8,8v32c0,4.418,3.582,8,8,8h8c13.255,0,24-10.745,24-24
			S373.259,200.004,360.004,200.004z M360.004,232.004v-16c4.418,0,8,3.582,8,8S364.422,232.004,360.004,232.004z"/>
	</g>
</g>
<g>
	<g>
		<path d="M400.404,184.004c8.712-7.136,15.6-20.272,15.6-44c-0.024-27.15-20.931-49.712-48-51.8v-16.2h-16v16h-16v-16h-16v16h-16
			c-4.418,0-8,3.582-8,8v32c0,4.418,3.582,8,8,8h8v96h-8c-4.418,0-8,3.582-8,8v32c0,4.418,3.582,8,8,8h24v16h16v-16h8v16h16v-16.2
			c27.069-2.088,47.976-24.65,48-51.8C416.004,204.276,409.116,191.14,400.404,184.004z M376.004,192.004c6.56,0,24,0,24,36
			c-0.022,19.873-16.127,35.978-36,36h-52v-16h8c4.418,0,8-3.582,8-8v-112c0-4.418-3.582-8-8-8h-8v-16h52
			c19.873,0.022,35.978,16.127,36,36c0,36-17.44,36-24,36c-4.418,0-8,3.582-8,8S371.586,192.004,376.004,192.004z"/>
	</g>
</g>
<g>
	<g>
		<path d="M264.004,88.004h-192c-4.418,0-8,3.582-8,8v8c0.059,19.978,14.875,36.838,34.68,39.464
			c4.906,25.834,21.7,47.844,45.32,59.4v61.136h-32v16h112v-16h-32v-61.136c23.62-11.556,40.414-33.566,45.32-59.4
			c19.805-2.626,34.621-19.486,34.68-39.464v-8C272.004,91.586,268.422,88.004,264.004,88.004z M80.004,104.004h16v16
			c0,2.232,0.136,4.424,0.272,6.608C86.576,123.331,80.036,114.244,80.004,104.004z M176.004,264.004h-16v-56.576
			c5.306,0.768,10.694,0.768,16,0V264.004z M224.004,120.004c0,39.704-25.12,72-56,72s-56-32.296-56-72v-16h112V120.004z
			 M239.732,126.612c0.136-2.184,0.272-4.376,0.272-6.608v-16h16C255.973,114.244,249.432,123.331,239.732,126.612z"/>
	</g>
</g>
<g>
	<g>
		<rect x="280.004" y="176.004" width="16" height="16"/>
	</g>
</g>
<g>
	<g>
		<rect x="248.004" y="176.004" width="16" height="16"/>
	</g>
</g>
<g>
</g>
<g>
</g>
<g>
</g>
<g>
</g>
<g>
</g>
<g>
</g>
<g>
</g>
<g>
</g>
<g>
</g>
<g>
</g>
<g>
</g>
<g>
</g>
<g>
</g>
<g>
</g>
<g>
</g>
</svg>
