<?xml version="1.0" encoding="iso-8859-1"?>
<!-- Generator: Adobe Illustrator 19.0.0, SVG Export Plug-In . SVG Version: 6.00 Build 0)  -->
<svg version="1.1" id="Capa_1" xmlns="http://www.w3.org/2000/svg" xmlns:xlink="http://www.w3.org/1999/xlink" x="0px" y="0px"
	 viewBox="0 0 480.106 480.106" style="enable-background:new 0 0 480.106 480.106;" xml:space="preserve">
<g>
	<g>
		<path d="M326.78,160.106c-4.418-12.497-18.131-19.046-30.627-14.627c-6.835,2.416-12.211,7.793-14.627,14.627h-33.472v-16.472
			c39.52-4.402,67.989-40.008,63.587-79.528c-4.402-39.52-40.008-67.989-79.528-63.587c-33.453,3.726-59.861,30.133-63.587,63.587
			h-24.472c-4.418,0-8,3.582-8,8v136h-16v-88c0-2.122-0.844-4.156-2.344-5.656L80.053,76.794V40.106h-16v40
			c0,2.122,0.844,4.156,2.344,5.656l37.656,37.656v84.688h-16v-64c0-3.2-1.907-6.091-4.848-7.352l-51.152-21.92v-68.2
			C44.55,42.216,51.099,28.503,46.68,16.007S28.55-3.039,16.053,1.379C3.556,5.797-2.993,19.51,1.426,32.007
			c2.416,6.835,7.793,12.211,14.627,14.627v73.472c0,3.2,1.907,6.091,4.848,7.352l51.152,21.92v58.728h-8
			c-2.852,0.006-5.486,1.53-6.912,4l-56,96l0.112,0.064c-0.745,1.181-1.159,2.54-1.2,3.936v160c0,4.418,3.582,8,8,8h160
			c2.818-0.024,5.41-1.549,6.8-4l0.112,0.064l56-96c0.719-1.233,1.094-2.637,1.088-4.064v-160c0-4.418-3.582-8-8-8h-72v-128h16.472
			c3.784,33.393,30.135,59.744,63.528,63.528v24.472c0,4.418,3.582,8,8,8h41.472c4.418,12.497,18.131,19.046,30.627,14.627
			C324.649,186.315,331.198,172.603,326.78,160.106z M24.053,32.106c-4.418,0-8-3.582-8-8s3.582-8,8-8s8,3.582,8,8
			S28.471,32.106,24.053,32.106z M160.053,464.106h-144v-144h144V464.106z M216.053,373.946l-40,68.56v-128.24l40-68.56V373.946z
			 M210.125,224.106l-46.664,80H21.981l46.664-80H210.125z M184.053,72.106c0.035-30.913,25.087-55.965,56-56
			c30.928,0,56,25.072,56,56s-25.072,56-56,56C209.125,128.106,184.053,103.034,184.053,72.106z M304.053,176.106
			c-4.418,0-8-3.582-8-8s3.582-8,8-8s8,3.582,8,8S308.471,176.106,304.053,176.106z"/>
	</g>
</g>
<g>
	<g>
		<path d="M132.853,358.634l8.872-8.872l-11.312-11.312l-8.888,8.856c-19.809-14.955-47.135-14.955-66.944,0l-8.872-8.856
			l-11.312,11.312l8.856,8.872c-14.955,19.809-14.955,47.135,0,66.944l-8.856,8.872l11.312,11.312l8.872-8.856
			c19.809,14.955,47.135,14.955,66.944,0l8.864,8.864l11.312-11.312l-8.848-8.88C147.808,405.769,147.808,378.443,132.853,358.634z
			 M88.053,352.106c7.838,0.002,15.5,2.32,22.024,6.664l-11.744,11.736c-6.477-3.211-14.083-3.211-20.56,0l-11.744-11.744
			C72.554,354.421,80.216,352.105,88.053,352.106z M96.053,392.106c0,4.418-3.582,8-8,8s-8-3.582-8-8s3.582-8,8-8
			S96.053,387.688,96.053,392.106z M48.053,392.106c0.002-7.838,2.32-15.5,6.664-22.024l11.736,11.744
			c-3.211,6.477-3.211,14.083,0,20.56L54.717,414.13C50.373,407.606,48.055,399.944,48.053,392.106z M88.053,432.106
			c-7.838-0.002-15.5-2.32-22.024-6.664l11.744-11.736c6.477,3.211,14.083,3.211,20.56,0l11.744,11.744
			C103.552,429.791,95.89,432.107,88.053,432.106z M121.389,414.13l-11.736-11.744c3.211-6.477,3.211-14.083,0-20.56l11.744-11.744
			c4.341,6.525,6.657,14.187,6.656,22.024C128.051,399.944,125.733,407.606,121.389,414.13z"/>
	</g>
</g>
<g>
	<g>
		<path d="M472.053,208.106h-8v-25.472c12.497-4.418,19.046-18.131,14.627-30.627s-18.131-19.046-30.627-14.627
			s-19.046,18.131-14.627,30.627c2.416,6.835,7.793,12.211,14.627,14.627v25.472h-40v-76.688l29.656-29.656
			c1.5-1.5,2.344-3.534,2.344-5.656V46.634c12.497-4.418,19.046-18.131,14.627-30.627S436.55-3.039,424.053,1.379
			c-12.497,4.418-19.046,18.131-14.627,30.627c2.416,6.835,7.793,12.211,14.627,14.627v46.16l-29.656,29.656
			c-1.5,1.5-2.344,3.534-2.344,5.656v80h-24V94.634c12.497-4.418,19.046-18.131,14.627-30.627s-18.131-19.046-30.627-14.627
			c-12.497,4.418-19.046,18.131-14.627,30.627c2.416,6.835,7.793,12.211,14.627,14.627v113.472h-40c-2.852,0.006-5.486,1.53-6.912,4
			l-56,96l0.112,0.064c-0.745,1.181-1.159,2.54-1.2,3.936v160c0,4.418,3.582,8,8,8h160c2.818-0.024,5.41-1.549,6.8-4l0.112,0.064
			l56-96c0.719-1.233,1.094-2.637,1.088-4.064v-160C480.053,211.688,476.471,208.106,472.053,208.106z M432.053,16.106
			c4.418,0,8,3.582,8,8s-3.582,8-8,8s-8-3.582-8-8S427.635,16.106,432.053,16.106z M456.053,152.106c4.418,0,8,3.582,8,8
			s-3.582,8-8,8s-8-3.582-8-8S451.635,152.106,456.053,152.106z M360.053,64.106c4.418,0,8,3.582,8,8s-3.582,8-8,8s-8-3.582-8-8
			S355.635,64.106,360.053,64.106z M408.053,464.106h-144v-144h144V464.106z M411.461,304.106h-141.48l46.664-80h141.48
			L411.461,304.106z M464.053,373.946l-40,68.56v-128.24l40-68.56V373.946z"/>
	</g>
</g>
<g>
	<g>
		<path d="M380.853,358.634l8.872-8.872l-11.312-11.312l-8.888,8.856c-19.809-14.955-47.135-14.955-66.944,0l-8.872-8.872
			l-11.312,11.312l8.856,8.888c-14.955,19.809-14.955,47.135,0,66.944l-8.872,8.872l11.312,11.312l8.888-8.856
			c19.809,14.955,47.135,14.955,66.944,0l8.864,8.864l11.312-11.312l-8.848-8.88C395.808,405.769,395.808,378.443,380.853,358.634z
			 M336.053,352.106c7.838,0.002,15.5,2.32,22.024,6.664l-11.744,11.736c-6.477-3.211-14.083-3.211-20.56,0l-11.744-11.744
			C320.554,354.421,328.216,352.105,336.053,352.106z M344.053,392.106c0,4.418-3.582,8-8,8s-8-3.582-8-8s3.582-8,8-8
			S344.053,387.688,344.053,392.106z M296.053,392.106c0.002-7.838,2.32-15.5,6.664-22.024l11.736,11.744
			c-3.211,6.477-3.211,14.083,0,20.56l-11.744,11.744C298.368,407.605,296.052,399.943,296.053,392.106z M336.053,432.106
			c-7.838-0.002-15.5-2.32-22.024-6.664l11.744-11.736c6.477,3.211,14.083,3.211,20.56,0l11.744,11.744
			C351.552,429.791,343.89,432.107,336.053,432.106z M369.389,414.13l-11.736-11.744c3.211-6.477,3.211-14.083,0-20.56
			l11.744-11.744c4.341,6.525,6.657,14.187,6.656,22.024C376.051,399.944,373.733,407.606,369.389,414.13z"/>
	</g>
</g>
<g>
	<g>
		<path d="M240.053,32.106c-22.091,0-40,17.909-40,40c0.026,22.08,17.92,39.974,40,40c22.091,0,40-17.909,40-40
			S262.144,32.106,240.053,32.106z M240.053,96.106c-13.255,0-24-10.745-24-24s10.745-24,24-24s24,10.745,24,24
			S253.308,96.106,240.053,96.106z"/>
	</g>
</g>
<g>
</g>
<g>
</g>
<g>
</g>
<g>
</g>
<g>
</g>
<g>
</g>
<g>
</g>
<g>
</g>
<g>
</g>
<g>
</g>
<g>
</g>
<g>
</g>
<g>
</g>
<g>
</g>
<g>
</g>
</svg>
