<?xml version="1.0" encoding="iso-8859-1"?>
<!-- Generator: Adobe Illustrator 19.0.0, SVG Export Plug-In . SVG Version: 6.00 Build 0)  -->
<svg version="1.1" id="Capa_1" xmlns="http://www.w3.org/2000/svg" xmlns:xlink="http://www.w3.org/1999/xlink" x="0px" y="0px"
	 viewBox="0 0 480 480" style="enable-background:new 0 0 480 480;" xml:space="preserve">
<g>
	<g>
		<path d="M357.656,410.344c-1.5-1.5-3.534-2.344-5.656-2.344h-37.336l-0.672-0.504c9.177-14.138,14.044-30.64,14.008-47.496
			c0-48.601-39.399-88-88-88s-88,39.399-88,88c0.002,15.082,3.916,29.906,11.36,43.024l-22.792-9.768l-30.912-30.912
			c-1.5-1.5-3.534-2.344-5.656-2.344H0v16h100.688l29.656,29.656c0.719,0.719,1.569,1.295,2.504,1.696l56,24
			c0.995,0.431,2.068,0.651,3.152,0.648h32c1.403,0.007,2.783-0.357,4-1.056l51.44-29.392L307.2,422.4
			c1.385,1.039,3.069,1.6,4.8,1.6h36.688l21.656,21.656l11.312-11.312L357.656,410.344z M264.04,391.904l-3.272,1.872l-5.84,3.336
			c-4.745,1.912-9.813,2.892-14.928,2.888c-22.091,0-40-17.909-40-40c0-22.091,17.909-40,40-40c22.091,0,40,17.909,40,40
			C280.037,372.563,274.116,384.4,264.04,391.904z M301.128,397.848l-12.904-9.68c15.556-26.68,6.539-60.919-20.141-76.475
			c-26.68-15.556-60.919-6.539-76.475,20.141c-15.556,26.68-6.539,60.919,20.141,76.475c4.273,2.492,8.858,4.405,13.635,5.691
			l-3.512,2h-26.824c-17.116-13.54-27.083-34.176-27.048-56c0.044-39.746,32.254-71.956,72-72c39.746,0.044,71.956,32.254,72,72
			C312.02,373.389,308.25,386.51,301.128,397.848z"/>
	</g>
</g>
<g>
	<g>
		<path d="M472,24H258.224c1.6-4.312,3.304-8.592,5.128-12.848c1.741-4.061-0.14-8.764-4.201-10.505C258.155,0.22,257.083,0,256,0
			h-48c-3.573-0.002-6.714,2.365-7.696,5.8c-1.72,6.016-3.056,12.096-4.224,18.2H168c-4.418,0-8,3.582-8,8v32c0,4.418,3.582,8,8,8
			h24.568c0.693,16.985,3.458,33.821,8.232,50.136l23.568,80.12c1.323,4.216,5.812,6.561,10.028,5.239
			c3.287-1.031,5.544-4.05,5.604-7.495v-75.072c0.017-17.757,1.672-35.475,4.944-52.928H472c4.418,0,8-3.582,8-8V32
			C480,27.582,476.418,24,472,24z M192.512,56H176V40h17.672C193.072,45.32,192.696,50.656,192.512,56z M224,124.928v19.528
			l-7.896-26.856c-9.74-33.08-10.42-68.168-1.968-101.6h29.992C230.779,50.763,223.956,87.69,224,124.928z M464,56H248.384
			c1.32-5.368,2.76-10.704,4.4-16H464V56z"/>
	</g>
</g>
<g>
	<g>
		<path d="M454.552,368l-6.712-33.6c-0.76-3.725-4.038-6.401-7.84-6.4h-32v-40c0.017-3.047-1.699-5.838-4.424-7.2l-45.04-22.512
			l-6.952-20.856c-1.101-3.25-4.153-5.435-7.584-5.432h-39.128l-71.136-15.808c-3.224-0.718-6.558,0.62-8.392,3.368L211.72,240H176
			c-3.032-0.001-5.805,1.712-7.16,4.424l-13.264,26.536l-33.976-6.8c-2.614-0.525-5.318,0.295-7.2,2.184L92.688,288H74.216
			L36.12,265.144C34.876,264.396,33.452,264,32,264H0v16h29.784l38.096,22.856C69.124,303.604,70.548,304,72,304h21.6l18.4,12.28
			V344h16v-32c0-2.674-1.335-5.172-3.56-6.656l-15.88-10.584l14.072-14.08l35.8,7.16c3.538,0.71,7.113-1.037,8.728-4.264
			L180.944,256H216c2.674,0,5.172-1.335,6.656-3.56l12.96-19.44l66.648,14.808c0.57,0.128,1.152,0.192,1.736,0.192h34.232
			l6.184,18.528c0.667,2.013,2.105,3.679,4,4.632L392,292.944V328h-40v16h81.448l6.712,33.6c0.76,3.725,4.038,6.401,7.84,6.4h32v-16
			H454.552z"/>
	</g>
</g>
<g>
	<g>
		<path d="M88,64c-48.601,0-88,39.399-88,88c0.057,48.577,39.423,87.943,88,88c48.601,0,88-39.399,88-88S136.601,64,88,64z M88,224
			c-39.765,0-72-32.236-72-72c0.044-39.746,32.254-71.956,72-72c39.765,0,72,32.235,72,72C160,191.764,127.765,224,88,224z"/>
	</g>
</g>
<g>
	<g>
		<path d="M88,96c-30.928,0-56,25.072-56,56c0.035,30.913,25.087,55.965,56,56c30.928,0,56-25.072,56-56
			C144,121.072,118.928,96,88,96z M88,192c-22.091,0-40-17.909-40-40c0.026-22.08,17.92-39.974,40-40c22.091,0,40,17.909,40,40
			S110.091,192,88,192z"/>
	</g>
</g>
<g>
	<g>
		<rect x="0" y="464" width="16" height="16"/>
	</g>
</g>
<g>
	<g>
		<rect x="32" y="448" width="16" height="16"/>
	</g>
</g>
<g>
	<g>
		<rect x="88" y="400" width="16" height="16"/>
	</g>
</g>
<g>
	<g>
		<rect x="392" y="464" width="16" height="16"/>
	</g>
</g>
<g>
	<g>
		<rect x="424" y="440" width="16" height="16"/>
	</g>
</g>
<g>
	<g>
		<rect x="464" y="416" width="16" height="16"/>
	</g>
</g>
<g>
	<g>
		<path d="M462.654,219.561c-0.292-0.438-0.626-0.845-0.998-1.217l-32-32c-2.141-2.143-5.309-2.892-8.184-1.936l-24,8
			c-3.268,1.089-5.473,4.147-5.472,7.592v32c0.001,3.672,2.501,6.871,6.064,7.76l32,8c0.633,0.159,1.283,0.239,1.936,0.24
			c1.58-0.003,3.124-0.47,4.44-1.344l24-16C464.115,228.204,465.107,223.236,462.654,219.561z M430.488,231.368L408,225.752v-19.984
			l13.832-4.616l21.6,21.6L430.488,231.368z"/>
	</g>
</g>
<g>
	<g>
		<rect x="256" y="128" width="16" height="40"/>
	</g>
</g>
<g>
	<g>
		<rect x="304" y="200" width="40" height="16"/>
	</g>
</g>
<g>
	<g>
		<rect x="289.363" y="152.008" transform="matrix(0.7071 -0.7071 0.7071 0.7071 -21.7626 267.4761)" width="45.256" height="16"/>
	</g>
</g>
<g>
	<g>
		<rect x="0" y="40" width="16" height="16"/>
	</g>
</g>
<g>
	<g>
		<rect x="0" y="0" width="16" height="16"/>
	</g>
</g>
<g>
	<g>
		<rect x="40" y="16" width="16" height="16"/>
	</g>
</g>
<g>
</g>
<g>
</g>
<g>
</g>
<g>
</g>
<g>
</g>
<g>
</g>
<g>
</g>
<g>
</g>
<g>
</g>
<g>
</g>
<g>
</g>
<g>
</g>
<g>
</g>
<g>
</g>
<g>
</g>
</svg>
