<?xml version="1.0" encoding="iso-8859-1"?>
<!-- Generator: Adobe Illustrator 19.0.0, SVG Export Plug-In . SVG Version: 6.00 Build 0)  -->
<svg version="1.1" id="Capa_1" xmlns="http://www.w3.org/2000/svg" xmlns:xlink="http://www.w3.org/1999/xlink" x="0px" y="0px"
	 viewBox="0 0 479.904 479.904" style="enable-background:new 0 0 479.904 479.904;" xml:space="preserve">
<g>
	<g>
		<path d="M447.904,151.952c4.418,0,8-3.582,8-8v-56h16c4.418,0,8-3.582,8-8v-64c0-4.418-3.582-8-8-8h-336c-4.418,0-8,3.582-8,8v56
			h-16c-4.418,0-8,3.582-8,8v55.464C15.242,175.258-24.334,279.43,15.507,368.092c28.381,63.157,91.156,103.805,160.396,103.86h296
			c4.418,0,8-3.582,8-8v-128c0-4.418-3.582-8-8-8h-24v-48h24c4.418,0,8-3.582,8-8v-64c0-4.418-3.582-8-8-8h-40v-48H447.904z
			 M431.904,23.952h32v48h-32V23.952z M383.904,23.952h32v48h-32V23.952z M399.904,279.952h32v48h-32V279.952z M383.904,263.952v-48
			h32v48H383.904z M415.904,199.952h-32v-48h32V199.952z M391.904,135.952h-32v-48h32V135.952z M319.904,151.952v42.992
			c-11.752-16.696-26.296-31.24-42.992-42.992H319.904z M263.904,135.952v-48h32v48H263.904z M311.904,135.952v-48h32v48H311.904z
			 M367.904,151.952v48h-32v-48H367.904z M367.904,215.952v48h-18.968c-3.085-16.71-8.591-32.88-16.344-48H367.904z
			 M351.904,295.952c0-5.4-0.28-10.728-0.76-16h32.76v48h-34.968C350.896,317.397,351.889,306.686,351.904,295.952z M335.904,23.952
			h32v48h-32V23.952z M287.904,23.952h32v48h-32V23.952z M239.904,23.952h32v48h-32V23.952z M247.904,87.952v47.464
			c-10.291-4.635-21.008-8.26-32-10.824v-36.64H247.904z M191.904,23.952h32v48h-32V23.952z M199.904,87.952v33.68
			c-7.952-1.107-15.971-1.668-24-1.68c-2.68,0-5.344,0.08-8,0.2v-32.2H199.904z M143.904,23.952h32v48h-32V23.952z M119.904,87.952
			h32v33.68c-10.878,1.492-21.592,4.004-32,7.504V87.952z M15.904,295.952c0-88.366,71.634-160,160-160s160,71.634,160,160
			s-71.634,160-160,160C87.58,455.85,16.005,384.275,15.904,295.952z M271.904,455.952h-22.816c7.906-3.63,15.533-7.842,22.816-12.6
			V455.952z M319.904,455.952h-32v-24.336c8.615-7.126,16.538-15.05,23.664-23.664h8.336V455.952z M367.904,455.952h-32v-48h32
			V455.952z M367.904,391.952h-44.6c9.678-14.803,17.057-30.987,21.888-48h22.712V391.952z M415.904,455.952h-32v-48h32V455.952z
			 M415.904,391.952h-32v-48h32V391.952z M463.904,455.952h-32v-48h32V455.952z M463.904,343.952v48h-32v-48H463.904z
			 M463.904,215.952v48h-32v-48H463.904z M407.904,135.952v-48h32v48H407.904z"/>
	</g>
</g>
<g>
	<g>
		<path d="M183.904,231.952h-8c-4.418,0-8,3.582-8,8v32c0,4.418,3.582,8,8,8h8c13.255,0,24-10.745,24-24
			C207.904,242.697,197.158,231.952,183.904,231.952z M183.904,263.952v-16c4.418,0,8,3.582,8,8
			C191.904,260.37,188.322,263.952,183.904,263.952z"/>
	</g>
</g>
<g>
	<g>
		<path d="M183.904,311.952h-8c-4.418,0-8,3.582-8,8v32c0,4.418,3.582,8,8,8h8c13.255,0,24-10.745,24-24
			S197.158,311.952,183.904,311.952z M183.904,343.952v-16c4.418,0,8,3.582,8,8S188.322,343.952,183.904,343.952z"/>
	</g>
</g>
<g>
	<g>
		<path d="M224.304,295.952c8.712-7.136,15.6-20.28,15.6-44c-0.024-27.15-20.931-49.712-48-51.8v-16.2h-16v16h-16v-16h-16v16h-16
			c-4.418,0-8,3.582-8,8v32c0,4.418,3.582,8,8,8h8v96h-8c-4.418,0-8,3.582-8,8v32c0,4.418,3.582,8,8,8h24v16h16v-16h8v16h16v-16.2
			c27.069-2.088,47.976-24.65,48-51.8C239.904,316.232,233.016,303.088,224.304,295.952z M199.904,303.952c6.56,0,24,0,24,36
			c-0.022,19.873-16.127,35.978-36,36h-52v-16h8c4.418,0,8-3.582,8-8v-112c0-4.418-3.582-8-8-8h-8v-16h52
			c19.873,0.022,35.978,16.127,36,36c0,36-17.44,36-24,36c-4.418,0-8,3.582-8,8S195.485,303.952,199.904,303.952z"/>
	</g>
</g>
<g>
	<g>
		<path d="M175.904,151.952c-79.529,0-144,64.471-144,144s64.471,144,144,144s144-64.471,144-144
			C319.811,216.461,255.394,152.044,175.904,151.952z M175.904,423.952c-70.692,0-128-57.308-128-128s57.308-128,128-128
			s128,57.308,128,128C303.82,366.609,246.561,423.868,175.904,423.952z"/>
	</g>
</g>
<g>
</g>
<g>
</g>
<g>
</g>
<g>
</g>
<g>
</g>
<g>
</g>
<g>
</g>
<g>
</g>
<g>
</g>
<g>
</g>
<g>
</g>
<g>
</g>
<g>
</g>
<g>
</g>
<g>
</g>
</svg>
