<?xml version="1.0" encoding="utf-8"?>
<!-- Generator: Adobe Illustrator 21.0.0, SVG Export Plug-In . SVG Version: 6.00 Build 0)  -->
<svg version="1.1" id="Layer_1" xmlns="http://www.w3.org/2000/svg" xmlns:xlink="http://www.w3.org/1999/xlink" x="0px" y="0px"
	 viewBox="0 0 103.4 103.4" style="enable-background:new 0 0 103.4 103.4;" xml:space="preserve">
<style type="text/css">
	.st0{fill:#3FA8DA;}
	.st1{fill:#FFFFFF;}
</style>
<circle class="st0" cx="51.5" cy="51.7" r="51.4"/>
<path class="st1" d="M85.1,75.4c-0.9,0-1.8,0.3-2.5,0.9l-6.8-5.8l5.2-16.1c0.1,0,0.1,0,0.2,0c1.5,0,2.7-1.2,2.7-2.7S82.7,49,81.2,49
	c-0.1,0-0.1,0-0.2,0L76.5,35c0.7-0.5,1.2-1.3,1.2-2.2c0-1.5-1.2-2.7-2.7-2.7c-0.7,0-1.2,0.2-1.7,0.6L61.3,22c0.1-0.3,0.2-0.6,0.2-1
	c0-1.5-1.2-2.7-2.7-2.7c-1.2,0-2.3,0.9-2.6,2H41.7c-0.3-1.2-1.3-2-2.6-2c-1.5,0-2.7,1.2-2.7,2.7c0,0.3,0.1,0.7,0.2,1l-12.1,8.7
	c-0.5-0.4-1.1-0.6-1.7-0.6c-1.5,0-2.7,1.2-2.7,2.7c0,0.9,0.5,1.8,1.2,2.2l-4.6,14c-0.1,0-0.1,0-0.2,0c-1.5,0-2.7,1.2-2.7,2.7
	c0,1.5,1.2,2.7,2.7,2.7c0.1,0,0.1,0,0.2,0l4.6,14.1c-0.7,0.5-1.2,1.3-1.2,2.2c0,1.5,1.2,2.7,2.7,2.7c0.6,0,1.2-0.2,1.7-0.6l12.1,8.7
	c-0.1,0.3-0.2,0.6-0.2,1c0,1.5,1.2,2.7,2.7,2.7c1.2,0,2.3-0.9,2.6-2h14.6c0.3,1.2,1.3,2,2.6,2c1.5,0,2.7-1.2,2.7-2.7
	c0-0.3-0.1-0.7-0.2-1L75,71.5l6.8,5.8c-0.3,0.6-0.6,1.3-0.6,2c0,2.1,1.7,3.9,3.9,3.9c2.1,0,3.9-1.7,3.9-3.9
	C89,77.1,87.2,75.4,85.1,75.4z M75.5,36.2l4.3,13.3c-0.6,0.4-1,0.9-1.2,1.6l-1.6,0h-0.6c-0.2-0.9-0.9-1.7-1.8-1.9L75.5,36.2z
	 M74.3,35.3L73.4,49c-0.1,0-0.1,0-0.2,0l-5.5-10.4c0.5-0.5,0.9-1.2,0.9-2c0-0.2,0-0.3,0-0.4l0.7-0.3l3.7-1.6
	C73.3,34.8,73.7,35.1,74.3,35.3z M59.3,49.1c-0.2,0-0.3-0.1-0.5-0.1c-0.3,0-0.5,0-0.7,0.1l-7.3-12.7c0.3-0.3,0.5-0.6,0.6-0.9
	L63.3,37c0.1,0.7,0.4,1.3,0.9,1.7L59.3,49.1z M65.4,39.3c0.2,0,0.3,0.1,0.5,0.1c0.2,0,0.4,0,0.6-0.1L72,49.7
	c-0.4,0.4-0.7,0.8-0.8,1.4l-4.8,0l-5.1,0c-0.1-0.5-0.4-1-0.8-1.3L65.4,39.3z M57,49.8c-0.3,0.3-0.6,0.8-0.7,1.3H41.7
	c-0.1-0.5-0.4-0.9-0.7-1.3l7.3-12.7c0.2,0.1,0.4,0.1,0.7,0.1c0.2,0,0.5,0,0.7-0.1L57,49.8z M39.8,49.2c-0.2-0.1-0.5-0.1-0.7-0.1
	c-0.2,0-0.3,0-0.5,0.1l-4.9-10.3c0.5-0.4,0.9-1,0.9-1.7l11.8-1.5c0.1,0.4,0.4,0.7,0.6,0.9L39.8,49.2z M37.4,49.7
	c-0.4,0.4-0.7,0.8-0.9,1.4l-4.7,0l-5.1,0c-0.1-0.5-0.4-1-0.8-1.3l5.5-10.4c0.2,0,0.4,0.1,0.6,0.1c0.2,0,0.3,0,0.5-0.1L37.4,49.7z
	 M26.7,52.3l5.1,0l4.7,0c0.1,0.6,0.5,1,0.9,1.4l-4.9,10.3c-0.2,0-0.3-0.1-0.5-0.1c-0.2,0-0.4,0-0.6,0.1l-5.5-10.4
	C26.3,53.3,26.6,52.9,26.7,52.3z M38.6,54.3c0.2,0,0.3,0.1,0.5,0.1c0.3,0,0.5,0,0.7-0.1l7.3,12.6c-0.3,0.3-0.5,0.6-0.6,0.9
	l-11.8-1.5c-0.1-0.7-0.4-1.3-1-1.7L38.6,54.3z M40.9,53.6c0.3-0.3,0.6-0.8,0.7-1.3h14.6c0.1,0.5,0.4,0.9,0.7,1.3l-7.3,12.7
	c-0.2-0.1-0.5-0.1-0.7-0.1s-0.5,0-0.7,0.1L40.9,53.6z M58.1,54.2c0.2,0.1,0.5,0.1,0.7,0.1c0.2,0,0.3,0,0.5-0.1l4.9,10.3
	c-0.5,0.4-0.9,1-0.9,1.7l-11.8,1.5c-0.1-0.4-0.4-0.7-0.6-0.9L58.1,54.2z M60.5,53.7c0.4-0.4,0.7-0.8,0.9-1.4l4.4,0l5.5,0
	c0.1,0.5,0.4,0.9,0.8,1.3l-5.6,10.5c-0.2,0-0.4-0.1-0.6-0.1c-0.2,0-0.3,0-0.5,0.1L60.5,53.7z M60.5,23l12.1,8.7
	c-0.1,0.3-0.2,0.6-0.2,1c0,0.1,0,0.3,0,0.4L68,35.1c-0.5-0.6-1.2-1-2.1-1c-0.2,0-0.3,0-0.5,0l-4.7-10.4L60.5,23
	C60.5,23.1,60.5,23.1,60.5,23z M57.8,23.5c0.3,0.1,0.6,0.2,1,0.2c0.2,0,0.3,0,0.5,0l0.7,1.6l4.3,9.4c-0.4,0.3-0.7,0.7-0.8,1.1
	l-11.9-1.5c-0.1-0.5-0.3-1-0.6-1.3L57.8,23.5z M41.7,21.7h14.6c0.1,0.4,0.3,0.7,0.5,1L49.9,32c-0.3-0.1-0.6-0.2-0.9-0.2
	c-0.3,0-0.7,0.1-1,0.2l-6.8-9.4C41.4,22.4,41.6,22,41.7,21.7z M39.1,23.7c0.4,0,0.7-0.1,1-0.2l6.8,9.4c-0.3,0.4-0.5,0.8-0.6,1.3
	l-11.8,1.5c-0.2-0.4-0.5-0.8-0.8-1.1l5-11C38.8,23.6,38.9,23.7,39.1,23.7z M37.4,23C37.4,23.1,37.4,23.1,37.4,23l-4.9,11.1
	c-0.2,0-0.3,0-0.5,0c-0.9,0-1.6,0.4-2.1,1l-4.5-1.9c0-0.1,0-0.3,0-0.4c0-0.3-0.1-0.7-0.2-1L37.4,23z M24.9,34.3l4.5,1.9
	c0,0.1,0,0.3,0,0.4c0,0.8,0.3,1.5,0.9,2l-5.5,10.4c0,0-0.1,0-0.2,0l-1-13.8C24.2,35.1,24.6,34.8,24.9,34.3z M22.4,67.3l-4.4-13.4
	c0.6-0.3,1-0.9,1.2-1.5l1.7,0l0.7,0c0.2,0.9,0.9,1.6,1.7,1.9L22.4,67.3z M21.6,51.1l-0.7,0l-1.6,0c-0.2-0.7-0.6-1.3-1.2-1.7
	l4.3-13.3l0.9,13.1C22.5,49.5,21.8,50.2,21.6,51.1z M23.7,68.2l1-13.8c0.1,0,0.1,0,0.1,0l5.1,9.7l0.4,0.7c-0.5,0.5-0.9,1.2-0.9,2
	c0,0.1,0,0.3,0,0.4L24.9,69C24.6,68.6,24.2,68.3,23.7,68.2z M37.4,80.4l-12.1-8.7c0.1-0.3,0.2-0.7,0.2-1c0-0.1,0-0.3,0-0.4l4.5-1.9
	c0.5,0.6,1.2,1,2.1,1c0.2,0,0.3,0,0.5,0L37.4,80.4C37.4,80.3,37.4,80.4,37.4,80.4z M40.1,79.9c-0.3-0.1-0.6-0.2-1-0.2
	c-0.2,0-0.3,0-0.5,0l-1.1-2.4l-3.9-8.6c0.4-0.3,0.7-0.7,0.8-1.1l2.9,0.4l9,1.1c0.1,0.5,0.3,1,0.6,1.4l-1.2,1.6L40.1,79.9z
	 M56.3,81.7H41.7c-0.1-0.4-0.3-0.7-0.5-1l6.9-9.4c0.3,0.1,0.6,0.2,1,0.2s0.7-0.1,1-0.2l6.9,9.4C56.6,81,56.4,81.4,56.3,81.7z
	 M59.3,79.8c-0.2,0-0.3,0-0.5,0c-0.4,0-0.7,0.1-1,0.2L55,76.1l-4-5.6c0.3-0.4,0.5-0.8,0.6-1.4l9.1-1.1l2.7-0.3
	c0.2,0.4,0.4,0.8,0.8,1.1l-4.7,10.7L59.3,79.8z M60.5,80.4C60.5,80.4,60.5,80.3,60.5,80.4l0.1-0.4l4.8-10.6c0.2,0,0.3,0,0.5,0
	c0.8,0,1.6-0.4,2.1-1l5.8,2.5L60.5,80.4z M68.5,67.1c0-0.1,0-0.3,0-0.4c0-0.8-0.3-1.5-0.9-2l3.1-5.8l2.5-4.7c0,0,0.1,0,0.1,0l1,15.4
	L68.5,67.1z M74.7,54.2c0.8-0.3,1.5-0.9,1.7-1.8h0.7l1.6,0c0.2,0.7,0.6,1.2,1.2,1.6l-4.3,13.3L74.7,54.2z"/>
</svg>
