<?xml version="1.0" encoding="utf-8"?>
<!-- Generator: Adobe Illustrator 22.0.1, SVG Export Plug-In . SVG Version: 6.00 Build 0)  -->
<svg version="1.1" id="Layer_1" xmlns="http://www.w3.org/2000/svg" xmlns:xlink="http://www.w3.org/1999/xlink" x="0px" y="0px"
	 viewBox="0 0 103.8 103.4" style="enable-background:new 0 0 103.8 103.4;" xml:space="preserve">
<style type="text/css">
	.st0{fill:#9966FF;}
	.st1{fill:none;stroke:#FFFFFF;stroke-linejoin:round;}
	.st2{fill:none;stroke:#FFFFFF;stroke-miterlimit:10;}
</style>
<path id="bg" class="st0" d="M102.2,64.2c-6.8,27.8-34.9,44.5-62.5,37.6C11.9,94.9-4.8,66.9,2.1,39.2C8.9,11.4,37-5.3,64.6,1.6
	C92.4,8.3,109.2,36.5,102.2,64.2L102.2,64.2L102.2,64.2L102.2,64.2z"/>
<g id="Layer_2_1_">
	<g id="_">
		<g id="white_outline">
			<polygon class="st1" points="49.4,64.2 58.8,75.3 74.6,62 			"/>
			<polygon class="st1" points="56,39.8 46.7,28.6 30.8,42 			"/>
			<polygon class="st1" points="56,39.8 49.4,64.2 30.8,42 			"/>
			<polygon class="st1" points="49.4,64.2 74.6,62 56,39.8 			"/>
			<polygon class="st2" points="56,39.8 46.7,28.6 62.5,15.3 			"/>
			<polygon class="st2" points="49.4,64.2 58.8,75.3 42.9,88.6 			"/>
		</g>
	</g>
</g>
</svg>
