<?xml version="1.0" encoding="utf-8"?>
<!-- Generator: Adobe Illustrator 21.1.0, SVG Export Plug-In . SVG Version: 6.00 Build 0)  -->
<svg version="1.1" id="Layer_1" xmlns="http://www.w3.org/2000/svg" xmlns:xlink="http://www.w3.org/1999/xlink" x="0px" y="0px"
	 viewBox="0 0 103.8 103.4" style="enable-background:new 0 0 103.8 103.4;" xml:space="preserve">
<style type="text/css">
	.st0{fill:#FFFFFF;}
	.st1{fill:#002670;}
</style>
<g>
	<circle id="path-1_2_" class="st0" cx="52.5" cy="51.8" r="50.3"/>
</g>
<g id="master">
	<path id="bg" class="st1" d="M102.2,64.2c-6.8,27.8-34.9,44.5-62.5,37.6C11.9,94.9-4.8,66.9,2.1,39.2C8.9,11.4,37-5.3,64.6,1.6
		C92.4,8.3,109.2,36.5,102.2,64.2L102.2,64.2L102.2,64.2L102.2,64.2z"/>
</g>
<path id="Rectangle-51" class="st0" d="M76.4,15.3L52.1,39.8l20.6,12.9l0,0c0.4,0.3,0.6,0.9,0.3,1.3c-0.1,0.1-0.2,0.2-0.3,0.3
	L26.1,86.1l28.7-27.8l-20.6-13l0,0c-0.4-0.3-0.6-0.9-0.3-1.3c0.1-0.1,0.2-0.2,0.3-0.3L76.4,15.3z"/>
</svg>
