<?xml version="1.0" encoding="utf-8"?>
<!-- Generator: Adobe Illustrator 22.0.1, SVG Export Plug-In . SVG Version: 6.00 Build 0)  -->
<svg version="1.1" id="Layer_1" xmlns="http://www.w3.org/2000/svg" xmlns:xlink="http://www.w3.org/1999/xlink" x="0px" y="0px"
	 viewBox="0 0 103.8 103.4" style="enable-background:new 0 0 103.8 103.4;" xml:space="preserve">
<style type="text/css">
	.st0{fill:#333333;}
	.st1{fill:#FFFFFF;}
</style>
<path id="bg" class="st0" d="M102.2,64.2c-6.8,27.8-34.9,44.5-62.5,37.6C11.9,94.9-4.8,66.9,2.1,39.2C8.9,11.4,37-5.3,64.6,1.6
	C92.4,8.3,109.2,36.5,102.2,64.2L102.2,64.2L102.2,64.2L102.2,64.2z"/>
<path class="st1" d="M24.5,42c8.3-6.1,16.7-11.8,26-12c6.7,0,13.4,3,18.7,7c1.9,1.5,3.8,3.6,5.6,5.7c-3.3-2.1-6.7-4.3-10.2-5.9
	c-5.6-2.6-12.2-3.2-18.2-1.9c-6.1,1.2-12,4.8-17.2,8.3c-5.9,4-12,7.9-19.1,10.2c-1.6,0.5-3,0.9-4.4,1.2C12.1,50.7,18.5,46.4,24.5,42
	z M99,48.6c-1.4,0.4-2.9,0.7-4.4,1.2C87.5,52.1,81.5,56,75.5,60c-5.2,3.5-11.1,7.1-17.2,8.3c-6,1.2-12.6,0.6-18.2-1.9
	c-3.5-1.6-6.8-3.7-10.2-5.9c1.9,2.1,3.7,4.2,5.6,5.7c5.3,4.1,12,7.1,18.7,7c9.2-0.1,17.7-5.9,25.9-12C86.3,56.8,92.7,52.5,99,48.6z
	 M46.4,53.7l-3.1-5.3l3.1-5.3h10.3l-2-3.5H44.5l-5.1,8.9l5.1,8.9h10.2l2.1-3.6H46.4z M47.8,60.6l2.1,3.6h10.2l5.1-8.9l-5.1-8.9H49.9
	l-2,3.5h10.3l3.1,5.3l-3.1,5.3H47.8z"/>
</svg>
