<?xml version="1.0" encoding="utf-8"?>
<!-- Generator: Adobe Illustrator 22.1.0, SVG Export Plug-In . SVG Version: 6.00 Build 0)  -->
<svg version="1.1" id="Layer_1" xmlns="http://www.w3.org/2000/svg" xmlns:xlink="http://www.w3.org/1999/xlink" x="0px" y="0px"
	 viewBox="0 0 103.8 103.4" style="enable-background:new 0 0 103.8 103.4;" xml:space="preserve">
<style type="text/css">
	.st0{fill:#008DE4;}
	.st1{fill:#FFFFFF;}
</style>
<g id="master">
	<path id="bg" class="st0" d="M102.2,64.2c-6.8,27.8-34.9,44.5-62.5,37.6C11.9,94.9-4.8,66.9,2.1,39.2C8.9,11.4,37-5.3,64.6,1.6
		C92.4,8.3,109.2,36.5,102.2,64.2L102.2,64.2L102.2,64.2L102.2,64.2z"/>
</g>
<path class="st1" d="M62.1,26.2H39l-1.9,10.7l20.8,0c10.3,0,13.3,3.7,13.2,9.9c0,3.2-1.4,8.5-2,10.3c-1.6,4.6-4.8,9.9-17,9.9
	l-20.3,0L30,77.6h23c8.1,0,11.6-0.9,15.2-2.6c8.1-3.7,12.9-11.8,14.9-22.2C86,37.2,82.4,26.2,62.1,26.2z"/>
<path class="st1" d="M29.1,46.5c-6,0-6.9,3.9-7.5,6.3c-0.7,3.1-1,4.4-1,4.4h23.6c6,0,6.9-3.9,7.5-6.3c0.7-3.1,1-4.4,1-4.4H29.1z"/>
</svg>
