<?xml version="1.0" encoding="utf-8"?>
<!-- Generator: Adobe Illustrator 22.0.1, SVG Export Plug-In . SVG Version: 6.00 Build 0)  -->
<svg version="1.1" id="Layer_1" xmlns="http://www.w3.org/2000/svg" xmlns:xlink="http://www.w3.org/1999/xlink" x="0px" y="0px"
	 viewBox="0 0 103.8 103.4" style="enable-background:new 0 0 103.8 103.4;" xml:space="preserve">
<style type="text/css">
	.st0{fill:#FFCC00;}
	.st1{fill:#FFFFFF;}
</style>
<g id="master">
	<path id="bg" class="st0" d="M102.2,64.2c-6.8,27.8-34.9,44.5-62.5,37.6C11.9,94.9-4.8,66.9,2.1,39.2C8.9,11.4,37-5.3,64.6,1.6
		C92.4,8.3,109.2,36.5,102.2,64.2L102.2,64.2L102.2,64.2L102.2,64.2z"/>
</g>
<path class="st1" d="M70.3,33c-10.3-8.5-25.6-6.9-34,3.4V12.4c-1.9,0.9-3.7,1.9-5.5,3.1v36.2c0,7.2,3.2,14.1,8.9,18.7
	c10.3,8.5,25.5,7,34-3.4C82.1,56.7,80.6,41.5,70.3,33z M55,70.4c-10.3,0-18.7-8.4-18.7-18.7C36.3,41.4,44.6,33,55,33
	s18.7,8.4,18.7,18.7S65.3,70.4,55,70.4z"/>
<path class="st1" d="M40.5,23.8v-6C54.3,11.9,70.4,15,81,25.6c1.1,1.1,1.1,2.8,0,3.8c-1.1,1-2.8,1-3.8,0
	C67.5,19.8,52.6,17.5,40.5,23.8z"/>
<path class="st1" d="M81.1,77.8c-14.3,14.4-37.7,14.5-52.1,0.1C15.2,64.3,14.4,42.3,27,27.7v9.7c-8,15.4-1.9,34.4,13.6,42.3
	c12.2,6.2,27,3.9,36.6-5.8c1.1-1.1,2.8-1.1,3.8,0S82.1,76.7,81.1,77.8z"/>
</svg>
