<?xml version="1.0" encoding="utf-8"?>
<!-- Generator: Adobe Illustrator 22.0.1, SVG Export Plug-In . SVG Version: 6.00 Build 0)  -->
<svg version="1.1" id="Layer_1" xmlns="http://www.w3.org/2000/svg" xmlns:xlink="http://www.w3.org/1999/xlink" x="0px" y="0px"
	 viewBox="0 0 103.8 103.4" style="enable-background:new 0 0 103.8 103.4;" xml:space="preserve">
<style type="text/css">
	.st0{fill:#3366FF;}
	.st1{fill:#FFFFFF;}
</style>
<g id="master">
	<path id="bg" class="st0" d="M102.2,64.2c-6.8,27.8-34.9,44.5-62.5,37.6C11.9,94.9-4.8,66.9,2.1,39.2C8.9,11.4,37-5.3,64.6,1.6
		C92.4,8.3,109.2,36.5,102.2,64.2L102.2,64.2L102.2,64.2L102.2,64.2z"/>
</g>
<path class="st1" d="M91.4,36.3c-0.2-0.6-0.6-1.1-1.2-1.4c-0.3-0.2-0.7-0.2-1-0.2c-0.9,0-1.8,0.5-2.2,1.4c-0.6,1.3-1.3,2.6-2.1,3.9
	C80,26.8,67.4,17.4,52.5,17.4c-19,0-34.5,15.5-34.5,34.5c0,2,0.2,4,0.5,6c-1.8,2.4-3.4,5-4.8,7.9c-0.3,0.6-0.3,1.2-0.1,1.8
	c0.2,0.6,0.6,1.1,1.2,1.4c0.3,0.2,0.7,0.2,1,0.2c0.9,0,1.8-0.5,2.2-1.4c0.6-1.3,1.3-2.6,2.1-3.9C25,77,37.7,86.4,52.5,86.4
	c19,0,34.5-15.5,34.5-34.5c0-2-0.2-4-0.5-6c1.8-2.4,3.4-5,4.8-7.9C91.6,37.5,91.6,36.9,91.4,36.3z M82.3,51.9
	c0,16.4-13.3,29.8-29.7,29.8c-13.9,0-25.7-9.6-28.9-22.6c5.5-6.4,13.1-11,22.7-13.7c5.8-1.6,11.2-2.1,14.8-2.3L54,50.3l3.4,3.4
	l12.9-12.9L55.6,26l-3.4,3.4l9,9c-3.9,0.1-9.7,0.7-16,2.4c-6.5,1.8-12.3,4.5-17.2,8c-1.9,1.3-3.6,2.8-5.2,4.3c0-0.4,0-0.8,0-1.1
	c0-16.4,13.3-29.7,29.8-29.7c13.9,0,25.7,9.6,28.9,22.6c-5.5,6.4-13.1,11-22.7,13.7c-5.8,1.6-11.2,2.1-14.8,2.3l7.1-7.1l-3.4-3.4
	L34.8,63.1l14.7,14.7l3.4-3.4l-9-9c3.9-0.1,9.7-0.7,16-2.4c6.5-1.8,12.3-4.5,17.2-8c1.9-1.3,3.6-2.8,5.2-4.3
	C82.3,51.2,82.3,51.5,82.3,51.9z"/>
</svg>
