<?xml version="1.0" encoding="utf-8"?>
<!-- Generator: Adobe Illustrator 21.1.0, SVG Export Plug-In . SVG Version: 6.00 Build 0)  -->
<svg version="1.1" id="Layer_1" xmlns="http://www.w3.org/2000/svg" xmlns:xlink="http://www.w3.org/1999/xlink" x="0px" y="0px"
	 viewBox="0 0 103.8 103.4" style="enable-background:new 0 0 103.8 103.4;" xml:space="preserve">
<style type="text/css">
	.st0{fill:#4FB3DF;}
	.st1{fill:#FFFFFF;}
</style>
<g id="master">
	<path id="bg" class="st0" d="M102.2,64.2c-6.8,27.8-34.9,44.5-62.5,37.6C11.9,94.9-4.8,66.9,2.1,39.2C8.9,11.4,37-5.3,64.6,1.6
		C92.4,8.3,109.2,36.5,102.2,64.2L102.2,64.2L102.2,64.2L102.2,64.2z"/>
</g>
<g id="Layer_2">
	<ellipse transform="matrix(0.6018 -0.7986 0.7986 0.6018 -24.0369 57.3402)" class="st1" cx="45.5" cy="52.8" rx="2.6" ry="2.6"/>
	<ellipse transform="matrix(0.6018 -0.7986 0.7986 0.6018 -25.3766 51.6936)" class="st1" cx="39.2" cy="51.3" rx="2.3" ry="2.3"/>
	<ellipse transform="matrix(0.6018 -0.7986 0.7986 0.6018 -26.2848 46.8397)" class="st1" cx="33.8" cy="49.8" rx="2" ry="2"/>
	<ellipse transform="matrix(0.6018 -0.7986 0.7986 0.6018 -26.3244 42.3438)" class="st1" cx="29.3" cy="47.6" rx="1.6" ry="1.6"/>
	<ellipse transform="matrix(0.6018 -0.7986 0.7986 0.6018 -26.09 38.3424)" class="st1" cx="25.4" cy="45.3" rx="1.5" ry="1.5"/>
	<ellipse transform="matrix(0.6018 -0.7986 0.7986 0.6018 -25.4877 34.4656)" class="st1" cx="21.8" cy="42.8" rx="1.3" ry="1.3"/>
	<ellipse transform="matrix(0.6018 -0.7986 0.7986 0.6018 -24.4216 31.2063)" class="st1" cx="19.1" cy="40.1" rx="1.1" ry="1.1"/>
	<ellipse transform="matrix(0.8192 -0.5736 0.5736 0.8192 -25.2433 39.1628)" class="st1" cx="49.5" cy="59.6" rx="2.6" ry="2.6"/>
	<ellipse transform="matrix(0.8192 -0.5736 0.5736 0.8192 -29.03 38.2948)" class="st1" cx="46.2" cy="65.2" rx="2.3" ry="2.3"/>
	<ellipse transform="matrix(0.8192 -0.5736 0.5736 0.8192 -32.2611 37.2904)" class="st1" cx="43" cy="69.8" rx="2" ry="2"/>
	<ellipse transform="matrix(0.8192 -0.5736 0.5736 0.8192 -34.9751 35.9324)" class="st1" cx="39.5" cy="73.4" rx="1.6" ry="1.6"/>
	<ellipse transform="matrix(0.8192 -0.5736 0.5736 0.8192 -37.2675 34.5895)" class="st1" cx="36.2" cy="76.4" rx="1.5" ry="1.5"/>
	<ellipse transform="matrix(0.8192 -0.5736 0.5736 0.8192 -39.3973 33.0231)" class="st1" cx="32.7" cy="79" rx="1.3" ry="1.3"/>
	<ellipse transform="matrix(0.8192 -0.5736 0.5736 0.8192 -41.0446 31.4157)" class="st1" cx="29.3" cy="80.8" rx="1.1" ry="1.1"/>
	<ellipse transform="matrix(0.9563 -0.2924 0.2924 0.9563 -14.3636 19.1009)" class="st1" cx="56.7" cy="57.6" rx="2.6" ry="2.6"/>
	<ellipse transform="matrix(0.9563 -0.2924 0.2924 0.9563 -15.5759 20.5598)" class="st1" cx="61" cy="62.4" rx="2.3" ry="2.3"/>
	<ellipse transform="matrix(0.9563 -0.2924 0.2924 0.9563 -16.7431 21.7558)" class="st1" cx="64.4" cy="66.9" rx="2" ry="2"/>
	<ellipse transform="matrix(0.9563 -0.2924 0.2924 0.9563 -17.9363 22.6212)" class="st1" cx="66.7" cy="71.3" rx="1.6" ry="1.6"/>
	<ellipse transform="matrix(0.9563 -0.2924 0.2924 0.9563 -19.0533 23.3265)" class="st1" cx="68.5" cy="75.4" rx="1.5" ry="1.5"/>
	<ellipse transform="matrix(0.9563 -0.2924 0.2924 0.9563 -20.2115 23.9485)" class="st1" cx="70" cy="79.6" rx="1.3" ry="1.3"/>
	<ellipse transform="matrix(0.9563 -0.2924 0.2924 0.9563 -21.2712 24.2822)" class="st1" cx="70.6" cy="83.3" rx="1.1" ry="1.1"/>
</g>
<g id="Layer_2_copy">
	
		<ellipse transform="matrix(3.764127e-02 -0.9993 0.9993 3.764127e-02 5.9013 104.9915)" class="st1" cx="57.5" cy="49.4" rx="2.6" ry="2.6"/>
	
		<ellipse transform="matrix(3.764127e-02 -0.9993 0.9993 3.764127e-02 14.1108 108.586)" class="st1" cx="63.4" cy="47" rx="2.3" ry="2.3"/>
	
		<ellipse transform="matrix(3.764127e-02 -0.9993 0.9993 3.764127e-02 21.0024 112.2507)" class="st1" cx="68.8" cy="45.2" rx="2" ry="2"/>
	
		<ellipse transform="matrix(3.764127e-02 -0.9993 0.9993 3.764127e-02 26.57 116.4948)" class="st1" cx="73.8" cy="44.5" rx="1.6" ry="1.6"/>
	
		<ellipse transform="matrix(3.764127e-02 -0.9993 0.9993 3.764127e-02 31.1886 120.5235)" class="st1" cx="78.2" cy="44.1" rx="1.5" ry="1.5"/>
	
		<ellipse transform="matrix(3.764127e-02 -0.9993 0.9993 3.764127e-02 35.3427 124.9889)" class="st1" cx="82.6" cy="44.1" rx="1.3" ry="1.3"/>
	
		<ellipse transform="matrix(3.764127e-02 -0.9993 0.9993 3.764127e-02 38.3857 129.3398)" class="st1" cx="86.3" cy="44.7" rx="1.1" ry="1.1"/>
	<ellipse transform="matrix(0.3446 -0.9388 0.9388 0.3446 -10.7222 77.9783)" class="st1" cx="50.5" cy="46.7" rx="2.6" ry="2.6"/>
	<ellipse transform="matrix(0.3446 -0.9388 0.9388 0.3446 -5.0571 73.3019)" class="st1" cx="50" cy="40.3" rx="2.3" ry="2.3"/>
	<ellipse transform="matrix(0.3446 -0.9388 0.9388 0.3446 0.2467 69.5932)" class="st1" cx="50" cy="34.6" rx="2" ry="2"/>
	<ellipse transform="matrix(0.3446 -0.9388 0.9388 0.3446 5.4108 67.1612)" class="st1" cx="50.8" cy="29.7" rx="1.6" ry="1.6"/>
	<ellipse transform="matrix(0.3446 -0.9388 0.9388 0.3446 10.1698 65.2831)" class="st1" cx="51.8" cy="25.4" rx="1.5" ry="1.5"/>
	<ellipse transform="matrix(0.3446 -0.9388 0.9388 0.3446 15.0251 63.752)" class="st1" cx="53.2" cy="21.1" rx="1.3" ry="1.3"/>
	<ellipse transform="matrix(0.3446 -0.9388 0.9388 0.3446 19.2977 63.2467)" class="st1" cx="54.9" cy="17.8" rx="1.1" ry="1.1"/>
</g>
</svg>
