<?xml version="1.0" encoding="utf-8"?>
<!-- Generator: Adobe Illustrator 21.1.0, SVG Export Plug-In . SVG Version: 6.00 Build 0)  -->
<svg version="1.1" id="Layer_1" xmlns="http://www.w3.org/2000/svg" xmlns:xlink="http://www.w3.org/1999/xlink" x="0px" y="0px"
	 viewBox="0 0 103.8 103.4" style="enable-background:new 0 0 103.8 103.4;" xml:space="preserve">
<style type="text/css">
	.st0{fill:#F7931A;}
	.st1{fill:#FFFFFF;}
</style>
<g id="master">
	<path id="bg" class="st0" d="M102.2,64.2c-6.8,27.8-34.9,44.5-62.5,37.6C11.9,94.9-4.8,66.9,2.1,39.2C8.9,11.4,37-5.3,64.6,1.6
		C92.4,8.3,109.2,36.5,102.2,64.2L102.2,64.2L102.2,64.2L102.2,64.2z"/>
</g>
<path id="Shape_1_" class="st1" d="M75.5,46.2c1-6.9-4.2-10.5-11.3-13.1l2.3-9.4l-5.7-1.3l-2.3,9.1c-1.4-0.3-3.1-0.6-4.5-1.1
	l2.3-9.2l-5.7-1.4l-2.3,9.4c-1.3-0.3-2.4-0.5-3.6-0.8l0,0l-7.8-1.9l-1.4,6.1c0,0,4.2,1,4.1,1c2.3,0.6,2.7,2.1,2.6,3.2l-2.6,10.6
	c0.1,0,0.3,0.1,0.6,0.1c-0.1,0-0.3-0.1-0.6-0.1l-3.8,14.8c-0.3,0.6-1,1.8-2.6,1.3c0,0.1-4.2-1-4.2-1L26.2,69l7.4,1.8
	c1.4,0.3,2.7,0.6,4.1,1l-2.4,9.4l5.7,1.4l2.3-9.4c1.6,0.5,3.1,0.8,4.5,1.1l-2.3,9.2l5.7,1.4l2.4-9.4c9.7,1.8,17,1.1,20.1-7.6
	c2.4-7.1-0.1-11.2-5.2-13.7C71.9,53.8,74.7,51.3,75.5,46.2L75.5,46.2L75.5,46.2z M62.5,64.5c-1.8,7.1-13.6,3.2-17.5,2.3l3.1-12.4
	C52,55.3,64.3,57,62.5,64.5L62.5,64.5L62.5,64.5z M64.3,46.2c-1.6,6.5-11.5,3.2-14.7,2.4l2.7-11.3C55.6,38,65.9,39.4,64.3,46.2
	L64.3,46.2z"/>
</svg>
