<?xml version="1.0" encoding="utf-8"?>
<!-- Generator: Adobe Illustrator 21.1.0, SVG Export Plug-In . SVG Version: 6.00 Build 0)  -->
<svg version="1.1" id="Layer_1" xmlns="http://www.w3.org/2000/svg" xmlns:xlink="http://www.w3.org/1999/xlink" x="0px" y="0px"
	 viewBox="0 0 103.8 103.4" style="enable-background:new 0 0 103.8 103.4;" xml:space="preserve">
<style type="text/css">
	.st0{fill:#0299E5;}
	.st1{fill:#FFFFFF;}
</style>
<g id="master">
	<path id="bg" class="st0" d="M102.2,64.2c-6.8,27.8-34.9,44.5-62.5,37.6C11.9,94.9-4.8,66.9,2.1,39.2C8.9,11.4,37-5.3,64.6,1.6
		C92.4,8.3,109.2,36.5,102.2,64.2L102.2,64.2L102.2,64.2L102.2,64.2z"/>
	<path class="st1" d="M44.3,61.6c-2.5,2.7-6.1,4.4-10,4.4c-7.6,0-13.7-6.1-13.7-13.7s6.1-13.7,13.7-13.7c3.9,0,7.5,1.7,10,4.3
		l3.6-3.6c-3.4-3.6-8.2-5.8-13.5-5.8c-10.4,0-18.8,8.4-18.8,18.8s8.4,18.8,18.8,18.8c5.4,0,10.3-2.3,13.7-5.9L44.3,61.6z"/>
	<path class="st1" d="M69.6,33.5c-5.2,0-9.8,2.1-13.2,5.5v0l-13,13.2l13,13.2v0c3.4,3.4,8.1,5.5,13.2,5.5c10.3,0,18.7-8.4,18.7-18.7
		C88.3,41.9,80,33.5,69.6,33.5z M69.7,66.1c-3.9,0-7.4-1.6-9.9-4.1v0l-9.7-9.9l9.7-9.9v0c2.5-2.5,6-4.1,9.9-4.1c7.7,0,14,6.3,14,14
		C83.7,59.9,77.4,66.1,69.7,66.1z"/>
</g>
</svg>
