<?xml version="1.0" encoding="utf-8"?>
<!-- Generator: Adobe Illustrator 21.1.0, SVG Export Plug-In . SVG Version: 6.00 Build 0)  -->
<svg version="1.1" id="Layer_1" xmlns="http://www.w3.org/2000/svg" xmlns:xlink="http://www.w3.org/1999/xlink" x="0px" y="0px"
	 viewBox="0 0 103.8 103.4" style="enable-background:new 0 0 103.8 103.4;" xml:space="preserve">
<style type="text/css">
	.st0{fill:#FCBE5B;}
	.st1{fill:#FFFFFF;}
</style>
<g id="master">
	<path id="bg" class="st0" d="M102.2,64.2c-6.8,27.8-34.9,44.5-62.5,37.6C11.9,94.9-4.8,66.9,2.1,39.2C8.9,11.4,37-5.3,64.6,1.6
		C92.4,8.3,109.2,36.5,102.2,64.2L102.2,64.2L102.2,64.2L102.2,64.2z"/>
</g>
<g id="logo">
	<path class="st1" d="M64.5,52.5c0-2.6-0.5-4.6-2.5-5.2c0,1.3-0.6,2-0.5,3.4C62.3,51.6,63.1,52.4,64.5,52.5z"/>
	<path class="st1" d="M60.9,34.8c-2.6-8.6-5.2-17.3-8-25.8c-3.1,10.2-6.2,20.4-9.4,30.5C49.3,38,55.1,36.4,60.9,34.8z"/>
	<path class="st1" d="M61.8,70.7c-2.2-2-2.5-4.3-4.9-6.6c-3-2.9-8.3-3.7-6.9-10.1c-4.4-1-11.8,3.4-13.7,7.9
		c-3.5,9.8-6.9,19.6-10.4,29.4C34.9,84.9,44,78.1,53,71.5c8.7,6.3,17.5,13.1,26.2,19.4c0.2,0.2,0.5,0.4,0.8,0.4
		c-2.3-6.8-4.7-13.8-7-20.7C69.5,71,65.6,70.6,61.8,70.7z"/>
	<path class="st1" d="M27.1,40.6c-5.9-0.1-11.7-0.2-17.3,0c0.4,0.6,1.1,0.9,1.6,1.3c5.2,3.6,10.5,7.3,15.7,11V40.6z"/>
	<path class="st1" d="M67.4,41l-4.6,2.2c0.6,2.1,3.4,1.9,4.4,3.4c0.3,4.4,1.1,8.7,2.4,12.9c8.7-6.2,17.8-12.5,26.5-18.6
		c0.3-0.2,0.7-0.5,0.6-0.6C87,40.6,77.2,40.8,67.4,41z"/>
</g>
</svg>
