<?xml version="1.0" encoding="utf-8"?>
<!-- Generator: Adobe Illustrator 22.0.1, SVG Export Plug-In . SVG Version: 6.00 Build 0)  -->
<svg version="1.1" id="Layer_1" xmlns="http://www.w3.org/2000/svg" xmlns:xlink="http://www.w3.org/1999/xlink" x="0px" y="0px"
	 viewBox="0 0 103.8 103.4" style="enable-background:new 0 0 103.8 103.4;" xml:space="preserve">
<style type="text/css">
	.st0{fill:#669966;}
	.st1{fill:#FFFFFF;}
</style>
<g id="master">
	<path id="bg" class="st0" d="M102.2,64.2c-6.8,27.8-34.9,44.5-62.5,37.6C11.9,94.9-4.8,66.9,2.1,39.2C8.9,11.4,37-5.3,64.6,1.6
		C92.4,8.3,109.2,36.5,102.2,64.2L102.2,64.2L102.2,64.2L102.2,64.2z"/>
</g>
<path class="st1" d="M77.1,54.8l1.3-0.7c0.4-0.2,0.6-0.5,0.7-0.9c0.3-0.8-0.3-1.6-1-1.7c-0.5-0.1-0.8,0-1.1,0.2l-1.3,0.8
	c1.6-4.5,5.9-3.4,7.7-2.9C82.9,51.3,81.8,55.6,77.1,54.8 M67.2,61.2c-1.2,0-2.2-1-2.2-2.2c0-1.2,1-2.2,2.2-2.2c1.2,0,2.2,1,2.2,2.2
	C69.4,60.2,68.4,61.2,67.2,61.2 M69.4,77.4c0,1.2-1,2.2-2.2,2.2s-2.2-1-2.2-2.2c0-1.2,1-2.2,2.2-2.2S69.4,76.2,69.4,77.4 M56.1,69.1
	c0.1-0.3,0.1-0.7,0.1-1c0-0.4,0-0.7-0.1-1l7.8-4.5c0.5,0.5,1.1,0.9,1.8,1.1v9.1c-0.6,0.2-1.2,0.5-1.7,1L56.1,69.1z M62.4,78.3
	l-7.9,4.5c-0.5-0.5-1.1-0.8-1.8-1v-9.1c0.7-0.2,1.3-0.6,1.8-1l7.9,4.6c-0.1,0.4-0.1,0.7-0.1,1.1C62.3,77.7,62.3,78,62.4,78.3
	 M51.3,88.7c-1.2,0-2.2-1-2.2-2.2s1-2.2,2.2-2.2c1.2,0,2.2,1,2.2,2.2S52.5,88.7,51.3,88.7 M40.2,78.3c0.1-0.3,0.1-0.6,0.1-0.9
	c0-0.4,0-0.8-0.1-1.1l7.9-4.6c0.5,0.5,1.1,0.8,1.8,1v9.1c-0.7,0.2-1.3,0.6-1.8,1L40.2,78.3z M38.6,73.7c-0.5-0.4-1.1-0.8-1.7-1v-9.1
	c0.7-0.2,1.3-0.6,1.8-1.1l7.8,4.5c-0.1,0.3-0.1,0.7-0.1,1c0,0.4,0,0.7,0.1,1.1L38.6,73.7z M35.4,79.6c-1.2,0-2.2-1-2.2-2.2
	c0-1.2,1-2.2,2.2-2.2c1.2,0,2.2,1,2.2,2.2C37.6,78.6,36.6,79.6,35.4,79.6 M33.2,59c0-1.2,1-2.2,2.2-2.2c1.2,0,2.2,1,2.2,2.2
	c0,1.2-1,2.2-2.2,2.2C34.2,61.2,33.2,60.2,33.2,59 M48,53.3c0.5,0.4,1.1,0.8,1.8,1v9.1c-0.7,0.2-1.3,0.6-1.8,1L40.2,60
	c0.1-0.3,0.1-0.6,0.1-1c0-0.4,0-0.7-0.1-1.1L48,53.3z M51.3,47.5c1.2,0,2.2,1,2.2,2.2c0,1.2-1,2.2-2.2,2.2c-1.2,0-2.2-1-2.2-2.2
	C49.1,48.5,50.1,47.5,51.3,47.5 M43.4,27.5c0.2-4.2,2.9-8.8,7.9-13.4h0c5,4.6,7.7,9.1,7.9,13.4c0,4-2.1,7.8-6.4,11.5V28.4
	c0-0.8-0.7-1.5-1.5-1.5s-1.5,0.7-1.5,1.5V39C45.5,35.3,43.4,31.5,43.4,27.5 M53.5,68.1c0,1.2-1,2.2-2.2,2.2c-1.2,0-2.2-1-2.2-2.2
	c0-1.2,1-2.2,2.2-2.2C52.5,65.9,53.5,66.9,53.5,68.1 M62.4,57.9c-0.1,0.4-0.1,0.7-0.1,1.1c0,0.3,0,0.6,0.1,1l-7.8,4.5
	c-0.5-0.5-1.1-0.8-1.8-1v-9.1c0.7-0.2,1.2-0.6,1.7-1L62.4,57.9z M85.5,47c0,0-5.5-2.1-9.2-0.1c-2.1,1.2-3.7,3.6-4.1,7.3l-1.8,1
	c-0.9-0.8-2-1.2-3.2-1.2c-1.2,0-2.4,0.5-3.2,1.2h0L56,50.8c0.1-0.4,0.1-0.7,0.1-1.1c0-2.2-1.4-4-3.4-4.7v-2.1l0.7-0.5h0
	c6-4.8,8.9-9.7,8.7-14.9c-0.1-5.3-3.4-10.8-9.9-16.5c-0.3-0.2-0.6-0.4-0.9-0.4h-0.3c-0.3,0-0.6,0.2-0.9,0.4
	c-6.6,5.7-9.9,11.2-9.9,16.5c-0.2,5.2,2.7,10.2,8.7,14.9l0.7,0.5V45c-2,0.6-3.4,2.5-3.4,4.7c0,0.4,0,0.7,0.1,1.1l-7.9,4.6
	c-0.9-0.8-2-1.2-3.2-1.2c-2.7,0-4.9,2.2-4.9,4.9c0,2.2,1.4,4,3.4,4.7v9.1c-2,0.6-3.4,2.5-3.4,4.7c0,2.7,2.2,4.9,4.9,4.9
	c1.3,0,2.5-0.5,3.4-1.3l7.8,4.5c-0.1,0.3-0.1,0.7-0.1,1.1c0,2.7,2.2,4.9,4.9,4.9c2.7,0,4.9-2.2,4.9-4.9c0-0.4,0-0.7-0.1-1.1l7.8-4.5
	c0.9,0.8,2.1,1.3,3.4,1.3c2.7,0,4.9-2.2,4.9-4.9c0-2.2-1.4-4-3.4-4.7v-9.1c2-0.6,3.4-2.5,3.4-4.7c0-0.4,0-0.8-0.1-1.1l1.7-1
	c3.6,1.5,6.5,1.3,8.6,0c3.5-2.3,4.4-8.1,4.4-8.1C86.8,48.1,86.2,47.2,85.5,47"/>
</svg>
