<?xml version="1.0" encoding="utf-8"?>
<!-- Generator: Adobe Illustrator 22.1.0, SVG Export Plug-In . SVG Version: 6.00 Build 0)  -->
<svg version="1.1" id="Layer_1" xmlns="http://www.w3.org/2000/svg" xmlns:xlink="http://www.w3.org/1999/xlink" x="0px" y="0px"
	 viewBox="0 0 103.8 103.4" style="enable-background:new 0 0 103.8 103.4;" xml:space="preserve">
<style type="text/css">
	.st0{fill:#3333FF;}
	.st1{fill:#FFFFFF;}
</style>
<g id="master">
	<path id="bg" class="st0" d="M102.2,64.2c-6.8,27.8-34.9,44.5-62.5,37.6C11.9,94.9-4.8,66.9,2.1,39.2C8.9,11.4,37-5.3,64.6,1.6
		C92.4,8.3,109.2,36.5,102.2,64.2L102.2,64.2L102.2,64.2L102.2,64.2z"/>
</g>
<path class="st1" d="M76.3,23L33.7,71c-0.3,0.3,0.1,0.7,0.4,0.4l22.2-17.7c0.1-0.1,0.2-0.1,0.3-0.1l31.2-0.4c0.2,0,0.2,0.2,0.1,0.3
	L61.6,79.9c0,0-0.1,0-0.1,0.1l-34.1,0c-0.1,0-0.1,0-0.2-0.1l-9.4-29.2c0-0.1,0-0.1,0-0.2L44,22.7c0,0,0.1-0.1,0.1-0.1l32,0
	C76.3,22.7,76.4,22.9,76.3,23z"/>
</svg>
