<?xml version="1.0" encoding="utf-8"?>
<!-- Generator: Adobe Illustrator 21.1.0, SVG Export Plug-In . SVG Version: 6.00 Build 0)  -->
<svg version="1.1" id="Layer_1" xmlns="http://www.w3.org/2000/svg" xmlns:xlink="http://www.w3.org/1999/xlink" x="0px" y="0px"
	 viewBox="0 0 103.8 103.4" style="enable-background:new 0 0 103.8 103.4;" xml:space="preserve">
<style type="text/css">
	.st0{fill:#FF7232;}
	.st1{fill:#FFFFFF;}
</style>
<g id="master">
	<path id="bg" class="st0" d="M102.2,64.2c-6.8,27.8-34.9,44.5-62.5,37.6C11.9,94.9-4.8,66.9,2.1,39.2C8.9,11.4,37-5.3,64.6,1.6
		C92.4,8.3,109.2,36.5,102.2,64.2L102.2,64.2L102.2,64.2L102.2,64.2z"/>
</g>
<path class="st1" d="M62.7,14.4c-0.6,0-1.2,0.2-1.6,0.6h0l0,0c-0.1,0.1-0.1,0.1-0.2,0.2l-32.7,33c-0.2,0.1-0.3,0.3-0.5,0.5l0,0l0,0
	c-0.3,0.4-0.5,0.9-0.5,1.5c0,1.4,1.1,2.4,2.4,2.4c0,0,12-0.2,14.6-0.2s2.2,2.4,2.2,2.4s0,13,0,17.1c0,3.6,1.4,4.8,1.4,4.8l13.1,13
	c0,0,0,0,0.1,0.1l0,0h0c0.4,0.4,1,0.7,1.7,0.7c1.4,0,2.4-1.1,2.4-2.4V16.8C65.1,15.5,64,14.4,62.7,14.4z"/>
</svg>
