<?xml version="1.0" encoding="utf-8"?>
<!-- Generator: Adobe Illustrator 21.1.0, SVG Export Plug-In . SVG Version: 6.00 Build 0)  -->
<svg version="1.1" id="Layer_1" xmlns="http://www.w3.org/2000/svg" xmlns:xlink="http://www.w3.org/1999/xlink" x="0px" y="0px"
	 viewBox="0 0 103.8 103.4" style="enable-background:new 0 0 103.8 103.4;" xml:space="preserve">
<style type="text/css">
	.st0{fill:#062B48;}
	.st1{fill:#FFFFFF;}
</style>
<g id="master">
	<path id="bg" class="st0" d="M102.2,64.2c-6.8,27.8-34.9,44.5-62.5,37.6C11.9,94.9-4.8,66.9,2.1,39.2C8.9,11.4,37-5.3,64.6,1.6
		C92.4,8.3,109.2,36.5,102.2,64.2L102.2,64.2L102.2,64.2L102.2,64.2z"/>
	<circle class="st1" cx="51.7" cy="25" r="5"/>
	<rect x="48.9" y="31" class="st1" width="5.6" height="52.2"/>
	<path class="st1" d="M61,61.2h-8.6c-0.5,0-1-0.5-1-1V32c0-0.5,0.5-1,1-1H61c0.5,0,1,0.5,1,1v28.2C62,60.8,61.6,61.2,61,61.2z"/>
	<path class="st1" d="M46.8,31h-2.8h-1.2c-0.6,0-1,0.5-1,1v28.2c0,0.6,0.4,1,1,1h1.2h2.8h1v-1V32v-1H46.8z"/>
</g>
<g id="guides">
</g>
</svg>
