<?xml version="1.0" encoding="utf-8"?>
<!-- Generator: Adobe Illustrator 21.1.0, SVG Export Plug-In . SVG Version: 6.00 Build 0)  -->
<svg version="1.1" id="Layer_1" xmlns="http://www.w3.org/2000/svg" xmlns:xlink="http://www.w3.org/1999/xlink" x="0px" y="0px"
	 viewBox="0 0 103.8 103.4" style="enable-background:new 0 0 103.8 103.4;" xml:space="preserve">
<style type="text/css">
	.st0{fill:#DE7F6B;}
	.st1{fill:#FFFFFF;}
</style>
<g id="master">
	<path id="bg" class="st0" d="M102.2,64.2c-6.8,27.8-34.9,44.5-62.5,37.6C11.9,94.9-4.8,66.9,2.1,39.2C8.9,11.4,37-5.3,64.6,1.6
		C92.4,8.3,109.2,36.5,102.2,64.2L102.2,64.2L102.2,64.2L102.2,64.2z"/>
</g>
<g id="monaco">
	<polygon class="st1" points="39.9,50.9 28.9,44.1 15.9,53.6 33.5,83.5 39.9,83.5 48.5,76.1 48.5,71.6 39.9,64.1 	"/>
	<polygon class="st1" points="52.3,38 75.5,38 70.7,18.5 52.5,18.5 51.8,18.5 33.6,18.5 28.9,38 52.1,38 	"/>
	<polygon class="st1" points="60,50.8 64.5,41 52.3,41 52.1,41 39.9,41 44.3,50.8 43,62.5 52.1,62.5 52.3,62.5 61.3,62.5 	"/>
	<polygon class="st1" points="75.5,44.1 64.5,50.9 64.5,64.1 55.8,71.6 55.8,76.1 64.5,83.5 70.8,83.5 88.4,53.6 	"/>
</g>
</svg>
