<?xml version="1.0" encoding="utf-8"?>
<!-- Generator: Adobe Illustrator 21.1.0, SVG Export Plug-In . SVG Version: 6.00 Build 0)  -->
<svg version="1.1" id="Layer_1" xmlns="http://www.w3.org/2000/svg" xmlns:xlink="http://www.w3.org/1999/xlink" x="0px" y="0px"
	 viewBox="0 0 103.8 103.4" style="enable-background:new 0 0 103.8 103.4;" xml:space="preserve">
<style type="text/css">
	.st0{fill:#00C063;}
	.st1{fill:#FFFFFF;}
</style>
<g id="master">
	<path id="bg" class="st0" d="M102.2,64.2c-6.8,27.8-34.9,44.5-62.5,37.6C11.9,94.9-4.8,66.9,2.1,39.2C8.9,11.4,37-5.3,64.6,1.6
		C92.4,8.3,109.2,36.5,102.2,64.2L102.2,64.2L102.2,64.2L102.2,64.2z"/>
	<path class="st1" d="M73.2,28.3c-7-7-14.6-0.7-14.6-0.7L30.8,55.4V70l-6.6,6.7h3.4c0,0,2.1-2.1,5.3-5.4h14.1
		c0,0,22.7-23.3,25.7-26.3S80.2,35.3,73.2,28.3z M47.4,42v11.3l-6.2,6.2V48.2L47.4,42z M49.3,54.8h10.8c-2.1,2.1-4.2,4.3-6.2,6.3
		H43.1C45.1,59.1,47.3,56.9,49.3,54.8z M51.5,52.6c2.3-2.3,4.5-4.5,6.5-6.5h10.7c-1.6,1.6-3.9,4-6.4,6.5H51.5z M49.6,51.1V39.8
		l6.7-6.8v11.2L49.6,51.1z M33.1,56.3l6-6v11.4l-6,6V56.3z M46.1,69.2l-11-0.1c1.7-1.8,3.7-3.7,5.7-5.8h10.9
		C48.5,66.7,46.1,69.2,46.1,69.2z M71,43.8C71,43.9,70.9,43.9,71,43.8l-10.8,0.1c3.7-3.7,6.2-6.3,6.4-6.4c0.7-0.7,1-1.4,0.3-2.2
		c-0.7-0.7-2,0.3-2,0.3l-6.4,6.5V30.9v-0.1l1-1.1c0,0,6.1-5.1,11.7,0.6C76.9,36,73.4,41.4,71,43.8z"/>
</g>
<g id="guides">
</g>
</svg>
