<?xml version="1.0" encoding="utf-8"?>
<!-- Generator: Adobe Illustrator 22.1.0, SVG Export Plug-In . SVG Version: 6.00 Build 0)  -->
<svg version="1.1" id="Layer_1" xmlns="http://www.w3.org/2000/svg" xmlns:xlink="http://www.w3.org/1999/xlink" x="0px" y="0px"
	 viewBox="0 0 103.8 103.4" style="enable-background:new 0 0 103.8 103.4;" xml:space="preserve">
<style type="text/css">
	.st0{fill:#2683FF;}
	.st1{fill:#FFFFFF;}
</style>
<path id="bg" class="st0" d="M102.2,64.2c-6.8,27.8-34.9,44.5-62.5,37.6C11.9,94.9-4.8,66.9,2.1,39.2C8.9,11.4,37-5.3,64.6,1.6
	C92.4,8.3,109.2,36.5,102.2,64.2L102.2,64.2L102.2,64.2L102.2,64.2z"/>
<g>
	<path class="st1" d="M90.3,33.8c-0.1,2.7-1.2,4.7-3.5,6c-0.4,0.2-0.6,0.5-0.6,1c0,7.3,0,14.6,0,22c0,0.4,0.1,0.7,0.5,0.9
		c2.6,1.5,3.9,4.3,3.5,7.2c-0.4,2.8-2.7,5.1-5.6,5.6c-1.7,0.3-3.3,0.1-4.8-0.8c-0.4-0.3-0.8-0.2-1.2,0c-6.3,3.6-12.6,7.3-18.9,10.9
		c-0.4,0.2-0.6,0.5-0.6,1c0,3.5-2.7,6.6-6.1,6.9c-3.6,0.4-6.8-1.9-7.6-5.4c-0.1-0.5-0.2-1.1-0.2-1.7c0-0.4-0.1-0.6-0.4-0.8
		c-6.4-3.7-12.8-7.4-19.2-11.1c-0.3-0.2-0.6-0.2-1,0c-4.2,2.5-9.5,0.1-10.4-4.6c-0.6-3,0.6-5.7,3.3-7.3c0.4-0.2,0.6-0.5,0.6-1
		c0-7.3,0-14.6,0-22c0-0.4-0.1-0.7-0.5-0.9c-2.7-1.5-3.9-4.2-3.4-7.3c0.5-3,2.8-5.2,5.8-5.6c1.6-0.2,3.2,0.1,4.6,1
		c0.3,0.2,0.6,0.2,0.9,0c6.4-3.7,12.7-7.4,19.1-11c0.4-0.2,0.5-0.5,0.5-0.9c0-4,3.2-7.1,7.2-7c3.1,0.1,6.1,2.7,6.5,5.8
		c0,0.3,0.1,0.5,0.1,0.9c0,0.9,0.3,1.2,1,1.6c6.2,3.5,12.4,7.1,18.5,10.7c0.4,0.2,0.7,0.3,1.2,0c4.2-2.4,9.3-0.1,10.3,4.6
		C90.3,33,90.3,33.4,90.3,33.8z M35.7,59c-0.1,0.1-0.1,0.1-0.2,0.1c-3.5,2-6.9,4-10.4,6c-0.2,0.1-0.6,0.1-0.8,0
		c-0.9-0.6-1.9-0.9-3-1c-3.6-0.1-5.7,2.8-5.9,5.4c-0.1,3,2.1,6,5.7,6c3.2,0,5.6-2.6,5.6-5.8c0-0.6,0.2-0.9,0.7-1.2
		c3.7-2.1,7.4-4.2,11.1-6.4c0.4-0.2,0.6-0.2,1-0.1c2.3,1.1,4.7,1.3,7.1,0.6c0.2-0.1,0.6,0,0.8,0.1c0.7,0.3,1.4,0.7,2.1,1
		c0.4,0.2,0.6,0.4,0.6,0.8c0,5.8,0,11.5,0,17.3c0,0.4-0.1,0.6-0.5,0.8c-1.9,0.9-3.4,3.4-3,5.9c0.5,3,3.6,5.3,6.5,4.7
		c2.6-0.5,4.4-2.3,4.7-5.1c0.3-1.9-0.6-4.3-3.1-5.6c-0.3-0.2-0.5-0.3-0.5-0.8c0-5.6,0-11.2,0-16.8c0-0.5,0.2-0.6,0.7-0.7
		c1.2-0.2,2.3-0.4,3.4-0.7c0.5-0.1,0.9-0.2,1.4,0c2.5,1.1,4.9,0.9,7.2-0.5c0.3-0.2,0.6-0.2,0.9,0c3,1.8,6.1,3.5,9.1,5.3
		c0.5,0.3,0.7,0.6,0.7,1.2c-0.1,3.4,2.8,6.1,6.2,5.7c3.3-0.4,5.7-3.6,4.9-6.8c-0.9-3.9-5.2-5.7-8.6-3.6c-0.4,0.2-0.6,0.3-1,0.1
		c-2.9-1.7-5.8-3.4-8.7-5c-0.4-0.2-0.5-0.5-0.4-0.9c0.9-3,0.3-5.6-1.8-7.9c-0.4-0.4-2.4-3.5-2.6-4.1c-0.2-0.5-0.1-0.7,0.3-0.9
		c4.4-2.5,8.8-5.1,13.2-7.6c0.4-0.2,0.6-0.2,0.9,0c1.2,0.8,2.6,1.1,4.1,0.8c2.8-0.5,4.9-3.1,4.6-6.1c-0.3-3.3-3.5-5.7-6.7-5
		c-2.8,0.6-4.6,2.8-4.6,5.7c0,0.5-0.1,0.8-0.6,1c-4.5,2.6-8.9,5.1-13.4,7.7c-0.4,0.2-0.6,0.2-0.9-0.1c-2.1-2-4.6-3.2-7.5-3.5
		c-1-0.1-1-0.1-1-1.1c0-5.3,0-10.5,0-15.8c0-0.7,0.2-1.2,0.9-1.6c2.5-1.4,3.4-4.5,2.3-7.1c-1.1-2.6-4-4-6.8-3.2
		c-2.5,0.8-3.9,2.5-4.1,5.1c-0.2,2,0.7,4.2,3,5.4c0.3,0.2,0.6,0.4,0.6,0.8c0,5.8,0,11.6,0,17.4c0,0.5-0.2,0.6-0.6,0.8
		c-1.1,0.6-2.3,1.1-3.3,1.8c-1.1,0.9-2.1,1.4-3.7,1.4c-0.1,0-0.2,0-0.4,0c-0.4,0-0.8,0-1.1-0.2c-4.5-2.6-9-5.2-13.5-7.7
		c-0.6-0.4-1-0.8-0.8-1.5c0-0.3,0-0.6-0.1-0.9c-0.4-2.8-3.2-5.1-6.4-4.6c-3.2,0.5-5.3,3.4-4.7,6.6c0.7,4,5.2,6,8.6,3.8
		c0.4-0.2,0.7-0.3,1,0c3.4,2,6.8,3.9,10.2,5.9c0.6,0.3,1.2,0.7,1.7,1C33.3,49.7,32.8,54.1,35.7,59z"/>
	<path class="st1" d="M45.1,45.6c0.9,0.1,1.3-0.2,2-0.8c2.8-2.6,6.2-3.4,9.8-2.2c3.6,1.2,5.8,3.7,6.6,7.5c0.1,0.7,0.4,1.2,1.1,1.5
		c1.9,1.1,3,3.4,2.6,5.3c-0.5,2.5-2.1,4.2-4.4,4.6c-1.2,0.2-2.5,0.1-3.5-0.6c-0.5-0.3-0.9-0.3-1.4-0.1c-3.2,1.4-6.3,1.1-9.3-0.7
		c-0.5-0.3-0.8-0.3-1.3-0.1c-4.2,1.4-8.5-1-9.6-5.2C36.4,50,40.2,45.4,45.1,45.6z"/>
	<path class="st1" d="M81.8,69.8c0-0.9,0.7-1.6,1.6-1.6c0.9,0,1.6,0.7,1.6,1.6c0,0.8-0.8,1.6-1.6,1.6C82.5,71.4,81.8,70.7,81.8,69.8
		z"/>
	<path class="st1" d="M50.7,15.9c0-0.9,0.7-1.6,1.6-1.6c0.9,0,1.6,0.7,1.6,1.6c0,0.9-0.8,1.6-1.6,1.6C51.4,17.5,50.7,16.8,50.7,15.9
		z"/>
	<path class="st1" d="M22.7,69.8c0,0.9-0.7,1.6-1.6,1.6c-0.8,0-1.6-0.8-1.6-1.6c0-0.8,0.8-1.6,1.7-1.6
		C22.1,68.2,22.7,68.9,22.7,69.8z"/>
	<path class="st1" d="M52.3,86.2c0.9,0,1.6,0.7,1.6,1.6c0,0.9-0.7,1.6-1.6,1.6c-0.9,0-1.6-0.7-1.6-1.6
		C50.7,86.8,51.4,86.1,52.3,86.2z"/>
	<path class="st1" d="M21.2,35.5c-0.9,0-1.6-0.7-1.7-1.6c0-0.9,0.7-1.6,1.6-1.6c0.9,0,1.6,0.6,1.6,1.6
		C22.8,34.8,22.1,35.4,21.2,35.5z"/>
	<path class="st1" d="M83.4,35.5c-0.9,0-1.6-0.7-1.6-1.6c0-0.9,0.7-1.6,1.6-1.6c0.9,0,1.6,0.7,1.6,1.6C85,34.8,84.3,35.5,83.4,35.5z
		"/>
</g>
</svg>
