<?xml version="1.0" encoding="utf-8"?>
<!-- Generator: Adobe Illustrator 22.1.0, SVG Export Plug-In . SVG Version: 6.00 Build 0)  -->
<svg version="1.1" id="Layer_1" xmlns="http://www.w3.org/2000/svg" xmlns:xlink="http://www.w3.org/1999/xlink" x="0px" y="0px"
	 viewBox="0 0 103.8 103.4" style="enable-background:new 0 0 103.8 103.4;" xml:space="preserve">
<style type="text/css">
	.st0{fill:#7E61F8;}
	.st1{fill:#FFFFFF;}
</style>
<g id="master">
	<path id="bg" class="st0" d="M102.2,64.2c-6.8,27.8-34.9,44.5-62.5,37.6C11.9,94.9-4.8,66.9,2.1,39.2C8.9,11.4,37-5.3,64.6,1.6
		C92.4,8.3,109.2,36.5,102.2,64.2L102.2,64.2L102.2,64.2L102.2,64.2z"/>
</g>
<path class="st1" d="M68.5,25c-6.6,0-12.7,3.2-16.6,8c-3.9-4.9-9.8-8-16.5-8C23.8,25,14,34.6,14,46.1v25.3c0,2.4,2.3,4.6,4.8,4.6
	c2.5,0,4.5-2.1,4.5-4.6V46.1c0.1-6.6,5.4-11.8,12.1-11.8c6.6,0,11.8,5.2,11.8,11.8c0,0,0,0,0,0v25.3c0,0,0,0.1,0,0.1
	c0.1,2.5,2.1,4.6,4.6,4.6c0,0,0,0,0.1,0c0,0,0,0,0.1,0c2.5,0,4.5-2.1,4.5-4.6V46.1c0.1-6.6,5.4-11.8,12.1-11.8
	c6.6,0,11.8,5.2,11.8,11.8v25.3c0,2.5,2.1,4.6,4.6,4.6c2.5,0,4.6-2.2,4.6-4.6V46.1C89.6,34.4,80.1,25,68.5,25z"/>
</svg>
