<?xml version="1.0" encoding="utf-8"?>
<!-- Generator: Adobe Illustrator 22.0.1, SVG Export Plug-In . SVG Version: 6.00 Build 0)  -->
<svg version="1.1" id="Layer_1" xmlns="http://www.w3.org/2000/svg" xmlns:xlink="http://www.w3.org/1999/xlink" x="0px" y="0px"
	 viewBox="0 0 103.8 103.4" style="enable-background:new 0 0 103.8 103.4;" xml:space="preserve">
<style type="text/css">
	.st0{fill:#2388BF;}
	.st1{fill:#FFFFFF;}
</style>
<g>
	<path class="st0" d="M102.2,51.5c0,27.9-22.6,50.5-50.5,50.5C23.8,102,1.2,79.4,1.2,51.5C1.2,23.6,23.8,1,51.7,1
		C79.6,1,102.2,23.6,102.2,51.5z"/>
	<g>
		<path class="st1" d="M54.2,59.5c1.9-0.9,3.5-2.2,4.9-3.8c1.3-1.6,2.5-3.5,3.1-5.5c0.8-2,1.1-4.2,1.1-6.3c0-2.1-0.4-4.2-1.2-6.1
			c-0.8-1.9-1.9-3.8-3.3-5.4c-1.4-1.6-3.1-2.9-5-3.9c-2-1-4.2-1.5-6.3-1.5H27.3v48.8h12.8V60.9h7.7C50,60.9,52.2,60.5,54.2,59.5z
			 M40.2,49.2V38.8h6.5c0.9,0.1,1.8,0.5,2.4,1.1c0.8,0.8,1.2,2.1,1.2,4.2c0,2.1-0.5,3.3-1.1,4c-0.6,0.7-1.3,1.1-2.2,1.1H40.2z"/>
		<rect x="45.9" y="66.7" class="st1" width="30.1" height="9.3"/>
	</g>
</g>
</svg>
