<?xml version="1.0" encoding="utf-8"?>
<!-- Generator: Adobe Illustrator 21.1.0, SVG Export Plug-In . SVG Version: 6.00 Build 0)  -->
<svg version="1.1" id="Layer_1" xmlns="http://www.w3.org/2000/svg" xmlns:xlink="http://www.w3.org/1999/xlink" x="0px" y="0px"
	 viewBox="0 0 103.8 103.4" style="enable-background:new 0 0 103.8 103.4;" xml:space="preserve">
<style type="text/css">
	.st0{fill:#4FB3DF;}
	.st1{fill:#FFFFFF;}
</style>
<g id="master">
	<path id="bg" class="st0" d="M102.2,64.2c-6.8,27.8-34.9,44.5-62.5,37.6C11.9,94.9-4.8,66.9,2.1,39.2C8.9,11.4,37-5.3,64.6,1.6
		C92.4,8.3,109.2,36.5,102.2,64.2L102.2,64.2L102.2,64.2L102.2,64.2z"/>
</g>
<path id="aragon" class="st1" d="M76,48.6c0.5-6.8-7.5-9.8-7.5-9.8V37C54.5,28.8,44,30.5,44,30.5l2.8,2.9c-8.7,0.2-15.2,4.4-19.1,12
	C23.7,52.9,26.4,60,26.4,60l-0.9,1.6C30.6,72.5,52.2,84,52.2,84c5.1-1.9,28.4-19.3,22.3-19c-6.1,0.3-10-1.9-11.2-4.4
	c-1.2-2.5,0.1-8.3,4.5-8.1c4.4,0.2,2.3,3.8,2.3,3.8S75.5,55.4,76,48.6z M64.7,38.7c0,0-0.4,0.5-1.3,1.1c0,0-2.9-0.3-5.3-2.9
	c0,0,4.2-0.2,9.6,2.4L64.7,38.7z"/>
<g id="aragon_1_">
	<path class="st1" d="M51.9,21.8c3.8,1.4,20.7,7.7,33.1,18C84.1,43.9,81,56,74,65.6c-5.4,7.5-12.9,13.3-22.1,17.2
		c-9.2-3.9-16.7-9.6-22.1-17.2c-6.9-9.6-10.1-21.8-11-25.8C31.2,29.5,48.1,23.2,51.9,21.8 M51.9,19.2c0,0-21.3,7-35.9,19.7
		c0,0,2.9,16,11.8,28.2c8.8,12.3,20.6,17,24.1,18.4c3.6-1.4,15.3-6.1,24.1-18.4c8.8-12.3,11.8-28.2,11.8-28.2
		C73.2,26.2,51.9,19.2,51.9,19.2L51.9,19.2z"/>
</g>
</svg>
