<?xml version="1.0" encoding="utf-8"?>
<!-- Generator: Adobe Illustrator 21.1.0, SVG Export Plug-In . SVG Version: 6.00 Build 0)  -->
<svg version="1.1" id="Layer_1" xmlns="http://www.w3.org/2000/svg" xmlns:xlink="http://www.w3.org/1999/xlink" x="0px" y="0px"
	 viewBox="0 0 103.8 103.4" style="enable-background:new 0 0 103.8 103.4;" xml:space="preserve">
<style type="text/css">
	.st0{fill:#00AFF5;}
	.st1{fill:#FFFFFF;}
</style>
<g id="master">
	<path id="bg" class="st0" d="M102.2,64.2c-6.8,27.8-34.9,44.5-62.5,37.6C11.9,94.9-4.8,66.9,2.1,39.2C8.9,11.4,37-5.3,64.6,1.6
		C92.4,8.3,109.2,36.5,102.2,64.2L102.2,64.2L102.2,64.2L102.2,64.2z"/>
</g>
<path class="st1" d="M90.3,50.4c-0.8,0-1.6,0.5-1.9,1.2c-2.5,0.2-8.6,0-10.7-5.9c-2.8-7.9-2.8-9-6.8-12c0.1-0.3,0.1-0.7,0.1-1
	c0-2.2-1.8-3.9-3.9-3.9c-2.2,0-3.9,1.8-3.9,3.9c0,1.4,0.7,2.6,1.8,3.3l-6.8,18.2c-0.5,0-0.9,0.1-1.3,0.3L31.5,33.6
	c0.3-0.6,0.5-1.3,0.5-2c0-2.3-1.9-4.1-4.1-4.1c-2.3,0-4.1,1.9-4.1,4.1c0,1.8,1.1,3.3,2.7,3.9l-4.3,28.9c-2.8,0.1-5,2.4-5,5.3
	c0,2.9,2.4,5.3,5.3,5.3c2.9,0,5.3-2.4,5.3-5.3c0-2.2-1.4-4.1-3.3-4.9l4.3-29.1c0.4-0.1,0.8-0.2,1.2-0.5l25.3,20.7
	c-0.4,0.6-0.6,1.3-0.6,2.1c0,2.1,1.7,3.8,3.8,3.8c2.1,0,3.8-1.7,3.8-3.8c0-1.4-0.7-2.5-1.8-3.2l6.8-18.2c1,0,1.9-0.4,2.6-1.1
	c0.9,0.7,3.6,3.3,5.5,10.7c2,7.8,11.1,7.5,13,7.3c0.4,0.7,1,1.1,1.8,1.1c1.2,0,2.1-0.9,2.1-2.1S91.5,50.4,90.3,50.4z"/>
<g id="guides">
</g>
</svg>
