<?xml version="1.0" encoding="utf-8"?>
<!-- Generator: Adobe Illustrator 21.1.0, SVG Export Plug-In . SVG Version: 6.00 Build 0)  -->
<svg version="1.1" id="Layer_1" xmlns="http://www.w3.org/2000/svg" xmlns:xlink="http://www.w3.org/1999/xlink" x="0px" y="0px"
	 viewBox="0 0 103.8 103.4" style="enable-background:new 0 0 103.8 103.4;" xml:space="preserve">
<style type="text/css">
	.st0{fill:#20C1D1;}
	.st1{fill:#FFFFFF;}
</style>
<path id="bg" class="st0" d="M102.2,64.2c-6.8,27.8-34.9,44.5-62.5,37.6C11.9,94.9-4.8,66.9,2.1,39.2C8.9,11.4,37-5.3,64.6,1.6
	C92.4,8.3,109.2,36.5,102.2,64.2L102.2,64.2L102.2,64.2L102.2,64.2z"/>
<g id="logo">
	<g>
		<path class="st1" d="M65.4,32.3c0,8.4-6.8,15.2-15.2,15.2S35,40.7,35,32.3s6.8-15.2,15.2-15.2S65.4,23.9,65.4,32.3z M50.2,21.8
			c-5.8,0-10.5,4.7-10.5,10.5s4.7,10.5,10.5,10.5s10.5-4.7,10.5-10.5S56,21.8,50.2,21.8z"/>
		<path class="st1" d="M65.4,74.4c0,8.4-6.8,15.2-15.2,15.2S35,82.8,35,74.4s6.8-15.2,15.2-15.2S65.4,66.1,65.4,74.4z M50.2,63.9
			c-5.8,0-10.5,4.7-10.5,10.5S44.4,85,50.2,85s10.5-4.7,10.5-10.6C60.8,68.6,56,63.9,50.2,63.9z"/>
		<rect x="47.7" y="46.5" class="st1" width="6" height="14.8"/>
		<polygon class="st1" points="59.2,20.8 68.6,11.5 72.1,15 62.4,24.7 		"/>
	</g>
</g>
</svg>
