<?xml version="1.0" encoding="utf-8"?>
<!-- Generator: Adobe Illustrator 21.1.0, SVG Export Plug-In . SVG Version: 6.00 Build 0)  -->
<svg version="1.1" id="Layer_1" xmlns="http://www.w3.org/2000/svg" xmlns:xlink="http://www.w3.org/1999/xlink" x="0px" y="0px"
	 viewBox="0 0 103.8 103.4" style="enable-background:new 0 0 103.8 103.4;" xml:space="preserve">
<style type="text/css">
	.st0{fill:#00DBE2;}
	.st1{fill:#FFFFFF;}
</style>
<g id="master">
	<path id="bg" class="st0" d="M102.2,64.2c-6.8,27.8-34.9,44.5-62.5,37.6C11.9,94.9-4.8,66.9,2.1,39.2C8.9,11.4,37-5.3,64.6,1.6
		C92.4,8.3,109.2,36.5,102.2,64.2L102.2,64.2L102.2,64.2L102.2,64.2z"/>
	<path class="st1" d="M87.2,50.1L68.2,29.7L52,46.8L36.6,29.7c0,0-17.7,19-19,20.4c-1.3,1.4,0,2.9,0,2.9l19,20.7l15.6-16.8
		l16.1,16.8c0,0,17.4-19,18.9-20.6C88.6,51.5,87.2,50.1,87.2,50.1z M36.6,63.5L26.4,52.6c0,0-0.9-1,0-2.1
		c0.9-1.1,10.2-10.8,10.2-10.8l11.2,11.8L36.6,63.5z M77.9,53c-1.2,1.4-9.5,10.3-9.5,10.3L56.8,51.9l11.4-12.2l9.7,10.4
		C77.9,50.1,79.1,51.6,77.9,53z"/>
</g>
<g id="guides">
</g>
</svg>
