<?xml version="1.0" encoding="iso-8859-1"?>
<!-- Generator: Adobe Illustrator 19.0.0, SVG Export Plug-In . SVG Version: 6.00 Build 0)  -->
<svg version="1.1" id="Capa_1" xmlns="http://www.w3.org/2000/svg" xmlns:xlink="http://www.w3.org/1999/xlink" x="0px" y="0px"
	 viewBox="0 0 480.026 480.026" style="enable-background:new 0 0 480.026 480.026;" xml:space="preserve">
<g>
	<g>
		<path d="M376.013,416.026h-80v-58.888c37.152-24.8,68.656-70.76,86.4-117.112h1.6c22.08-0.026,39.974-17.92,40-40v-80
			c-0.026-22.08-17.92-39.974-40-40h-4.24c-45.331-77.187-144.652-103.012-221.84-57.68c-23.83,13.995-43.685,33.851-57.68,57.68
			h-4.24c-22.08,0.026-39.974,17.92-40,40v80c0.026,22.08,17.92,39.974,40,40h1.6c17.752,46.352,49.256,92.288,86.4,117.112v58.888
			h-80c-35.33,0.04-63.96,28.67-64,64h16c0.026-26.499,21.501-47.974,48-48h85.6c30.776,19.483,70.024,19.483,100.8,0h85.6
			c26.499,0.026,47.974,21.501,48,48h16C439.973,444.697,411.343,416.066,376.013,416.026z M240.013,16.026
			c48.334,0.347,93.464,24.231,120.936,64h-95.048l-46.312-23.16c-2.713-1.342-5.949-1.048-8.376,0.76l-29.864,22.4h-62.272
			C146.549,40.257,191.68,16.374,240.013,16.026z M230.125,80.026h-22.112l8.84-6.632L230.125,80.026z M96.013,224.026
			c-13.255,0-24-10.745-24-24v-80c0-13.255,10.745-24,24-24h288c13.255,0,24,10.745,24,24v80c0,13.255-10.745,24-24,24H96.013z
			 M280.013,419.378c-24.638,14.711-55.362,14.711-80,0v-53.216c12.423,6.252,26.095,9.624,40,9.864
			c13.905-0.24,27.577-3.612,40-9.864V419.378z M240.013,360.026c-45.44,0-96.888-49.864-125.248-120h250.496
			C336.901,310.162,285.453,360.026,240.013,360.026z"/>
	</g>
</g>
<g>
	<g>
		<path d="M277.045,288.594c-23.761,9.568-50.303,9.568-74.064,0l-5.936,14.864c27.573,11.084,58.363,11.084,85.936,0
			L277.045,288.594z"/>
	</g>
</g>
<g>
	<g>
		<path d="M182.709,168.311c-1.062-3.07-2.742-5.89-4.936-8.285c8.869-9.683,8.209-24.723-1.475-33.592
			c-2.396-2.194-5.215-3.874-8.285-4.936v-9.472h-16v8c-4.418,0-8,3.582-8,8v64c0,4.418,3.582,8,8,8v8h16v-9.472
			C180.423,194.261,187.002,180.721,182.709,168.311z M160.013,184.026v-16c4.418,0,8,3.582,8,8S164.431,184.026,160.013,184.026z
			 M160.013,152.026v-16c4.418,0,8,3.582,8,8S164.431,152.026,160.013,152.026z"/>
	</g>
</g>
<g>
	<g>
		<path d="M342.709,168.312c-1.062-3.07-2.742-5.89-4.936-8.285c8.869-9.683,8.209-24.723-1.475-33.592
			c-2.396-2.194-5.215-3.874-8.285-4.936v-9.472h-16v8c-4.418,0-8,3.582-8,8v64c0,4.418,3.582,8,8,8v8h16v-9.472
			C340.423,194.261,347.002,180.721,342.709,168.312z M320.013,184.026v-16c4.418,0,8,3.582,8,8S324.431,184.026,320.013,184.026z
			 M320.013,152.026v-16c4.418,0,8,3.582,8,8S324.431,152.026,320.013,152.026z"/>
	</g>
</g>
<g>
	<g>
		<rect x="88.013" y="128.026" width="16" height="64"/>
	</g>
</g>
<g>
	<g>
		<rect x="376.013" y="128.026" width="16" height="64"/>
	</g>
</g>
<g>
	<g>
		<polygon points="32.013,16.026 32.013,0.026 16.013,0.026 16.013,16.026 0.013,16.026 0.013,32.026 16.013,32.026 16.013,48.026 
			32.013,48.026 32.013,32.026 48.013,32.026 48.013,16.026 		"/>
	</g>
</g>
<g>
	<g>
		<rect x="448.013" y="160.026" width="16" height="16"/>
	</g>
</g>
<g>
	<g>
		<rect x="464.013" y="0.026" width="16" height="16"/>
	</g>
</g>
<g>
	<g>
		<rect x="0.013" y="88.026" width="16" height="16"/>
	</g>
</g>
<g>
	<g>
		<rect x="72.013" y="264.026" width="16" height="16"/>
	</g>
</g>
<g>
	<g>
		<polygon points="464.013,256.026 464.013,240.026 448.013,240.026 448.013,256.026 432.013,256.026 432.013,272.026 
			448.013,272.026 448.013,288.026 464.013,288.026 464.013,272.026 480.013,272.026 480.013,256.026 		"/>
	</g>
</g>
<g>
</g>
<g>
</g>
<g>
</g>
<g>
</g>
<g>
</g>
<g>
</g>
<g>
</g>
<g>
</g>
<g>
</g>
<g>
</g>
<g>
</g>
<g>
</g>
<g>
</g>
<g>
</g>
<g>
</g>
</svg>
