<?xml version="1.0" encoding="iso-8859-1"?>
<!-- Generator: Adobe Illustrator 19.0.0, SVG Export Plug-In . SVG Version: 6.00 Build 0)  -->
<svg version="1.1" id="Capa_1" xmlns="http://www.w3.org/2000/svg" xmlns:xlink="http://www.w3.org/1999/xlink" x="0px" y="0px"
	 viewBox="0 0 480 480" style="enable-background:new 0 0 480 480;" xml:space="preserve">
<g>
	<g>
		<path d="M295.536,432c11.046-10.715,11.314-28.355,0.599-39.401c-0.197-0.203-0.396-0.402-0.599-0.599
			c11.046-10.715,11.314-28.355,0.599-39.401c-0.197-0.203-0.396-0.402-0.599-0.599c11.068-10.768,11.311-28.47,0.542-39.538
			c-5.273-5.42-12.517-8.473-20.078-8.462h-66.864l9.424-70.68c3.688-27.863-2.32-56.146-17.016-80.104
			c-0.176-0.276-0.365-0.543-0.568-0.8c-5.521-6.899-15.59-8.017-22.489-2.496c-3.047,2.438-5.098,5.907-5.767,9.752l-3.2,21.304
			c-0.911,6.096-2.345,12.102-4.288,17.952l-29.528,88.664C132.436,297.391,123.266,304,112.936,304H8c-4.418,0-8,3.582-8,8v160
			c0,4.418,3.582,8,8,8h268c15.442,0.021,27.977-12.48,27.998-27.922C304.009,444.517,300.956,437.273,295.536,432z M64,464H16V320
			h48V464z M276,360c6.627,0,12,5.373,12,12c0,6.627-5.373,12-12,12h-52v16h52c6.627,0,12,5.373,12,12c0,6.627-5.373,12-12,12h-52
			v16h52c6.627,0,12,5.373,12,12c0,6.627-5.373,12-12,12H80V320h32.936c17.22,0.017,32.512-11.003,37.944-27.344l29.6-88.68
			c2.239-6.727,3.89-13.636,4.936-20.648l3.088-20.8c12.377,20.63,17.396,44.846,14.24,68.696l-10.632,79.744
			c-0.57,4.381,2.52,8.395,6.901,8.965c0.327,0.043,0.657,0.065,0.987,0.067h76c6.627,0,12,5.373,12,12c0,6.627-5.373,12-12,12h-52
			v16H276z"/>
	</g>
</g>
<g>
	<g>
		<path d="M80,32c-26.51,0-48,21.49-48,48c0.026,26.499,21.501,47.974,48,48c26.51,0,48-21.49,48-48S106.51,32,80,32z M80,112
			c-17.673,0-32-14.327-32-32s14.327-32,32-32s32,14.327,32,32S97.673,112,80,112z"/>
	</g>
</g>
<g>
	<g>
		<path d="M80,0C35.817,0,0,35.817,0,80c0.049,44.163,35.837,79.951,80,80c44.183,0,80-35.817,80-80S124.183,0,80,0z M80,144
			c-35.346,0-64-28.654-64-64c0.04-35.33,28.67-63.96,64-64c35.346,0,64,28.654,64,64C144,115.346,115.346,144,80,144z"/>
	</g>
</g>
<g>
	<g>
		<path d="M360,72c-26.51,0-48,21.49-48,48s21.49,48,48,48c26.499-0.026,47.974-21.501,48-48C408,93.49,386.51,72,360,72z M360,152
			c-17.673,0-32-14.327-32-32s14.327-32,32-32c17.673,0,32,14.327,32,32S377.673,152,360,152z"/>
	</g>
</g>
<g>
	<g>
		<path d="M360,40c-44.183,0-80,35.817-80,80s35.817,80,80,80c44.163-0.049,79.952-35.837,80-80C440,75.817,404.183,40,360,40z
			 M360,184c-35.33-0.04-63.96-28.67-64-64c0-35.346,28.654-64,64-64c35.346,0,64,28.654,64,64C424,155.346,395.346,184,360,184z"/>
	</g>
</g>
<g>
	<g>
		<path d="M400,312c-26.51,0-48,21.49-48,48c0,26.51,21.49,48,48,48c26.51,0,48-21.49,48-48
			C447.974,333.501,426.499,312.026,400,312z M400,392c-17.673,0-32-14.327-32-32c0-17.673,14.327-32,32-32
			c17.673,0,32,14.327,32,32C432,377.673,417.673,392,400,392z"/>
	</g>
</g>
<g>
	<g>
		<path d="M400,280c-44.183,0-80,35.817-80,80c0,44.183,35.817,80,80,80c44.183,0,80-35.817,80-80
			C479.952,315.837,444.163,280.048,400,280z M400,424c-35.346,0-64-28.654-64-64c0-35.346,28.654-64,64-64
			c35.346,0,64,28.654,64,64C463.96,395.33,435.33,423.96,400,424z"/>
	</g>
</g>
<g>
	<g>
		<polygon points="32,184 32,168 16,168 16,184 0,184 0,200 16,200 16,216 32,216 32,200 48,200 48,184 		"/>
	</g>
</g>
<g>
	<g>
		<polygon points="464,224 464,208 448,208 448,224 432,224 432,240 448,240 448,256 464,256 464,240 480,240 480,224 		"/>
	</g>
</g>
<g>
	<g>
		<rect x="336" y="464" width="16" height="16"/>
	</g>
</g>
<g>
	<g>
		<rect x="176" width="16" height="16"/>
	</g>
</g>
<g>
	<g>
		<polygon points="280,16 280,0 264,0 264,16 248,16 248,32 264,32 264,48 280,48 280,32 296,32 296,16 		"/>
	</g>
</g>
<g>
	<g>
		<rect x="240" y="160" width="16" height="16"/>
	</g>
</g>
<g>
	<g>
		<rect x="288" y="216" width="16" height="16"/>
	</g>
</g>
<g>
	<g>
		<polygon points="464,16 464,0 448,0 448,16 432,16 432,32 448,32 448,48 464,48 464,32 480,32 480,16 		"/>
	</g>
</g>
<g>
	<g>
		<rect x="64" y="216" width="16" height="16"/>
	</g>
</g>
<g>
</g>
<g>
</g>
<g>
</g>
<g>
</g>
<g>
</g>
<g>
</g>
<g>
</g>
<g>
</g>
<g>
</g>
<g>
</g>
<g>
</g>
<g>
</g>
<g>
</g>
<g>
</g>
<g>
</g>
</svg>
