<?xml version="1.0" encoding="iso-8859-1"?>
<!-- Generator: Adobe Illustrator 19.0.0, SVG Export Plug-In . SVG Version: 6.00 Build 0)  -->
<svg version="1.1" id="Capa_1" xmlns="http://www.w3.org/2000/svg" xmlns:xlink="http://www.w3.org/1999/xlink" x="0px" y="0px"
	 viewBox="0 0 480 480" style="enable-background:new 0 0 480 480;" xml:space="preserve">
<g>
	<g>
		<path d="M472,0H8C3.582,0,0,3.582,0,8v96c-0.001,2.43,1.103,4.729,3,6.248l4.8,3.824c2.672,2.136,5.416,4.128,8.216,6.016V472
			c0,4.418,3.582,8,8,8H456c4.418,0,8-3.582,8-8V120.088c2.792-1.888,5.544-3.88,8.216-6.016l4.8-3.824
			c1.891-1.522,2.989-3.82,2.984-6.248V8C480,3.582,476.418,0,472,0z M368,16h48v106.896c-15.924,3.098-32.347,2.493-48-1.768V16z
			 M280,16h72v99.312c-9.709-4.394-18.703-10.222-26.68-17.288c-2.913-2.595-7.274-2.71-10.32-0.272l-8.648,6.92
			c-8.002,6.381-16.876,11.583-26.352,15.448V16z M216,16h48v109.264c-15.786,3.704-32.214,3.704-48,0V16z M128,16h72v104.12
			c-9.476-3.865-18.35-9.067-26.352-15.448L165,97.752c-3.046-2.438-7.407-2.323-10.32,0.272
			c-7.977,7.066-16.971,12.894-26.68,17.288V16z M64,16h48v105.128c-15.653,4.261-32.076,4.866-48,1.768V16z M17.776,101.6
			L16,100.16V16h32v102.48C37.07,114.544,26.86,108.841,17.776,101.6z M200,464H64v-96h24v-16H64v-96h88.4
			c-10.085,28.042-11.112,58.543-2.936,87.2l-51.12,51.12c-3.137,3.111-3.158,8.177-0.046,11.314
			c1.508,1.52,3.562,2.372,5.702,2.366h84.416c3.686,3.509,7.552,6.823,11.584,9.928V464z M166.12,343.104
			c-21.553-67.327,15.554-139.378,82.881-160.931s139.378,15.554,160.931,82.881s-15.554,139.378-82.881,160.931
			c-45.746,14.644-95.84,2.445-129.731-31.593l0.032-0.04c-1.503-1.507-3.544-2.354-5.672-2.352h-68.368l40.848-40.8
			C166.278,349.081,167.034,345.957,166.12,343.104z M448,464H216v-35.416c68.81,39.875,156.917,16.418,196.792-52.392
			c39.875-68.81,16.418-156.917-52.392-196.792c-68.81-39.875-156.917-16.418-196.792,52.392c-1.557,2.688-3.028,5.425-4.408,8.208
			H56c-4.418,0-8,3.582-8,8v216H32V129.12c42.026,19.953,91.747,14.219,128.128-14.776l3.528,2.824
			c44.545,35.958,108.143,35.958,152.688,0l3.528-2.824c36.385,28.984,86.101,34.717,128.128,14.776V464z M464,100.16l-1.776,1.408
			c-9.082,7.253-19.292,12.966-30.224,16.912V16h32V100.16z"/>
	</g>
</g>
<g>
	<g>
		<path d="M296,240h-8c-4.418,0-8,3.582-8,8v32c0,4.418,3.582,8,8,8h8c13.255,0,24-10.745,24-24C320,250.745,309.255,240,296,240z
			 M296,272v-16c4.418,0,8,3.582,8,8S300.418,272,296,272z"/>
	</g>
</g>
<g>
	<g>
		<path d="M296,320h-8c-4.418,0-8,3.582-8,8v32c0,4.418,3.582,8,8,8h8c13.255,0,24-10.745,24-24S309.255,320,296,320z M296,352v-16
			c4.418,0,8,3.582,8,8S300.418,352,296,352z"/>
	</g>
</g>
<g>
	<g>
		<path d="M336.4,304c8.712-7.136,15.6-20.272,15.6-44c-0.024-27.15-20.931-49.712-48-51.8V192h-16v16h-16v-16h-16v16h-16
			c-4.418,0-8,3.582-8,8v32c0,4.418,3.582,8,8,8h8v96h-8c-4.418,0-8,3.582-8,8v32c0,4.418,3.582,8,8,8h24v16h16v-16h8v16h16v-16.2
			c27.069-2.088,47.976-24.65,48-51.8C352,324.272,345.112,311.136,336.4,304z M312,312c6.56,0,24,0,24,36
			c-0.022,19.873-16.127,35.978-36,36h-52v-16h8c4.418,0,8-3.582,8-8V248c0-4.418-3.582-8-8-8h-8v-16h52
			c19.873,0.022,35.978,16.127,36,36c0,36-17.44,36-24,36c-4.418,0-8,3.582-8,8S307.582,312,312,312z"/>
	</g>
</g>
<g>
</g>
<g>
</g>
<g>
</g>
<g>
</g>
<g>
</g>
<g>
</g>
<g>
</g>
<g>
</g>
<g>
</g>
<g>
</g>
<g>
</g>
<g>
</g>
<g>
</g>
<g>
</g>
<g>
</g>
</svg>
