<?xml version="1.0" encoding="iso-8859-1"?>
<!-- Generator: Adobe Illustrator 19.0.0, SVG Export Plug-In . SVG Version: 6.00 Build 0)  -->
<svg version="1.1" id="Capa_1" xmlns="http://www.w3.org/2000/svg" xmlns:xlink="http://www.w3.org/1999/xlink" x="0px" y="0px"
	 viewBox="0 0 480.106 480.106" style="enable-background:new 0 0 480.106 480.106;" xml:space="preserve">
<g>
	<g>
		<path d="M360.106,176.056c-26.51,0-48,21.49-48,48c0,26.51,21.49,48,48,48c26.51,0,48-21.49,48-48
			C408.08,197.558,386.605,176.083,360.106,176.056z M360.106,256.056c-17.673,0-32-14.327-32-32s14.327-32,32-32
			c17.673,0,32,14.327,32,32S377.779,256.056,360.106,256.056z"/>
	</g>
</g>
<g>
	<g>
		<path d="M192.106,319.888c-13.255-17.673-38.327-21.255-56-8s-21.255,38.327-8,56c2.274,3.032,4.968,5.726,8,8v56.168
			c0,4.418,3.582,8,8,8h32c4.418,0,8-3.582,8-8v-56.168C201.779,362.633,205.361,337.561,192.106,319.888z M172.106,364.704
			c-2.47,1.426-3.994,4.06-4,6.912v52.44h-16v-52.44c-0.006-2.852-1.53-5.486-4-6.912c-7.422-4.224-12.004-12.108-12-20.648
			c0-13.255,10.745-24,24-24s24,10.745,24,24C184.11,352.596,179.528,360.48,172.106,364.704z"/>
	</g>
</g>
<g>
	<g>
		<path d="M478.735,96.046c-3.38-9.596-12.455-16.009-22.629-15.989c-13.224-0.025-23.964,10.675-23.989,23.899
			c-0.019,10.174,6.393,19.249,15.989,22.629v89.472h-0.408c-3.907-42.234-37.359-75.685-79.592-79.592v-25.88
			c12.497-4.418,19.046-18.131,14.627-30.627s-18.131-19.046-30.627-14.627c-12.497,4.418-19.046,18.131-14.627,30.627
			c2.416,6.835,7.793,12.211,14.627,14.627v25.88c-48.4,4.413-84.059,47.226-79.647,95.626c1.028,11.281,4.225,22.257,9.415,32.326
			c-0.573-0.188-1.167-0.309-1.768-0.36h-24v-32c0-2.704-0.184-5.352-0.408-8h0.408v-192h105.472
			c4.418,12.497,18.131,19.046,30.627,14.627s19.046-18.131,14.627-30.627c-4.418-12.497-18.131-19.046-30.627-14.627
			c-6.835,2.416-12.211,7.793-14.627,14.627H248.106c-4.418,0-8,3.582-8,8v155.048c-16.217-24.476-42.742-40.185-72-42.64V24.056
			c0-4.418-3.582-8-8-8H46.634C42.216,3.559,28.503-2.989,16.007,1.429S-3.039,19.559,1.379,32.056
			C5.797,44.553,19.51,51.102,32.007,46.684c6.835-2.416,12.211-7.793,14.627-14.627h105.472v104.408
			c-14.103,1.167-27.769,5.466-40,12.584v-30.464c12.497-4.418,19.046-18.131,14.627-30.627s-18.131-19.046-30.627-14.627
			C83.609,77.748,77.06,91.46,81.479,103.957c2.416,6.835,7.793,12.211,14.627,14.627v42.12
			c-16.152,14.463-26.923,33.976-30.552,55.352h-18.92c-4.418-12.497-18.131-19.046-30.627-14.627s-19.046,18.131-14.627,30.627
			c4.418,12.497,18.131,19.046,30.627,14.627c6.835-2.416,12.211-7.793,14.627-14.627h17.472v32h-24c-4.418,0-8,3.582-8,8v200
			c0,4.418,3.582,8,8,8h240c4.418,0,8-3.582,8-8V274.76c9.954,14.149,23.871,25.038,40,31.296v166c0,4.418,3.582,8,8,8h104
			c4.418,0,8-3.582,8-8v-32c0-4.418-3.582-8-8-8h-48v-16h24c4.418,0,8-3.582,8-8v-32c0-4.418-3.582-8-8-8h-24v-62
			c31.126-12.05,52.693-40.75,55.608-74h8.392c4.418,0,8-3.582,8-8v-97.472C476.579,122.191,483.129,108.518,478.735,96.046z
			 M384.106,16.056c4.418,0,8,3.582,8,8s-3.582,8-8,8s-8-3.582-8-8S379.688,16.056,384.106,16.056z M24.106,32.056
			c-4.418,0-8-3.582-8-8s3.582-8,8-8s8,3.582,8,8S28.524,32.056,24.106,32.056z M24.106,232.056c-4.418,0-8-3.582-8-8s3.582-8,8-8
			s8,3.582,8,8S28.524,232.056,24.106,232.056z M104.106,88.056c4.418,0,8,3.582,8,8s-3.582,8-8,8s-8-3.582-8-8
			S99.688,88.056,104.106,88.056z M80.106,232.056c0-44.183,35.817-80,80-80s80,35.817,80,80v32h-24v-32c0-30.928-25.072-56-56-56
			c-30.928,0-56,25.072-56,56v32h-24V232.056z M200.106,232.056v32h-80v-32c0-22.091,17.909-40,40-40
			S200.106,209.965,200.106,232.056z M272.106,464.056h-224v-184h224V464.056z M360.106,80.056c4.418,0,8,3.582,8,8s-3.582,8-8,8
			s-8-3.582-8-8S355.688,80.056,360.106,80.056z M428.79,245.669c-7.059,22.445-24.639,40.025-47.084,47.084
			c-3.333,1.048-5.6,4.138-5.6,7.632v75.672c0,4.418,3.582,8,8,8h24v16h-24c-4.418,0-8,3.582-8,8v32c0,4.418,3.582,8,8,8h48v16h-88
			V300.384c0-3.494-2.267-6.584-5.6-7.632c-37.933-11.929-59.013-52.351-47.084-90.284c11.929-37.933,52.351-59.013,90.284-47.084
			C419.639,167.314,440.719,207.736,428.79,245.669z M456.106,112.056c-4.418,0-8-3.582-8-8s3.582-8,8-8s8,3.582,8,8
			S460.524,112.056,456.106,112.056z"/>
	</g>
</g>
<g>
	<g>
		<path d="M304.106,48.056c-2.122,0-4.156,0.844-5.656,2.344l-24,24c-1.5,1.5-2.344,3.534-2.344,5.656v56h16V83.368l19.312-19.312
			h12.688v-16H304.106z"/>
	</g>
</g>
<g>
	<g>
		<rect x="184.106" y="0.056" width="16" height="96"/>
	</g>
</g>
<g>
	<g>
		<path d="M53.106,137.808l-37-29.592v-44.16h-16v48c-0.001,2.43,1.103,4.729,3,6.248l37,29.592v36.16h16v-40
			C56.107,141.626,55.003,139.327,53.106,137.808z"/>
	</g>
</g>
<g>
	<g>
		<path d="M472.106,0.056h-48v16h40v48h16v-56C480.106,3.638,476.524,0.056,472.106,0.056z"/>
	</g>
</g>
<g>
</g>
<g>
</g>
<g>
</g>
<g>
</g>
<g>
</g>
<g>
</g>
<g>
</g>
<g>
</g>
<g>
</g>
<g>
</g>
<g>
</g>
<g>
</g>
<g>
</g>
<g>
</g>
<g>
</g>
</svg>
