<?xml version="1.0" encoding="iso-8859-1"?>
<!-- Generator: Adobe Illustrator 19.0.0, SVG Export Plug-In . SVG Version: 6.00 Build 0)  -->
<svg version="1.1" id="Capa_1" xmlns="http://www.w3.org/2000/svg" xmlns:xlink="http://www.w3.org/1999/xlink" x="0px" y="0px"
	 viewBox="0 0 480 480" style="enable-background:new 0 0 480 480;" xml:space="preserve">
<g>
	<g>
		<path d="M240,128c-61.856,0-112,50.144-112,112c0.066,61.828,50.172,111.934,112,112c61.856,0,112-50.144,112-112
			S301.856,128,240,128z M323.248,192.4c6.983,12.129,11.198,25.652,12.344,39.6h-39.784c-0.356-11.672-1.667-23.294-3.92-34.752
			C303.088,196.024,313.648,194.392,323.248,192.4z M313.216,178.056c-7.896,1.424-16.352,2.616-25.264,3.544
			c-3.153-11.087-7.924-21.649-14.16-31.344C289.079,156.027,302.646,165.594,313.216,178.056z M200.184,232
			c0.363-11.182,1.68-22.313,3.936-33.272C215.696,199.56,227.752,200,240,200s24.304-0.44,35.88-1.272
			c2.256,10.959,3.573,22.09,3.936,33.272H200.184z M279.816,248c-0.364,11.182-1.68,22.313-3.936,33.272
			C264.304,280.44,252.248,280,240,280s-24.304,0.44-35.88,1.272c-2.256-10.959-3.573-22.09-3.936-33.272H279.816z M240,144
			c11.528,0,23.84,14.704,31.712,38.96C261.448,183.624,250.824,184,240,184c-10.824,0-21.448-0.376-31.712-1.04
			C216.16,158.704,228.472,144,240,144z M206.208,150.256c-6.236,9.695-11.007,20.257-14.16,31.344
			c-8.912-0.928-17.368-2.12-25.264-3.544C177.354,165.594,190.921,156.027,206.208,150.256z M156.752,192.4
			c9.6,1.992,20.144,3.624,31.36,4.848c-2.253,11.458-3.564,23.08-3.92,34.752h-39.784
			C145.554,218.052,149.769,204.529,156.752,192.4z M156.752,287.6c-6.983-12.129-11.198-25.652-12.344-39.6h39.784
			c0.356,11.672,1.667,23.294,3.92,34.752C176.912,283.976,166.352,285.608,156.752,287.6z M166.784,301.944
			c7.896-1.424,16.352-2.616,25.264-3.544c3.153,11.087,7.924,21.649,14.16,31.344C190.921,323.973,177.354,314.406,166.784,301.944
			z M240,336c-11.528,0-23.84-14.704-31.712-38.96C218.552,296.376,229.176,296,240,296c10.824,0,21.448,0.376,31.712,1.04
			C263.84,321.296,251.528,336,240,336z M273.792,329.744c6.236-9.695,11.007-20.257,14.16-31.344
			c8.912,0.928,17.368,2.12,25.264,3.544C302.646,314.406,289.079,323.973,273.792,329.744z M323.248,287.6
			c-9.6-1.992-20.144-3.624-31.36-4.848c2.253-11.458,3.564-23.08,3.92-34.752h39.784
			C334.446,261.948,330.231,275.471,323.248,287.6z"/>
	</g>
</g>
<g>
	<g>
		<path d="M96,304H24c-13.255,0-24,10.745-24,24v128c0,13.255,10.745,24,24,24h72c13.255,0,24-10.745,24-24V328
			C120,314.745,109.255,304,96,304z M104,456c0,4.418-3.582,8-8,8H24c-4.418,0-8-3.582-8-8v-8h88V456z M104,432H16v-80h88V432z
			 M104,336H16v-8c0-4.418,3.582-8,8-8h72c4.418,0,8,3.582,8,8V336z"/>
	</g>
</g>
<g>
	<g>
		<path d="M456,0h-72c-13.255,0-24,10.745-24,24v128c0,13.255,10.745,24,24,24h72c13.255,0,24-10.745,24-24V24
			C480,10.745,469.255,0,456,0z M464,152c0,4.418-3.582,8-8,8h-72c-4.418,0-8-3.582-8-8v-8h88V152z M464,128h-88V48h88V128z M464,32
			h-88v-8c0-4.418,3.582-8,8-8h72c4.418,0,8,3.582,8,8V32z"/>
	</g>
</g>
<g>
	<g>
		<path d="M336.84,433.12c-4.584,2.304-9.296,4.464-14,6.4l6.152,14.8c5.056-2.104,10.12-4.424,15.048-6.904L336.84,433.12z"/>
	</g>
</g>
<g>
	<g>
		<path d="M308.432,444.928c-4.872,1.6-9.848,3.08-14.792,4.352l3.96,15.52c5.312-1.352,10.664-2.928,15.896-4.672L308.432,444.928z
			"/>
	</g>
</g>
<g>
	<g>
		<path d="M278.584,452.568c-5.016,0.904-10.152,1.64-15.256,2.184l1.704,15.912c5.48-0.592,11-1.376,16.392-2.352L278.584,452.568z
			"/>
	</g>
</g>
<g>
	<g>
		<path d="M471.848,231.496l-16,0.568c0.101,2.624,0.152,5.269,0.152,7.936c0,2.512-0.04,5.008-0.128,7.504l16,0.552
			C472,245.384,472,242.696,472,240C472,237.152,471.949,234.317,471.848,231.496z"/>
	</g>
</g>
<g>
	<g>
		<path d="M439.688,322.496c-1.944,4.704-4.104,9.432-6.408,14.04l14.312,7.152c2.472-4.944,4.8-10.024,6.88-15.08L439.688,322.496z
			"/>
	</g>
</g>
<g>
	<g>
		<path d="M201.832,452.64l-2.808,15.752c5.416,0.96,10.936,1.744,16.408,2.32l1.68-15.912
			C212.008,454.264,206.872,453.536,201.832,452.64z"/>
	</g>
</g>
<g>
	<g>
		<path d="M449.4,293.2c-1.264,4.976-2.72,10-4.328,14.8l15.2,5.024c1.728-5.224,3.288-10.576,4.64-15.896L449.4,293.2z"/>
	</g>
</g>
<g>
	<g>
		<path d="M454.8,262.888c-0.536,5.112-1.264,10.224-2.152,15.28l15.744,2.792c0.968-5.424,1.752-10.936,2.32-16.392L454.8,262.888z
			"/>
	</g>
</g>
<g>
	<g>
		<path d="M468.312,198.576l-15.744,2.84c0.912,5.072,1.648,10.2,2.184,15.256l15.912-1.688
			C470.088,209.544,469.296,204.024,468.312,198.576z"/>
	</g>
</g>
<g>
	<g>
		<path d="M171.952,445.064l-5.04,15.2c5.208,1.72,10.56,3.28,15.912,4.632l3.928-15.504
			C181.776,448.128,176.792,446.672,171.952,445.064z"/>
	</g>
</g>
<g>
	<g>
		<path d="M363.32,417.36c-4.2,2.928-8.56,5.744-12.952,8.352l8.184,13.752c4.72-2.808,9.4-5.864,13.92-8.976L363.32,417.36z"/>
	</g>
</g>
<g>
	<g>
		<path d="M143.472,433.288l-7.2,14.304c4.936,2.456,10.008,4.776,15.112,6.888l6.112-14.792
			C152.752,437.728,148.032,435.576,143.472,433.288z"/>
	</g>
</g>
<g>
	<g>
		<path d="M247.944,455.848c-5.12,0.184-10.304,0.2-15.44,0l-0.552,16.016C234.624,472,237.304,472,240,472
			c2.856,0,5.688-0.048,8.512-0.152L247.944,455.848z"/>
	</g>
</g>
<g>
	<g>
		<path d="M408.296,375.408c-3.24,4.016-6.632,7.936-10.096,11.656l11.704,10.912c3.728-4,7.376-8.216,10.848-12.528
			L408.296,375.408z"/>
	</g>
</g>
<g>
	<g>
		<path d="M387.296,397.984c-3.736,3.488-7.648,6.888-11.64,10.112l10.048,12.448c4.288-3.464,8.496-7.112,12.504-10.856
			L387.296,397.984z"/>
	</g>
</g>
<g>
	<g>
		<path d="M425.888,350.08c-2.608,4.392-5.416,8.76-8.352,12.984l13.152,9.12c3.144-4.528,6.152-9.216,8.96-13.936L425.888,350.08z"
			/>
	</g>
</g>
<g>
	<g>
		<path d="M36.296,128.872c-2.632,4.808-5.096,9.792-7.424,14.824l14.552,6.648c2.136-4.68,4.464-9.32,6.912-13.792L36.296,128.872z
			"/>
	</g>
</g>
<g>
	<g>
		<path d="M75.904,76c-3.888,3.888-7.688,8-11.288,12.12L76.712,98.6c3.352-3.872,6.888-7.672,10.488-11.288L75.904,76z"/>
	</g>
</g>
<g>
	<g>
		<path d="M22.528,159.008c-1.92,5.184-3.68,10.472-5.216,15.736l15.352,4.496c1.432-4.904,3.064-9.824,4.856-14.632L22.528,159.008
			z"/>
	</g>
</g>
<g>
	<g>
		<path d="M8.568,223.576C8.192,229.032,8,234.56,8,240v0.112L24,240c0-5.072,0.176-10.224,0.528-15.312L8.568,223.576z"/>
	</g>
</g>
<g>
	<g>
		<path d="M305.272,17.312L300.8,32.664c4.904,1.44,9.832,3.072,14.632,4.864l5.6-14.992
			C315.848,20.616,310.552,18.856,305.272,17.312z"/>
	</g>
</g>
<g>
	<g>
		<path d="M54.216,101.008c-3.296,4.416-6.48,8.992-9.416,13.616l13.416,8.656c2.776-4.304,5.736-8.568,8.8-12.672L54.216,101.008z"
			/>
	</g>
</g>
<g>
	<g>
		<path d="M13.224,190.784c-1.16,5.408-2.136,10.888-2.912,16.32l15.848,2.248c0.712-5.048,1.6-10.16,2.704-15.2L13.224,190.784z"/>
	</g>
</g>
<g>
	<g>
		<path d="M100.904,54.304c-4.392,3.296-8.728,6.792-12.888,10.4L98.504,76.8c3.896-3.368,7.896-6.632,12-9.696L100.904,54.304z"/>
	</g>
</g>
<g>
	<g>
		<path d="M223.328,8.592c-5.472,0.392-11.008,0.984-16.472,1.76l2.272,15.84c5.08-0.728,10.24-1.28,15.328-1.64L223.328,8.592z"/>
	</g>
</g>
<g>
	<g>
		<path d="M240,8h-0.128L240,24c5.072,0,10.216,0.176,15.312,0.528l1.104-15.96C250.96,8.192,245.44,8,240,8z"/>
	</g>
</g>
<g>
	<g>
		<path d="M272.896,10.312l-2.248,15.848c5.048,0.712,10.16,1.6,15.2,2.704l3.368-15.64
			C283.808,12.064,278.328,11.08,272.896,10.312z"/>
	</g>
</g>
<g>
	<g>
		<path d="M24.584,255.528l-15.992,1.136c0.384,5.472,0.976,11.008,1.76,16.472l15.832-2.264
			C25.464,265.784,24.912,260.624,24.584,255.528z"/>
	</g>
</g>
<g>
	<g>
		<path d="M190.552,13.28c-5.368,1.168-10.768,2.544-16.048,4.096l4.504,15.352c4.92-1.44,9.944-2.728,14.944-3.816L190.552,13.28z"
			/>
	</g>
</g>
<g>
	<g>
		<path d="M158.792,22.616c-5.152,1.92-10.288,4.056-15.288,6.344l6.664,14.544c4.648-2.128,9.432-4.112,14.224-5.904
			L158.792,22.616z"/>
	</g>
</g>
<g>
	<g>
		<path d="M128.752,36.384c-4.864,2.64-9.648,5.488-14.264,8.464l8.712,13.448c4.296-2.768,8.744-5.416,13.24-7.88L128.752,36.384z"
			/>
	</g>
</g>
<g>
</g>
<g>
</g>
<g>
</g>
<g>
</g>
<g>
</g>
<g>
</g>
<g>
</g>
<g>
</g>
<g>
</g>
<g>
</g>
<g>
</g>
<g>
</g>
<g>
</g>
<g>
</g>
<g>
</g>
</svg>
