<?xml version="1.0" encoding="iso-8859-1"?>
<!-- Generator: Adobe Illustrator 19.0.0, SVG Export Plug-In . SVG Version: 6.00 Build 0)  -->
<svg version="1.1" id="Capa_1" xmlns="http://www.w3.org/2000/svg" xmlns:xlink="http://www.w3.org/1999/xlink" x="0px" y="0px"
	 viewBox="0 0 480 480" style="enable-background:new 0 0 480 480;" xml:space="preserve">
<g>
	<g>
		<path d="M472,0H8C3.582,0,0,3.582,0,8v464c0,4.418,3.582,8,8,8h464c4.418,0,8-3.582,8-8V8C480,3.582,476.418,0,472,0z M16,16
			h38.608C38.769,25.511,25.511,38.769,16,54.608V16z M16,464v-38.608c9.511,15.839,22.769,29.097,38.608,38.608H16z M464,464
			h-38.608c15.839-9.511,29.097-22.769,38.608-38.608V464z M464,368c-0.057,52.996-43.004,95.943-96,96H112
			c-52.996-0.057-95.943-43.004-96-96V112c0.057-52.996,43.004-95.943,96-96h256c52.996,0.057,95.943,43.004,96,96V368z M464,54.608
			C454.489,38.769,441.231,25.511,425.392,16H464V54.608z"/>
	</g>
</g>
<g>
	<g>
		<path d="M412.8,78.528l8.872-8.872l-11.328-11.312l-8.872,8.856c-19.809-14.955-47.135-14.955-66.944,0l-8.872-8.856
			l-11.312,11.312l8.856,8.872c-14.955,19.809-14.955,47.135,0,66.944l-8.872,8.872l11.312,11.312l8.888-8.856
			c19.809,14.955,47.135,14.955,66.944,0l8.864,8.864l11.312-11.312l-8.848-8.88C427.755,125.663,427.755,98.337,412.8,78.528z
			 M368,72c7.838,0.002,15.5,2.32,22.024,6.664L378.28,90.4c-6.477-3.211-14.083-3.211-20.56,0l-11.744-11.744
			C352.501,74.315,360.163,71.999,368,72z M376,112c0,4.418-3.582,8-8,8s-8-3.582-8-8s3.582-8,8-8S376,107.582,376,112z M328,112
			c0.002-7.838,2.32-15.5,6.664-22.024L346.4,101.72c-3.211,6.477-3.211,14.083,0,20.56l-11.744,11.744
			C330.315,127.499,327.999,119.837,328,112z M368,152c-7.838-0.002-15.5-2.32-22.024-6.664L357.72,133.6
			c6.477,3.211,14.083,3.211,20.56,0l11.744,11.744C383.499,149.685,375.837,152.001,368,152z M401.336,134.024L389.6,122.28
			c3.211-6.477,3.211-14.083,0-20.56l11.744-11.744c4.341,6.525,6.657,14.187,6.656,22.024
			C407.998,119.838,405.68,127.5,401.336,134.024z"/>
	</g>
</g>
<g>
	<g>
		<path d="M412.8,206.528l8.872-8.872l-11.312-11.312l-8.888,8.856c-19.809-14.955-47.135-14.955-66.944,0l-8.872-8.872
			l-11.312,11.312l8.856,8.888c-14.955,19.809-14.955,47.135,0,66.944l-8.856,8.872l11.312,11.312l8.872-8.856
			c19.809,14.955,47.135,14.955,66.944,0l8.864,8.864l11.312-11.312l-8.848-8.88C427.755,253.663,427.755,226.337,412.8,206.528z
			 M368,200c7.838,0.002,15.5,2.32,22.024,6.664L378.28,218.4c-6.477-3.211-14.083-3.211-20.56,0l-11.744-11.744
			C352.501,202.315,360.163,199.999,368,200z M376,240c0,4.418-3.582,8-8,8s-8-3.582-8-8s3.582-8,8-8S376,235.582,376,240z M328,240
			c0.002-7.838,2.32-15.5,6.664-22.024L346.4,229.72c-3.211,6.477-3.211,14.083,0,20.56l-11.744,11.744
			C330.315,255.499,327.999,247.837,328,240z M368,280c-7.838-0.002-15.5-2.32-22.024-6.664L357.72,261.6
			c6.477,3.211,14.083,3.211,20.56,0l11.744,11.744C383.499,277.685,375.837,280.001,368,280z M401.336,262.024L389.6,250.28
			c3.211-6.477,3.211-14.083,0-20.56l11.744-11.744c4.341,6.525,6.657,14.187,6.656,22.024
			C407.998,247.838,405.68,255.5,401.336,262.024z"/>
	</g>
</g>
<g>
	<g>
		<path d="M412.8,334.528l8.872-8.872l-11.312-11.312l-8.888,8.856c-19.809-14.955-47.135-14.955-66.944,0l-8.872-8.872
			l-11.312,11.312l8.856,8.888c-14.955,19.809-14.955,47.135,0,66.944l-8.872,8.872l11.312,11.312l8.888-8.856
			c9.646,7.268,21.395,11.199,33.472,11.2c12.077-0.001,23.826-3.932,33.472-11.2l8.864,8.864l11.312-11.312l-8.848-8.88
			C427.755,381.663,427.755,354.337,412.8,334.528z M368,328c7.838,0.002,15.5,2.32,22.024,6.664L378.28,346.4
			c-6.477-3.211-14.083-3.211-20.56,0l-11.744-11.744C352.501,330.315,360.163,327.999,368,328z M376,368c0,4.418-3.582,8-8,8
			s-8-3.582-8-8s3.582-8,8-8S376,363.582,376,368z M328,368c0.002-7.838,2.32-15.5,6.664-22.024L346.4,357.72
			c-3.211,6.477-3.211,14.083,0,20.56l-11.744,11.744C330.315,383.499,327.999,375.837,328,368z M368,408
			c-7.838-0.002-15.5-2.32-22.024-6.664L357.72,389.6c6.477,3.211,14.083,3.211,20.56,0l11.744,11.744
			C383.499,405.685,375.837,408.001,368,408z M401.336,390.024L389.6,378.28c3.211-6.477,3.211-14.083,0-20.56l11.744-11.744
			c4.341,6.525,6.657,14.187,6.656,22.024C407.998,375.838,405.68,383.5,401.336,390.024z"/>
	</g>
</g>
<g>
	<g>
		<path d="M284.8,78.528l8.856-8.872l-11.312-11.312l-8.872,8.856c-19.809-14.955-47.135-14.955-66.944,0l-8.872-8.856
			l-11.312,11.312l8.856,8.872c-14.955,19.809-14.955,47.135,0,66.944l-8.872,8.872l11.312,11.312l8.888-8.856
			c19.809,14.955,47.135,14.955,66.944,0l8.864,8.864l11.312-11.312l-8.848-8.88C299.755,125.663,299.755,98.337,284.8,78.528z
			 M240,72c7.838,0.002,15.5,2.32,22.024,6.664L250.28,90.4c-6.477-3.211-14.083-3.211-20.56,0l-11.744-11.744
			C224.501,74.315,232.163,71.999,240,72z M248,112c0,4.418-3.582,8-8,8s-8-3.582-8-8s3.582-8,8-8S248,107.582,248,112z M200,112
			c0.002-7.838,2.32-15.5,6.664-22.024L218.4,101.72c-3.211,6.477-3.211,14.083,0,20.56l-11.744,11.744
			C202.315,127.499,199.999,119.837,200,112z M240,152c-7.838-0.002-15.5-2.32-22.024-6.664L229.72,133.6
			c6.477,3.211,14.083,3.211,20.56,0l11.744,11.744C255.499,149.685,247.837,152.001,240,152z M273.336,134.024L261.6,122.28
			c3.211-6.477,3.211-14.083,0-20.56l11.744-11.744c4.341,6.525,6.657,14.187,6.656,22.024
			C279.998,119.838,277.68,127.5,273.336,134.024z"/>
	</g>
</g>
<g>
	<g>
		<path d="M284.8,206.528l8.856-8.872l-11.312-11.312l-8.872,8.856c-19.809-14.955-47.135-14.955-66.944,0l-8.872-8.872
			l-11.312,11.312l8.856,8.888c-14.955,19.809-14.955,47.135,0,66.944l-8.872,8.872l11.312,11.312l8.888-8.856
			c19.809,14.955,47.135,14.955,66.944,0l8.864,8.864l11.312-11.312l-8.848-8.88C299.755,253.663,299.755,226.337,284.8,206.528z
			 M240,200c7.838,0.002,15.5,2.32,22.024,6.664L250.28,218.4c-6.477-3.211-14.083-3.211-20.56,0l-11.744-11.744
			C224.501,202.315,232.163,199.999,240,200z M248,240c0,4.418-3.582,8-8,8s-8-3.582-8-8s3.582-8,8-8S248,235.582,248,240z M200,240
			c0.002-7.838,2.32-15.5,6.664-22.024L218.4,229.72c-3.211,6.477-3.211,14.083,0,20.56l-11.744,11.744
			C202.315,255.499,199.999,247.837,200,240z M240,280c-7.838-0.002-15.5-2.32-22.024-6.664L229.72,261.6
			c6.477,3.211,14.083,3.211,20.56,0l11.744,11.744C255.499,277.685,247.837,280.001,240,280z M273.336,262.024L261.6,250.28
			c3.211-6.477,3.211-14.083,0-20.56l11.744-11.744c4.341,6.525,6.657,14.187,6.656,22.024
			C279.998,247.838,277.68,255.5,273.336,262.024z"/>
	</g>
</g>
<g>
	<g>
		<path d="M284.8,334.528l8.872-8.872l-11.312-11.312l-8.888,8.856c-19.809-14.955-47.135-14.955-66.944,0l-8.872-8.872
			l-11.312,11.312l8.856,8.888c-14.955,19.809-14.955,47.135,0,66.944l-8.872,8.872l11.312,11.312l8.888-8.856
			c19.809,14.955,47.135,14.955,66.944,0l8.864,8.864l11.312-11.312l-8.848-8.88C299.755,381.663,299.755,354.337,284.8,334.528z
			 M240,328c7.838,0.002,15.5,2.32,22.024,6.664L250.28,346.4c-6.477-3.211-14.083-3.211-20.56,0l-11.744-11.744
			C224.501,330.315,232.163,327.999,240,328z M248,368c0,4.418-3.582,8-8,8s-8-3.582-8-8s3.582-8,8-8S248,363.582,248,368z M200,368
			c0.002-7.838,2.32-15.5,6.664-22.024L218.4,357.72c-3.211,6.477-3.211,14.083,0,20.56l-11.744,11.744
			C202.315,383.499,199.999,375.837,200,368z M240,408c-7.838-0.002-15.5-2.32-22.024-6.664L229.72,389.6
			c6.477,3.211,14.083,3.211,20.56,0l11.744,11.744C255.499,405.685,247.837,408.001,240,408z M273.336,390.024L261.6,378.28
			c3.211-6.477,3.211-14.083,0-20.56l11.744-11.744c4.341,6.525,6.657,14.187,6.656,22.024
			C279.998,375.838,277.68,383.5,273.336,390.024z"/>
	</g>
</g>
<g>
	<g>
		<path d="M156.8,78.528l8.856-8.872l-11.312-11.312l-8.872,8.856c-19.809-14.955-47.135-14.955-66.944,0l-8.872-8.856
			L58.344,69.656l8.856,8.872c-14.955,19.809-14.955,47.135,0,66.944l-8.856,8.872l11.312,11.312l8.872-8.856
			c19.809,14.955,47.135,14.955,66.944,0l8.864,8.864l11.312-11.312l-8.848-8.88C171.755,125.663,171.755,98.337,156.8,78.528z
			 M112,72c7.838,0.002,15.5,2.32,22.024,6.664L122.28,90.4c-6.477-3.211-14.083-3.211-20.56,0L89.976,78.656
			C96.501,74.315,104.163,71.999,112,72z M120,112c0,4.418-3.582,8-8,8s-8-3.582-8-8s3.582-8,8-8S120,107.582,120,112z M72,112
			c0.002-7.838,2.32-15.5,6.664-22.024L90.4,101.72c-3.211,6.477-3.211,14.083,0,20.56l-11.744,11.744
			C74.315,127.499,71.999,119.837,72,112z M112,152c-7.838-0.002-15.5-2.32-22.024-6.664L101.72,133.6
			c6.477,3.211,14.083,3.211,20.56,0l11.744,11.744C127.499,149.685,119.837,152.001,112,152z M145.336,134.024L133.6,122.28
			c3.211-6.477,3.211-14.083,0-20.56l11.744-11.744c4.341,6.525,6.657,14.187,6.656,22.024
			C151.998,119.838,149.68,127.5,145.336,134.024z"/>
	</g>
</g>
<g>
	<g>
		<path d="M156.8,206.528l8.856-8.872l-11.312-11.312l-8.872,8.856c-19.809-14.955-47.135-14.955-66.944,0l-8.872-8.872
			l-11.312,11.328l8.856,8.872c-14.955,19.809-14.955,47.135,0,66.944l-8.856,8.872l11.312,11.312l8.872-8.856
			c19.809,14.955,47.135,14.955,66.944,0l8.864,8.864l11.312-11.312l-8.848-8.88C171.755,253.663,171.755,226.337,156.8,206.528z
			 M112,200c7.838,0.002,15.5,2.32,22.024,6.664L122.28,218.4c-6.477-3.211-14.083-3.211-20.56,0l-11.744-11.744
			C96.501,202.315,104.163,199.999,112,200z M120,240c0,4.418-3.582,8-8,8s-8-3.582-8-8s3.582-8,8-8S120,235.582,120,240z M72,240
			c0.002-7.838,2.32-15.5,6.664-22.024L90.4,229.72c-3.211,6.477-3.211,14.083,0,20.56l-11.744,11.744
			C74.315,255.499,71.999,247.837,72,240z M112,280c-7.838-0.002-15.5-2.32-22.024-6.664L101.72,261.6
			c6.477,3.211,14.083,3.211,20.56,0l11.744,11.744C127.499,277.685,119.837,280.001,112,280z M145.336,262.024L133.6,250.28
			c3.211-6.477,3.211-14.083,0-20.56l11.744-11.744c4.341,6.525,6.657,14.187,6.656,22.024
			C151.998,247.838,149.68,255.5,145.336,262.024z"/>
	</g>
</g>
<g>
	<g>
		<path d="M156.8,334.528l8.872-8.872l-11.312-11.312l-8.888,8.856c-19.809-14.955-47.135-14.955-66.944,0l-8.872-8.872
			l-11.312,11.328l8.856,8.872c-14.955,19.809-14.955,47.135,0,66.944l-8.856,8.872l11.312,11.312l8.872-8.856
			c19.809,14.955,47.135,14.955,66.944,0l8.864,8.864l11.312-11.312l-8.848-8.88C171.755,381.663,171.755,354.337,156.8,334.528z
			 M112,328c7.838,0.002,15.5,2.32,22.024,6.664L122.28,346.4c-6.477-3.211-14.083-3.211-20.56,0l-11.744-11.744
			C96.501,330.315,104.163,327.999,112,328z M120,368c0,4.418-3.582,8-8,8s-8-3.582-8-8s3.582-8,8-8S120,363.582,120,368z M72,368
			c0.002-7.838,2.32-15.5,6.664-22.024L90.4,357.72c-3.211,6.477-3.211,14.083,0,20.56l-11.744,11.744
			C74.315,383.499,71.999,375.837,72,368z M112,408c-7.838-0.002-15.5-2.32-22.024-6.664L101.72,389.6
			c6.477,3.211,14.083,3.211,20.56,0l11.744,11.744C127.499,405.685,119.837,408.001,112,408z M145.336,390.024L133.6,378.28
			c3.211-6.477,3.211-14.083,0-20.56l11.744-11.744c4.341,6.525,6.657,14.187,6.656,22.024
			C151.998,375.838,149.68,383.5,145.336,390.024z"/>
	</g>
</g>
<g>
</g>
<g>
</g>
<g>
</g>
<g>
</g>
<g>
</g>
<g>
</g>
<g>
</g>
<g>
</g>
<g>
</g>
<g>
</g>
<g>
</g>
<g>
</g>
<g>
</g>
<g>
</g>
<g>
</g>
</svg>
