<?xml version="1.0" encoding="iso-8859-1"?>
<!-- Generator: Adobe Illustrator 19.0.0, SVG Export Plug-In . SVG Version: 6.00 Build 0)  -->
<svg version="1.1" id="Capa_1" xmlns="http://www.w3.org/2000/svg" xmlns:xlink="http://www.w3.org/1999/xlink" x="0px" y="0px"
	 viewBox="0 0 479.904 479.904" style="enable-background:new 0 0 479.904 479.904;" xml:space="preserve">
<g>
	<g>
		<path d="M447.904,151.952c4.418,0,8-3.582,8-8v-56h16c4.418,0,8-3.582,8-8v-64c0-4.418-3.582-8-8-8h-336c-4.418,0-8,3.582-8,8v56
			h-16c-4.418,0-8,3.582-8,8v55.464C15.242,175.258-24.334,279.43,15.507,368.092c28.381,63.157,91.156,103.805,160.396,103.86h296
			c4.418,0,8-3.582,8-8v-128c0-4.418-3.582-8-8-8h-24v-48h24c4.418,0,8-3.582,8-8v-64c0-4.418-3.582-8-8-8h-40v-48H447.904z
			 M431.904,23.952h32v48h-32V23.952z M383.904,23.952h32v48h-32V23.952z M399.904,279.952h32v48h-32V279.952z M383.904,263.952v-48
			h32v48H383.904z M415.904,199.952h-32v-48h32V199.952z M391.904,135.952h-32v-48h32V135.952z M319.904,151.952v42.992
			c-11.752-16.696-26.296-31.24-42.992-42.992H319.904z M263.904,135.952v-48h32v48H263.904z M311.904,135.952v-48h32v48H311.904z
			 M367.904,151.952v48h-32v-48H367.904z M367.904,215.952v48h-18.968c-3.085-16.71-8.591-32.88-16.344-48H367.904z
			 M351.904,295.952c0-5.4-0.28-10.728-0.76-16h32.76v48h-34.968C350.896,317.397,351.889,306.686,351.904,295.952z M335.904,23.952
			h32v48h-32V23.952z M287.904,23.952h32v48h-32V23.952z M239.904,23.952h32v48h-32V23.952z M247.904,87.952v47.464
			c-10.291-4.635-21.008-8.26-32-10.824v-36.64H247.904z M191.904,23.952h32v48h-32V23.952z M199.904,87.952v33.68
			c-7.952-1.107-15.971-1.668-24-1.68c-2.68,0-5.344,0.08-8,0.2v-32.2H199.904z M143.904,23.952h32v48h-32V23.952z M119.904,87.952
			h32v33.68c-10.878,1.492-21.592,4.004-32,7.504V87.952z M15.904,295.952c0-88.366,71.634-160,160-160s160,71.634,160,160
			s-71.634,160-160,160C87.58,455.85,16.005,384.275,15.904,295.952z M271.904,455.952h-22.816c7.906-3.63,15.533-7.842,22.816-12.6
			V455.952z M319.904,455.952h-32v-24.336c8.615-7.126,16.538-15.05,23.664-23.664h8.336V455.952z M367.904,455.952h-32v-48h32
			V455.952z M367.904,391.952h-44.6c9.678-14.803,17.057-30.987,21.888-48h22.712V391.952z M415.904,455.952h-32v-48h32V455.952z
			 M415.904,391.952h-32v-48h32V391.952z M463.904,455.952h-32v-48h32V455.952z M463.904,343.952v48h-32v-48H463.904z
			 M463.904,215.952v48h-32v-48H463.904z M407.904,135.952v-48h32v48H407.904z"/>
	</g>
</g>
<g>
	<g>
		<path d="M175.904,151.952c-79.529,0-144,64.471-144,144s64.471,144,144,144s144-64.471,144-144
			C319.811,216.461,255.394,152.044,175.904,151.952z M175.904,423.952c-70.692,0-128-57.308-128-128s57.308-128,128-128
			s128,57.308,128,128C303.82,366.609,246.561,423.868,175.904,423.952z"/>
	</g>
</g>
<g>
	<g>
		<path d="M239.904,327.952H177.44l6.936-39.288l35.104-17.512c2.725-1.362,4.441-4.153,4.424-7.2v-32
			c0.002-4.418-3.578-8.002-7.996-8.004c-1.243-0.001-2.468,0.288-3.58,0.844l-18.296,9.152l5.752-32.6
			c0.769-4.351-2.135-8.501-6.486-9.27c-0.46-0.081-0.927-0.122-1.394-0.122h-56c-4.001-0.001-7.388,2.955-7.928,6.92l-9.96,73.08
			l-33.688,16.8c-2.725,1.362-4.441,4.153-4.424,7.2v32c-0.024,4.418,3.538,8.019,7.956,8.044c1.256,0.007,2.496-0.282,3.62-0.844
			l19.2-9.6l-6.736,49.384c-0.561,4.383,2.537,8.39,6.919,8.951c0.345,0.044,0.693,0.066,1.041,0.065h128c4.418,0,8-3.582,8-8v-40
			C247.904,331.533,244.322,327.952,239.904,327.952z M231.904,367.952H121.072l7.536-55.312c0.594-4.378-2.473-8.409-6.851-9.003
			c-1.593-0.216-3.215,0.052-4.653,0.771l-21.2,10.6v-14.112l33.04-16.52c2.365-1.181,3.993-3.453,4.352-6.072l9.592-70.352h39.48
			l-6.856,38.864c-0.772,4.35,2.13,8.503,6.48,9.274c1.693,0.3,3.438,0.047,4.976-0.722l20.936-10.472v14.112l-34.288,17.144
			c-2.267,1.132-3.864,3.272-4.304,5.768l-9.288,52.64c-0.769,4.351,2.135,8.501,6.486,9.27c0.46,0.081,0.927,0.122,1.394,0.122h64
			V367.952z"/>
	</g>
</g>
<g>
</g>
<g>
</g>
<g>
</g>
<g>
</g>
<g>
</g>
<g>
</g>
<g>
</g>
<g>
</g>
<g>
</g>
<g>
</g>
<g>
</g>
<g>
</g>
<g>
</g>
<g>
</g>
<g>
</g>
</svg>
