<?xml version="1.0" encoding="iso-8859-1"?>
<!-- Generator: Adobe Illustrator 19.0.0, SVG Export Plug-In . SVG Version: 6.00 Build 0)  -->
<svg version="1.1" id="Capa_1" xmlns="http://www.w3.org/2000/svg" xmlns:xlink="http://www.w3.org/1999/xlink" x="0px" y="0px"
	 viewBox="0 0 480 480" style="enable-background:new 0 0 480 480;" xml:space="preserve">
<g>
	<g>
		<path d="M279.985,0h-80c-4.418,0-8,3.582-8,8v112c0,4.418,3.582,8,8,8h80c4.418,0,8-3.582,8-8V8
			C287.985,3.582,284.403,0,279.985,0z M271.985,112h-64V16h64V112z"/>
	</g>
</g>
<g>
	<g>
		<rect x="223.985" y="32" width="32" height="16"/>
	</g>
</g>
<g>
	<g>
		<rect x="223.985" y="64" width="32" height="16"/>
	</g>
</g>
<g>
	<g>
		<path d="M167.985,0h-80c-4.418,0-8,3.582-8,8v112c0,4.418,3.582,8,8,8h80c4.418,0,8-3.582,8-8V8
			C175.985,3.582,172.403,0,167.985,0z M159.985,112h-64V16h64V112z"/>
	</g>
</g>
<g>
	<g>
		<rect x="111.985" y="32" width="32" height="16"/>
	</g>
</g>
<g>
	<g>
		<rect x="111.985" y="64" width="32" height="16"/>
	</g>
</g>
<g>
	<g>
		<path d="M391.985,0h-80c-4.418,0-8,3.582-8,8v112c0,4.418,3.582,8,8,8h80c4.418,0,8-3.582,8-8V8
			C399.985,3.582,396.403,0,391.985,0z M383.985,112h-64V16h64V112z"/>
	</g>
</g>
<g>
	<g>
		<rect x="335.985" y="32" width="32" height="16"/>
	</g>
</g>
<g>
	<g>
		<rect x="335.985" y="64" width="32" height="16"/>
	</g>
</g>
<g>
	<g>
		<path d="M397.547,154.21c-1.498-1.428-3.492-2.22-5.562-2.21h-304c-4.418-0.006-8.005,3.57-8.011,7.989
			c-0.003,2.044,0.777,4.012,2.179,5.499L207.985,299.2V384c0.002,3.103,1.798,5.924,4.608,7.24c1.06,0.502,2.219,0.762,3.392,0.76
			c1.872-0.001,3.685-0.655,5.128-1.848l48-40c1.823-1.523,2.875-3.777,2.872-6.152v-44.8l125.832-133.68
			C400.865,162.322,400.744,157.258,397.547,154.21z M258.153,290.512c-1.389,1.49-2.164,3.451-2.168,5.488v44.248l-32,26.672V296
			c-0.004-2.037-0.779-3.998-2.168-5.488L106.497,168h266.976L258.153,290.512z"/>
	</g>
</g>
<g>
	<g>
		<path d="M287.985,432h-32c-4.418,0-8,3.582-8,8v32c0,4.418,3.582,8,8,8h32c4.418,0,8-3.582,8-8v-32
			C295.985,435.582,292.403,432,287.985,432z M279.985,464h-16v-16h16V464z"/>
	</g>
</g>
<g>
	<g>
		<path d="M311.985,368h-32c-4.418,0-8,3.582-8,8v32c0,4.418,3.582,8,8,8h32c4.418,0,8-3.582,8-8v-32
			C319.985,371.582,316.403,368,311.985,368z M303.985,400h-16v-16h16V400z"/>
	</g>
</g>
<g>
	<g>
		<path d="M199.985,408h-32c-4.418,0-8,3.582-8,8v32c0,4.418,3.582,8,8,8h32c4.418,0,8-3.582,8-8v-32
			C207.985,411.582,204.403,408,199.985,408z M191.985,440h-16v-16h16V440z"/>
	</g>
</g>
<g>
	<g>
		<path d="M119.985,432h-32c-4.418,0-8,3.582-8,8v32c0,4.418,3.582,8,8,8h32c4.418,0,8-3.582,8-8v-32
			C127.985,435.582,124.403,432,119.985,432z M111.985,464h-16v-16h16V464z"/>
	</g>
</g>
<g>
	<g>
		<path d="M267.185,209.6l-19.2,14.4v-40h-16v40l-19.2-14.4l-9.6,12.8l32,24c2.844,2.133,6.756,2.133,9.6,0l32-24L267.185,209.6z"/>
	</g>
</g>
<g>
	<g>
		<rect x="335.985" y="344" width="16" height="16"/>
	</g>
</g>
<g>
	<g>
		<rect x="335.985" y="464" width="16" height="16"/>
	</g>
</g>
<g>
	<g>
		<rect x="143.985" y="368" width="16" height="16"/>
	</g>
</g>
<g>
</g>
<g>
</g>
<g>
</g>
<g>
</g>
<g>
</g>
<g>
</g>
<g>
</g>
<g>
</g>
<g>
</g>
<g>
</g>
<g>
</g>
<g>
</g>
<g>
</g>
<g>
</g>
<g>
</g>
</svg>
