<?xml version="1.0" encoding="iso-8859-1"?>
<!-- Generator: Adobe Illustrator 19.0.0, SVG Export Plug-In . SVG Version: 6.00 Build 0)  -->
<svg version="1.1" id="Capa_1" xmlns="http://www.w3.org/2000/svg" xmlns:xlink="http://www.w3.org/1999/xlink" x="0px" y="0px"
	 viewBox="0 0 480 480" style="enable-background:new 0 0 480 480;" xml:space="preserve">
<g>
	<g>
		<path d="M200,432h-16v-88c0-4.418-3.582-8-8-8H32c-4.418,0-8,3.582-8,8v88H8c-4.418,0-8,3.582-8,8c0.026,22.08,17.92,39.974,40,40
			h128c22.08-0.026,39.974-17.92,40-40C208,435.582,204.418,432,200,432z M40,352h128v80h-8v-64c0-4.418-3.582-8-8-8H56
			c-4.418,0-8,3.582-8,8v64h-8V352z M144,376v56H64v-56H144z M168,464H40c-10.168-0.012-19.229-6.418-22.632-16h173.264
			C187.229,457.582,178.168,463.988,168,464z"/>
	</g>
</g>
<g>
	<g>
		<path d="M200,96h-16V8c0-4.418-3.582-8-8-8H32c-4.418,0-8,3.582-8,8v88H8c-4.418,0-8,3.582-8,8c0.026,22.08,17.92,39.974,40,40
			h128c22.08-0.026,39.974-17.92,40-40C208,99.582,204.418,96,200,96z M40,16h128v80h-8V32c0-4.418-3.582-8-8-8H56
			c-4.418,0-8,3.582-8,8v64h-8V16z M144,40v56H64V40H144z M168,128H40c-10.168-0.012-19.229-6.418-22.632-16h173.264
			C187.229,121.582,178.168,127.988,168,128z"/>
	</g>
</g>
<g>
	<g>
		<path d="M472,432h-16v-88c0-4.418-3.582-8-8-8H304c-4.418,0-8,3.582-8,8v88h-16c-4.418,0-8,3.582-8,8
			c0.026,22.08,17.92,39.974,40,40h128c22.08-0.026,39.974-17.92,40-40C480,435.582,476.418,432,472,432z M312,352h128v80h-8v-64
			c0-4.418-3.582-8-8-8h-96c-4.418,0-8,3.582-8,8v64h-8V352z M416,376v56h-80v-56H416z M440,464H312
			c-10.168-0.012-19.229-6.418-22.632-16h173.264C459.229,457.582,450.168,463.988,440,464z"/>
	</g>
</g>
<g>
	<g>
		<path d="M472,96h-16V8c0-4.418-3.582-8-8-8H304c-4.418,0-8,3.582-8,8v88h-16c-4.418,0-8,3.582-8,8c0.026,22.08,17.92,39.974,40,40
			h128c22.08-0.026,39.974-17.92,40-40C480,99.582,476.418,96,472,96z M312,16h128v80h-8V32c0-4.418-3.582-8-8-8h-96
			c-4.418,0-8,3.582-8,8v64h-8V16z M416,40v56h-80V40H416z M440,128H312c-10.168-0.012-19.229-6.418-22.632-16h173.264
			C459.229,121.582,450.168,127.988,440,128z"/>
	</g>
</g>
<g>
	<g>
		<path d="M320,256h-20.32c17.745-19.641,16.209-49.948-3.432-67.693s-49.948-16.209-67.693,3.432
			c-0.078,0.087-0.157,0.174-0.234,0.261H160c-4.418,0-8,3.582-8,8v96c0,4.418,3.582,8,8,8h160c4.418,0,8-3.582,8-8v-32
			C328,259.582,324.418,256,320,256z M168,208h50.8c-1.839,5.135-2.786,10.546-2.8,16h-48V208z M168,240h50.8
			c2.1,5.903,5.334,11.338,9.52,16H168V240z M232,288h-64v-16h64V288z M232,224c0-17.673,14.327-32,32-32c17.673,0,32,14.327,32,32
			s-14.327,32-32,32C246.327,256,232,241.673,232,224z M312,288h-64v-16h64V288z"/>
	</g>
</g>
<g>
	<g>
		<rect x="200" y="40" width="16" height="16"/>
	</g>
</g>
<g>
	<g>
		<rect x="264" y="40" width="16" height="16"/>
	</g>
</g>
<g>
	<g>
		<rect x="232" y="40" width="16" height="16"/>
	</g>
</g>
<g>
	<g>
		<rect x="88" y="168" width="16" height="16"/>
	</g>
</g>
<g>
	<g>
		<rect x="88" y="200" width="16" height="16"/>
	</g>
</g>
<g>
	<g>
		<rect x="88" y="296" width="16" height="16"/>
	</g>
</g>
<g>
	<g>
		<rect x="88" y="232" width="16" height="16"/>
	</g>
</g>
<g>
	<g>
		<rect x="88" y="264" width="16" height="16"/>
	</g>
</g>
<g>
	<g>
		<rect x="200" y="376" width="16" height="16"/>
	</g>
</g>
<g>
	<g>
		<rect x="232" y="376" width="16" height="16"/>
	</g>
</g>
<g>
	<g>
		<rect x="264" y="376" width="16" height="16"/>
	</g>
</g>
<g>
	<g>
		<rect x="368" y="264" width="16" height="16"/>
	</g>
</g>
<g>
	<g>
		<rect x="368" y="232" width="16" height="16"/>
	</g>
</g>
<g>
	<g>
		<rect x="368" y="200" width="16" height="16"/>
	</g>
</g>
<g>
	<g>
		<rect x="368" y="168" width="16" height="16"/>
	</g>
</g>
<g>
	<g>
		<rect x="368" y="296" width="16" height="16"/>
	</g>
</g>
<g>
</g>
<g>
</g>
<g>
</g>
<g>
</g>
<g>
</g>
<g>
</g>
<g>
</g>
<g>
</g>
<g>
</g>
<g>
</g>
<g>
</g>
<g>
</g>
<g>
</g>
<g>
</g>
<g>
</g>
</svg>
