<?xml version="1.0" encoding="iso-8859-1"?>
<!-- Generator: Adobe Illustrator 19.0.0, SVG Export Plug-In . SVG Version: 6.00 Build 0)  -->
<svg version="1.1" id="Capa_1" xmlns="http://www.w3.org/2000/svg" xmlns:xlink="http://www.w3.org/1999/xlink" x="0px" y="0px"
	 viewBox="0 0 480 480" style="enable-background:new 0 0 480 480;" xml:space="preserve">
<g>
	<g>
		<path d="M441.659,223.032l-42.344-42.344V8c0-4.418-3.582-8-8-8h-304c-4.418,0-8,3.582-8,8v40h-40c-4.418,0-8,3.582-8,8v416
			c0,4.418,3.582,8,8,8h304c4.418,0,8-3.582,8-8v-40h40c4.418,0,8-3.582,8-8V299.312l42.344-42.344
			C451.028,247.596,451.028,232.404,441.659,223.032z M95.315,16h288v148.864c-9.094-8.193-22.906-8.193-32,0V56
			c0-4.418-3.582-8-8-8h-248V16z M47.315,464V64h288v116.688l-58.344,58.344c-9.369,9.372-9.369,24.564,0,33.936l3.032,3.032
			l-28.688,28.688l-3.032-3.032c-9.372-9.369-24.564-9.369-33.936,0l-73.376,73.376c-9.369,9.372-9.369,24.564,0,33.936L196.003,464
			H47.315z M358.347,266.344c3.123,3.124,3.123,8.188,0,11.312l-32.688,32.688l-71.312,71.312l-1.376,1.376
			c-3.124,3.123-8.188,3.123-11.312,0l-17.376-17.376c-3.123-3.124-3.123-8.188,0-11.312l72.688-72.688l31.312-31.312l1.376-1.376
			c3.124-3.123,8.188-3.123,11.312,0L358.347,266.344z M345.587,233.04l16.072-16.072c3.124-3.123,8.188-3.123,11.312,0
			l17.376,17.376c3.123,3.124,3.123,8.188,0,11.312l-16.072,16.072c-1.143-2.481-2.704-4.746-4.616-6.696l-17.376-17.376
			C350.332,235.744,348.067,234.182,345.587,233.04z M237.043,398.96l-16.072,16.072c-3.124,3.123-8.188,3.123-11.312,0
			l-17.376-17.376c-3.123-3.124-3.123-8.188,0-11.312l16.072-16.072c1.143,2.481,2.704,4.746,4.616,6.696l17.376,17.376
			C232.297,396.256,234.562,397.817,237.043,398.96z M209.659,455.032l-57.376-57.376c-3.123-3.124-3.123-8.188,0-11.312
			l73.376-73.376c3.124-3.123,8.188-3.123,11.312,0l3.032,3.032l-27.032,27.032l-32,32c-9.369,9.372-9.369,24.564,0,33.936
			l17.376,17.376c9.372,9.369,24.564,9.369,33.936,0l32-32l1.376-1.376l25.656-25.656l3.032,3.032c3.123,3.124,3.123,8.188,0,11.312
			l-73.376,73.376C217.847,458.155,212.783,458.155,209.659,455.032z M335.315,464H234.627l71.032-71.032
			c9.369-9.372,9.369-24.564,0-33.936L302.627,356l28.688-28.688l3.032,3.032c0.304,0.304,0.656,0.512,0.968,0.8V464z M383.315,416
			h-32v-78.64c6.365,0.013,12.472-2.512,16.968-7.016l15.032-15.032V416z M430.347,245.656l-73.376,73.376
			c-3.124,3.123-8.188,3.123-11.312,0L342.627,316l27.032-27.032l32-32c9.369-9.372,9.369-24.564,0-33.936l-17.376-17.376
			c-9.372-9.369-24.564-9.369-33.936,0l-32,32l-1.376,1.376l-25.656,25.656l-3.032-3.032c-3.123-3.124-3.123-8.188,0-11.312
			l73.376-73.376c3.124-3.123,8.188-3.123,11.312,0l57.376,57.376C433.47,237.468,433.47,242.532,430.347,245.656z"/>
	</g>
</g>
<g>
	<g>
		<rect x="71.315" y="88" width="240" height="16"/>
	</g>
</g>
<g>
	<g>
		<rect x="71.315" y="128" width="240" height="16"/>
	</g>
</g>
<g>
	<g>
		<rect x="71.315" y="168" width="240" height="16"/>
	</g>
</g>
<g>
	<g>
		<rect x="71.315" y="208" width="192" height="16"/>
	</g>
</g>
<g>
	<g>
		<rect x="71.315" y="248" width="168" height="16"/>
	</g>
</g>
<g>
</g>
<g>
</g>
<g>
</g>
<g>
</g>
<g>
</g>
<g>
</g>
<g>
</g>
<g>
</g>
<g>
</g>
<g>
</g>
<g>
</g>
<g>
</g>
<g>
</g>
<g>
</g>
<g>
</g>
</svg>
