<?xml version="1.0" encoding="iso-8859-1"?>
<!-- Generator: Adobe Illustrator 19.0.0, SVG Export Plug-In . SVG Version: 6.00 Build 0)  -->
<svg version="1.1" id="Capa_1" xmlns="http://www.w3.org/2000/svg" xmlns:xlink="http://www.w3.org/1999/xlink" x="0px" y="0px"
	 viewBox="0 0 480 480" style="enable-background:new 0 0 480 480;" xml:space="preserve">
<g>
	<g>
		<path d="M8,0C3.582,0,0,3.582,0,8v88h16V16h80V0H8z"/>
	</g>
</g>
<g>
	<g>
		<path d="M472,0h-88v16h80v80h16V8C480,3.582,476.418,0,472,0z"/>
	</g>
</g>
<g>
	<g>
		<path d="M16,464v-80H0v88c0,4.418,3.582,8,8,8h88v-16H16z"/>
	</g>
</g>
<g>
	<g>
		<path d="M464,384v80h-80v16h88c4.418,0,8-3.582,8-8v-88H464z"/>
	</g>
</g>
<g>
	<g>
		<path d="M184,48H56c-4.418,0-8,3.582-8,8v128c0,4.418,3.582,8,8,8h128c4.418,0,8-3.582,8-8V56C192,51.582,188.418,48,184,48z
			 M176,176H64V64h112V176z"/>
	</g>
</g>
<g>
	<g>
		<path d="M152,80H88c-4.418,0-8,3.582-8,8v64c0,4.418,3.582,8,8,8h64c4.418,0,8-3.582,8-8V88C160,83.582,156.418,80,152,80z
			 M144,144H96V96h48V144z"/>
	</g>
</g>
<g>
	<g>
		<path d="M424,192c4.418,0,8-3.582,8-8V56c0-4.418-3.582-8-8-8H296c-4.418,0-8,3.582-8,8v56h-32V96h16V80h-16V64h16V48h-32v72
			c0,4.418,3.582,8,8,8h40v16h-64V48h-16v168H64v-8H48v64h16v-8h40v24H56c-4.418,0-8,3.582-8,8v128c0,4.418,3.582,8,8,8h128
			c4.418,0,8-3.582,8-8v-8h16v-16h-16v-16h16v-16h-16v-16h16v-16h-16v-16h16v-16h-16v-8c0-4.418-3.582-8-8-8h-32v-24h88v24h-16v16
			h16v16h-16v16h16v16h-16v16h16v16h-16v16h16v32h16v-96h32v16h-8c-4.418,0-8,3.582-8,8v64c0,4.418,3.582,8,8,8h144
			c4.418,0,8-3.582,8-8v-96c0-4.418-3.582-8-8-8h-88c-4.418,0-8,3.582-8,8v24h-24v-24c0-4.418-3.582-8-8-8h-40v-56h32v32
			c0,4.418,3.582,8,8,8h136v-16H304v-24h128v-16h-24v-24h24v-16h-24v-16H424z M64,248v-16h72v56h-16v-32c0-4.418-3.582-8-8-8H64z
			 M176,304v112H64V304H176z M168,248h-16v-16h16V248z M200,248h-16v-16h16V248z M240,248h-24v-16c4.418,0,8-3.582,8-8v-64h16V248z
			 M384,336h32v32h-32V336z M344,336h24v40c0,4.418,3.582,8,8,8h40v32h-32v-16h-16v16h-16v-56c0-4.418-3.582-8-8-8V336z M336,368v48
			h-48v-48H336z M296,208c-4.418,0-8,3.582-8,8v32h-32v-88h32v24c0,4.418,3.582,8,8,8h24v16H296z M360,248h-56v-24h24
			c4.418,0,8-3.582,8-8v-24h24V248z M392,248h-16v-56h16V248z M304,176V64h112v112H304z"/>
	</g>
</g>
<g>
	<g>
		<path d="M392,80h-64c-4.418,0-8,3.582-8,8v64c0,4.418,3.582,8,8,8h64c4.418,0,8-3.582,8-8V88C400,83.582,396.418,80,392,80z
			 M384,144h-48V96h48V144z"/>
	</g>
</g>
<g>
	<g>
		<path d="M152,320H88c-4.418,0-8,3.582-8,8v64c0,4.418,3.582,8,8,8h64c4.418,0,8-3.582,8-8v-64C160,323.582,156.418,320,152,320z
			 M144,384H96v-48h48V384z"/>
	</g>
</g>
<g>
</g>
<g>
</g>
<g>
</g>
<g>
</g>
<g>
</g>
<g>
</g>
<g>
</g>
<g>
</g>
<g>
</g>
<g>
</g>
<g>
</g>
<g>
</g>
<g>
</g>
<g>
</g>
<g>
</g>
</svg>
