<?xml version="1.0" encoding="iso-8859-1"?>
<!-- Generator: Adobe Illustrator 19.0.0, SVG Export Plug-In . SVG Version: 6.00 Build 0)  -->
<svg version="1.1" id="Capa_1" xmlns="http://www.w3.org/2000/svg" xmlns:xlink="http://www.w3.org/1999/xlink" x="0px" y="0px"
	 viewBox="0 0 480.016 480.016" style="enable-background:new 0 0 480.016 480.016;" xml:space="preserve">
<g>
	<g>
		<path d="M392.008,407.216l-32-320c-0.412-4.103-3.876-7.221-8-7.2h-24v-8c0.119-39.645-31.923-71.88-71.568-71.999
			C250.909,0,245.395,0.622,240.008,1.872c-38.62-8.956-77.189,15.092-86.145,53.712c-1.249,5.388-1.872,10.901-1.855,16.432v8h-32
			c-4.171-0.014-7.654,3.179-8,7.336l-32,384c-0.178,2.233,0.588,4.438,2.112,6.08c1.515,1.647,3.65,2.584,5.888,2.584h256
			c2.238,0,4.373-0.937,5.888-2.584c0.293-0.395,0.545-0.818,0.752-1.264l0.144,0.088l40-64l-0.144-0.088
			C391.641,410.715,392.12,408.972,392.008,407.216z M312.008,72.016v8h-16v-8c-0.012-20.535-8.822-40.08-24.2-53.688
			C295.614,25.354,311.968,47.195,312.008,72.016z M240.008,18.416c23.694,7.091,39.945,28.868,40,53.6v8h-80v-8
			C200.063,47.283,216.314,25.507,240.008,18.416z M168.008,72.016c0.04-24.821,16.394-46.662,40.2-53.688
			c-15.378,13.608-24.188,33.153-24.2,53.688v8h-16V72.016z M96.704,464.016l30.664-368h177.28l30.664,368H96.704z M350.008,447.376
			l-2.64-31.36h22.24L350.008,447.376z M346.032,400.016l-25.336-304h24.112l30.4,304H346.032z"/>
	</g>
</g>
<g>
	<g>
		<polygon points="72.008,16.016 72.008,0.016 56.008,0.016 56.008,16.016 40.008,16.016 40.008,32.016 56.008,32.016 
			56.008,48.016 72.008,48.016 72.008,32.016 88.008,32.016 88.008,16.016 		"/>
	</g>
</g>
<g>
	<g>
		<polygon points="32.008,192.016 32.008,176.016 16.008,176.016 16.008,192.016 0.008,192.016 0.008,208.016 16.008,208.016 
			16.008,224.016 32.008,224.016 32.008,208.016 48.008,208.016 48.008,192.016 		"/>
	</g>
</g>
<g>
	<g>
		<polygon points="464.008,16.016 464.008,0.016 448.008,0.016 448.008,16.016 432.008,16.016 432.008,32.016 448.008,32.016 
			448.008,48.016 464.008,48.016 464.008,32.016 480.008,32.016 480.008,16.016 		"/>
	</g>
</g>
<g>
	<g>
		<polygon points="424.008,192.016 424.008,176.016 408.008,176.016 408.008,192.016 392.008,192.016 392.008,208.016 
			408.008,208.016 408.008,224.016 424.008,224.016 424.008,208.016 440.008,208.016 440.008,192.016 		"/>
	</g>
</g>
<g>
	<g>
		<rect x="0.008" y="128.016" width="16" height="16"/>
	</g>
</g>
<g>
	<g>
		<rect x="0.008" y="0.016" width="16" height="16"/>
	</g>
</g>
<g>
	<g>
		<rect x="112.008" y="40.016" width="16" height="16"/>
	</g>
</g>
<g>
	<g>
		<rect x="64.008" y="104.016" width="16" height="16"/>
	</g>
</g>
<g>
	<g>
		<rect x="352.008" y="0.016" width="16" height="16"/>
	</g>
</g>
<g>
	<g>
		<rect x="464.008" y="96.016" width="16" height="16"/>
	</g>
</g>
<g>
	<g>
		<rect x="384.008" y="144.016" width="16" height="16"/>
	</g>
</g>
<g>
	<g>
		<path d="M224.008,248.016h-8c-4.418,0-8,3.582-8,8v32c0,4.418,3.582,8,8,8h8c13.255,0,24-10.745,24-24
			S237.263,248.016,224.008,248.016z M224.008,280.016v-16c4.418,0,8,3.582,8,8S228.426,280.016,224.008,280.016z"/>
	</g>
</g>
<g>
	<g>
		<path d="M224.008,328.016h-8c-4.418,0-8,3.582-8,8v32c0,4.418,3.582,8,8,8h8c13.255,0,24-10.745,24-24
			S237.263,328.016,224.008,328.016z M224.008,360.016v-16c4.418,0,8,3.582,8,8S228.426,360.016,224.008,360.016z"/>
	</g>
</g>
<g>
	<g>
		<path d="M264.408,312.016c8.712-7.136,15.6-20.28,15.6-44c-0.024-27.15-20.931-49.712-48-51.8v-16.2h-16v16h-16v-16h-16v16h-16
			c-4.418,0-8,3.582-8,8v32c0,4.418,3.582,8,8,8h8v96h-8c-4.418,0-8,3.582-8,8v32c0,4.418,3.582,8,8,8h24v16h16v-16h8v16h16v-16.2
			c27.069-2.088,47.976-24.65,48-51.8C280.008,332.296,273.12,319.152,264.408,312.016z M240.008,320.016c6.56,0,24,0,24,36
			c-0.022,19.873-16.127,35.978-36,36h-52v-16h8c4.418,0,8-3.582,8-8v-112c0-4.418-3.582-8-8-8h-8v-16h52
			c19.873,0.022,35.978,16.127,36,36c0,36-17.44,36-24,36c-4.418,0-8,3.582-8,8S235.59,320.016,240.008,320.016z"/>
	</g>
</g>
<g>
</g>
<g>
</g>
<g>
</g>
<g>
</g>
<g>
</g>
<g>
</g>
<g>
</g>
<g>
</g>
<g>
</g>
<g>
</g>
<g>
</g>
<g>
</g>
<g>
</g>
<g>
</g>
<g>
</g>
</svg>
