<?xml version="1.0" encoding="iso-8859-1"?>
<!-- Generator: Adobe Illustrator 19.0.0, SVG Export Plug-In . SVG Version: 6.00 Build 0)  -->
<svg version="1.1" id="Capa_1" xmlns="http://www.w3.org/2000/svg" xmlns:xlink="http://www.w3.org/1999/xlink" x="0px" y="0px"
	 viewBox="0 0 480.043 480.043" style="enable-background:new 0 0 480.043 480.043;" xml:space="preserve">
<g>
	<g>
		<path d="M132.8,358.55l8.872-8.872l-11.312-11.312l-8.888,8.856c-19.809-14.955-47.135-14.955-66.944,0l-8.872-8.856
			l-11.312,11.312l8.856,8.872c-14.955,19.809-14.955,47.135,0,66.944l-8.856,8.872l11.312,11.312l8.872-8.856
			c19.809,14.955,47.135,14.955,66.944,0l8.864,8.864l11.312-11.312l-8.848-8.88C147.755,405.685,147.755,378.359,132.8,358.55z
			 M88,352.022c7.838,0.002,15.5,2.32,22.024,6.664L98.28,370.422c-6.477-3.211-14.083-3.211-20.56,0l-11.744-11.744
			C72.501,354.337,80.163,352.021,88,352.022z M96,392.022c0,4.418-3.582,8-8,8s-8-3.582-8-8s3.582-8,8-8S96,387.604,96,392.022z
			 M48,392.022c0.002-7.838,2.32-15.5,6.664-22.024L66.4,381.742c-3.211,6.477-3.211,14.083,0,20.56l-11.736,11.744
			C50.32,407.522,48.002,399.86,48,392.022z M88,432.022c-7.838-0.002-15.5-2.32-22.024-6.664l11.744-11.736
			c6.477,3.211,14.083,3.211,20.56,0l11.744,11.744C103.499,429.707,95.837,432.023,88,432.022z M121.336,414.046L109.6,402.302
			c3.211-6.477,3.211-14.083,0-20.56l11.744-11.744c4.341,6.525,6.657,14.187,6.656,22.024
			C127.998,399.86,125.68,407.522,121.336,414.046z"/>
	</g>
</g>
<g>
	<g>
		<path d="M470.515,92.868c-3.561-9.302-8.079-18.207-13.483-26.574l20.624-20.624c3.118-3.123,3.118-8.181,0-11.304l-32-32
			c-3.124-3.123-8.188-3.123-11.312,0L413.72,22.99C360.125-11.668,290.068-6.703,241.896,35.166
			c-3.347,2.884-3.722,7.936-0.837,11.283c2.209,2.564,5.793,3.46,8.949,2.237c40.718-15.567,86.549-9.451,121.76,16.248
			l-25.424,25.432L232,204.71V56.022c0-4.418-3.582-8-8-8H64c-2.852,0.006-5.486,1.53-6.912,4l-56,96l0.112,0.072
			c-0.746,1.178-1.16,2.535-1.2,3.928v320c0,4.418,3.582,8,8,8h160c2.818-0.024,5.41-1.549,6.8-4l0.112,0.064l56-96
			c0.719-1.233,1.094-2.637,1.088-4.064v-84.688l157.656-157.656l21.432-21.432c25.42,52.08,12.494,114.754-31.456,152.528
			c-3.345,2.887-3.716,7.939-0.829,11.283c1.521,1.762,3.733,2.774,6.061,2.773c0.987-0.001,1.966-0.183,2.888-0.536
			C461.811,249.945,498.865,166.926,470.515,92.868z M440,19.334l20.688,20.688l-13.12,13.12
			c-6.178-7.578-13.11-14.51-20.688-20.688L440,19.334z M160,464.022H16v-144h144V464.022z M160,304.022H16v-144h144V304.022z
			 M163.4,144.022H21.928l46.664-80h141.48L163.4,144.022z M216,373.854l-40,68.568V154.19l40-68.568V220.71l-29.656,29.656
			c-3.123,3.124-3.123,8.188,0,11.312L216,291.334V373.854z M224,276.71l-20.688-20.688L352,107.334l20.688,20.688L224,276.71z
			 M420.52,240.19c26.19-44.942,25.957-100.55-0.608-145.272c-1.258-2.127-3.428-3.553-5.88-3.864c-0.332-0.041-0.666-0.063-1-0.064
			c-2.122,0-4.156,0.844-5.656,2.344L384,116.71l-20.688-20.688l26.128-26.128c3.123-3.125,3.122-8.19-0.003-11.314
			c-0.155-0.155-0.317-0.304-0.485-0.446c-27.173-23.042-61.935-35.172-97.544-34.04c66.269-24.614,139.944,9.154,164.558,75.423
			C474.429,149.224,460.332,205.167,420.52,240.19z"/>
	</g>
</g>
<g>
	<g>
		<path d="M132.8,198.55l8.872-8.872l-11.312-11.312l-8.888,8.856c-19.809-14.955-47.135-14.955-66.944,0l-8.872-8.856
			l-11.312,11.312l8.856,8.872c-14.955,19.809-14.955,47.135,0,66.944l-8.856,8.872l11.312,11.312l8.872-8.856
			c19.809,14.955,47.135,14.955,66.944,0l8.864,8.864l11.312-11.312l-8.848-8.88C147.755,245.685,147.755,218.359,132.8,198.55z
			 M88,192.022c7.838,0.002,15.5,2.32,22.024,6.664L98.28,210.422c-6.477-3.211-14.083-3.211-20.56,0l-11.744-11.744
			C72.501,194.337,80.163,192.021,88,192.022z M96,232.022c0,4.418-3.582,8-8,8s-8-3.582-8-8s3.582-8,8-8S96,227.604,96,232.022z
			 M48,232.022c0.002-7.838,2.32-15.5,6.664-22.024L66.4,221.742c-3.211,6.477-3.211,14.083,0,20.56l-11.736,11.744
			C50.32,247.522,48.002,239.86,48,232.022z M88,272.022c-7.838-0.002-15.5-2.32-22.024-6.664l11.744-11.736
			c6.477,3.211,14.083,3.211,20.56,0l11.744,11.744C103.499,269.707,95.837,272.023,88,272.022z M121.336,254.046L109.6,242.302
			c3.211-6.477,3.211-14.083,0-20.56l11.744-11.744c4.341,6.525,6.657,14.187,6.656,22.024
			C127.998,239.86,125.68,247.522,121.336,254.046z"/>
	</g>
</g>
<g>
	<g>
		<rect x="416" y="320.022" width="16" height="16"/>
	</g>
</g>
<g>
	<g>
		<rect x="416" y="352.022" width="16" height="16"/>
	</g>
</g>
<g>
	<g>
		<rect x="416" y="384.022" width="16" height="16"/>
	</g>
</g>
<g>
	<g>
		<rect x="416" y="416.022" width="16" height="16"/>
	</g>
</g>
<g>
	<g>
		<rect x="384" y="416.022" width="16" height="16"/>
	</g>
</g>
<g>
	<g>
		<rect x="352" y="416.022" width="16" height="16"/>
	</g>
</g>
<g>
	<g>
		<rect x="320" y="416.022" width="16" height="16"/>
	</g>
</g>
<g>
	<g>
		<rect x="288" y="416.022" width="16" height="16"/>
	</g>
</g>
<g>
	<g>
		<rect x="416" y="288.022" width="16" height="16"/>
	</g>
</g>
<g>
	<g>
		<rect x="256" y="416.022" width="16" height="16"/>
	</g>
</g>
<g>
</g>
<g>
</g>
<g>
</g>
<g>
</g>
<g>
</g>
<g>
</g>
<g>
</g>
<g>
</g>
<g>
</g>
<g>
</g>
<g>
</g>
<g>
</g>
<g>
</g>
<g>
</g>
<g>
</g>
</svg>
