<?xml version="1.0" encoding="utf-8"?>
<!-- Generator: Adobe Illustrator 21.1.0, SVG Export Plug-In . SVG Version: 6.00 Build 0)  -->
<svg version="1.1" id="Layer_1" xmlns="http://www.w3.org/2000/svg" xmlns:xlink="http://www.w3.org/1999/xlink" x="0px" y="0px"
	 viewBox="0 0 103.8 103.4" style="enable-background:new 0 0 103.8 103.4;" xml:space="preserve">
<style type="text/css">
	.st0{fill:#BA0015;}
	.st1{fill:#FFFFFF;}
</style>
<g id="master">
	<path id="bg" class="st0" d="M102.2,64.2c-6.8,27.8-34.9,44.5-62.5,37.6C11.9,94.9-4.8,66.9,2.1,39.2C8.9,11.4,37-5.3,64.6,1.6
		C92.4,8.3,109.2,36.5,102.2,64.2L102.2,64.2L102.2,64.2L102.2,64.2z"/>
	<path class="st1" d="M55.6,67.7c19.2-1.4,35.6-16,35.6-16s-15.7-14.3-34.6-16L52.6,29l-4.1,6.8c-19.4,2-34.7,15.9-34.7,15.9
		s15.4,14.5,35.5,16l3.2,5.7L55.6,67.7z M17.1,51.7c0,0,14.5-9.7,29.1-12l-2.3,3.8l1.8,3.4l4.6-7.7c0.6,0,1.3-0.1,1.9-0.1
		c0.8,0,1.6,0,2.4,0.1l4.5,7.7l1.9-3.4l-2.1-3.7c14.5,2.5,29.2,11.9,29.2,11.9S73,62,57.7,64l7.5-13.5L63,47.3l-8.8,17
		c-0.5,0-1.1,0-1.6,0c-0.6,0-1.1,0-1.7,0l-9.1-17l-2.2,3.1l7.5,13.5C32,61.8,17.1,51.7,17.1,51.7z"/>
</g>
<g id="guides">
</g>
</svg>
