<?xml version="1.0" encoding="utf-8"?>
<!-- Generator: Adobe Illustrator 21.1.0, SVG Export Plug-In . SVG Version: 6.00 Build 0)  -->
<svg version="1.1" id="Layer_1" xmlns="http://www.w3.org/2000/svg" xmlns:xlink="http://www.w3.org/1999/xlink" x="0px" y="0px"
	 viewBox="0 0 103.8 103.4" style="enable-background:new 0 0 103.8 103.4;" xml:space="preserve">
<style type="text/css">
	.st0{fill:#F4B13F;}
	.st1{fill:#FFFFFF;}
</style>
<g id="master">
	<path id="bg" class="st0" d="M102.2,64.2c-6.8,27.8-34.9,44.5-62.5,37.6C11.9,94.9-4.8,66.9,2.1,39.2C8.9,11.4,37-5.3,64.6,1.6
		C92.4,8.3,109.2,36.5,102.2,64.2L102.2,64.2L102.2,64.2L102.2,64.2z"/>
</g>
<path class="st1" d="M89.7,29.7c-11,0.1-35.9-0.3-36.6-0.1L41.3,40.7L26.7,26.3c0,0-0.1-0.5-1.3-0.5c-0.3,0-0.6,0.1-0.9,0.3
	L11.9,38.8c-0.3,0.3-0.4,0.7-0.4,1.2c0.1,0.9,1,1.2,1,1.2L24,41.2c0,0-0.3,15.9,0.1,16.5s28.1,26.5,28.1,26.5
	c0.3,0.3,0.7,0.5,1.1,0.6c1.2,0.2,1.4-1,1.4-1l0.1-22.6c0,0,24.8-20.3,35-28.8c0.3-0.2,0.6,0.1,0.7-1.4
	C90.5,30.2,90.3,29.7,89.7,29.7z M23.9,38.2l-6.9,0l7-7L23.9,38.2z M27.3,31.3l11.5,11.5L27.3,53.6L27.3,31.3z M43.3,71l8.5-7.1
	l-0.1,15.7L43.3,71z M40.8,68.8L27.9,57.1l26.5-24.6l30.6-0.1L40.8,68.8z"/>
</svg>
