<?xml version="1.0" encoding="utf-8"?>
<!-- Generator: Adobe Illustrator 21.1.0, SVG Export Plug-In . SVG Version: 6.00 Build 0)  -->
<svg version="1.1" id="Layer_1" xmlns="http://www.w3.org/2000/svg" xmlns:xlink="http://www.w3.org/1999/xlink" x="0px" y="0px"
	 viewBox="0 0 103.8 103.4" style="enable-background:new 0 0 103.8 103.4;" xml:space="preserve">
<style type="text/css">
	.st0{fill:#FFBB00;}
	.st1{fill:#FFFFFF;}
	.st2{fill:none;stroke:#FFFFFF;stroke-width:0.5;stroke-miterlimit:10;}
</style>
<g id="master">
	<path id="bg" class="st0" d="M102.2,64.2c-6.8,27.8-34.9,44.5-62.5,37.6C11.9,94.9-4.8,66.9,2.1,39.2C8.9,11.4,37-5.3,64.6,1.6
		C92.4,8.3,109.2,36.5,102.2,64.2L102.2,64.2L102.2,64.2L102.2,64.2z"/>
</g>
<g id="logo">
	<path id="_x33_" class="st1" d="M75,43.2c-4.9,0-8.9,4-8.9,8.9c0.1,1.9,0,2.7-1.7,3.8c-1.6,1.2-3.5,0-3.5,0l0,0
		c-1.4-0.8-2.9-1.3-4.6-1.3c-4.6,0-8.3,3.4-8.8,7.9l0,0c0,0,0,0,0,0c0,0.3-0.1,0.6-0.1,1c0,0,0,0,0,0.1c-0.1,1.6-0.3,2.5-1.6,3.6
		c-1.4,1.1-3.6,0.1-4.2-0.2c0,0-0.1,0-0.1-0.1c0,0-0.1,0-0.1,0l0,0c-1.2-0.6-2.6-1-4.1-1c-4.9,0-8.9,4-8.9,8.9s4,8.9,8.9,8.9
		s8.9-4,8.9-8.9c0.1-1.4,0.4-2.9,1.7-3.9c1.3-1,4.4,0.6,4.4,0.6l0,0c1.2,0.6,2.5,0.9,3.9,0.9c4.9,0,8.9-4,8.9-8.9c0-0.2,0-0.4,0-0.6
		l0,0c0-1.4,0.3-2.5,1.8-3.4C68.4,58.6,71,60,71,60l0,0c1.2,0.6,2.5,0.9,4,0.9c4.9,0,8.9-4,8.9-8.9S79.9,43.2,75,43.2z"/>
	<path id="_x32_" class="st1" d="M56.2,31.8c-4.9,0-8.9,4-8.9,8.9c0.1,1.9,0,2.7-1.7,3.8c-1.6,1.2-3.5,0-3.5,0l0,0
		c-1.4-0.8-2.9-1.3-4.6-1.3c-4.9,0-8.9,4-8.9,8.9s4,8.9,8.9,8.9s8.9-4,8.9-8.9c0-0.2,0-0.4,0-0.6l0,0c0-1.4,0.3-2.5,1.8-3.4
		c1.5-0.9,4.1,0.5,4.1,0.5l0,0c1.2,0.6,2.5,0.9,4,0.9c4.9,0,8.9-4,8.9-8.9S61.1,31.8,56.2,31.8z"/>
	<path class="st1" d="M43.9,35.6l-0.8-3.7l-1.8-1.4l-1.5-1.6l-2.4-2.4l-2.2-2.3l-2.6,2.3l-0.7-0.3l-0.4-2.7l-0.1-0.1
		c-1.8,1.6-2.9,3.9-2.9,6.5c0,4.9,4,8.9,8.9,8.9c2.6,0,4.9-1.1,6.5-2.9L43.9,35.6z"/>
	<circle class="st1" cx="31.2" cy="23.4" r="1.2"/>
	<circle class="st1" cx="35.3" cy="24.3" r="1.2"/>
	<circle class="st1" cx="37.4" cy="20.8" r="1.2"/>
	<circle class="st1" cx="43.9" cy="23.2" r="1.2"/>
	<circle class="st1" cx="46.5" cy="29.8" r="1.2"/>
	<circle class="st1" cx="42.9" cy="32" r="1.2"/>
	<circle class="st1" cx="40.5" cy="29.8" r="1.2"/>
	<circle class="st1" cx="42.9" cy="27.6" r="1.2"/>
	<circle class="st1" cx="39.8" cy="24.3" r="1.2"/>
	<circle class="st1" cx="37.4" cy="26.9" r="1.2"/>
	<circle class="st1" cx="43.6" cy="36" r="1.2"/>
	<line class="st2" x1="43.9" y1="35.6" x2="46.5" y2="29.8"/>
	<line class="st2" x1="43.9" y1="23.2" x2="46.1" y2="29.1"/>
	<line class="st2" x1="42.9" y1="27.6" x2="45.9" y2="29.6"/>
	<line class="st2" x1="41.2" y1="29.2" x2="42.1" y2="28.4"/>
	<line class="st2" x1="43.6" y1="23.7" x2="42.9" y2="27.6"/>
	<line class="st2" x1="42.4" y1="26.9" x2="40.2" y2="24.6"/>
	<line class="st2" x1="43.3" y1="23.3" x2="40.5" y2="24"/>
	<line class="st2" x1="38" y1="21" x2="42.9" y2="22.9"/>
	<line class="st2" x1="39.3" y1="23.4" x2="37.8" y2="21.4"/>
	<line class="st2" x1="35.7" y1="23.4" x2="37.2" y2="21.5"/>
	<line class="st2" x1="32.1" y1="23.1" x2="36.3" y2="21.2"/>
	<line class="st2" x1="34.2" y1="24.1" x2="32" y2="23.7"/>
	<line class="st2" x1="39.1" y1="24.9" x2="38" y2="26.4"/>
	<line class="st2" x1="45.9" y1="30.2" x2="43.6" y2="31.6"/>
</g>
</svg>
