<?xml version="1.0" encoding="utf-8"?>
<!-- Generator: Adobe Illustrator 21.1.0, SVG Export Plug-In . SVG Version: 6.00 Build 0)  -->
<svg version="1.1" id="Layer_1" xmlns="http://www.w3.org/2000/svg" xmlns:xlink="http://www.w3.org/1999/xlink" x="0px" y="0px"
	 viewBox="0 0 103.8 103.4" style="enable-background:new 0 0 103.8 103.4;" xml:space="preserve">
<style type="text/css">
	.st0{fill:#1C75BC;}
	.st1{fill:#FFFFFF;}
</style>
<g id="master">
	<path id="bg" class="st0" d="M102.2,64.2c-6.8,27.8-34.9,44.5-62.5,37.6C11.9,94.9-4.8,66.9,2.1,39.2C8.9,11.4,37-5.3,64.6,1.6
		C92.4,8.3,109.2,36.5,102.2,64.2L102.2,64.2L102.2,64.2L102.2,64.2z"/>
</g>
<g>
	<polygon class="st1" points="47.4,46.9 26.7,46.9 24.3,54.7 45,54.7 	"/>
	<path class="st1" d="M80.5,36.9c-1.2-3-5.3-3-5.3-3H36.4l-2.6,8.5h34.7l-5.2,17h-35l-2.6,8.5H63c0,0,2.8,0.5,7.2-2.2
		c4.4-2.7,5.7-7.4,5.7-7.4s3.9-12.3,4.6-15.1S81.7,39.9,80.5,36.9z"/>
</g>
</svg>
