<?xml version="1.0" encoding="utf-8"?>
<!-- Generator: Adobe Illustrator 21.1.0, SVG Export Plug-In . SVG Version: 6.00 Build 0)  -->
<svg version="1.1" id="Layer_1" xmlns="http://www.w3.org/2000/svg" xmlns:xlink="http://www.w3.org/1999/xlink" x="0px" y="0px"
	 viewBox="0 0 103.8 103.4" style="enable-background:new 0 0 103.8 103.4;" xml:space="preserve">
<style type="text/css">
	.st0{fill:#004651;}
	.st1{fill:#FFFFFF;}
</style>
<g id="master">
	<path id="bg" class="st0" d="M102.2,64.2c-6.8,27.8-34.9,44.5-62.5,37.6C11.9,94.9-4.8,66.9,2.1,39.2C8.9,11.4,37-5.3,64.6,1.6
		C92.4,8.3,109.2,36.5,102.2,64.2L102.2,64.2L102.2,64.2L102.2,64.2z"/>
</g>
<path class="st1" d="M70.6,21.1c-0.2,0.3-0.5,0.4-0.8,0.2c-5.5-3.2-11.8-5-18.2-5c-5.9,0-11.7,1.5-16.8,4.2
	c-0.3,0.2-0.6,0.1-0.8-0.2l-2-3.5c-0.2-0.3-0.1-0.7,0.2-0.8c5.9-3.2,12.6-4.8,19.3-4.8c7.4,0,14.6,2,20.9,5.7
	c0.3,0.2,0.4,0.5,0.2,0.8L70.6,21.1z"/>
<path class="st1" d="M86.4,41.8c-1.3-4.5-3.5-8.7-6.5-12.4c-0.2-0.3-0.2-0.6,0.1-0.8l2.4-2c0.3-0.2,0.6-0.2,0.8,0.1
	c3.4,4.2,5.8,8.9,7.3,14c0.1,0.3-0.1,0.7-0.4,0.7l-3.1,0.8C86.8,42.3,86.4,42.1,86.4,41.8z"/>
<path class="st1" d="M77.7,82.8l-2.6-3.1c-0.2-0.2-0.2-0.6,0.1-0.8c7.6-6.7,12-16.2,12.2-26.3c0-0.3,0.3-0.6,0.6-0.6h4
	c0.3,0,0.6,0.3,0.6,0.6c-0.2,11.6-5.3,22.6-14,30.3C78.3,83.1,77.9,83.1,77.7,82.8z"/>
<path class="st1" d="M51.7,93c-9.3,0-18.4-3.2-25.6-9c-0.3-0.2-0.3-0.6-0.1-0.8l2.6-3.1c0.2-0.2,0.6-0.3,0.8-0.1
	c6.3,5,14.2,7.8,22.3,7.8c5.6,0,10.9-1.3,15.9-3.7c0.3-0.1,0.6,0,0.8,0.3l1.9,3.6c0.2,0.3,0,0.7-0.3,0.8C64.3,91.5,58,93,51.7,93z"
	/>
<path class="st1" d="M18.4,74c-0.3,0.2-0.7,0.1-0.8-0.2c-4.1-6.5-6.3-14-6.3-21.8c0-10.9,4.2-21,11.9-28.7c0.2-0.2,0.6-0.2,0.8,0
	l2.2,2.3c0.2,0.2,0.2,0.6,0,0.8C19.3,33.3,15.5,42.4,15.5,52c0,6.9,1.9,13.6,5.6,19.4c0.2,0.3,0.1,0.6-0.2,0.8L18.4,74z"/>
<path class="st1" d="M51.7,78.7C37,78.7,25,66.7,25,52s12-26.7,26.6-26.7c14.7,0,26.7,12,26.7,26.7C78.3,66.7,66.4,78.7,51.7,78.7z
	 M51.7,30.6c-11.8,0-21.4,9.6-21.4,21.4s9.6,21.4,21.4,21.4c11.8,0,21.4-9.6,21.4-21.4C73.1,40.2,63.5,30.6,51.7,30.6z"/>
</svg>
