<?xml version="1.0" encoding="utf-8"?>
<!-- Generator: Adobe Illustrator 21.1.0, SVG Export Plug-In . SVG Version: 6.00 Build 0)  -->
<svg version="1.1" id="Layer_1" xmlns="http://www.w3.org/2000/svg" xmlns:xlink="http://www.w3.org/1999/xlink" x="0px" y="0px"
	 viewBox="0 0 103.8 103.4" style="enable-background:new 0 0 103.8 103.4;" xml:space="preserve">
<style type="text/css">
	.st0{fill:#EFA672;}
	.st1{fill:#FFFFFF;enable-background:new    ;}
	.st2{display:none;fill:#FFFFFF;enable-background:new    ;}
	.st3{fill:#FFFFFF;}
</style>
<g id="master">
	<path id="bg" class="st0" d="M102.2,64.2c-6.8,27.8-34.9,44.5-62.5,37.6C11.9,94.9-4.8,66.9,2.1,39.2C8.9,11.4,37-5.3,64.6,1.6
		C92.4,8.3,109.2,36.5,102.2,64.2L102.2,64.2L102.2,64.2L102.2,64.2z"/>
</g>
<g id="Page-1">
	<g id="endless-stairs">
		<g id="Group" transform="translate(-40.000000, -39.000000)">
			<path id="Combined-Shape-Copy-4" class="st1" d="M115.8,60.6c-5.4-4-12-6.6-19.2-7.2c-20.9-1.8-39.3,13.6-41.1,34.5
				c-1.5,16.9,8.3,32.2,23.2,38.4l9-21.8c-5.6-2.3-9.3-8.1-8.8-14.5c0.7-7.9,7.6-13.7,15.5-13c2.7,0.2,5.2,1.2,7.2,2.7L115.8,60.6z"
				/>
			<g id="stairs" transform="translate(276.235668, 695.297618)">
				<path id="Combined-Shape-Copy-5" class="st1" d="M-184.1-566.2c-4.7-0.1-9.4-1.2-13.6-3l9.1-21.7c1.6,0.7,3.4,1.1,5.2,1.1
					L-184.1-566.2z"/>
				<path id="Combined-Shape-Copy-6" class="st2" d="M-182.4-566.2c-0.6,0-1.3,0-1.9,0l0.7-22.5c0.3,0,0.5,0,0.8,0L-182.4-566.2z"/>
			</g>
			
				<g id="stairs-copy" transform="translate(623.514845, 892.734186) rotate(-24.000000) translate(-623.514845, -892.734186) translate(430.014845, 710.234186)">
				<path id="Combined-Shape-Copy-5_1_" class="st1" d="M33.8-727.6c-4.7-0.1-9.4-1.2-13.6-3l8.4-20c1.8,0.8,3.8,1.2,5.8,1.3
					L33.8-727.6z"/>
				<path id="Combined-Shape-Copy-6_1_" class="st2" d="M35.5-727.5c-0.6,0-1.3,0-1.9,0l0.6-20.1c0.3,0,0.6,0,0.9,0L35.5-727.5z"/>
			</g>
			
				<g id="stairs-copy-2" transform="translate(759.290097, 859.119740) rotate(-43.000000) translate(-759.290097, -859.119740) translate(605.790097, 717.119740)">
				<path id="Combined-Shape-Copy-5_2_" class="st1" d="M188.3-836.2c-3.5-0.1-7-0.7-10.2-1.7l4.9-15.8c1.9,0.5,3.8,0.7,5.8,0.6
					L188.3-836.2z"/>
				<path id="Combined-Shape-Copy-6_2_" class="st2" d="M190-836.1c-0.6,0-1.3,0-1.9,0l0.5-16.1c0.4,0,0.7,0,1.1,0L190-836.1z"/>
			</g>
			
				<g id="stairs-copy-3" transform="translate(845.615876, 796.510224) rotate(-55.000000) translate(-845.615876, -796.510224) translate(726.115876, 682.510224)">
				<path id="Combined-Shape-Copy-5_3_" class="st3" d="M264.1-869.2c-2.2-0.1-4.4-0.3-6.5-0.8l2.8-13.9c1.3,0.3,2.7,0.4,4.1,0.3
					L264.1-869.2z"/>
				<path id="Combined-Shape-Copy-6_3_" class="st2" d="M265.8-869.2c-0.6,0-1.3,0-1.9,0l0.4-13.8c0.4,0,0.8,0,1.2,0L265.8-869.2z"
					/>
			</g>
			
				<g id="top-stairs" transform="translate(801.701425, 310.357893) rotate(-138.000000) translate(-801.701425, -310.357893) translate(591.701425, 117.857893)">
				<path id="Combined-Shape-Copy-6_4_" class="st3" d="M884.2-80.8c-0.6,0-1.3,0-1.9,0l0.8-24.8c0.2,0,0.4,0,0.7,0L884.2-80.8z"/>
			</g>
			
				<g id="top-stairs-copy" transform="translate(812.190616, 361.309388) rotate(-121.000000) translate(-812.190616, -361.309388) translate(635.690616, 178.809388)">
				<path id="Combined-Shape-Copy-6_5_" class="st3" d="M780.1-256.6c-0.6,0-1.3,0-1.9,0l0.8-26.6c0.2,0,0.4,0,0.6,0L780.1-256.6z"
					/>
			</g>
		</g>
	</g>
</g>
</svg>
