<?xml version="1.0" encoding="utf-8"?>
<!-- Generator: Adobe Illustrator 22.1.0, SVG Export Plug-In . SVG Version: 6.00 Build 0)  -->
<svg version="1.1" id="Layer_1" xmlns="http://www.w3.org/2000/svg" xmlns:xlink="http://www.w3.org/1999/xlink" x="0px" y="0px"
	 viewBox="0 0 103.8 103.4" style="enable-background:new 0 0 103.8 103.4;" xml:space="preserve">
<style type="text/css">
	.st0{fill:#AC31F1;}
	.st1{fill:#FFFFFF;}
</style>
<g id="master">
	<path id="bg" class="st0" d="M102.2,64.2c-6.8,27.8-34.9,44.5-62.5,37.6C11.9,94.9-4.8,66.9,2.1,39.2C8.9,11.4,37-5.3,64.6,1.6
		C92.4,8.3,109.2,36.5,102.2,64.2L102.2,64.2L102.2,64.2L102.2,64.2z"/>
</g>
<path class="st1" d="M34.2,85.2H40h34.2c2.1,0,3.8-1.7,3.8-3.8V50.7c0-2.1-1.7-3.8-3.8-3.8H45.7c-1,0-1.9-0.8-1.9-1.9V19.6
	c0-2.1-1.7-3.8-3.8-3.8h-5.8c-2.1,0-3.8,1.7-3.8,3.8v31v30.8C30.4,83.5,32.1,85.2,34.2,85.2z"/>
</svg>
