<?xml version="1.0" encoding="utf-8"?>
<!-- Generator: Adobe Illustrator 21.1.0, SVG Export Plug-In . SVG Version: 6.00 Build 0)  -->
<svg version="1.1" id="Layer_1" xmlns="http://www.w3.org/2000/svg" xmlns:xlink="http://www.w3.org/1999/xlink" x="0px" y="0px"
	 viewBox="0 0 103.8 103.4" style="enable-background:new 0 0 103.8 103.4;" xml:space="preserve">
<style type="text/css">
	.st0{fill:#2C3D4F;}
	.st1{fill:#FFFFFF;}
</style>
<g id="master">
	<path id="bg" class="st0" d="M102.2,64.2c-6.8,27.8-34.9,44.5-62.5,37.6C11.9,94.9-4.8,66.9,2.1,39.2C8.9,11.4,37-5.3,64.6,1.6
		C92.4,8.3,109.2,36.5,102.2,64.2L102.2,64.2L102.2,64.2L102.2,64.2z"/>
</g>
<path class="st1" d="M52.2,4.1c26.3,0,47.6,21.3,47.6,47.7c0,26.6-21.9,48-48.5,47.6c-26-0.4-47.4-22-46.8-48.7
	C5.1,25.1,25.9,4,52.2,4.1z M8.6,51.7C8.4,75.3,27.7,94.8,51.3,95.3C75,95.8,95.7,76.9,95.7,51.8c0-24.4-19.5-43.6-43.5-43.7
	C28,8,8.6,27.5,8.6,51.7z"/>
<path class="st1" d="M85.1,38.8c-1.6,0-3,0-4.4,0c-3.3,0-6.5,0-9.8,0c-0.5,0-1.2-0.3-1.5-0.7c-4.7-5.7-10.8-8.4-18.2-8.3
	c-9.8,0.2-18.8,8.1-20.4,17.8c-2.1,12.6,5.7,23.7,18.3,25.7c8.3,1.3,15-1.8,20.4-8.1c0.3-0.3,0.7-0.6,1.1-0.6c4.6,0,9.3,0,13.9,0
	c0.2,0,0.4,0.1,0.7,0.1c-2.4,5.7-5.8,10.6-10.6,14.5c-7,5.6-15.1,8.4-24.2,7.9c-18.6-0.9-33.4-16-33.7-34.6
	c-0.4-18.6,13.3-33.9,31.4-36C66.5,14.4,80.9,26.6,85.1,38.8z"/>
<path class="st1" d="M52.1,38.8c7.2,0.1,12.9,5.8,12.8,13c-0.1,7.1-5.9,12.8-13,12.7C44.3,64.4,39,58,39.2,51.1
	C39.5,44.5,45.3,38.8,52.1,38.8z"/>
</svg>
