<?xml version="1.0" encoding="utf-8"?>
<!-- Generator: Adobe Illustrator 22.0.1, SVG Export Plug-In . SVG Version: 6.00 Build 0)  -->
<svg version="1.1" id="Layer_1" xmlns="http://www.w3.org/2000/svg" xmlns:xlink="http://www.w3.org/1999/xlink" x="0px" y="0px"
	 viewBox="0 0 103.8 103.4" style="enable-background:new 0 0 103.8 103.4;" xml:space="preserve">
<style type="text/css">
	.st0{fill:#FF6901;}
	.st1{fill:#FFFFFF;}
</style>
<path id="bg" class="st0" d="M102.2,64.2c-6.8,27.8-34.9,44.5-62.5,37.6C11.9,94.9-4.8,66.9,2.1,39.2C8.9,11.4,37-5.3,64.6,1.6
	C92.4,8.3,109.2,36.5,102.2,64.2L102.2,64.2L102.2,64.2L102.2,64.2z"/>
<path class="st1" d="M99.6,31.2l-6.3,5.7v1.3l-0.7-0.7l-4.8,4.4v1.8l-0.9-0.9l-4.6,4.2v2.3L81.1,48l-4.4,4v2.8l-1.5-1.5l-4.2,3.8
	l-2.6-2.6L95.2,23c-0.2-0.3-0.4-0.5-0.6-0.8l-8.4,7.6v1.3l-0.7-0.7l-4.8,4.4v1.8l-0.9-0.9l-4.6,4.2v2.3L74,41l-4.4,4v2.8l-1.5-1.5
	L64,50.1L51.6,37.6l0.1,5.8l-0.4,0.2c-15.9,5.5-29.6,16-39,29.9l-0.7,1l2.9,7.2L12,84.2c1.1,1.4,2.3,2.7,3.6,4l1-1l1.3,3.2
	c2.4,2.1,4.9,4,7.7,5.6l-8.4-20.5C22.3,68.2,28.7,62,36,57c-6.5,8.6-10,19-10,29.7v9.5c1.6,1,3.4,1.8,5.1,2.6V86.7
	c0.1-16.3,9-31.2,23.3-38.9l28.9,28.9l-2.1,2.1c-3.3,3.3-8.6,3.3-11.9,0.1c-0.7-0.7-4.5-4.7-10.3-4.7c-6.4,0-6.9-4.1-6.9-4.9H47
	c0,9.9,7.7,15.6,14.5,20.6c4.7,3.5,8.9,6.5,9.3,10.1c1.6-0.6,3.2-1.4,4.8-2.1c-1.4-5-6.3-8.6-11.1-12.1c-2.8-2-5.6-4.1-7.9-6.5
	c0.8,0.1,1.6,0.1,2.4,0.1c3.8,0,6.4,3,6.4,3l0.1,0.2c5.3,5.3,13.9,5.3,19.3,0l5.7-5.7L75.5,61.6l24.6-29
	C100,32.1,99.8,31.6,99.6,31.2z"/>
<path class="st1" d="M47.6,23.1l-0.3-2.3c-0.1-0.5-0.4-0.9-0.8-1L44.3,19c-0.3-0.2-0.7,0-0.9,0.3c-0.1,0.1-0.1,0.3,0,0.4l0.3,2.3
	c0.1,0.5,0.4,0.9,0.8,1l2.1,0.8l0.1,0c0.2,0.1,0.4,0,0.6-0.1C47.6,23.6,47.7,23.3,47.6,23.1z"/>
<path class="st1" d="M57,23.1l0.3-2.3c0.1-0.5,0.4-0.9,0.8-1l2.1-0.8c0.3-0.2,0.7,0,0.9,0.3c0.1,0.1,0.1,0.3,0,0.4L61,22
	c-0.1,0.5-0.4,0.9-0.8,1L58,23.8l-0.1,0c-0.2,0.1-0.4,0-0.6-0.1C57.1,23.6,57,23.3,57,23.1z"/>
<path class="st1" d="M47.9,16.1c-1.1,0.9-1.2,2.5-0.3,3.6l2.8,3.4c0.9,1.1,2.5,1.2,3.5,0.4c0,0,0,0,0,0c1.1-0.9,1.2-2.5,0.3-3.6
	l-2.8-3.4C50.6,15.3,49,15.2,47.9,16.1C47.9,16.1,47.9,16.1,47.9,16.1z"/>
<path class="st1" d="M54.3,23.1L54.3,23.1c0.8-1,0.8-2.3,0-3.3l-2-2.4l0.9-1c0.9-1.1,2.5-1.2,3.5-0.4c0,0,0,0,0,0
	c1.1,0.9,1.2,2.5,0.3,3.6L54.3,23.1z"/>
<path class="st1" d="M44.7,29.6c0.3,0.3,0.6,0.4,1,0.4h13.2c0.4,0,0.7-0.2,1-0.4l1.7-1.7c0.3-0.3,0.4-0.6,0.4-1V26
	c0-0.3-0.3-0.6-0.6-0.6H43.2c-0.3,0-0.6,0.3-0.6,0.6v0.9c0,0.4,0.2,0.7,0.4,1L44.7,29.6z"/>
<path class="st1" d="M65,64.4l-3.8-3.8c-1.1,1-1.1,2.7-0.1,3.8c1,1.1,2.7,1.1,3.8,0.1C64.9,64.5,64.9,64.4,65,64.4z"/>
</svg>
