<?xml version="1.0" encoding="utf-8"?>
<!-- Generator: Adobe Illustrator 21.1.0, SVG Export Plug-In . SVG Version: 6.00 Build 0)  -->
<svg version="1.1" id="Layer_1" xmlns="http://www.w3.org/2000/svg" xmlns:xlink="http://www.w3.org/1999/xlink" x="0px" y="0px"
	 viewBox="0 0 103.8 103.4" style="enable-background:new 0 0 103.8 103.4;" xml:space="preserve">
<style type="text/css">
	.st0{fill:#5BD000;}
	.st1{fill:#FFFFFF;}
</style>
<g id="master">
	<path id="bg" class="st0" d="M102.2,64.2c-6.8,27.8-34.9,44.5-62.5,37.6C11.9,94.9-4.8,66.9,2.1,39.2C8.9,11.4,37-5.3,64.6,1.6
		C92.4,8.3,109.2,36.5,102.2,64.2L102.2,64.2L102.2,64.2L102.2,64.2z"/>
	<polygon class="st1" points="31.5,55.4 52.2,68 73.1,55.4 52.3,85.2 	"/>
	<path class="st1" d="M72,52.2c0,0-15.3-8.8-17.6-10.1c-2.2-1.3-3.9,0-3.9,0l-16.6,9.7c-2.2,1-1,2.1-1,2.1s13.5,8,16.7,10
		s4.7,0,4.7,0S70.9,54.3,72,53.6C73.1,52.9,72,52.2,72,52.2z M52.5,55.3c-2.2,0-4-1-4-2.3c0-1.3,1.8-2.3,4-2.3s4,1,4,2.3
		C56.4,54.3,54.7,55.3,52.5,55.3z"/>
	<path class="st1" d="M51.1,37.2c0,0,0-16,0-18.2s-1.4-1.2-1.4-1.2s-15,8.8-17.1,9.9s-1.7,2.8-1.7,2.8V48c0,2.8,1.4,1.9,1.4,1.9
		s14.8-8.4,16.9-9.9S51.1,37.2,51.1,37.2z M36.8,45.4c-1.2,1.7-2.9,2.6-3.9,1.9c-1-0.7-0.9-2.6,0.3-4.4c1.2-1.7,2.9-2.6,3.9-1.9
		C38.1,41.7,37.9,43.6,36.8,45.4z M43.2,35c-1.2,1.7-2.9,2.6-3.9,1.9c-1-0.7-0.9-2.6,0.3-4.4c1.2-1.7,2.9-2.6,3.9-1.9
		C44.4,31.3,44.3,33.2,43.2,35z M49.2,24.6c-1.2,1.7-2.9,2.6-3.9,1.9c-1-0.7-0.9-2.6,0.3-4.4c1.2-1.7,2.9-2.6,3.9-1.9
		C50.5,20.9,50.4,22.9,49.2,24.6z"/>
	<path class="st1" d="M72,27.7c-2.1-1.2-17.1-9.9-17.1-9.9s-1.4-1.1-1.4,1.2s0,18.2,0,18.2s-0.2,1.4,1.9,2.9s16.9,9.9,16.9,9.9
		s1.4,0.8,1.4-1.9V30.5C73.8,30.5,74.1,28.9,72,27.7z M59.8,40.3c-1,0.7-2.8-0.2-3.9-1.9c-1.2-1.7-1.3-3.7-0.3-4.4
		c1-0.7,2.8,0.2,3.9,1.9S60.8,39.6,59.8,40.3z M72.1,33.5c-1,0.7-2.8-0.2-3.9-1.9c-1.2-1.7-1.3-3.7-0.3-4.4c1-0.7,2.8,0.2,3.9,1.9
		S73.1,32.8,72.1,33.5z"/>
</g>
<g id="guides">
</g>
</svg>
