<?xml version="1.0" encoding="utf-8"?>
<!-- Generator: Adobe Illustrator 21.1.0, SVG Export Plug-In . SVG Version: 6.00 Build 0)  -->
<svg version="1.1" id="Layer_1" xmlns="http://www.w3.org/2000/svg" xmlns:xlink="http://www.w3.org/1999/xlink" x="0px" y="0px"
	 viewBox="0 0 103.8 103.4" style="enable-background:new 0 0 103.8 103.4;" xml:space="preserve">
<style type="text/css">
	.st0{fill:#777777;}
	.st1{fill:#FFFFFF;stroke:#777777;stroke-miterlimit:10;}
</style>
<g id="master">
	<path id="bg" class="st0" d="M102.2,64.2c-6.8,27.8-34.9,44.5-62.5,37.6C11.9,94.9-4.8,66.9,2.1,39.2C8.9,11.4,37-5.3,64.6,1.6
		C92.4,8.3,109.2,36.5,102.2,64.2L102.2,64.2L102.2,64.2L102.2,64.2z"/>
</g>
<g id="logo_1_">
	<polygon id="Shape_6_" class="st1" points="51.8,15.6 74.9,52.6 51.8,65.7 	"/>
	<polygon id="Shape_5_" class="st1" points="74.9,56.8 51.8,88.1 51.8,69.7 	"/>
	<polygon id="Shape_4_" class="st1" points="51.8,15.6 28.5,52.6 51.8,65.7 	"/>
	<polygon id="Shape_3_" class="st1" points="28.5,56.8 51.8,88.1 51.8,69.7 	"/>
	<polygon id="Shape_2_" class="st1" points="51.8,65.7 28.5,52.6 51.8,42.8 	"/>
	<polygon id="Shape_1_" class="st1" points="51.8,65.7 74.9,52.6 51.8,42.8 	"/>
</g>
</svg>
