<?xml version="1.0" encoding="utf-8"?>
<!-- Generator: Adobe Illustrator 21.1.0, SVG Export Plug-In . SVG Version: 6.00 Build 0)  -->
<svg version="1.1" id="Layer_1" xmlns="http://www.w3.org/2000/svg" xmlns:xlink="http://www.w3.org/1999/xlink" x="0px" y="0px"
	 viewBox="0 0 103.8 103.4" style="enable-background:new 0 0 103.8 103.4;" xml:space="preserve">
<style type="text/css">
	.st0{fill:#4D8BC6;}
</style>
<g id="master">
	<path id="bg" class="st0" d="M102.2,64.2c-6.8,27.8-34.9,44.5-62.5,37.6C11.9,94.9-4.8,66.9,2.1,39.2C8.9,11.4,37-5.3,64.6,1.6
		C92.4,8.3,109.2,36.5,102.2,64.2L102.2,64.2L102.2,64.2L102.2,64.2z"/>
</g>
<g id="Layer_2">
	<g>
		<defs>
			<path id="SVGID_1_" d="M70,36.1c-5.7,0-11.6,0-17.3,0c-0.6,0-0.4,0.5-0.3,0.6c1.9,2.8,2.4,3.4,5.3,7.6c2.9,4.2,4,7.1,3.8,11
				c0,1.3,0,2-0.5,3.3c-0.3,0.7-0.4,1.2-1.6,2.8c-1.9,2.3-2.6,3-5,4.6c-0.1,0.1,0.3,0.4,0.9,0.4c8.9,0,17.1,0,26,0
				c0.6,0,0.4-0.5,0.3-0.7c-0.7-1.7-1.3-3.4-2-5.1c-0.1-0.1-0.2-0.4-0.6-0.4c-1.2,0-2.3,0-3.5,0c-1.3,0-1.9,0-3.2,0
				c-1.3,0-2.1,0-3.4,0c-1.3,0-0.6,0-1.9,0l-1.6-5.7c0,0,7.1,0,8.9,0c0.2,0,0.4,0,0.2-0.4c-0.8-1.8-1.3-3.6-2-5.5
				c-0.1-0.3-0.3-0.4-0.6-0.4c-2.2,0-3.4,0-5.6,0c-0.2,0-0.3,0-0.5,0l-1.8-5.7c2.7,0,5.9,0,8.6,0c0.1,0,0.4-0.1,0.2-0.6
				c-0.7-1.8-1.4-3.6-2.1-5.3C70.6,36.3,70.5,36.1,70,36.1L70,36.1z"/>
		</defs>
		<use xlink:href="#SVGID_1_"  style="overflow:visible;fill-rule:evenodd;clip-rule:evenodd;fill:#FFFFFF;"/>
		<clipPath id="SVGID_2_">
			<use xlink:href="#SVGID_1_"  style="overflow:visible;"/>
		</clipPath>
	</g>
	<g>
		<defs>
			<path id="SVGID_3_" d="M98,65.4c-0.7-1.9-1-3.2-1.7-5.1C96.2,60,96,59.9,95.8,60l-6.2,0c-0.3,0-0.4-0.1-0.5-0.4
				c0-0.1-0.1-0.2-0.1-0.2c-3-7.2-5.3-14.4-8.2-21.5c-0.2-0.4-0.3-0.7-0.4-1.1c-0.3-0.7-0.7-0.7-0.9-0.7c-2.2,0-4.2,0-6.4,0
				c-0.6,0-0.5,0.4-0.5,0.6c3.8,9.7,6.9,19.3,10.8,28.9c0.2,0.6,0.7,0.6,0.9,0.6c4.9,0,8.4,0,13.3,0C97.9,66.2,98.3,66.1,98,65.4
				L98,65.4z"/>
		</defs>
		<use xlink:href="#SVGID_3_"  style="overflow:visible;fill-rule:evenodd;clip-rule:evenodd;fill:#FFFFFF;"/>
		<clipPath id="SVGID_4_">
			<use xlink:href="#SVGID_3_"  style="overflow:visible;"/>
		</clipPath>
	</g>
	<g>
		<defs>
			<path id="SVGID_5_" d="M49.3,36.1c0.3,0,0.4,0.1,0.6,0.3c2.4,3.5,4.8,6.9,7.1,10.4c1.2,1.8,2,3.9,2.2,6c0.4,3.4-0.5,6.4-2.7,8.9
				c-1.1,1.3-2.5,2.4-4,3.2c-1.8,1.1-3.8,1.9-5.9,2.2c-3.8,0.6-7.2-0.4-10-3.1c-1-0.9-1.8-2-2.5-3.1c-1.4-2.2-2.8-4.4-4.1-6.6
				c-0.2-0.3-0.4-0.4-0.7-0.4c-2.9,0-5.8,0-8.6,0c-0.5,0-0.5,0-0.6,0.4c-1.5,3.6-2.9,7.2-4.4,10.9c-0.1,0.2-0.1,0.6-0.9,0.6
				c-2,0-4.1,0-6.2,0c-0.3,0-0.8,0-0.5-0.7c3.8-9.5,7.7-18.9,11.3-28.4c0.3-0.7,1.1-0.7,1.3-0.7c6.3,0,10.4,0,13.2,0
				c0.4,0,0.6,0.1,0.8,0.4c1.2,1.8,2.1,3.1,3.4,4.9c0.1,0.1,0.8,0.9,0,0.9c-4,0-8.1,0-12.1,0c-0.1,0-0.3,0-0.4,0
				c-0.6,0-0.5-0.1-0.7,0.5c-0.6,1.6-1.2,3.1-1.9,4.6c0,0.1-0.1,0.2-0.2,0.4c0.2,0,0.4,0,0.6,0c3.6,0,7.2,0,10.8,0
				c0.4,0,0.6,0.1,0.8,0.4c1.9,2.8,3.8,5.6,5.8,8.4c0.4,0.6,0.8,1.2,1.4,1.8c1.7,1.8,4.1,2.2,6.4,1.2c0.8-0.3,1.5-0.8,2.1-1.4
				c0.7-0.8,1.1-1.7,1.1-2.7c0.1-1.8-0.5-3.5-1.6-4.9c-3.2-4.6-6.4-9.2-9.6-13.9c-0.1-0.2-0.3-0.4-0.4-0.6"/>
		</defs>
		<use xlink:href="#SVGID_5_"  style="overflow:visible;fill-rule:evenodd;clip-rule:evenodd;fill:#FFFFFF;"/>
		<clipPath id="SVGID_6_">
			<use xlink:href="#SVGID_5_"  style="overflow:visible;"/>
		</clipPath>
	</g>
</g>
</svg>
