<?xml version="1.0" encoding="utf-8"?>
<!-- Generator: Adobe Illustrator 22.1.0, SVG Export Plug-In . SVG Version: 6.00 Build 0)  -->
<svg version="1.1" id="Layer_1" xmlns="http://www.w3.org/2000/svg" xmlns:xlink="http://www.w3.org/1999/xlink" x="0px" y="0px"
	 viewBox="0 0 103.8 103.4" style="enable-background:new 0 0 103.8 103.4;" xml:space="preserve">
<style type="text/css">
	.st0{fill:#00B3D8;}
	.st1{fill:#FFFFFF;}
</style>
<g id="master">
	<path id="bg" class="st0" d="M102.2,64.2c-6.8,27.8-34.9,44.5-62.5,37.6C11.9,94.9-4.8,66.9,2.1,39.2C8.9,11.4,37-5.3,64.6,1.6
		C92.4,8.3,109.2,36.5,102.2,64.2L102.2,64.2L102.2,64.2L102.2,64.2z"/>
</g>
<g id="logo">
	<circle class="st1" cx="40.7" cy="63" r="1.8"/>
	<path class="st1" d="M62.9,37.9c-1,0-1.8,0.8-1.8,1.8c0,1,0.8,1.8,1.8,1.8c1,0,1.8-0.8,1.8-1.8C64.7,38.7,63.9,37.9,62.9,37.9z
		 M62.9,37.9c-1,0-1.8,0.8-1.8,1.8c0,1,0.8,1.8,1.8,1.8c1,0,1.8-0.8,1.8-1.8C64.7,38.7,63.9,37.9,62.9,37.9z M40.7,37.9
		c-1,0-1.8,0.8-1.8,1.8c0,1,0.8,1.8,1.8,1.8c1,0,1.8-0.8,1.8-1.8C42.5,38.7,41.7,37.9,40.7,37.9z M62.9,61.2c-1,0-1.8,0.8-1.8,1.8
		c0,1,0.8,1.8,1.8,1.8c1,0,1.8-0.8,1.8-1.8C64.7,62,63.9,61.2,62.9,61.2z M62.9,37.9c-1,0-1.8,0.8-1.8,1.8c0,1,0.8,1.8,1.8,1.8
		c1,0,1.8-0.8,1.8-1.8C64.7,38.7,63.9,37.9,62.9,37.9z M62.9,37.9c-1,0-1.8,0.8-1.8,1.8c0,1,0.8,1.8,1.8,1.8c1,0,1.8-0.8,1.8-1.8
		C64.7,38.7,63.9,37.9,62.9,37.9z M62.9,61.2c-1,0-1.8,0.8-1.8,1.8c0,1,0.8,1.8,1.8,1.8c1,0,1.8-0.8,1.8-1.8
		C64.7,62,63.9,61.2,62.9,61.2z M40.7,37.9c-1,0-1.8,0.8-1.8,1.8c0,1,0.8,1.8,1.8,1.8c1,0,1.8-0.8,1.8-1.8
		C42.5,38.7,41.7,37.9,40.7,37.9z M88.2,46.9l-32-32c-2.4-2.4-6.4-2.4-8.8,0L15.3,47c-2.4,2.4-2.4,6.4,0,8.8l32,32
		c2.4,2.4,6.4,2.4,8.8,0l32.1-32.1C90.6,53.3,90.6,49.3,88.2,46.9z M40.7,35.9h15.5l-0.8,1.9H44c0.3,0.6,0.5,1.2,0.5,1.9
		c0,2.1-1.7,3.8-3.8,3.8c-2.1,0-3.8-1.7-3.8-3.8S38.6,35.9,40.7,35.9z M44.5,63c0,2.1-1.7,3.8-3.8,3.8c-2.1,0-3.8-1.7-3.8-3.8
		c0-1.1,0.4-2,1.1-2.7c0.7-0.7,1.6-1.1,2.7-1.1h6.7V46.9l1.9,0.8v11.5h6.9l-0.8,1.9H44C44.3,61.7,44.5,62.3,44.5,63z M62.9,66.9
		H47.4l0.8-1.9h11.4c-0.3-0.6-0.5-1.2-0.5-1.9c0-2.1,1.7-3.8,3.8-3.8c2.1,0,3.8,1.7,3.8,3.8S65,66.9,62.9,66.9z M65.6,42.5
		c-0.7,0.7-1.6,1.1-2.7,1.1H55v12.9l-1.9-0.8v-12h-5.8l0.8-1.9h11.4c-0.3-0.6-0.5-1.2-0.5-1.9c0-2.1,1.7-3.8,3.8-3.8
		c2.1,0,3.8,1.7,3.8,3.8C66.7,40.8,66.3,41.8,65.6,42.5z M62.9,37.9c-1,0-1.8,0.8-1.8,1.8c0,1,0.8,1.8,1.8,1.8c1,0,1.8-0.8,1.8-1.8
		C64.7,38.7,63.9,37.9,62.9,37.9z M62.9,61.2c-1,0-1.8,0.8-1.8,1.8c0,1,0.8,1.8,1.8,1.8c1,0,1.8-0.8,1.8-1.8
		C64.7,62,63.9,61.2,62.9,61.2z M40.7,41.6c1,0,1.8-0.8,1.8-1.8c0-1-0.8-1.8-1.8-1.8c-1,0-1.8,0.8-1.8,1.8
		C38.9,40.8,39.7,41.6,40.7,41.6z M40.7,37.9c-1,0-1.8,0.8-1.8,1.8c0,1,0.8,1.8,1.8,1.8c1,0,1.8-0.8,1.8-1.8
		C42.5,38.7,41.7,37.9,40.7,37.9z M62.9,37.9c-1,0-1.8,0.8-1.8,1.8c0,1,0.8,1.8,1.8,1.8c1,0,1.8-0.8,1.8-1.8
		C64.7,38.7,63.9,37.9,62.9,37.9z M62.9,37.9c-1,0-1.8,0.8-1.8,1.8c0,1,0.8,1.8,1.8,1.8c1,0,1.8-0.8,1.8-1.8
		C64.7,38.7,63.9,37.9,62.9,37.9z M40.7,37.9c-1,0-1.8,0.8-1.8,1.8c0,1,0.8,1.8,1.8,1.8c1,0,1.8-0.8,1.8-1.8
		C42.5,38.7,41.7,37.9,40.7,37.9z"/>
</g>
</svg>
