<?xml version="1.0" encoding="utf-8"?>
<!-- Generator: Adobe Illustrator 21.1.0, SVG Export Plug-In . SVG Version: 6.00 Build 0)  -->
<svg version="1.1" id="Layer_1" xmlns="http://www.w3.org/2000/svg" xmlns:xlink="http://www.w3.org/1999/xlink" x="0px" y="0px"
	 viewBox="0 0 103.8 103.4" style="enable-background:new 0 0 103.8 103.4;" xml:space="preserve">
<style type="text/css">
	.st0{fill:#003DC6;}
	.st1{fill:#FFFFFF;}
</style>
<g id="master">
	<path id="bg" class="st0" d="M102.2,64.2c-6.8,27.8-34.9,44.5-62.5,37.6C11.9,94.9-4.8,66.9,2.1,39.2C8.9,11.4,37-5.3,64.6,1.6
		C92.4,8.3,109.2,36.5,102.2,64.2L102.2,64.2L102.2,64.2L102.2,64.2z"/>
</g>
<path class="st1" d="M47.5,43.1h-4h-0.1V61h0.1h4c0.8,0,1.5-0.7,1.5-1.5V44.6C49,43.8,48.3,43.1,47.5,43.1z"/>
<path class="st1" d="M56.5,43.1h4.4H61V61h-0.1h-4.4c-0.9,0-1.7-0.7-1.7-1.5V44.6C54.9,43.8,55.6,43.1,56.5,43.1z"/>
<path class="st1" d="M54.9,46.4c0,1.6-1.3,2.9-2.9,2.9s-3-1.3-3-2.9h-0.3v11.5H49c0-1.6,1.3-2.9,2.9-2.9s2.9,1.3,2.9,2.9h1.9V46.4
	H54.9z"/>
<g id="left">
	<path class="st1" d="M39.4,37.3h2.3c1,0,1.8,0.8,1.8,1.8v2.3c0,1,0,1.8,0,1.8h-4c-1,0-1.8-0.8-1.8-1.8v-2.3
		C37.6,38.1,38.4,37.3,39.4,37.3z"/>
	<path class="st1" d="M33.2,49.2h2.3c1,0,1.8,0.8,1.8,1.8v2.3c0,1-0.8,1.8-1.8,1.8h-2.3c-1,0-1.8-0.8-1.8-1.8V51
		C31.4,50.1,32.2,49.2,33.2,49.2z"/>
	<path class="st1" d="M50.8,31.6h2.3c1,0,1.8,0.8,1.8,1.8v2.3c0,1-0.8,1.8-1.8,1.8h-2.3c-1,0-1.8-0.8-1.8-1.8v-2.3
		C49,32.4,49.8,31.6,50.8,31.6z"/>
	<path class="st1" d="M39.3,66.9h2.3c1,0,1.8-0.8,1.8-1.8v-2.3c0-1,0-1.8,0-1.8h-4c-1,0-1.8,0.8-1.8,1.8v2.3
		C37.5,66.1,38.3,66.9,39.3,66.9z"/>
	<path class="st1" d="M50.8,67.1h2.3c1,0,1.8,0.8,1.8,1.8v2.3c0,1-0.8,1.8-1.8,1.8h-2.3c-1,0-1.8-0.8-1.8-1.8v-2.3
		C49,67.9,49.8,67.1,50.8,67.1z"/>
	<circle class="st1" cx="41.9" cy="75.4" r="1.9"/>
	<circle class="st1" cx="32.1" cy="72.2" r="1.1"/>
	<circle class="st1" cx="29.6" cy="61.5" r="1.9"/>
	<circle class="st1" cx="29.3" cy="43" r="1.9"/>
	<circle class="st1" cx="42.7" cy="29.9" r="1.9"/>
	<circle class="st1" cx="23.8" cy="52.2" r="1.1"/>
	<circle class="st1" cx="32" cy="32.4" r="1.1"/>
	<circle class="st1" cx="13.5" cy="52.3" r="0.9"/>
	<circle class="st1" cx="15.9" cy="67" r="1.5"/>
	<circle class="st1" cx="23.9" cy="78.7" r="0.9"/>
	<circle class="st1" cx="36.3" cy="86.7" r="0.9"/>
	<circle class="st1" cx="17" cy="37.5" r="1.2"/>
	<circle class="st1" cx="23.9" cy="25.9" r="1.8"/>
	<circle class="st1" cx="36.5" cy="17.6" r="0.9"/>
	<circle class="st1" cx="51.8" cy="24.2" r="1.1"/>
	<circle class="st1" cx="51.8" cy="15" r="1.2"/>
	<circle class="st1" cx="51.9" cy="80.4" r="1.1"/>
	<circle class="st1" cx="51.9" cy="89.6" r="1.2"/>
</g>
<g id="right">
	<path class="st1" d="M65.1,37.3h-2.3c-1,0-1.8,0.8-1.8,1.8v2.3c0,1,0,1.8,0,1.8h4c1,0,1.8-0.8,1.8-1.8v-2.3
		C66.9,38.1,66.1,37.3,65.1,37.3z"/>
	<path class="st1" d="M70.6,49.3h-2.3c-1,0-1.8,0.8-1.8,1.8v2.3c0,1,0.8,1.8,1.8,1.8h2.3c1,0,1.8-0.8,1.8-1.8v-2.3
		C72.4,50.1,71.6,49.3,70.6,49.3z"/>
	<path class="st1" d="M65.1,66.9h-2.3c-1,0-1.8-0.8-1.8-1.8v-2.3c0-1,0-1.8,0-1.8h4c1,0,1.8,0.8,1.8,1.8v2.3
		C66.9,66.1,66.1,66.9,65.1,66.9z"/>
	<circle class="st1" cx="61.2" cy="74.6" r="1.9"/>
	<circle class="st1" cx="71.7" cy="72.2" r="1.1"/>
	<circle class="st1" cx="74.2" cy="61.6" r="1.9"/>
	<circle class="st1" cx="74.5" cy="43" r="1.9"/>
	<circle class="st1" cx="61.1" cy="29.9" r="1.9"/>
	<circle class="st1" cx="80" cy="52.2" r="1.1"/>
	<circle class="st1" cx="71.8" cy="32.4" r="1.1"/>
	<circle class="st1" cx="89" cy="52.3" r="1.1"/>
	<circle class="st1" cx="85.9" cy="66.6" r="1.7"/>
	<circle class="st1" cx="76.5" cy="78.7" r="1.1"/>
	<circle class="st1" cx="65.4" cy="85.9" r="1.2"/>
	<circle class="st1" cx="87" cy="36.7" r="1"/>
	<circle class="st1" cx="78.1" cy="25.6" r="0.9"/>
	<circle class="st1" cx="65.9" cy="16.9" r="1.5"/>
</g>
</svg>
