<?xml version="1.0" encoding="utf-8"?>
<!-- Generator: Adobe Illustrator 21.1.0, SVG Export Plug-In . SVG Version: 6.00 Build 0)  -->
<svg version="1.1" id="Layer_1" xmlns="http://www.w3.org/2000/svg" xmlns:xlink="http://www.w3.org/1999/xlink" x="0px" y="0px"
	 viewBox="0 0 103.8 103.4" style="enable-background:new 0 0 103.8 103.4;" xml:space="preserve">
<style type="text/css">
	.st0{fill:#00499D;}
	.st1{fill:#FFFFFF;}
	.st2{fill:none;stroke:#FFFFFF;stroke-width:0.7615;stroke-miterlimit:10;}
	.st3{fill:none;stroke:#FFFFFF;stroke-width:0.8931;stroke-miterlimit:10;}
</style>
<g id="master">
	<path id="bg" class="st0" d="M102.2,64.2c-6.8,27.8-34.9,44.5-62.5,37.6C11.9,94.9-4.8,66.9,2.1,39.2C8.9,11.4,37-5.3,64.6,1.6
		C92.4,8.3,109.2,36.5,102.2,64.2L102.2,64.2L102.2,64.2L102.2,64.2z"/>
</g>
<g id="logo">
	<path class="st1" d="M68.6,66.7l0.5-10L59.6,56c0,0-6.9,14.5-7.1,15.1c-0.2,0.7,0,2,0,2l1.7-2.3l1.2,1.3l1.4-2l3.9,0.1l1.1-2.3
		l3.5,0.1v-1L68.6,66.7z"/>
	<polygon class="st1" points="36.3,60.8 45.9,56.9 49.5,49.7 54.3,61.7 51.4,70 49.6,71.3 48.4,68.6 45.3,67.7 44.6,69.1 42.7,68.8 
		41.5,69.8 40.1,67.8 36.8,66.5 	"/>
	<polygon class="st1" points="55.1,59.7 50.3,47.4 49.8,39.1 56.9,33.4 56.9,29.8 54.3,23.9 54.3,14 57.9,24.4 62.5,28.8 62.1,33 
		65.4,35.7 60.1,42.8 60.1,46.8 56.8,53.9 58.2,54.9 	"/>
	<path class="st1" d="M70,54.6c0,0,1.6-0.5,1.6-1.4s0.7-17.2,1.2-18.9l-5.4,1.9L62,43.5v4.1c0,0-3.6,5.9-3.1,6.1
		C59.4,53.9,64.9,55.4,70,54.6z"/>
	<path class="st1" d="M66.9,34.3L64.1,32l0.5-4.3l-5.2-4.6L56.8,17c0,0,9.5,8.9,9.7,9.3s1.5,3,2.1,3.6s3.4,3,3.4,3L66.9,34.3z"/>
	<path class="st1" d="M31.1,33.8c0,0,4.2,19.2,4.1,20.1s-0.4,3.3-0.4,3.3l0.8,2l8.8-3.6l4-7.8l-0.6-8.4L31.1,33.8z"/>
	<path class="st1" d="M31.5,31.9l21-19c0,0,0.5-0.8,0.5,3.5s0,8.2,0,8.2l2.5,5.2v3.1l-7,5.2L31.5,31.9z"/>
	<path class="st2" d="M34.3,65.2l-2.8,0.7l-2.1,3.4v8l15.5,8h2l6,3.2L76,76.8v-6.7l-2.9-4.5l-1.9-1.1l-0.7,0.6l1.7,0.9
		c0,0-8.8,7-10.8,7.7c-2,0.7-3.8,0.9-3.8,0.9l-4.8,2.7c0,0-10.3-4.1-17.4-9.5l-2-1.8l1.4-0.1L34.3,65.2z"/>
	<polyline class="st3" points="52.4,77.4 53.9,82.6 53.1,83.6 52.8,88.6 	"/>
	<polygon class="st1" points="70.8,65.4 71,64.9 73.5,66.3 72.8,66.2 	"/>
	<polygon class="st1" points="33,65.9 34.2,65.3 34.5,65.8 34.7,66.2 	"/>
</g>
</svg>
