<?xml version="1.0" encoding="utf-8"?>
<!-- Generator: Adobe Illustrator 21.1.0, SVG Export Plug-In . SVG Version: 6.00 Build 0)  -->
<svg version="1.1" id="Layer_1" xmlns="http://www.w3.org/2000/svg" xmlns:xlink="http://www.w3.org/1999/xlink" x="0px" y="0px"
	 viewBox="0 0 103.8 103.4" style="enable-background:new 0 0 103.8 103.4;" xml:space="preserve">
<style type="text/css">
	.st0{fill:#BB9C58;}
	.st1{fill:#FFFFFF;}
</style>
<g id="master">
	<path id="bg" class="st0" d="M102.2,64.2c-6.8,27.8-34.9,44.5-62.5,37.6C11.9,94.9-4.8,66.9,2.1,39.2C8.9,11.4,37-5.3,64.6,1.6
		C92.4,8.3,109.2,36.5,102.2,64.2L102.2,64.2L102.2,64.2L102.2,64.2z"/>
	<path class="st1" d="M21.2,27.3h13.8l18.2,32.9l16.1-32.9h14.3c0,0,0.6,1.3-0.6,1.6s-3.8,0.5-5.2,1.9s-2.1,1.9-2.1,6.4
		s0.7,31.9,0.7,31.9s0,3.8,1.9,5.2s3.4,1.7,4.9,1.9s1.5,0.9,1.5,1.5H61.4c0,0-0.2-1,0.7-1.2c0.8-0.2,3.5-0.5,4.4-1.2s2.9-2.4,2.9-6
		c0-3.6-0.8-37.8-0.8-37.8L53.9,61.6l4.7,8.5c0,0,0.4,0.6,0,1s-0.9,0.1-1.3-0.3c-0.4-0.4-2.8-3.5-7.8-3L30.3,33.1l-0.5,33.2
		c0,0-0.1,5.7,1.8,7.4s4.1,2.2,5.5,2.4c1.5,0.1,1.2,1.6,1.2,1.6H19.8c0,0-0.3-1.1,0.9-1.4s4.4-0.5,5.8-3.5c1.5-3,1.6-4.4,1.6-6.6
		c0-2.2,0.8-31.4,0.8-31.4s0.2-3.4-2.1-4.3s-5.2-1.6-5.2-1.6S20.6,28.5,21.2,27.3z"/>
</g>
</svg>
