<?xml version="1.0" encoding="utf-8"?>
<!-- Generator: Adobe Illustrator 22.0.1, SVG Export Plug-In . SVG Version: 6.00 Build 0)  -->
<svg version="1.1" id="Layer_1" xmlns="http://www.w3.org/2000/svg" xmlns:xlink="http://www.w3.org/1999/xlink" x="0px" y="0px"
	 viewBox="0 0 103.8 103.4" style="enable-background:new 0 0 103.8 103.4;" xml:space="preserve">
<style type="text/css">
	.st0{fill:#333366;}
	.st1{fill:#FFFFFF;}
</style>
<g id="master">
	<path id="bg" class="st0" d="M102.2,64.2c-6.8,27.8-34.9,44.5-62.5,37.6C11.9,94.9-4.8,66.9,2.1,39.2C8.9,11.4,37-5.3,64.6,1.6
		C92.4,8.3,109.2,36.5,102.2,64.2L102.2,64.2L102.2,64.2L102.2,64.2z"/>
</g>
<polygon class="st1" points="89.5,32.4 89.3,29.7 88.6,31.9 84.2,35.7 79.2,36.5 77.8,35.1 82.1,29 86.6,27.7 81.8,27.8 74.7,32.9 
	68.1,32.3 58.9,27.7 58.9,27.7 53.4,28.8 36.3,43 28.1,45.6 24.7,49.1 18.7,49.2 15.7,54.7 11.5,56 15.5,56.5 19.2,51.5 24.9,52.7 
	24.8,58 21.9,65.7 20.3,72.9 18.5,75.7 23,74.7 22.5,71.8 26.3,64 33.5,61.1 36.4,56.4 41.1,52.9 50.6,54.3 60.1,50.1 58.5,56.7 
	54.3,57.1 53.1,62.5 56.7,60.1 62.7,57.5 67.4,50.1 67.7,46.6 70.3,49.2 77.6,53.9 81.8,51.9 81.5,42.1 80.3,38.4 85.8,37 "/>
</svg>
