<?xml version="1.0" encoding="utf-8"?>
<!-- Generator: Adobe Illustrator 22.0.1, SVG Export Plug-In . SVG Version: 6.00 Build 0)  -->
<svg version="1.1" id="Layer_1" xmlns="http://www.w3.org/2000/svg" xmlns:xlink="http://www.w3.org/1999/xlink" x="0px" y="0px"
	 viewBox="0 0 103.8 103.4" style="enable-background:new 0 0 103.8 103.4;" xml:space="preserve">
<style type="text/css">
	.st0{fill:#EC672F;}
	.st1{fill:#FFFFFF;}
</style>
<path id="bg" class="st0" d="M102.2,64.2c-6.8,27.8-34.9,44.5-62.5,37.6C11.9,94.9-4.8,66.9,2.1,39.2C8.9,11.4,37-5.3,64.6,1.6
	C92.4,8.3,109.2,36.5,102.2,64.2L102.2,64.2L102.2,64.2L102.2,64.2z"/>
<g>
	<path class="st1" d="M31.6,47.6h18.5v14.6c-2.8,0.9-4.9,3.6-4.9,6.7c0,3.9,3.1,7,7,7c3.9,0,7-3.1,7-7c0-3.1-2-5.7-4.8-6.7V47.6
		h18.3c0.6,0,1.1-0.5,1.1-1.1v-2.4c0-0.6-0.5-1.1-1.1-1.1H53.9V17.5h18.8c0.6,0,1.1-0.5,1.1-1.1V14c0-0.6-0.5-1.1-1.1-1.1H31.6
		c-0.6,0-1.1,0.5-1.1,1.1v2.4c0,0.6,0.5,1.1,1.1,1.1h18.2V43H31.6c-0.6,0-1.1,0.5-1.1,1.1v2.4C30.4,47.1,30.9,47.6,31.6,47.6z
		 M55.5,69c0,1.8-1.5,3.3-3.3,3.3s-3.3-1.5-3.3-3.3s1.5-3.3,3.3-3.3S55.5,67.1,55.5,69z"/>
	<path class="st1" d="M68.3,53.4C68.3,53.4,68.3,53.4,68.3,53.4C68.3,53.3,68.3,53.3,68.3,53.4l-0.1-0.1c-0.1-0.1-0.3-0.2-0.5-0.2
		c-0.2,0-0.4,0.1-0.5,0.2l0,0l0,0c0,0,0,0,0,0l-1.8,1.8l0,0c-0.2,0.2-0.3,0.4-0.3,0.6c0,0.1,0,0.3,0.1,0.4l0,0c0,0,0,0.1,0.1,0.1
		c0,0,0.1,0.1,0.1,0.1c2.9,3.5,4.7,7.5,4.7,12.2c0,9.7-8,17.6-17.9,17.7c-9.9,0-17.9-7.9-17.9-17.7c0-4.6,1.9-8.6,4.7-12.2
		c0,0,0.1-0.1,0.1-0.1c0,0,0-0.1,0.1-0.1l0,0c0.1-0.1,0.1-0.2,0.1-0.4c0-0.2-0.1-0.5-0.3-0.6l0,0l-1.8-1.8c0,0,0,0,0,0l0,0l0,0
		c-0.1-0.1-0.3-0.2-0.5-0.2c-0.2,0-0.4,0.1-0.5,0.2l0,0c0,0,0,0,0,0c0,0,0,0-0.1,0.1c-4.2,4-6.4,9.2-6.4,15.2
		c0,12.5,10.1,22.6,22.5,22.6v0c0,0,0,0,0,0c0,0,0,0,0,0v0c12.4,0,22.5-10.1,22.5-22.6C74.7,62.6,72.5,57.4,68.3,53.4z"/>
</g>
</svg>
