<?xml version="1.0" encoding="utf-8"?>
<!-- Generator: Adobe Illustrator 22.0.1, SVG Export Plug-In . SVG Version: 6.00 Build 0)  -->
<svg version="1.1" id="Layer_1" xmlns="http://www.w3.org/2000/svg" xmlns:xlink="http://www.w3.org/1999/xlink" x="0px" y="0px"
	 viewBox="0 0 103.8 103.4" style="enable-background:new 0 0 103.8 103.4;" xml:space="preserve">
<style type="text/css">
	.st0{fill:#0C1C25;}
	.st1{fill:#FFFFFF;}
</style>
<path id="bg" class="st0" d="M102.2,64.2c-6.8,27.8-34.9,44.5-62.5,37.6C11.9,94.9-4.8,66.9,2.1,39.2C8.9,11.4,37-5.3,64.6,1.6
	C92.4,8.3,109.2,36.5,102.2,64.2L102.2,64.2L102.2,64.2L102.2,64.2z"/>
<path class="st1" d="M52.3,15C32.4,15,16.2,31.1,16.2,51s16.2,36.1,36.1,36.1S88.4,70.9,88.4,51S72.2,15,52.3,15z M78.5,55.2
	c0-0.8,0.7-1.5,1.5-1.5c0.8,0,1.5,0.7,1.5,1.5c0,0.8-0.7,1.5-1.5,1.5C79.1,56.6,78.5,56,78.5,55.2z M48.1,26.5
	c0-2.3,1.9-4.2,4.2-4.2c2.3,0,4.2,1.9,4.2,4.2s-1.9,4.2-4.2,4.2C50,30.6,48.1,28.7,48.1,26.5z M52.3,33.7c1.3,0,2.5-0.3,3.5-0.9
	c-1.8,2-3.1,4.6-3.5,7.3c-0.5-2.8-1.7-5.3-3.5-7.3C49.9,33.4,51,33.7,52.3,33.7z M52.3,45.1c0.7,3.8,2.7,7.2,5.7,9.4
	c-1.7-0.7-3.7-1.1-5.7-1.1l0,0l0,0c-2,0-3.9,0.4-5.7,1.1C49.5,52.2,51.6,48.8,52.3,45.1z M52.3,57c6.1,0,11.1,5,11.1,11.1
	c0,6.1-5,11.1-11.1,11.1s-11.1-5-11.1-11.1C41.2,61.9,46.2,57,52.3,57z M38.1,63.7c0-0.2,0-0.3,0-0.5c0-2.5-1.4-4.8-3.3-6.1
	c1,0.2,1.9,0.3,2.9,0.3c2,0,3.9-0.4,5.7-1.1C40.9,58.1,39.1,60.7,38.1,63.7z M61.2,56.2c1.7,0.7,3.7,1.1,5.7,1.1c1,0,2-0.1,2.9-0.3
	c-2,1.3-3.3,3.5-3.3,6.1c0,0.2,0,0.3,0,0.5C65.5,60.7,63.6,58.1,61.2,56.2z M76.7,56.6c-0.9-0.4-2-0.7-3-0.7c-0.2,0-0.3,0-0.5,0
	c1.3-0.6,2.4-1.4,3.5-2.3c-0.2,0.4-0.3,0.9-0.3,1.5C76.4,55.7,76.4,56.2,76.7,56.6z M66.9,53.7c-6.1,0-11.1-5-11.1-11.1
	s5-11.1,11.1-11.1c6.1,0,11.1,5,11.1,11.1S73,53.7,66.9,53.7z M58.2,30.6c0.8-1.1,1.3-2.6,1.3-4.2c0,0,0,0,0-0.1
	c0.6,1.1,1.6,1.9,2.9,2C60.9,29,59.5,29.7,58.2,30.6z M62.7,26.3c-0.8,0-1.5-0.7-1.5-1.5c0-0.8,0.7-1.5,1.5-1.5s1.5,0.7,1.5,1.5
	C64.2,25.6,63.6,26.3,62.7,26.3z M59.1,24.3c-0.7-2.2-2.4-3.9-4.5-4.6c2.7,0.2,5.2,0.7,7.7,1.5C60.7,21.4,59.4,22.7,59.1,24.3z
	 M45.4,24.3c-0.2-1.6-1.5-2.9-3.2-3c2.4-0.8,5-1.4,7.7-1.5C47.7,20.4,46.1,22.1,45.4,24.3z M41.9,23.4c0.8,0,1.5,0.7,1.5,1.5
	s-0.7,1.5-1.5,1.5c-0.8,0-1.5-0.7-1.5-1.5S41,23.4,41.9,23.4z M45,26.5c0,1.5,0.5,2.9,1.2,4.1c-1.2-0.9-2.7-1.6-4.2-2.1
	C43.4,28.3,44.5,27.6,45,26.5z M48.8,42.6c0,6.1-5,11.1-11.1,11.1s-11.1-5-11.1-11.1s5-11.1,11.1-11.1
	C43.8,31.5,48.8,36.5,48.8,42.6z M27.9,53.7c1.1,0.9,2.3,1.7,3.5,2.3c-0.2,0-0.3,0-0.5,0c-1.1,0-2.1,0.2-3,0.7
	c0.2-0.5,0.3-1,0.3-1.5C28.2,54.6,28.2,54.1,27.9,53.7z M24.6,56.6c-0.8,0-1.5-0.7-1.5-1.5c0-0.8,0.7-1.5,1.5-1.5
	c0.8,0,1.5,0.7,1.5,1.5C26,56,25.4,56.6,24.6,56.6z M24.6,58.8c0.2,0,0.5,0,0.7-0.1c-1,1.2-1.6,2.8-1.6,4.5c0,0.5,0.1,0.9,0.2,1.4
	c-1.2-2.5-2-5.1-2.5-8C21.9,57.9,23.1,58.8,24.6,58.8z M30.9,59.1c2.3,0,4.2,1.9,4.2,4.2c0,2.3-1.9,4.2-4.2,4.2s-4.2-1.9-4.2-4.2
	C26.8,61,28.6,59.1,30.9,59.1z M37.6,65.9c-0.1,0.7-0.2,1.5-0.2,2.2c0,1.1,0.2,2.2,0.3,3.2c-0.6-1-1.7-1.6-3-1.6
	c-0.2,0-0.3,0-0.6,0.1C35.7,68.8,37,67.5,37.6,65.9z M34.8,71.7c0.8,0,1.5,0.7,1.5,1.5c0,0.8-0.7,1.5-1.5,1.5s-1.5-0.7-1.5-1.5
	C33.3,72.4,33.9,71.7,34.8,71.7z M34.8,76.8c2,0,3.6-1.6,3.6-3.6l0,0c1.6,4.4,5.2,7.7,9.7,9.1c-5.1-0.7-10-2.6-13.9-5.5
	C34.3,76.8,34.5,76.8,34.8,76.8z M66.4,72.6c0,0.2-0.1,0.4-0.1,0.7c0,2,1.6,3.6,3.6,3.6c0.2,0,0.3,0,0.5,0
	c-4.1,2.9-8.8,4.8-13.9,5.5C61.2,80.9,64.9,77.2,66.4,72.6z M70,74.7c-0.8,0-1.5-0.7-1.5-1.5c0-0.8,0.7-1.5,1.5-1.5
	c0.8,0,1.5,0.7,1.5,1.5S70.8,74.7,70,74.7z M70,69.6c-1.5,0-2.9,1-3.3,2.3c0.3-1.2,0.5-2.4,0.5-3.8c0-0.7-0.1-1.5-0.2-2.2
	c0.7,1.6,1.9,2.9,3.3,3.8C70.2,69.6,70.1,69.6,70,69.6z M69.5,63.2c0-2.3,1.9-4.2,4.2-4.2c2.3,0,4.2,1.9,4.2,4.2
	c0,2.3-1.9,4.2-4.2,4.2C71.4,67.3,69.5,65.5,69.5,63.2z M80,58.8c1.5,0,2.8-0.9,3.3-2.1c-0.5,2.8-1.4,5.5-2.5,8
	c0.1-0.4,0.2-0.9,0.2-1.4c0-1.7-0.6-3.3-1.6-4.5C79.5,58.8,79.7,58.8,80,58.8z M80,51.5c-0.6,0-1.1,0.2-1.5,0.3
	c2-2.5,3.3-5.8,3.3-9.3c0-1.5-0.2-2.9-0.6-4.2c1.7,3.8,2.7,8.2,2.7,12.6c0,1.2-0.1,2.4-0.2,3.6C83.3,52.9,81.8,51.5,80,51.5z
	 M77.5,32.3c-2.7-2.8-6.4-4.5-10.6-4.5c-0.8,0-1.5,0.1-2.3,0.2c1.1-0.7,1.8-1.8,1.8-3.1c0-0.9-0.3-1.7-0.9-2.4
	C70.2,24.8,74.4,28.1,77.5,32.3z M39.1,22.5c-0.6,0.7-0.9,1.5-0.9,2.4c0,1.3,0.7,2.4,1.8,3.1c-0.7-0.1-1.5-0.2-2.3-0.2
	c-4.2,0-7.9,1.7-10.6,4.5C30.2,28.1,34.4,24.8,39.1,22.5z M23.5,38.5c-0.4,1.3-0.6,2.7-0.6,4.2c0,3.5,1.2,6.8,3.3,9.3
	c-0.5-0.2-1-0.3-1.5-0.3c-1.9,0-3.3,1.4-3.6,3.2c-0.2-1.2-0.2-2.4-0.2-3.6C20.8,46.6,21.8,42.3,23.5,38.5z M26.1,68.6
	c1.3,1.1,2.9,1.8,4.8,1.8c0.7,0,1.2-0.1,1.8-0.2c-1,0.7-1.6,1.8-1.6,3c0,0.5,0.1,1,0.3,1.5C29.5,72.9,27.7,70.8,26.1,68.6z
	 M73.3,74.4c0.2-0.4,0.2-0.8,0.2-1.2c0-1.2-0.6-2.3-1.5-2.9c0.5,0.1,1.1,0.2,1.6,0.2c1.9,0,3.5-0.7,4.8-1.8
	C77,70.8,75.3,72.7,73.3,74.4z"/>
</svg>
