<?xml version="1.0" encoding="utf-8"?>
<!-- Generator: Adobe Illustrator 22.1.0, SVG Export Plug-In . SVG Version: 6.00 Build 0)  -->
<svg version="1.1" id="Layer_1" xmlns="http://www.w3.org/2000/svg" xmlns:xlink="http://www.w3.org/1999/xlink" x="0px" y="0px"
	 viewBox="0 0 103.8 103.4" style="enable-background:new 0 0 103.8 103.4;" xml:space="preserve">
<style type="text/css">
	.st0{fill:#F0DB6F;}
	.st1{fill:#FFFFFF;}
</style>
<path id="bg" class="st0" d="M102.2,64.2c-6.8,27.8-34.9,44.5-62.5,37.6C11.9,94.9-4.8,66.9,2.1,39.2C8.9,11.4,37-5.3,64.6,1.6
	C92.4,8.3,109.2,36.5,102.2,64.2L102.2,64.2L102.2,64.2L102.2,64.2z"/>
<g>
	<path class="st1" d="M73.5,34C61,34,50.7,44.1,41.4,52.5c-2.7-2.4-5.7-5.3-8-8c-0.2-0.3-0.5-0.3-0.7-0.2c-0.2,0.2-0.3,0.5-0.1,0.7
		c2.1,2.7,5,5.8,7.7,8.5c-5,4.8-12.7,10.4-18.8,10.4C9.1,63.9,9,46.7,19.9,43.5c0.5-0.1,0.5-0.7,0-0.6C5.7,46.4,6.5,66.4,21.8,66.4
		c7.3,0,14-4.9,20.8-10.6c7.3,6.6,16.6,12,28.4,12C101,67.8,100.1,34,73.5,34z M70.7,65.2c-9.5-0.1-18.8-4.2-26.8-10.6
		c9.2-8,18.5-17.1,29.4-17.1C94.6,37.5,95.2,65.4,70.7,65.2z"/>
	<circle class="st1" cx="26.3" cy="41.2" r="3.1"/>
</g>
</svg>
