<?xml version="1.0" encoding="utf-8"?>
<!-- Generator: Adobe Illustrator 21.1.0, SVG Export Plug-In . SVG Version: 6.00 Build 0)  -->
<svg version="1.1" id="Layer_1" xmlns="http://www.w3.org/2000/svg" xmlns:xlink="http://www.w3.org/1999/xlink" x="0px" y="0px"
	 viewBox="0 0 103.8 103.4" style="enable-background:new 0 0 103.8 103.4;" xml:space="preserve">
<style type="text/css">
	.st0{fill:#00C4C3;}
	.st1{fill:#FFFFFF;}
</style>
<path id="bg_1_" class="st0" d="M102.2,64.2c-6.8,27.8-34.9,44.5-62.5,37.6C11.9,94.9-4.8,66.9,2.1,39.2C8.9,11.4,37-5.3,64.6,1.6
	C92.4,8.3,109.2,36.5,102.2,64.2L102.2,64.2L102.2,64.2L102.2,64.2z"/>
<path class="st1" d="M80.4,62.3c-2.7,0-2.8-6.2-2.8-6.2l-2.4-30.2c0,0,0.1-12.3-12.4-13.2c-12.5-0.9-13.7,11.4-13.7,11.4
	s-4,46.8-4.6,50.6c-0.5,3.8-1.1,4.8-3,4.8s-2.4-4.7-2.4-4.7s-0.9-11.3-2-26.1C36,34,35.5,26.4,23.2,26.1C12.5,25.9,10.6,32.1,9,50.5
	C7.9,64.7,6.2,71.4,5.5,73.8c2,4.2,4.5,8.1,7.5,11.6c5.9-9.7,6.7-28.5,6.7-28.5s1-15.4,1-16.6s0.2-3.8,2.8-3.8
	c2.3,0,2.2,3.4,2.2,3.4s3,36.6,3.3,38.6c0.3,2,1.8,11.6,13.9,11.6C55,90.1,55.2,76,55.2,76l4.2-47.8c0,0,0.5-4.8,2.7-4.8
	c2.2,0,2.5,4.4,2.5,4.4s2.7,30.7,3,33.4C68,63.8,69,72.8,81.4,72.8c11.2,0,12.3-14.3,12.3-14.3l4.9-29.4c-2.2-4.6-5.2-8.9-8.7-12.7
	l-6.6,39.3C83.3,55.7,83.1,62.3,80.4,62.3z"/>
</svg>
