<?xml version="1.0" encoding="utf-8"?>
<!-- Generator: Adobe Illustrator 22.0.1, SVG Export Plug-In . SVG Version: 6.00 Build 0)  -->
<svg version="1.1" id="Layer_1" xmlns="http://www.w3.org/2000/svg" xmlns:xlink="http://www.w3.org/1999/xlink" x="0px" y="0px"
	 viewBox="0 0 103.8 103.4" style="enable-background:new 0 0 103.8 103.4;" xml:space="preserve">
<style type="text/css">
	.st0{fill:#0066FF;}
	.st1{fill:#FFFFFF;}
</style>
<g id="master">
	<path id="bg" class="st0" d="M102.2,64.2c-6.8,27.8-34.9,44.5-62.5,37.6C11.9,94.9-4.8,66.9,2.1,39.2C8.9,11.4,37-5.3,64.6,1.6
		C92.4,8.3,109.2,36.5,102.2,64.2L102.2,64.2L102.2,64.2L102.2,64.2z"/>
</g>
<path class="st1" d="M52.4,16c-7.7,12.6-15.3,25.1-23,37.7c-0.4,0.9-0.4,2,0.2,2.8c0.7,1.1,1.9,1.2,2.1,1.2c5.2,0,10.3,0,15.5,0
	c-1.1,9.2-2.1,18.4-3.2,27.6c-0.1,1.3,0.7,2.5,1.9,3c1.3,0.5,2.8-0.1,3.5-1.3c8.2-14,16.5-27.9,24.7-41.9c0.6-0.8,0.7-2,0.2-2.9
	c-0.5-0.9-1.4-1.4-2.4-1.4c-5.1,0-10.3,0-15.4,0c0.4-7.7,0.7-15.3,1.1-23c0-1.2-0.7-2.2-1.8-2.7C54.7,14.6,53.3,15,52.4,16z"/>
</svg>
