<svg id="Ebene_1" data-name="Ebene 1" xmlns="http://www.w3.org/2000/svg" xmlns:xlink="http://www.w3.org/1999/xlink" width="1200" height="908" viewBox="0 0 1200 908">
  <defs>
    <linearGradient id="linear-gradient" x1="69.42" y1="438.09" x2="1109.5" y2="438.09" gradientUnits="userSpaceOnUse">
      <stop offset="0.02" stop-color="#65b559"/>
      <stop offset="0.28" stop-color="#23ab9b"/>
      <stop offset="0.57" stop-color="#0095d6"/>
      <stop offset="0.99" stop-color="#0069b2"/>
    </linearGradient>
  </defs>
  <title>wifi_Geraete 01</title>
  <path d="M653.19,435.35V325.94a4.71,4.71,0,0,1,4.71-4.71H839.7a4.71,4.71,0,0,1,4.71,4.71V435.35a4.71,4.71,0,0,1-4.71,4.71H657.9A4.71,4.71,0,0,1,653.19,435.35Zm-20.53,8H859a12.4,12.4,0,0,0,12.4-12.4V330.37A12.4,12.4,0,0,0,859,318H632.65a12.4,12.4,0,0,0-12.4,12.4V430.91A12.4,12.4,0,0,0,632.65,443.32ZM854.4,394.07h0a2.44,2.44,0,0,0,2.44-2.44v-22a2.44,2.44,0,0,0-2.44-2.44h0a2.44,2.44,0,0,0-2.44,2.44v22A2.44,2.44,0,0,0,854.4,394.07Zm10.72-13.43a2.58,2.58,0,1,0-2.58,2.58A2.58,2.58,0,0,0,865.12,380.64Zm-218.42,0a11,11,0,1,0-11,11A11,11,0,0,0,646.7,380.64ZM1104,629V394.11a2.5,2.5,0,0,0-2.5-2.5H922.84a2.5,2.5,0,0,0-2.5,2.5V629a2.5,2.5,0,0,0,2.5,2.5h178.63A2.5,2.5,0,0,0,1104,629Zm5,17.77V375.86a17,17,0,0,0-17-17H932.29a17,17,0,0,0-17,17V646.76a17,17,0,0,0,17,17H1092A17,17,0,0,0,1109,646.77Zm-84.34-268.43v-0.66a1.15,1.15,0,0,0-1.15-1.15h-22.72a1.15,1.15,0,0,0-1.15,1.15v0.66a1.15,1.15,0,0,0,1.15,1.15h22.72A1.15,1.15,0,0,0,1024.66,378.34Zm-12.51-12.19a3.1,3.1,0,1,0,3.1,3.1A3.1,3.1,0,0,0,1012.15,366.15ZM550.6,551.47V361.37a2.5,2.5,0,0,0-2.5-2.5H424a2.5,2.5,0,0,0-2.5,2.5v190.1A2.5,2.5,0,0,0,424,554H548.09A2.5,2.5,0,0,0,550.6,551.47ZM568.5,563V344.42a14.05,14.05,0,0,0-14.05-14.05H418.78a14.05,14.05,0,0,0-14.05,14.05V563A14.05,14.05,0,0,0,418.77,577H554.45A14.05,14.05,0,0,0,568.5,563ZM486.07,339.06a3,3,0,1,0,3,3A3,3,0,0,0,486.07,339.06ZM94.35,497.33H317.7a0.2,0.2,0,0,0,.2-0.2V363.23a0.2,0.2,0,0,0-.2-0.2H94.35a0.2,0.2,0,0,0-.2.2v133.9A0.2,0.2,0,0,0,94.35,497.33ZM84,504.92H327.25a14.08,14.08,0,0,0,14.08-14.08V369.52a14.08,14.08,0,0,0-14.08-14.08H84a14.08,14.08,0,0,0-14.08,14.08V490.83A14.08,14.08,0,0,0,84,504.92Zm242-62.34h0.53a2.28,2.28,0,0,0,2.28-2.28V420.06a2.28,2.28,0,0,0-2.28-2.28H326a2.28,2.28,0,0,0-2.28,2.28V440.3A2.28,2.28,0,0,0,326,442.57Zm-245.44,0h3.34A3.13,3.13,0,0,0,87,439.44V420.91a3.13,3.13,0,0,0-3.13-3.13H80.55a3.13,3.13,0,0,0-3.13,3.13v18.53A3.13,3.13,0,0,0,80.55,442.57Zm248.07,46.14a2.5,2.5,0,1,0-2.5,2.5A2.5,2.5,0,0,0,328.61,488.71Zm0,7a2.5,2.5,0,1,0-2.5,2.5A2.5,2.5,0,0,0,328.61,495.69Zm267.55-472H155.5V246.33H596.17V23.67ZM614.5,252V19.52A10.08,10.08,0,0,0,604.42,9.44H147.25a10.08,10.08,0,0,0-10.08,10.08V252a10.08,10.08,0,0,0,10.08,10.08H604.42A10.08,10.08,0,0,0,614.5,252Zm-132,48.48v-2a14.21,14.21,0,0,0-14.37-14H283.87a14.21,14.21,0,0,0-14.37,14v2h213Zm-98.67-38.4h-16v22.4h16V262.1Zm151,379.9H232.29V810.5h302.5V642Zm11.5-22.5H220.79V824h325.5V619.5ZM383.5,629a2.5,2.5,0,1,0,2.5,2.5A2.5,2.5,0,0,0,383.5,629ZM363,824.5h41m-41,0H202.63c-2.81,0-5.12,1.54-5.12,4.05v6.12a5.1,5.1,0,0,0,5.13,4.83H564.46a5,5,0,0,0,5-4.83v-6.12c0-2.51-2.23-4.05-5-4.05H404m-40.54-.5a4.74,4.74,0,0,0-.09.86c0,3.13,2.84,5.64,6.33,5.64h27.67c3.5,0,6.33-2.51,6.33-5.64a4.92,4.92,0,0,0-.09-0.88M1021.79,88H719.29V256.5h302.5V88Zm11.5-22.5H707.79V270h325.5V65.5ZM870.5,75a2.5,2.5,0,1,0,2.5,2.5A2.5,2.5,0,0,0,870.5,75ZM850,270.5h41m-41,0H689.63c-2.81,0-5.12,1.54-5.12,4.05v6.12a5.1,5.1,0,0,0,5.13,4.83h361.83a5,5,0,0,0,5-4.83v-6.12c0-2.51-2.23-4.05-5-4.05H891m-40.54-.5a4.74,4.74,0,0,0-.09.86c0,3.13,2.84,5.64,6.33,5.64h27.67c3.5,0,6.33-2.51,6.33-5.64a4.92,4.92,0,0,0-.09-0.88M421.53,364.25H550.6M772.47,707.49V512.3a2.56,2.56,0,0,0-2.56-2.56H643.52A2.56,2.56,0,0,0,641,512.3V707.49a2.56,2.56,0,0,0,2.56,2.56H769.91A2.56,2.56,0,0,0,772.47,707.49Zm9.17,10.88V500.91a13.35,13.35,0,0,0-13.35-13.35H645.65a13.35,13.35,0,0,0-13.35,13.35V718.37a13.35,13.35,0,0,0,13.35,13.35H768.29A13.35,13.35,0,0,0,781.64,718.37ZM641,527H772.47M748.81,699.1h-9.7v4h9.7v-4Zm-2.55,2h-9.7v4h9.7v-4ZM671,705h2.93a2,2,0,0,0,2-2h0a2,2,0,0,0-2-2h-8.54m47.84,0-6.48-2-6.48,2v4h13v-4Zm-45.8-2-2,2,2,2m391.1,138.63a4.25,4.25,0,1,0,4.25,4.25A4.25,4.25,0,0,0,1058.5,841.75Zm-12.75,7V728.24a5.24,5.24,0,0,0-5.24-5.24h-202a5.24,5.24,0,0,0-5.24,5.24V848.76a5.24,5.24,0,0,0,5.24,5.24h202A5.24,5.24,0,0,0,1045.75,848.76Zm24.5,7.14V721.11a5.36,5.36,0,0,0-5.36-5.36H813.36a5.36,5.36,0,0,0-5.36,5.36V855.89a5.36,5.36,0,0,0,5.36,5.36h251.54A5.36,5.36,0,0,0,1070.25,855.89Zm-211,5.36H840.5v5.5h18.75v-5.5Zm178.5,0H1019v5.5h18.75v-5.5Z" fill="none" stroke-miterlimit="10" stroke="url(#linear-gradient)"/>
</svg>
