
<svg version="1.0" xmlns="http://www.w3.org/2000/svg"
 width="1066.000000pt" height="508.000000pt" viewBox="0 0 1066.000000 508.000000"
 preserveAspectRatio="xMidYMid meet">

<g transform="translate(0.000000,508.000000) scale(0.100000,-0.100000)"
fill="none" stroke="#000" stroke-width="10">
<path d="M4728 5067 c-59 -17 -148 -75 -182 -119 -37 -50 -73 -136 -81 -194
-8 -62 7 -152 36 -211 15 -31 594 -740 796 -974 12 -14 -31 -70 -381 -489
-218 -260 -405 -492 -416 -516 -70 -143 -41 -314 72 -427 122 -122 325 -143
470 -47 33 22 282 313 879 1030 459 549 837 999 840 999 3 1 381 -447 838
-994 458 -548 851 -1009 873 -1025 72 -53 142 -72 239 -68 68 3 97 10 142 32
73 35 138 101 174 174 25 52 28 67 28 163 0 98 -2 110 -30 163 -17 33 -193
252 -417 520 -214 255 -388 466 -388 470 0 4 176 217 391 474 257 306 401 486
418 522 23 49 26 67 26 160 0 94 -3 111 -28 161 -34 70 -109 142 -185 177 -49
23 -70 27 -152 27 -88 0 -101 -3 -163 -33 -78 -39 -57 -16 -487 -531 -257
-307 -315 -371 -325 -360 -7 8 -161 192 -343 409 -181 217 -345 409 -363 427
-83 78 -229 112 -345 79 -113 -33 -135 -54 -509 -504 -192 -231 -352 -421
-355 -421 -3 -1 -165 190 -359 423 -198 238 -369 435 -391 450 -21 13 -55 32
-76 41 -52 22 -186 29 -246 12z"/>
<path d="M822 5052 c-113 -41 -196 -117 -251 -232 l-26 -55 -5 -1360 c-6
-1528 0 -1416 -80 -1489 -39 -35 -55 -40 -165 -51 -120 -11 -234 -99 -271
-208 -26 -74 -24 -197 3 -258 74 -165 281 -240 580 -210 146 15 249 42 353 93
69 34 102 59 175 133 99 99 145 173 189 308 56 172 56 166 56 1639 0 1479 3
1403 -56 1504 -36 61 -126 141 -191 171 -80 36 -232 43 -311 15z"/>
<path d="M2774 5060 c-246 -15 -439 -51 -650 -121 -141 -47 -203 -89 -252
-169 -44 -74 -55 -121 -50 -211 6 -96 40 -172 104 -228 112 -99 215 -112 424
-57 193 51 350 69 540 63 173 -6 238 -19 346 -72 157 -77 254 -240 254 -428 0
-62 -2 -68 -17 -62 -53 20 -232 65 -318 80 -142 24 -357 34 -524 24 -237 -15
-417 -60 -584 -146 -230 -119 -365 -287 -433 -538 -21 -80 -30 -327 -15 -424
55 -355 302 -611 679 -707 269 -68 589 -47 837 57 93 38 225 125 311 203 l62
55 6 -40 c16 -99 105 -206 214 -257 52 -25 67 -27 182 -27 118 0 128 2 185 29
121 59 207 177 226 309 12 84 11 1355 -1 1535 -41 593 -301 942 -804 1077
-188 50 -462 71 -722 55z m516 -1723 c52 -14 121 -35 153 -47 l57 -21 0 -115
c0 -90 -5 -128 -21 -176 -43 -130 -128 -222 -264 -288 -298 -143 -674 -83
-775 125 -65 134 -34 313 72 415 22 22 73 56 112 75 111 54 183 65 391 61 153
-3 194 -7 275 -29z"/>
<path d="M6281 3249 c-108 -21 -203 -95 -253 -197 -31 -63 -33 -73 -33 -172 0
-102 1 -107 35 -167 53 -93 472 -588 529 -624 91 -58 214 -75 318 -44 88 26
150 85 374 355 244 293 252 305 275 384 47 165 -35 355 -186 431 -60 30 -158
48 -218 39 -115 -17 -182 -60 -283 -180 -40 -46 -75 -83 -79 -82 -4 2 -35 37
-69 78 -34 41 -74 85 -89 98 -44 37 -114 69 -177 81 -66 12 -82 12 -144 0z"/>
<path d="M9355 2422 c-147 -69 -154 -290 -12 -364 61 -32 140 -30 200 5 64 38
102 115 94 193 -11 105 -79 172 -184 180 -43 4 -68 0 -98 -14z m151 -31 c129
-59 131 -240 3 -306 -74 -39 -180 0 -218 78 -25 52 -26 85 -6 134 21 50 42 72
90 94 50 23 79 23 131 0z"/>
<path d="M9367 2343 c-11 -11 -8 -201 3 -208 18 -11 40 15 40 46 0 40 16 36
59 -13 23 -25 42 -39 49 -34 17 10 15 36 -5 58 -15 17 -15 19 0 36 10 10 17
35 17 55 0 30 -5 39 -30 52 -29 15 -121 21 -133 8z m108 -68 c0 -15 -8 -21
-32 -23 -30 -3 -33 -1 -33 23 0 24 3 26 33 23 24 -2 32 -8 32 -23z"/>
<path d="M7427 2129 c-10 -6 -178 -252 -375 -547 -294 -444 -371 -552 -440
-624 -46 -48 -106 -101 -132 -118 -49 -31 -137 -66 -146 -57 -10 10 51 116
172 294 68 100 128 200 135 223 23 77 -24 119 -141 128 -65 4 -66 4 -97 -31
-47 -54 -199 -269 -265 -377 -71 -116 -95 -185 -78 -235 14 -42 107 -129 156
-145 79 -26 184 14 304 116 l65 55 6 -35 c11 -64 58 -117 121 -137 54 -17 83
-5 114 47 l27 45 26 -25 c51 -49 116 -57 230 -31 99 24 177 70 268 161 65 63
90 98 119 157 28 60 41 77 58 77 11 0 31 3 43 6 l21 6 -24 -67 c-14 -37 -24
-88 -24 -117 0 -95 70 -197 168 -245 49 -24 69 -28 137 -27 171 1 345 108 345
212 0 40 -9 40 -62 2 -99 -72 -308 -97 -308 -36 0 35 12 44 105 77 147 51 279
124 350 193 99 96 98 131 -9 264 -63 79 -98 96 -189 89 -93 -6 -223 -71 -327
-162 -79 -69 -132 -99 -191 -110 l-36 -7 -5 75 c-8 131 -66 186 -195 187 -35
0 -63 2 -63 4 0 3 42 69 93 148 167 255 206 331 222 424 9 58 -14 111 -57 128
-50 21 -101 27 -121 15z m-22 -851 c-3 -13 -20 -51 -37 -85 l-30 -61 -80 -7
c-44 -4 -106 -13 -139 -20 l-60 -12 33 35 c47 48 141 111 218 144 82 35 104
36 95 6z m835 -37 c0 -24 -24 -69 -53 -100 -51 -53 -172 -130 -253 -161 l-24
-10 16 33 c48 93 314 295 314 238z m-1027 -245 c-73 -65 -217 -136 -275 -136
-19 0 -17 6 22 46 25 25 63 55 85 67 45 23 148 55 183 56 20 1 18 -2 -15 -33z"/>
<path d="M5840 2079 c-47 -84 -202 -312 -414 -607 -347 -485 -416 -600 -424
-712 -4 -49 -1 -60 22 -87 15 -17 47 -45 73 -62 63 -42 119 -41 304 4 200 50
486 134 531 156 39 20 68 62 68 100 0 22 -1 22 -107 16 -60 -4 -200 -18 -313
-31 -112 -14 -206 -23 -208 -21 -14 14 134 244 351 547 201 280 247 349 289
433 61 122 59 171 -10 237 -88 83 -126 90 -162 27z"/>
<path d="M6715 1807 c-55 -59 -125 -171 -125 -200 0 -36 105 -61 153 -36 25
13 197 180 197 191 0 23 -121 98 -160 98 -8 0 -37 -24 -65 -53z"/>
<path d="M9652 1813 c-60 -104 -226 -345 -246 -358 -27 -17 -143 -27 -120 -10
11 7 14 23 12 50 -2 32 -7 41 -24 43 -31 4 -224 -110 -359 -214 l-30 -23 0 44
c0 27 -7 50 -18 62 -21 24 -81 43 -135 43 -37 0 -43 -4 -58 -32 -25 -48 -118
-185 -224 -328 -183 -249 -200 -334 -78 -414 67 -43 111 -53 143 -32 13 9 52
53 86 98 187 248 374 454 524 578 l72 59 9 -31 c9 -30 17 -37 61 -54 21 -9 19
-14 -59 -124 -108 -154 -152 -246 -156 -330 -4 -62 -2 -68 30 -110 56 -74 107
-104 188 -108 58 -4 77 0 126 22 111 51 234 168 234 222 0 38 -18 37 -71 -2
-61 -45 -152 -83 -196 -84 -18 0 -33 3 -33 6 0 20 146 260 271 444 l77 115
114 24 c122 27 162 51 156 94 -3 21 -6 22 -91 19 l-88 -4 34 54 c58 91 77 135
77 182 0 38 -5 48 -34 74 -30 26 -129 72 -157 72 -5 0 -22 -21 -37 -47z"/>
<path d="M9984 1433 c-5 -5 -21 -37 -33 -73 -31 -87 -55 -133 -155 -300 -128
-213 -140 -268 -69 -330 67 -60 121 -65 209 -20 32 16 87 55 122 86 l63 57
-64 -99 -63 -98 -90 -17 c-302 -58 -499 -141 -602 -254 -61 -66 -76 -107 -70
-190 4 -72 32 -118 99 -162 48 -31 146 -41 232 -23 182 37 410 216 603 470 77
101 53 91 293 114 134 13 144 15 172 42 16 15 29 37 29 47 0 19 -6 20 -170 15
l-170 -5 13 21 c181 282 317 520 317 554 0 12 -10 33 -23 46 -29 28 -150 71
-171 59 -8 -4 -52 -57 -97 -118 -84 -110 -255 -291 -296 -314 -20 -10 -17 0
23 86 102 215 117 281 80 338 -27 41 -153 88 -182 68z m-142 -970 c-44 -56
-160 -164 -215 -202 -64 -43 -143 -79 -194 -87 -37 -6 -43 -4 -43 11 0 59 107
163 233 226 51 27 220 88 240 89 5 0 -5 -17 -21 -37z"/>
</g>
</svg>
