<?xml version="1.0" encoding="iso-8859-1"?>
<!-- Generator: Adobe Illustrator 16.0.0, SVG Export Plug-In . SVG Version: 6.00 Build 0)  -->
<!DOCTYPE svg PUBLIC "-//W3C//DTD SVG 1.1//EN" "http://www.w3.org/Graphics/SVG/1.1/DTD/svg11.dtd">
<svg version="1.1" id="Capa_1" xmlns="http://www.w3.org/2000/svg" xmlns:xlink="http://www.w3.org/1999/xlink" x="0px" y="0px"
	 width="476.783px" height="476.783px" viewBox="0 0 476.783 476.783" style="enable-background:new 0 0 476.783 476.783;"
	 xml:space="preserve">
<g>
	<g>
		<path d="M278.334,476.773c25.715,0,46.631-20.921,46.631-46.641V46.656c0-25.723-20.916-46.648-46.631-46.648H137.042
			c-25.722,0-46.641,20.926-46.641,46.648v383.481c0,25.715,20.919,46.646,46.641,46.646h141.292V476.773z M102.968,430.138V46.656
			c0-18.793,15.288-34.078,34.073-34.078h141.292c18.778,0,34.058,15.285,34.058,34.078v383.481
			c0,18.788-15.279,34.073-34.058,34.073H137.042C118.256,464.211,102.968,448.926,102.968,430.138z"/>
		<path d="M305.1,409.104V65.16c0-1.787-1.447-3.232-3.234-3.232H110.994c-1.785,0-3.229,1.445-3.229,3.232v343.949
			c0,1.787,1.452,3.229,3.229,3.229h190.871C303.652,412.339,305.1,410.896,305.1,409.104z M298.636,405.87H114.227V68.382h184.409
			V405.87z"/>
		<path d="M189.18,45.047h34.058c1.795,0,3.232-1.447,3.232-3.232s-1.447-3.229-3.232-3.229H189.18
			c-1.785,0-3.229,1.444-3.229,3.229S187.402,45.047,189.18,45.047z"/>
		<circle cx="207.684" cy="24.473" r="3.468"/>
		<circle cx="176.889" cy="41.814" r="3.468"/>
		<path d="M207.684,416.63c-11.709,0-21.243,9.536-21.243,21.262c0,11.715,9.534,21.251,21.243,21.251
			c11.723,0,21.259-9.536,21.259-21.251C228.943,426.166,219.406,416.63,207.684,416.63z M207.684,453.049
			c-8.358,0-15.152-6.799-15.152-15.157c0-8.368,6.794-15.178,15.152-15.178c8.366,0,15.168,6.81,15.168,15.178
			C222.852,446.25,216.042,453.049,207.684,453.049z"/>
		<path d="M359.068,476.773h15.96c6.257,0,11.354-5.088,11.354-11.329V11.329C386.383,5.08,381.285,0,375.028,0h-15.96
			c-6.261,0-11.359,5.08-11.359,11.329v454.115C347.709,471.695,352.808,476.773,359.068,476.773z M360.277,12.578h13.527v29.475
			h-13.527V12.578z M360.277,48.515h13.527v381.76h-13.527V48.515z M360.277,436.733h13.527v27.478h-13.527V436.733z"/>
		<path d="M367.066,89.824c1.787,0,3.229-1.447,3.229-3.232V65.16c0-1.787-1.452-3.232-3.229-3.232
			c-1.787,0-3.229,1.445-3.229,3.232v21.432C363.837,88.377,365.279,89.824,367.066,89.824z"/>
		<path d="M367.066,112.551c-2.488,0-4.494,2-4.494,4.471c0,2.466,2.006,4.472,4.494,4.472c2.463,0,4.464-2.006,4.464-4.472
			C371.52,114.551,369.524,112.551,367.066,112.551z"/>
		<path d="M367.066,148.417c-2.488,0-4.494,2-4.494,4.463c0,2.465,2.006,4.464,4.494,4.464c2.463,0,4.464-1.999,4.464-4.464
			C371.53,150.417,369.524,148.417,367.066,148.417z"/>
	</g>
</g>
<g>
</g>
<g>
</g>
<g>
</g>
<g>
</g>
<g>
</g>
<g>
</g>
<g>
</g>
<g>
</g>
<g>
</g>
<g>
</g>
<g>
</g>
<g>
</g>
<g>
</g>
<g>
</g>
<g>
</g>
</svg>
