<?xml version="1.0" encoding="UTF-8"?>
<svg width="1538.5" height="1870.5" xmlns="http://www.w3.org/2000/svg" xmlns:svg="http://www.w3.org/2000/svg">
 <title>creek united</title>
 <g>
  <title>Layer 1</title>
  <path id="svg_1" fill="#ffff00" fill-rule="evenodd" stroke="#000000" stroke-width="2px" d="m790.93768,118.81492l5.57721,0l24.02472,12.07906q24.02484,12.07903 31.74707,15.82768q7.72235,3.74866 52.55432,24.36637q44.83197,20.6177 46.33356,20.82599q1.50153,0.20826 23.8103,9.78817q22.30872,9.57997 34.32117,14.16164q12.01233,4.58168 34.75012,12.49554q22.73792,7.9139 28.74426,9.99648q6.00623,2.08264 15.01575,4.99824q9.0094,2.91562 23.16724,7.08084q14.15759,4.16514 36.03759,9.99643q21.87977,5.83124 42.47242,10.41303q20.59265,4.58163 26.59887,5.83124q6.00623,1.24948 38.18225,7.08075q32.17615,5.83139 40.3274,7.08093q8.15124,1.24957 39.89831,6.24789q31.74707,4.99823 32.17615,4.99823q0.42895,0 30.88904,5.83136q30.45996,5.83133 30.67444,6.03952l0.2146,0.20826l-1.28699,62.0617q-1.28711,62.06134 -6.4353,160.35977q-5.1482,98.29847 -8.15125,137.4513q-3.00317,39.15283 -6.86426,67.05957q-3.86108,27.9068 -9.00927,52.89795q-5.1482,24.99096 -11.15442,50.39819q-6.00623,25.40723 -10.72535,44.56696q-4.71911,19.15991 -11.15429,41.23535q-6.43531,22.07556 -7.72229,26.65723q-1.28711,4.58172 -3.86121,11.66253q-2.5741,7.08088 -6.00622,17.4939q-3.43201,10.4129 -10.72535,29.9892q-7.29321,19.57653 -12.01233,31.23901q-4.71923,11.66248 -11.58349,27.90686q-6.86414,16.24426 -17.58948,39.15259q-10.72534,22.90881 -12.87048,26.65735q-2.14502,3.74865 -15.65906,27.28186q-13.51392,23.53344 -16.30249,27.90674q-2.7887,4.37365 -13.29944,22.07568q-10.51086,17.70202 -13.72851,22.49194q-3.21753,4.79004 -9.86731,14.99475q-6.64978,10.20471 -10.72535,15.82776q-4.07568,5.62293 -9.43835,13.32861q-5.36267,7.70557 -10.29639,14.1615q-4.93359,6.4563 -7.72229,10.82959q-2.78857,4.37342 -8.15112,11.24598q-5.36279,6.87255 -10.29639,13.74511q-4.93371,6.87256 -10.72534,14.16187q-5.79175,7.28906 -9.86743,12.49548q-4.07569,5.2063 -17.37537,19.78467q-13.29968,14.578 -31.3186,33.32153q-18.0188,18.74317 -31.74756,32.0719q-13.72839,13.32849 -18.23303,16.86902q-4.50476,3.5404 -21.02173,17.91028q-16.51697,14.36987 -20.1637,17.49389q-3.6466,3.1239 -18.01861,15.41114q-14.37195,12.28723 -18.87665,15.82776q-4.50464,3.5404 -10.29633,8.33032q-5.79168,4.78991 -16.08801,13.12036q-10.29639,8.33044 -15.65906,12.28735q-5.36267,3.95691 -10.29632,7.08081q-4.93372,3.12378 -18.01862,10.82959q-13.08496,7.70557 -17.16058,10.41297q-4.07563,2.70727 -9.22382,5.6228q-5.14819,2.91577 -10.72534,6.66443q-5.57721,3.74853 -8.15125,5.41467q-2.57415,1.66614 -11.15442,5.8313q-8.58026,4.16529 -20.59265,9.58008q-12.01245,5.41455 -16.73156,7.08069l-4.71918,1.66614l-5.14813,-1.24964q-5.1482,-1.24939 -11.15442,-4.16516q-6.00623,-2.91553 -20.1637,-9.99646q-14.15747,-7.08081 -16.30249,-8.74695q-2.14508,-1.66614 -10.93994,-7.28894q-8.7948,-5.62317 -13.29944,-8.33056q-4.50464,-2.70728 -17.5896,-10.41284q-13.0849,-7.70582 -18.01861,-10.82959q-4.9336,-3.12378 -10.29627,-7.08069q-5.36273,-3.95691 -12.22693,-9.37183q-6.86425,-5.41479 -18.23315,-14.78625q-11.36884,-9.37183 -19.73456,-16.24427q-8.36572,-6.87256 -24.45361,-20.82593q-16.08795,-13.95361 -20.59253,-17.49401q-4.50458,-3.54029 -19.7345,-16.66053q-15.22998,-13.12036 -16.94604,-14.78649q-1.71607,-1.66626 -15.22998,-14.78663q-13.51401,-13.12011 -18.87668,-18.74328q-5.36267,-5.62293 -23.59583,-24.99109q-18.23309,-19.36829 -21.87976,-23.74158q-3.64654,-4.37341 -10.72531,-12.91198q-7.07873,-8.5387 -11.15436,-13.74512q-4.07562,-5.20667 -8.15127,-10.82971q-4.07569,-5.62281 -8.58032,-11.66248q-4.50464,-6.03943 -8.15125,-10.82947q-3.64667,-4.78991 -6.2207,-8.53845q-2.5741,-3.74878 -7.0788,-9.78833q-4.50464,-6.03955 -7.72223,-10.82947q-3.21759,-4.78991 -8.58026,-12.49548q-5.3627,-7.70581 -8.1513,-12.0791q-2.78858,-4.37354 -9.00928,-13.74512q-6.22073,-9.3717 -8.15128,-12.91223q-1.93057,-3.54053 -10.72537,-17.91003q-8.79483,-14.37012 -11.58337,-18.74366q-2.78861,-4.37329 -13.943,-23.9497q-11.15438,-19.57666 -16.73156,-29.57288q-5.57721,-9.99658 -9.86731,-18.74353q-4.29013,-8.74683 -12.01242,-26.2406q-7.72226,-17.49365 -7.72226,-17.91028q0,-0.41662 -7.72226,-19.15979q-7.72225,-18.74353 -12.01238,-29.573q-4.29013,-10.82946 -12.01239,-32.9049q-7.72226,-22.07563 -15.44455,-47.06678q-7.72226,-24.99102 -17.16057,-60.81176q-9.43832,-35.82013 -13.29945,-53.31372q-3.86113,-17.49341 -10.72536,-50.81476q-6.86422,-33.32154 -8.15127,-43.73456q-1.28705,-10.4129 -5.5772,-63.72742q-4.29013,-53.31445 -5.57718,-80.38818q-1.28704,-27.07379 -3.00309,-57.47968q-1.71607,-30.40579 -4.71917,-99.54803q-3.00309,-69.14203 -3.00309,-97.88196l0,-28.74011l2.78858,-1.45773q2.78859,-1.45792 15.23002,-3.54047q12.44142,-2.08261 34.32115,-5.41483q21.87974,-3.33218 66.49722,-10.82962q44.61749,-7.4974 63.92316,-10.82952q19.30563,-3.33216 51.05273,-10.41303q31.74707,-7.08084 54.91385,-13.32858q23.16678,-6.24779 39.89829,-11.66251q16.73156,-5.41479 26.16992,-8.33041q9.43832,-2.91564 18.01864,-5.83129q8.58026,-2.91566 34.32105,-12.49557q25.74066,-9.57988 48.26373,-19.36814q22.52307,-9.78817 24.02466,-9.99646q1.50153,-0.20826 21.66516,-9.37164q20.1637,-9.16342 36.46631,-16.66075q16.30249,-7.49734 32.17602,-14.99474q15.87354,-7.49731 39.46936,-19.57634l23.59577,-12.07906l5.57721,0z"/>
  <path fill="#ffff00" fill-rule="evenodd" stroke="#000000" stroke-width="2px" d="m769.33545,132.96327l5.57721,0l24.02472,12.07907q24.02484,12.07903 31.74707,15.82768q7.72235,3.74866 52.55432,24.36637q44.83197,20.61769 46.33356,20.82599q1.50152,0.20827 23.8103,9.78817q22.30871,9.57996 34.32117,14.16163q12.01232,4.58169 34.75012,12.49554q22.73785,7.91391 28.7442,9.99649q6.00623,2.08264 15.01575,4.99823q9.0094,2.91562 23.16723,7.08084q14.15759,4.16513 36.0376,9.99643q21.87976,5.83124 42.47241,10.41302q20.59265,4.58164 26.59888,5.83124q6.00623,1.24948 38.18225,7.08075q32.17615,5.83139 40.32739,7.08094q8.15125,1.24957 39.89832,6.24789q31.74707,4.99823 32.17614,4.99823q0.42896,0 30.88904,5.83136q30.45996,5.83133 30.67444,6.03952l0.2146,0.20825l-1.28699,62.06171q-1.28711,62.06134 -6.4353,160.3598q-5.14819,98.29846 -8.15124,137.45129q-3.00318,39.15284 -6.86426,67.05957q-3.86109,27.9068 -9.00928,52.89795q-5.14819,24.99097 -11.15442,50.3982q-6.00622,25.40722 -10.72534,44.56695q-4.71912,19.15991 -11.1543,41.23535q-6.4353,22.07557 -7.72229,26.65723q-1.28711,4.58173 -3.8612,11.66254q-2.5741,7.08087 -6.00623,17.49389q-3.43201,10.41291 -10.72534,29.98914q-7.29321,19.57654 -12.01233,31.23901q-4.71924,11.66248 -11.5835,27.90686q-6.86413,16.24427 -17.58947,39.15259q-10.72535,22.90882 -12.87049,26.65735q-2.14502,3.74866 -15.65905,27.28186q-13.51392,23.53345 -16.30249,27.90674q-2.7887,4.37366 -13.29944,22.07568q-10.51087,17.70203 -13.72852,22.49195q-3.21753,4.79004 -9.86731,14.99475q-6.64978,10.20471 -10.72534,15.82776q-4.07568,5.62292 -9.43835,13.32861q-5.36268,7.70557 -10.29639,14.1615q-4.9336,6.4563 -7.72229,10.82959q-2.78858,4.37341 -8.15112,11.24597q-5.3628,6.87256 -10.29639,13.74512q-4.93372,6.87256 -10.72534,14.16186q-5.79175,7.28907 -9.86744,12.49549q-4.07568,5.20629 -17.37536,19.78466q-13.29968,14.57801 -31.31861,33.32154q-18.01879,18.74316 -31.74755,32.0719q-13.72834,13.32849 -18.23298,16.86901q-4.50476,3.54041 -21.02172,17.91028q-16.51697,14.36988 -20.1637,17.4939q-3.64661,3.1239 -18.01862,15.41113q-14.37194,12.28723 -18.87664,15.82776q-4.50464,3.54041 -10.29633,8.33032q-5.79169,4.78992 -16.08801,13.12036q-10.29639,8.33045 -15.65906,12.28736q-5.36267,3.95691 -10.29633,7.08081q-4.93371,3.12378 -18.01861,10.82959q-13.08496,7.70557 -17.16059,10.41296q-4.07562,2.70728 -9.22381,5.62281q-5.1482,2.91577 -10.72534,6.66442q-5.57721,3.74854 -8.15125,5.41468q-2.57416,1.66614 -11.15442,5.8313q-8.58026,4.16528 -20.59265,9.58007q-12.01245,5.41456 -16.73157,7.08069l-4.71917,1.66614l-5.14814,-1.24963q-5.14819,-1.24939 -11.15441,-4.16516q-6.00623,-2.91553 -20.1637,-9.99646q-14.15747,-7.08082 -16.30249,-8.74695q-2.14508,-1.66614 -10.93994,-7.28894q-8.7948,-5.62317 -13.29944,-8.33057q-4.50464,-2.70727 -17.5896,-10.41284q-13.0849,-7.70581 -18.01862,-10.82959q-4.93359,-3.12378 -10.29626,-7.08069q-5.36273,-3.95691 -12.22693,-9.37182q-6.86426,-5.4148 -18.23315,-14.78626q-11.36884,-9.37183 -19.73456,-16.24426q-8.36572,-6.87256 -24.45361,-20.82593q-16.08796,-13.95361 -20.59253,-17.49402q-4.50458,-3.54028 -19.7345,-16.66052q-15.22998,-13.12036 -16.94605,-14.7865q-1.71609,-1.66626 -15.23001,-14.78662q-13.514,-13.12012 -18.87667,-18.74329q-5.36268,-5.62292 -23.59583,-24.99109q-18.23309,-19.36828 -21.87976,-23.74157q-3.64655,-4.37342 -10.72531,-12.91199q-7.07874,-8.5387 -11.15436,-13.74512q-4.07562,-5.20666 -8.15128,-10.82971q-4.07568,-5.6228 -8.58032,-11.66247q-4.50464,-6.03943 -8.15124,-10.82947q-3.64667,-4.78992 -6.22071,-8.53845q-2.57409,-3.74878 -7.07879,-9.78833q-4.50464,-6.03956 -7.72223,-10.82947q-3.21759,-4.78992 -8.58026,-12.49549q-5.3627,-7.70581 -8.15131,-12.0791q-2.78857,-4.37353 -9.00927,-13.74511q-6.22074,-9.37171 -8.15128,-12.91224q-1.93057,-3.54052 -10.72537,-17.91003q-8.79483,-14.37012 -11.58338,-18.74365q-2.7886,-4.37329 -13.94299,-23.94971q-11.15439,-19.57666 -16.73157,-29.57287q-5.57721,-9.99659 -9.86731,-18.74353q-4.29013,-8.74683 -12.01242,-26.24061q-7.72224,-17.49365 -7.72224,-17.91027q0,-0.41663 -7.72226,-19.15979q-7.72225,-18.74353 -12.01238,-29.573q-4.29013,-10.82947 -12.01239,-32.90485q-7.72226,-22.07562 -15.44455,-47.06677q-7.72226,-24.99103 -17.16056,-60.81177q-9.43833,-35.82013 -13.29946,-53.31372q-3.86113,-17.49341 -10.72536,-50.81476q-6.86422,-33.32153 -8.15127,-43.73455q-1.28705,-10.41291 -5.5772,-63.72742q-4.29013,-53.31445 -5.57717,-80.38819q-1.28705,-27.07379 -3.0031,-57.47967q-1.71607,-30.40582 -4.71916,-99.54807q-3.0031,-69.14202 -3.0031,-97.88195l0,-28.74012l2.78859,-1.45773q2.78859,-1.45791 15.23001,-3.54046q12.44142,-2.08262 34.32115,-5.41483q21.87974,-3.33218 66.49722,-10.82962q44.61748,-7.49741 63.92314,-10.82953q19.30564,-3.33215 51.05274,-10.41302q31.74707,-7.08084 54.91385,-13.32859q23.16678,-6.24777 39.89828,-11.6625q16.73157,-5.4148 26.16992,-8.3304q9.43833,-2.91564 18.01865,-5.8313q8.58029,-2.91565 34.32107,-12.49556q25.74067,-9.5799 48.26374,-19.36813q22.52307,-9.7882 24.02466,-9.99646q1.50152,-0.20829 21.66516,-9.37165q20.16369,-9.16342 36.46631,-16.66075q16.30249,-7.49736 32.17602,-14.99473q15.87354,-7.49732 39.46936,-19.57634l23.59576,-12.07908l5.57721,0l0.00001,0z" id="svg_2"/>
  <path fill="#000000" fill-rule="evenodd" stroke="#000000" stroke-width="2px" id="path2" d="m788.01801,61.6111l6.02002,0l25.92999,13.038q25.92999,13.038 34.26495,17.0843q8.33405,4.0462 56.72205,26.3006q48.38696,22.255 50.00799,22.479q1.62,0.22501 25.698,10.56599q24.07898,10.34002 37.03894,15.28601q12.9701,4.945 37.51001,13.487q24.54004,8.542 31.02002,10.79q6.48999,2.248 16.20996,5.395q9.7201,3.148 25,7.64299q15.29004,4.496 38.90003,10.791q23.60998,6.29401 45.84009,11.23902q22.22998,4.94599 28.70996,6.29499q6.47998,1.348 41.20996,7.64299q34.72998,6.29401 43.53003,7.64301q8.79004,1.34801 43.05993,6.74299q34.26001,5.39499 34.73011,5.39499q0.45996,0 33.32995,6.29502q32.88001,6.294 33.10999,6.51901l0.22998,0.224l-1.39002,66.98898q-1.38989,66.98801 -6.93994,173.09003q-5.56006,106.10199 -8.80005,148.36297q-3.23999,42.26099 -7.40991,72.383q-4.17004,30.12201 -9.72009,57.09698q-5.55994,26.97504 -12.03992,54.40003q-6.47998,27.42401 -11.58008,48.10498q-5.08996,20.68103 -12.03991,44.50903q-6.94007,23.828 -8.33008,28.77399q-1.39002,4.94501 -4.16992,12.58801q-2.78003,7.64301 -6.48011,18.883q-3.69995,11.242 -11.57995,32.37201q-7.87,21.13 -12.95996,33.71997q-5.08997,12.58996 -12.5,30.11999q-7.41004,17.53003 -18.98999,42.26001q-11.57007,24.72998 -13.89002,28.77002q-2.31006,4.04993 -16.90002,29.44995q-14.58997,25.40003 -17.59998,30.12q-3.01001,4.72009 -14.34998,23.83008q-11.34008,19.10998 -14.82006,24.2799q-3.46997,5.17005 -10.65003,16.18006q-7.16992,11.02002 -11.56994,17.08996q-4.40003,6.07007 -10.19007,14.39002q-5.78991,8.31006 -11.10998,15.28003q-5.32996,6.96997 -8.33997,11.68994q-3.01001,4.72009 -8.79004,12.14001q-5.78991,7.42005 -11.11999,14.84009q-5.31995,7.40991 -11.56995,15.27991q-6.25,7.86999 -10.65002,13.48999q-4.40003,5.61999 -18.76001,21.36011q-14.34998,15.72998 -33.79993,35.95996q-19.45007,20.22998 -34.26001,34.61999q-14.82007,14.39002 -19.68005,18.20996q-4.87,3.82007 -22.68994,19.33008q-17.83002,15.50989 -21.76008,18.88001q-3.94,3.36999 -19.45196,16.63989q-15.51202,13.26001 -20.37402,17.08008q-4.86096,3.81994 -11.112,8.98999q-6.25098,5.16992 -17.36402,14.16992q-11.11297,8.99011 -16.901,13.26001q-5.78796,4.27002 -11.11297,7.64001q-5.32502,3.37 -19.448,11.69007q-14.12201,8.31994 -18.521,11.23999q-4.39898,2.91992 -9.95599,6.06994q-5.55603,3.15003 -11.57501,7.19007q-6.02002,4.04992 -8.79798,5.84997q-2.77801,1.80005 -12.039,6.29004q-9.26105,4.5 -22.22601,10.33997q-12.96503,5.84997 -18.05798,7.65002l-5.094,1.78992l-5.55603,-1.34998q-5.55701,-1.33996 -12.039,-4.48999q-6.48297,-3.15002 -21.763,-10.79004q-15.27997,-7.63989 -17.59497,-9.43994q-2.31604,-1.80005 -11.80804,-7.86999q-9.49201,-6.07007 -14.35401,-8.98999q-4.862,-2.92005 -18.98498,-11.23999q-14.12201,-8.32007 -19.44702,-11.69007q-5.32496,-3.36999 -11.11298,-7.64001q-5.78796,-4.2699 -13.19702,-10.12q-7.40796,-5.83996 -19.67896,-15.95996q-12.27002,-10.11999 -21.29901,-17.53003q-9.02899,-7.41992 -26.393,-22.47998q-17.36402,-15.05993 -22.22602,-18.89001q-4.862,-3.81995 -21.29998,-17.97998q-16.43702,-14.16004 -18.28998,-15.95996q-1.85202,-1.80005 -16.43802,-15.96009q-14.58499,-14.15991 -20.37302,-20.22998q-5.78799,-6.06994 -25.46798,-26.97998q-19.67899,-20.90002 -23.61402,-25.61999q-3.93597,-4.71997 -11.57599,-13.93994q-7.64099,-9.22009 -12.039,-14.84009q-4.39898,-5.61999 -8.798,-11.68994q-4.39899,-6.06006 -9.26099,-12.58008q-4.862,-6.5199 -8.798,-11.68994q-3.935,-5.17004 -6.71399,-9.21997q-2.77802,-4.05005 -7.64002,-10.56006q-4.862,-6.52002 -8.33398,-11.68994q-3.47302,-5.17004 -9.26102,-13.48999q-5.78799,-8.32007 -8.798,-13.04004q-3.00998,-4.71997 -9.724,-14.83997q-6.71399,-10.10998 -8.797,-13.93005q-2.08398,-3.81995 -11.57599,-19.32996q-9.49301,-15.52002 -12.50201,-20.23999q-3.00998,-4.72009 -15.04898,-25.84997q-12.039,-21.13001 -18.05801,-31.92005q-6.02001,-10.79003 -10.65,-20.22998q-4.63101,-9.44006 -12.96501,-28.32006q-8.33499,-18.89002 -8.33499,-19.33997q0,-0.44995 -8.33501,-20.68005q-8.334,-20.22998 -12.96499,-31.91993q-4.63001,-11.69006 -12.965,-35.51001q-8.33501,-23.833 -16.66901,-50.80804q-8.33499,-26.97498 -18.522,-65.63898q-10.187,-38.66497 -14.35399,-57.54797q-4.16701,-18.88202 -11.576,-54.849q-7.408,-35.966 -8.798,-47.20502q-1.389,-11.23999 -6.019,-68.78698q-4.63,-57.547 -6.02,-86.77002q-1.389,-29.22303 -3.24101,-62.042q-1.85199,-32.82 -5.09299,-107.45101q-3.24201,-74.63199 -3.24201,-105.65299l0,-31.022l3.01001,-1.573q3.01,-1.57401 16.438,-3.82199q13.42799,-2.24701 37.043,-5.844q23.61499,-3.59701 71.771,-11.68901q48.156,-8.093 68.99301,-11.69q20.836,-3.59601 55.10098,-11.239q34.26501,-7.643 59.26901,-14.38701q25.004,-6.74398 43.06198,-12.58898q18.05902,-5.84401 28.246,-8.99201q10.18702,-3.147 19.448,-6.294q9.26001,-3.14699 37.04303,-13.487q27.78198,-10.34099 52.09101,-20.906q24.30896,-10.565 25.92999,-10.79q1.62097,-0.225 23.38299,-10.116q21.763,-9.891 39.35798,-17.98301q17.596,-8.09299 34.72802,-16.18539q17.133,-8.0925 42.59998,-21.1305l25.46704,-13.038l6.01898,0l0,0z"/>
  <path fill="#ffffff" fill-rule="evenodd" stroke="#000000" stroke-width="2px" d="m791.5575,125.55586l5.5772,0l24.02472,12.07907q24.02484,12.07903 31.74707,15.82769q7.72235,3.74865 52.55432,24.36636q44.83197,20.61769 46.33356,20.82599q1.50153,0.20827 23.8103,9.78818q22.30872,9.57995 34.32117,14.16162q12.01233,4.58169 34.75043,12.49554q22.73791,7.91391 28.74426,9.99649q6.00623,2.08264 15.01575,4.99823q9.0094,2.91562 23.16723,7.08084q14.1576,4.16513 36.0376,9.99643q21.87976,5.83124 42.47241,10.41303q20.59265,4.58163 26.59888,5.83123q6.00623,1.24948 38.18225,7.08075q32.17615,5.83139 40.32739,7.08094q8.15125,1.24957 39.89832,6.24789q31.74707,4.99823 32.17615,4.99823q0.42895,0 30.88903,5.83136q30.45997,5.83133 30.67444,6.03952l0.2146,0.20825l-1.28698,62.06171q-1.28711,62.06134 -6.43531,160.35986q-5.14819,98.29846 -8.15124,137.4513q-3.00318,39.15283 -6.86426,67.05957q-3.86108,27.90679 -9.00928,52.89794q-5.14819,24.99097 -11.15442,50.3982q-6.00622,25.40723 -10.72534,44.56695q-4.71911,19.15992 -11.1543,41.23536q-6.4353,22.07556 -7.72229,26.65722q-1.2871,4.58173 -3.8612,11.66254q-2.5741,7.08087 -6.00623,17.4939q-3.432,10.4129 -10.72534,29.98907q-7.29321,19.57648 -12.01233,31.23895q-4.71924,11.66248 -11.58349,27.90686q-6.86414,16.24427 -17.58948,39.15259q-10.72534,22.90881 -12.87049,26.65735q-2.14502,3.74866 -15.65905,27.28186q-13.51392,23.53345 -16.30249,27.90674q-2.7887,4.37366 -13.29944,22.07568q-10.51087,17.70203 -13.72852,22.49195q-3.21753,4.79003 -9.86731,14.99475q-6.64978,10.20471 -10.72534,15.82776q-4.07568,5.62292 -9.43835,13.32861q-5.36267,7.70556 -10.29639,14.1615q-4.93359,6.4563 -7.72229,10.82959q-2.78857,4.37341 -8.15112,11.24597q-5.3628,6.87256 -10.29639,13.74512q-4.93372,6.87256 -10.72534,14.16186q-5.79175,7.28906 -9.86743,12.49548q-4.07569,5.2063 -17.37537,19.78467q-13.29968,14.57801 -31.3186,33.32154q-18.0188,18.74316 -31.74756,32.07189q-13.7284,13.3285 -18.23316,16.86902q-4.50476,3.54041 -21.02191,17.91028q-16.51697,14.36987 -20.1637,17.4939q-3.6466,3.1239 -18.01861,15.41113q-14.37195,12.28723 -18.87665,15.82776q-4.50464,3.5404 -10.29633,8.33032q-5.79168,4.78992 -16.08801,13.12036q-10.29639,8.33045 -15.65906,12.28736q-5.36267,3.95691 -10.29632,7.08081q-4.93372,3.12378 -18.01862,10.82959q-13.08496,7.70556 -17.16058,10.41296q-4.07562,2.70728 -9.22382,5.62281q-5.14819,2.91577 -10.72534,6.66442q-5.57721,3.74854 -8.15124,5.41468q-2.57416,1.66614 -11.15442,5.8313q-8.58026,4.16528 -20.59265,9.58007q-12.01246,5.41455 -16.73157,7.08069l-4.71918,1.66614l-5.14813,-1.24963q-5.14819,-1.24939 -11.15442,-4.16517q-6.00623,-2.91552 -20.1637,-9.99646q-14.15747,-7.08081 -16.30249,-8.74694q-2.14508,-1.66614 -10.93994,-7.28894q-8.7948,-5.62317 -13.29943,-8.33057q-4.50464,-2.70727 -17.5896,-10.41284q-13.0849,-7.70581 -18.01862,-10.82959q-4.93359,-3.12378 -10.29627,-7.08069q-5.36273,-3.95691 -12.22692,-9.37183q-6.86426,-5.41479 -18.23316,-14.78625q-11.36883,-9.37183 -19.73456,-16.24426q-8.36572,-6.87256 -24.45361,-20.82593q-16.08795,-13.95361 -20.59253,-17.49402q-4.50458,-3.54028 -19.7345,-16.66052q-15.22998,-13.12036 -16.94604,-14.7865q-1.71606,-1.66626 -15.22992,-14.78662q-13.51392,-13.12012 -18.87659,-18.74329q-5.36267,-5.62292 -23.59582,-24.99109q-18.23309,-19.36828 -21.87976,-23.74157q-3.64655,-4.37342 -10.72531,-12.91199q-7.07874,-8.5387 -11.15436,-13.74512q-4.07562,-5.20666 -8.15128,-10.82971q-4.07568,-5.6228 -8.58032,-11.66248q-4.50464,-6.03942 -8.15124,-10.82946q-3.64667,-4.78992 -6.22071,-8.53846q-2.57409,-3.74877 -7.07879,-9.78833q-4.50464,-6.03955 -7.72223,-10.82946q-3.21759,-4.78992 -8.58026,-12.49549q-5.3627,-7.70581 -8.15131,-12.0791q-2.78857,-4.37353 -9.00928,-13.74512q-6.22073,-9.3717 -8.15127,-12.91223q-1.93058,-3.54052 -10.72537,-17.91003q-8.79483,-14.37012 -11.58338,-18.74365q-2.7886,-4.37329 -13.94299,-23.94971q-11.15439,-19.57666 -16.73157,-29.57288q-5.57721,-9.99658 -9.86731,-18.74353q-4.29013,-8.74682 -12.01242,-26.2406q-7.72226,-17.49365 -7.72226,-17.91027q0,-0.41663 -7.72226,-19.15979q-7.72223,-18.74353 -12.01236,-29.573q-4.29013,-10.82947 -12.01239,-32.90473q-7.72226,-22.07562 -15.44455,-47.06677q-7.72226,-24.99103 -17.16057,-60.81177q-9.43832,-35.82013 -13.29945,-53.31372q-3.86113,-17.49341 -10.72536,-50.81476q-6.86423,-33.32153 -8.15127,-43.73455q-1.28705,-10.41291 -5.5772,-63.72742q-4.29013,-53.31445 -5.57718,-80.38818q-1.28705,-27.0738 -3.0031,-57.47968q-1.71606,-30.40582 -4.71916,-99.54813q-3.0031,-69.14202 -3.0031,-97.88195l0,-28.74012l2.78859,-1.45773q2.78859,-1.45791 15.23001,-3.54046q12.44143,-2.08262 34.32116,-5.41483q21.87974,-3.33218 66.4972,-10.82962q44.6175,-7.49741 63.92316,-10.82953q19.30564,-3.33215 51.05274,-10.41302q31.74707,-7.08084 54.91384,-13.32859q23.16678,-6.24777 39.89829,-11.6625q16.73157,-5.4148 26.16992,-8.3304q9.43829,-2.91564 18.01856,-5.8313q8.5802,-2.91565 34.32098,-12.49556q25.74066,-9.5799 48.26373,-19.36813q22.52307,-9.7882 24.02466,-9.99646q1.50153,-0.20829 21.66516,-9.37165q20.1637,-9.16342 36.46631,-16.66075q16.30249,-7.49736 32.17603,-14.99473q15.87353,-7.49732 39.46936,-19.57634l23.59576,-12.07908l5.57721,0l0.00001,0z" id="svg_4"/>
  <path fill="#000000" fill-rule="evenodd" stroke="#000000" stroke-width="2px" d="m789.67468,170.0003l5.17249,0l22.28119,11.37055q22.28131,11.37042 29.44317,14.89923q7.16193,3.52875 48.74036,22.93695q41.57861,19.4082 42.97119,19.60431q1.39258,0.19604 22.0824,9.21399q20.68976,9.018 31.83038,13.33087q11.14069,4.31299 32.22833,11.76251q21.08789,7.44971 26.65833,9.4101q5.57031,1.96057 13.92602,4.70514q8.35559,2.74457 21.48597,6.6654q13.13012,3.92078 33.42224,9.4101q20.29199,5.48913 39.39013,9.80212q19.09827,4.31287 24.66858,5.48914q5.57044,1.1762 35.41138,6.6654q29.84106,5.48938 37.40076,6.66553q7.55969,1.17627 37.00293,5.88147q29.44311,4.70502 29.84106,4.70502q0.39783,0 28.64734,5.48925q28.24951,5.48926 28.44836,5.68525l0.1991,0.19598l-1.1936,58.42114q-1.19373,58.42072 -5.96827,150.95288q-4.77465,92.53217 -7.55969,129.38825q-2.78528,36.85602 -6.36621,63.12585q-3.58081,26.26966 -8.35547,49.7948q-4.77453,23.52503 -10.34485,47.44184q-5.57043,23.91674 -9.94702,41.95251q-4.37671,18.03601 -10.34485,38.81647q-5.96826,20.78058 -7.16186,25.0935q-1.19373,4.31293 -3.58094,10.97846q-2.38732,6.6654 -5.57043,16.46771q-3.18286,9.80194 -9.9469,28.22992q-6.76404,18.42816 -11.14062,29.40655q-4.37684,10.9784 -10.74292,26.26978q-6.36597,15.29138 -16.31299,36.85583q-9.9469,21.56507 -11.9364,25.09363q-1.98938,3.52881 -14.52271,25.68152q-12.5332,22.15296 -15.11938,26.26966q-2.58631,4.11706 -12.33423,20.78076q-9.74817,16.66357 -12.7323,21.17248q-2.98401,4.50904 -9.15125,14.11511q-6.16711,9.60621 -9.94702,14.8993q-3.7799,5.29309 -8.75329,12.54675q-4.97351,7.25354 -9.5492,13.33081q-4.57556,6.07752 -7.16186,10.19434q-2.58618,4.11682 -7.55957,10.5863q-4.97364,6.46936 -9.5492,12.93872q-4.57568,6.46948 -9.94702,13.33118q-5.37146,6.86145 -9.15136,11.76245q-3.77991,4.90088 -16.11438,18.62402q-12.33448,13.7229 -29.04578,31.36695q-16.71118,17.64367 -29.4436,30.19055q-12.73206,12.54663 -16.90979,15.87939q-4.17792,3.33277 -19.49622,16.85962q-15.3183,13.52698 -18.70038,16.46777q-3.38208,2.94056 -16.711,14.50708q-13.32904,11.56641 -17.50683,14.8993q-4.17774,3.33264 -9.54908,7.84167q-5.37139,4.50891 -14.92053,12.35071q-9.54919,7.84167 -14.5227,11.56653q-4.97351,3.72473 -9.54914,6.6654q-4.57568,2.94055 -16.71099,10.19434q-12.13538,7.25354 -15.91523,9.80212q-3.77984,2.54846 -8.55444,5.29297q-4.77454,2.74475 -9.94696,6.27344q-5.17248,3.52869 -7.55969,5.09705q-2.38739,1.56848 -10.34497,5.48925q-7.95758,3.9209 -19.09821,9.01807q-11.14068,5.09692 -15.51733,6.6654l-4.37671,1.56836l-4.77454,-1.17627q-4.77453,-1.17614 -10.34491,-3.92089q-5.57037,-2.74451 -18.70038,-9.41004q-13.13006,-6.6654 -15.11944,-8.23389q-1.98938,-1.56835 -10.146,-6.86132q-8.15655,-5.29334 -12.33429,-7.84192q-4.17773,-2.54846 -16.31311,-9.802q-12.13531,-7.25379 -16.711,-10.19434q-4.57556,-2.94055 -9.54901,-6.66528q-4.97357,-3.72486 -11.33966,-8.82202q-6.36609,-5.09717 -16.90991,-13.91895q-10.54382,-8.82202 -18.30243,-15.29138q-7.75861,-6.46936 -22.67895,-19.60425q-14.92048,-13.13501 -19.09815,-16.46777q-4.17767,-3.33264 -18.30231,-15.68323q-14.12475,-12.35071 -15.71631,-13.91907q-1.59149,-1.56848 -14.12469,-13.91919q-12.53326,-12.35046 -17.50678,-17.6438q-4.97351,-5.29309 -21.88348,-23.52514q-16.90991,-18.23206 -20.29187,-22.34888q-3.38196,-4.11682 -9.94702,-12.15454q-6.565,-8.03772 -10.34485,-12.93872q-3.77985,-4.90125 -7.55969,-10.19446q-3.77997,-5.29297 -7.9577,-10.97839q-4.17768,-5.68518 -7.5597,-10.19422q-3.38202,-4.50891 -5.76928,-8.03747q-2.38727,-3.52893 -6.56501,-9.21424q-4.17773,-5.68518 -7.16186,-10.19421q-2.98395,-4.50891 -7.95752,-11.76245q-4.97345,-7.25378 -7.55963,-11.37048q-2.58618,-4.11695 -8.35547,-12.93885q-5.76929,-8.8219 -7.55969,-12.15478q-1.79053,-3.33289 -9.94702,-16.85938q-8.15662,-13.52722 -10.7428,-17.64416q-2.58618,-4.1167 -12.93115,-22.5448q-10.34485,-18.42822 -15.51734,-27.83814q-5.17248,-9.41015 -9.15124,-17.64392q-3.97876,-8.23376 -11.14063,-24.70129q-7.16186,-16.46753 -7.16186,-16.85974q0,-0.39209 -7.16187,-18.03577q-7.16174,-17.64404 -11.14062,-27.83826q-3.97876,-10.19421 -11.14063,-30.97461q-7.16186,-20.7807 -14.32373,-44.3059q-7.16186,-23.52497 -15.91516,-57.24439q-8.7534,-33.71893 -12.33435,-50.18634q-3.58093,-16.46722 -9.94702,-47.83398q-6.36595,-31.36682 -7.55969,-41.16907q-1.19359,-9.802 -5.17247,-59.98895q-3.97876,-50.18708 -5.17238,-75.67267q-1.19371,-25.4856 -2.78514,-54.10779q-1.59157,-28.62219 -4.37671,-93.70831q-2.78517,-65.08612 -2.78517,-92.1402l0,-27.0542l2.58618,-1.37219q2.5862,-1.37231 14.12477,-3.33283q11.53856,-1.96038 31.83043,-5.0971q20.29187,-3.13678 61.67151,-10.1944q41.37951,-7.05762 59.28406,-10.19421q17.90466,-3.13672 47.34771,-9.80219q29.44312,-6.66546 50.92865,-12.54675q21.48554,-5.88129 37.00281,-10.9784q15.5174,-5.0971 24.27081,-7.84167q8.7533,-2.74463 16.71094,-5.48926q7.95764,-2.74457 31.83038,-11.76251q23.87262,-9.01794 44.76117,-18.232q20.88855,-9.21405 22.28119,-9.41003q1.39252,-0.19611 20.0929,-8.8219q18.70038,-8.62591 33.81988,-15.68341q15.11939,-7.05756 29.84101,-14.11511q14.72155,-7.05756 36.60504,-18.42798l21.88336,-11.37054l5.17249,0l-0.00001,-0.00001z" id="svg_3"/>
 </g>
</svg>