<?xml version="1.0" encoding="utf-8"?>
<!-- Generator: Adobe Illustrator 22.1.0, SVG Export Plug-In . SVG Version: 6.00 Build 0)  -->
<svg version="1.1" id="Layer_1" xmlns="http://www.w3.org/2000/svg" xmlns:xlink="http://www.w3.org/1999/xlink" x="0px" y="0px"
	 viewBox="0 0 747 105" style="enable-background:new 0 0 747 105;" xml:space="preserve">
<style type="text/css">
	.st0{fill:none;stroke:#FFFFFF;stroke-width:2;stroke-miterlimit:10;}
</style>
<g>
	<path class="st0" d="M43.6,52.9c-0.4,3-0.9,5.9-1.7,8.8c-0.8,2.8-1.9,5.3-3.3,7.5c-1.5,2.2-3.4,3.9-5.8,5.3c-2.4,1.3-5.4,2-9,2
		c-4.2,0-7.7-1.2-10.3-3.7c-2.6-2.5-4.1-6.3-4.3-11.5L20.3,58c-0.1,1.6,0.4,3,1.3,4.1c0.9,1.1,2,1.7,3.3,1.7c1.4,0,2.5-0.4,3.3-1.2
		c0.9-0.8,1.5-1.9,2-3.1c0.5-1.2,0.9-2.6,1.1-4c0.2-1.4,0.4-2.8,0.6-4l4.8-41.9h11.8L43.6,52.9z"/>
	<path class="st0" d="M73.5,69.2h-0.2c-1.5,2.4-3.4,4.1-5.6,5.2c-2.2,1-4.5,1.6-6.8,1.6c-1.7,0-3.3-0.3-4.8-0.9
		c-1.5-0.6-2.8-1.5-3.9-2.6c-1.1-1.2-1.9-2.6-2.4-4.3c-0.5-1.7-0.6-3.7-0.4-6c0.5-3.9,1.7-6.9,3.6-9c1.9-2.1,4.2-3.7,6.9-4.7
		c2.6-1,5.4-1.6,8.3-1.8c2.9-0.2,5.5-0.3,7.9-0.3c0.3-2.5-0.3-4.4-1.5-5.9c-1.3-1.4-2.9-2.2-4.8-2.2c-1.9,0-3.6,0.5-5.3,1.4
		c-1.6,1-3.2,2.3-4.6,3.9l-5.1-7.6c2.4-2.4,5-4.2,8-5.4c2.9-1.2,5.9-1.8,9-1.8c3.3,0,6,0.5,8.1,1.5s3.6,2.5,4.7,4.5
		c1.1,2,1.7,4.4,1.9,7.2c0.2,2.9,0,6.2-0.4,9.9l-2.6,22.8H72.9L73.5,69.2z M72.3,55.2c-0.9,0-1.9,0-3.2,0.1s-2.5,0.4-3.8,0.8
		C64.1,56.5,63,57.2,62,58c-0.9,0.9-1.5,2.1-1.6,3.6c-0.1,0.9,0,1.6,0.2,2.2c0.3,0.6,0.6,1.1,1.1,1.5c0.5,0.4,1,0.7,1.6,0.9
		c0.6,0.2,1.2,0.3,1.9,0.3c1.1,0,2.2-0.2,3.3-0.6c1.1-0.4,2.1-0.9,2.9-1.6c0.9-0.7,1.6-1.5,2.2-2.6c0.6-1,1-2.3,1.1-3.7l0.3-3H72.3z
		"/>
	<path class="st0" d="M103.1,50.8L93.2,30h13.4l5.1,12.2l7.7-12.2H132l-14.4,20.9l11.4,24h-13.4l-6.4-15l-10.3,15H85.8L103.1,50.8z"
		/>
	<path class="st0" d="M145.1,50.8L135.3,30h13.4l5.1,12.2l7.7-12.2h12.6l-14.4,20.9l11.4,24h-13.4l-6.4-15l-10.3,15h-13.2
		L145.1,50.8z"/>
	<path class="st0" d="M206.3,9.5h11.8l-6,52.1H234l-1.5,13.3h-33.7L206.3,9.5z"/>
	<path class="st0" d="M242.8,30h11.3L249,74.8h-11.3L242.8,30z M243.5,15.8c0.2-1.1,0.5-2.2,0.9-3.1c0.5-1,1-1.8,1.7-2.5
		c0.7-0.7,1.4-1.3,2.3-1.7c0.9-0.4,1.7-0.6,2.6-0.6c1.8,0,3.3,0.8,4.3,2.4c1.1,1.6,1.5,3.5,1.2,5.7c-0.1,1.1-0.4,2.2-0.8,3.1
		c-0.5,1-1,1.8-1.7,2.5c-0.7,0.7-1.4,1.3-2.3,1.7c-0.9,0.4-1.7,0.6-2.6,0.6c-0.9,0-1.7-0.2-2.5-0.6c-0.8-0.4-1.4-1-1.9-1.7
		c-0.5-0.7-0.9-1.6-1.1-2.5C243.5,18,243.4,17,243.5,15.8z"/>
	<path class="st0" d="M266.3,5h11.3l-3.5,29.7h0.2c1.6-2.2,3.4-3.7,5.6-4.6c2.1-0.9,4.4-1.3,6.8-1.3c2.6,0,4.9,0.7,6.8,2
		c1.9,1.3,3.5,3.1,4.7,5.3c1.2,2.2,2,4.8,2.5,7.6c0.4,2.9,0.5,5.9,0.1,9c-0.4,3.4-1.2,6.5-2.4,9.3c-1.2,2.8-2.7,5.3-4.5,7.3
		c-1.8,2.1-3.9,3.7-6.2,4.8c-2.3,1.1-4.9,1.7-7.6,1.7c-1.3,0-2.5-0.2-3.6-0.6c-1.1-0.4-2.1-1-3-1.7c-0.9-0.7-1.7-1.4-2.3-2.3
		c-0.7-0.8-1.2-1.6-1.5-2.4h-0.2l-0.6,5.9h-10.4L266.3,5z M271.3,52.4c-0.4,3.4,0.1,6.1,1.4,8.2c1.3,2.1,3.4,3.1,6.3,3.1
		s5.2-1,7.1-3.1c1.8-2.1,3-4.8,3.4-8.2c0.4-3.4-0.1-6.1-1.4-8.2c-1.4-2.1-3.5-3.1-6.4-3.1s-5.2,1-7,3.1
		C272.8,46.3,271.7,49,271.3,52.4z"/>
	<path class="st0" d="M340.5,67.1c-2.1,2.8-4.7,5-7.6,6.6c-2.9,1.5-5.9,2.3-8.9,2.3c-2.8,0-5.4-0.6-7.8-1.7
		c-2.4-1.1-4.3-2.7-5.9-4.8c-1.6-2.1-2.7-4.5-3.5-7.4c-0.7-2.9-0.9-6.1-0.5-9.7c0.4-3.6,1.3-6.8,2.7-9.7c1.4-2.9,3.1-5.4,5.2-7.4
		c2.1-2.1,4.4-3.6,7-4.8c2.6-1.1,5.3-1.7,8.2-1.7c2.6,0,4.9,0.6,7,1.7c2,1.1,3.7,2.7,4.9,4.8c1.3,2.1,2.1,4.5,2.6,7.4
		c0.5,2.9,0.5,6.1,0.1,9.7l-0.5,4.3h-26.3c0.2,2.6,0.9,4.8,2.2,6.3c1.3,1.6,3.1,2.4,5.3,2.4c1.9,0,3.5-0.5,4.9-1.5
		c1.4-1,2.7-2.3,3.8-3.9L340.5,67.1z M333.1,47.3c0.3-2.3-0.1-4.3-1.2-6c-1.1-1.7-2.7-2.5-4.8-2.5c-1.3,0-2.4,0.2-3.4,0.7
		c-1,0.5-1.9,1.1-2.6,1.9c-0.8,0.8-1.4,1.7-1.9,2.7c-0.5,1-0.9,2.1-1.1,3.2H333.1z"/>
	<path class="st0" d="M353.4,30h11.3l-0.8,7.2h0.2c1.5-2.8,3.2-4.8,5-6.2c1.8-1.4,4-2.1,6.5-2.1c0.7,0,1.3,0,2,0.1
		c0.7,0.1,1.3,0.2,1.8,0.4L377.9,42c-0.8-0.3-1.6-0.5-2.3-0.7c-0.8-0.2-1.6-0.2-2.4-0.2c-2.2,0-3.9,0.4-5.3,1.1s-2.4,1.8-3.3,3.1
		c-0.8,1.3-1.4,2.9-1.9,4.8c-0.4,1.8-0.8,3.9-1,6.1l-2.1,18.7h-11.3L353.4,30z"/>
	<path class="st0" d="M407.9,41h-10l-1.7,15c-0.2,1.2-0.2,2.4-0.2,3.4c0,1,0.1,1.9,0.4,2.6s0.8,1.3,1.4,1.7c0.7,0.4,1.6,0.6,2.8,0.6
		c0.6,0,1.4-0.1,2.4-0.2c1-0.2,1.8-0.5,2.3-1.1l-1.3,11.5c-1.3,0.6-2.7,0.9-4,1.1c-1.4,0.2-2.7,0.3-4,0.3c-1.9,0-3.7-0.2-5.2-0.7
		s-2.9-1.3-4-2.4c-1.1-1.1-1.9-2.5-2.3-4.2c-0.5-1.7-0.6-3.8-0.3-6.3l2.5-21.3h-7.3l1.3-11.1h7.3l1.5-13.3h11.3L399.2,30h10
		L407.9,41z"/>
	<path class="st0" d="M430.1,82.1c-1,2.4-2,4.5-2.9,6.4s-2,3.4-3.2,4.7c-1.2,1.3-2.7,2.2-4.5,2.9c-1.7,0.6-4,1-6.7,1
		c-2.9,0-5.7-0.6-8.2-1.7l2.8-11.4c1.6,0.9,3.3,1.4,5.1,1.4c1.3,0,2.3-0.2,3.2-0.5s1.6-0.8,2.2-1.5c0.6-0.6,1.1-1.4,1.6-2.4
		c0.5-0.9,1-2,1.5-3.2l1.1-2.6L411.2,30h12.3l6.1,29.6h0.2L441.1,30h11.6L430.1,82.1z"/>
	<path class="st0" d="M479.6,30h11.3l-5.1,44.9h-11.3L479.6,30z M480.2,15.8c0.2-1.1,0.5-2.2,0.9-3.1c0.5-1,1-1.8,1.7-2.5
		c0.7-0.7,1.4-1.3,2.3-1.7c0.9-0.4,1.7-0.6,2.6-0.6c1.8,0,3.3,0.8,4.3,2.4c1.1,1.6,1.5,3.5,1.2,5.7c-0.1,1.1-0.4,2.2-0.8,3.1
		c-0.5,1-1,1.8-1.7,2.5c-0.7,0.7-1.5,1.3-2.3,1.7c-0.9,0.4-1.7,0.6-2.6,0.6c-0.9,0-1.7-0.2-2.5-0.6c-0.8-0.4-1.4-1-1.9-1.7
		c-0.5-0.7-0.9-1.6-1.1-2.5C480.2,18,480.1,17,480.2,15.8z"/>
	<path class="st0" d="M518.4,43.2c-1.4-2.5-3.4-3.8-6.2-3.8c-1,0-1.9,0.3-2.9,0.8c-1,0.6-1.5,1.5-1.7,2.9c-0.2,1.1,0.2,1.9,1.1,2.4
		c0.9,0.5,2,1,3.4,1.4c1.4,0.4,2.8,0.8,4.4,1.3c1.6,0.5,3,1.2,4.3,2.2c1.3,1,2.3,2.3,3.1,4c0.7,1.7,0.9,4,0.6,6.8
		c-0.3,2.9-1.1,5.3-2.3,7.2c-1.3,1.9-2.8,3.4-4.5,4.5c-1.7,1.1-3.6,1.9-5.7,2.4c-2.1,0.5-4.1,0.7-6,0.7c-2.6,0-5.1-0.4-7.6-1.3
		c-2.5-0.9-4.6-2.5-6.1-4.8l7.9-9.3c0.9,1.6,2,2.8,3.1,3.6c1.2,0.8,2.6,1.2,4.3,1.2c1.3,0,2.5-0.2,3.6-0.7c1.1-0.5,1.7-1.3,1.9-2.5
		c0.2-1.2-0.2-2-1.1-2.6c-0.9-0.6-2-1.1-3.4-1.5c-1.4-0.4-2.9-0.8-4.5-1.3c-1.6-0.5-3.1-1.2-4.4-2.1s-2.4-2.2-3.1-3.9
		c-0.8-1.7-1-4-0.6-6.8c0.3-2.6,1-4.9,2.1-6.8c1.1-1.9,2.5-3.5,4-4.7c1.6-1.2,3.3-2.1,5.3-2.7c1.9-0.6,3.8-0.9,5.7-0.9
		c2.4,0,4.8,0.4,7.2,1.3c2.4,0.9,4.3,2.4,5.7,4.6L518.4,43.2z"/>
	<path class="st0" d="M560.3,9.5h11.8l-2.8,24.4h22.9L595,9.5h11.8l-7.5,65.3h-11.8l3.3-28.2h-22.9l-3.3,28.2h-11.8L560.3,9.5z"/>
	<path class="st0" d="M644.4,67.1c-2.1,2.8-4.7,5-7.6,6.6c-2.9,1.5-5.9,2.3-8.9,2.3c-2.8,0-5.4-0.6-7.8-1.7
		c-2.4-1.1-4.3-2.7-5.9-4.8c-1.6-2.1-2.7-4.5-3.5-7.4c-0.7-2.9-0.9-6.1-0.5-9.7c0.4-3.6,1.3-6.8,2.7-9.7c1.4-2.9,3.1-5.4,5.2-7.4
		c2.1-2.1,4.4-3.6,7-4.8c2.6-1.1,5.3-1.7,8.2-1.7c2.6,0,4.9,0.6,7,1.7c2,1.1,3.7,2.7,4.9,4.8c1.3,2.1,2.1,4.5,2.6,7.4
		c0.5,2.9,0.5,6.1,0.1,9.7l-0.5,4.3H621c0.2,2.6,0.9,4.8,2.2,6.3c1.3,1.6,3.1,2.4,5.3,2.4c1.9,0,3.5-0.5,4.9-1.5
		c1.4-1,2.7-2.3,3.8-3.9L644.4,67.1z M637,47.3c0.3-2.3-0.1-4.3-1.2-6c-1.1-1.7-2.7-2.5-4.8-2.5c-1.3,0-2.4,0.2-3.4,0.7
		c-1,0.5-1.9,1.1-2.6,1.9c-0.8,0.8-1.4,1.7-1.9,2.7c-0.5,1-0.9,2.1-1.1,3.2H637z"/>
	<path class="st0" d="M657.3,30h11.3l-0.8,7.2h0.2c1.5-2.8,3.2-4.8,5-6.2c1.8-1.4,4-2.1,6.5-2.1c0.7,0,1.3,0,2,0.1
		c0.7,0.1,1.3,0.2,1.8,0.4L681.8,42c-0.8-0.3-1.6-0.5-2.3-0.7c-0.8-0.2-1.6-0.2-2.4-0.2c-2.2,0-3.9,0.4-5.3,1.1s-2.4,1.8-3.3,3.1
		c-0.8,1.3-1.4,2.9-1.9,4.8c-0.4,1.8-0.8,3.9-1,6.1l-2.1,18.7h-11.3L657.3,30z"/>
	<path class="st0" d="M717.2,67.1c-2.1,2.8-4.7,5-7.6,6.6c-2.9,1.5-5.9,2.3-8.9,2.3c-2.8,0-5.4-0.6-7.8-1.7
		c-2.4-1.1-4.3-2.7-5.9-4.8c-1.6-2.1-2.7-4.5-3.5-7.4c-0.7-2.9-0.9-6.1-0.5-9.7c0.4-3.6,1.3-6.8,2.7-9.7c1.4-2.9,3.1-5.4,5.2-7.4
		c2.1-2.1,4.4-3.6,7-4.8c2.6-1.1,5.3-1.7,8.2-1.7c2.6,0,4.9,0.6,7,1.7c2,1.1,3.7,2.7,4.9,4.8c1.3,2.1,2.1,4.5,2.6,7.4
		c0.5,2.9,0.5,6.1,0.1,9.7l-0.5,4.3h-26.3c0.2,2.6,0.9,4.8,2.2,6.3c1.3,1.6,3.1,2.4,5.3,2.4c1.9,0,3.5-0.5,4.9-1.5
		c1.4-1,2.7-2.3,3.8-3.9L717.2,67.1z M709.9,47.3c0.3-2.3-0.1-4.3-1.2-6c-1.1-1.7-2.7-2.5-4.8-2.5c-1.3,0-2.4,0.2-3.4,0.7
		c-1,0.5-1.9,1.1-2.6,1.9c-0.8,0.8-1.4,1.7-1.9,2.7c-0.5,1-0.9,2.1-1.1,3.2H709.9z"/>
	<path class="st0" d="M726.1,66.9c0.2-1.2,0.5-2.3,0.9-3.3c0.5-1,1.1-2,1.8-2.7c0.7-0.8,1.5-1.4,2.4-1.8c0.9-0.4,1.8-0.6,2.8-0.6
		c1.9,0,3.5,0.8,4.6,2.5c1.2,1.7,1.6,3.7,1.4,6c-0.2,1.2-0.5,2.3-0.9,3.3c-0.5,1-1.1,2-1.8,2.7c-0.7,0.8-1.5,1.4-2.4,1.8
		c-0.9,0.4-1.8,0.6-2.8,0.6c-1,0-1.8-0.2-2.6-0.6s-1.5-1-2-1.8c-0.5-0.8-0.9-1.7-1.2-2.7C726,69.2,726,68.1,726.1,66.9z"/>
</g>
<g>
</g>
<g>
</g>
<g>
</g>
<g>
</g>
<g>
</g>
<g>
</g>
<g>
</g>
<g>
</g>
<g>
</g>
<g>
</g>
<g>
</g>
<g>
</g>
<g>
</g>
<g>
</g>
<g>
</g>
</svg>
