<?xml version="1.0" encoding="utf-8"?>
<!-- Generator: Adobe Illustrator 22.1.0, SVG Export Plug-In . SVG Version: 6.00 Build 0)  -->
<svg version="1.1" id="jaxx_liberty" xmlns="http://www.w3.org/2000/svg" xmlns:xlink="http://www.w3.org/1999/xlink" x="0px"
	 y="0px" viewBox="0 0 274.7 136.7" style="enable-background:new 0 0 274.7 136.7;" xml:space="preserve">
<style type="text/css">
	.st0{fill:#264176;}
	.st1{fill:none;}
	.st2{fill:#FF6901;}
</style>
<path class="st0" d="M131.9,111.8c-2.2-1.5-2.1-2.9-0.7-6.1c2.3-5.3,14.2-19.8,19.6-29.1c0.3-0.4,0.6-0.6,1.2-0.3
	c0.9,0.4,2.2,1.5,3,2.5c0.7,1.1,0.7,2.3-1.1,5.6c-3,5.3-12.4,16.6-15.2,22.9c6.4-0.9,13.2-1.6,15.1-1.6c0.4,0,0.5,0.2,0.3,0.5
	c-0.4,1.3-0.8,2-2.9,2.7c-5.9,1.8-12.5,3.6-15.6,4.1C133.9,113.3,133.4,112.9,131.9,111.8z"/>
<path class="st0" d="M157.1,110.1c-2.3-2.1-2.3-3.2,1.4-9c2.1-3.2,4.7-6.7,5.8-7.9c0.2-0.3,0.4-0.4,0.8-0.3c1.3,0,4.4,0.3,4.4,2.2
	c0,1-1,2.8-2.8,5.2c-2.8,3.9-4.5,6.6-5.1,8.4c2.4-0.2,5.5-1.6,9.9-7.4l0.2-0.2c0.4-0.5,0.5-0.5,0.6-0.3l0.2,0.2
	c0.4,0.4,0.3,0.6,0.1,1l-0.2,0.3c-2.3,3.8-8,9.9-11.8,9.8C159.2,111.7,158.5,111.2,157.1,110.1z M168.5,88c0.8-1.6,1.9-3.2,2.9-4.3
	c0.8-0.9,1.2-1.2,1.6-1c1.1,0.3,2.3,1,2.9,1.5c0.5,0.4,0.7,0.7,0.3,1.1c-1.3,1.3-2.8,2.7-3.4,3.3c-0.8,0.9-1.5,1-2.3,1
	c-0.7,0-1.8-0.3-2.1-0.6C168.3,88.7,168.3,88.4,168.5,88z"/>
<path class="st0" d="M174.5,109c-0.8,1.6-1.2,2.8-2.3,2.8c-1.2,0-3.9-1.3-3.9-3.7c0-1,0.1-2.3,3.2-7c6.1-9.3,12.2-18.5,15.6-23.5
	c0.9-1.4,1.3-1.7,1.9-1.7c0.3,0,1,0.2,1.5,0.3c1.8,0.5,3,1.9,0.7,6.7c-0.9,1.7-3.5,5.8-6.7,10.5c0.8-0.1,1.5-0.1,2.1-0.1
	c1.7,0,2.8,0.5,3.5,1.4c0.8,0.9,1.3,2.6,0.9,5c3.1-0.5,5.1-1.4,7.6-3.8l0.2-0.2c0.4-0.4,0.6-0.3,0.7-0.1l0.1,0.2
	c0.2,0.3,0.2,0.6-0.1,0.9l-0.2,0.3c-2.5,3.1-5.5,4.1-8.7,4.6c-0.1,0.2-0.2,0.4-0.2,0.6c-1.6,4.3-6.5,9.2-12.6,9.1
	C176.2,111.1,175.5,110.3,174.5,109z M180.2,105.4c1.7-0.8,3.2-2,4.3-3.3c-1.9,0.2-3.8,0.6-5.4,1.4c-1.4,0.7-2.5,1.7-3.3,3.2
	C177.4,106.5,178.9,106,180.2,105.4z M186.1,100.1c1.1-1.7,1.8-3.3,1.9-4.5c-2.1,0.3-6.3,2-9.4,5.8
	C180.8,100.4,183.2,100.2,186.1,100.1z"/>
<path class="st0" d="M195.9,111.3c-1.5-0.8-3-2.4-3.8-4.1c-0.7-1.7,0-4.8,2.1-7.7c2.8-3.7,7.8-6.7,11.2-6.7c1.4,0,2.4,0.5,3.8,2.6
	c1.1,1,1.8,1.9,1.7,3c0,1.2-1.1,2.8-4.3,4.8c-1.9,1.1-4.8,2.4-8.2,3.4c-0.1,0.7-0.2,1.3-0.1,1.9c0.6,0.2,1.4,0.3,2.1,0.3
	c1.8,0,4-0.7,5.4-1.7c0.8-0.5,1-0.7,1.1-0.7s0.2,0.2,0.1,0.4c0,0.3-0.1,0.8-0.2,1.3c-0.2,0.6-0.5,1-1.2,1.5
	c-1.9,1.4-4.2,2.6-6.8,2.6C197.7,112,196.7,111.8,195.9,111.3z M207.9,96.8c-3.1,0.7-6.8,3.9-8.5,7.4c2.2-0.9,4.4-2,5.6-3
	C207.3,99.5,208,98.2,207.9,96.8z"/>
<path class="st0" d="M210.9,110.6c-1.2-0.8-1.7-1.5-1.6-2.6c0-1.7,1.1-3.6,3.5-6.8c3.1-4.1,5.2-7.4,5.9-8.6c0.2-0.3,0.4-0.4,1-0.3
	c0.9,0.1,2.1,0.4,2.7,0.7c0.7,0.4,1.2,1.1,0.6,3.3c2.8-2.4,5.3-3.9,8.1-5.5c0.9-0.5,1.4-0.7,1.6-0.7c0.4,0,0.5,0.8,0.5,1.3
	s-0.4,0.8-1,1.3c-4.7,3.4-9.6,7.9-15.4,15.8c-2.2,3-2.5,3.3-3.3,3.3C212.8,111.7,212,111.4,210.9,110.6z"/>
<path class="st0" d="M227.7,108.8c-0.8-1.1-0.5-3.8,1.9-7.5c0.9-1.4,2.3-3.4,3.9-5.5c-1.4,0.1-2-0.2-2.2-0.7
	c-0.2-0.4-0.3-1.4-0.3-1.8s0.3-0.5,0.9-0.5c1.3-0.1,2.7-0.3,4.1-0.4c2.2-3.1,4.4-6.2,5.5-8.3c0.7-1.3,0.9-1.6,1.2-1.6
	c0.4,0,1.3,0.3,2.5,0.9s2,1.3,2,2.4c0,1.2-1.1,3-2.9,5.8c1.6-0.1,2.8-0.2,3.7-0.2c0.7,0,0.8,0.1,0.8,0.3c0,0.3-0.1,0.9-0.4,1.2
	c-0.2,0.2-0.5,0.4-1.3,0.6c-1.2,0.3-2.9,0.7-4.8,1c-2.9,4.2-7,10.3-8.6,13.7c0.3,0.1,0.6,0.1,0.9,0.1c1.7,0,4.1-1.1,6-2.8
	c0.1-0.1,0.3-0.1,0.3,0c0,0.2,0.1,0.6,0.1,0.8c0,0.2-0.1,0.5-0.4,1c-1.4,1.9-4.7,4.8-7.9,4.8C230.7,112.1,229,110.7,227.7,108.8z"/>
<path class="st0" d="M232.4,124.5c-1.2-1.8-1.2-4.8,1.6-7.3c3.4-3,9.6-4.7,16-5.8c1.2-1.8,2.5-3.8,3.9-6.1c-2.1,2.3-3.9,3.6-4.5,4.1
	c-1.4,0.9-2.5,1.2-3.1,1.2c-1,0-2-0.4-3.2-1.7c-1.1-1.2-0.7-2.7,2.3-7.5c2.4-3.9,3.6-6.6,3.9-8c0.1-0.6,0.4-0.8,0.8-0.8
	c0.6,0,1.4,0.2,2.2,0.5c2.2,0.9,2.7,2.4,1.2,5.7c-0.9,2-2.1,4.4-2.9,6.3c2.3-1.3,5.1-4,8.9-9.2c1.2-1.7,1.5-2,2-2s1.2,0.4,2.2,0.7
	c1.7,0.6,2.3,1.6,1.5,3c-1.7,3.2-4.6,8-7.8,12.8c3.1-0.3,6-0.4,8-0.4c0.4,0,0.6,0.2,0.5,0.4c-0.3,0.5-0.5,0.7-0.8,1.1
	c-0.3,0.5-0.9,0.6-1.6,0.7c-2.8,0.2-5.4,0.5-7.9,0.8c-6.3,8.9-12.8,13.7-18.5,13.7C234.9,126.9,233.3,125.9,232.4,124.5z
	 M235.2,123.1c3.6,0.1,7.6-2.5,12.3-8.4c-4.1,1.1-7.4,2.5-9.6,4.2C236.3,120.2,235.1,121.7,235.2,123.1z"/>
<path class="st1" d="M236.8,71.6h-1.2v1.6h1.2c0.6,0,1-0.3,1-0.8S237.4,71.6,236.8,71.6z"/>
<path class="st1" d="M179.1,63.8c0.2,0.2,0.4,0.5,0.5,0.7C179.5,64.3,179.3,64,179.1,63.8z"/>
<path class="st1" d="M67.7,55.8v0.3c0,5.4,4.5,8.6,10.9,8.6c9.4,0,15.7-5.1,15.7-12.4v-3.7C90.9,47,86.4,46,81.5,46
	C72.9,46,67.7,49.4,67.7,55.8z"/>
<path class="st1" d="M236.6,69.1c-2.3,0-4.1,1.9-4.1,4.2c0,0.1,0,0.1,0,0.2c0,2.3,1.9,4.1,4.2,4c2.3,0,4.1-1.9,4-4.2v-0.1
	C240.7,70.9,238.9,69.1,236.6,69.1z M238.5,74.9c0.1,0,0.1,0.2,0.1,0.3c0,0.3-0.2,0.5-0.4,0.5c-0.1,0-0.3-0.1-0.4-0.2l-1.2-1.5h-1
	v1.3c0,0.3-0.2,0.5-0.5,0.5c-0.2,0-0.4-0.2-0.4-0.5v-3.9c0-0.3,0.2-0.5,0.5-0.5h1.7c1,0,1.8,0.5,1.8,1.5c0.1,0.6-0.4,1.2-1.1,1.4
	L238.5,74.9z"/>
<path class="st0" d="M187.7,51.1c-3.7-3.1-9.3-2.6-12.4,1.1l-3,3.5l6.8,8.1c0.2,0.2,0.4,0.5,0.5,0.7c0,0,0,0,0,0
	c2.1,3.2,2,7.4-0.5,10.5l9.6-11.5C191.9,59.8,191.4,54.2,187.7,51.1z"/>
<path class="st0" d="M224.3,7.3c-3.7-3.1-9.3-2.6-12.4,1.1L195.5,28L179.3,8.5c2.6,3.3,2.6,8-0.1,11.2l-6.8,8.1l39.5,47.3
	c3.1,3.7,8.7,4.2,12.4,1.1c3.7-3.1,4.2-8.7,1.1-12.4L207,41.7l18.4-22C228.5,16,228,10.4,224.3,7.3z"/>
<path class="st2" d="M178,7.3c-3.7-3.1-9.3-2.6-12.4,1.1L149.2,28L132.8,8.4c-3.1-3.7-8.7-4.2-12.4-1.1c-3.7,3.1-4.2,8.7-1.1,12.4
	l18.4,22.1l-18.4,22c-3.1,3.7-2.6,9.3,1.1,12.4c3.7,3.1,9.3,2.6,12.4-1.1l46.3-55.4C182.2,16,181.7,10.4,178,7.3z"/>
<path class="st2" d="M33.3,5.4C27.7,5.3,23.1,9.7,23,15.3c0,0.1,0,0.2,0,0.3v60.1c0,4.7-2,6.6-4.9,6.6H18c-4.2,0-7.8,3.2-7.8,8
	c0.1,5.6,4.8,8.2,11.3,8.2h0.3c13.2,0,21.4-7.1,21.4-22.7V15.6C43.3,10.1,38.9,5.5,33.3,5.4z"/>
<path class="st2" d="M81.7,5.5c-9.3,0-16.2,1.3-22.5,3.7c-3.2,1.2-5.4,4.3-5.4,7.8c0,4.7,3.7,8.2,8.3,8.2c1,0,2-0.2,2.9-0.5
	c3.8-1.2,8.3-2,13.8-2c10.1,0,15.2,4.6,15.2,12.9v1.2c-5-1.7-10.2-2.9-17.3-2.9C60,33.9,48.3,41,48.1,56.4v0.3
	c0,14,11,21.6,24.3,21.6c9.8,0,16.5-3.6,21.4-9v0.1c0,4.2,3.8,8.3,9.6,8.3c5.4,0,9.8-4.2,9.8-9.6V35.9c0-9.5-2.3-17.2-7.6-22.5
	C100.6,8.4,92.6,5.5,81.7,5.5z M94.3,52.3c0,7.3-6.3,12.4-15.7,12.4c-6.4,0-10.9-3.2-10.9-8.6v-0.3c0-6.4,5.2-9.8,13.8-9.8
	c4.9,0,9.4,1,12.8,2.6V52.3z"/>
<path class="st2" d="M179.1,63.8l-6.8-8.1l-2.9-3.5c-3.1-3.8-8.7-4.3-12.4-1.1c-3.7,3.1-4.2,8.7-1.1,12.4l9.7,11.6
	c3.1,3.7,8.7,4.2,12.4,1.1c3.5-2.9,4.1-8,1.7-11.7c0,0,0,0,0,0C179.5,64.3,179.3,64,179.1,63.8z"/>
<path class="st0" d="M236.6,68.6c-2.6,0-4.7,2.1-4.7,4.7c0,2.6,2,4.7,4.6,4.8c2.6,0,4.7-2,4.8-4.6c0-0.1,0-0.1,0-0.2
	C241.3,70.7,239.2,68.6,236.6,68.6z M240.7,73.3c0.1,2.3-1.7,4.2-4,4.2c-2.3,0.1-4.2-1.7-4.2-4c0-0.1,0-0.1,0-0.2
	c0-2.3,1.8-4.2,4.1-4.2C238.9,69.1,240.7,70.9,240.7,73.3L240.7,73.3z"/>
<path class="st0" d="M238.7,72.4c0-1-0.8-1.5-1.8-1.5h-1.7c-0.3,0-0.5,0.2-0.5,0.5v3.9c0,0.3,0.2,0.5,0.4,0.5c0.3,0,0.5-0.2,0.5-0.5
	V74h1l1.2,1.5c0.1,0.1,0.3,0.2,0.4,0.2c0.2,0,0.4-0.2,0.4-0.5c0-0.1,0-0.3-0.1-0.3l-0.9-1.1C238.3,73.6,238.8,73,238.7,72.4z
	 M236.8,73.2h-1.2v-1.6h1.2c0.6,0,1,0.3,1,0.8S237.4,73.2,236.8,73.2z"/>
</svg>
