 <svg version="1.0" xmlns="http://www.w3.org/2000/svg" width="700.000000pt" height="451.000000pt" viewBox="0 0 700.000000 451.000000" preserveAspectRatio="xMidYMid meet">
<metadata>
Created by potrace 1.12, written by Peter Selinger 2001-2015
</metadata>
<g transform="translate(0.000000,451.000000) scale(0.100000,-0.100000)" fill="#000000" stroke="none">
<path d="M3390 4480 c30 -16 71 -34 90 -41 41 -14 170 -104 249 -174 l56 -50
85 2 c112 3 259 1 295 -5 6 -1 32 -20 58 -41 27 -22 75 -49 111 -61 37 -12 74
-33 91 -50 52 -54 98 -79 165 -89 36 -6 84 -16 108 -23 34 -10 50 -10 85 1 89
27 117 25 177 -14 68 -44 108 -45 129 -1 13 27 15 28 70 23 108 -11 198 -26
262 -46 83 -25 189 -40 367 -51 78 -5 148 -12 154 -16 20 -13 639 -33 666 -23
13 5 43 23 66 39 26 19 59 32 91 36 53 7 148 50 203 91 l32 24 0 250 0 249
-1832 0 -1833 -1 55 -29z"></path>
<path d="M475 3200 c10 -11 23 -20 28 -20 6 0 2 9 -8 20 -10 11 -23 20 -28 20
-6 0 -2 -9 8 -20z"></path>
<path d="M579 3102 c35 -41 63 -62 89 -70 21 -6 53 -27 71 -46 35 -36 38 -59
16 -133 -6 -17 5 -32 54 -79 34 -32 64 -67 67 -80 8 -32 49 -67 129 -110 72
-39 270 -213 281 -247 3 -9 24 -27 47 -39 52 -26 126 -88 233 -195 46 -46 88
-83 94 -83 24 0 90 -44 90 -59 0 -10 16 -21 43 -29 84 -27 103 -40 105 -75 4
-56 7 -64 35 -101 22 -28 28 -47 29 -93 2 -37 -2 -58 -10 -61 -7 -2 -10 -8 -6
-13 8 -14 24 -11 24 6 0 23 19 18 29 -9 10 -25 28 -35 76 -43 17 -2 41 -15 55
-28 14 -13 44 -33 68 -45 23 -12 45 -26 48 -31 3 -5 12 -9 21 -9 13 0 12 5 -7
25 -27 28 -22 42 9 26 25 -14 68 -4 80 17 5 9 39 23 78 33 59 14 71 14 90 1
13 -8 42 -13 70 -12 74 4 83 2 94 -24 6 -13 20 -27 30 -29 11 -3 17 -1 13 4
-3 5 2 9 10 9 9 0 21 9 28 20 7 11 17 20 22 20 5 0 17 7 26 15 20 18 160 23
210 8 88 -28 141 -40 145 -32 7 11 -2 15 -81 39 -128 40 -142 43 -161 35 -10
-3 -43 -9 -73 -12 -55 -5 -97 -20 -86 -30 8 -9 -14 -33 -30 -33 -8 0 -14 6
-14 13 0 21 -47 35 -108 31 -48 -4 -67 0 -96 17 l-36 21 -34 -21 c-18 -12 -43
-21 -54 -21 -12 0 -38 -11 -58 -25 -55 -38 -67 -34 -58 20 5 33 2 51 -10 70
-9 13 -16 29 -16 36 0 28 -42 68 -78 75 -48 9 -72 21 -72 39 0 7 -13 23 -30
35 -16 12 -30 28 -30 37 0 10 -6 13 -16 9 -10 -4 -25 5 -42 25 -26 32 -112 79
-143 79 -9 0 -24 10 -35 21 -29 32 -100 79 -121 79 -10 0 -45 30 -78 66 -33
36 -80 80 -104 96 -24 17 -61 48 -82 68 -21 20 -53 41 -71 46 -20 6 -34 17
-36 29 -5 23 -51 75 -67 75 -6 0 -42 32 -80 71 -39 38 -86 77 -105 86 -86 40
-151 87 -156 113 -6 27 -62 92 -108 123 -20 14 -24 22 -17 35 5 9 12 36 16 60
7 41 5 45 -35 83 -25 24 -59 44 -86 51 -33 9 -50 21 -65 45 -20 32 -55 63 -72
63 -5 0 15 -26 42 -58z m1451 -1276 c0 -11 -19 -15 -25 -6 -3 5 1 10 9 10 9 0
16 -2 16 -4z m10 -81 c0 -15 -18 -30 -27 -22 -2 3 -2 15 2 26 7 23 25 19 25
-4z m30 -10 c0 -8 -4 -15 -10 -15 -5 0 -10 -7 -10 -17 0 -9 -3 -14 -6 -10 -9
9 5 57 16 57 6 0 10 -7 10 -15z m41 -37 c0 -10 2 -10 6 0 5 13 23 7 23 -9 0
-15 -53 -7 -58 9 -2 6 3 12 12 12 9 0 16 -6 17 -12z m-81 -95 c0 -19 -3 -24
-10 -17 -6 6 -8 18 -4 27 9 24 14 21 14 -10z m690 -113 c0 -5 -4 -10 -10 -10
-5 0 -10 5 -10 10 0 6 5 10 10 10 6 0 10 -4 10 -10z"></path>
<path d="M2527 2774 c-12 -13 -7 -20 13 -20 11 0 19 5 17 10 -4 13 -21 18 -30
10z"></path>
<path d="M60 2505 c0 -5 68 -35 79 -35 3 1 -5 10 -18 20 -21 18 -61 28 -61 15z"></path>
<path d="M90 2420 c0 -5 5 -10 10 -10 6 0 10 5 10 10 0 6 -4 10 -10 10 -5 0
-10 -4 -10 -10z"></path>
<path d="M3690 2341 c0 -14 10 -21 35 -25 21 -4 41 -17 51 -31 11 -17 24 -23
45 -23 17 1 35 -4 41 -10 15 -15 68 -16 68 -2 0 6 -5 10 -12 10 -6 0 -9 3 -5
6 9 9 105 -54 117 -77 6 -10 10 -31 10 -48 0 -17 5 -31 10 -31 6 0 10 -7 10
-15 0 -9 -9 -15 -22 -15 -17 0 -19 3 -10 9 10 6 7 10 -12 15 -15 4 -36 23 -51
46 -33 53 -60 54 -52 4 4 -20 15 -45 25 -54 15 -15 20 -34 21 -101 1 -45 4
-86 7 -91 3 -4 20 0 39 9 28 13 32 19 24 34 -7 15 -6 17 6 13 8 -4 15 -9 15
-13 0 -4 7 -16 16 -27 8 -10 13 -14 10 -8 -8 17 25 59 34 44 6 -10 17 -8 47 7
35 18 38 24 41 67 6 89 -63 182 -139 190 -55 6 -89 23 -89 46 0 26 -43 70 -67
70 -10 0 -34 -11 -53 -23 l-34 -24 -39 21 c-22 12 -42 27 -44 34 -8 20 -43 15
-43 -7z m451 -232 c11 -21 4 -89 -9 -89 -22 1 -36 22 -35 54 2 57 23 74 44 35z
m-136 -48 c3 -5 1 -12 -5 -16 -5 -3 -10 1 -10 9 0 18 6 21 15 7z"></path>
<path d="M3690 2286 c0 -21 48 -56 76 -56 27 0 94 -30 94 -42 0 -4 7 -8 15 -8
48 0 -27 59 -85 67 -23 3 -48 15 -61 29 -26 27 -39 31 -39 10z"></path>
<path d="M0 2200 c0 -12 27 -20 68 -20 21 0 32 4 27 9 -13 11 -95 21 -95 11z"></path>
<path d="M123 2193 c-26 -10 -12 -21 37 -27 29 -4 80 -23 123 -46 39 -22 78
-40 85 -40 24 0 11 17 -25 34 -21 9 -67 32 -102 51 -61 33 -90 40 -118 28z"></path>
<path d="M10 2151 c0 -5 -3 -16 -6 -25 -5 -13 1 -16 28 -16 19 0 40 6 47 13
10 10 14 9 21 -4 5 -9 23 -16 40 -17 42 -1 20 19 -44 41 -55 19 -86 22 -86 8z"></path>
<path d="M3710 2121 c0 -10 71 -37 123 -47 43 -7 49 -14 53 -62 3 -34 10 -49
18 -41 3 2 2 32 -1 66 -6 68 -8 70 -96 75 -21 1 -41 6 -43 10 -7 11 -54 10
-54 -1z"></path>
<path d="M690 2110 c0 -5 9 -10 20 -10 11 0 20 5 20 10 0 6 -9 10 -20 10 -11
0 -20 -4 -20 -10z"></path>
<path d="M770 2110 c0 -5 5 -10 10 -10 6 0 10 5 10 10 0 6 -4 10 -10 10 -5 0
-10 -4 -10 -10z"></path>
<path d="M183 2098 c2 -7 10 -13 17 -13 7 0 15 6 18 13 2 7 -5 12 -18 12 -13
0 -20 -5 -17 -12z"></path>
<path d="M550 2085 c0 -8 9 -15 20 -15 11 0 20 2 20 5 0 2 -9 9 -20 15 -16 9
-20 8 -20 -5z"></path>
<path d="M80 2079 c0 -5 5 -7 10 -4 6 3 10 8 10 11 0 2 -4 4 -10 4 -5 0 -10
-5 -10 -11z"></path>
<path d="M245 2083 c11 -3 24 -9 29 -13 11 -11 38 -1 30 11 -3 5 -22 8 -42 8
-21 -1 -28 -3 -17 -6z"></path>
<path d="M600 2068 c0 -5 12 -13 28 -19 15 -6 45 -19 67 -30 55 -26 62 -24 24
9 -33 27 -119 57 -119 40z"></path>
<path d="M368 2034 c13 -9 26 -13 30 -9 8 8 -17 25 -38 25 -9 0 -6 -6 8 -16z"></path>
<path d="M17 2019 c-15 -17 -16 -23 -6 -35 7 -9 21 -13 31 -11 10 3 20 2 23
-3 2 -4 15 -5 28 -3 30 6 120 -20 125 -36 3 -10 -11 -11 -62 -6 -45 5 -66 4
-66 -3 0 -21 105 -32 165 -18 40 10 42 14 13 25 -13 5 -32 21 -42 35 -15 24
-15 27 0 33 10 4 20 0 26 -10 10 -19 38 -23 38 -7 0 6 11 8 25 4 14 -3 25 -2
25 4 0 12 -30 20 -123 32 -40 5 -82 12 -92 16 -16 6 -18 5 -7 -7 16 -18 15
-29 -3 -29 -8 0 -15 5 -15 10 0 6 -9 10 -19 10 -11 0 -23 5 -26 10 -9 15 -19
12 -38 -11z"></path>
<path d="M560 2025 c0 -9 14 -22 31 -29 29 -12 30 -14 13 -24 -23 -13 -19 -17
23 -25 26 -5 35 -2 43 13 8 15 8 20 -3 20 -7 0 -31 13 -53 30 -45 34 -54 36
-54 15z"></path>
<path d="M760 1986 c0 -2 16 -14 36 -25 47 -28 70 -21 24 7 -32 20 -60 28 -60
18z"></path>
<path d="M1238 1985 c-3 -3 -18 -8 -34 -11 -16 -3 -33 -9 -40 -15 -6 -5 -13
-6 -17 -3 -3 3 -3 -3 0 -15 3 -12 12 -21 20 -21 8 0 11 5 7 13 -4 7 -3 9 2 4
5 -5 9 -13 9 -19 0 -6 19 -19 43 -29 23 -10 42 -14 42 -9 0 14 55 4 84 -15 25
-17 26 -16 26 2 0 36 -32 85 -64 98 -48 20 -72 26 -78 20z m17 -75 c4 -7 -3
-8 -22 -4 -38 9 -42 14 -10 14 14 0 29 -5 32 -10z"></path>
<path d="M710 1970 c-11 -7 -9 -11 13 -19 42 -16 52 -13 32 9 -20 23 -24 23
-45 10z"></path>
<path d="M1641 1964 c0 -11 3 -14 6 -6 3 7 2 16 -1 19 -3 4 -6 -2 -5 -13z"></path>
<path d="M6440 1970 c0 -5 5 -10 10 -10 6 0 10 5 10 10 0 6 -4 10 -10 10 -5 0
-10 -4 -10 -10z"></path>
<path d="M6758 1963 c7 -3 16 -2 19 1 4 3 -2 6 -13 5 -11 0 -14 -3 -6 -6z"></path>
<path d="M290 1950 c0 -5 7 -10 15 -10 8 0 15 5 15 10 0 6 -7 10 -15 10 -8 0
-15 -4 -15 -10z"></path>
<path d="M445 1950 c-7 -11 18 -24 35 -18 6 2 1 9 -9 15 -13 8 -22 9 -26 3z"></path>
<path d="M6940 1951 c0 -5 10 -11 23 -15 31 -8 37 -7 37 4 0 5 -7 7 -15 4 -8
-4 -15 -1 -15 5 0 6 -7 11 -15 11 -8 0 -15 -4 -15 -9z"></path>
<path d="M510 1940 c0 -11 7 -14 53 -24 34 -8 39 19 5 28 -35 9 -58 7 -58 -4z"></path>
<path d="M4105 1930 c10 -11 22 -17 26 -14 13 8 3 21 -22 27 -20 5 -20 5 -4
-13z"></path>
<path d="M6210 1940 c0 -5 4 -10 9 -10 6 0 13 5 16 10 3 6 -1 10 -9 10 -9 0
-16 -4 -16 -10z"></path>
<path d="M0 1930 c0 -5 7 -10 15 -10 8 0 15 5 15 10 0 6 -7 10 -15 10 -8 0
-15 -4 -15 -10z"></path>
<path d="M50 1920 c0 -5 5 -10 10 -10 6 0 10 5 10 10 0 6 -4 10 -10 10 -5 0
-10 -4 -10 -10z"></path>
<path d="M6158 1923 c7 -3 16 -2 19 1 4 3 -2 6 -13 5 -11 0 -14 -3 -6 -6z"></path>
<path d="M6801 1922 c-7 -5 -21 -7 -31 -5 -10 3 -21 0 -25 -7 -4 -7 1 -14 14
-17 25 -6 28 -23 5 -23 -9 0 -32 -8 -52 -17 -34 -16 -38 -16 -96 5 -59 21
-190 29 -201 13 -6 -10 8 -27 28 -34 28 -10 5 -46 -26 -40 -14 3 -29 -2 -36
-11 -8 -9 -29 -16 -47 -16 -42 0 -43 -10 -4 -33 25 -15 28 -21 20 -38 -6 -10
-15 -19 -20 -19 -6 0 -10 -4 -10 -10 0 -5 7 -10 16 -10 8 0 12 -4 9 -10 -3 -5
-37 -10 -75 -10 l-68 0 -56 -54 c-41 -39 -55 -60 -54 -77 2 -15 -4 -27 -19
-34 -32 -16 -63 -46 -63 -60 0 -6 -22 -49 -50 -94 -27 -45 -50 -86 -50 -91 0
-4 -7 -21 -15 -36 -8 -16 -13 -36 -10 -44 6 -20 -33 -46 -48 -31 -8 8 -8 14 1
23 21 21 13 27 -33 25 -30 -1 -45 -6 -45 -15 0 -9 -7 -11 -20 -7 -11 3 -20 3
-20 -2 0 -13 59 -43 85 -43 33 0 179 -46 240 -76 28 -13 58 -24 67 -24 9 0 20
-4 23 -10 3 -5 -1 -10 -9 -10 -8 0 -18 -5 -21 -10 -4 -6 8 -10 30 -10 23 0 34
4 30 11 -8 13 64 1 82 -13 7 -6 22 -8 34 -5 12 3 56 -3 98 -13 42 -11 122 -28
179 -39 56 -11 107 -23 112 -26 13 -8 13 -61 0 -86 -28 -50 -119 -63 -210 -28
-58 23 -181 52 -188 45 -8 -9 9 -25 21 -20 7 2 33 -4 58 -15 24 -12 53 -21 65
-21 11 0 29 -9 40 -21 12 -14 25 -18 41 -14 29 7 73 -15 104 -52 13 -16 35
-36 49 -46 14 -10 24 -21 22 -25 -1 -4 6 -8 17 -10 11 -2 25 -10 31 -18 7 -8
20 -14 30 -14 22 0 33 -15 47 -63 11 -35 10 -37 -8 -32 -11 4 -25 0 -34 -9
-14 -13 -13 -16 2 -26 15 -9 10 -10 -25 -7 -24 3 -40 1 -36 -4 3 -5 18 -9 33
-9 15 0 36 -9 46 -20 16 -18 17 -20 1 -26 -10 -4 -15 -12 -12 -19 7 -19 -32
-26 -43 -7 -9 15 -71 24 -71 10 0 -5 -9 -8 -20 -8 -11 0 -28 -4 -38 -9 -9 -5
-30 -13 -47 -17 -16 -5 -34 -19 -40 -31 -11 -22 -11 -22 -31 -2 -11 11 -48 25
-82 32 -73 15 -102 36 -102 75 0 43 -18 59 -95 85 -38 14 -78 28 -88 32 -13 6
-16 4 -11 -9 9 -24 -24 -69 -44 -61 -14 5 -15 4 -4 -6 14 -15 16 -49 3 -49
-43 0 -101 48 -70 59 7 2 2 9 -12 17 -23 13 -23 13 10 7 25 -4 32 -3 27 5 -4
7 -1 12 9 12 13 0 14 3 3 23 -7 12 -11 25 -10 30 3 10 -16 9 -23 -2 -3 -6 3
-14 12 -20 10 -6 13 -11 8 -11 -11 0 -65 47 -65 56 0 3 6 2 13 -1 6 -4 -1 5
-18 19 -16 14 -35 26 -42 26 -6 0 -15 4 -18 10 -4 6 1 7 11 3 14 -5 16 -2 11
15 -3 13 1 28 10 37 13 13 11 16 -11 26 -14 7 -22 17 -19 25 3 8 -1 14 -8 14
-7 0 -10 3 -7 6 3 3 -5 17 -18 31 -33 36 -31 69 6 88 18 9 30 23 30 35 0 24 7
24 57 6 86 -31 171 -56 223 -65 30 -6 66 -13 80 -16 24 -6 24 -6 7 9 -11 8
-38 18 -60 21 -23 4 -60 16 -81 26 -22 11 -50 19 -63 19 -13 0 -31 4 -41 9 -9
5 -39 16 -67 24 -27 8 -51 20 -53 27 -3 8 0 10 7 6 6 -4 14 0 17 8 3 9 18 16
33 16 14 0 34 7 45 15 11 8 30 12 47 8 16 -3 29 -3 29 0 0 11 -58 37 -83 37
-12 0 -28 5 -35 12 -6 6 -15 8 -19 4 -4 -4 3 -15 16 -25 15 -11 20 -21 13 -25
-6 -3 -13 -2 -17 4 -3 5 -33 8 -66 7 -49 -3 -63 -8 -76 -26 -10 -16 -19 -19
-26 -12 -7 7 -6 15 4 27 12 15 12 17 0 13 -8 -3 -19 -13 -25 -22 -14 -22 15
-44 67 -53 41 -7 57 -28 38 -47 -8 -8 -14 -8 -23 1 -17 17 -48 15 -48 -2 0
-19 -59 -48 -82 -40 -11 3 -20 -1 -24 -10 -7 -19 -31 -21 -36 -4 -8 24 -30 -5
-26 -33 4 -23 1 -28 -11 -25 -9 2 -33 7 -53 11 -36 6 -38 4 -38 -20 0 -14 6
-25 13 -25 6 -1 0 -8 -15 -16 -33 -17 -36 -34 -8 -34 18 0 19 -3 8 -20 -10
-15 -10 -22 0 -32 18 -18 15 -38 -6 -38 -14 0 -19 -8 -20 -30 -1 -25 3 -30 24
-30 13 0 24 -5 24 -10 0 -6 7 -22 16 -36 13 -19 19 -22 31 -13 19 17 30 2 15
-21 -13 -22 -16 -50 -4 -50 4 0 15 12 25 26 14 18 16 28 8 38 -15 18 -6 23 29
18 19 -3 30 -10 30 -21 0 -9 14 -24 30 -33 17 -9 30 -24 30 -33 0 -19 24 -20
40 0 13 16 70 21 70 6 0 -5 -9 -11 -21 -14 -12 -3 -18 -10 -15 -16 3 -5 0 -16
-9 -24 -13 -13 -12 -15 5 -20 11 -3 25 2 31 9 17 20 29 5 22 -29 -5 -26 -7
-27 -23 -12 -16 15 -18 14 -23 -13 -12 -59 11 -102 53 -102 21 0 29 6 34 25 7
28 22 32 45 11 9 -8 32 -19 51 -24 19 -5 34 -15 32 -21 -1 -7 2 -10 8 -6 5 3
19 1 30 -5 18 -10 19 -14 9 -27 -11 -13 -10 -18 6 -29 28 -21 10 -29 -20 -10
-16 10 -24 23 -21 32 3 9 -1 14 -14 14 -10 0 -23 7 -28 16 -7 13 -13 14 -30 5
-17 -9 -23 -8 -30 5 -9 16 -12 15 -32 -4 -19 -18 -21 -24 -10 -37 7 -8 23 -15
35 -15 22 0 53 -25 43 -35 -3 -3 -28 4 -57 16 -49 21 -76 20 -55 -1 10 -10
183 -60 205 -60 22 0 7 19 -18 22 -14 2 -29 9 -31 17 -4 11 1 12 19 7 13 -4
35 -10 49 -13 14 -2 41 -13 61 -24 41 -21 48 -19 41 17 -3 16 -9 23 -18 20
-15 -6 -38 29 -30 43 5 7 89 -2 125 -15 19 -6 -6 -35 -28 -32 -12 2 -15 -4
-13 -27 7 -54 6 -54 405 -55 l367 0 0 69 0 69 -57 -2 c-37 -2 -69 3 -88 13
-29 15 -29 16 -7 19 16 2 22 8 18 18 -4 11 4 14 34 14 22 0 40 5 40 10 0 7 6
7 19 0 11 -5 24 -10 30 -10 8 0 11 110 11 355 0 195 -2 355 -4 355 -3 0 -58 7
-123 15 -130 18 -294 22 -314 9 -19 -11 -50 -6 -71 13 -12 10 -28 14 -47 10
-21 -5 -31 -2 -35 10 -4 10 -15 14 -31 10 -21 -4 -25 -1 -20 14 4 11 2 19 -5
19 -7 0 -9 8 -5 20 4 11 2 20 -4 20 -6 0 -11 -7 -11 -15 0 -19 -29 -19 -50 0
-9 8 -30 17 -46 18 -16 2 -39 9 -51 16 -12 6 -42 10 -65 10 -35 -2 -50 3 -72
24 -16 15 -37 27 -46 27 -20 0 -39 52 -21 58 16 5 13 22 -4 22 -12 0 -14 7 -9
28 4 15 11 31 15 36 5 6 9 16 9 23 0 23 69 121 101 144 60 42 172 90 232 98
32 4 63 14 67 22 5 7 12 10 16 6 4 -3 1 -13 -5 -21 -8 -10 -9 -16 -2 -21 6 -3
16 5 22 19 10 20 9 28 -5 41 -21 21 -21 49 0 41 9 -3 33 -9 55 -12 21 -4 36
-10 34 -15 -3 -4 4 -10 15 -14 11 -3 20 -11 20 -16 0 -6 -6 -7 -12 -4 -7 4 -4
-1 7 -10 11 -9 19 -21 18 -28 -1 -7 16 -24 37 -39 22 -15 51 -47 66 -70 15
-24 38 -53 52 -66 21 -20 30 -22 71 -15 80 13 94 11 110 -21 9 -21 11 -40 5
-70 -8 -38 -13 -42 -64 -63 -74 -29 -102 -55 -98 -90 3 -26 6 -28 58 -31 44
-3 62 -10 95 -36 22 -17 57 -42 78 -54 l37 -21 0 449 c0 349 -3 450 -12 454
-10 5 -10 7 0 12 6 3 12 13 12 21 0 12 -7 14 -31 9 -22 -4 -35 -2 -43 9 -13
17 -105 30 -125 17z m-304 -78 c-3 -3 -12 -4 -19 -1 -8 3 -5 6 6 6 11 1 17 -2
13 -5z m325 -98 c-3 -5 1 -7 9 -4 19 7 55 -17 40 -27 -6 -3 -11 -1 -11 4 0 6
-7 11 -15 11 -13 0 -13 -3 -3 -20 8 -12 19 -18 28 -15 8 4 11 3 8 -1 -4 -3 0
-13 8 -21 8 -9 13 -20 11 -27 -6 -17 -50 -20 -61 -4 -18 24 -49 36 -77 31 -18
-3 -28 0 -32 11 -7 18 7 29 41 30 14 1 27 7 30 15 3 8 0 11 -7 7 -6 -4 -11 -1
-11 7 0 9 9 14 24 13 13 0 22 -5 18 -10z m-307 -64 c-3 -3 -11 0 -18 7 -9 10
-8 11 6 5 10 -3 15 -9 12 -12z m165 -20 c0 -4 -9 -8 -19 -8 -11 0 -17 4 -15 8
3 4 12 8 20 8 8 0 14 -4 14 -8z m-95 -22 c3 -5 2 -10 -4 -10 -5 0 -13 5 -16
10 -3 6 -2 10 4 10 5 0 13 -4 16 -10z m107 -26 c-13 -9 -26 -13 -30 -9 -8 8
17 25 38 25 9 0 6 -6 -8 -16z m188 -4 c0 -5 -2 -10 -4 -10 -3 0 -8 5 -11 10
-3 6 -1 10 4 10 6 0 11 -4 11 -10z m-1060 -740 c0 -5 -4 -10 -10 -10 -5 0 -10
5 -10 10 0 6 5 10 10 10 6 0 10 -4 10 -10z m-270 -115 c0 -9 -6 -12 -15 -9 -8
4 -12 10 -9 15 8 14 24 10 24 -6z m69 -71 c7 -6 -12 -26 -35 -34 -24 -10 -32
-34 -14 -45 15 -9 12 -22 -7 -29 -10 -3 -24 -9 -30 -12 -8 -3 -13 1 -13 10 0
9 7 16 15 16 12 0 14 8 9 40 -8 50 7 72 45 63 14 -3 28 -7 30 -9z m481 -304
c0 -5 -4 -10 -10 -10 -5 0 -10 5 -10 10 0 6 5 10 10 10 6 0 10 -4 10 -10z
m-250 -110 c0 -5 -4 -10 -10 -10 -5 0 -10 5 -10 10 0 6 5 10 10 10 6 0 10 -4
10 -10z m477 -198 c-8 -8 -20 -11 -27 -7 -16 10 7 35 27 28 13 -5 13 -7 0 -21z
m78 -22 c18 -19 17 -20 -2 -20 -22 0 -47 23 -36 33 10 11 19 8 38 -13z m-86
-13 c6 -8 8 -17 4 -20 -7 -8 -33 11 -33 24 0 13 16 11 29 -4z"></path>
<path d="M380 1909 c0 -5 5 -7 10 -4 6 3 10 8 10 11 0 2 -4 4 -10 4 -5 0 -10
-5 -10 -11z"></path>
<path d="M5930 1909 c0 -5 9 -9 20 -9 11 0 20 2 20 4 0 2 -9 6 -20 9 -11 3
-20 1 -20 -4z"></path>
<path d="M302 1898 c3 -7 14 -14 26 -14 18 -1 20 2 11 12 -14 17 -42 18 -37 2z"></path>
<path d="M1490 1900 c0 -5 5 -10 10 -10 6 0 10 5 10 10 0 6 -4 10 -10 10 -5 0
-10 -4 -10 -10z"></path>
<path d="M4001 1875 c-24 -19 -53 -35 -64 -35 -11 0 -36 -15 -57 -32 -20 -18
-58 -50 -83 -71 -47 -38 -47 -38 -47 -100 0 -84 8 -110 31 -104 16 4 17 2 8
-14 -12 -23 -38 -21 -89 6 -25 13 -58 18 -115 19 -69 1 -80 -1 -83 -17 -2 -10
5 -25 15 -32 15 -11 20 -11 34 1 14 12 19 11 40 -12 24 -25 24 -26 4 -40 -11
-8 -25 -12 -33 -9 -7 3 -10 0 -7 -6 8 -11 -21 -59 -35 -59 -6 0 -10 7 -10 15
0 18 -61 46 -76 34 -14 -11 -24 -1 -24 24 0 14 -5 18 -20 14 -11 -3 -20 -1
-20 4 0 5 -5 9 -12 9 -6 0 -22 10 -35 22 -20 19 -27 20 -43 10 -11 -7 -38 -12
-60 -12 -70 0 -152 -56 -107 -73 20 -8 68 -109 57 -122 -5 -6 1 -20 17 -35 26
-25 26 -25 19 -2 -6 17 -3 22 9 22 16 0 16 2 0 26 -9 15 -12 23 -5 19 8 -5 11
-3 8 6 -3 8 -14 14 -26 14 -23 1 -27 7 -19 28 4 9 8 9 15 -2 11 -15 56 -6 47
10 -4 5 1 9 9 9 9 0 16 -6 16 -12 1 -18 36 -58 50 -58 12 0 10 -15 -5 -52 -5
-13 -2 -18 9 -19 33 -3 37 -4 46 -19 5 -8 13 -11 17 -6 4 4 -2 16 -14 26 -21
16 -21 19 -6 31 10 8 14 9 10 2 -4 -6 0 -19 9 -27 9 -9 14 -23 11 -31 -9 -23
16 -66 36 -61 9 2 15 1 12 -4 -6 -10 22 -33 32 -27 4 3 8 -21 8 -54 0 -61 -3
-67 -22 -48 -8 8 -16 6 -30 -8 -13 -13 -27 -17 -48 -12 -18 3 -36 0 -45 -7
-21 -18 -49 -1 -32 19 9 10 8 18 -3 33 -20 27 -18 34 9 34 37 0 39 14 6 45
-17 16 -30 25 -30 21 0 -5 -11 -1 -25 8 -30 20 -41 21 -26 2 8 -10 9 -16 1
-21 -6 -3 -8 -11 -5 -16 3 -5 -1 -6 -10 -3 -12 5 -14 14 -10 34 4 20 2 29 -11
34 -13 5 -14 9 -4 21 12 14 7 20 -14 16 -5 -1 -16 5 -26 14 -16 15 -19 15 -34
0 -22 -23 -10 -37 25 -30 16 4 29 4 29 1 0 -11 -35 -47 -55 -58 -18 -10 -18
-9 -7 4 11 14 9 20 -13 44 -24 26 -26 26 -45 9 -19 -17 -20 -17 -20 1 0 18 18
29 73 48 9 3 17 10 17 16 0 7 -8 9 -22 5 -16 -6 -20 -4 -15 9 8 21 -8 29 -31
15 -13 -8 -17 -19 -14 -33 5 -19 4 -19 -11 -7 -15 12 -20 11 -37 -4 -25 -22
-26 -37 -2 -28 10 4 8 -2 -8 -15 -22 -18 -24 -23 -12 -42 12 -20 11 -21 -10
-18 -14 2 -22 -2 -21 -9 4 -16 -9 -17 -25 -1 -8 8 -15 8 -27 -2 -8 -7 -15 -8
-15 -3 0 13 35 44 46 42 26 -4 36 1 25 14 -6 8 -8 17 -4 20 6 7 -43 12 -83 8
-12 -1 -27 5 -34 14 -18 22 -33 18 -20 -5 6 -11 7 -20 1 -20 -5 0 -14 -13 -19
-30 -7 -18 -16 -28 -24 -25 -7 3 -19 -4 -25 -14 -13 -21 -8 -51 9 -51 11 0 47
-41 48 -54 0 -5 -8 -2 -18 7 -10 9 -29 18 -43 20 -14 2 -25 12 -28 23 -1 10
-10 27 -18 36 -13 15 -13 20 -3 33 18 21 18 87 1 101 -11 9 -9 14 13 32 26 20
26 21 5 27 -24 8 -38 -2 -43 -32 -3 -12 -12 -34 -20 -50 -9 -15 -30 -52 -46
-80 l-30 -53 23 -14 c58 -36 241 -126 246 -121 3 3 -1 15 -8 27 -12 19 -10 23
10 40 13 11 49 31 79 45 30 15 57 29 60 33 14 17 101 73 106 67 9 -9 -5 -27
-22 -27 -14 0 -18 -10 -15 -42 2 -21 -11 -29 -62 -34 -23 -3 -47 -12 -53 -19
-6 -8 -19 -15 -28 -15 -17 0 -40 -43 -25 -48 4 -2 20 5 35 15 28 18 77 26 68
11 -3 -4 -15 -8 -27 -8 -25 0 -58 -41 -38 -48 6 -2 11 -13 11 -24 0 -11 8 -22
19 -25 11 -3 21 -14 23 -25 3 -19 4 -19 32 6 17 13 34 22 40 19 5 -4 -1 -10
-13 -15 -29 -10 -21 -34 10 -31 13 2 46 3 74 4 27 1 59 7 69 15 13 8 24 10 31
4 7 -6 46 -6 102 0 99 10 166 3 227 -26 20 -10 36 -24 36 -31 0 -18 38 -59 46
-50 4 4 1 13 -6 22 -7 9 -10 19 -6 23 4 4 15 -3 24 -14 9 -12 25 -24 36 -28
15 -5 17 -2 13 14 -4 17 -3 19 8 10 13 -11 40 -79 36 -90 -1 -3 -25 -5 -54 -5
-40 0 -52 -4 -52 -15 0 -17 -34 -60 -47 -60 -4 0 -8 8 -9 18 0 10 -3 12 -6 4
-2 -6 -9 -10 -13 -7 -5 3 2 16 14 30 26 28 30 55 7 55 -12 0 -10 5 8 19 26 20
15 37 -18 26 -11 -3 -22 -1 -25 4 -4 5 -28 13 -54 16 -26 4 -59 10 -74 15 -17
5 -28 5 -28 0 0 -12 34 -30 57 -30 11 0 28 -6 39 -14 18 -14 18 -15 -10 -45
-27 -28 -81 -50 -93 -37 -4 3 7 17 22 31 16 13 26 28 21 32 -4 4 -20 -7 -34
-24 -32 -38 -72 -52 -262 -88 -94 -18 -161 -37 -220 -64 -83 -37 -135 -54
-212 -66 -21 -3 -38 -11 -38 -17 0 -7 -21 -9 -60 -6 -63 4 -81 -6 -30 -17 35
-8 40 -25 7 -25 -12 0 -40 -9 -62 -20 -29 -15 -42 -17 -52 -9 -9 8 -17 8 -27
0 -7 -6 -21 -9 -30 -5 -10 4 -16 1 -16 -9 0 -8 6 -18 13 -20 6 -3 2 -6 -10 -7
-13 -2 -27 -4 -33 -5 -5 -1 -13 -3 -17 -4 -4 0 3 -10 15 -21 27 -26 28 -34 2
-27 -19 5 -21 1 -18 -36 2 -30 -1 -41 -9 -39 -23 4 -13 -23 14 -39 l26 -17
-21 -11 c-12 -7 -22 -21 -22 -32 0 -11 -5 -17 -10 -14 -6 4 -8 11 -5 16 4 5
-1 9 -9 9 -9 0 -15 -3 -14 -8 1 -4 -4 -20 -10 -35 -16 -38 -16 -38 13 -31 38
10 32 -20 -10 -45 -41 -24 -47 -51 -11 -51 16 0 27 7 31 20 3 11 11 20 16 20
6 0 7 -4 4 -10 -11 -18 22 -10 49 11 26 20 52 67 42 76 -11 11 -55 -11 -60
-30 -6 -21 -7 -21 -17 -4 -7 13 -7 22 0 31 6 7 7 16 3 21 -4 4 7 5 25 2 37 -7
55 9 46 41 -4 18 -1 22 16 22 11 0 21 5 21 10 0 17 -27 22 -52 10 -18 -9 -17
-6 7 15 18 15 26 28 20 33 -15 10 -17 32 -5 46 5 7 7 16 4 19 -16 15 26 53 71
65 27 7 54 21 61 30 12 16 13 16 19 -1 6 -15 11 -13 44 15 36 33 57 42 181 73
36 9 86 27 111 40 78 40 278 87 369 86 58 0 171 36 202 66 15 14 29 25 32 22
2 -2 6 -20 10 -40 5 -28 2 -41 -14 -59 -11 -13 -20 -29 -20 -36 0 -7 -10 -15
-22 -19 -44 -12 -98 -38 -98 -47 0 -5 -4 -7 -9 -4 -5 4 -11 1 -13 -5 -2 -6
-15 -13 -28 -14 -14 -2 -39 -9 -56 -16 -24 -10 -43 -9 -96 3 l-66 15 -17 -39
c-13 -31 -20 -37 -30 -28 -15 13 -39 4 -30 -10 3 -5 -10 -16 -30 -26 -19 -9
-35 -20 -35 -24 0 -4 -17 -12 -39 -18 -21 -7 -44 -19 -51 -27 -7 -8 -18 -15
-24 -15 -6 0 -23 -13 -37 -28 -15 -15 -45 -36 -68 -47 -22 -11 -41 -23 -41
-26 0 -3 -12 -4 -26 -1 -20 3 -32 -3 -54 -27 -16 -17 -35 -31 -43 -31 -23 0
-71 -42 -57 -50 8 -5 7 -9 -3 -13 -32 -12 -25 23 10 52 42 35 40 46 -6 30 -34
-12 -55 -4 -31 11 13 9 13 10 0 10 -25 0 -35 -13 -50 -60 -19 -63 -18 -75 8
-78 24 -4 28 -12 11 -29 -18 -18 -1 -33 36 -33 31 0 38 6 92 85 31 46 59 82
61 80 2 -2 -19 -36 -47 -76 -28 -40 -51 -76 -51 -81 0 -4 155 -8 345 -8 l345
0 30 32 c16 18 30 38 30 43 1 6 26 30 57 55 88 71 110 97 117 135 4 20 16 41
30 50 13 9 28 26 34 39 5 12 30 32 54 44 23 11 55 32 70 46 15 14 35 26 45 26
10 0 31 7 47 15 15 8 34 15 41 15 7 0 34 21 61 46 27 25 61 55 77 66 37 27 34
33 -17 33 -53 0 -68 -11 -42 -31 19 -13 18 -14 -10 -36 -37 -30 -46 -29 -55 6
-8 30 4 66 21 66 6 0 10 11 10 25 0 31 -7 31 -30 3 -15 -18 -21 -20 -31 -11
-16 16 3 63 25 63 8 0 23 12 33 26 15 20 31 27 66 31 26 3 50 10 53 14 15 25
21 1 19 -70 l-2 -79 56 -6 c31 -3 90 -8 131 -12 41 -3 107 -15 145 -26 150
-42 328 -41 385 2 23 18 24 20 8 32 -10 7 -20 29 -23 48 -3 19 -14 43 -23 53
-17 17 -21 17 -81 -3 -35 -11 -69 -20 -76 -20 -6 0 -20 -9 -30 -20 -20 -22
-69 -28 -63 -7 3 6 18 17 35 22 41 14 63 34 63 58 0 28 28 57 48 50 9 -4 13
-2 9 4 -4 6 2 18 13 28 28 25 25 45 -5 45 -22 0 -29 -9 -27 -32 1 -3 -5 -12
-13 -18 -12 -10 -15 -9 -15 8 0 12 5 24 10 27 6 4 8 11 5 16 -10 15 -22 10
-28 -11 -4 -15 -14 -20 -42 -20 -29 0 -36 -3 -33 -17 2 -10 13 -19 26 -21 27
-4 29 -28 3 -37 -12 -4 -18 -12 -15 -20 4 -9 -4 -19 -20 -26 -14 -7 -26 -16
-26 -22 0 -5 -7 -7 -15 -3 -8 3 -19 -2 -24 -12 -8 -13 -10 -14 -11 -2 0 9 -3
11 -10 4 -5 -5 -26 -8 -45 -6 l-35 4 5 77 c2 42 4 82 4 89 1 10 10 12 34 7 17
-4 37 -11 42 -15 19 -15 75 4 88 29 8 16 22 26 42 28 18 2 41 16 57 35 23 27
29 29 43 18 11 -9 13 -16 5 -24 -15 -15 -12 -26 7 -26 9 0 13 3 10 6 -3 4 -2
15 3 25 8 13 6 21 -8 31 -12 8 -22 32 -26 60 -6 43 -9 46 -25 36 -17 -10 -36
-47 -54 -100 -4 -10 -11 -18 -17 -18 -5 0 -10 -7 -10 -15 0 -8 -4 -15 -8 -15
-5 0 -7 24 -4 54 4 56 -7 77 -32 56 -8 -6 -26 -8 -40 -4 -21 5 -26 3 -26 -12
0 -16 -1 -16 -21 2 -11 10 -34 34 -52 52 -36 37 -77 44 -77 11 0 -12 -5 -19
-12 -16 -7 2 -12 16 -11 31 1 15 -3 26 -10 26 -7 0 -37 25 -67 55 -30 30 -60
55 -67 55 -8 0 -19 11 -25 25 -6 14 -19 25 -29 25 -9 0 -34 23 -55 51 -35 45
-39 48 -42 27 -4 -32 -45 -51 -80 -35 -15 6 -31 17 -35 24 -9 15 -77 18 -77 4
0 -11 25 -21 52 -21 28 0 19 -33 -12 -40 -14 -4 -24 -13 -23 -21 2 -8 -9 -19
-22 -26 -14 -6 -25 -7 -25 -2 0 5 4 9 10 9 5 0 7 6 4 14 -3 8 5 21 18 30 19
13 19 16 5 16 -10 0 -29 -7 -43 -16 -38 -25 -41 -8 -5 25 43 40 31 60 -14 25
-19 -14 -33 -29 -32 -32 1 -4 -2 -8 -8 -9 -5 -1 -9 8 -7 20 3 22 75 97 93 97
5 0 9 6 9 13 1 26 25 45 53 40 25 -5 26 -6 10 -19 -14 -10 -16 -15 -5 -25 10
-11 12 -10 12 1 0 11 3 11 12 2 9 -9 10 -15 2 -20 -8 -5 -8 -15 -3 -30 13 -34
26 -19 26 28 0 44 6 56 22 45 7 -4 9 -22 5 -44 -6 -39 3 -55 28 -46 14 6 18
68 5 81 -12 12 -8 24 9 24 14 0 16 10 12 69 -3 38 -2 73 1 79 3 5 36 26 73 46
37 21 70 42 73 46 3 5 -4 26 -15 47 -18 33 -18 39 -5 49 8 6 15 16 15 21 0 14
46 22 48 9 12 -159 14 -238 4 -232 -17 10 -15 -19 2 -33 7 -6 46 -22 86 -36
40 -14 79 -30 86 -36 8 -6 21 -8 30 -5 25 9 96 -30 121 -67 13 -17 32 -51 43
-74 25 -52 39 -61 57 -38 16 24 17 101 1 112 -7 4 -13 24 -13 43 0 35 0 35
-50 40 -38 4 -66 16 -114 48 -52 36 -104 63 -159 84 -12 5 -2 78 15 112 18 34
19 94 3 110 -5 5 -18 10 -27 11 -10 1 -31 5 -48 8 -25 6 -38 1 -74 -28z m309
-330 c7 -9 11 -18 8 -20 -9 -10 -38 7 -38 21 0 18 14 18 30 -1z m-678 -25 c6
0 5 -7 -3 -17 -9 -11 -10 -14 -2 -9 9 5 11 2 7 -8 -9 -24 -23 -19 -34 10 -13
34 -13 37 6 30 9 -3 20 -6 26 -6z m773 -10 c6 -10 -44 -35 -53 -26 -8 8 19 36
34 36 7 0 16 -5 19 -10z m-1095 -128 c-6 -2 -10 -11 -11 -20 0 -12 -3 -11 -12
6 -8 19 -8 25 3 32 9 6 17 4 22 -3 4 -7 3 -13 -2 -15z m578 -55 c32 -34 15
-47 -69 -54 -55 -4 -80 -11 -97 -26 -15 -15 -25 -18 -33 -10 -12 12 14 43 36
43 8 0 19 8 25 18 8 12 13 13 16 5 3 -7 23 -13 45 -13 37 0 39 2 39 30 0 36 9
38 38 7z m72 -67 c11 -11 20 -24 20 -30 0 -5 8 -10 19 -10 10 0 21 -9 24 -20
4 -18 2 -20 -16 -14 -12 4 -34 20 -48 35 -15 16 -30 29 -33 29 -16 0 -2 -22
34 -56 25 -24 40 -47 40 -63 0 -23 1 -24 20 -6 11 10 17 22 14 26 -3 5 2 9 11
9 12 0 15 -5 11 -16 -11 -29 4 -82 25 -87 23 -6 26 -45 3 -54 -12 -4 -14 -14
-9 -42 5 -30 2 -42 -18 -62 -18 -20 -28 -24 -45 -18 -31 12 -80 0 -97 -23 -18
-26 -39 -13 -30 19 4 16 2 22 -5 18 -16 -10 -24 23 -9 41 7 9 18 26 24 38 6
11 21 22 33 24 19 3 21 6 11 18 -9 11 -8 14 9 14 11 0 23 7 26 16 5 13 9 14
21 4 8 -7 15 -9 15 -4 -1 26 -40 44 -40 19 0 -41 -41 18 -64 93 -4 12 -12 22
-17 22 -13 0 -5 51 12 78 17 27 33 28 59 2z m-112 -16 c13 -4 21 -11 20 -16
-2 -5 -7 -8 -10 -6 -4 2 -13 -5 -21 -16 -8 -10 -27 -19 -46 -20 -34 -2 -57
-26 -47 -52 8 -21 36 -17 36 5 0 11 6 18 13 17 21 -3 56 -38 51 -51 -3 -7 6
-22 20 -33 32 -25 33 -32 4 -31 -36 1 -83 -16 -84 -32 -3 -32 -6 -33 -22 -4
-16 30 -18 36 -21 55 0 6 -9 10 -19 10 -9 0 -23 9 -30 20 -11 18 -10 25 7 49
11 15 27 34 36 41 8 7 15 23 15 35 0 18 4 22 19 18 10 -3 22 0 25 6 8 12 21
13 54 5z m-958 -34 c0 -5 -8 -10 -17 -10 -15 0 -16 2 -3 10 19 12 20 12 20 0z
m-228 -26 c-3 -17 -8 -22 -15 -15 -11 11 -3 41 11 41 5 0 7 -12 4 -26z m1045
20 c-3 -3 -12 -4 -19 -1 -8 3 -5 6 6 6 11 1 17 -2 13 -5z m-851 -63 c-3 -5 4
-12 17 -16 21 -7 20 -8 -8 -14 -16 -4 -32 -3 -33 2 -6 12 6 37 18 37 6 0 9 -4
6 -9z m1249 -1 c3 -5 -1 -10 -9 -10 -9 0 -16 5 -16 10 0 6 4 10 9 10 6 0 13
-4 16 -10z m-1447 -39 c4 -23 4 -23 -22 -5 -32 24 -33 36 -3 32 14 -2 23 -11
25 -27z m180 -22 c-2 -6 -8 -10 -13 -10 -5 0 -11 4 -13 10 -2 6 4 11 13 11 9
0 15 -5 13 -11z m297 -9 c20 -16 19 -30 -1 -30 -10 0 -14 6 -11 14 5 11 0 12
-24 3 -21 -8 -32 -8 -40 0 -29 29 42 41 76 13z m1111 -17 c18 -16 34 -31 34
-36 0 -4 -19 -4 -41 -1 -40 7 -41 6 -29 -15 9 -18 14 -20 26 -10 8 7 14 7 14
1 0 -13 -22 -21 -46 -18 -16 3 -18 10 -15 47 5 69 8 70 57 32z m-1006 -23 c0
-5 -5 -10 -11 -10 -5 0 -7 5 -4 10 3 6 8 10 11 10 2 0 4 -4 4 -10z m200 -28
c0 -5 12 -14 26 -21 15 -6 24 -14 22 -17 -8 -8 -56 17 -62 32 -3 8 -1 14 4 14
6 0 10 -4 10 -8z m119 -48 c12 -15 21 -35 21 -46 0 -11 4 -17 9 -14 5 3 14 -1
21 -9 10 -12 7 -13 -18 -5 -55 15 -66 26 -67 64 -1 43 7 45 34 10z m-109 -4
c0 -5 -4 -10 -10 -10 -5 0 -10 5 -10 10 0 6 5 10 10 10 6 0 10 -4 10 -10z
m-310 -31 c0 -5 -7 -9 -15 -9 -15 0 -20 12 -9 23 8 8 24 -1 24 -14z m1080 -33
c0 -3 -4 -8 -10 -11 -5 -3 -10 -1 -10 4 0 6 5 11 10 11 6 0 10 -2 10 -4z m-35
-16 c-3 -5 -14 -10 -24 -10 -10 0 -47 -9 -81 -20 -83 -27 -95 -25 -37 5 27 14
52 23 56 21 4 -3 21 -1 37 4 40 12 56 12 49 0z m-168 -127 c-4 -3 1 -12 10
-18 16 -12 16 -14 1 -29 -9 -9 -24 -13 -32 -10 -22 8 -21 51 2 57 9 3 19 5 21
6 2 0 1 -2 -2 -6z m-367 -27 c0 -3 -4 -8 -10 -11 -5 -3 -10 -1 -10 4 0 6 5 11
10 11 6 0 10 -2 10 -4z m968 -26 c2 -20 1 -22 -8 -10 -9 13 -14 11 -36 -14
-24 -27 -26 -28 -44 -11 -14 13 -20 14 -20 5 0 -7 -3 -10 -6 -7 -13 12 26 56
53 60 47 7 58 3 61 -23z m-18 -30 c0 -5 -5 -10 -11 -10 -5 0 -7 5 -4 10 3 6 8
10 11 10 2 0 4 -4 4 -10z m-834 -124 c-21 -32 -32 -29 -33 11 -2 51 6 60 28
32 15 -20 16 -27 5 -43z m-724 -168 c-17 -16 -36 -30 -43 -31 -8 -2 -20 -6
-27 -11 -8 -5 -18 -4 -24 2 -8 8 -3 15 16 23 19 9 25 17 20 31 -4 12 -1 16 8
13 8 -3 25 -2 39 3 38 15 42 3 11 -30z m-72 2 c0 -5 -5 -10 -11 -10 -5 0 -7 5
-4 10 3 6 8 10 11 10 2 0 4 -4 4 -10z m6 -245 c-11 -8 -24 -15 -30 -15 -5 0
-1 7 10 15 10 8 24 14 29 14 6 0 1 -6 -9 -14z m-96 -29 c0 -8 -7 -16 -15 -20
-13 -4 -14 -2 -5 14 13 23 20 26 20 6z m-260 -36 c0 -5 -4 -10 -10 -10 -5 0
-10 5 -10 10 0 6 5 10 10 10 6 0 10 -4 10 -10z"></path>
<path d="M3956 1124 c-10 -26 -7 -34 13 -34 14 0 18 5 14 20 -7 27 -20 34 -27
14z"></path>
<path d="M3800 1210 c0 -5 7 -10 15 -10 8 0 15 5 15 10 0 6 -7 10 -15 10 -8 0
-15 -4 -15 -10z"></path>
<path d="M3797 1059 c6 -22 23 -26 23 -5 0 8 -6 16 -14 19 -10 4 -12 0 -9 -14z"></path>
<path d="M5855 1899 c-10 -15 3 -25 16 -12 7 7 7 13 1 17 -6 3 -14 1 -17 -5z"></path>
<path d="M530 1891 c0 -11 31 -24 39 -16 3 3 -1 10 -9 15 -19 12 -30 12 -30 1z"></path>
<path d="M677 1883 c6 -14 43 -18 43 -4 0 5 -11 11 -24 13 -17 4 -23 1 -19 -9z"></path>
<path d="M5740 1874 c-8 -19 -6 -29 4 -40 21 -20 28 -17 14 6 -10 15 -10 22 0
32 15 15 16 28 2 28 -6 0 -15 -12 -20 -26z"></path>
<path d="M0 1870 c0 -5 5 -10 10 -10 6 0 10 5 10 10 0 6 -4 10 -10 10 -5 0
-10 -4 -10 -10z"></path>
<path d="M455 1870 c3 -5 13 -10 21 -10 8 0 12 5 9 10 -3 6 -13 10 -21 10 -8
0 -12 -4 -9 -10z"></path>
<path d="M5823 1857 c-11 -24 -11 -27 7 -28 11 -1 25 -2 32 -3 6 -1 13 4 15
11 3 7 -3 9 -16 6 -15 -4 -20 1 -23 18 -3 23 -3 23 -15 -4z"></path>
<path d="M396 1856 c3 -9 11 -16 16 -16 13 0 5 23 -10 28 -7 2 -10 -2 -6 -12z"></path>
<path d="M1290 1855 c7 -8 19 -15 26 -15 7 0 28 -9 46 -20 36 -22 48 -25 48
-12 0 8 -65 39 -114 56 -16 5 -17 4 -6 -9z"></path>
<path d="M5660 1855 c-24 -14 -24 -14 -3 -15 12 0 25 5 28 11 11 17 2 18 -25
4z"></path>
<path d="M505 1850 c-7 -11 56 -42 65 -33 6 5 -38 43 -51 43 -4 0 -11 -5 -14
-10z"></path>
<path d="M802 1844 c9 -9 21 -13 27 -10 20 13 11 26 -16 26 -25 0 -26 -1 -11
-16z"></path>
<path d="M980 1857 c0 -9 32 -67 40 -72 19 -11 18 12 -2 43 -16 26 -38 43 -38
29z"></path>
<path d="M5910 1845 c-19 -23 -8 -26 20 -5 19 15 21 20 9 20 -9 0 -22 -7 -29
-15z"></path>
<path d="M5396 1824 c-8 -21 2 -33 13 -16 4 7 13 12 18 10 6 -2 13 2 15 7 6
18 -39 17 -46 -1z"></path>
<path d="M5503 1823 c-7 -2 -13 -14 -13 -25 0 -20 1 -21 20 -3 30 27 26 42 -7
28z"></path>
<path d="M340 1804 c0 -8 5 -12 10 -9 6 4 8 11 5 16 -9 14 -15 11 -15 -7z"></path>
<path d="M1752 1803 c21 -26 29 -51 17 -59 -6 -3 -16 -1 -22 5 -13 13 -51 15
-43 2 3 -5 21 -16 41 -25 35 -17 43 -30 25 -41 -33 -20 19 -52 54 -33 12 7 16
5 16 -7 0 -8 5 -15 11 -15 6 0 8 7 5 16 -3 9 -6 20 -6 26 0 6 -9 8 -20 5 -24
-6 -25 1 -4 24 12 13 13 22 5 37 -6 12 -7 22 -1 28 19 19 -18 54 -57 54 -33 0
-35 -1 -21 -17z"></path>
<path d="M5697 1814 c-16 -17 -6 -31 18 -26 14 2 24 10 22 16 -4 13 -30 20
-40 10z"></path>
<path d="M604 1792 c22 -26 76 -30 76 -7 0 9 -9 15 -22 15 -13 0 -34 3 -48 7
-25 6 -25 6 -6 -15z"></path>
<path d="M5423 1760 c4 -18 7 -40 7 -49 1 -14 2 -14 11 1 11 19 3 65 -14 75
-7 4 -8 -5 -4 -27z"></path>
<path d="M1050 1770 c0 -5 5 -10 11 -10 5 0 7 5 4 10 -3 6 -8 10 -11 10 -2 0
-4 -4 -4 -10z"></path>
<path d="M5754 1765 c-19 -14 -18 -14 4 -15 13 0 22 6 22 15 0 19 -1 19 -26 0z"></path>
<path d="M5697 1764 c-11 -11 3 -24 18 -18 8 4 12 10 9 15 -6 11 -18 12 -27 3z"></path>
<path d="M6138 1757 c-27 -6 -48 -14 -48 -19 0 -11 9 -10 69 4 28 6 51 15 51
20 0 9 -9 9 -72 -5z"></path>
<path d="M0 1751 c0 -5 5 -13 10 -16 5 -3 10 -2 10 4 0 5 -4 13 -10 16 -5 3
-10 2 -10 -4z"></path>
<path d="M930 1745 c0 -8 7 -15 15 -15 7 0 18 -8 24 -17 5 -10 12 -15 15 -12
11 11 -5 36 -30 47 -19 10 -24 9 -24 -3z"></path>
<path d="M5485 1751 c-3 -5 -1 -12 5 -16 5 -3 10 1 10 9 0 18 -6 21 -15 7z"></path>
<path d="M5640 1750 c0 -5 5 -10 11 -10 5 0 7 5 4 10 -3 6 -8 10 -11 10 -2 0
-4 -4 -4 -10z"></path>
<path d="M5564 1739 c-10 -17 13 -36 27 -22 12 12 4 33 -11 33 -5 0 -12 -5
-16 -11z"></path>
<path d="M1100 1719 c0 -22 43 -66 48 -50 2 7 -7 25 -22 39 -19 19 -26 22 -26
11z"></path>
<path d="M1305 1710 c3 -5 13 -10 21 -10 8 0 14 5 14 10 0 6 -9 10 -21 10 -11
0 -17 -4 -14 -10z"></path>
<path d="M1669 1709 c-12 -8 -11 -12 5 -24 18 -14 66 -21 66 -11 0 3 -13 14
-28 25 -20 14 -32 17 -43 10z"></path>
<path d="M5540 1695 c7 -9 9 -26 5 -45 -4 -16 -4 -30 -1 -30 12 0 46 41 46 55
0 8 -9 15 -20 15 -11 0 -20 5 -20 10 0 6 -5 10 -11 10 -8 0 -8 -4 1 -15z"></path>
<path d="M1 1684 c0 -11 3 -14 6 -6 3 7 2 16 -1 19 -3 4 -6 -2 -5 -13z"></path>
<path d="M5600 1690 c0 -5 7 -10 15 -10 8 0 15 5 15 10 0 6 -7 10 -15 10 -8 0
-15 -4 -15 -10z"></path>
<path d="M350 1679 c0 -5 5 -7 10 -4 6 3 10 8 10 11 0 2 -4 4 -10 4 -5 0 -10
-5 -10 -11z"></path>
<path d="M6150 1680 c-8 -5 -25 -10 -37 -10 -13 0 -23 -5 -23 -11 0 -7 14 -8
43 -4 50 9 59 13 52 26 -8 11 -16 11 -35 -1z"></path>
<path d="M600 1670 c0 -11 68 -25 77 -16 9 9 2 13 -39 19 -21 3 -38 2 -38 -3z"></path>
<path d="M5245 1670 c-3 -5 1 -10 10 -10 9 0 13 5 10 10 -3 6 -8 10 -10 10 -2
0 -7 -4 -10 -10z"></path>
<path d="M5277 1660 c-3 -11 -1 -18 4 -14 13 8 11 -10 -2 -23 -16 -16 -4 -44
16 -37 18 7 21 -16 3 -34 -9 -9 -6 -16 12 -32 13 -11 25 -18 27 -16 7 6 -9 36
-20 36 -6 0 -3 6 6 13 15 11 15 15 2 41 -8 15 -15 36 -15 46 0 10 -6 23 -14
29 -11 9 -15 7 -19 -9z"></path>
<path d="M845 1660 c3 -5 10 -10 16 -10 5 0 9 5 9 10 0 6 -7 10 -16 10 -8 0
-12 -4 -9 -10z"></path>
<path d="M970 1661 c0 -5 7 -11 15 -15 8 -3 15 -1 15 3 0 5 -7 11 -15 15 -8 3
-15 1 -15 -3z"></path>
<path d="M5330 1661 c0 -6 4 -12 9 -15 14 -9 22 -68 11 -82 -18 -21 6 -25 25
-4 15 17 16 24 5 52 -8 18 -18 39 -23 46 -11 14 -27 16 -27 3z"></path>
<path d="M5510 1660 c0 -5 5 -10 10 -10 6 0 10 5 10 10 0 6 -4 10 -10 10 -5 0
-10 -4 -10 -10z"></path>
<path d="M910 1630 c0 -5 9 -10 21 -10 11 0 17 5 14 10 -3 6 -13 10 -21 10 -8
0 -14 -4 -14 -10z"></path>
<path d="M5420 1629 c0 -5 5 -7 10 -4 6 3 10 8 10 11 0 2 -4 4 -10 4 -5 0 -10
-5 -10 -11z"></path>
<path d="M758 1603 c-37 -6 -36 -23 1 -23 16 0 31 6 35 15 3 8 2 14 -2 14 -4
-1 -19 -4 -34 -6z"></path>
<path d="M1110 1601 c0 -5 5 -13 10 -16 6 -3 10 -2 10 4 0 5 -4 13 -10 16 -5
3 -10 2 -10 -4z"></path>
<path d="M395 1590 c3 -5 8 -10 11 -10 2 0 4 5 4 10 0 6 -5 10 -11 10 -5 0 -7
-4 -4 -10z"></path>
<path d="M1270 1581 c0 -9 71 -41 90 -41 23 0 8 19 -20 25 -16 4 -32 11 -35
16 -8 12 -35 12 -35 0z"></path>
<path d="M5060 1575 c0 -8 7 -15 15 -15 8 0 15 7 15 15 0 8 -7 15 -15 15 -8 0
-15 -7 -15 -15z"></path>
<path d="M5165 1570 c3 -5 8 -10 11 -10 2 0 4 5 4 10 0 6 -5 10 -11 10 -5 0
-7 -4 -4 -10z"></path>
<path d="M1136 1561 c-3 -5 1 -14 8 -20 16 -13 32 2 21 19 -8 12 -22 13 -29 1z"></path>
<path d="M1226 1545 c-3 -9 0 -15 9 -15 8 0 15 7 15 15 0 8 -4 15 -9 15 -5 0
-11 -7 -15 -15z"></path>
<path d="M5200 1540 c-8 -15 -8 -20 3 -20 14 0 37 19 37 32 0 16 -30 7 -40
-12z"></path>
<path d="M6442 1548 c5 -15 28 -23 28 -10 0 5 -7 13 -16 16 -10 4 -14 1 -12
-6z"></path>
<path d="M1400 1540 c0 -9 25 -20 46 -20 9 0 13 4 10 9 -7 11 -56 21 -56 11z"></path>
<path d="M1805 1530 c10 -11 22 -17 27 -14 12 8 -11 34 -30 34 -13 0 -12 -3 3
-20z"></path>
<path d="M1930 1536 c0 -8 5 -18 10 -21 6 -3 10 3 10 14 0 12 -4 21 -10 21 -5
0 -10 -6 -10 -14z"></path>
<path d="M1670 1527 c-24 -19 -16 -161 10 -187 27 -27 30 -25 31 13 0 17 5 41
10 52 7 15 8 10 8 -25 -3 -81 -2 -82 31 -75 19 4 30 3 30 -4 0 -6 7 -11 15
-11 21 0 19 -30 -2 -31 -10 -1 -21 -1 -25 0 -18 3 -6 -18 13 -24 14 -5 28 0
44 15 19 18 23 19 22 5 -2 -13 8 -17 48 -19 28 -1 53 2 56 7 4 6 15 7 25 3 13
-5 15 -9 6 -18 -15 -15 -15 -28 -2 -28 6 0 10 7 10 15 0 8 6 15 13 15 19 0 59
45 50 55 -5 4 -2 5 5 1 7 -4 12 -1 12 9 0 13 -7 15 -35 9 -33 -6 -40 -1 -37
27 1 4 -12 12 -29 19 -16 7 -34 20 -39 29 -7 12 -11 13 -21 4 -7 -7 -18 -9
-28 -4 -24 13 -74 17 -90 7 -11 -7 -13 -4 -9 12 5 18 2 22 -18 22 -17 0 -24 6
-24 20 0 11 -4 20 -10 20 -5 0 -10 -4 -10 -10 0 -5 -4 -10 -10 -10 -5 0 -10 7
-10 16 0 10 -6 14 -15 10 -10 -4 -15 1 -15 15 0 16 4 19 20 14 14 -4 20 -2 20
9 0 22 -32 37 -50 23z m127 -179 c-3 -8 -6 -5 -6 6 -1 11 2 17 5 13 3 -3 4
-12 1 -19z"></path>
<path d="M5246 1523 c-6 -14 -5 -15 5 -6 7 7 10 15 7 18 -3 3 -9 -2 -12 -12z"></path>
<path d="M5040 1519 c0 -5 5 -7 10 -4 6 3 10 8 10 11 0 2 -4 4 -10 4 -5 0 -10
-5 -10 -11z"></path>
<path d="M6498 1523 c7 -3 16 -2 19 1 4 3 -2 6 -13 5 -11 0 -14 -3 -6 -6z"></path>
<path d="M920 1505 c0 -9 5 -15 11 -13 6 2 11 8 11 13 0 5 -5 11 -11 13 -6 2
-11 -4 -11 -13z"></path>
<path d="M1474 1513 c2 -5 22 -17 43 -27 48 -25 103 -75 103 -95 1 -13 3 -13
15 2 7 11 12 31 10 45 -1 15 -3 34 -4 42 -1 12 -14 16 -57 16 -30 1 -60 6 -67
13 -12 12 -51 16 -43 4z"></path>
<path d="M1843 1500 c-7 -11 -9 -21 -3 -25 5 -3 11 -1 15 5 11 18 34 11 37
-12 2 -15 9 -22 19 -20 9 1 19 -5 23 -13 7 -18 26 -11 26 9 0 13 -81 76 -97
76 -4 0 -14 -9 -20 -20z"></path>
<path d="M3020 1509 c0 -5 5 -7 10 -4 6 3 10 8 10 11 0 2 -4 4 -10 4 -5 0 -10
-5 -10 -11z"></path>
<path d="M1010 1504 c0 -10 33 -33 48 -34 18 0 15 17 -5 24 -10 3 -24 9 -30
12 -7 3 -13 2 -13 -2z"></path>
<path d="M5000 1501 c0 -12 21 -27 50 -36 l25 -8 -28 27 c-28 26 -47 33 -47
17z"></path>
<path d="M5510 1496 c7 -7 14 -6 21 1 9 9 7 12 -9 10 -14 -1 -18 -5 -12 -11z"></path>
<path d="M6435 1500 c-10 -16 16 -43 28 -31 11 11 2 41 -12 41 -5 0 -13 -5
-16 -10z"></path>
<path d="M2638 1472 c-30 -19 -33 -47 -5 -49 11 -1 22 -4 24 -7 7 -7 -24 -73
-37 -81 -6 -3 -10 -13 -10 -21 0 -17 30 -19 30 -1 1 21 36 61 44 48 11 -18 23
-13 29 12 2 12 8 30 12 40 4 10 3 17 -4 17 -6 0 -11 -7 -11 -15 0 -8 -4 -15
-10 -15 -5 0 -10 5 -10 10 0 6 -7 10 -15 10 -15 0 -21 25 -7 33 4 2 1 2 -5 1
-16 -4 -17 8 -1 24 16 16 9 14 -24 -6z"></path>
<path d="M3427 1484 c-7 -7 4 -44 13 -44 4 0 13 6 19 14 10 12 8 17 -7 25 -11
6 -22 8 -25 5z"></path>
<path d="M5606 1471 c-19 -21 -21 -42 -3 -35 18 6 38 42 28 48 -5 3 -16 -3
-25 -13z"></path>
<path d="M5664 1479 c-11 -18 11 -32 25 -16 9 12 8 16 -3 20 -9 4 -18 1 -22
-4z"></path>
<path d="M1276 1471 c-3 -5 4 -11 16 -14 12 -4 19 -9 15 -13 -3 -4 -1 -16 4
-27 8 -14 8 -21 0 -27 -8 -4 -9 -14 -2 -31 5 -13 11 -18 12 -11 1 6 3 17 4 22
1 6 3 15 4 21 0 5 11 9 23 7 33 -5 32 16 -3 29 -19 8 -28 16 -24 24 8 12 -11
29 -32 29 -6 0 -14 -4 -17 -9z"></path>
<path d="M1770 1466 c0 -17 24 -38 33 -29 4 3 7 1 7 -5 0 -7 7 -12 15 -12 14
0 16 5 14 28 0 4 -6 6 -13 4 -7 -1 -19 5 -26 13 -16 19 -30 19 -30 1z"></path>
<path d="M3500 1470 c0 -5 9 -14 20 -20 22 -12 27 -1 8 18 -14 14 -28 16 -28
2z"></path>
<path d="M5200 1471 c0 -17 18 -21 24 -6 3 9 0 15 -9 15 -8 0 -15 -4 -15 -9z"></path>
<path d="M5553 1465 c-3 -9 -3 -18 0 -21 9 -9 27 6 27 22 0 19 -19 18 -27 -1z"></path>
<path d="M1490 1460 c0 -5 5 -10 11 -10 5 0 7 5 4 10 -3 6 -8 10 -11 10 -2 0
-4 -4 -4 -10z"></path>
<path d="M2441 1428 l-20 -43 24 30 c22 26 33 55 21 55 -2 0 -13 -19 -25 -42z"></path>
<path d="M2875 1463 c-11 -3 -26 -10 -32 -15 -9 -7 -18 -7 -28 2 -20 17 -29 7
-21 -24 7 -27 49 -59 44 -34 -2 8 9 14 29 16 28 3 31 1 26 -18 -5 -20 -3 -21
33 -16 35 6 98 53 77 58 -4 0 -21 3 -38 5 -16 2 -36 4 -42 5 -7 1 -13 7 -13
15 0 14 -2 14 -35 6z"></path>
<path d="M3550 1466 c0 -2 8 -10 18 -17 15 -13 16 -12 3 4 -13 16 -21 21 -21
13z"></path>
<path d="M5150 1456 c0 -9 7 -16 16 -16 9 0 14 5 12 12 -6 18 -28 21 -28 4z"></path>
<path d="M6352 1445 c-7 -14 -18 -25 -25 -25 -8 0 -22 -9 -31 -19 -17 -19 -17
-20 3 -33 12 -7 21 -23 21 -35 0 -29 11 -29 28 -2 12 18 11 21 -7 26 -29 8
-26 26 9 53 30 23 38 44 21 54 -4 3 -13 -6 -19 -19z"></path>
<path d="M3040 1425 c0 -8 4 -15 9 -15 5 0 11 7 15 15 3 9 0 15 -9 15 -8 0
-15 -7 -15 -15z"></path>
<path d="M0 1338 c0 -81 3 -96 20 -111 11 -9 24 -17 28 -17 12 0 10 70 -2 71
-6 0 -1 4 10 9 21 8 148 -8 169 -22 11 -7 54 -11 99 -9 25 1 27 3 15 17 -10
12 -25 15 -55 11 -30 -3 -47 1 -65 15 -23 17 -23 19 -6 32 14 11 16 18 7 37
-6 13 -22 29 -35 36 -21 9 -25 9 -25 -6 0 -10 -14 -22 -35 -30 -33 -12 -60 -8
-51 7 2 4 -13 18 -35 30 l-39 23 0 -93z"></path>
<path d="M1025 1420 c3 -5 8 -10 11 -10 2 0 4 5 4 10 0 6 -5 10 -11 10 -5 0
-7 -4 -4 -10z"></path>
<path d="M1150 1421 c0 -5 4 -21 10 -35 10 -28 11 -27 -42 -30 -22 -2 -25 1
-16 11 16 20 -2 32 -35 26 -17 -3 -33 -16 -42 -33 -8 -15 -27 -38 -42 -52 -32
-28 -73 -82 -73 -98 0 -5 -4 -10 -10 -10 -5 0 -12 -11 -16 -25 -3 -14 -9 -25
-13 -25 -4 0 -23 -16 -44 -36 -31 -30 -42 -35 -64 -29 -16 3 -35 13 -43 20 -8
7 -33 15 -55 17 -27 3 -49 13 -67 31 -18 18 -22 27 -13 27 20 0 19 14 -1 31
-14 11 -18 11 -28 -2 -13 -18 -46 -32 -46 -19 0 5 9 15 20 23 11 8 17 17 13
20 -8 9 -78 7 -118 -2 l-30 -7 40 -20 c22 -10 44 -28 50 -39 6 -13 18 -19 32
-17 16 2 21 -1 17 -11 -2 -7 2 -20 11 -27 13 -11 13 -15 3 -22 -10 -6 -7 -10
9 -14 18 -5 21 -11 16 -42 l-6 -37 30 28 c34 31 58 35 72 10 5 -10 12 -17 15
-15 14 6 27 1 21 -8 -3 -5 -15 -10 -27 -10 -14 0 -18 -5 -14 -15 3 -9 0 -15
-9 -15 -13 0 -42 -39 -30 -41 21 -5 32 -4 43 4 6 5 12 6 12 2 0 -4 6 -2 14 4
17 14 117 10 133 -6 7 -6 17 -13 23 -15 6 -2 13 -19 15 -38 3 -19 10 -45 17
-58 10 -19 17 -22 42 -16 17 3 40 14 51 24 11 11 24 19 30 19 5 0 12 5 15 13
5 13 21 20 54 22 12 1 20 -7 22 -21 3 -16 -1 -23 -12 -23 -10 0 -14 6 -11 14
5 11 0 11 -24 -2 -16 -9 -29 -20 -29 -24 0 -8 53 -13 108 -10 17 1 32 -3 32
-8 0 -6 3 -9 8 -9 4 1 19 1 33 0 23 -1 25 -5 21 -31 -4 -25 -1 -30 16 -30 30
0 37 -18 16 -41 -15 -17 -15 -19 -1 -19 9 0 27 5 41 11 19 9 29 9 40 0 12 -10
17 -8 26 9 10 19 9 22 -10 27 -16 4 -18 8 -8 14 7 5 20 6 30 3 9 -2 19 0 23 6
3 6 12 7 18 3 7 -4 30 -9 52 -9 22 -1 59 -4 82 -7 42 -6 43 -5 52 31 6 20 14
55 19 77 4 22 12 38 17 37 11 -5 58 86 50 97 -5 9 23 71 37 81 3 3 10 21 15
40 5 19 12 33 16 30 10 -8 39 39 33 53 -3 7 -7 3 -11 -10 -8 -24 -25 -32 -25
-11 0 6 -9 3 -21 -8 -12 -10 -23 -18 -25 -16 -2 1 -14 2 -27 2 -19 0 -26 -8
-34 -37 l-11 -38 2 52 c1 34 -2 49 -8 43 -6 -6 -14 -10 -18 -10 -15 0 -8 15
14 29 19 12 23 11 34 -4 8 -11 20 -15 32 -11 16 5 20 15 18 49 -1 46 -23 58
-41 22 -13 -25 -38 -30 -56 -12 -8 7 -20 12 -27 9 -6 -2 -12 1 -12 6 0 6 5 12
12 14 6 2 9 12 5 21 -5 14 -10 15 -25 6 -15 -10 -26 -8 -52 5 -30 15 -35 15
-43 1 -4 -8 -13 -12 -20 -8 -19 12 -79 15 -72 3 8 -13 -1 -13 -26 0 -13 7 -19
7 -19 0 0 -5 -4 -10 -10 -10 -21 0 -9 20 15 26 14 3 25 10 25 15 0 12 -27 11
-35 -1 -3 -5 -13 -10 -21 -10 -8 0 -12 5 -9 11 4 6 -4 9 -21 7 -20 -2 -29 2
-32 14 -2 12 1 16 11 12 9 -3 16 3 20 17 5 19 3 21 -24 15 -16 -3 -29 -1 -29
4 0 6 -11 10 -25 10 -14 0 -24 3 -24 8 3 18 -2 32 -11 32 -5 0 -10 -4 -10 -9z
m80 -71 c0 -5 -6 -10 -14 -10 -8 0 -16 -6 -19 -12 -2 -7 -8 -10 -12 -5 -5 4 0
14 11 22 23 17 34 19 34 5z m184 -95 c-7 -18 -14 -18 -34 -4 -13 9 -12 10 2 5
10 -3 20 -1 23 4 9 15 15 12 9 -5z m144 -242 c2 -20 -2 -24 -16 -18 -14 5 -15
4 -4 -6 6 -7 12 -22 12 -33 0 -18 -1 -18 -18 -3 -12 11 -22 13 -28 7 -14 -14
-47 22 -39 41 6 17 42 35 70 36 15 0 21 -6 23 -24z m101 -18 c9 -32 -3 -95
-19 -95 -3 0 -5 29 -6 65 -1 71 10 84 25 30z m-919 11 c0 -3 -4 -8 -10 -11 -5
-3 -10 -1 -10 4 0 6 5 11 10 11 6 0 10 -2 10 -4z m266 -108 c4 -6 3 -8 -4 -4
-6 3 -13 2 -16 -3 -3 -5 -16 -7 -28 -3 -12 3 -19 1 -15 -4 3 -6 -5 -10 -19
-10 -13 0 -24 3 -24 8 0 24 92 39 106 16z"></path>
<path d="M1890 1414 c0 -8 5 -12 10 -9 6 4 8 11 5 16 -9 14 -15 11 -15 -7z"></path>
<path d="M5060 1409 c0 -11 5 -17 10 -14 6 3 10 13 10 21 0 8 -4 14 -10 14 -5
0 -10 -9 -10 -21z"></path>
<path d="M5111 1414 c0 -11 3 -14 6 -6 3 7 2 16 -1 19 -3 4 -6 -2 -5 -13z"></path>
<path d="M5650 1419 c0 -5 5 -7 10 -4 6 3 10 8 10 11 0 2 -4 4 -10 4 -5 0 -10
-5 -10 -11z"></path>
<path d="M1245 1410 c-3 -5 -1 -10 4 -10 6 0 11 5 11 10 0 6 -2 10 -4 10 -3 0
-8 -4 -11 -10z"></path>
<path d="M3675 1410 c-3 -5 1 -10 9 -10 9 0 16 5 16 10 0 6 -4 10 -9 10 -6 0
-13 -4 -16 -10z"></path>
<path d="M2240 1400 c0 -5 5 -10 10 -10 6 0 10 5 10 10 0 6 -4 10 -10 10 -5 0
-10 -4 -10 -10z"></path>
<path d="M2290 1396 c0 -8 -6 -17 -12 -19 -7 -3 -2 -5 12 -5 14 0 33 -3 43 -7
22 -9 22 7 -1 28 -23 21 -42 22 -42 3z"></path>
<path d="M4920 1400 c0 -6 7 -10 15 -10 8 0 15 2 15 4 0 2 -7 6 -15 10 -8 3
-15 1 -15 -4z"></path>
<path d="M5010 1376 c0 -9 5 -16 10 -16 6 0 10 4 10 9 0 6 -4 13 -10 16 -5 3
-10 -1 -10 -9z"></path>
<path d="M3023 1366 c-20 -9 -32 -26 -19 -26 16 0 56 21 56 30 0 12 -7 11 -37
-4z"></path>
<path d="M5050 1370 c0 -13 29 -32 40 -25 19 12 10 33 -15 33 -14 0 -25 -4
-25 -8z"></path>
<path d="M2964 1360 c-5 -5 -24 -12 -41 -13 -37 -5 -55 -15 -48 -27 3 -5 -2
-21 -11 -35 -16 -24 -16 -25 9 -25 14 0 29 4 32 10 4 6 13 5 25 -2 15 -10 22
-10 32 0 10 10 8 14 -9 18 -13 4 -20 11 -16 20 3 8 0 14 -6 14 -6 0 -11 -7
-11 -15 0 -8 -7 -15 -15 -15 -24 0 -18 28 8 35 46 13 77 28 77 36 0 12 -14 11
-26 -1z"></path>
<path d="M5121 1361 c-8 -6 -9 -11 -3 -15 6 -3 14 -1 17 5 9 14 2 20 -14 10z"></path>
<path d="M5153 1357 c2 -7 -6 -26 -19 -42 -22 -28 -24 -29 -37 -11 -13 17 -14
17 -31 -9 -14 -21 -20 -24 -32 -14 -11 9 -11 15 -3 25 13 16 3 52 -10 38 -14
-15 -22 -64 -11 -64 24 0 7 -18 -27 -29 -38 -13 -84 -4 -97 17 -3 5 -24 8 -46
7 -24 -1 -44 3 -51 11 -13 16 -65 19 -74 5 -3 -5 0 -13 6 -17 8 -4 8 -9 1 -13
-6 -4 -8 -12 -3 -19 8 -14 46 -17 78 -7 16 5 25 3 29 -9 3 -9 12 -16 19 -16 7
0 20 -11 29 -25 20 -30 20 -39 2 -32 -7 3 -18 1 -24 -5 -8 -8 -15 -8 -25 0
-15 13 -27 6 -27 -14 0 -6 10 -14 22 -18 19 -4 20 -8 10 -18 -11 -11 -16 -9
-28 6 -14 20 -14 20 -28 0 -11 -14 -17 -16 -26 -7 -10 9 -7 15 9 29 11 10 21
26 21 34 0 9 5 21 12 28 9 9 9 12 0 12 -7 0 -12 -5 -12 -11 0 -6 -14 -9 -32
-7 -27 3 -32 -1 -39 -24 -5 -21 -4 -28 7 -28 18 0 17 -10 -1 -34 -24 -32 -19
-49 8 -31 26 17 37 12 37 -17 0 -10 7 -18 15 -18 23 0 18 -47 -7 -64 -17 -12
-20 -18 -10 -28 17 -17 15 -38 -3 -38 -8 0 -15 7 -15 15 0 21 -23 19 -37 -4
-15 -23 -5 -35 15 -18 12 9 16 9 19 0 6 -17 45 -16 68 1 16 12 17 16 6 30 -7
9 -11 26 -7 38 9 38 64 96 96 103 36 8 37 12 8 42 -33 35 -13 40 30 6 54 -43
88 -47 112 -13 11 16 20 33 20 40 0 6 19 37 43 68 68 91 78 109 71 137 -3 14
-13 25 -21 25 -8 0 -13 -6 -10 -13z m-383 -97 c0 -5 -4 -10 -10 -10 -5 0 -10
5 -10 10 0 6 5 10 10 10 6 0 10 -4 10 -10z m150 -30 c0 -5 -2 -10 -4 -10 -3 0
-8 5 -11 10 -3 6 -1 10 4 10 6 0 11 -4 11 -10z"></path>
<path d="M5707 1345 c-3 -16 0 -24 7 -22 14 4 21 47 8 47 -5 0 -12 -11 -15
-25z"></path>
<path d="M1375 1349 c-8 -12 -6 -15 22 -23 12 -4 24 -2 28 4 3 5 -1 10 -9 10
-9 0 -16 5 -16 10 0 13 -17 13 -25 -1z"></path>
<path d="M3090 1350 c0 -5 5 -10 11 -10 5 0 7 5 4 10 -3 6 -8 10 -11 10 -2 0
-4 -4 -4 -10z"></path>
<path d="M4886 1351 c-3 -5 1 -11 9 -15 8 -3 15 -12 15 -20 0 -15 29 -36 50
-36 7 0 5 7 -4 16 -9 8 -16 22 -16 29 0 8 -9 19 -19 25 -24 12 -28 12 -35 1z"></path>
<path d="M4976 1344 c-8 -20 0 -32 14 -18 5 5 5 15 1 22 -6 11 -10 10 -15 -4z"></path>
<path d="M2300 1342 c0 -12 23 -32 37 -32 9 0 8 6 -4 20 -18 21 -33 26 -33 12z"></path>
<path d="M2415 1340 c3 -5 8 -10 11 -10 2 0 4 5 4 10 0 6 -5 10 -11 10 -5 0
-7 -4 -4 -10z"></path>
<path d="M2820 1330 c0 -11 -7 -23 -15 -26 -16 -6 -21 -34 -7 -34 16 0 64 58
58 69 -12 19 -36 12 -36 -9z"></path>
<path d="M1609 1323 c0 -5 -2 -17 -4 -29 -3 -13 1 -21 10 -21 10 0 15 10 15
29 0 15 -4 28 -10 28 -5 0 -10 -3 -11 -7z"></path>
<path d="M4790 1320 c0 -5 4 -10 9 -10 6 0 13 5 16 10 3 6 -1 10 -9 10 -9 0
-16 -4 -16 -10z"></path>
<path d="M2970 1310 c0 -5 7 -10 15 -10 8 0 15 5 15 10 0 6 -7 10 -15 10 -8 0
-15 -4 -15 -10z"></path>
<path d="M4840 1309 c0 -5 5 -7 10 -4 6 3 10 8 10 11 0 2 -4 4 -10 4 -5 0 -10
-5 -10 -11z"></path>
<path d="M6586 1303 c17 -13 34 -9 34 7 0 6 -12 9 -26 8 -23 -2 -23 -4 -8 -15z"></path>
<path d="M2393 1295 c0 -8 6 -15 13 -15 8 0 11 6 8 15 -4 8 -9 15 -13 15 -4 0
-8 -7 -8 -15z"></path>
<path d="M2485 1300 c3 -5 10 -10 16 -10 5 0 9 5 9 10 0 6 -7 10 -16 10 -8 0
-12 -4 -9 -10z"></path>
<path d="M2555 1290 c3 -5 10 -10 16 -10 5 0 9 5 9 10 0 6 -7 10 -16 10 -8 0
-12 -4 -9 -10z"></path>
<path d="M3260 1290 c0 -5 5 -10 10 -10 6 0 10 5 10 10 0 6 -4 10 -10 10 -5 0
-10 -4 -10 -10z"></path>
<path d="M6130 1279 c0 -24 23 -21 28 4 2 10 -3 17 -12 17 -10 0 -16 -9 -16
-21z"></path>
<path d="M2092 1274 c-15 -10 -22 -24 -20 -37 2 -18 9 -21 35 -19 21 2 34 -2
40 -13 7 -13 14 -14 34 -6 45 19 63 39 50 54 -12 15 -65 21 -56 7 3 -4 -11
-10 -30 -12 -23 -3 -32 -1 -25 6 12 12 13 36 2 36 -4 0 -18 -7 -30 -16z"></path>
<path d="M2250 1269 c0 -7 10 -27 21 -46 15 -24 26 -32 37 -28 10 4 22 -2 32
-15 10 -13 30 -22 54 -25 21 -2 42 -8 46 -15 5 -8 14 -8 34 0 27 10 28 30 0
30 -8 0 -19 10 -25 23 -6 13 -24 28 -40 34 -19 8 -29 18 -29 32 0 33 -34 26
-47 -9 -6 -16 -16 -30 -22 -30 -6 0 -17 14 -26 30 -15 30 -35 40 -35 19z m120
-69 c0 -5 -2 -10 -4 -10 -3 0 -8 5 -11 10 -3 6 -1 10 4 10 6 0 11 -4 11 -10z"></path>
<path d="M2525 1270 c3 -5 8 -10 11 -10 2 0 4 5 4 10 0 6 -5 10 -11 10 -5 0
-7 -4 -4 -10z"></path>
<path d="M5504 1256 c-23 -22 -41 -81 -27 -89 4 -2 25 -7 46 -11 44 -8 51 9 7
19 -26 6 -29 10 -24 33 4 15 11 32 16 39 18 23 3 30 -18 9z"></path>
<path d="M6670 1270 c0 -5 5 -10 10 -10 6 0 10 5 10 10 0 6 -4 10 -10 10 -5 0
-10 -4 -10 -10z"></path>
<path d="M2568 1253 c-1 -10 -2 -25 -4 -33 -1 -8 -2 -19 -3 -23 -1 -4 -11 1
-23 13 -12 11 -28 20 -35 20 -18 0 -4 -28 18 -35 23 -8 25 -31 3 -43 -9 -5
-14 -14 -10 -21 8 -12 36 -15 36 -3 0 4 10 23 22 42 12 19 23 37 23 40 1 3 5
13 10 24 5 12 3 21 -6 27 -21 13 -29 11 -31 -8z"></path>
<path d="M1621 1244 c0 -11 3 -14 6 -6 3 7 2 16 -1 19 -3 4 -6 -2 -5 -13z"></path>
<path d="M6410 1250 c0 -5 4 -10 9 -10 6 0 13 5 16 10 3 6 -1 10 -9 10 -9 0
-16 -4 -16 -10z"></path>
<path d="M2720 1235 c-10 -13 -10 -19 5 -35 26 -29 34 -25 32 15 -2 37 -16 45
-37 20z"></path>
<path d="M4640 1242 c0 -5 7 -13 16 -16 10 -4 14 -1 12 6 -5 15 -28 23 -28 10z"></path>
<path d="M5657 1234 c-8 -8 1 -24 14 -24 5 0 9 7 9 15 0 15 -12 20 -23 9z"></path>
<path d="M6502 1228 c3 -7 13 -15 22 -16 12 -3 17 1 14 10 -3 7 -13 15 -22 16
-12 3 -17 -1 -14 -10z"></path>
<path d="M4536 1214 c-5 -14 -4 -15 9 -4 17 14 19 20 6 20 -5 0 -12 -7 -15
-16z"></path>
<path d="M1730 1201 c0 -17 18 -21 24 -6 3 9 0 15 -9 15 -8 0 -15 -4 -15 -9z"></path>
<path d="M344 1188 c-4 -5 -3 -12 0 -15 11 -12 -39 -30 -57 -21 -27 14 -37 1
-37 -47 0 -35 4 -47 22 -56 20 -11 20 -12 3 -22 -13 -7 -24 -6 -37 2 -15 9
-23 9 -34 0 -11 -9 -14 -8 -14 6 0 15 -3 15 -15 5 -9 -7 -14 -20 -13 -29 3
-13 19 -16 95 -16 74 -1 96 -4 112 -19 17 -16 24 -16 55 -5 53 19 47 40 -9 32
-38 -5 -45 -3 -45 12 0 13 -5 16 -26 11 -22 -6 -25 -4 -23 16 2 13 0 28 -4 35
-5 8 1 11 20 8 16 -2 31 -4 36 -4 4 -1 7 -8 7 -16 0 -20 29 -19 37 1 4 10 0
22 -9 28 -20 15 -1 43 25 38 9 -2 17 1 17 7 0 6 -4 11 -9 11 -6 0 -21 11 -35
23 -26 24 -53 30 -62 15z"></path>
<path d="M4615 1190 c-4 -6 -2 -17 5 -25 8 -10 8 -19 1 -34 -15 -27 -14 -34 5
-27 9 4 22 2 29 -4 9 -8 15 -8 20 0 3 5 1 10 -5 10 -6 0 -8 10 -4 25 4 15 2
25 -5 25 -6 0 -11 9 -11 20 0 21 -24 28 -35 10z"></path>
<path d="M5597 1186 c-6 -16 2 -28 14 -20 12 7 11 34 0 34 -5 0 -11 -6 -14
-14z"></path>
<path d="M6474 1184 c3 -8 6 -18 6 -20 0 -3 5 -2 10 1 15 9 12 22 -6 29 -12 5
-15 2 -10 -10z"></path>
<path d="M2065 1180 c-3 -5 11 -16 31 -25 47 -20 53 -19 51 5 -1 15 -6 18 -26
13 -17 -4 -22 -2 -17 6 5 7 0 11 -13 11 -11 0 -23 -4 -26 -10z"></path>
<path d="M2225 1171 c-7 -12 12 -24 25 -16 11 7 4 25 -10 25 -5 0 -11 -4 -15
-9z"></path>
<path d="M670 1160 c0 -5 7 -10 15 -10 8 0 15 5 15 10 0 6 -7 10 -15 10 -8 0
-15 -4 -15 -10z"></path>
<path d="M1796 1154 c-5 -14 -4 -15 9 -4 17 14 19 20 6 20 -5 0 -12 -7 -15
-16z"></path>
<path d="M5688 1152 c-10 -15 -21 -20 -32 -16 -23 9 -20 1 17 -40 18 -20 41
-36 50 -36 27 0 20 18 -13 35 -34 17 -38 30 -14 43 9 5 15 15 12 22 -3 10 -9
7 -20 -8z"></path>
<path d="M8 1153 c7 -3 16 -2 19 1 4 3 -2 6 -13 5 -11 0 -14 -3 -6 -6z"></path>
<path d="M87 1153 c-12 -12 -7 -22 14 -28 14 -5 19 -13 16 -26 -4 -14 0 -19
13 -19 11 0 22 -4 25 -10 3 -5 11 -10 17 -10 6 0 -1 12 -15 26 -14 14 -23 32
-21 39 3 7 -4 18 -15 24 -23 13 -26 13 -34 4z"></path>
<path d="M1815 1140 c-10 -11 -22 -17 -26 -14 -5 3 -9 -1 -9 -10 0 -8 -11 -28
-25 -44 -14 -17 -25 -34 -23 -39 1 -4 -2 -23 -6 -42 -6 -26 -10 -30 -18 -20
-8 11 -8 9 -4 -5 4 -12 -9 -42 -39 -89 -25 -39 -46 -81 -46 -94 -1 -13 -2 -29
-3 -35 -1 -8 13 -14 34 -15 107 -5 140 -4 158 1 11 4 23 3 25 -1 3 -5 24 -7
47 -5 32 3 43 9 50 27 5 13 18 26 28 30 22 6 117 -1 132 -10 6 -4 10 -2 10 4
0 5 10 11 23 13 16 2 23 11 25 31 5 39 53 38 81 -2 26 -36 26 -41 1 -41 -13 0
-20 -7 -20 -20 0 -11 -7 -23 -15 -27 -25 -9 -28 3 -10 31 10 14 16 26 14 26
-2 0 -21 -6 -42 -13 -63 -23 -84 -69 -48 -108 15 -17 23 -19 39 -10 11 6 22
17 26 26 3 8 14 15 25 15 11 0 30 14 43 30 13 18 28 28 37 26 9 -3 32 3 51 12
25 12 37 27 44 52 8 30 81 140 92 140 3 0 -3 -16 -11 -36 -10 -26 -12 -41 -5
-49 16 -19 1 -43 -28 -47 -14 -2 -28 -9 -30 -17 -4 -11 9 -13 69 -8 41 4 112
13 159 22 47 9 119 20 160 25 108 13 138 20 144 37 4 10 1 13 -13 8 -24 -7
-72 11 -69 27 2 8 -14 15 -44 18 -41 5 -48 3 -48 -11 0 -10 -4 -21 -10 -24 -5
-3 -10 1 -10 9 0 9 -8 15 -17 14 -40 -3 -54 2 -51 20 1 9 -1 18 -5 20 -30 10
-45 -24 -20 -44 17 -13 17 -13 -3 -14 -45 0 -87 13 -91 31 -3 10 -11 20 -19
23 -22 9 10 64 41 72 30 7 32 20 6 33 -21 12 -38 -3 -65 -56 -20 -41 -40 -54
-26 -19 5 15 16 39 25 56 22 42 19 50 -20 50 -38 0 -47 -14 -15 -23 19 -5 19
-6 2 -38 -24 -47 -84 -129 -95 -129 -4 0 -6 -8 -2 -19 3 -10 -1 -24 -10 -31
-8 -7 -15 -19 -15 -27 0 -9 -8 -13 -22 -11 -27 4 -37 50 -17 74 9 12 7 14 -16
14 -21 0 -25 3 -17 13 19 22 3 62 -31 76 -18 7 -27 15 -21 17 6 3 32 -5 59
-16 58 -25 76 -16 66 33 -4 19 -15 36 -29 42 -12 5 -20 15 -18 22 3 7 -2 20
-11 29 -15 15 -18 15 -30 -2 -12 -17 -14 -17 -36 4 -25 24 -42 28 -52 12 -3
-5 14 -19 39 -31 47 -22 73 -45 62 -56 -3 -3 -14 1 -24 10 -10 10 -22 17 -27
17 -5 0 0 -7 11 -15 10 -8 15 -15 10 -15 -5 0 -17 7 -27 16 -14 12 -22 13 -38
4 -16 -8 -27 -7 -48 4 l-28 15 25 1 c22 0 21 2 -13 20 -46 25 -50 25 -38 1 6
-10 8 -21 5 -24 -3 -3 10 -13 30 -22 40 -19 48 -34 14 -28 -13 2 -31 -2 -41
-9 -15 -11 -16 -17 -5 -40 7 -16 16 -28 21 -28 4 0 7 -11 7 -25 0 -20 5 -25
24 -25 40 0 40 -18 -1 -68 -30 -36 -39 -42 -41 -28 -3 13 -9 16 -25 11 -43
-13 -62 -11 -60 8 0 10 -4 16 -11 14 -12 -5 -38 38 -28 48 3 3 13 5 22 5 25 0
52 34 44 56 -4 10 -18 34 -32 53 -26 35 -20 50 21 51 20 0 22 -11 5 -28 -9 -9
-8 -12 4 -12 29 0 32 39 7 66 -19 20 -21 27 -10 33 7 5 10 14 7 20 -11 16 -63
13 -70 -4 -3 -8 -12 -15 -21 -15 -13 0 -13 -3 -3 -20 18 -28 1 -37 -31 -19
-20 12 -33 14 -47 7 -10 -6 -5 2 11 16 25 21 27 25 11 26 -11 0 -27 7 -36 15
-15 14 -19 13 -35 -5z m5 -75 c0 -2 -10 -9 -22 -15 -22 -11 -22 -10 -4 4 21
17 26 19 26 11z m885 -195 c-3 -5 -12 -10 -20 -10 -8 0 -17 5 -20 10 -4 6 5
10 20 10 15 0 24 -4 20 -10z m-545 -169 c0 -10 -30 -24 -37 -17 -3 3 -2 9 2
15 8 13 35 15 35 2z"></path>
<path d="M4567 1132 c-8 -38 10 -52 23 -18 13 34 13 33 -4 39 -9 4 -16 -4 -19
-21z"></path>
<path d="M760 1140 c0 -5 9 -10 21 -10 11 0 17 5 14 10 -3 6 -13 10 -21 10 -8
0 -14 -4 -14 -10z"></path>
<path d="M5195 1118 c4 -18 8 -42 9 -53 2 -25 15 -47 25 -40 5 2 7 15 5 27
-12 86 -16 98 -31 98 -12 0 -14 -6 -8 -32z"></path>
<path d="M2310 1132 c0 -5 8 -20 18 -32 l18 -22 -1 28 c0 19 -6 30 -17 32 -10
2 -18 -1 -18 -6z"></path>
<path d="M6392 1115 c-9 -11 -10 -20 -3 -33 11 -19 9 -21 26 33 6 19 -6 19
-23 0z"></path>
<path d="M465 1100 c-3 -5 -2 -10 4 -10 5 0 13 5 16 10 3 6 2 10 -4 10 -5 0
-13 -4 -16 -10z"></path>
<path d="M4580 1069 c0 -8 -3 -24 -6 -36 -5 -17 -2 -23 10 -23 9 0 16 5 16 11
0 5 17 17 37 25 32 14 35 17 19 26 -12 7 -22 6 -32 -2 -11 -10 -17 -10 -29 0
-12 10 -15 10 -15 -1z"></path>
<path d="M13 1064 c-26 -11 -11 -21 40 -27 28 -4 59 -8 67 -9 8 -2 15 2 15 7
0 6 -4 9 -9 7 -4 -1 -13 2 -20 7 -14 12 -77 22 -93 15z"></path>
<path d="M5076 1061 c-7 -11 22 -23 35 -15 5 3 7 10 4 15 -8 12 -32 12 -39 0z"></path>
<path d="M465 1040 c-3 -6 1 -13 10 -16 19 -8 30 0 20 15 -8 14 -22 14 -30 1z"></path>
<path d="M530 1040 c0 -5 7 -10 16 -10 8 0 12 5 9 10 -3 6 -10 10 -16 10 -5 0
-9 -4 -9 -10z"></path>
<path d="M5700 1018 c0 -18 18 -34 28 -24 3 4 -2 14 -11 23 -16 16 -17 16 -17
1z"></path>
<path d="M4664 1005 c-16 -12 -17 -14 -2 -15 23 0 48 11 48 21 0 14 -24 11
-46 -6z"></path>
<path d="M5170 1010 c0 -5 5 -10 10 -10 6 0 10 5 10 10 0 6 -4 10 -10 10 -5 0
-10 -4 -10 -10z"></path>
<path d="M17 999 c-10 -6 -17 -21 -16 -37 1 -17 3 -20 6 -9 5 18 48 24 58 7 8
-13 25 -13 25 1 0 10 -39 48 -50 48 -3 0 -13 -4 -23 -10z"></path>
<path d="M2600 1000 c0 -5 5 -10 11 -10 5 0 7 5 4 10 -3 6 -8 10 -11 10 -2 0
-4 -4 -4 -10z"></path>
<path d="M471 981 c-30 -27 -26 -38 17 -43 37 -5 58 1 35 9 -18 6 -16 33 2 33
25 0 17 15 -9 18 -13 1 -33 -7 -45 -17z"></path>
<path d="M5630 980 c-11 -11 -26 -17 -35 -14 -18 7 -20 -7 -3 -24 16 -16 89
-15 111 2 23 18 22 23 -8 30 -14 4 -25 11 -25 16 0 16 -19 11 -40 -10z m40 -8
c0 -13 -12 -22 -22 -16 -10 6 -1 24 13 24 5 0 9 -4 9 -8z"></path>
<path d="M2356 975 c4 -9 11 -14 16 -13 15 5 11 23 -6 26 -11 2 -14 -2 -10
-13z"></path>
<path d="M5065 980 c-3 -5 1 -10 9 -10 9 0 16 5 16 10 0 6 -4 10 -9 10 -6 0
-13 -4 -16 -10z"></path>
<path d="M116 947 c-7 -28 21 -52 41 -36 20 17 16 35 -11 47 -21 9 -25 8 -30
-11z"></path>
<path d="M16 935 c-5 -14 2 -25 17 -25 6 0 7 3 4 7 -4 3 0 11 9 17 13 10 13
12 -5 13 -10 1 -22 -4 -25 -12z"></path>
<path d="M238 921 c-14 -13 -15 -20 -6 -29 9 -9 9 -12 -2 -13 -8 -1 -19 -1
-24 0 -5 1 -6 -5 -3 -13 3 -8 -1 -17 -9 -20 -9 -3 -14 1 -15 12 0 13 -2 12 -9
-5 -5 -12 -18 -24 -29 -28 -12 -3 -22 -13 -22 -21 -1 -8 -2 -20 -3 -26 -1 -8
11 -13 31 -13 17 0 31 5 30 10 -1 6 12 9 30 7 17 -2 34 2 38 7 3 6 13 11 21
11 8 0 12 -4 9 -10 -3 -5 7 -12 22 -16 15 -3 34 -7 41 -10 19 -6 14 -43 -10
-68 -91 -93 -95 -101 -102 -168 -1 -9 -15 -27 -32 -40 -25 -19 -27 -19 -11 -2
9 11 17 29 17 40 0 17 -3 16 -20 -6 -16 -20 -20 -22 -20 -7 0 23 -27 22 -40
-3 -6 -11 -19 -20 -30 -20 -10 0 -22 -5 -26 -11 -8 -14 33 -48 61 -49 19 -1
20 -2 1 -9 -11 -4 -25 -23 -31 -42 -8 -22 -18 -34 -31 -34 -50 -1 -54 -35 -4
-35 24 0 32 6 44 35 16 38 25 45 22 18 -1 -13 5 -17 19 -15 11 2 29 3 40 3 10
0 24 4 30 9 5 4 27 11 48 15 20 4 37 11 37 16 0 5 11 2 25 -7 24 -16 25 -15
25 4 0 11 -6 25 -14 31 -8 7 -14 21 -13 32 2 29 44 19 65 -15 11 -19 27 -30
46 -32 37 -4 45 -13 23 -28 -9 -7 -17 -16 -17 -18 0 -3 26 -8 58 -12 185 -20
199 -25 125 -41 -18 -3 -33 -11 -33 -16 0 -5 -9 -9 -20 -9 -11 0 -20 -4 -20
-10 0 -5 4 -10 9 -10 5 0 16 -3 25 -6 11 -4 16 -1 16 10 0 9 8 16 19 16 11 0
27 3 37 7 11 4 15 3 11 -4 -5 -7 0 -9 14 -6 18 5 20 11 16 39 -3 19 -2 35 4
35 5 1 14 3 19 4 6 1 13 3 18 4 23 4 62 55 62 82 0 17 -4 28 -8 25 -5 -3 -23
4 -40 15 -18 10 -39 19 -47 19 -24 0 -17 -19 9 -26 31 -8 41 -33 21 -53 -15
-15 -16 -14 -13 3 2 15 -5 21 -32 28 -51 11 -160 -1 -160 -18 0 -8 -4 -14 -10
-14 -5 0 -10 7 -10 15 0 11 -13 15 -53 15 -29 0 -61 6 -71 13 -16 12 -15 14 7
35 13 13 42 25 63 28 21 3 46 8 54 11 24 9 71 3 119 -14 43 -16 44 -16 61 5
10 12 23 22 29 22 6 0 32 19 56 41 44 41 75 48 41 10 -17 -19 -17 -20 3 -31
27 -14 47 -4 30 16 -6 8 -9 17 -5 21 3 3 6 0 6 -8 1 -9 4 -8 11 5 6 10 14 14
18 10 3 -5 15 -14 26 -20 12 -7 19 -20 17 -31 -2 -12 4 -23 13 -27 13 -4 15
-13 10 -36 -6 -25 -4 -29 10 -24 9 4 14 13 11 20 -6 16 10 19 19 4 3 -5 12 -7
20 -3 18 6 22 -28 13 -92 -2 -15 2 -19 19 -17 12 2 24 -2 28 -8 10 -17 25 -11
25 10 0 13 -7 20 -20 20 -11 0 -20 6 -20 14 0 17 51 76 66 76 6 0 17 11 24 25
8 14 22 25 34 25 21 1 21 1 2 15 -17 13 -23 13 -52 -5 l-33 -19 -24 28 c-18
22 -30 28 -50 24 -15 -3 -32 -11 -38 -19 -17 -20 -31 -17 -52 11 -17 24 -17
25 2 25 11 0 23 5 26 11 4 6 13 8 20 5 7 -2 23 3 36 12 17 12 42 16 87 15 46
-2 62 1 59 10 -2 7 -13 13 -25 15 -12 2 -22 7 -22 12 0 4 -16 8 -35 8 -24 0
-35 -5 -35 -15 0 -8 -4 -12 -9 -8 -5 3 -17 -2 -25 -11 -15 -15 -21 -9 -17 18
1 8 -20 5 -36 -5 -18 -11 -16 8 2 23 18 15 20 34 3 24 -8 -5 -8 -1 1 10 13 15
13 19 0 27 -21 13 -36 11 -43 -6 -4 -13 -10 -14 -26 -5 -15 8 -27 7 -48 -4
-35 -18 -93 -89 -65 -79 17 6 17 5 2 -13 -9 -10 -20 -29 -23 -41 -11 -35 -54
-63 -97 -63 -25 0 -39 5 -39 13 0 7 -14 14 -32 15 -18 2 -34 4 -36 7 -2 2 -22
-3 -44 -11 -23 -8 -42 -13 -43 -12 -2 2 1 13 6 26 6 14 17 22 33 22 14 0 28 5
31 10 3 6 -1 10 -9 10 -8 0 -24 13 -36 29 -20 30 -20 30 -1 40 26 14 61 1 86
-33 11 -14 25 -26 32 -26 20 0 15 18 -7 25 -30 10 -14 25 19 19 21 -5 30 -2
35 13 7 17 8 17 21 0 11 -16 13 -16 19 -2 3 9 10 14 15 11 5 -4 19 7 31 24 12
16 30 30 41 30 18 0 28 28 12 31 -42 7 -53 5 -51 -10 2 -11 -4 -15 -21 -13
-13 1 -29 -2 -36 -8 -7 -6 -30 -11 -51 -13 -30 -2 -39 2 -42 16 -2 10 5 28 15
39 18 20 17 20 -7 17 -21 -3 -25 -9 -25 -39 0 -32 -9 -49 -27 -50 -5 0 -8 7
-8 15 0 20 -9 19 -32 -2 -18 -16 -18 -16 -12 0 11 29 -23 20 -46 -13 -12 -16
-28 -30 -36 -30 -17 0 -19 41 -1 59 10 10 8 11 -8 6 -20 -6 -20 -6 -1 9 19 15
41 12 31 -4 -3 -5 8 -2 25 6 16 9 30 19 30 23 0 13 -43 31 -77 34 -28 2 -30 4
-18 16 16 17 105 25 105 11 0 -6 -4 -10 -10 -10 -5 0 -10 -4 -10 -10 0 -15 36
-12 50 5 7 8 20 15 29 15 9 0 26 6 37 14 13 9 25 11 34 6 9 -6 20 -4 30 5 20
18 71 8 68 -14 -2 -11 3 -15 19 -13 12 2 24 -2 28 -8 8 -13 75 -13 75 0 0 6
-9 10 -19 10 -11 0 -27 7 -35 16 -11 11 -16 12 -16 3 0 -10 -3 -10 -12 -1 -10
10 -10 15 2 22 16 10 17 10 -70 9 -25 0 -66 0 -92 0 -29 0 -51 -5 -59 -15 -15
-18 -64 -10 -92 14 -18 16 -20 15 -39 -11 -21 -29 -58 -37 -58 -12 0 9 -9 15
-22 15 -18 0 -20 2 -8 10 21 13 5 23 -18 11 -16 -8 -21 -7 -26 4 -7 20 -27 18
-48 -4z m532 -511 c0 -5 -4 -10 -10 -10 -5 0 -10 5 -10 10 0 6 5 10 10 10 6 0
10 -4 10 -10z m-257 -24 c4 -10 1 -13 -9 -9 -15 6 -19 23 -5 23 5 0 11 -7 14
-14z m42 -6 c3 -5 -1 -10 -10 -10 -9 0 -13 5 -10 10 3 6 8 10 10 10 2 0 7 -4
10 -10z"></path>
<path d="M2880 925 c0 -8 7 -15 15 -15 9 0 12 6 9 15 -4 8 -10 15 -15 15 -5 0
-9 -7 -9 -15z"></path>
<path d="M385 919 c-4 -6 -3 -15 3 -21 6 -6 11 -4 15 6 7 18 -9 31 -18 15z"></path>
<path d="M5027 923 c-2 -5 -7 -21 -11 -38 -6 -28 -5 -29 9 -11 8 11 15 28 15
38 0 19 -6 23 -13 11z"></path>
<path d="M6270 922 c0 -12 58 -27 67 -18 9 9 0 15 -35 22 -20 4 -32 2 -32 -4z"></path>
<path d="M4621 890 c-25 -35 -21 -51 9 -32 11 7 30 12 42 13 21 0 21 1 4 8
-11 4 -22 15 -26 25 -5 14 -9 12 -29 -14z"></path>
<path d="M5057 883 c-5 -27 -2 -41 7 -32 11 10 17 59 8 59 -5 0 -12 -12 -15
-27z"></path>
<path d="M2050 884 c0 -8 5 -12 10 -9 6 3 10 10 10 16 0 5 -4 9 -10 9 -5 0
-10 -7 -10 -16z"></path>
<path d="M35 876 c-18 -14 -18 -15 -2 -16 19 0 23 -15 7 -25 -14 -9 -12 -37 2
-33 15 5 27 48 19 71 -6 16 -8 16 -26 3z"></path>
<path d="M6220 880 c0 -5 5 -10 10 -10 6 0 10 5 10 10 0 6 -4 10 -10 10 -5 0
-10 -4 -10 -10z"></path>
<path d="M4961 854 c0 -11 3 -14 6 -6 3 7 2 16 -1 19 -3 4 -6 -2 -5 -13z"></path>
<path d="M4286 828 c-8 -31 -8 -38 3 -38 12 0 22 43 12 53 -5 5 -11 -2 -15
-15z"></path>
<path d="M90 829 c0 -5 5 -7 10 -4 6 3 10 8 10 11 0 2 -4 4 -10 4 -5 0 -10 -5
-10 -11z"></path>
<path d="M4325 830 c-11 -17 5 -32 21 -19 8 6 14 15 14 20 0 12 -27 11 -35 -1z"></path>
<path d="M671 816 c-8 -9 -11 -19 -7 -23 9 -9 29 13 24 27 -2 8 -8 7 -17 -4z"></path>
<path d="M5197 823 c-13 -12 -7 -33 8 -33 8 0 15 9 15 20 0 20 -11 26 -23 13z"></path>
<path d="M3020 810 c0 -12 17 -12 45 0 17 7 15 9 -12 9 -18 1 -33 -3 -33 -9z"></path>
<path d="M5060 809 c0 -5 5 -7 10 -4 6 3 10 8 10 11 0 2 -4 4 -10 4 -5 0 -10
-5 -10 -11z"></path>
<path d="M5400 810 c0 -5 5 -10 10 -10 6 0 10 5 10 10 0 6 -4 10 -10 10 -5 0
-10 -4 -10 -10z"></path>
<path d="M515 790 c-3 -5 -1 -10 4 -10 6 0 11 5 11 10 0 6 -2 10 -4 10 -3 0
-8 -4 -11 -10z"></path>
<path d="M2980 789 c0 -5 5 -7 10 -4 6 3 10 8 10 11 0 2 -4 4 -10 4 -5 0 -10
-5 -10 -11z"></path>
<path d="M4718 793 c7 -3 16 -2 19 1 4 3 -2 6 -13 5 -11 0 -14 -3 -6 -6z"></path>
<path d="M5450 791 c0 -6 5 -13 10 -16 6 -3 10 1 10 9 0 9 -4 16 -10 16 -5 0
-10 -4 -10 -9z"></path>
<path d="M1140 761 c-13 -24 -13 -31 0 -31 15 0 50 33 44 42 -9 15 -33 8 -44
-11z"></path>
<path d="M4780 765 c0 -8 5 -15 10 -15 6 0 10 7 10 15 0 8 -4 15 -10 15 -5 0
-10 -7 -10 -15z"></path>
<path d="M5365 760 c-3 -5 -1 -10 4 -10 6 0 11 5 11 10 0 6 -2 10 -4 10 -3 0
-8 -4 -11 -10z"></path>
<path d="M2000 739 c0 -5 5 -7 10 -4 6 3 10 8 10 11 0 2 -4 4 -10 4 -5 0 -10
-5 -10 -11z"></path>
<path d="M5250 726 c0 -14 5 -26 10 -26 6 0 10 9 10 19 0 11 -4 23 -10 26 -6
4 -10 -5 -10 -19z"></path>
<path d="M5960 735 c-10 -12 -10 -18 0 -30 16 -19 30 -10 30 21 0 27 -12 31
-30 9z"></path>
<path d="M36 731 c-4 -6 -13 -8 -21 -4 -10 3 -15 -1 -15 -15 0 -28 53 -37 91
-15 35 21 36 28 7 29 -13 0 -30 4 -39 8 -10 4 -20 3 -23 -3z"></path>
<path d="M1000 726 c0 -9 5 -16 10 -16 6 0 10 4 10 9 0 6 -4 13 -10 16 -5 3
-10 -1 -10 -9z"></path>
<path d="M4713 732 c-15 -10 -27 -72 -13 -72 6 0 13 8 16 18 3 9 10 25 15 34
10 19 -1 31 -18 20z"></path>
<path d="M5450 724 c0 -8 5 -12 10 -9 6 3 10 10 10 16 0 5 -4 9 -10 9 -5 0
-10 -7 -10 -16z"></path>
<path d="M2030 716 c0 -23 29 -27 40 -6 9 17 7 20 -15 20 -15 0 -25 -6 -25
-14z"></path>
<path d="M5193 700 c0 -17 5 -29 11 -27 6 2 11 14 11 27 0 13 -5 25 -11 27 -6
2 -11 -10 -11 -27z"></path>
<path d="M173 708 c-26 -13 -30 -25 -8 -25 8 0 15 4 15 9 0 4 6 8 14 8 8 0 18
5 21 10 8 13 -14 12 -42 -2z"></path>
<path d="M285 710 c-3 -5 1 -10 9 -10 9 0 16 5 16 10 0 6 -4 10 -9 10 -6 0
-13 -4 -16 -10z"></path>
<path d="M1942 703 c2 -11 14 -19 31 -21 26 -3 28 -2 17 17 -13 26 -53 29 -48
4z"></path>
<path d="M5370 710 c0 -5 5 -10 11 -10 5 0 7 5 4 10 -3 6 -8 10 -11 10 -2 0
-4 -4 -4 -10z"></path>
<path d="M1425 701 c-3 -6 4 -15 15 -21 11 -6 19 -7 18 -3 -3 8 5 13 23 13 5
0 8 -4 5 -9 -4 -5 4 -6 16 -3 22 5 22 6 -7 18 -36 16 -62 17 -70 5z"></path>
<path d="M1880 700 c0 -5 5 -10 10 -10 6 0 10 5 10 10 0 6 -4 10 -10 10 -5 0
-10 -4 -10 -10z"></path>
<path d="M6071 696 c-12 -14 -5 -26 16 -26 15 0 18 26 4 34 -5 3 -14 0 -20 -8z"></path>
<path d="M1596 658 c-5 -29 -3 -44 6 -49 10 -7 10 -11 0 -21 -17 -17 -15 -36
6 -57 20 -22 93 -44 104 -33 13 13 -6 87 -22 88 -8 1 -19 2 -23 3 -5 0 0 17
12 36 19 32 19 35 3 35 -10 0 -23 5 -29 11 -8 8 -13 5 -18 -10 -3 -12 -11 -21
-16 -21 -12 0 -12 27 1 35 6 4 8 11 5 16 -12 19 -23 8 -29 -33z"></path>
<path d="M5415 693 c11 -3 24 -10 28 -17 6 -7 7 -6 4 4 -2 8 -14 16 -28 17
-19 1 -20 1 -4 -4z"></path>
<path d="M220 676 c0 -8 -17 -28 -37 -45 -20 -17 -34 -34 -30 -37 8 -8 63 40
78 68 6 10 5 19 -1 23 -5 3 -10 -1 -10 -9z"></path>
<path d="M1545 676 c-24 -16 -123 -27 -127 -14 -6 17 -58 -37 -58 -60 0 -30
24 -28 49 6 l21 27 -4 -48 c-3 -26 -12 -54 -20 -63 -17 -17 -26 -42 -29 -89
-2 -28 0 -30 33 -30 44 0 51 25 16 58 -24 23 -25 25 -8 38 38 32 56 44 49 32
-4 -7 -3 -20 2 -30 5 -10 12 -26 15 -35 3 -10 15 -18 26 -18 11 0 20 -6 20
-12 0 -7 7 -2 16 10 9 13 14 33 11 45 -3 12 0 57 7 99 14 87 10 104 -19 84z
m-120 -236 c3 -5 -1 -10 -9 -10 -9 0 -16 5 -16 10 0 6 4 10 9 10 6 0 13 -4 16
-10z"></path>
<path d="M3835 680 c4 -6 11 -8 16 -5 14 9 11 15 -7 15 -8 0 -12 -5 -9 -10z"></path>
<path d="M6130 680 c0 -5 12 -10 26 -10 14 0 23 4 19 10 -3 6 -15 10 -26 10
-10 0 -19 -4 -19 -10z"></path>
<path d="M720 664 c0 -8 5 -12 10 -9 6 4 8 11 5 16 -9 14 -15 11 -15 -7z"></path>
<path d="M5281 666 c-9 -10 -9 -16 -1 -21 17 -10 37 12 24 25 -8 8 -15 6 -23
-4z"></path>
<path d="M0 659 c0 -5 5 -7 10 -4 5 3 10 8 10 11 0 2 -4 4 -10 4 -5 0 -10 -5
-10 -11z"></path>
<path d="M1781 661 c-11 -7 -10 -11 5 -19 17 -10 16 -12 -13 -18 -29 -6 -31
-8 -20 -28 7 -11 13 -23 14 -25 1 -2 15 6 31 18 17 12 37 21 45 21 25 0 30 20
11 41 -18 20 -50 25 -73 10z"></path>
<path d="M90 650 c0 -5 -9 -10 -21 -10 -11 0 -18 -4 -15 -9 12 -19 -5 -38 -30
-33 -20 4 -24 1 -24 -22 0 -15 5 -25 13 -24 6 2 11 -4 9 -13 -4 -27 29 -32 55
-8 26 25 30 57 8 65 -29 12 -17 36 18 34 49 -3 54 -1 33 15 -23 17 -46 20 -46
5z"></path>
<path d="M1188 653 c-19 -5 -25 -23 -9 -23 17 0 41 12 41 21 0 9 -4 10 -32 2z"></path>
<path d="M1326 651 c-4 -7 -5 -15 -2 -18 9 -9 19 4 14 18 -4 11 -6 11 -12 0z"></path>
<path d="M5397 643 c-4 -3 -7 -11 -7 -17 0 -6 5 -5 12 2 6 6 9 14 7 17 -3 3
-9 2 -12 -2z"></path>
<path d="M5992 638 c3 -7 17 -14 32 -16 20 -3 27 0 24 10 -3 7 -17 14 -32 16
-20 3 -27 0 -24 -10z"></path>
<path d="M1900 625 c-17 -21 -1 -38 31 -33 16 2 24 10 24 23 0 25 -37 32 -55
10z"></path>
<path d="M2820 620 c0 -5 5 -10 10 -10 6 0 10 5 10 10 0 6 -4 10 -10 10 -5 0
-10 -4 -10 -10z"></path>
<path d="M5416 602 c-3 -5 0 -16 7 -25 11 -14 14 -14 31 -2 11 8 18 17 15 19
-11 10 -48 16 -53 8z"></path>
<path d="M2038 589 c-10 -5 -18 -14 -18 -19 0 -13 117 -13 125 0 4 6 -8 10
-29 10 -19 0 -38 5 -41 10 -8 12 -15 12 -37 -1z"></path>
<path d="M1200 579 c0 -5 5 -7 10 -4 6 3 10 8 10 11 0 2 -4 4 -10 4 -5 0 -10
-5 -10 -11z"></path>
<path d="M6030 581 c0 -5 9 -11 21 -14 16 -4 18 -3 8 9 -13 16 -29 19 -29 5z"></path>
<path d="M4232 568 c-7 -7 -12 -18 -12 -25 0 -7 -7 -13 -15 -13 -12 0 -43 -38
-33 -41 31 -7 59 -5 68 6 8 9 27 13 61 10 27 -2 49 0 49 5 0 5 3 15 6 23 4 12
0 14 -15 10 -17 -4 -20 -2 -15 11 5 13 0 16 -24 16 -17 0 -36 2 -44 5 -7 3
-19 0 -26 -7z"></path>
<path d="M1960 560 c0 -5 5 -10 10 -10 6 0 10 5 10 10 0 6 -4 10 -10 10 -5 0
-10 -4 -10 -10z"></path>
<path d="M6080 564 c0 -8 32 -33 42 -34 3 0 4 9 1 20 -5 18 -43 30 -43 14z"></path>
<path d="M1808 550 c-9 -6 -24 -24 -32 -42 -16 -31 -16 -32 16 -60 25 -21 40
-27 62 -23 23 4 36 -1 59 -22 21 -20 31 -24 34 -15 4 10 8 8 18 -5 11 -14 16
-15 26 -6 7 7 24 9 40 6 43 -8 99 5 99 24 0 12 -6 14 -27 9 -16 -4 -35 -7 -43
-6 -8 0 -25 0 -38 0 -31 0 -62 17 -59 33 1 7 -5 11 -14 9 -9 -1 -24 7 -34 18
-18 20 -18 21 3 27 27 7 24 28 -4 28 -11 1 -31 8 -44 18 -28 19 -38 20 -62 7z
m27 -20 c-3 -5 -10 -10 -16 -10 -5 0 -9 5 -9 10 0 6 7 10 16 10 8 0 12 -4 9
-10z"></path>
<path d="M2477 545 c3 -9 20 -13 49 -12 72 3 48 24 -28 25 -18 0 -25 -5 -21
-13z"></path>
<path d="M4565 551 c-3 -5 -1 -12 5 -16 5 -3 10 1 10 9 0 18 -6 21 -15 7z"></path>
<path d="M2590 530 c0 -5 7 -10 15 -10 8 0 15 5 15 10 0 6 -7 10 -15 10 -8 0
-15 -4 -15 -10z"></path>
<path d="M4420 519 c-7 -11 -9 -23 -6 -26 8 -9 36 17 36 33 0 21 -18 17 -30
-7z"></path>
<path d="M5490 508 c-7 -15 -10 -35 -6 -44 6 -16 8 -15 23 5 11 17 13 28 5 44
-9 22 -10 22 -22 -5z"></path>
<path d="M1155 510 c-3 -5 1 -10 9 -10 8 0 18 5 21 10 3 6 -1 10 -9 10 -8 0
-18 -4 -21 -10z"></path>
<path d="M3980 509 c0 -5 5 -7 10 -4 6 3 10 8 10 11 0 2 -4 4 -10 4 -5 0 -10
-5 -10 -11z"></path>
<path d="M4380 510 c0 -5 5 -10 11 -10 5 0 7 5 4 10 -3 6 -8 10 -11 10 -2 0
-4 -4 -4 -10z"></path>
<path d="M4500 512 c0 -5 9 -12 21 -15 13 -3 19 -1 16 6 -5 15 -37 22 -37 9z"></path>
<path d="M1222 497 c-6 -6 -13 -26 -17 -42 l-6 -30 25 28 c30 32 40 34 31 7
-9 -27 6 -25 28 5 17 23 17 25 -2 35 -26 13 -46 13 -59 -3z"></path>
<path d="M1327 503 c-13 -12 -7 -32 7 -27 19 7 29 34 12 34 -7 0 -16 -3 -19
-7z"></path>
<path d="M2105 500 c-3 -5 -1 -10 4 -10 6 0 11 5 11 10 0 6 -2 10 -4 10 -3 0
-8 -4 -11 -10z"></path>
<path d="M1580 477 c0 -23 2 -24 36 -17 60 14 60 24 2 35 -36 7 -38 6 -38 -18z"></path>
<path d="M4067 493 c-3 -5 1 -14 9 -20 14 -14 30 0 19 17 -7 12 -22 13 -28 3z"></path>
<path d="M4018 483 c-22 -5 -24 -23 -3 -23 8 0 15 -4 15 -10 0 -5 -6 -10 -14
-10 -7 0 -19 -7 -26 -15 -17 -21 10 -20 50 0 29 15 40 35 20 35 -5 0 -10 7
-10 15 0 15 -2 16 -32 8z"></path>
<path d="M4496 461 c-17 -19 -22 -51 -7 -51 13 0 41 59 32 65 -5 2 -16 -4 -25
-14z"></path>
<path d="M3960 460 c0 -5 7 -10 16 -10 8 0 12 5 9 10 -3 6 -10 10 -16 10 -5 0
-9 -4 -9 -10z"></path>
<path d="M4385 459 c-4 -6 -5 -13 -2 -16 8 -7 47 7 47 18 0 13 -37 11 -45 -2z"></path>
<path d="M4107 433 c-24 -18 -36 -34 -33 -46 5 -19 -28 -47 -56 -47 -10 0 -18
-4 -18 -9 0 -4 -27 -27 -60 -50 -58 -41 -80 -81 -45 -81 8 0 15 -4 15 -10 0
-5 -4 -10 -9 -10 -24 0 -111 -76 -117 -102 -4 -19 -12 -28 -25 -28 -10 0 -19
5 -19 11 0 26 55 122 81 141 21 16 27 27 23 44 -4 17 0 25 22 36 28 13 44 38
25 38 -5 0 -26 -11 -46 -24 -20 -14 -50 -28 -68 -32 -20 -4 -47 -23 -71 -51
-21 -24 -41 -42 -44 -39 -3 3 1 12 8 21 10 12 9 16 -2 20 -10 4 -37 -16 -75
-54 -47 -47 -62 -58 -72 -48 -9 9 -14 9 -21 -3 -12 -19 -4 -30 22 -30 21 0 20
-2 -6 -29 -16 -16 -25 -34 -22 -40 5 -7 81 -11 227 -10 l219 0 0 22 c0 13 7
33 16 45 8 12 14 28 11 35 -4 12 -52 -32 -73 -68 -10 -16 -14 -18 -25 -8 -11
11 -10 15 6 26 10 8 15 19 12 24 -4 6 7 16 24 23 25 11 29 17 27 44 -3 26 1
31 20 32 12 1 22 -2 22 -7 0 -11 39 -3 56 12 8 6 20 23 27 37 19 41 86 83 121
76 27 -6 28 -5 22 24 -6 24 -3 30 13 35 12 3 21 15 23 33 2 22 10 30 36 36 36
10 42 24 13 33 -12 3 -33 -4 -56 -20 -46 -31 -63 -32 -67 -3 -4 32 -20 32 -61
1z m44 -46 c-6 -8 -8 -17 -5 -20 4 -3 -9 -21 -27 -40 -19 -19 -54 -55 -78 -81
-24 -25 -48 -46 -53 -46 -22 0 -4 42 31 72 21 18 53 54 70 81 21 30 40 47 53
47 16 0 18 -3 9 -13z"></path>
<path d="M2 428 c6 -18 28 -21 28 -4 0 9 -7 16 -16 16 -9 0 -14 -5 -12 -12z"></path>
<path d="M5486 432 c-7 -12 5 -52 15 -52 5 0 9 14 9 30 0 28 -13 40 -24 22z"></path>
<path d="M5646 433 c-13 -14 -5 -41 14 -46 16 -4 19 0 18 19 -2 23 -20 38 -32
27z"></path>
<path d="M3652 405 c-11 -14 -24 -25 -30 -25 -5 0 -15 -7 -22 -15 -10 -12 -9
-15 7 -15 23 0 86 56 78 70 -9 14 -11 13 -33 -15z"></path>
<path d="M3930 415 c-16 -9 -42 -13 -72 -9 -30 3 -48 1 -48 -6 0 -5 -13 -10
-30 -10 -43 0 -37 -23 10 -38 54 -17 62 -15 55 8 -3 11 -3 20 2 20 5 0 16 -9
26 -20 17 -21 47 -27 47 -11 0 5 9 12 19 16 23 7 31 24 22 47 -5 15 -9 15 -31
3z"></path>
<path d="M4390 420 c0 -5 5 -10 10 -10 6 0 10 5 10 10 0 6 -4 10 -10 10 -5 0
-10 -4 -10 -10z"></path>
<path d="M1520 410 c-12 -7 -12 -12 -3 -21 15 -15 26 -7 21 15 -2 11 -7 13
-18 6z"></path>
<path d="M1140 392 c0 -10 7 -27 15 -38 13 -18 14 -17 15 19 0 26 -4 37 -15
37 -8 0 -15 -8 -15 -18z"></path>
<path d="M1314 394 c3 -9 6 -20 6 -25 0 -5 5 -9 10 -9 6 0 10 11 10 25 0 16
-6 25 -16 25 -11 0 -14 -5 -10 -16z"></path>
<path d="M9 399 c0 -2 -3 -19 -5 -36 -4 -27 -2 -32 10 -27 9 3 16 10 16 15 0
5 6 9 14 9 8 0 16 7 20 15 3 9 0 15 -8 15 -8 0 -21 3 -30 6 -9 3 -16 5 -17 3z"></path>
<path d="M1578 369 c-5 -34 15 -51 35 -30 9 10 8 15 -4 24 -9 7 -14 18 -12 25
3 6 0 12 -5 12 -5 0 -12 -14 -14 -31z"></path>
<path d="M2249 378 c8 -23 41 -38 41 -19 0 12 -28 41 -40 41 -5 0 -6 -10 -1
-22z"></path>
<path d="M5683 374 c-6 -13 -7 -24 -3 -24 9 0 25 39 18 45 -2 2 -8 -7 -15 -21z"></path>
<path d="M953 370 c-17 -38 -73 -76 -73 -50 0 6 -9 10 -20 10 -11 0 -23 7 -26
15 -8 20 -38 19 -58 -1 -20 -20 -21 -38 -1 -30 9 3 15 0 15 -9 0 -8 -3 -15 -7
-15 -5 0 -9 -11 -9 -25 -1 -16 3 -25 13 -25 10 0 13 6 9 16 -5 12 -2 15 10 10
8 -3 17 -6 20 -6 2 0 1 -6 -2 -14 -4 -10 6 -15 41 -18 54 -4 75 5 75 32 0 12
7 20 16 20 16 0 16 -11 -1 -52 -5 -14 -2 -18 13 -18 11 0 25 -7 32 -15 7 -8
19 -15 27 -15 10 0 12 -6 8 -20 -7 -22 5 -26 22 -9 17 17 -12 56 -48 64 -16 4
-29 10 -29 15 0 4 9 6 20 3 14 -4 20 0 20 11 0 9 6 19 14 22 21 8 9 31 -29 54
-22 14 -35 30 -37 48 l-4 27 -11 -25z m-38 -120 c-3 -5 -11 -10 -16 -10 -6 0
-7 5 -4 10 3 6 11 10 16 10 6 0 7 -4 4 -10z"></path>
<path d="M1250 380 c0 -5 5 -10 11 -10 5 0 7 5 4 10 -3 6 -8 10 -11 10 -2 0
-4 -4 -4 -10z"></path>
<path d="M1718 360 c-20 -35 -34 -38 -43 -10 -8 25 -25 17 -25 -12 0 -28 30
-50 48 -36 9 8 16 8 25 -1 8 -8 7 -18 -6 -41 -16 -26 -16 -30 -3 -30 9 0 16 5
16 10 0 17 52 33 61 19 5 -8 15 -4 32 14 27 30 67 35 89 13 12 -11 16 -9 30
13 15 27 14 28 -15 41 -23 10 -34 10 -48 1 -25 -15 -46 -14 -53 4 -3 8 -12 12
-21 9 -8 -3 -15 -1 -15 5 0 6 -9 11 -20 11 -11 0 -20 5 -20 10 0 19 -15 10
-32 -20z"></path>
<path d="M4418 382 c-10 -2 -18 -8 -18 -13 0 -13 27 -11 35 2 9 13 4 16 -17
11z"></path>
<path d="M4547 370 c-3 -11 -2 -20 3 -20 4 0 10 9 13 20 3 11 2 20 -3 20 -4 0
-10 -9 -13 -20z"></path>
<path d="M5450 380 c0 -5 5 -10 10 -10 6 0 10 5 10 10 0 6 -4 10 -10 10 -5 0
-10 -4 -10 -10z"></path>
<path d="M4340 353 c0 -23 5 -33 15 -33 19 0 19 21 0 46 -14 18 -14 17 -15
-13z"></path>
<path d="M5250 369 c0 -5 5 -7 10 -4 6 3 10 8 10 11 0 2 -4 4 -10 4 -5 0 -10
-5 -10 -11z"></path>
<path d="M6665 370 c3 -5 10 -10 16 -10 5 0 9 5 9 10 0 6 -7 10 -16 10 -8 0
-12 -4 -9 -10z"></path>
<path d="M310 350 c0 -5 5 -10 10 -10 6 0 10 5 10 10 0 6 -4 10 -10 10 -5 0
-10 -4 -10 -10z"></path>
<path d="M410 349 c0 -5 5 -7 10 -4 6 3 10 8 10 11 0 2 -4 4 -10 4 -5 0 -10
-5 -10 -11z"></path>
<path d="M1100 345 c0 -8 5 -15 10 -15 6 0 10 7 10 15 0 8 -4 15 -10 15 -5 0
-10 -7 -10 -15z"></path>
<path d="M1391 340 c-13 -11 -33 -20 -45 -20 -16 0 -27 -11 -39 -35 -21 -43
-21 -45 -2 -45 8 0 17 11 21 25 3 14 12 25 20 25 17 0 18 -22 3 -37 -7 -7 -7
-13 -1 -17 12 -7 44 33 37 45 -3 4 11 21 30 38 19 17 35 33 35 36 0 12 -37 3
-59 -15z"></path>
<path d="M4257 354 c-4 -4 -4 -10 -2 -14 6 -10 45 0 45 11 0 10 -33 12 -43 3z"></path>
<path d="M1240 339 c-14 -4 -19 -7 -12 -8 6 -1 12 -7 12 -15 0 -19 54 -15 58
5 4 20 -23 28 -58 18z"></path>
<path d="M5458 332 c-8 -9 -14 -24 -13 -32 2 -28 -16 -50 -40 -50 -29 0 -32
-8 -7 -26 14 -10 15 -15 5 -25 -17 -17 -16 -29 1 -29 12 0 28 40 30 75 1 5 15
12 31 15 27 5 28 7 11 17 -19 10 -19 11 2 22 12 7 22 18 22 25 0 22 -27 26
-42 8z"></path>
<path d="M5720 340 c-25 -8 -24 -8 8 -15 18 -4 35 -12 38 -16 9 -15 24 -10 24
7 0 8 -5 12 -11 9 -6 -4 -16 0 -22 8 -8 10 -20 12 -37 7z"></path>
<path d="M1486 331 c-4 -6 -13 -11 -19 -10 -7 1 -21 1 -32 0 -16 -1 -17 -3 -5
-11 12 -7 11 -10 -5 -17 -11 -4 -21 -15 -22 -23 -1 -8 -5 -24 -8 -36 -6 -19
-1 -21 62 -31 37 -6 71 -8 76 -6 11 6 9 73 -3 73 -5 0 -10 -9 -10 -20 0 -26
-12 -26 -28 1 -11 17 -10 22 8 37 18 15 19 19 7 36 -10 13 -16 16 -21 7z"></path>
<path d="M1970 324 c0 -8 5 -12 10 -9 6 3 10 10 10 16 0 5 -4 9 -10 9 -5 0
-10 -7 -10 -16z"></path>
<path d="M2188 332 c-22 -4 -23 -30 -2 -60 21 -30 34 -28 33 6 -1 40 -12 58
-31 54z"></path>
<path d="M4440 330 c0 -5 5 -10 11 -10 5 0 7 5 4 10 -3 6 -8 10 -11 10 -2 0
-4 -4 -4 -10z"></path>
<path d="M4853 333 c-35 -7 -27 -23 10 -23 17 0 42 -3 55 -6 12 -4 22 -2 22 2
0 9 -49 35 -59 33 -4 -1 -16 -4 -28 -6z"></path>
<path d="M5395 330 c-3 -5 -1 -10 4 -10 6 0 11 5 11 10 0 6 -2 10 -4 10 -3 0
-8 -4 -11 -10z"></path>
<path d="M478 312 c-4 -15 0 -17 29 -14 38 5 43 17 11 26 -33 8 -35 8 -40 -12z"></path>
<path d="M2105 316 c-10 -7 -15 -18 -11 -24 4 -7 -3 -11 -21 -11 -44 1 -68 -7
-71 -24 -3 -13 1 -14 27 -4 23 8 33 8 45 -3 15 -12 15 -14 0 -31 -15 -17 -15
-19 -2 -19 9 0 18 8 21 18 3 9 15 36 26 59 21 45 16 61 -14 39z"></path>
<path d="M5290 320 c0 -5 5 -10 10 -10 6 0 10 5 10 10 0 6 -4 10 -10 10 -5 0
-10 -4 -10 -10z"></path>
<path d="M426 313 c-3 -3 -3 -10 0 -14 7 -12 34 -11 34 0 0 11 -26 22 -34 14z"></path>
<path d="M1060 310 c0 -5 9 -10 20 -10 11 0 20 5 20 10 0 6 -9 10 -20 10 -11
0 -20 -4 -20 -10z"></path>
<path d="M4480 301 c0 -20 17 -37 27 -28 7 8 -7 47 -18 47 -5 0 -9 -9 -9 -19z"></path>
<path d="M337 303 c-14 -13 -6 -24 15 -21 27 4 36 28 11 28 -11 0 -23 -3 -26
-7z"></path>
<path d="M1184 297 c-10 -6 -30 -11 -43 -11 -25 -1 -51 -30 -37 -43 4 -4 11
-1 16 8 7 12 21 15 65 11 55 -4 57 -4 53 18 -3 26 -25 33 -54 17z"></path>
<path d="M3780 300 c0 -5 5 -10 11 -10 5 0 7 5 4 10 -3 6 -8 10 -11 10 -2 0
-4 -4 -4 -10z"></path>
<path d="M1570 290 c0 -5 7 -10 15 -10 8 0 15 5 15 10 0 6 -7 10 -15 10 -8 0
-15 -4 -15 -10z"></path>
<path d="M1636 286 c7 -18 -28 -38 -50 -30 -9 3 -16 2 -16 -4 0 -25 65 -29 78
-6 10 19 4 54 -9 54 -5 0 -6 -6 -3 -14z"></path>
<path d="M4570 281 c0 -6 11 -22 25 -37 21 -22 26 -24 31 -10 7 18 74 23 74 6
0 -5 -6 -10 -14 -10 -23 0 -29 -20 -12 -39 34 -38 12 -54 -62 -44 -27 4 -54
14 -64 25 -23 27 -52 19 -56 -15 -3 -22 0 -26 14 -20 10 4 13 8 7 10 -13 5 -6
33 8 33 5 0 9 -9 9 -20 0 -13 7 -20 20 -20 35 0 85 -26 103 -54 17 -25 17 -27
-3 -43 -11 -10 -20 -20 -20 -24 0 -12 90 -4 95 9 6 17 26 15 55 -8 24 -19 43
-20 383 -20 196 0 357 4 357 8 0 5 -6 17 -14 27 -12 17 -16 17 -30 6 -14 -12
-23 -12 -56 -1 -21 7 -54 10 -73 7 -31 -5 -34 -3 -43 26 -7 24 -16 33 -41 38
-18 3 -30 2 -27 -2 3 -5 -2 -9 -10 -9 -9 0 -13 6 -10 14 7 17 -55 49 -84 44
-11 -2 -28 4 -38 13 -30 25 -95 39 -183 39 -63 0 -83 3 -87 15 -4 8 -14 15
-24 15 -10 0 -20 6 -23 13 -3 8 -9 6 -19 -7 -10 -13 -21 -17 -33 -13 -14 6
-15 10 -5 22 10 12 9 15 -7 15 -10 0 -24 5 -31 12 -8 8 -15 8 -25 0 -9 -8 -24
-9 -48 -2 -41 12 -39 12 -39 1z"></path>
<path d="M105 270 c-4 -6 -11 -8 -16 -5 -5 4 -9 -1 -9 -9 0 -9 4 -16 9 -16 21
0 41 13 41 26 0 16 -16 19 -25 4z"></path>
<path d="M502 273 c-7 -3 -20 -19 -28 -35 -15 -29 -15 -30 1 -24 9 3 32 6 51
6 19 0 34 5 34 10 0 6 -7 10 -15 10 -9 0 -19 8 -23 18 -4 11 -13 17 -20 15z"></path>
<path d="M2139 253 c-14 -37 -21 -93 -12 -93 5 0 19 9 33 20 14 11 33 20 43
20 25 0 21 22 -12 53 -36 34 -39 34 -52 0z"></path>
<path d="M4259 275 c-1 -3 -2 -8 -3 -12 -1 -5 -10 -25 -19 -46 -19 -43 -41
-55 -69 -38 -21 13 -48 0 -48 -24 0 -6 -9 -20 -20 -30 -26 -24 -26 -27 11 -49
27 -16 29 -20 15 -28 -10 -5 -23 -5 -36 2 -16 9 -25 6 -47 -14 -23 -22 -29
-23 -36 -11 -10 18 -27 11 -27 -11 0 -16 79 -20 96 -5 5 6 24 6 50 -1 35 -10
44 -9 60 6 10 10 40 33 67 52 53 39 59 54 21 54 -23 0 -25 3 -20 26 4 15 10
40 13 58 3 17 10 36 15 43 5 7 7 17 3 23 -6 10 -24 14 -26 5z"></path>
<path d="M4392 260 c-16 -26 -15 -32 5 -28 9 2 18 13 19 26 5 27 -7 29 -24 2z"></path>
<path d="M4875 270 c3 -5 8 -10 11 -10 2 0 4 5 4 10 0 6 -5 10 -11 10 -5 0 -7
-4 -4 -10z"></path>
<path d="M415 249 c6 -19 4 -20 -24 -14 -32 7 -44 -8 -16 -19 8 -3 15 -12 15
-20 0 -13 4 -14 25 -4 14 6 25 17 25 23 0 7 7 19 16 26 14 12 14 14 -3 20 -34
14 -45 10 -38 -12z"></path>
<path d="M1052 257 c-7 -8 -7 -18 -1 -27 8 -13 10 -13 19 0 21 32 5 55 -18 27z"></path>
<path d="M5702 258 c3 -7 13 -15 22 -16 12 -3 17 1 14 10 -3 7 -13 15 -22 16
-12 3 -17 -1 -14 -10z"></path>
<path d="M635 251 c-3 -5 -1 -12 5 -16 12 -7 30 2 30 16 0 12 -27 12 -35 0z"></path>
<path d="M701 247 c-8 -10 -7 -14 2 -14 6 0 17 -2 22 -3 6 -1 16 -2 24 -1 11
1 11 4 1 16 -15 19 -34 19 -49 2z"></path>
<path d="M305 240 c3 -5 10 -10 16 -10 5 0 9 5 9 10 0 6 -7 10 -16 10 -8 0
-12 -4 -9 -10z"></path>
<path d="M4330 236 c0 -9 5 -16 10 -16 6 0 10 4 10 9 0 6 -4 13 -10 16 -5 3
-10 -1 -10 -9z"></path>
<path d="M4465 240 c-3 -5 -13 -6 -22 -3 -11 4 -14 2 -11 -8 10 -30 67 -19 68
14 0 10 -28 9 -35 -3z"></path>
<path d="M1815 233 c-34 -5 -68 -31 -59 -45 3 -5 11 -2 17 6 7 8 30 16 51 18
22 2 41 9 44 16 4 12 1 12 -53 5z"></path>
<path d="M246 221 c-3 -5 0 -11 7 -13 17 -7 38 2 31 13 -7 12 -31 12 -38 0z"></path>
<path d="M1150 221 c0 -11 48 -24 61 -16 5 4 7 11 4 16 -8 12 -65 12 -65 0z"></path>
<path d="M1560 215 c0 -8 5 -15 10 -15 6 0 10 7 10 15 0 8 -4 15 -10 15 -5 0
-10 -7 -10 -15z"></path>
<path d="M3525 220 c3 -5 10 -10 16 -10 5 0 9 5 9 10 0 6 -7 10 -16 10 -8 0
-12 -4 -9 -10z"></path>
<path d="M4544 219 c-3 -6 -1 -16 5 -22 8 -8 11 -5 11 11 0 24 -5 28 -16 11z"></path>
<path d="M5169 211 c13 -12 34 -21 47 -21 12 0 26 -4 29 -10 3 -5 17 -10 30
-10 13 0 25 -5 27 -12 3 -7 10 -8 17 -4 16 11 -20 46 -47 46 -10 0 -22 3 -26
8 -4 4 -17 7 -29 8 -12 0 -33 4 -47 8 l-25 7 24 -20z"></path>
<path d="M3580 209 c0 -5 5 -7 10 -4 6 3 10 8 10 11 0 2 -4 4 -10 4 -5 0 -10
-5 -10 -11z"></path>
<path d="M154 185 c7 -28 -20 -48 -34 -25 -11 18 -41 5 -34 -15 4 -8 -1 -26
-9 -39 -10 -15 -12 -27 -6 -33 13 -13 0 -43 -18 -43 -10 0 -13 6 -8 18 7 19 8
22 6 41 -1 11 -4 11 -16 1 -12 -10 -15 -10 -15 0 0 7 8 19 17 25 16 12 15 13
-8 12 -24 -2 -25 -5 -27 -64 -2 -61 -1 -63 23 -63 14 0 35 9 47 20 12 11 18
20 14 20 -4 0 6 11 22 25 17 14 39 25 50 25 12 0 24 5 28 11 9 16 -17 30 -41
22 -17 -5 -18 -4 -6 11 7 9 21 16 31 16 25 0 30 9 18 36 -15 33 -42 32 -34 -1z"></path>
<path d="M740 188 c-15 -14 -19 -23 -11 -26 14 -5 61 24 61 38 0 17 -25 11
-50 -12z"></path>
<path d="M1090 201 c0 -5 12 -11 28 -13 l27 -3 -33 -22 c-19 -11 -30 -23 -25
-26 9 -5 29 2 59 22 20 14 21 14 3 32 -20 20 -59 26 -59 10z"></path>
<path d="M1875 202 c-13 -9 -17 -32 -6 -32 9 0 24 30 18 36 -1 2 -7 0 -12 -4z"></path>
<path d="M1980 201 c0 -5 7 -12 16 -15 9 -3 14 -12 11 -20 -4 -10 3 -13 26
-11 57 4 42 33 -25 49 -16 3 -28 2 -28 -3z"></path>
<path d="M2250 196 c0 -9 5 -16 10 -16 6 0 10 4 10 9 0 6 -4 13 -10 16 -5 3
-10 -1 -10 -9z"></path>
<path d="M220 180 c0 -11 7 -20 15 -20 8 0 15 9 15 20 0 11 -7 20 -15 20 -8 0
-15 -9 -15 -20z"></path>
<path d="M470 191 c0 -5 7 -12 16 -15 9 -3 14 -12 11 -20 -4 -11 7 -13 54 -11
33 2 62 5 65 8 3 3 -4 15 -15 26 -17 17 -26 19 -40 12 -12 -7 -30 -7 -52 -1
-41 12 -39 12 -39 1z"></path>
<path d="M630 187 c0 -10 8 -13 26 -9 18 3 25 1 20 -6 -3 -6 -2 -13 4 -17 5
-3 10 3 10 14 0 12 -6 21 -14 21 -8 0 -21 3 -30 6 -10 4 -16 1 -16 -9z"></path>
<path d="M800 187 c0 -22 9 -25 35 -13 34 15 31 26 -5 26 -18 0 -30 -5 -30
-13z"></path>
<path d="M890 190 c0 -5 5 -10 10 -10 6 0 10 5 10 10 0 6 -4 10 -10 10 -5 0
-10 -4 -10 -10z"></path>
<path d="M4395 190 c-3 -5 1 -10 9 -10 9 0 16 5 16 10 0 6 -4 10 -9 10 -6 0
-13 -4 -16 -10z"></path>
<path d="M980 176 c0 -8 -3 -21 -6 -30 -4 -11 -1 -16 10 -16 11 0 16 9 16 30
0 17 -4 30 -10 30 -5 0 -10 -6 -10 -14z"></path>
<path d="M1540 165 c0 -14 5 -25 10 -25 6 0 10 11 10 25 0 14 -4 25 -10 25 -5
0 -10 -11 -10 -25z"></path>
<path d="M1910 175 c0 -19 11 -19 36 0 18 14 18 14 -8 15 -18 0 -28 -5 -28
-15z"></path>
<path d="M5510 180 c0 -5 5 -10 11 -10 5 0 7 5 4 10 -3 6 -8 10 -11 10 -2 0
-4 -4 -4 -10z"></path>
<path d="M275 169 c-11 -17 1 -21 15 -4 8 9 8 15 2 15 -6 0 -14 -5 -17 -11z"></path>
<path d="M5800 170 c0 -5 7 -10 15 -10 8 0 15 5 15 10 0 6 -7 10 -15 10 -8 0
-15 -4 -15 -10z"></path>
<path d="M1251 149 c-20 -17 -22 -39 -2 -39 9 0 51 35 51 43 0 14 -28 12 -49
-4z"></path>
<path d="M4355 150 c-3 -5 -1 -10 4 -10 6 0 11 5 11 10 0 6 -2 10 -4 10 -3 0
-8 -4 -11 -10z"></path>
<path d="M5360 150 c-13 -8 -12 -10 3 -10 9 0 17 5 17 10 0 12 -1 12 -20 0z"></path>
<path d="M1351 137 c-6 -8 -8 -17 -4 -21 10 -10 -17 -26 -44 -26 -13 0 -27
-10 -34 -22 -8 -14 -14 -18 -17 -10 -5 17 -41 15 -48 -3 -4 -8 -12 -15 -20
-15 -8 0 -14 -5 -14 -11 0 -6 8 -8 19 -4 12 4 21 0 26 -12 6 -16 8 -15 20 6
l13 24 6 -21 c12 -36 22 -31 93 52 15 17 33 26 53 26 23 0 30 5 30 19 0 28
-59 42 -79 18z"></path>
<path d="M2208 140 c-2 -6 -10 -12 -18 -14 -45 -7 -61 -19 -58 -39 3 -23 48
-38 48 -17 0 7 9 25 21 42 12 16 19 31 16 34 -3 3 -7 0 -9 -6z"></path>
<path d="M3406 134 c-5 -14 -4 -15 9 -4 17 14 19 20 6 20 -5 0 -12 -7 -15 -16z"></path>
<path d="M3968 143 c7 -3 16 -2 19 1 4 3 -2 6 -13 5 -11 0 -14 -3 -6 -6z"></path>
<path d="M1140 130 c0 -5 5 -10 11 -10 5 0 7 5 4 10 -3 6 -8 10 -11 10 -2 0
-4 -4 -4 -10z"></path>
<path d="M1818 110 c-4 -28 -3 -30 28 -30 26 0 32 4 28 15 -4 8 -12 15 -20 15
-8 0 -14 7 -14 15 0 27 -18 15 -22 -15z"></path>
<path d="M300 120 c0 -5 14 -10 30 -10 17 0 30 5 30 10 0 6 -13 10 -30 10 -16
0 -30 -4 -30 -10z"></path>
<path d="M640 120 c0 -5 5 -10 11 -10 5 0 7 5 4 10 -3 6 -8 10 -11 10 -2 0 -4
-4 -4 -10z"></path>
<path d="M2005 120 c-21 -4 -30 -11 -30 -25 0 -29 40 -32 55 -5 16 29 10 37
-25 30z"></path>
<path d="M2082 111 c4 -13 18 -16 19 -4 0 4 -5 9 -11 12 -7 2 -11 -2 -8 -8z"></path>
<path d="M4546 98 c9 -29 28 -42 32 -22 5 23 -6 44 -23 44 -12 0 -15 -6 -9
-22z"></path>
<path d="M5500 110 c0 -5 5 -10 11 -10 5 0 7 5 4 10 -3 6 -8 10 -11 10 -2 0
-4 -4 -4 -10z"></path>
<path d="M586 88 c-26 -25 -8 -47 26 -31 16 7 28 7 40 -1 21 -13 31 -5 22 18
-5 12 -14 16 -30 12 -14 -4 -26 -1 -31 8 -6 11 -12 10 -27 -6z"></path>
<path d="M1582 90 c-26 -16 -32 -26 -32 -55 l0 -35 85 0 c76 0 84 2 78 18 -4
9 -14 22 -22 29 -14 11 -14 12 2 13 20 0 21 9 4 30 -18 23 -77 23 -115 0z"></path>
<path d="M5340 106 c0 -2 7 -6 15 -10 8 -3 15 -1 15 4 0 6 -7 10 -15 10 -8 0
-15 -2 -15 -4z"></path>
<path d="M5582 98 c6 -16 36 -34 44 -26 3 4 4 14 1 23 -7 17 -51 21 -45 3z"></path>
<path d="M5727 89 c-3 -11 -15 -23 -26 -26 -23 -6 -27 -18 -10 -28 6 -4 8 -13
5 -21 -3 -9 2 -14 14 -14 12 0 20 7 20 16 0 13 3 14 14 5 16 -14 71 3 61 19
-11 17 7 11 21 -7 11 -15 15 -16 26 -4 10 11 10 14 0 18 -7 3 -19 11 -27 19
-9 10 -23 12 -40 8 -21 -5 -27 -2 -32 15 -7 27 -19 27 -26 0z"></path>
<path d="M405 90 c3 -5 8 -10 11 -10 2 0 4 5 4 10 0 6 -5 10 -11 10 -5 0 -7
-4 -4 -10z"></path>
<path d="M700 86 c0 -20 19 -31 32 -18 7 7 3 14 -11 21 -17 10 -21 9 -21 -3z"></path>
<path d="M1065 90 c-4 -7 -1 -16 6 -21 17 -10 26 8 11 23 -6 6 -12 6 -17 -2z"></path>
<path d="M1160 90 c0 -5 5 -10 10 -10 6 0 10 5 10 10 0 6 -4 10 -10 10 -5 0
-10 -4 -10 -10z"></path>
<path d="M1510 86 c0 -18 -36 -40 -55 -33 -14 6 -57 -37 -48 -47 4 -3 33 -6
65 -6 l58 0 0 44 c0 25 -4 48 -10 51 -5 3 -10 -1 -10 -9z"></path>
<path d="M2050 84 c0 -17 22 -14 28 4 2 7 -3 12 -12 12 -9 0 -16 -7 -16 -16z"></path>
<path d="M2210 85 c0 -8 -14 -28 -31 -46 -23 -23 -34 -28 -42 -20 -15 15 -27
14 -27 -4 0 -16 20 -19 57 -9 34 9 82 94 53 94 -5 0 -10 -7 -10 -15z"></path>
<path d="M4000 90 c0 -7 24 -20 36 -20 13 0 1 19 -16 23 -11 3 -20 2 -20 -3z"></path>
<path d="M5395 91 c-9 -16 13 -23 35 -11 11 6 20 13 20 15 0 9 -49 5 -55 -4z"></path>
<path d="M5537 93 c-13 -12 -7 -33 8 -33 8 0 15 9 15 20 0 20 -11 26 -23 13z"></path>
<path d="M5652 88 c-14 -14 -16 -35 -3 -42 4 -3 13 6 19 19 12 27 2 41 -16 23z"></path>
<path d="M786 65 c-16 -25 -11 -30 18 -19 17 6 23 44 7 44 -5 0 -16 -11 -25
-25z"></path>
<path d="M915 60 c-3 -6 -16 -8 -29 -4 -25 6 -73 -26 -63 -43 8 -12 134 -15
142 -3 3 4 -2 15 -10 23 -8 9 -15 20 -15 26 0 14 -17 14 -25 1z"></path>
<path d="M1007 63 c-14 -13 -6 -33 13 -33 13 0 20 7 20 20 0 19 -20 27 -33 13z"></path>
<path d="M1100 60 c0 -6 -11 -15 -25 -20 -14 -5 -25 -16 -25 -25 0 -19 -1 -19
50 8 48 25 56 40 23 45 -13 2 -23 -2 -23 -8z"></path>
<path d="M1755 60 c3 -5 10 -10 16 -10 5 0 9 5 9 10 0 6 -7 10 -16 10 -8 0
-12 -4 -9 -10z"></path>
<path d="M3320 59 c0 -5 5 -7 10 -4 6 3 10 8 10 11 0 2 -4 4 -10 4 -5 0 -10
-5 -10 -11z"></path>
<path d="M4590 56 c0 -9 7 -16 16 -16 17 0 14 22 -4 28 -7 2 -12 -3 -12 -12z"></path>
<path d="M1880 50 c0 -5 5 -10 10 -10 6 0 10 5 10 10 0 6 -4 10 -10 10 -5 0
-10 -4 -10 -10z"></path>
<path d="M211 34 c0 -11 3 -14 6 -6 3 7 2 16 -1 19 -3 4 -6 -2 -5 -13z"></path>
<path d="M422 38 c-21 -21 -14 -38 16 -37 15 0 21 3 15 6 -7 2 -13 12 -13 20
0 12 3 13 13 4 15 -12 30 -4 21 10 -8 13 -38 11 -52 -3z"></path>
<path d="M4256 33 c-6 -14 -5 -15 5 -6 7 7 10 15 7 18 -3 3 -9 -2 -12 -12z"></path>
<path d="M577 34 c-4 -4 -7 -13 -7 -21 0 -18 56 -17 64 2 3 9 0 15 -8 15 -8 0
-21 2 -28 5 -8 3 -17 2 -21 -1z"></path>
<path d="M5595 20 c10 -11 22 -20 27 -20 4 0 3 9 -4 20 -7 11 -19 20 -27 20
-11 0 -10 -5 4 -20z"></path>
<path d="M5927 33 c-4 -3 1 -12 11 -19 11 -9 47 -13 107 -12 85 1 87 1 35 8
-30 5 -71 13 -90 19 -40 13 -54 14 -63 4z"></path>
<path d="M316 14 c-4 -9 1 -14 14 -14 23 0 27 15 6 23 -8 3 -17 -1 -20 -9z"></path>
<path d="M365 19 c-11 -16 -1 -19 13 -3 7 8 8 14 3 14 -5 0 -13 -5 -16 -11z"></path>
<path d="M1340 14 c0 -10 7 -14 22 -12 32 5 35 28 4 28 -17 0 -26 -5 -26 -16z"></path>
<path d="M4370 15 c-11 -13 -8 -15 19 -15 21 0 31 5 31 15 0 8 -8 15 -19 15
-10 0 -24 -7 -31 -15z"></path>
<path d="M5880 15 c0 -9 5 -15 11 -13 6 2 11 8 11 13 0 5 -5 11 -11 13 -6 2
-11 -4 -11 -13z"></path>
<path d="M95 10 c3 -5 8 -10 11 -10 2 0 4 5 4 10 0 6 -5 10 -11 10 -5 0 -7 -4
-4 -10z"></path>
<path d="M515 10 c-3 -5 1 -10 9 -10 9 0 16 5 16 10 0 6 -4 10 -9 10 -6 0 -13
-4 -16 -10z"></path>
<path d="M2010 10 c-13 -8 -12 -10 3 -10 9 0 17 5 17 10 0 12 -1 12 -20 0z"></path>
<path d="M148 3 c7 -3 16 -2 19 1 4 3 -2 6 -13 5 -11 0 -14 -3 -6 -6z"></path>
<path d="M278 3 c7 -3 16 -2 19 1 4 3 -2 6 -13 5 -11 0 -14 -3 -6 -6z"></path>
</g>
</svg>