<svg xmlns="http://www.w3.org/2000/svg" viewBox="0 0 396 319.1"><defs><style>.cls-1{fill:#ff6901;}.cls-2{fill:#264176;}</style></defs><title>Jaxx_Primary_Icon)RGB_Screeen</title><g id="Layer_2" data-name="Layer 2"><g id="Layer_1-2" data-name="Layer 1"><path class="cls-1" d="M33.78,22.27C-6.12,56.17-11.43,116.55,21.9,157.13L125.77,283.56a93,93,0,0,0,132.59,12.08c39.89-33.9,45.21-94.28,11.88-134.85L166.36,34.35A93,93,0,0,0,33.78,22.27Z"/><path class="cls-2" d="M271.11,282.5h0a97,97,0,0,0-.88-121.72L198,72.87l31.63-38.5A93,93,0,0,1,362.22,22.28c39.89,33.9,45.21,94.28,11.88,134.85Z"/><path class="cls-2" d="M303.49,319.1h-3.18V299.86h-7.16v-3h17.51v3h-7.16Zm23.59-5h-.43L318.76,302V319.1h-3.18V296.82H319l8,12.23,7.89-12.23h3.33V319.1H335V302Z"/></g></g></svg>