<?xml version="1.0" standalone="no"?>
<!DOCTYPE svg PUBLIC "-//W3C//DTD SVG 20010904//EN"
 "http://www.w3.org/TR/2001/REC-SVG-20010904/DTD/svg10.dtd">
<svg version="1.0" xmlns="http://www.w3.org/2000/svg"
 width="2047.000000pt" height="1214.000000pt" viewBox="0 0 2047.000000 1214.000000"
 preserveAspectRatio="xMidYMid meet">

<g transform="translate(0.000000,1214.000000) scale(0.100000,-0.100000)"
fill="#000000" stroke="none">
<path d="M4922 10793 c-45 -22 -110 -97 -122 -142 -6 -24 -10 -731 -10 -2053
l0 -2018 1061 0 1061 0 -46 54 c-25 30 -46 57 -46 60 0 3 29 -9 65 -26 57 -28
65 -36 65 -60 0 -15 5 -28 10 -28 6 0 10 13 10 28 0 24 8 32 65 60 36 17 65
30 65 28 0 -3 -20 -28 -46 -58 l-45 -53 1038 -5 c779 -4 1047 -8 1072 -17 57
-21 108 -60 150 -115 76 -102 71 -21 71 -1238 l0 -1090 1878 0 1877 0 -2 -892
c-2 -491 -5 -898 -8 -905 -3 -10 -32 -12 -122 -8 -115 4 -522 12 -928 17 -118
2 -203 7 -208 13 -8 9 -3 -27 9 -67 5 -16 -71 -17 -1208 -17 -667 0 -1230 0
-1250 0 l-38 -1 -2 -173 c-2 -106 -7 -172 -13 -172 -7 0 -12 748 -15 2215 -5
2102 -6 2217 -23 2253 -27 58 -92 122 -150 148 l-52 24 -3275 0 -3275 0 -45
-23 c-57 -30 -116 -86 -143 -137 l-22 -40 -2 -2210 c-2 -1340 -6 -2218 -12
-2230 -5 -11 -12 -32 -15 -47 -6 -25 -4 -28 21 -28 16 0 639 0 1386 0 l1357 0
0 -39 c0 -42 13 -51 73 -51 25 0 27 3 27 39 0 37 2 39 38 45 49 8 1232 8 1301
-1 l53 -6 -5 -33 c-6 -37 4 -44 59 -44 34 0 34 0 34 45 l0 45 2020 0 2020 0 0
-30 c0 -17 5 -30 13 -30 9 0 9 -2 -1 -9 -11 -7 -11 -9 2 -14 11 -4 16 -1 16
11 0 12 3 13 8 5 10 -15 1421 -20 1447 -5 9 5 16 13 15 18 -1 5 4 10 12 12 10
3 10 1 -1 -6 -11 -8 -10 -11 5 -15 16 -4 17 -5 2 -6 -10 0 -18 -6 -18 -12 0
-7 7 -8 18 -4 15 7 38 11 66 14 5 1 3 7 -3 15 -9 11 -5 13 24 10 19 -1 33 2
29 7 -3 5 0 9 6 9 22 0 3 -25 -32 -43 -39 -19 -165 -37 -265 -37 -56 0 -63 -2
-63 -20 0 -19 7 -20 123 -20 104 0 173 9 247 32 8 3 12 3 8 1 -18 -10 -7 -23
11 -13 11 5 27 7 37 3 10 -3 15 -2 12 3 -4 5 125 10 321 12 179 2 335 4 346 6
16 3 25 -8 43 -47 12 -28 21 -51 20 -53 -2 -1 -131 -7 -288 -14 -425 -17 -716
-41 -749 -60 -14 -8 -14 -9 2 -10 10 0 28 -5 40 -12 12 -6 40 -13 62 -15 22
-1 108 -8 190 -15 109 -8 916 -13 2983 -15 l2832 -4 0 52 c0 46 -2 51 -20 46
-25 -6 -25 -1 0 51 20 40 20 61 20 1529 0 1482 0 1488 -21 1528 -33 65 -112
132 -170 144 -30 7 -189 11 -394 11 l-345 0 0 448 c0 247 3 452 7 456 10 9 10
337 1 342 -12 8 -10 172 2 179 13 8 13 82 0 90 -6 4 -10 77 -10 186 0 128 -4
189 -13 212 -22 52 -68 98 -122 123 -44 21 -65 24 -172 24 -70 0 -124 4 -128
10 -8 13 -208 13 -221 0 -5 -5 -129 -11 -297 -12 l-287 -3 0 1851 c0 2038 4
1898 -61 1977 -17 21 -48 46 -70 57 -38 20 -84 20 -5491 20 -5011 0 -5456 -2
-5486 -17z m10257 -964 c17 -6 31 -15 31 -21 0 -5 4 -7 9 -4 5 3 14 -1 21 -9
9 -10 9 -15 1 -15 -6 0 -11 4 -11 10 0 5 -3 9 -7 8 -5 -1 -19 4 -33 12 -22 13
-328 15 -2245 16 -1240 0 -2232 -3 -2246 -8 -15 -5 -37 -20 -50 -34 -27 -29
-44 -32 -27 -5 7 11 15 18 19 15 4 -2 11 2 16 10 4 8 19 19 33 25 37 14 4447
15 4489 0z m101 -1080 c0 -972 -2 -1029 -32 -1029 -5 0 -7 -4 -4 -9 3 -5 -1
-14 -9 -21 -8 -7 -15 -9 -15 -5 0 5 -9 0 -21 -11 -21 -19 -74 -19 -2218 -22
-1208 -2 -2220 0 -2248 3 -29 4 -53 9 -53 13 0 4 1009 6 2242 4 2521 -3 2288
-10 2328 73 20 41 20 59 20 998 0 827 -2 963 -15 995 l-15 37 20 -24 c20 -23
20 -39 20 -1002z m-4665 -4 c0 -553 -3 -1005 -7 -1005 -4 0 -8 452 -8 1005 0
553 4 1005 8 1005 4 0 7 -452 7 -1005z m1651 806 c17 -11 16 -11 -6 -5 -14 4
-54 11 -90 15 l-65 8 71 -3 c39 -2 79 -8 90 -15z m-181 -1 c-11 -5 -27 -9 -35
-9 -9 0 -8 4 5 9 11 5 27 9 35 9 9 0 8 -4 -5 -9z m-75 -25 c0 -2 -10 -9 -22
-15 -22 -11 -22 -10 -4 4 21 17 26 19 26 11z m378 -49 c19 -17 38 -40 44 -51
6 -11 -3 -5 -18 13 -16 19 -43 46 -59 60 -17 15 -24 23 -15 18 8 -6 30 -24 48
-40z m-446 -8 c-7 -7 -12 -8 -12 -2 0 14 12 26 19 19 2 -3 -1 -11 -7 -17z
m250 16 c4 -3 2 -19 -2 -35 -7 -22 -5 -29 6 -29 8 0 14 10 14 25 0 20 5 25 23
25 32 0 37 -7 27 -41 -8 -26 -5 -31 20 -44 51 -27 64 -75 31 -116 -16 -19 -16
-25 -5 -37 19 -18 18 -67 -2 -97 -19 -29 -65 -46 -104 -39 -26 6 -29 3 -32
-22 -2 -19 -10 -30 -22 -32 -28 -6 -38 11 -27 41 8 21 8 27 -4 27 -8 0 -15
-12 -17 -27 -2 -23 -7 -28 -27 -25 -32 3 -32 3 -22 39 9 31 8 32 -30 38 -41 7
-46 14 -28 46 6 13 18 19 32 17 19 -3 24 5 38 62 8 36 19 77 23 93 5 23 3 29
-18 36 -18 8 -22 15 -19 35 4 22 9 25 29 20 50 -13 59 -10 62 19 3 20 9 27 26
27 12 0 25 -3 28 -6z m-5695 -20 c20 -19 16 -37 -7 -31 -11 3 -23 1 -26 -4 -3
-5 9 -9 26 -9 21 0 30 -4 28 -12 -3 -9 -25 -13 -63 -13 -38 0 -60 4 -62 13 -3
8 6 12 27 12 17 0 29 4 26 9 -3 5 -15 7 -26 4 -23 -6 -27 11 -7 32 15 16 67
16 84 -1z m223 -32 c0 -4 -23 -35 -51 -67 -90 -106 -110 -133 -101 -139 5 -3
25 9 43 27 96 92 139 129 139 119 0 -6 -31 -47 -70 -92 -38 -45 -70 -85 -70
-89 0 -4 18 -25 40 -46 22 -21 40 -44 40 -51 0 -21 -60 -64 -89 -64 -16 0 -39
8 -52 18 -13 10 -33 22 -44 25 -16 6 -15 3 5 -14 49 -40 90 -81 90 -89 0 -27
-34 -9 -97 49 -73 67 -104 121 -68 121 9 0 23 -7 31 -15 9 -8 25 -15 36 -15
11 0 36 -9 55 -21 35 -22 83 -20 83 3 0 16 -161 178 -176 178 -21 0 -96 -81
-114 -123 -10 -23 -22 -75 -26 -114 -3 -40 -9 -73 -11 -73 -7 0 -65 42 -84 61
-9 9 -19 35 -23 58 -6 42 -5 43 57 105 36 37 89 77 125 95 39 20 62 38 62 48
0 12 11 6 39 -21 l40 -39 58 51 c32 27 74 66 92 86 37 38 41 41 41 28z m5749
-87 c0 -5 -6 1 -14 15 -8 14 -14 30 -14 35 0 6 6 -1 14 -15 8 -14 14 -29 14
-35z m249 -229 c61 6 102 25 102 49 0 8 5 15 10 15 6 0 10 -9 10 -20 0 -31
-44 -52 -120 -58 l-70 -5 2 149 2 149 3 -142 4 -143 57 6z m222 253 c0 -5 -7
-9 -15 -9 -15 0 -20 12 -9 23 8 8 24 -1 24 -14z m-197 4 c-13 -2 -33 -2 -45 0
-13 2 -3 4 22 4 25 0 35 -2 23 -4z m71 -9 c18 -17 22 -64 6 -64 -5 0 -11 9
-11 20 -3 39 -5 45 -18 42 -7 -1 -10 2 -6 8 8 13 11 13 29 -6z m796 6 c0 -5
-4 -10 -10 -10 -5 0 -10 5 -10 10 0 6 5 10 10 10 6 0 10 -4 10 -10z m-568
-235 c4 -14 13 -20 31 -19 15 0 27 -4 27 -8 0 -14 -43 -8 -62 9 -16 14 -18 31
-16 132 l1 116 8 -105 c4 -58 9 -114 11 -125z m-1185 173 c-3 -8 -6 -5 -6 6
-1 11 2 17 5 13 3 -3 4 -12 1 -19z m1397 -10 c-4 -5 -19 -8 -35 -6 -18 3 -30
-1 -34 -9 -2 -8 -10 -11 -16 -8 -17 11 22 33 58 33 19 0 30 -4 27 -10z m207
-1 c-5 -5 -19 -7 -32 -5 -39 5 -64 -30 -64 -90 0 -29 4 -52 8 -52 5 0 6 -4 2
-9 -11 -19 55 -38 84 -25 9 4 21 8 26 9 6 0 9 7 7 14 -1 7 2 10 8 6 6 -4 8 9
4 38 -4 25 -2 52 3 62 8 13 10 1 9 -45 -1 -52 -5 -65 -25 -81 -33 -27 -86 -25
-116 6 -21 20 -25 34 -25 80 0 71 28 105 84 102 19 -1 31 -6 27 -10z m149 -92
c0 -63 -4 -105 -10 -105 -6 0 -10 42 -10 105 0 63 4 105 10 105 6 0 10 -42 10
-105z m184 93 c-3 -5 -20 -9 -38 -8 -60 4 -58 7 -54 -95 2 -52 0 -95 -4 -95
-5 0 -8 45 -8 99 0 110 -2 108 72 108 21 1 35 -3 32 -9z m-509 -8 c3 -5 1 -10
-4 -10 -6 0 -11 5 -11 10 0 6 2 10 4 10 3 0 8 -4 11 -10z m219 -22 c-3 -5 -12
-4 -20 3 -7 6 -11 15 -8 21 3 5 12 4 20 -3 7 -6 11 -15 8 -21z m330 16 c9 -8
16 -27 16 -42 -1 -23 -2 -25 -11 -9 -5 9 -7 22 -4 27 3 6 2 10 -3 10 -6 0 -12
7 -16 15 -7 19 -1 19 18 -1z m-1009 -3 c-9 -8 -36 -10 -30 -2 2 4 11 8 20 8 8
0 13 -3 10 -6z m-978 -48 c-3 -10 -5 -2 -5 17 0 19 2 27 5 18 2 -10 2 -26 0
-35z m1323 -28 c0 -30 -3 -56 -7 -58 -5 -3 -8 23 -8 58 0 35 3 61 8 58 4 -2 7
-28 7 -58z m-350 25 c0 -5 -2 -10 -4 -10 -3 0 -8 5 -11 10 -3 6 -1 10 4 10 6
0 11 -4 11 -10z m16 -37 c-10 -10 -19 5 -10 18 6 11 8 11 12 0 2 -7 1 -15 -2
-18z m1011 -15 c-3 -7 -5 -2 -5 12 0 14 2 19 5 13 2 -7 2 -19 0 -25z m-1990 0
c-3 -8 -6 -5 -6 6 -1 11 2 17 5 13 3 -3 4 -12 1 -19z m-5332 2 c3 -5 2 -10 -4
-10 -5 0 -13 5 -16 10 -3 6 -2 10 4 10 5 0 13 -4 16 -10z m5930 -57 c-9 -15
-13 -19 -10 -8 4 11 10 29 13 40 3 11 7 14 9 8 3 -7 -3 -24 -12 -40z m1395 7
c0 -16 -4 -30 -8 -30 -5 0 -7 14 -4 30 2 17 6 30 8 30 2 0 4 -13 4 -30z m-623
-18 c15 3 37 8 48 12 20 8 20 7 1 -8 -33 -27 -128 -13 -110 16 5 7 11 5 20 -7
9 -12 22 -16 41 -13z m-1281 -82 c39 -44 41 -48 10 -20 -21 19 -47 49 -58 65
-25 35 -18 29 48 -45z m474 27 c0 -2 -17 -19 -37 -38 l-38 -34 34 38 c33 34
41 42 41 34z m-80 -72 c0 -6 -56 -35 -67 -35 -4 1 8 9 27 20 39 22 40 22 40
15z m-300 -20 c14 -8 21 -14 15 -14 -5 0 -21 6 -35 14 -14 8 -20 14 -15 14 6
0 21 -6 35 -14z m143 -32 c-7 -2 -21 -2 -30 0 -10 3 -4 5 12 5 17 0 24 -2 18
-5z m-5236 -180 c3 -8 -16 -13 -64 -15 l-68 -3 -3 -41 -3 -41 48 4 c81 8 123
-44 101 -123 -5 -18 -19 -40 -31 -49 -30 -21 -99 -19 -127 3 -30 25 -18 49 13
27 51 -36 117 -8 117 51 0 60 -43 76 -127 49 -22 -7 -23 -6 -23 67 0 41 3 78
7 82 12 12 156 2 160 -11z m312 2 c38 -19 41 -30 41 -141 0 -87 -2 -97 -25
-119 -17 -17 -35 -25 -60 -25 -45 0 -102 27 -87 42 7 7 17 6 30 -1 55 -29 112
-1 112 56 0 30 -2 33 -19 23 -97 -52 -190 73 -112 151 33 33 75 38 120 14z
m191 -135 c0 -127 -2 -150 -15 -150 -13 0 -15 21 -15 125 0 69 -2 125 -5 125
-3 0 -14 -6 -25 -12 -14 -9 -22 -10 -31 -1 -8 8 1 18 33 37 23 14 46 26 51 26
4 0 7 -67 7 -150z m229 135 c43 -22 56 -78 25 -109 -14 -15 -14 -18 5 -42 35
-45 26 -95 -20 -119 -74 -39 -159 -1 -159 70 0 23 7 41 20 52 18 16 18 18 3
35 -26 29 -21 77 11 105 31 26 74 30 115 8z m245 4 c65 -30 52 -102 -34 -193
-27 -29 -50 -56 -50 -59 0 -4 29 -7 65 -7 51 0 65 -3 65 -15 0 -12 -17 -15
-95 -15 -112 0 -116 6 -49 70 93 90 125 155 92 188 -17 17 -55 15 -89 -5 -32
-19 -49 -12 -28 13 27 32 80 42 123 23z m255 0 c36 -13 45 -46 9 -34 -79 25
-114 13 -124 -41 -3 -19 -5 -37 -2 -39 2 -2 20 0 39 6 77 24 139 -37 117 -116
-19 -70 -105 -89 -159 -36 -28 28 -29 33 -29 118 0 65 4 95 16 111 28 40 76
51 133 31z m336 -117 c0 -114 -1 -122 -24 -146 -29 -31 -84 -35 -120 -10 -28
20 -14 42 17 25 30 -16 68 -13 83 6 13 14 15 45 19 251 0 2 6 2 13 -1 9 -3 12
-37 12 -125z m112 105 c10 -13 27 -40 38 -60 11 -20 22 -37 25 -37 3 0 16 21
30 46 26 50 46 74 61 74 16 0 10 -18 -32 -85 l-42 -66 47 -69 c25 -38 46 -72
46 -75 0 -3 -8 -5 -18 -5 -12 0 -30 22 -53 60 -18 33 -36 60 -39 60 -3 0 -22
-27 -42 -60 -20 -33 -44 -60 -53 -60 -21 0 -20 4 30 81 l45 70 -44 69 c-41 62
-46 80 -25 80 4 0 16 -10 26 -23z m279 -38 l37 -61 38 61 c21 34 45 61 54 61
8 0 15 -2 15 -5 0 -3 -20 -37 -44 -76 l-45 -71 46 -69 c25 -38 43 -72 40 -75
-13 -14 -36 7 -67 60 -17 31 -35 54 -40 51 -5 -3 -23 -30 -40 -60 -22 -38 -38
-55 -52 -55 -19 0 -19 2 -6 23 9 12 30 46 48 75 l32 52 -41 68 c-45 75 -47 82
-27 82 8 0 31 -27 52 -61z m2951 26 c20 -23 23 -37 23 -116 0 -87 -1 -92 -29
-120 -39 -39 -100 -41 -136 -4 -23 22 -25 31 -25 123 0 101 6 118 45 141 32
19 97 6 122 -24z m340 0 c20 -23 23 -37 23 -110 0 -46 -5 -95 -11 -108 -23
-51 -113 -64 -154 -22 -23 22 -25 31 -25 122 1 100 6 118 45 141 32 20 97 7
122 -23z m263 15 c0 -9 -18 -34 -40 -55 -46 -45 -49 -55 -16 -55 31 0 66 -43
66 -82 0 -43 -48 -88 -95 -88 -36 0 -95 24 -95 39 0 17 14 20 34 6 11 -8 37
-15 58 -15 90 0 89 121 -2 124 -16 1 -30 5 -30 10 0 6 18 31 41 58 l40 48 -65
0 c-58 0 -76 6 -62 21 2 2 41 4 85 4 66 0 81 -3 81 -15z m200 14 c0 -3 -22
-46 -50 -96 -27 -50 -50 -92 -50 -94 0 -2 23 -4 50 -4 l50 0 0 35 c0 24 5 35
15 35 10 0 15 -11 15 -35 0 -24 5 -35 15 -35 8 0 15 -7 15 -15 0 -8 -7 -15
-15 -15 -10 0 -15 -11 -15 -35 0 -24 -5 -35 -15 -35 -10 0 -15 11 -15 35 l0
35 -70 0 c-52 0 -70 3 -70 14 0 16 100 198 114 208 13 9 26 10 26 2z m288 -13
c2 -7 -20 -11 -67 -11 l-71 0 0 -29 c0 -16 -3 -36 -6 -45 -5 -12 3 -14 49 -9
51 5 57 4 81 -22 57 -62 14 -165 -69 -165 -38 0 -95 24 -95 40 0 17 17 19 36
5 30 -23 90 -19 108 7 21 29 20 67 -1 90 -18 20 -87 25 -98 8 -3 -5 -13 -10
-21 -10 -11 0 -14 16 -14 73 0 41 2 76 4 78 10 9 161 0 164 -10z m363 -55
c-48 -48 -50 -56 -17 -56 31 0 66 -43 66 -82 0 -43 -48 -88 -95 -88 -36 0 -95
24 -95 39 0 17 14 20 34 6 32 -23 92 -19 110 7 34 48 7 97 -56 103 -18 2 -35
4 -37 4 -2 1 18 26 44 56 l47 55 -66 0 c-95 0 -81 19 17 22 100 4 107 -6 48
-66z m677 55 c2 -5 -18 -11 -45 -13 l-48 -3 -3 -132 c-2 -109 -5 -133 -17
-133 -13 0 -15 23 -15 135 l0 135 -45 0 c-29 0 -45 4 -45 13 0 15 213 14 218
-2z m201 8 c34 -12 38 -36 5 -31 -78 14 -92 14 -113 -7 -18 -18 -21 -33 -21
-101 0 -67 3 -83 20 -100 22 -22 79 -27 112 -9 12 7 24 7 29 2 17 -17 -20 -36
-76 -41 -50 -4 -57 -2 -85 26 -29 29 -30 34 -30 119 0 65 4 95 16 111 28 40
83 52 143 31z m-1089 -144 c0 -122 -2 -145 -15 -145 -13 0 -15 21 -15 126 0
116 -1 126 -17 119 -61 -25 -73 -10 -20 24 65 42 67 38 67 -124z m600 123 c24
-26 26 -65 4 -89 -14 -16 -14 -19 5 -38 23 -23 28 -70 11 -101 -13 -24 -69
-40 -137 -40 l-53 0 0 145 0 145 75 0 c63 0 77 -3 95 -22z m-6645 -248 c0 -8
-8 -16 -17 -18 -13 -2 -18 3 -18 18 0 15 5 20 18 18 9 -2 17 -10 17 -18z
m4915 0 c0 -21 -24 -28 -35 -10 -8 14 3 30 21 30 8 0 14 -9 14 -20z m-4363
-196 c-3 -3 -12 -4 -19 -1 -8 3 -5 6 6 6 11 1 17 -2 13 -5z m531 -111 c-1
-110 -5 -97 -10 35 -2 39 0 72 5 72 4 0 6 -48 5 -107z m672 103 c0 -3 -4 -8
-10 -11 -5 -3 -10 -1 -10 4 0 6 5 11 10 11 6 0 10 -2 10 -4z m4539 -68 c-2
-77 -6 -69 -11 20 -2 28 0 52 5 52 4 0 6 -33 6 -72z m671 68 c0 -3 -4 -8 -10
-11 -5 -3 -10 -1 -10 4 0 6 5 11 10 11 6 0 10 -2 10 -4z m-2023 -68 c-3 -8 -6
-5 -6 6 -1 11 2 17 5 13 3 -3 4 -12 1 -19z m-4112 -58 c3 -6 -1 -7 -9 -4 -18
7 -21 14 -7 14 6 0 13 -4 16 -10z m5462 -67 c-3 -10 -5 -2 -5 17 0 19 2 27 5
18 2 -10 2 -26 0 -35z m-6160 -15 c-3 -8 -6 -5 -6 6 -1 11 2 17 5 13 3 -3 4
-12 1 -19z m1390 0 c-3 -8 -6 -5 -6 6 -1 11 2 17 5 13 3 -3 4 -12 1 -19z
m-1137 -56 c0 -4 -21 -6 -47 -4 -76 5 -83 10 -15 11 34 0 62 -2 62 -7z m1328
1 c-10 -2 -28 -2 -40 0 -13 2 -5 4 17 4 22 1 32 -1 23 -4z m3609 0 c-20 -2
-52 -2 -70 0 -17 2 0 4 38 4 39 0 53 -2 32 -4z m736 0 c-18 -2 -48 -2 -65 0
-18 2 -4 4 32 4 36 0 50 -2 33 -4z m865 0 c-10 -2 -28 -2 -40 0 -13 2 -5 4 17
4 22 1 32 -1 23 -4z m-3328 -318 c25 -27 25 -41 0 -22 -23 19 -43 47 -33 47 5
0 20 -11 33 -25z m-3703 -879 c-5 -12 -135 -61 -142 -54 -3 2 28 53 68 112
l72 107 3 -77 c2 -43 1 -82 -1 -88z m173 -59 c0 -3 -33 7 -72 22 l-73 27 -3
89 -3 89 76 -111 c41 -62 75 -114 75 -116z m5441 200 c27 -14 57 -42 77 -71
39 -59 40 -66 4 -66 -21 0 -32 7 -40 24 -16 36 -72 74 -119 82 -32 5 -52 1
-85 -15 -59 -29 -81 -63 -86 -131 -4 -69 19 -110 79 -141 75 -38 157 -14 204
59 14 22 28 31 48 32 32 0 32 -1 11 -43 -49 -96 -151 -142 -252 -112 -107 32
-171 147 -143 253 34 125 185 190 302 129z m-57 -113 c20 -19 21 -58 2 -74 -8
-6 -16 -28 -18 -48 -3 -32 -6 -37 -28 -37 -22 0 -25 5 -28 37 -2 20 -10 42
-18 48 -19 16 -18 49 3 72 20 22 66 24 87 2z m-5554 -114 c0 -33 -2 -60 -5
-60 -10 0 -135 65 -135 70 0 5 112 47 133 49 4 1 7 -26 7 -59z m77 42 c26 -11
57 -22 68 -26 17 -7 9 -13 -45 -41 -36 -19 -68 -34 -72 -35 -5 0 -8 27 -8 60
0 33 2 60 5 60 2 0 26 -8 52 -18z m2098 -286 c55 -25 108 -79 134 -135 15 -33
16 -223 16 -2191 0 -1833 -4 -2457 -13 -2255 -2 42 -16 73 -25 59 -3 -5 -385
-6 -854 -3 -466 4 -1173 7 -1570 8 -616 1 -723 4 -723 16 0 7 5 17 10 20 15 9
2 25 -15 18 -8 -3 -15 0 -15 6 0 6 -7 11 -16 11 -8 0 -13 -4 -10 -8 2 -4 1
-14 -3 -21 -6 -9 -10 -5 -15 14 -6 21 -10 24 -21 15 -13 -11 -31 -66 -27 -82
1 -5 -1 -8 -6 -8 -12 0 -31 49 -21 56 5 3 7 10 3 15 -3 5 -10 7 -15 4 -5 -4
-9 -1 -9 4 0 6 -4 11 -10 11 -5 0 -10 -6 -10 -13 0 -15 -109 -12 -124 3 -13
13 -43 13 -48 -1 -5 -16 -99 -13 -110 3 -7 10 -11 9 -23 -6 -13 -17 -15 -18
-15 -3 0 9 -7 17 -15 17 -11 0 -15 -12 -15 -45 0 -43 -12 -60 -23 -32 -3 9
-322 11 -1568 6 -860 -4 -1572 -7 -1581 -8 -11 -2 -18 -13 -20 -34 -15 -133
-19 462 -16 2288 l3 2110 22 40 c27 51 88 110 133 129 31 13 409 15 3300 16
l3265 0 50 -24z m3630 -261 c43 -21 55 -51 55 -141 0 -111 -23 -143 -100 -143
-45 0 -80 16 -80 38 0 14 0 14 43 -4 59 -25 107 6 107 69 0 26 -14 35 -25 16
-11 -18 -81 -11 -109 11 -36 28 -38 105 -3 136 39 36 64 40 112 18z m335 0 c0
-8 -11 -17 -25 -21 -41 -10 -55 -41 -55 -119 0 -78 15 -111 52 -117 13 -2 24
-10 26 -19 5 -27 -55 -11 -83 23 -22 26 -25 39 -25 108 0 93 11 123 54 144 39
20 56 20 56 1z m-700 -10 c0 -12 -14 -15 -70 -15 l-70 0 0 -45 c0 -42 2 -45
19 -35 48 25 116 -2 129 -53 19 -70 -21 -127 -90 -127 -49 0 -105 27 -89 43 8
8 17 7 35 -3 35 -18 88 -15 103 6 18 24 16 79 -3 98 -17 18 -79 22 -89 6 -3
-5 -15 -10 -26 -10 -17 0 -19 7 -19 75 l0 75 85 0 c69 0 85 -3 85 -15z m150
-130 c0 -122 -2 -145 -15 -145 -13 0 -15 21 -15 126 l0 126 -25 -16 c-30 -20
-35 -20 -35 -2 0 15 56 56 78 56 9 0 12 -36 12 -145z m1390 55 c0 -52 -19 -75
-42 -52 -8 8 -5 9 11 5 19 -5 21 -2 21 46 0 28 2 51 5 51 3 0 5 -23 5 -50z
m93 -15 c12 -36 13 -45 3 -32 -7 9 -21 17 -31 17 -10 0 -24 -8 -31 -17 -13
-17 -6 11 21 86 8 21 20 4 38 -54z m79 47 l19 23 -15 -31 c-13 -27 -13 -34 -1
-50 8 -11 14 -23 14 -29 1 -5 -8 1 -18 14 l-19 24 -12 -22 c-6 -13 -14 -20
-17 -18 -3 3 2 16 10 28 14 19 14 25 1 53 -14 30 -14 30 3 8 l17 -24 18 24z
m88 -3 c6 13 14 20 17 18 2 -3 -2 -16 -11 -29 -13 -20 -13 -25 0 -42 8 -11 14
-24 14 -30 0 -6 -7 0 -16 13 l-17 24 -19 -24 -19 -24 16 32 c14 30 14 35 -1
60 l-16 28 20 -24 20 -24 12 22z m-413 -54 l1 -40 -6 35 c-4 22 -13 35 -22 35
-9 0 -17 -13 -21 -35 l-6 -35 -2 38 c-1 25 -6 37 -15 37 -10 0 -16 -13 -19
-37 l-4 -38 -1 42 -2 42 48 -2 47 -2 2 -40z m44 -15 c5 0 12 0 17 0 4 -1 10
14 13 32 5 25 7 19 5 -22 -1 -49 -4 -55 -23 -58 -13 -2 -23 1 -23 6 0 5 7 9
16 8 9 0 19 5 22 13 3 9 0 11 -7 7 -19 -12 -41 14 -39 48 l1 31 4 -32 c2 -18
8 -33 14 -33z m2211 -200 c18 -16 28 -30 23 -30 -6 0 -4 -4 4 -9 8 -5 15 -20
17 -33 4 -39 45 -142 64 -163 11 -11 29 -61 40 -110 11 -50 25 -101 31 -114
16 -38 12 -242 -6 -303 -16 -55 -43 -107 -30 -58 4 14 9 61 11 105 l4 80 -19
-45 c-11 -25 -20 -52 -20 -62 -1 -9 -12 -40 -26 -70 -14 -29 -25 -63 -25 -76
0 -12 -11 -40 -25 -62 -14 -22 -25 -42 -25 -45 0 -6 -156 -165 -163 -165 -14
0 15 83 47 135 20 33 45 84 56 113 11 30 31 68 44 85 48 63 95 166 107 233 18
106 -7 356 -40 398 -5 6 -12 22 -16 36 -4 14 -27 60 -51 104 -57 101 -57 106
-2 56z m-1538 -16 c-35 -45 -128 -196 -153 -249 -69 -142 -76 -175 -75 -370 0
-200 11 -252 82 -390 63 -121 198 -258 322 -327 l85 -48 -87 0 c-69 0 -92 4
-109 18 -142 116 -203 182 -244 262 -19 39 -13 34 34 -27 41 -54 60 -56 25 -4
-14 22 -23 44 -20 49 3 6 -5 17 -19 26 -14 9 -25 22 -25 29 0 6 7 3 15 -7 8
-11 15 -17 15 -13 0 13 -39 85 -50 92 -5 3 -10 11 -10 16 0 6 5 7 10 4 15 -9
12 9 -5 31 -15 19 -15 19 -10 -1 3 -11 -4 -1 -15 23 -11 24 -25 73 -30 110 -6
37 -16 91 -22 119 -21 102 5 331 51 447 18 45 23 24 6 -25 -9 -24 -18 -71 -20
-104 l-5 -60 20 55 c10 30 19 62 19 71 1 20 24 73 51 114 10 17 19 37 19 45 1
8 12 36 26 62 14 26 25 56 25 68 0 18 6 20 61 20 l60 0 -27 -36z m1591 10 c11
-17 12 -25 4 -22 -6 2 -16 14 -20 26 -11 29 -5 28 16 -4z m245 -25 c0 -5 -7
-9 -15 -9 -15 0 -20 12 -9 23 8 8 24 -1 24 -14z m-1987 -45 c-10 -19 -19 -31
-21 -25 -3 9 26 61 34 61 2 0 -4 -16 -13 -36z m1999 -11 l-9 -28 -14 28 c-11
24 -11 30 1 37 22 14 34 -5 22 -37z m-72 7 c9 -17 8 -19 -12 -11 -26 9 -36 31
-14 31 8 0 20 -9 26 -20z m-3753 -36 c-3 -3 -12 -4 -19 -1 -8 3 -5 6 6 6 11 1
17 -2 13 -5z m2853 -2 c0 -4 -12 -20 -26 -35 -14 -15 -23 -34 -20 -42 3 -9 0
-12 -10 -8 -21 8 -17 -6 9 -28 l22 -19 -27 10 c-20 7 -28 6 -28 -1 0 -6 -7 -9
-14 -6 -9 4 -17 -2 -21 -13 -6 -19 -6 -19 -26 1 -10 10 -19 30 -19 44 0 22 -3
24 -19 15 -11 -5 -23 -10 -28 -10 -4 1 5 8 20 16 17 9 26 21 23 29 -3 9 0 12
9 9 8 -3 12 -11 9 -17 -3 -8 8 -12 28 -12 30 1 66 22 102 62 13 15 16 16 16 5z
m-3300 -142 c0 -87 -4 -140 -10 -140 -6 0 -10 43 -10 109 0 99 7 171 16 171 2
0 4 -63 4 -140z m3095 100 c-3 -5 -11 -10 -16 -10 -6 0 -7 5 -4 10 3 6 11 10
16 10 6 0 7 -4 4 -10z m-3405 -25 c0 -8 -3 -16 -7 -18 -5 -3 -8 5 -8 18 0 13
3 21 8 18 4 -2 7 -10 7 -18z m573 0 c-3 -9 -8 -14 -10 -11 -3 3 -2 9 2 15 9
16 15 13 8 -4z m3070 -2 c-8 -21 -45 -53 -55 -47 -7 5 42 64 54 64 4 0 4 -8 1
-17z m-288 -80 c-2 -7 0 -13 4 -13 5 0 12 6 15 13 3 6 3 2 1 -10 -6 -22 7 -35
40 -40 26 -5 36 -23 24 -45 -9 -17 -8 -18 9 -7 29 18 92 3 92 -21 0 -20 -21
-26 -76 -21 -22 1 -30 -28 -10 -42 6 -4 -2 -5 -19 -1 -40 9 -45 12 -39 28 5
13 -44 53 -60 48 -4 -2 -14 2 -21 8 -7 6 -20 8 -29 4 -12 -5 -16 0 -16 23 0
22 -7 33 -25 41 -14 6 -25 17 -25 24 0 6 -7 3 -16 -8 -10 -12 -14 -14 -11 -4
2 8 16 21 30 28 28 14 28 32 -1 32 -24 0 -2 18 28 22 30 4 111 -42 105 -59z
m366 45 c6 -13 20 -33 31 -45 11 -12 18 -26 15 -30 -3 -5 1 -22 8 -37 8 -16
13 -38 10 -50 -4 -16 2 -24 27 -36 50 -23 47 -38 -6 -26 -43 10 -44 11 -39 43
6 33 5 33 -27 31 -21 -2 -35 2 -38 11 -4 11 2 12 24 7 16 -4 25 -4 21 1 -5 4
-34 8 -64 8 -38 0 -58 4 -61 14 -3 9 1 11 17 6 25 -8 29 10 4 19 -15 6 -32 -8
-33 -26 0 -5 -4 -8 -9 -8 -5 0 -7 9 -4 19 4 16 1 19 -16 14 -29 -7 -41 25 -16
44 24 16 41 12 38 -11 -1 -13 4 -16 18 -13 10 3 19 1 19 -4 0 -5 5 -9 11 -9 8
0 8 5 -1 15 -10 12 -8 21 14 50 32 41 41 43 57 13z m-2474 -25 c-3 -10 -5 -4
-5 12 0 17 2 24 5 18 2 -7 2 -21 0 -30z m1917 -28 c-7 -17 -7 -17 -28 -9 -24
9 -19 24 9 24 18 0 23 -4 19 -15z m-34 -35 c21 11 33 -7 16 -26 -11 -12 -66 3
-66 19 0 5 -9 5 -20 2 -11 -3 -20 -2 -20 4 0 15 54 18 63 3 6 -9 13 -9 27 -2z
m-105 0 c3 -6 -4 -10 -17 -10 -18 0 -20 2 -8 10 19 12 18 12 25 0z m-2447 -35
c-3 -3 -9 2 -12 12 -6 14 -5 15 5 6 7 -7 10 -15 7 -18z m3031 -41 c7 -6 -10
-22 -29 -27 -16 -4 -20 0 -20 20 0 21 3 23 23 17 12 -3 24 -8 26 -10z m-2439
-2 c0 -4 -21 -6 -47 -4 -83 5 -90 9 -20 11 37 0 67 -2 67 -7z m-1093 -44 c-3
-8 -6 -5 -6 6 -1 11 2 17 5 13 3 -3 4 -12 1 -19z m3090 -75 c-2 -16 -4 -3 -4
27 0 30 2 43 4 28 2 -16 2 -40 0 -55z m73 -5 c-1 -53 -3 -68 -10 -56 -9 15 -3
128 6 128 2 0 4 -33 4 -72z m513 13 c3 -14 1 -18 -9 -14 -15 6 -18 16 -7 26 9
10 10 9 16 -12z m117 -16 c0 -26 -3 -33 -15 -29 -15 6 -21 45 -8 57 15 15 23
5 23 -28z m-480 -25 c0 -41 -14 -61 -24 -34 -8 21 -8 69 0 77 14 13 24 -6 24
-43z m-362 -19 c-1 -42 -2 -43 -6 -11 l-5 35 -7 -30 c-7 -26 -8 -24 -9 17 -1
38 2 46 14 42 11 -4 15 -19 13 -53z m109 7 c-2 -13 -4 -5 -4 17 -1 22 1 32 4
23 2 -10 2 -28 0 -40z m438 -25 c-10 -43 -17 -18 -8 34 6 39 8 43 11 19 2 -15
1 -40 -3 -53z m370 68 c3 -6 -4 -9 -15 -8 -11 1 -20 5 -20 9 0 11 28 10 35 -1z
m-410 -128 l-7 -73 -143 0 c-85 0 -146 4 -150 10 -4 6 45 10 140 10 133 0 146
2 144 18 -3 27 14 149 19 128 2 -11 1 -52 -3 -93z m62 0 c-2 -21 -4 -4 -4 37
0 41 2 58 4 38 2 -21 2 -55 0 -75z m30 85 c-3 -8 -6 -5 -6 6 -1 11 2 17 5 13
3 -3 4 -12 1 -19z m104 -37 c-7 -11 -7 -22 -2 -25 5 -3 7 -15 4 -27 -9 -33
-23 -1 -23 53 0 28 5 48 13 51 16 5 21 -27 8 -52z m108 -1 c1 -13 0 -13 -9 0
-5 8 -9 24 -9 35 l0 20 9 -20 c5 -11 9 -27 9 -35z m80 -37 l-2 -78 -7 70 c-7
65 -6 85 6 85 2 0 3 -35 3 -77z m-482 -25 c-3 -7 -5 -2 -5 12 0 14 2 19 5 13
2 -7 2 -19 0 -25z m-83 7 c-4 -8 -7 -15 -9 -15 -2 0 -5 7 -9 15 -3 9 0 15 9
15 9 0 12 -6 9 -15z m461 -82 c-3 -18 -8 -33 -10 -33 -9 0 -160 30 -175 35
-11 3 -21 -3 -29 -17 l-12 -23 5 23 c3 14 -1 22 -10 22 -8 0 -14 8 -14 18 0
17 5 18 45 12 50 -8 55 -5 55 22 0 13 6 18 18 16 9 -2 17 -12 17 -23 0 -20 27
-32 78 -34 17 -1 27 4 26 12 -1 6 0 26 1 42 3 30 3 30 7 -4 3 -19 2 -50 -2
-68z m57 23 c7 5 8 2 4 -5 -5 -8 0 -14 13 -18 21 -5 30 -23 11 -23 -5 0 -10
-7 -10 -15 0 -8 -4 -15 -8 -15 -12 0 -30 41 -30 70 0 14 2 19 5 12 3 -6 10 -9
15 -6z m-682 -30 c0 -3 -4 -8 -10 -11 -5 -3 -10 -1 -10 4 0 6 5 11 10 11 6 0
10 -2 10 -4z m256 -17 c32 -6 64 -15 69 -21 7 -7 -1 -7 -25 -2 -19 5 -60 9
-90 8 -33 0 -60 4 -68 13 -11 11 -8 13 20 13 19 0 61 -5 94 -11z m-171 -9
c-11 -5 -29 -11 -40 -15 -31 -10 2 -25 43 -19 27 3 33 1 30 -13 -2 -9 -12 -20
-23 -23 -11 -3 -21 -14 -23 -24 -2 -10 -7 -37 -12 -60 l-8 -41 -2 45 c-2 68
-9 92 -27 105 -33 24 -2 51 62 53 l20 1 -20 -9z m292 -32 c-3 -8 -6 -5 -6 6
-1 11 2 17 5 13 3 -3 4 -12 1 -19z m-437 -12 c0 -31 -10 -56 -21 -56 -5 0 -7
12 -4 28 5 25 5 26 -6 5 -15 -29 -39 -38 -39 -15 0 29 29 58 63 61 4 1 7 -10
7 -23z m307 -3 c-20 -2 -52 -2 -70 0 -17 2 0 4 38 4 39 0 53 -2 32 -4z m183
-8 c-7 -9 -15 -13 -19 -10 -3 3 1 10 9 15 21 14 24 12 10 -5z m-460 1 c0 -3
-4 -8 -10 -11 -5 -3 -10 -1 -10 4 0 6 5 11 10 11 6 0 10 -2 10 -4z m516 -23
c-7 -7 -26 7 -26 19 0 6 6 6 15 -2 9 -7 13 -15 11 -17z m-225 -26 c-8 -8 -11
-7 -11 4 0 20 13 34 18 19 3 -7 -1 -17 -7 -23z m76 16 c4 -10 -25 -39 -31 -32
-2 2 -7 14 -10 27 -6 19 -4 22 15 19 13 -2 24 -8 26 -14z m-1156 -53 c5 0 9
-9 9 -20 0 -12 7 -32 16 -45 17 -26 16 -29 -10 -19 -9 3 -16 17 -16 30 0 19
-5 24 -27 25 -19 1 -22 3 -10 6 11 3 18 13 16 26 -2 36 4 54 8 25 2 -16 9 -28
14 -28z m1346 8 c-3 -7 -5 -2 -5 12 0 14 2 19 5 13 2 -7 2 -19 0 -25z m-597 6
c0 -2 -9 -4 -20 -4 -11 0 -20 4 -20 9 0 5 9 7 20 4 11 -3 20 -7 20 -9z m580
-22 c0 -4 -9 -15 -20 -25 -22 -18 -28 -5 -7 18 13 16 27 19 27 7z m-1349 -105
c-15 -15 -24 -2 -16 24 7 20 8 21 17 5 7 -12 7 -21 -1 -29z m56 -54 c-9 -8
-81 14 -85 26 -3 10 2 12 21 7 18 -4 27 -1 31 11 6 14 9 12 22 -12 8 -15 13
-30 11 -32z m133 4 c0 -5 -4 -5 -10 -2 -5 3 -10 14 -10 23 0 15 2 15 10 2 5
-8 10 -19 10 -23z m-285 -7 c3 -5 1 -10 -4 -10 -6 0 -11 5 -11 10 0 6 2 10 4
10 3 0 8 -4 11 -10z m175 -77 c0 -7 -6 -13 -12 -13 -10 0 -9 -3 1 -9 7 -5 11
-15 9 -22 -3 -9 -10 -5 -22 14 -14 20 -16 36 -11 64 l8 38 13 -30 c7 -16 13
-36 14 -42z m1738 -23 c-7 -10 -14 -17 -17 -15 -4 4 18 35 25 35 2 0 -1 -9 -8
-20z m-1598 -42 c0 -13 -23 -5 -28 10 -2 7 2 10 12 6 9 -3 16 -11 16 -16z
m1456 -26 c-18 -16 -18 -16 -6 6 6 13 14 21 18 18 3 -4 -2 -14 -12 -24z m222
-24 c12 -12 -1 -23 -55 -47 -13 -6 -23 -17 -23 -25 0 -7 -6 -19 -14 -25 -11
-9 -10 -4 2 23 9 21 28 40 44 47 18 7 27 17 24 25 -7 17 6 18 22 2z m348 -30
c0 -24 3 -56 7 -73 8 -28 8 -29 -7 -11 -16 20 -21 80 -10 110 9 23 10 21 10
-26z m-612 17 c-4 -8 -11 -12 -16 -9 -6 4 -5 10 3 15 19 12 19 11 13 -6z m-48
-36 c16 -17 16 -22 4 -29 -27 -17 -40 -11 -40 20 0 35 10 38 36 9z m-1266 -24
c0 -8 -4 -17 -10 -20 -6 -4 -10 5 -10 20 0 15 4 24 10 20 6 -3 10 -12 10 -20z
m1469 12 c-9 -7 -18 -19 -22 -27 -4 -12 -6 -12 -6 2 -1 9 7 22 17 27 24 14 30
13 11 -2z m316 -65 c-10 -10 -25 21 -24 48 1 23 2 22 15 -9 8 -18 12 -36 9
-39z m-605 33 c-12 -15 -30 -12 -30 6 0 5 10 9 21 9 18 0 19 -2 9 -15z m15
-31 c-9 -9 -18 -14 -21 -11 -9 9 6 27 22 27 13 0 13 -2 -1 -16z m-1712 -112
c-10 -10 -20 -14 -22 -9 -2 5 3 13 10 18 24 15 30 10 12 -9z m472 8 c-3 -5
-12 -10 -18 -10 -7 0 -6 4 3 10 19 12 23 12 15 0z m1020 -49 c0 -33 -3 -54 -7
-48 -12 19 -7 107 6 107 0 0 1 -27 1 -59z m295 -1 c0 -19 -4 -40 -8 -47 -4 -6
-7 15 -7 47 0 32 3 53 7 47 4 -7 8 -28 8 -47z m-1638 -12 c2 -20 0 -34 -4 -32
-4 3 -7 26 -7 52 1 49 5 42 11 -20z m40 0 c2 -20 0 -34 -4 -32 -4 3 -7 26 -7
52 1 49 5 42 11 -20z m332 46 c19 -48 -4 -89 -46 -81 -21 4 -21 4 3 6 40 2 55
60 22 80 -16 9 -16 10 -2 11 9 0 20 -7 23 -16z m518 -46 c2 -20 0 -34 -4 -32
-4 3 -7 26 -7 52 1 49 5 42 11 -20z m101 -26 c18 2 23 12 28 48 l7 45 -2 -50
c-1 -49 -2 -50 -31 -50 -29 0 -30 2 -31 45 l-1 45 4 -43 c4 -38 7 -43 26 -40z
m423 2 c-3 -8 -16 -13 -28 -13 l-23 2 23 4 c19 4 22 11 24 51 1 45 2 46 5 8 3
-21 2 -44 -1 -52z m79 71 c16 19 16 19 5 -4 -9 -18 -9 -30 -1 -49 7 -13 10
-27 7 -29 -2 -2 -7 5 -11 16 -8 27 -22 27 -30 1 -3 -11 -11 -20 -16 -20 -5 0
-2 12 8 26 13 21 14 30 5 45 -17 27 -15 37 2 13 15 -19 15 -19 31 1z m81 -1
c3 9 10 16 15 16 5 0 2 -11 -6 -24 -15 -23 -15 -27 0 -53 l17 -28 -19 23 -19
24 -17 -24 c-17 -23 -17 -23 -3 7 12 26 12 32 -2 55 l-16 25 22 -19 c19 -17
22 -17 28 -2z m334 -35 c0 -49 -1 -50 -27 -47 -23 2 -29 8 -31 35 -3 28 1 33
22 39 14 3 26 10 26 15 0 5 2 9 5 9 3 0 5 -23 5 -51z m88 26 c19 -5 23 -13 20
-38 -2 -27 -8 -33 -30 -35 -27 -3 -28 -2 -28 50 0 29 4 48 8 42 4 -6 17 -15
30 -19z m-1766 -26 c-3 -20 0 -35 9 -41 12 -8 11 -9 -1 -5 -10 2 -16 19 -18
46 -2 24 1 40 6 37 5 -3 7 -19 4 -37z m480 0 c-3 -20 0 -35 9 -41 12 -8 11 -9
-1 -5 -10 2 -16 19 -18 46 -2 24 1 40 6 37 5 -3 7 -19 4 -37z m472 -8 c1 -21
-2 -37 -6 -34 -5 2 -8 23 -8 45 0 52 12 42 14 -11z m-1224 25 c6 -8 10 -25 8
-38 -2 -17 -10 -23 -28 -23 -20 0 -26 6 -28 29 -5 40 25 59 48 32z m154 8 c9
-3 16 -15 16 -25 0 -14 -7 -19 -27 -19 -29 0 -22 -15 12 -23 15 -4 13 -5 -7
-6 -22 -1 -29 5 -34 24 -4 15 -1 32 6 40 14 17 13 17 34 9z m80 -3 c3 -5 -2
-8 -12 -7 -27 2 -29 -51 -2 -57 18 -4 18 -5 -2 -3 -16 1 -24 8 -26 24 -5 34
27 67 42 43z m254 -12 c3 -12 2 -12 -6 0 -5 7 -15 10 -21 7 -18 -12 -12 -26
12 -27 l22 -2 -23 -4 c-16 -3 -22 -10 -18 -19 3 -9 1 -12 -4 -9 -14 9 -12 62
3 68 18 8 30 3 35 -14z m72 12 c0 -5 -8 -8 -17 -7 -29 2 -29 -42 -1 -53 l23
-10 -22 0 c-27 -1 -42 41 -23 64 14 16 40 20 40 6z m68 -3 c20 -20 14 -38 -13
-38 -30 0 -33 -17 -5 -23 17 -4 16 -4 -2 -3 -27 1 -37 38 -18 62 15 17 22 18
38 2z m80 0 c7 -7 11 -26 11 -42 -2 -31 -2 -31 -8 4 -4 22 -12 36 -23 38 -15
3 -18 -4 -19 -35 -2 -31 -3 -33 -6 -10 -8 51 16 74 45 45z m110 5 c-13 -3 -18
-15 -19 -41 -2 -32 -3 -33 -6 -9 -6 38 3 57 24 56 17 -1 17 -2 1 -6z m70 -5
c7 -7 12 -25 12 -41 0 -25 -3 -28 -27 -25 -34 4 -38 32 -5 36 26 4 24 28 -2
26 -9 -1 -16 2 -16 7 0 13 24 11 38 -3z m259 -8 c4 -12 3 -13 -5 -1 -6 8 -17
11 -27 8 -10 -4 -14 -3 -10 4 9 14 37 7 42 -11z m631 8 c7 -7 12 -25 12 -41 0
-25 -3 -28 -27 -25 -36 4 -41 26 -9 38 32 12 33 18 4 30 -14 5 -17 9 -7 9 8 1
20 -4 27 -11z m81 -2 c7 -8 11 -27 8 -43 -4 -27 -4 -27 -6 4 0 19 -8 36 -18
42 -10 6 -13 11 -7 11 6 0 17 -6 23 -14z m269 2 c20 -20 14 -38 -13 -38 -30 0
-33 -17 -5 -23 17 -4 16 -4 -2 -3 -27 1 -37 38 -18 62 15 17 22 18 38 2z m55
-6 c-20 -21 -28 -20 -20 3 4 8 13 15 22 15 13 0 12 -3 -2 -18z m97 4 c20 -25
9 -61 -19 -61 -13 0 -26 7 -28 15 -4 12 -3 13 5 1 13 -19 42 -6 42 18 0 26
-17 36 -35 21 -9 -8 -15 -8 -15 -2 0 9 14 19 31 21 4 1 12 -6 19 -13z m64 8
c11 -4 16 -18 15 -43 l-2 -36 -6 34 c-9 49 -31 52 -32 4 -2 -31 -3 -33 -6 -10
-4 28 1 57 11 57 2 0 11 -3 20 -6z m56 -15 c6 -11 9 -30 7 -42 -4 -19 -4 -18
-6 5 0 15 -8 34 -17 42 -8 9 -11 16 -5 16 6 0 15 -9 21 -21z m-1213 -41 c-2
-13 -4 -5 -4 17 -1 22 1 32 4 23 2 -10 2 -28 0 -40z m101 -6 c9 2 20 17 23 33
6 29 7 29 8 -7 2 -52 -7 -68 -38 -67 -14 0 -19 3 -11 6 43 14 45 16 20 22 -19
5 -26 14 -27 39 l-3 32 6 -31 c4 -21 10 -29 22 -27z m529 6 c-2 -13 -4 -5 -4
17 -1 22 1 32 4 23 2 -10 2 -28 0 -40z m-1907 -11 c22 -4 21 -5 -4 -4 -17 1
-31 9 -33 17 -3 10 -2 11 4 4 4 -7 19 -14 33 -17z m2285 0 c16 -5 15 -5 -4 -4
-14 1 -26 9 -28 17 -3 10 -2 11 4 4 4 -7 17 -14 28 -17z m-1873 -169 c2 -20 0
-34 -4 -32 -4 3 -7 26 -7 52 1 49 5 42 11 -20z m238 12 c0 -27 -3 -50 -8 -50
-4 0 -7 15 -7 33 0 22 -5 32 -15 32 -19 0 -26 -45 -8 -57 10 -8 10 -9 -2 -5
-19 5 -25 44 -9 63 7 8 18 13 26 10 7 -3 13 1 13 9 0 8 2 15 5 15 3 0 5 -22 5
-50z m401 26 c18 10 39 -18 38 -50 l-2 -31 -6 35 c-4 22 -12 35 -21 35 -9 0
-17 -13 -21 -35 -5 -29 -6 -25 -7 20 0 30 2 47 5 37 2 -9 9 -15 14 -11z m215
-62 c-3 -8 -16 -13 -28 -13 l-23 2 23 4 c19 4 22 11 24 51 1 45 2 46 5 8 3
-21 2 -44 -1 -52z m-265 48 c-15 -5 -14 -35 1 -50 8 -8 8 -12 1 -12 -14 0 -23
24 -23 62 0 27 2 29 16 17 10 -8 12 -15 5 -17z m1141 -24 c2 -20 0 -34 -4 -32
-4 3 -8 24 -7 47 1 47 6 41 11 -15z m-1804 14 c3 -17 -2 -22 -18 -22 -16 0
-20 -4 -16 -15 3 -8 1 -15 -4 -15 -6 0 -10 9 -10 20 0 14 7 20 21 20 12 0 19
5 16 13 -2 6 -11 11 -20 11 -9 -1 -14 2 -11 8 10 16 39 3 42 -20z m150 16 c20
-20 14 -38 -13 -38 -25 0 -34 -14 -15 -23 6 -3 5 -4 -2 -3 -18 3 -22 44 -8 62
15 17 22 18 38 2z m70 0 c14 -14 16 -68 2 -68 -5 0 -7 7 -4 15 4 11 0 15 -16
15 -17 0 -21 -4 -15 -17 5 -14 3 -15 -6 -6 -15 15 -3 33 22 33 12 0 19 5 16
13 -2 6 -11 11 -20 11 -9 -1 -14 2 -11 7 7 12 18 11 32 -3z m160 0 c20 -20 14
-38 -14 -38 -20 0 -25 -4 -20 -16 3 -8 2 -12 -4 -9 -21 13 -5 75 20 75 3 0 11
-5 18 -12z m201 -2 c7 -8 11 -27 8 -43 -4 -27 -4 -27 -6 4 0 19 -8 36 -18 42
-10 6 -13 11 -7 11 6 0 17 -6 23 -14z m239 2 c20 -20 14 -38 -14 -38 -20 0
-25 -4 -20 -16 3 -8 2 -12 -4 -9 -21 13 -5 75 20 75 3 0 11 -5 18 -12z m180 0
c14 -14 16 -68 2 -68 -5 0 -7 7 -4 15 4 11 0 15 -16 15 -17 0 -21 -4 -15 -17
5 -14 3 -15 -6 -6 -15 15 -3 33 22 33 12 0 19 5 16 13 -2 6 -11 11 -20 11 -9
-1 -14 2 -11 7 7 12 18 11 32 -3z m248 0 c4 -6 3 -8 -3 -5 -6 4 -17 0 -24 -9
-10 -12 -10 -20 -1 -35 7 -10 8 -19 3 -19 -9 0 -21 23 -21 40 0 8 28 40 35 40
2 0 7 -5 11 -12z m84 -10 c0 -7 -5 -6 -14 1 -21 18 -44 -14 -28 -40 7 -10 8
-19 3 -19 -9 0 -21 23 -21 40 0 5 7 15 15 24 16 16 45 12 45 -6z m79 -27 c-2
-34 -2 -34 -6 -6 -3 17 -10 36 -15 43 -8 9 -7 11 6 6 11 -4 16 -17 15 -43z
m37 3 c1 -29 1 -32 -3 -9 -3 17 -10 36 -16 44 -10 11 -9 13 3 9 10 -3 15 -19
16 -44z m68 40 c11 -4 16 -18 15 -43 l-2 -36 -6 35 c-4 25 -11 35 -23 34 -10
-1 -15 2 -12 7 6 11 8 11 28 3z m55 -43 c-2 -34 -2 -34 -6 -6 -3 17 -10 36
-15 43 -8 9 -7 11 6 6 11 -4 16 -17 15 -43z m145 43 c11 -4 16 -18 15 -43 l-2
-36 -6 35 c-4 22 -12 35 -21 35 -9 0 -17 -13 -21 -35 l-6 -35 -2 37 c0 21 4
38 12 41 6 3 13 6 14 6 1 1 8 -2 17 -5z m-1297 -56 c-2 -13 -4 -5 -4 17 -1 22
1 32 4 23 2 -10 2 -28 0 -40z m90 0 c-2 -13 -4 -5 -4 17 -1 22 1 32 4 23 2
-10 2 -28 0 -40z m30 0 c-2 -13 -4 -5 -4 17 -1 22 1 32 4 23 2 -10 2 -28 0
-40z m530 43 c9 8 13 8 13 1 0 -6 -5 -14 -11 -18 -8 -4 -8 -9 0 -17 6 -6 11
-16 11 -21 0 -6 -4 -5 -9 3 -8 13 -12 13 -27 0 -16 -13 -16 -12 -5 9 10 19 10
27 0 40 -11 14 -11 15 1 5 10 -9 17 -10 27 -2z m71 2 c13 10 14 9 4 -10 -8
-14 -9 -24 -2 -28 5 -3 10 -12 10 -18 0 -8 -4 -7 -9 2 -8 13 -12 13 -27 0 -16
-13 -17 -12 -7 6 8 14 8 26 1 40 -9 16 -8 18 3 8 10 -10 16 -10 27 0z m474
-50 c7 -9 7 -13 0 -13 -13 0 -22 25 -21 53 2 19 2 19 6 -3 3 -14 10 -31 15
-37z m35 5 c-2 -13 -4 -5 -4 17 -1 22 1 32 4 23 2 -10 2 -28 0 -40z m239 -34
c-3 -8 -16 -13 -28 -13 l-23 2 23 4 c27 5 29 19 2 26 -11 3 -20 11 -19 19 0
10 2 10 6 1 10 -26 33 -13 35 20 1 30 2 29 5 -7 3 -21 2 -44 -1 -52z m-556 26
c0 -5 -5 -10 -11 -10 -5 0 -7 5 -4 10 3 6 8 10 11 10 2 0 4 -4 4 -10z m1420
-75 c0 -3 -18 -34 -40 -69 -61 -96 -73 -141 -68 -249 6 -131 50 -208 162 -283
l51 -34 -37 0 c-29 0 -46 9 -88 47 -38 34 -48 48 -38 54 12 8 11 10 -11 13 -5
0 -13 5 -18 10 -5 5 -3 6 5 2 14 -8 15 -5 6 18 -3 9 -11 13 -17 9 -5 -3 -7 -1
-3 5 3 6 -2 33 -13 60 -24 61 -36 174 -23 227 6 22 11 31 12 20 1 -12 9 1 19
30 31 86 55 134 71 139 24 6 30 6 30 1z m706 -51 c21 -51 16 -54 -11 -5 -28
48 -30 55 -14 45 6 -3 17 -21 25 -40z m114 10 c0 -8 -5 -12 -10 -9 -6 4 -8 11
-5 16 9 14 15 11 15 -7z m-452 -48 c-6 -14 -17 -28 -26 -31 -18 -7 -17 -7 -27
23 -6 21 -5 23 13 13 15 -8 23 -7 32 4 18 22 21 18 8 -9z m24 -18 c-7 -7 -12
-8 -12 -2 0 14 12 26 19 19 2 -3 -1 -11 -7 -17z m73 -60 c4 -16 11 -28 16 -28
5 0 9 -4 9 -9 0 -5 -9 -7 -19 -4 -13 3 -18 10 -14 21 5 11 2 14 -10 9 -9 -3
-17 -2 -17 3 0 6 -8 10 -17 10 -19 1 -53 22 -53 34 0 3 7 6 15 6 8 0 15 -7 15
-15 0 -8 5 -15 11 -15 5 0 7 4 4 10 -3 5 -1 19 6 31 l11 22 19 -24 c10 -13 21
-36 24 -51z m-178 25 c20 -21 38 -37 40 -35 8 6 23 1 23 -8 0 -5 -9 -10 -19
-10 -11 0 -21 -6 -23 -12 -3 -8 -9 -4 -17 10 -7 13 -21 22 -35 22 -22 0 -29
10 -41 58 -7 26 37 10 72 -25z m467 -39 c17 -67 20 -137 6 -169 -7 -17 -9 -14
-10 15 -1 33 -3 32 -23 -25 -28 -77 -49 -114 -81 -144 -22 -21 -26 -22 -26 -7
0 10 8 30 19 44 10 15 22 38 26 51 4 12 18 39 31 59 33 48 37 67 33 166 -2 47
-1 82 3 78 3 -4 14 -35 22 -68z m-574 27 c0 -4 -11 -6 -25 -3 -14 2 -25 6 -25
8 0 2 11 4 25 4 14 0 25 -4 25 -9z m210 -25 c0 -11 -19 -15 -25 -6 -3 5 1 10
9 10 9 0 16 -2 16 -4z m-2679 -54 l-24 -4 28 -22 c19 -15 26 -28 22 -39 -7
-19 -52 -23 -62 -7 -4 7 2 9 19 4 35 -8 35 18 1 34 -14 6 -25 16 -25 21 0 15
32 30 49 23 12 -5 10 -8 -8 -10z m285 -9 c12 -17 13 -17 19 0 4 9 11 17 16 17
6 0 4 -10 -2 -22 -6 -12 -15 -33 -20 -47 -5 -17 -8 -20 -8 -8 -1 10 -8 31 -16
47 -17 33 -10 40 11 13z m324 -9 c0 -36 -17 -64 -40 -64 -11 0 -20 5 -20 10 0
6 8 10 18 8 13 -2 18 5 20 35 4 41 22 51 22 11z m2177 4 c-3 -8 -6 -5 -6 6 -1
11 2 17 5 13 3 -3 4 -12 1 -19z m-2724 5 c4 -3 2 -12 -4 -19 -7 -9 -7 -19 1
-35 10 -17 9 -20 -2 -17 -7 3 -14 21 -16 41 -3 34 5 46 21 30z m51 1 c10 -4
16 -18 16 -40 0 -29 -3 -34 -24 -34 -36 0 -43 20 -15 41 20 16 21 19 6 19 -10
0 -15 5 -12 10 7 12 8 12 29 4z m66 -4 c0 -5 -4 -10 -10 -10 -5 0 -11 -15 -11
-32 -2 -32 -2 -32 -6 -5 -3 16 -2 35 1 43 6 16 26 19 26 4z m45 0 c3 -5 1 -10
-4 -10 -15 0 -14 -47 2 -54 6 -3 3 -5 -8 -3 -15 2 -21 11 -23 40 -2 28 1 37
12 37 8 0 18 -4 21 -10z m160 0 c3 -5 12 -7 20 -4 9 4 15 -3 17 -22 4 -40 26
-42 31 -2 l4 33 1 -37 c2 -34 0 -38 -23 -38 -17 0 -25 6 -25 17 0 15 -1 15
-13 -1 -20 -27 -51 -17 -55 18 -4 35 27 62 43 36z m130 0 c3 -5 -1 -10 -9 -10
-11 0 -16 -10 -17 -32 -2 -32 -2 -32 -6 -5 -7 46 14 76 32 47z m155 -4 c6 -8
10 -25 8 -38 -2 -17 -10 -23 -28 -23 -20 0 -26 6 -28 29 -5 40 25 59 48 32z
m130 5 c0 -5 -6 -11 -14 -14 -8 -3 -16 -18 -19 -34 -3 -24 -4 -23 -6 8 0 20 2
39 6 42 9 10 33 8 33 -2z m58 -3 c14 -14 16 -68 2 -68 -5 0 -10 14 -10 31 0
39 -22 34 -31 -7 -6 -28 -7 -28 -8 7 -1 49 19 65 47 37z m66 -4 c9 -8 16 -11
16 -5 0 6 5 11 10 11 6 0 10 -11 10 -25 0 -34 28 -32 33 3 2 16 5 8 6 -21 1
-50 -18 -72 -42 -48 -8 8 -7 11 6 11 14 0 13 4 -6 23 -21 22 -74 26 -61 5 3
-5 12 -7 20 -4 8 3 14 1 14 -5 0 -6 -10 -9 -22 -7 -35 5 -36 75 -1 78 1 0 9
-7 17 -16z m1583 -6 c-3 -8 -6 -5 -6 6 -1 11 2 17 5 13 3 -3 4 -12 1 -19z m73
0 c0 -19 -2 -20 -10 -8 -13 19 -13 30 0 30 6 0 10 -10 10 -22z m-1871 -11 c-3
-24 1 -37 11 -37 6 0 10 14 10 30 0 17 5 30 11 30 6 0 9 -14 7 -32 -2 -28 -7
-33 -28 -33 -21 0 -26 5 -28 34 -2 22 0 31 8 26 6 -3 10 -12 9 -18z m2018 -17
c-5 -37 -3 -40 19 -40 13 0 24 -5 24 -11 0 -8 -13 -10 -37 -5 -21 3 -46 6 -55
6 -29 0 -20 17 12 24 25 5 30 10 30 36 0 16 3 30 6 30 4 0 4 -18 1 -40z m-90
-12 c-3 -7 -5 -2 -5 12 0 14 2 19 5 13 2 -7 2 -19 0 -25z m-30 -25 c-20 -2
-52 -2 -70 0 -17 2 0 4 38 4 39 0 53 -2 32 -4z m193 -23 c0 -5 -2 -10 -4 -10
-3 0 -8 5 -11 10 -3 6 -1 10 4 10 6 0 11 -4 11 -10z m-351 -41 c-9 -5 -15 -4
-18 2 -2 6 3 15 10 20 9 5 15 4 18 -2 2 -6 -3 -15 -10 -20z m78 0 c-8 -13 -13
-15 -16 -7 -2 7 -8 18 -12 24 -7 8 -2 10 15 7 22 -5 23 -8 13 -24z m60 15 c-3
-3 -12 -4 -19 -1 -8 3 -5 6 6 6 11 1 17 -2 13 -5z m53 -24 c0 -5 -4 -10 -10
-10 -5 0 -10 5 -10 10 0 6 5 10 10 10 6 0 10 -4 10 -10z m-520 -75 c5 3 11 1
15 -5 3 -5 -3 -10 -14 -10 -14 0 -21 6 -20 18 0 10 3 12 6 4 2 -6 9 -10 13 -7z
m30 -61 c0 -8 -4 -12 -10 -9 -5 3 -10 13 -10 21 0 8 5 12 10 9 6 -3 10 -13 10
-21z m680 -75 c0 -5 -4 -9 -10 -9 -5 0 -10 7 -10 16 0 8 5 12 10 9 6 -3 10
-10 10 -16z m287 -11 c-3 -8 -6 -5 -6 6 -1 11 2 17 5 13 3 -3 4 -12 1 -19z
m-713 -324 c9 -3 13 -10 10 -15 -3 -5 0 -9 5 -9 6 0 11 3 11 8 0 4 13 8 28 9
22 1 28 -3 29 -20 2 -21 1 -21 -12 -4 -8 12 -14 14 -17 6 -2 -6 -20 -13 -40
-14 -21 -1 -35 2 -32 6 2 4 0 10 -6 14 -13 8 -13 25 -1 25 5 0 16 -3 25 -6z
m177 -23 c1 -14 2 -13 6 2 2 9 11 17 18 17 14 0 10 -29 -4 -31 -46 -6 -53 -4
-61 15 -8 20 -9 20 -9 2 -1 -16 -4 -17 -13 -8 -10 10 -10 14 0 21 20 12 62 1
63 -18z m102 -1 c7 0 6 4 -3 10 -8 5 -10 10 -4 10 5 0 16 -6 22 -12 10 -10 15
-10 20 -1 9 15 102 13 102 -2 0 -5 5 -3 10 5 8 12 10 11 10 -7 0 -28 -16 -38
-24 -16 -6 14 -9 14 -15 4 -6 -10 -11 -9 -25 4 -12 12 -16 13 -17 3 0 -10 -2
-10 -6 1 -4 10 -7 10 -13 1 -4 -7 -28 -13 -52 -14 -42 -1 -44 0 -40 22 4 21 6
22 14 8 5 -9 14 -16 21 -16z m-3692 -42 l24 -43 6 45 c6 45 6 45 7 -14 2 -49
0 -57 -12 -47 -8 6 -19 25 -26 41 -17 40 -28 38 -33 -7 -3 -31 -4 -29 -5 15
-1 28 2 52 6 52 5 0 19 -19 33 -42z m117 -10 c3 -14 -3 -18 -23 -18 -17 0 -25
-5 -22 -12 2 -7 14 -13 26 -12 15 0 19 -2 11 -10 -23 -23 -60 24 -46 60 8 21
50 14 54 -8z m57 -10 c5 26 10 31 18 23 9 -9 9 -14 1 -19 -6 -4 -15 -18 -19
-31 -9 -29 -21 -17 -29 29 l-6 35 14 -35 13 -35 8 33z m53 -11 c-11 -35 -28
-42 -28 -11 0 8 5 12 10 9 6 -3 10 2 10 13 0 18 10 35 16 29 2 -2 -2 -19 -8
-40z m60 36 c-23 -6 -23 -15 2 -31 11 -7 20 -16 20 -21 0 -15 -41 -24 -52 -13
-8 8 -5 9 9 6 31 -8 38 14 9 26 -38 14 -33 41 8 39 17 -1 18 -2 4 -6z m-264
-280 c-8 -27 -19 -66 -25 -88 -6 -22 -15 -45 -21 -52 -5 -6 -13 -24 -18 -40
-6 -19 -9 13 -9 100 l-1 127 45 0 44 0 -15 -47z m273 -115 c-3 -8 -6 -5 -6 6
-1 11 2 17 5 13 3 -3 4 -12 1 -19z m383 12 c0 -5 -4 -10 -10 -10 -5 0 -10 5
-10 10 0 6 5 10 10 10 6 0 10 -4 10 -10z m2279 -17 c0 -5 -7 -24 -14 -43 l-13
-35 -1 43 c-1 31 3 42 14 42 8 0 15 -3 14 -7z m201 -180 c69 -19 131 -36 138
-38 7 -3 12 -24 12 -57 0 -30 -4 -48 -8 -41 -4 7 -30 20 -58 28 -59 18 -54 17
-54 5 0 -5 15 -14 33 -19 26 -7 14 -9 -63 -11 -52 0 -126 -2 -164 -3 l-68 -2
5 55 c3 30 11 72 17 93 11 38 12 39 48 32 20 -4 93 -22 162 -42z m-3031 16
c47 -12 118 -31 156 -41 221 -63 456 -128 493 -137 l42 -12 0 -92 c0 -96 -4
-109 -31 -119 -12 -5 -16 -2 -12 11 5 20 -17 30 -72 36 -16 2 -43 8 -58 14
-37 14 -37 14 -37 -7 0 -17 13 -22 68 -26 12 0 22 -4 22 -8 0 -5 6 -8 14 -8 8
0 17 -3 19 -7 3 -5 -92 -6 -211 -3 -120 3 -219 3 -222 -1 -3 -4 -27 -5 -55 -4
-27 2 -105 4 -172 6 l-123 4 0 50 c0 43 78 365 88 365 2 0 43 -10 91 -21z
m838 -121 c-2 -13 -4 -5 -4 17 -1 22 1 32 4 23 2 -10 2 -28 0 -40z m1056 -21
c8 -6 7 -7 -3 -4 -10 2 -15 17 -16 43 -1 37 -1 38 3 4 3 -19 10 -39 16 -43z
m544 21 c-2 -13 -4 -5 -4 17 -1 22 1 32 4 23 2 -10 2 -28 0 -40z m-1210 5 c-3
-10 -5 -4 -5 12 0 17 2 24 5 18 2 -7 2 -21 0 -30z m430 0 c-3 -10 -5 -4 -5 12
0 17 2 24 5 18 2 -7 2 -21 0 -30z m-627 12 c0 -8 -4 -15 -10 -15 -5 0 -7 7 -4
15 4 8 8 15 10 15 2 0 4 -7 4 -15z m100 -8 c12 -4 11 -6 -2 -6 -20 -1 -24 -16
-8 -24 6 -3 5 -4 -2 -3 -7 1 -14 16 -16 32 -1 16 1 24 5 18 4 -6 15 -14 23
-17z m330 0 c12 -4 11 -6 -2 -6 -20 -1 -24 -16 -8 -24 6 -3 5 -4 -2 -3 -7 1
-14 16 -16 32 -1 16 1 24 5 18 4 -6 15 -14 23 -17z m327 -14 c-3 -10 -5 -4 -5
12 0 17 2 24 5 18 2 -7 2 -21 0 -30z m217 21 c3 -8 2 -12 -4 -9 -6 3 -10 10
-10 16 0 14 7 11 14 -7z m133 -21 c-3 -10 -5 -4 -5 12 0 17 2 24 5 18 2 -7 2
-21 0 -30z m137 -16 c7 -6 6 -7 -4 -4 -8 2 -16 16 -17 33 -1 25 0 26 4 4 3
-14 10 -29 17 -33z m13 31 c-3 -8 -6 -5 -6 6 -1 11 2 17 5 13 3 -3 4 -12 1
-19z m77 6 c3 -8 2 -12 -4 -9 -6 3 -10 10 -10 16 0 14 7 11 14 -7z m-979 -3
c3 -5 1 -12 -5 -16 -5 -3 -10 1 -10 9 0 18 6 21 15 7z m462 -23 c-3 -7 -5 -2
-5 12 0 14 2 19 5 13 2 -7 2 -19 0 -25z m123 7 c0 -25 -23 -35 -35 -15 -3 6 1
7 9 4 9 -3 16 -1 16 5 0 6 -6 11 -12 11 -9 0 -8 4 2 10 20 13 20 13 20 -15z
m260 -1 c0 -2 -9 0 -20 6 -11 6 -20 13 -20 16 0 2 9 0 20 -6 11 -6 20 -13 20
-16z m-709 -1 c13 -17 13 -17 -6 -3 -11 8 -22 16 -24 17 -2 2 0 3 6 3 6 0 17
-8 24 -17z m1006 11 c-3 -3 -12 -4 -19 -1 -8 3 -5 6 6 6 11 1 17 -2 13 -5z
m-1177 -14 c0 -5 -5 -10 -11 -10 -5 0 -7 5 -4 10 3 6 8 10 11 10 2 0 4 -4 4
-10z m1225 0 c3 -5 1 -10 -4 -10 -6 0 -11 5 -11 10 0 6 2 10 4 10 3 0 8 -4 11
-10z m-820 -10 c-3 -5 -12 -10 -18 -10 -7 0 -6 4 3 10 19 12 23 12 15 0z
m-348 -6 c-3 -3 -12 -4 -19 -1 -8 3 -5 6 6 6 11 1 17 -2 13 -5z m970 0 c-3 -3
-12 -4 -19 -1 -8 3 -5 6 6 6 11 1 17 -2 13 -5z m150 0 c-3 -3 -12 -4 -19 -1
-8 3 -5 6 6 6 11 1 17 -2 13 -5z m-373 -123 c1 -16 -2 -27 -6 -24 -5 2 -8 18
-8 35 0 39 13 29 14 -11z m-1244 25 c0 -2 -7 -7 -16 -10 -8 -3 -12 -2 -9 4 6
10 25 14 25 6z m133 -3 c-7 -2 -13 -14 -14 -26 0 -12 -3 -16 -6 -9 -7 18 4 42
19 41 10 0 10 -2 1 -6z m77 3 c0 -2 -9 -6 -20 -9 -11 -3 -18 -1 -14 4 5 9 34
13 34 5z m87 -32 c1 -25 0 -26 -4 -4 -3 14 -10 29 -17 33 -7 6 -6 7 4 4 8 -2
16 -16 17 -33z m226 29 c-7 -2 -14 -17 -14 -31 -1 -18 -3 -21 -6 -9 -6 24 3
47 19 46 10 0 10 -2 1 -6z m164 1 c-3 -3 -12 -4 -19 -1 -8 3 -5 6 6 6 11 1 17
-2 13 -5z m123 2 c0 -2 -7 -7 -16 -10 -8 -3 -12 -2 -9 4 6 10 25 14 25 6z m60
0 c0 -2 -9 -6 -20 -9 -11 -3 -18 -1 -14 4 5 9 34 13 34 5z m55 -6 c3 -6 -1 -7
-9 -4 -18 7 -21 14 -7 14 6 0 13 -4 16 -10z m99 1 c4 -5 -3 -7 -14 -4 -23 6
-26 13 -6 13 8 0 17 -4 20 -9z m93 -17 c2 -13 1 -15 -4 -4 -3 8 -11 19 -17 23
-7 6 -6 7 4 4 8 -2 16 -12 17 -23z m260 20 c-3 -3 -12 -4 -19 -1 -8 3 -5 6 6
6 11 1 17 -2 13 -5z m67 -3 c4 -5 -3 -7 -14 -4 -23 6 -26 13 -6 13 8 0 17 -4
20 -9z m61 -2 c11 -16 1 -19 -13 -3 -7 8 -8 14 -3 14 5 0 13 -5 16 -11z m100
-18 c0 -16 -3 -27 -7 -24 -5 2 -8 15 -8 29 0 13 3 24 8 24 4 0 7 -13 7 -29z
m-398 -18 c-3 -10 -5 -4 -5 12 0 17 2 24 5 18 2 -7 2 -21 0 -30z m-660 -5 c-3
-7 -5 -2 -5 12 0 14 2 19 5 13 2 -7 2 -19 0 -25z m-620 -135 c-3 -10 -5 -2 -5
17 0 19 2 27 5 18 2 -10 2 -26 0 -35z m100 25 c-3 -8 -6 -5 -6 6 -1 11 2 17 5
13 3 -3 4 -12 1 -19z m360 -26 c43 -1 59 3 70 16 8 11 12 12 11 3 -4 -18 41
-25 60 -9 9 8 13 8 9 2 -4 -8 12 -12 53 -13 42 -1 60 3 60 11 0 9 3 9 8 3 11
-17 202 -19 202 -3 0 8 3 9 8 3 4 -6 31 -12 60 -13 44 -3 52 0 53 15 1 17 2
17 6 1 3 -13 15 -18 44 -18 30 0 39 4 40 18 1 16 2 16 6 0 2 -10 9 -18 14 -18
5 0 9 8 9 18 1 16 1 16 11 0 5 -10 19 -18 30 -18 12 0 17 4 13 11 -4 8 0 8 15
0 15 -8 97 -11 261 -10 132 1 243 -1 247 -4 3 -4 -380 -7 -852 -7 -472 0 -856
2 -854 5 3 2 82 5 177 6 149 2 172 4 173 18 1 14 2 14 6 0 3 -11 18 -16 60
-17z m1038 18 c3 -5 1 -10 -4 -10 -6 0 -11 5 -11 10 0 6 2 10 4 10 3 0 8 -4
11 -10z m-2482 -27 c-7 -2 -19 -2 -25 0 -7 3 -2 5 12 5 14 0 19 -2 13 -5z
m100 0 c-7 -2 -19 -2 -25 0 -7 3 -2 5 12 5 14 0 19 -2 13 -5z m74 1 c-3 -3
-12 -4 -19 -1 -8 3 -5 6 6 6 11 1 17 -2 13 -5z m66 -1 c-7 -2 -19 -2 -25 0 -7
3 -2 5 12 5 14 0 19 -2 13 -5z m185 0 c-10 -2 -26 -2 -35 0 -10 3 -2 5 17 5
19 0 27 -2 18 -5z m185 0 c-7 -2 -19 -2 -25 0 -7 3 -2 5 12 5 14 0 19 -2 13
-5z m44 1 c-3 -3 -12 -4 -19 -1 -8 3 -5 6 6 6 11 1 17 -2 13 -5z m96 -1 c-7
-2 -19 -2 -25 0 -7 3 -2 5 12 5 14 0 19 -2 13 -5z m-8713 -46 c0 -8 -7 -14
-15 -14 -25 0 -17 17 13 26 1 1 2 -5 2 -12z m77 -9 c-3 -8 -6 -5 -6 6 -1 11 2
17 5 13 3 -3 4 -12 1 -19z m-197 -23 c0 -8 -4 -15 -10 -15 -5 0 -7 7 -4 15 4
8 8 15 10 15 2 0 4 -7 4 -15z m250 -6 c0 -5 -23 -9 -51 -9 -31 0 -48 4 -44 10
3 6 17 7 30 4 12 -3 26 -1 29 5 7 11 36 4 36 -10z m40 6 c0 -8 -7 -15 -16 -15
-14 0 -14 3 -4 15 7 8 14 15 16 15 2 0 4 -7 4 -15z m106 6 c-4 -5 0 -12 6 -14
7 -3 3 -6 -9 -6 -16 -1 -21 3 -17 14 4 8 10 15 16 15 5 0 7 -4 4 -9z m-426
-11 c0 -5 -5 -10 -11 -10 -5 0 -7 5 -4 10 3 6 8 10 11 10 2 0 4 -4 4 -10z
m115 0 c3 -5 -1 -10 -10 -10 -9 0 -13 5 -10 10 3 6 8 10 10 10 2 0 7 -4 10
-10z m42 -6 c-3 -3 -12 -4 -19 -1 -8 3 -5 6 6 6 11 1 17 -2 13 -5z m11651 -96
c18 -18 15 -94 -4 -112 -18 -18 -76 -21 -105 -6 -14 8 -19 21 -19 55 0 69 5
75 64 75 29 0 57 -5 64 -12z m-2150 -20 c7 -7 12 -26 12 -43 0 -17 -5 -36 -12
-43 -14 -14 -84 -16 -93 -2 -12 19 -14 51 -5 76 8 20 16 24 48 24 21 0 43 -5
50 -12z m-3003 -68 c3 -6 -1 -7 -9 -4 -18 7 -21 14 -7 14 6 0 13 -4 16 -10z
m-122 -7 c-7 -2 -21 -2 -30 0 -10 3 -4 5 12 5 17 0 24 -2 18 -5z"/>
<path d="M12161 9329 c-6 -18 -11 -34 -11 -35 0 -2 18 -4 40 -4 63 0 66 46 4
64 -18 6 -24 1 -33 -25z"/>
<path d="M12132 9208 c-10 -38 -1 -48 44 -48 57 0 69 46 18 69 -40 18 -53 13
-62 -21z"/>
<path d="M6281 9155 c-22 -24 -41 -50 -40 -57 0 -7 10 -35 23 -63 l23 -50 5
70 c3 39 13 85 22 104 26 48 14 47 -33 -4z"/>
<path d="M7160 8720 c-41 -41 -13 -110 44 -110 40 0 66 26 66 67 0 57 -69 84
-110 43z"/>
<path d="M7588 8729 c-25 -14 -24 -65 1 -79 48 -25 101 -1 101 45 0 39 -60 59
-102 34z"/>
<path d="M7582 8594 c-47 -33 -15 -94 51 -94 26 0 40 6 51 22 21 30 20 44 -4
68 -24 24 -67 26 -98 4z"/>
<path d="M8084 8604 c-43 -42 -15 -104 47 -104 37 0 59 24 59 65 0 24 -7 39
-22 49 -32 23 -55 20 -84 -10z"/>
<path d="M11737 8722 c-13 -14 -17 -39 -17 -105 0 -98 11 -117 65 -117 50 0
65 28 65 122 0 65 -3 81 -20 98 -25 25 -72 26 -93 2z"/>
<path d="M12077 8722 c-13 -14 -17 -39 -17 -104 0 -96 13 -118 67 -118 50 0
63 25 63 118 0 69 -3 85 -20 102 -25 25 -72 26 -93 2z"/>
<path d="M13560 8690 l0 -50 48 0 c51 0 82 20 82 53 0 25 -40 47 -87 47 l-43
0 0 -50z"/>
<path d="M13560 8555 l0 -55 48 0 c56 0 92 21 92 55 0 39 -25 55 -86 55 l-54
0 0 -55z"/>
<path d="M5820 6380 c-24 -44 21 -92 65 -72 53 24 38 92 -20 92 -24 0 -37 -6
-45 -20z"/>
<path d="M2722 4193 l3 -2028 3115 -3 c1713 -1 3126 0 3139 3 l23 6 -6 2012
c-4 1107 -6 2018 -6 2025 0 9 -634 12 -3135 12 l-3135 0 2 -2027z m738 1533
c0 -88 -5 -105 -36 -117 -27 -10 -74 4 -74 22 0 6 7 8 15 5 8 -3 21 -9 29 -12
29 -12 46 24 46 102 0 43 4 74 10 74 6 0 10 -31 10 -74z m164 -8 c16 -46 31
-89 34 -95 8 -24 -15 -13 -26 12 -10 21 -19 25 -52 25 -34 0 -42 -4 -50 -25
-5 -14 -15 -25 -21 -25 -7 0 -8 7 -4 18 4 9 18 47 30 84 13 38 27 72 30 78 15
25 32 4 59 -72z m103 47 c9 -19 20 -35 24 -35 4 0 16 16 28 35 32 54 46 41 15
-14 l-28 -49 27 -41 c29 -44 32 -51 18 -51 -5 0 -19 16 -31 35 -12 19 -25 35
-29 35 -3 0 -15 -16 -25 -35 -11 -19 -25 -35 -33 -35 -9 0 -7 11 10 38 13 20
26 42 30 48 3 6 -7 32 -23 58 -22 34 -26 46 -15 46 9 0 23 -16 32 -35z m167 0
c11 -19 22 -35 26 -35 4 0 15 16 26 35 10 19 25 35 32 35 10 0 7 -10 -9 -37
-12 -21 -26 -42 -30 -47 -5 -5 0 -21 10 -35 31 -45 43 -71 31 -71 -6 0 -20 16
-31 35 -12 19 -24 35 -28 35 -5 0 -16 -16 -27 -35 -10 -19 -25 -35 -32 -35
-14 0 -10 10 34 74 12 17 11 24 -1 43 -8 13 -22 34 -31 48 -13 20 -14 25 -2
25 7 0 22 -16 32 -35z m-748 -32 c16 -16 20 -123 4 -123 -5 0 -10 26 -12 58
-3 56 -3 57 -33 57 l-30 0 3 -57 c3 -37 0 -58 -7 -58 -6 0 -11 20 -11 48 0 53
-12 72 -47 72 -21 0 -23 -4 -23 -60 0 -33 -4 -60 -10 -60 -15 0 -13 127 3 133
30 11 149 4 163 -10z m84 -31 c0 -53 12 -72 47 -72 21 0 23 4 23 54 0 30 5 58
10 61 6 4 10 -27 10 -85 0 -86 -1 -91 -24 -101 -25 -12 -76 -5 -76 10 0 4 17
8 38 7 31 -1 38 3 40 20 3 18 -1 21 -23 16 -42 -8 -65 22 -65 85 0 29 5 53 10
53 6 0 10 -22 10 -48z m4228 -432 c12 -22 28 -37 35 -35 11 5 72 -94 63 -103
-3 -2 -17 19 -31 48 -43 84 -40 49 3 -42 22 -46 50 -119 62 -163 29 -105 50
-156 61 -150 15 10 57 -68 78 -145 11 -41 30 -126 42 -187 12 -62 25 -113 30
-113 14 0 19 -53 21 -230 2 -176 -5 -274 -22 -320 -5 -14 -16 -50 -24 -80 -8
-30 -22 -64 -30 -75 -15 -19 -15 -18 -16 15 0 19 9 50 20 68 20 33 28 59 9 32
-9 -14 -7 51 6 212 2 21 -1 41 -6 44 -5 3 -9 -7 -9 -22 0 -15 -9 -41 -20 -60
-12 -18 -28 -66 -36 -106 -8 -40 -19 -77 -25 -83 -5 -5 -9 -19 -9 -32 0 -13
-6 -23 -14 -23 -14 0 -41 -59 -31 -68 2 -3 -1 -14 -7 -26 -6 -11 -13 -41 -15
-65 -2 -25 -12 -54 -22 -66 -10 -11 -28 -42 -40 -70 -35 -79 -63 -132 -84
-157 -11 -13 -5 3 12 37 17 33 24 50 14 37 -10 -12 -41 -47 -70 -77 -29 -31
-60 -68 -69 -84 -9 -16 -29 -36 -45 -45 -16 -9 -36 -30 -46 -46 -22 -38 -65
-43 -57 -7 3 12 7 39 8 60 2 23 17 58 38 90 63 92 115 190 152 284 20 51 36
95 36 98 0 3 15 25 34 49 18 25 48 71 67 103 18 32 36 60 40 63 4 3 14 21 23
40 8 19 20 42 25 50 97 161 104 598 14 885 -14 44 -32 89 -39 100 -8 11 -14
27 -14 35 0 26 -131 276 -176 337 -16 21 -20 33 -12 35 28 10 55 -6 76 -42z
m-3088 20 c-6 -11 -15 -20 -20 -20 -6 0 -5 9 2 20 7 11 16 20 21 20 4 0 3 -9
-3 -20z m199 -7 c-43 -48 -105 -135 -139 -198 -18 -33 -41 -69 -50 -80 -9 -11
-30 -45 -46 -75 -15 -30 -40 -73 -55 -95 -38 -57 -89 -161 -89 -181 0 -10 -6
-25 -14 -33 -22 -26 -64 -186 -81 -311 -30 -219 -11 -556 42 -740 42 -145 134
-331 230 -462 94 -128 292 -312 402 -375 25 -14 80 -48 122 -74 42 -26 89 -51
105 -56 28 -7 27 -7 -15 -13 -60 -9 -302 1 -295 11 3 5 -1 9 -8 9 -18 0 -150
95 -162 117 -5 10 -21 27 -35 38 -93 72 -216 217 -286 338 -32 57 -28 73 6 22
13 -19 29 -35 35 -35 7 0 11 -8 10 -17 0 -10 4 -18 9 -18 6 0 27 -18 47 -40
53 -58 56 -38 5 36 -24 35 -62 96 -85 134 -42 72 -117 244 -109 251 2 2 17
-26 32 -63 29 -69 89 -188 108 -211 18 -22 19 -5 2 22 -21 32 -125 256 -125
270 0 5 7 1 16 -10 14 -18 15 -18 8 6 -3 14 -13 36 -20 50 -10 20 -13 21 -14
7 0 -10 -4 -16 -9 -13 -4 3 -7 -7 -5 -22 2 -15 -10 14 -27 63 -33 98 -63 240
-74 350 -4 39 -14 85 -21 104 -19 45 -18 253 1 436 13 130 50 292 88 385 8 19
17 43 20 53 4 10 11 16 16 13 5 -4 -1 -39 -15 -84 -21 -68 -43 -198 -57 -332
-6 -56 2 -37 42 105 18 61 36 124 41 141 6 17 10 37 10 45 0 19 36 95 64 134
31 44 58 105 63 145 2 19 16 53 31 75 39 59 63 107 66 133 2 13 14 34 26 47
22 23 31 25 119 25 l95 0 -25 -27z m2975 -1 c8 -15 23 -36 35 -46 11 -10 18
-23 15 -28 -3 -5 0 -16 7 -24 6 -8 9 -17 6 -20 -3 -3 -13 8 -22 25 -9 18 -20
29 -25 26 -5 -3 -14 4 -20 16 -8 15 -9 19 -1 15 17 -11 13 3 -10 35 -11 16
-16 29 -10 29 6 0 17 -12 25 -28z m-3204 -36 c0 -2 -7 -7 -16 -10 -8 -3 -12
-2 -9 4 6 10 25 14 25 6z m3689 -28 c44 -69 68 -144 37 -116 -8 7 -11 17 -8
22 3 5 0 6 -6 2 -7 -4 -9 -19 -5 -36 3 -19 1 -30 -5 -30 -7 0 -9 -7 -5 -17 4
-11 3 -14 -5 -9 -7 4 -12 18 -12 31 0 13 -7 30 -15 39 -20 20 -30 103 -14 122
16 19 22 18 38 -8z m-3798 -124 c-39 -77 -40 -78 -41 -42 0 20 6 41 13 45 6 4
23 30 37 56 14 27 26 42 28 34 2 -8 -15 -50 -37 -93z m3683 57 c4 -5 -4 -7
-16 -4 -20 4 -21 3 -8 -9 20 -17 52 -68 44 -68 -4 0 -16 8 -26 17 -15 13 -21
14 -27 5 -6 -10 -12 -6 -25 13 -14 21 -14 28 -4 40 15 16 54 20 62 6z m56 -39
c0 -7 -4 -10 -10 -7 -5 3 -10 16 -10 28 0 18 2 19 10 7 5 -8 10 -21 10 -28z
m-1746 -51 c-12 -9 -25 -27 -28 -39 -4 -12 -13 -22 -21 -22 -7 0 -18 -13 -24
-30 -5 -17 -17 -30 -27 -30 -13 0 -15 -8 -12 -40 4 -42 0 -48 -20 -28 -9 10
-16 8 -29 -5 -16 -16 -16 -17 4 -17 12 0 39 -17 60 -37 21 -20 44 -37 51 -37
13 -1 32 -24 32 -39 0 -5 -4 -5 -10 -2 -5 3 -10 0 -10 -8 0 -8 7 -18 16 -21
20 -8 64 32 64 57 0 10 7 20 15 23 8 4 15 15 15 25 0 11 7 22 16 26 8 3 20 16
25 29 4 13 15 24 23 24 14 0 61 -65 61 -85 0 -5 7 -10 15 -10 8 -1 14 -6 13
-13 -2 -7 5 -12 15 -13 11 0 12 -2 4 -6 -9 -3 -5 -13 13 -31 15 -15 22 -28 16
-30 -17 -6 0 -65 26 -89 29 -28 29 -47 1 -61 -22 -10 -22 -11 -3 -12 19 -1 19
-2 3 -14 -16 -11 -16 -15 -2 -34 8 -12 24 -22 34 -22 10 0 22 -4 25 -10 3 -5
14 -10 24 -10 23 0 61 -39 40 -41 -42 -5 -56 -3 -71 10 -12 9 -31 12 -59 8
-35 -5 -40 -3 -33 11 4 10 9 38 12 63 3 42 1 47 -19 52 -14 4 -33 0 -48 -10
-23 -15 -26 -15 -43 7 -24 29 -24 54 0 45 27 -10 72 -18 72 -12 0 2 -11 12
-25 21 -24 16 -29 16 -57 2 -61 -31 -158 -12 -158 31 0 11 6 14 23 9 37 -12
50 -12 54 1 4 11 -45 43 -65 43 -6 0 -17 -18 -25 -39 -9 -22 -21 -42 -27 -46
-14 -9 -13 31 2 55 15 24 6 35 -19 20 -13 -8 -26 -9 -45 -1 -28 11 -58 51 -38
51 6 0 9 4 5 9 -3 6 11 13 30 17 42 7 41 25 -1 38 -16 4 -36 12 -45 17 -22 10
-29 2 -30 -35 0 -30 -1 -30 -11 -8 -6 12 -20 22 -31 22 -18 0 -19 -5 -14 -56
3 -30 13 -68 23 -82 16 -26 16 -26 -1 -11 -9 9 -25 41 -34 70 -13 39 -25 58
-44 67 -24 12 -27 19 -27 68 0 48 3 56 24 63 28 11 108 2 118 -13 4 -6 12 3
19 22 7 19 21 37 35 42 13 5 24 16 24 25 0 9 12 20 26 25 14 6 28 19 31 30 3
11 11 20 18 20 7 0 18 7 25 15 7 9 16 13 19 9 3 -3 -4 -13 -15 -23z m1776 9
c0 -5 -4 -12 -10 -15 -5 -3 -10 -4 -10 -1 0 2 -3 12 -6 20 -5 12 -2 15 10 10
9 -3 16 -10 16 -14z m360 -45 c-7 -8 -10 -22 -6 -30 7 -19 -1 -19 -21 0 -13
14 -12 17 9 34 26 22 37 19 18 -4z m-4219 -79 c-27 -62 -35 -59 -9 4 11 28 23
48 25 46 3 -2 -4 -25 -16 -50z m1798 8 c28 -9 31 -12 13 -13 -13 -1 -38 -17
-56 -36 -24 -26 -42 -35 -65 -35 -17 0 -31 2 -31 4 0 2 -3 13 -6 23 -5 16 -5
17 6 1 8 -14 16 -15 36 -8 43 17 59 39 46 61 -18 28 -15 44 4 28 9 -8 33 -19
53 -25z m-119 19 c0 -13 -14 -27 -37 -40 -30 -17 -32 -17 -26 8 7 24 63 53 63
32z m452 -60 c-7 -3 -17 -16 -22 -29 -5 -13 -16 -24 -25 -24 -8 0 -15 -8 -15
-19 0 -22 -39 -36 -55 -20 -7 8 -3 16 13 26 12 9 22 24 22 35 0 20 31 37 70
37 14 -1 19 -3 12 -6z m-695 -44 c6 -6 9 -17 7 -24 -4 -9 3 -11 20 -8 18 4 28
0 32 -11 3 -9 14 -16 24 -16 10 0 23 -7 30 -15 7 -8 19 -15 26 -15 17 0 18
-12 2 -28 -9 -9 -9 -15 0 -24 15 -15 45 9 38 29 -3 8 -1 11 4 8 15 -9 12 -35
-5 -41 -17 -7 -21 -44 -4 -44 6 0 17 -7 25 -15 9 -8 21 -15 27 -15 8 0 8 3 0
11 -6 6 -9 18 -6 26 4 11 9 8 17 -9 7 -14 20 -22 32 -21 40 4 52 -86 13 -99
-7 -2 -9 -9 -5 -17 6 -9 14 -7 31 9 13 12 28 19 34 16 5 -4 12 -2 15 2 5 9 46
6 76 -5 8 -4 21 -5 29 -4 7 1 10 -2 6 -8 -3 -6 1 -11 9 -11 12 0 16 -10 16
-41 0 -30 -3 -38 -12 -32 -7 4 -50 8 -96 9 -67 1 -82 -1 -78 -12 13 -35 -28
-61 -77 -49 -19 5 -22 11 -19 41 3 24 0 34 -10 34 -7 0 -28 14 -46 30 -36 32
-47 36 -57 19 -5 -7 -15 -5 -31 6 -14 9 -39 15 -57 13 -32 -3 -32 -3 -34 47
-2 40 -8 55 -28 73 -14 12 -33 22 -41 22 -8 0 -14 7 -14 15 0 9 -7 18 -15 21
-8 4 -15 13 -15 21 0 8 4 12 9 9 5 -3 26 0 46 7 l37 13 -26 17 c-14 10 -40 20
-57 24 -34 6 -27 22 12 27 13 2 31 6 39 9 53 20 63 20 77 6z m-197 -73 c0 -3
-4 -8 -10 -11 -5 -3 -10 -1 -10 4 0 6 5 11 10 11 6 0 10 -2 10 -4z m-32 -49
c-5 -33 -31 -42 -62 -21 l-28 18 20 17 c29 23 74 14 70 -14z m-105 -37 c-27
-11 -28 -16 -9 -36 16 -15 46 -19 46 -5 0 5 9 11 20 14 14 4 21 -2 28 -21 6
-20 3 -30 -15 -50 -23 -25 -23 -25 -46 -6 -12 10 -25 23 -29 28 -4 6 -17 5
-34 -2 -14 -7 -29 -10 -32 -7 -4 3 4 8 16 12 22 5 22 7 6 24 -19 21 -34 25
-34 8 0 -5 6 -7 13 -3 10 6 10 4 0 -7 -9 -9 -16 -10 -24 -2 -7 7 -24 8 -52 1
-49 -11 -100 -2 -76 13 7 5 30 8 49 7 19 -1 46 4 59 11 12 7 32 10 43 7 11 -2
27 2 35 10 8 8 24 14 36 13 l22 0 -22 -9z m185 1 c11 -7 11 -9 -1 -14 -9 -3
-18 1 -21 9 -6 16 2 18 22 5z m695 -98 c4 -2 5 -9 2 -14 -6 -8 -65 16 -65 26
0 5 49 -4 63 -12z m302 -13 c3 -6 -1 -7 -9 -4 -18 7 -21 14 -7 14 6 0 13 -4
16 -10z m-230 -70 c11 -5 31 -11 45 -13 19 -3 17 -5 -9 -6 -19 0 -42 -7 -50
-15 -27 -24 -62 -23 -78 0 -12 19 -12 24 2 38 17 16 47 15 90 -4z m-845 -264
c-7 -7 -10 -2 -11 15 -3 44 1 123 9 174 6 41 8 30 10 -64 2 -69 -1 -118 -8
-125z m142 16 c-2 -77 -7 -130 -13 -127 -5 4 -9 23 -10 43 0 30 -2 33 -9 17
-7 -15 -9 -10 -9 23 -1 23 4 42 9 42 6 0 10 34 10 82 0 68 2 80 13 68 9 -11
12 -50 9 -148z m468 154 c0 -3 -4 -8 -10 -11 -5 -3 -10 -1 -10 4 0 6 5 11 10
11 6 0 10 -2 10 -4z m543 -83 c-7 -2 -19 -2 -25 0 -7 3 -2 5 12 5 14 0 19 -2
13 -5z m-1442 -70 c2 -24 2 -25 6 -5 5 24 23 31 23 8 0 -7 6 -25 13 -39 13
-25 13 -25 38 -6 31 24 56 24 63 1 6 -19 -22 -91 -49 -126 -31 -40 -8 -85 24
-50 10 11 26 42 36 69 10 28 29 67 42 87 12 21 23 47 23 58 0 11 4 20 9 20 13
0 19 -60 11 -115 -4 -27 -8 -42 -9 -32 -2 27 -16 20 -34 -18 -21 -44 -22 -75
-3 -75 18 0 44 36 81 110 33 65 60 102 69 93 14 -14 4 -56 -30 -123 -20 -40
-33 -74 -31 -77 3 -2 23 12 45 31 22 20 43 36 46 36 16 0 -32 -63 -61 -80 -31
-18 -33 -23 -33 -75 0 -30 -4 -55 -9 -55 -5 0 -7 26 -4 58 6 68 -6 63 -37 -18
-21 -55 -50 -94 -81 -111 -12 -6 -24 -2 -41 14 l-24 22 18 42 c18 42 41 64 97
95 17 9 31 22 31 28 0 8 -6 8 -21 0 -11 -6 -33 -8 -49 -5 -29 6 -68 -8 -82
-29 -5 -7 -8 -5 -8 5 0 9 -7 22 -15 29 -24 20 -18 57 20 121 19 32 31 59 27
59 -19 0 -72 -63 -72 -85 0 -17 -4 -23 -14 -19 -10 4 -23 -11 -41 -46 -14 -28
-30 -48 -35 -45 -18 11 -10 65 15 105 26 41 32 70 16 70 -15 0 -70 -71 -94
-122 -12 -26 -25 -47 -29 -48 -20 -1 -4 73 30 139 38 76 62 99 62 62 0 -12 4
-21 8 -21 18 0 32 26 32 57 0 40 19 45 21 6z m994 -251 l-17 -133 -220 2
c-185 2 -218 4 -213 16 3 8 5 19 5 25 0 8 63 9 209 4 l209 -7 6 93 c4 51 12
136 19 188 l12 95 3 -75 c2 -41 -4 -135 -13 -208z m784 257 c29 -27 21 -35
-18 -15 -17 9 -36 15 -42 14 -6 -2 -14 3 -16 10 -8 21 51 14 76 -9z m-1065
-16 c7 -26 -5 -43 -31 -43 -13 0 -18 51 -6 63 14 15 31 6 37 -20z m926 -17 c0
-41 -7 -47 -38 -35 l-24 9 24 29 c30 39 38 38 38 -3z m-800 4 c0 -11 -4 -20
-10 -20 -5 0 -10 9 -10 20 0 11 5 20 10 20 6 0 10 -9 10 -20z m230 -70 c0 -40
-4 -70 -10 -70 -11 0 -14 98 -4 124 11 29 14 17 14 -54z m-497 3 c-6 -84 -11
-88 -12 -10 -1 37 3 67 7 67 5 0 7 -26 5 -57z m1190 43 c4 -10 0 -12 -14 -9
-21 6 -25 -15 -20 -119 3 -64 -9 -98 -20 -58 -13 45 -10 168 4 173 9 4 8 8 -3
16 -12 9 -9 11 16 11 18 0 34 -6 37 -14z m-389 -21 c19 -28 21 -65 4 -65 -6 0
-20 -7 -30 -17 -17 -15 -18 -14 -18 39 0 74 14 88 44 43z m-267 -27 c-3 -8 -6
-5 -6 6 -1 11 2 17 5 13 3 -3 4 -12 1 -19z m-277 -112 c0 -3 -4 -8 -10 -11 -5
-3 -10 -1 -10 4 0 6 5 11 10 11 6 0 10 -2 10 -4z m650 -40 c0 -2 -7 -6 -15
-10 -8 -3 -15 -1 -15 4 0 6 7 10 15 10 8 0 15 -2 15 -4z m55 -15 c3 -11 3 -61
0 -110 -3 -55 -2 -91 4 -91 28 0 61 21 61 40 0 11 4 20 9 20 5 0 3 14 -6 31
-19 37 -14 42 21 26 17 -7 25 -18 23 -28 -6 -22 2 -32 36 -46 21 -10 27 -19
26 -40 -2 -24 -2 -25 -6 -5 -5 27 -33 30 -33 3 0 -26 -10 -51 -21 -51 -5 0 -9
6 -9 14 0 27 -28 40 -65 29 -24 -8 -37 -7 -45 1 -7 7 -13 7 -18 1 -5 -7 -59
-1 -157 16 -110 20 -138 27 -105 29 42 2 43 2 15 10 -16 5 -70 11 -118 15
l-88 7 3 39 c2 43 5 46 22 25 7 -10 36 -15 86 -18 l75 -3 3 38 c2 21 8 37 16
37 17 0 53 -40 58 -65 3 -16 17 -21 78 -31 113 -18 118 -15 117 62 -2 63 6 82
18 45z m-415 -21 c0 -5 -5 -10 -11 -10 -5 0 -7 5 -4 10 3 6 8 10 11 10 2 0 4
-4 4 -10z m97 -26 c-3 -3 -12 -4 -19 -1 -8 3 -5 6 6 6 11 1 17 -2 13 -5z m500
-51 c-3 -10 -5 -2 -5 17 0 19 2 27 5 18 2 -10 2 -26 0 -35z m-585 -65 c-7 -7
-12 -25 -12 -40 0 -15 -5 -28 -11 -28 -5 0 -8 4 -4 9 3 5 1 12 -4 15 -13 9 11
56 29 56 11 0 11 -3 2 -12z m-819 -20 c-11 -13 -25 -32 -31 -43 -6 -11 -12
-15 -12 -10 0 17 39 75 52 75 6 0 3 -10 -9 -22z m502 -7 c112 -24 152 -38 138
-52 -6 -6 -19 -6 -34 -1 -59 23 -172 33 -222 20 -47 -12 -51 -11 -65 10 -11
16 -25 22 -56 23 -35 1 -37 2 -16 9 45 14 163 10 255 -9z m-285 -9 c0 -13 -14
-20 -61 -29 -69 -13 -93 -28 -69 -43 8 -5 31 -10 50 -10 21 0 31 -3 24 -10 -5
-5 -30 -6 -59 -2 -42 6 -51 11 -53 31 -2 13 0 27 5 32 7 7 105 36 161 48 1 1
2 -7 2 -17z m535 8 c3 -5 -1 -10 -9 -10 -9 0 -16 5 -16 10 0 6 4 10 9 10 6 0
13 -4 16 -10z m-1010 -70 c14 -5 24 -14 20 -20 -4 -6 -15 -5 -30 2 -19 8 -31
8 -50 0 -23 -11 -25 -17 -25 -76 0 -78 12 -91 73 -82 39 5 40 5 23 -9 -25 -19
-66 -19 -94 1 -19 13 -22 24 -22 85 0 97 32 127 105 99z m160 -9 c0 -8 -13
-15 -30 -16 -17 -1 -41 -6 -54 -10 -16 -5 -21 -4 -17 4 4 6 15 11 25 11 10 0
24 7 31 15 15 19 45 16 45 -4z m315 -2 c0 -5 -7 -9 -15 -9 -15 0 -20 12 -9 23
8 8 24 -1 24 -14z m529 7 c31 -17 11 -30 -23 -15 -46 21 -103 -23 -63 -48 6
-4 32 -15 57 -23 39 -13 45 -19 48 -47 2 -23 -3 -35 -20 -47 -28 -20 -78 -21
-104 -2 -24 18 -13 31 14 17 44 -23 92 -7 92 30 0 11 -13 22 -37 29 -59 19
-83 38 -83 65 0 46 67 70 119 41z m464 -1 c-3 -9 -8 -14 -10 -11 -3 3 -2 9 2
15 9 16 15 13 8 -4z m-617 -13 c-3 -5 -24 -9 -48 -10 l-43 0 45 12 c48 13 55
13 46 -2z m704 -52 c0 -40 -4 -70 -10 -70 -6 0 -10 30 -10 70 0 40 4 70 10 70
6 0 10 -30 10 -70z m-860 40 c-35 -11 -82 -11 -100 0 -10 7 6 9 55 9 50 -1 63
-3 45 -9z m-530 -39 c15 -30 12 -92 -7 -113 -20 -22 -61 -23 -85 -1 -21 19
-25 102 -6 121 20 20 86 15 98 -7z m230 -1 c13 -24 13 -130 0 -130 -5 0 -10
22 -10 49 0 67 -7 81 -40 81 l-28 0 5 -60 c5 -48 3 -60 -9 -60 -10 0 -13 9
-10 35 7 60 -4 85 -38 85 l-30 0 0 -65 c0 -37 -4 -65 -10 -65 -11 0 -14 132
-4 143 3 3 41 5 85 5 67 0 81 -2 89 -18z m70 -56 c0 -47 -4 -73 -10 -69 -5 3
-10 37 -10 76 0 39 4 69 10 69 6 0 10 -32 10 -76z m150 57 c13 -25 14 -139 1
-125 -6 5 -11 34 -13 64 l-3 55 -37 3 -38 3 0 -66 c0 -42 -4 -64 -10 -60 -11
7 -14 128 -3 138 3 4 26 7 49 7 33 0 46 -5 54 -19z m168 -57 c2 -39 -2 -83 -8
-98 -9 -24 -14 -27 -52 -24 -23 2 -43 8 -45 15 -3 9 3 9 27 0 28 -11 33 -10
46 7 21 29 17 36 -18 36 -44 0 -68 25 -68 71 0 51 22 71 74 67 l41 -3 3 -71z
m380 64 c7 -7 12 -36 12 -65 0 -41 -4 -54 -19 -63 -26 -14 -54 -13 -74 3 -21
15 -26 99 -7 122 15 18 71 20 88 3z m159 -19 c20 -41 4 -101 -30 -113 -17 -6
-35 -6 -52 2 -22 10 -25 17 -25 66 0 62 14 78 65 73 21 -1 34 -10 42 -28z
m151 19 c14 -17 20 -122 7 -126 -6 -1 -12 24 -15 55 l-5 58 -35 0 -35 0 -1
-58 c-1 -71 -14 -88 -15 -21 -2 96 1 104 49 104 22 0 44 -6 50 -12z m-616 -53
c-2 -14 -6 -25 -7 -25 -1 0 -5 11 -7 25 -3 16 -1 25 7 25 8 0 10 -9 7 -25z
m-2152 -62 c0 -22 6 -36 20 -43 16 -8 20 -21 20 -60 0 -39 3 -50 16 -50 10 0
14 -5 10 -15 -3 -9 1 -18 9 -21 8 -4 15 -12 15 -20 0 -7 8 -17 17 -23 10 -5
15 -12 12 -15 -3 -4 -20 7 -37 24 -21 19 -37 27 -48 23 -14 -5 -16 -2 -10 20
4 16 2 27 -4 27 -5 0 -10 5 -10 11 0 5 4 8 8 5 5 -3 9 8 9 24 0 28 -1 28 -46
24 -25 -2 -59 -6 -76 -9 -16 -2 -7 3 21 12 51 15 52 16 50 53 0 21 -4 36 -8
33 -11 -6 -10 1 3 34 8 22 12 24 19 13 6 -8 10 -29 10 -47z m2850 -8 c0 -8 -4
-15 -9 -15 -13 0 -22 16 -14 24 11 11 23 6 23 -9z m-1169 -105 c-7 -46 -9 -49
-10 -19 -1 42 12 112 16 89 2 -8 -1 -40 -6 -70z m854 31 c-3 -12 -12 -21 -20
-21 -7 0 -16 -8 -19 -17 -5 -11 -10 -13 -17 -6 -14 14 0 43 22 43 10 0 18 3
18 8 -4 24 2 35 12 25 6 -6 8 -20 4 -32z m-1075 -11 c11 -7 6 -10 -20 -10 -26
0 -31 3 -20 10 8 5 17 10 20 10 3 0 12 -5 20 -10z m2350 -39 c-5 -11 -15 -23
-22 -27 -7 -5 -8 -2 -3 7 21 37 44 55 25 20z m-3837 -77 c-16 -12 -14 -13 11
-4 26 10 28 9 16 -5 -11 -13 -11 -18 -2 -24 9 -5 4 -12 -15 -20 -23 -11 -29
-10 -40 5 -7 9 -10 20 -8 24 2 4 9 20 15 35 9 23 13 25 25 15 13 -11 13 -14
-2 -26z m1692 16 c-3 -5 -12 -10 -18 -10 -7 0 -6 4 3 10 19 12 23 12 15 0z
m692 -16 c-3 -3 -12 -4 -19 -1 -8 3 -5 6 6 6 11 1 17 -2 13 -5z m-2309 -76
c-2 -23 1 -33 12 -34 35 -2 39 -5 37 -23 -1 -21 -18 -22 -102 -3 -86 18 -94
24 -64 46 30 21 67 22 50 2 -10 -11 -9 -14 1 -12 25 5 48 18 48 27 0 4 -8 6
-17 2 -15 -5 -14 -3 2 10 30 24 37 21 33 -15z m3653 5 c-12 -20 -14 -14 -5 12
4 9 9 14 11 11 3 -2 0 -13 -6 -23z m-3360 -55 c12 -23 -9 -24 -37 -3 -15 12
-16 16 -5 24 7 5 10 15 7 22 -10 19 23 -22 35 -43z m1354 32 c3 -5 -1 -10 -10
-10 -9 0 -13 5 -10 10 3 6 8 10 10 10 2 0 7 -4 10 -10z m650 -10 c3 -5 1 -10
-4 -10 -6 0 -11 5 -11 10 0 6 2 10 4 10 3 0 8 -4 11 -10z m-2545 -45 c7 -9 11
-16 9 -18 -46 -26 -49 -27 -49 -12 0 8 4 15 10 15 5 0 7 7 4 15 -8 20 10 19
26 0z m306 -91 c-4 -13 0 -27 9 -34 20 -16 20 -60 0 -60 -21 0 -19 -9 7 -30
l22 -17 -21 -11 c-19 -10 -24 -8 -42 24 -12 19 -21 41 -21 49 0 8 -4 17 -10
20 -5 3 -9 21 -9 38 1 18 3 24 6 15 2 -10 8 -18 13 -18 5 0 6 -8 3 -17 -6 -16
-5 -17 11 -3 11 8 14 16 7 18 -6 2 -11 15 -11 28 0 14 4 22 10 19 6 -3 10 -2
10 4 0 5 -4 13 -10 16 -5 3 -10 12 -10 18 1 7 10 1 21 -12 13 -16 18 -33 15
-47z m-69 34 c-3 -8 -6 -5 -6 6 -1 11 2 17 5 13 3 -3 4 -12 1 -19z m3485 -45
c-13 -23 -51 -58 -57 -52 -2 3 9 22 26 43 32 38 49 43 31 9z m-70 -80 c-6 -2
-10 -8 -7 -13 2 -4 -4 -15 -15 -25 -14 -13 -20 -14 -20 -5 0 17 30 50 44 49 6
0 6 -3 -2 -6z m-172 -42 c-19 -10 -37 -17 -39 -15 -8 8 34 33 54 34 14 0 10
-5 -15 -19z m65 9 c-3 -5 -10 -10 -16 -10 -5 0 -9 5 -9 10 0 6 7 10 16 10 8 0
12 -4 9 -10z m-2985 -35 c0 -9 6 -12 15 -9 10 4 15 0 15 -14 0 -32 -16 -35
-39 -6 -25 32 -26 44 -6 44 8 0 15 -7 15 -15z m-25 -41 c13 -5 14 -8 3 -15
-19 -13 -28 -11 -28 6 0 17 2 18 25 9z m2861 -7 c-1 -6 -9 -22 -17 -35 -13
-18 -18 -20 -22 -9 -3 8 1 24 9 36 17 23 33 28 30 8z m1034 -17 c24 -15 7 -18
-20 -3 -14 7 -18 13 -10 13 8 0 22 -4 30 -10z m85 -15 c14 -13 25 -30 25 -37
0 -7 -6 -4 -12 7 -14 25 -30 36 -44 31 -6 -2 -11 2 -11 10 0 21 15 17 42 -11z
m-721 -52 c19 -21 45 -51 57 -68 l23 -30 -24 20 c-13 11 -32 29 -42 40 -17 20
-17 20 -34 -3 -9 -13 -22 -21 -30 -18 -7 3 -16 1 -19 -4 -3 -4 1 -11 7 -13 7
-3 0 -6 -15 -6 -33 -1 -83 -36 -67 -46 27 -17 -103 -125 -150 -125 -8 1 5 10
29 21 55 26 94 61 96 87 1 11 7 27 14 36 11 13 11 16 -2 16 -9 0 -18 -4 -21
-8 -3 -5 -22 -9 -42 -10 -33 -1 -41 9 -11 14 7 1 21 4 32 6 11 2 31 10 45 18
14 8 35 15 47 17 46 4 89 52 63 68 -5 3 -10 10 -10 16 0 19 20 8 54 -28z m667
-7 c-11 -14 -22 -126 -12 -126 4 0 12 5 19 12 9 9 12 8 12 -4 0 -9 -5 -18 -12
-20 -8 -3 -7 -16 5 -46 18 -46 22 -77 6 -50 -6 11 -16 15 -26 11 -11 -4 -14
-3 -9 6 4 6 1 22 -7 34 -27 42 -7 220 23 202 8 -5 8 -11 1 -19z m-1155 2 c5
-8 0 -9 -16 -5 -17 4 -20 3 -11 -6 15 -15 14 -27 -3 -27 -8 0 -17 8 -20 17
-11 26 35 46 50 21z m49 -27 c-5 -16 -9 -18 -19 -8 -11 10 -10 14 3 24 20 14
25 10 16 -16z m1155 -9 c0 -15 -2 -15 -10 -2 -13 20 -13 33 0 25 6 -3 10 -14
10 -23z m-2623 -14 c-3 -7 -5 -2 -5 12 0 14 2 19 5 13 2 -7 2 -19 0 -25z
m1323 -52 c32 -32 30 -43 -10 -48 -14 -2 -31 -7 -38 -12 -7 -4 -15 -6 -17 -5
-4 4 -7 79 -6 124 l1 30 19 -30 c11 -16 34 -43 51 -59z m-2410 -29 c0 -6 -3
-7 -7 -4 -3 4 -11 -3 -17 -14 -6 -12 -15 -20 -20 -18 -9 4 -15 67 -8 82 5 10
52 -32 52 -46z m3371 -11 c36 -77 43 -106 24 -106 -23 0 -56 66 -60 120 -2 27
-2 50 1 50 3 0 18 -29 35 -64z m-3509 12 c-7 -7 -12 -8 -12 -2 0 6 3 14 7 17
3 4 9 5 12 2 2 -3 -1 -11 -7 -17z m2918 7 c-7 -8 -16 -12 -21 -9 -5 3 -9 -6
-9 -20 0 -14 -2 -26 -4 -26 -2 0 -12 -3 -21 -6 -14 -6 -15 -4 -7 12 6 10 13
27 16 36 2 9 15 18 28 21 13 2 25 5 27 6 2 0 -2 -6 -9 -14z m-536 -24 c17 -7
16 -8 -8 -24 -24 -16 -27 -16 -45 0 -11 9 -18 20 -15 25 6 10 42 9 68 -1z
m266 -71 c-19 -16 -39 -30 -44 -30 -12 0 -5 7 36 36 46 32 50 29 8 -6z m-232
13 c-20 -3 -28 -10 -28 -24 0 -10 -7 -19 -15 -19 -15 0 -21 31 -8 43 3 4 22 6
42 6 30 -2 32 -3 9 -6z m-1111 -39 c-3 -3 -12 -4 -19 -1 -8 3 -5 6 6 6 11 1
17 -2 13 -5z m703 -149 c0 -4 -7 -20 -16 -37 -22 -42 -22 -144 0 -186 9 -18
12 -32 7 -32 -20 0 -43 63 -44 120 -2 55 25 140 45 140 4 0 8 -2 8 -5z m526
-41 c25 -61 10 -201 -23 -212 -9 -2 -9 6 2 32 19 46 19 134 0 179 -18 43 -19
50 -4 41 6 -3 17 -21 25 -40z m-3321 -7 c7 -6 -3 -7 -29 -3 -55 10 -76 -11
-76 -80 0 -45 4 -56 24 -69 18 -12 29 -13 51 -5 31 12 48 4 25 -10 -29 -19
-88 -12 -104 12 -18 26 -21 109 -5 139 19 36 85 45 114 16z m1905 -72 c0 -69
3 -86 18 -95 15 -9 14 -10 -8 -8 -24 3 -26 8 -34 85 -9 83 -4 119 14 108 5 -3
10 -44 10 -90z m-1700 8 c0 -81 5 -96 30 -106 10 -4 8 -6 -7 -6 -12 -1 -27 8
-33 18 -13 25 -13 171 0 171 6 0 10 -33 10 -77z m80 0 c0 -81 5 -96 30 -106
10 -4 8 -6 -7 -6 -12 -1 -27 8 -33 18 -13 25 -13 171 0 171 6 0 10 -33 10 -77z
m624 55 c10 -14 16 -44 16 -75 0 -71 -21 -93 -90 -93 l-50 0 0 95 0 95 54 0
c45 0 58 -4 70 -22z m1142 -54 c-1 -64 2 -78 18 -90 27 -19 42 -18 66 6 16 16
20 33 20 90 0 44 4 70 11 70 8 0 10 -26 7 -81 -3 -66 -7 -83 -23 -95 -22 -16
-73 -18 -95 -4 -19 12 -32 180 -14 180 7 0 11 -27 10 -76z m344 66 c0 -5 -4
-10 -10 -10 -5 0 -10 5 -10 10 0 6 5 10 10 10 6 0 10 -4 10 -10z m523 -72 c-3
-46 -10 -89 -16 -96 -13 -16 -79 -12 -85 6 -3 9 3 10 23 2 44 -17 55 1 55 91
0 61 3 79 14 79 11 0 13 -16 9 -82z m79 46 c21 -36 22 -36 37 -17 9 12 21 29
27 39 7 11 15 16 19 12 4 -3 -5 -26 -19 -50 l-25 -43 30 -48 c18 -29 24 -47
16 -47 -7 0 -21 16 -31 35 -11 19 -23 35 -28 35 -5 0 -18 -16 -29 -35 -12 -19
-27 -35 -35 -35 -9 0 -3 15 16 44 17 24 30 48 30 53 0 4 -11 25 -25 45 -28 41
-30 48 -15 48 6 0 20 -16 32 -36z m169 0 c24 -40 22 -41 63 21 8 11 17 17 21
13 4 -3 -5 -24 -19 -45 -14 -20 -26 -41 -26 -46 0 -5 14 -28 30 -53 19 -27 26
-44 18 -44 -7 0 -25 19 -39 41 l-26 41 -24 -41 c-12 -22 -29 -41 -36 -41 -9 0
-4 15 17 44 16 25 30 47 30 51 0 3 -11 23 -25 43 -27 39 -31 52 -16 52 5 0 19
-16 32 -36z m679 -59 l0 -95 -44 0 c-54 0 -71 18 -70 73 2 46 22 67 66 67 23
0 28 4 28 25 0 14 5 25 10 25 6 0 10 -38 10 -95z m152 45 c43 0 68 -25 68 -67
0 -57 -15 -73 -65 -73 -40 0 -44 2 -47 28 -4 37 5 174 10 140 3 -24 8 -28 34
-28z m-3352 15 c0 -8 9 -15 20 -15 11 0 20 -4 20 -10 0 -5 -9 -10 -21 -10 -18
0 -20 -5 -17 -47 2 -39 7 -50 28 -60 l25 -13 -27 0 c-17 0 -31 7 -38 19 -13
25 -13 151 0 151 6 0 10 -7 10 -15z m920 0 c0 -8 9 -15 20 -15 11 0 20 -4 20
-10 0 -5 -9 -10 -20 -10 -17 0 -20 -7 -20 -44 0 -35 5 -48 22 -60 22 -15 22
-16 2 -16 -11 0 -25 5 -32 12 -15 15 -17 158 -2 158 6 0 10 -7 10 -15z m905
-15 c8 0 15 -4 15 -10 0 -5 -7 -10 -15 -10 -11 0 -15 -12 -15 -50 0 -43 3 -52
23 -60 20 -9 19 -9 -8 -7 l-30 2 -2 85 c-2 63 0 80 8 68 5 -10 17 -18 24 -18z
m-2334 -16 c7 -9 14 -33 14 -54 0 -21 -7 -45 -14 -54 -16 -19 -72 -21 -89 -4
-19 19 -15 105 6 117 26 16 68 13 83 -5z m300 6 c12 -7 19 -21 19 -40 0 -29
-2 -30 -45 -30 -32 0 -45 -4 -45 -14 0 -24 26 -36 61 -30 26 4 30 3 19 -5 -20
-14 -73 -14 -88 1 -18 18 -15 94 4 112 18 18 47 20 75 6z m154 1 c3 -6 -12
-11 -32 -13 -36 -3 -38 -5 -41 -41 -4 -49 13 -71 50 -63 15 3 28 1 28 -4 0 -6
-18 -10 -40 -10 -29 0 -42 5 -50 19 -15 29 -12 87 6 105 17 17 69 22 79 7z
m469 -13 c30 -43 21 -58 -34 -58 -53 0 -65 -15 -34 -41 12 -10 22 -10 45 -2
23 9 29 9 26 0 -4 -14 -67 -21 -85 -9 -22 15 -27 78 -8 107 21 33 68 34 90 3z
m146 12 c11 -7 6 -10 -22 -10 -27 0 -40 -6 -48 -19 -26 -50 2 -96 52 -85 21 4
28 3 24 -5 -9 -15 -69 -14 -84 1 -16 16 -16 100 0 116 14 14 57 15 78 2z m134
-12 c30 -43 21 -58 -34 -58 -53 0 -65 -15 -34 -41 12 -10 22 -10 45 -2 23 9
29 9 26 0 -2 -7 -22 -13 -45 -15 -37 -3 -43 0 -52 23 -23 61 0 115 50 115 18
0 34 -8 44 -22z m147 6 c17 -20 26 -124 10 -124 -7 0 -11 19 -11 48 0 55 -12
72 -52 72 -28 0 -28 -1 -28 -60 0 -33 -4 -60 -10 -60 -11 0 -14 123 -3 133 13
13 81 7 94 -9z m224 6 c-3 -5 -17 -10 -31 -10 -23 0 -24 -3 -24 -60 0 -33 -4
-60 -10 -60 -11 0 -14 123 -3 133 11 11 75 8 68 -3z m120 -14 c10 -15 15 -40
13 -68 l-3 -43 -45 -3 c-33 -3 -47 1 -57 14 -7 10 -13 21 -13 25 0 19 35 39
66 39 37 0 37 0 28 24 -4 11 -19 16 -46 16 -23 0 -37 4 -33 10 3 6 22 10 40
10 25 0 39 -6 50 -24z m486 8 c17 -20 26 -124 10 -124 -6 0 -11 19 -11 48 0
65 -10 77 -62 73 -15 -1 -18 -11 -18 -61 0 -33 -4 -60 -10 -60 -15 0 -13 127
3 133 26 11 75 6 88 -9z m79 -54 c0 -40 -4 -70 -10 -70 -6 0 -10 30 -10 70 0
40 4 70 10 70 6 0 10 -30 10 -70z m140 27 c0 -54 18 -80 51 -75 22 3 24 8 27
61 4 84 22 70 22 -19 0 -97 -9 -114 -60 -114 -21 0 -42 5 -46 11 -4 8 3 9 25
4 34 -7 61 7 61 31 0 9 -8 12 -27 8 -44 -8 -63 14 -70 79 -4 39 -2 57 6 57 6
0 11 -18 11 -43z m990 24 c5 -11 10 -43 10 -71 l0 -51 -52 3 c-47 3 -53 6 -56
26 -5 33 15 52 55 52 27 0 34 4 31 18 -2 12 -14 18 -41 20 -46 4 -39 22 8 22
24 0 38 -6 45 -19z m148 7 c12 -15 15 -39 12 -93 -2 -38 -3 -37 -14 20 -11 58
-12 60 -43 63 l-33 3 0 -60 c0 -34 -4 -61 -10 -61 -11 0 -14 123 -3 133 11 12
80 8 91 -5z m520 -1 c6 -6 13 -24 17 -40 7 -27 7 -27 -44 -27 -54 0 -67 -15
-35 -41 12 -10 22 -10 45 -2 23 9 29 9 26 0 -6 -19 -72 -20 -91 -2 -20 21 -21
74 0 103 17 25 65 30 82 9z m142 3 c11 -7 6 -10 -22 -10 -43 0 -48 -6 -50 -55
-2 -43 15 -58 56 -49 19 4 26 3 22 -5 -9 -15 -69 -14 -84 1 -19 19 -15 105 6
117 22 13 53 13 72 1z m134 -6 c19 -18 22 -94 4 -112 -22 -22 -76 -15 -94 13
-17 27 -14 76 7 102 15 18 64 17 83 -3z m231 -7 c16 -23 21 -117 5 -117 -5 0
-10 26 -12 58 -3 56 -3 57 -35 60 l-33 3 0 -60 c0 -34 -4 -61 -9 -61 -4 0 -6
11 -3 25 2 14 1 41 -2 60 -6 31 -11 35 -36 35 -30 0 -30 0 -30 -60 0 -33 -4
-60 -10 -60 -11 0 -14 122 -4 133 3 3 39 5 80 5 64 0 76 -3 89 -21z m149 7 c9
-8 16 -26 16 -40 0 -22 -4 -24 -45 -24 -38 0 -45 -3 -45 -19 0 -24 32 -36 59
-22 11 7 22 7 25 2 13 -21 -72 -29 -92 -9 -19 19 -15 105 6 117 25 15 58 13
76 -5z"/>
<path d="M3562 5731 c-16 -52 -16 -51 18 -51 17 0 30 5 30 12 0 18 -23 78 -30
78 -4 0 -12 -17 -18 -39z"/>
<path d="M7771 4324 c0 -11 3 -14 6 -6 3 7 2 16 -1 19 -3 4 -6 -2 -5 -13z"/>
<path d="M7760 4226 c0 -9 5 -16 10 -16 6 0 10 4 10 9 0 6 -4 13 -10 16 -5 3
-10 -1 -10 -9z"/>
<path d="M4012 4210 c0 -14 2 -19 5 -12 2 6 2 18 0 25 -3 6 -5 1 -5 -13z"/>
<path d="M4300 3090 c6 -11 13 -20 16 -20 2 0 0 9 -6 20 -6 11 -13 20 -16 20
-2 0 0 -9 6 -20z"/>
<path d="M4338 2935 c11 -16 51 -59 88 -95 l68 -65 -74 80 c-101 110 -106 114
-82 80z"/>
<path d="M4350 2951 c0 -14 161 -161 176 -161 7 0 -25 38 -71 85 -79 79 -105
98 -105 76z"/>
<path d="M4614 2661 c11 -11 23 -21 28 -21 14 0 -1 19 -25 31 -22 12 -22 12
-3 -10z"/>
<path d="M7992 5188 c5 -15 28 -23 28 -10 0 5 -7 13 -16 16 -10 4 -14 1 -12
-6z"/>
<path d="M6252 4708 c3 -7 13 -15 22 -16 12 -3 17 1 14 10 -3 7 -13 15 -22 16
-12 3 -17 -1 -14 -10z"/>
<path d="M5515 4850 c-7 -12 2 -12 30 0 19 8 19 9 -2 9 -12 1 -25 -3 -28 -9z"/>
<path d="M5837 4503 c-11 -3 -16 -10 -13 -20 3 -8 6 -17 6 -19 0 -14 19 0 28
21 12 25 11 26 -21 18z"/>
<path d="M5228 3973 c-28 -30 -52 -82 -43 -92 7 -7 35 28 65 82 25 44 15 48
-22 10z"/>
<path d="M6680 3909 c0 -5 5 -7 10 -4 6 3 10 8 10 11 0 2 -4 4 -10 4 -5 0 -10
-5 -10 -11z"/>
<path d="M5194 3666 c-14 -57 17 -103 54 -80 21 13 28 70 11 90 -19 23 -58 18
-65 -10z"/>
<path d="M5804 3665 c-3 -14 -3 -37 0 -51 6 -21 11 -25 39 -22 31 3 32 5 35
51 l3 47 -35 0 c-30 0 -37 -4 -42 -25z"/>
<path d="M6206 3682 c-10 -17 -10 -82 1 -93 6 -6 21 -9 34 -7 22 3 24 8 24 53
0 47 -2 50 -27 53 -14 2 -29 -1 -32 -6z"/>
<path d="M6354 3677 c-3 -8 -4 -32 -2 -53 3 -34 7 -39 30 -42 35 -4 52 25 40
70 -6 26 -14 34 -35 36 -17 2 -29 -2 -33 -11z"/>
<path d="M4300 2321 l0 -81 38 0 c51 0 62 14 62 76 0 59 -11 72 -64 81 l-36 6
0 -82z"/>
<path d="M7258 2328 c-15 -15 -19 -28 -14 -51 7 -35 22 -48 51 -45 17 3 21 12
23 54 3 45 0 52 -18 57 -14 4 -29 -2 -42 -15z"/>
<path d="M7464 2327 c-3 -8 -4 -32 -2 -53 3 -33 7 -39 29 -42 35 -4 51 19 47
65 -3 35 -6 38 -36 41 -21 2 -34 -2 -38 -11z"/>
<path d="M3557 2333 c-4 -3 -7 -25 -7 -49 0 -39 11 -54 40 -54 33 0 53 73 28
98 -13 13 -50 16 -61 5z"/>
<path d="M3867 2334 c-4 -4 -7 -16 -7 -26 0 -14 8 -18 36 -18 31 0 35 3 32 23
-2 15 -11 23 -28 25 -14 2 -29 0 -33 -4z"/>
<path d="M4476 2324 c-9 -23 2 -34 34 -34 32 0 43 11 34 34 -4 9 -18 16 -34
16 -16 0 -30 -7 -34 -16z"/>
<path d="M4756 2324 c-9 -24 1 -33 35 -32 35 1 45 13 29 33 -16 20 -56 19 -64
-1z"/>
<path d="M5262 2279 c-26 -10 -28 -22 -8 -39 23 -18 61 -8 64 16 4 25 -22 35
-56 23z"/>
<path d="M6942 2258 c2 -18 10 -23 33 -23 23 0 31 5 33 23 3 19 -1 22 -33 22
-32 0 -36 -3 -33 -22z"/>
<path d="M7616 2324 c-9 -23 2 -34 34 -34 32 0 43 11 34 34 -4 9 -18 16 -34
16 -16 0 -30 -7 -34 -16z"/>
<path d="M7886 2325 c-20 -53 6 -102 48 -91 25 6 27 10 24 54 -3 45 -5 47 -34
50 -22 2 -33 -2 -38 -13z"/>
<path d="M8277 2334 c-4 -4 -7 -16 -7 -26 0 -14 8 -18 36 -18 31 0 35 3 32 23
-2 15 -11 23 -28 25 -14 2 -29 0 -33 -4z"/>
<path d="M12672 6204 c-16 -11 -22 -25 -22 -53 0 -47 14 -61 61 -61 65 0 90
60 44 105 -28 29 -51 31 -83 9z"/>
<path d="M13986 6165 c-10 -26 -7 -35 9 -35 17 0 19 18 6 38 -7 11 -10 10 -15
-3z"/>
<path d="M16191 5364 c0 -11 3 -14 6 -6 3 7 2 16 -1 19 -3 4 -6 -2 -5 -13z"/>
<path d="M14400 4702 c0 -8 39 -47 75 -73 11 -7 5 4 -14 26 -36 42 -61 62 -61
47z"/>
<path d="M15170 5500 c0 -5 5 -10 10 -10 6 0 10 5 10 10 0 6 -4 10 -10 10 -5
0 -10 -4 -10 -10z"/>
<path d="M15927 4384 c-4 -4 -7 -18 -7 -31 0 -17 6 -23 21 -23 16 0 20 5 17
27 -3 26 -18 39 -31 27z"/>
<path d="M16037 4384 c-4 -4 -7 -18 -7 -31 0 -17 6 -23 21 -23 16 0 20 5 17
27 -3 26 -18 39 -31 27z"/>
<path d="M13987 4384 c-4 -4 -7 -18 -7 -31 0 -17 6 -23 21 -23 16 0 20 5 17
27 -3 26 -18 39 -31 27z"/>
<path d="M14147 4384 c-13 -13 -7 -24 14 -24 11 0 19 5 17 12 -5 14 -22 21
-31 12z"/>
<path d="M14617 4384 c-13 -13 -7 -24 14 -24 11 0 19 5 17 12 -5 14 -22 21
-31 12z"/>
<path d="M14870 4340 c0 -5 9 -10 20 -10 11 0 20 5 20 10 0 6 -9 10 -20 10
-11 0 -20 -4 -20 -10z"/>
<path d="M15760 4340 c0 -5 9 -10 20 -10 11 0 20 5 20 10 0 6 -9 10 -20 10
-11 0 -20 -4 -20 -10z"/>
<path d="M16117 4384 c-13 -13 -7 -24 14 -24 11 0 19 5 17 12 -5 14 -22 21
-31 12z"/>
<path d="M14387 4184 c-13 -13 -7 -24 14 -24 11 0 19 5 17 12 -5 14 -22 21
-31 12z"/>
<path d="M14617 4184 c-13 -13 -7 -24 14 -24 11 0 19 5 17 12 -5 14 -22 21
-31 12z"/>
<path d="M15057 4184 c-13 -13 -7 -24 14 -24 11 0 19 5 17 12 -5 14 -22 21
-31 12z"/>
<path d="M16985 3490 c10 -11 20 -20 23 -20 3 0 -3 9 -13 20 -10 11 -20 20
-23 20 -3 0 3 -9 13 -20z"/>
<path d="M14820 3760 c0 -5 7 -10 15 -10 8 0 15 5 15 10 0 6 -7 10 -15 10 -8
0 -15 -4 -15 -10z"/>
<path d="M15084 3785 c-7 -17 4 -37 17 -30 12 8 12 45 -1 45 -6 0 -13 -7 -16
-15z"/>
<path d="M15364 3785 c-3 -8 -3 -19 1 -25 11 -18 25 -11 25 15 0 27 -17 34
-26 10z"/>
<path d="M15625 3790 c-3 -5 1 -10 10 -10 9 0 13 5 10 10 -3 6 -8 10 -10 10
-2 0 -7 -4 -10 -10z"/>
<path d="M13795 3040 c-3 -5 3 -10 14 -10 12 0 21 5 21 10 0 6 -6 10 -14 10
-8 0 -18 -4 -21 -10z"/>
<path d="M16768 2453 c7 -3 16 -2 19 1 4 3 -2 6 -13 5 -11 0 -14 -3 -6 -6z"/>
<path d="M16831 2446 c-9 -10 -8 -16 4 -26 13 -11 15 -8 15 14 0 30 -3 32 -19
12z"/>
<path d="M16870 2450 c-8 -34 -5 -38 27 -48 28 -9 35 -8 40 4 8 21 -6 32 -17
14 -8 -13 -10 -12 -10 3 0 9 -4 17 -10 17 -5 0 -7 -8 -4 -17 3 -10 -2 -7 -10
7 -8 14 -16 23 -16 20z"/>
<path d="M16954 2409 c-3 -6 -1 -16 5 -22 6 -6 11 -7 11 -3 0 5 7 3 15 -4 12
-10 16 -9 21 4 4 9 4 20 0 23 -12 12 -45 13 -52 2z"/>
<path d="M16837 2389 c7 -7 15 -10 18 -7 3 3 -2 9 -12 12 -14 6 -15 5 -6 -5z"/>
<path d="M16877 2379 c7 -7 15 -10 18 -7 3 3 -2 9 -12 12 -14 6 -15 5 -6 -5z"/>
<path d="M13929 2353 c-13 -17 -12 -17 4 -4 16 13 20 13 28 0 7 -11 9 -11 9 4
0 9 -6 17 -14 17 -7 0 -20 -8 -27 -17z"/>
<path d="M13985 2357 c-4 -10 -5 -21 -1 -24 10 -10 18 4 13 24 -4 17 -4 17
-12 0z"/>
<path d="M14028 2362 c9 -7 10 -15 3 -35 -6 -15 -6 -29 -1 -32 5 -3 11 4 14
15 3 11 9 29 12 40 4 16 1 20 -18 20 -16 0 -19 -3 -10 -8z"/>
<path d="M14085 2330 c-16 -18 -16 -20 -1 -36 20 -19 31 -11 40 29 8 33 -12
37 -39 7z"/>
<path d="M14166 2323 c-4 -11 -1 -22 8 -29 22 -16 20 -27 -4 -19 -11 3 -20 2
-20 -3 0 -16 31 -23 46 -11 11 9 14 8 14 -4 0 -17 22 -28 37 -19 6 4 14 22 18
40 5 25 3 33 -10 38 -9 4 -22 1 -28 -6 -10 -10 -8 -12 6 -7 9 4 17 2 17 -3 0
-6 -5 -10 -11 -10 -6 0 -8 -9 -4 -22 5 -19 0 -16 -24 12 -22 26 -26 36 -15 38
8 2 12 8 9 13 -10 15 -32 10 -39 -8z"/>
<path d="M14293 2303 c-7 -3 -13 -9 -13 -14 0 -4 7 -6 15 -3 8 4 15 1 15 -5 0
-6 -5 -11 -11 -11 -8 0 -7 -6 2 -16 12 -15 11 -16 -9 -10 -25 8 -31 -11 -6
-21 20 -7 32 5 40 43 6 32 -7 46 -33 37z"/>
<path d="M14120 2264 c0 -8 5 -12 10 -9 6 3 10 10 10 16 0 5 -4 9 -10 9 -5 0
-10 -7 -10 -16z"/>
<path d="M14372 2268 c-7 -7 -12 -24 -12 -39 0 -32 29 -48 46 -24 10 14 12 13
17 -5 6 -24 42 -27 51 -4 18 48 -8 89 -38 59 -12 -12 -15 -12 -19 5 -6 22 -27
26 -45 8z m31 -28 c-3 -11 -9 -23 -14 -26 -10 -6 -12 39 -3 49 12 12 22 -3 17
-23z m57 -15 c0 -14 -4 -25 -10 -25 -11 0 -14 33 -3 43 11 11 13 8 13 -18z"/>
<path d="M13931 2254 c0 -11 3 -14 6 -6 3 7 2 16 -1 19 -3 4 -6 -2 -5 -13z"/>
<path d="M14065 2218 c1 -7 8 -12 14 -10 6 1 25 -5 41 -13 37 -19 40 -19 40 3
0 14 -2 15 -10 2 -8 -13 -10 -12 -10 4 0 12 -5 16 -14 13 -8 -3 -17 -1 -19 6
-3 9 -8 9 -19 -1 -11 -9 -18 -9 -21 -2 -3 6 -4 5 -2 -2z"/>
<path d="M14175 2191 c-6 -11 1 -16 38 -25 20 -5 27 -3 27 8 0 18 -27 29 -34
13 -3 -9 -5 -9 -5 1 -1 14 -17 16 -26 3z"/>
<path d="M14255 2170 c-3 -5 8 -16 25 -25 28 -14 31 -14 37 1 10 26 -47 49
-62 24z"/>
<path d="M17297 1864 c-4 -4 -7 -29 -7 -56 l0 -48 51 0 50 0 -3 53 -3 52 -40
3 c-23 2 -44 0 -48 -4z"/>
<path d="M15162 1803 c3 -36 5 -38 38 -38 33 0 35 2 38 38 l3 37 -41 0 -41 0
3 -37z"/>
<path d="M10478 3834 c-43 -23 -80 -114 -46 -114 6 0 9 -2 6 -5 -3 -3 -26 3
-51 12 -45 17 -48 17 -91 -4 -33 -16 -49 -33 -66 -69 -21 -43 -22 -52 -12
-108 14 -74 48 -142 85 -169 25 -19 31 -20 77 -8 38 10 58 10 84 1 46 -15 80
-4 115 35 45 52 48 86 12 123 -39 38 -42 95 -9 137 l22 28 -29 24 c-28 25 -61
27 -110 8 -15 -5 -13 -1 8 16 28 24 53 87 39 100 -4 4 -19 1 -34 -7z"/>
<path d="M9340 2885 l0 -185 33 0 c17 -1 561 -1 1207 -2 l1175 -1 6 179 c3 98
4 182 2 187 -2 4 -548 7 -1214 7 l-1209 0 0 -185z"/>
<path d="M9614 1807 c-12 -7 -13 -12 -3 -23 18 -21 227 -20 236 1 3 9 4 17 2
19 -8 8 -221 10 -235 3z"/>
<path d="M9310 1790 c0 -17 7 -20 40 -20 33 0 40 3 40 20 0 17 -7 20 -40 20
-33 0 -40 -3 -40 -20z"/>
<path d="M9422 1793 c2 -14 13 -18 43 -18 30 0 41 4 43 18 3 14 -4 17 -43 17
-39 0 -46 -3 -43 -17z"/>
<path d="M1030 1739 c77 -32 412 -96 615 -119 61 -7 113 -16 117 -19 4 -4 -45
-29 -110 -56 l-117 -50 2173 -3 c1196 -1 3149 -1 4340 0 l2167 3 -70 33 c-38
18 -87 41 -107 50 -21 9 -38 20 -38 23 0 3 30 9 68 13 165 17 420 72 547 120
36 13 -182 14 -1995 10 -2520 -5 -2976 -5 -5550 0 -1400 3 -2057 2 -2040 -5z"/>
</g>
</svg>
