<svg xmlns="http://www.w3.org/2000/svg" viewBox="0 0 507.92 205.14"><defs><style>.cls-1{fill:#fff;}.cls-2{fill:#f26a21;}</style></defs><title>Jaxx_Reversed_Icon_Orange_Large_RGB_Screen</title><g id="Layer_2" data-name="Layer 2"><g id="Layer_1-2" data-name="Layer 1"><path class="cls-1" d="M371.48,153.38h0a19.36,19.36,0,0,0-.18-24.6L356.45,111l6.5-7.78A19.35,19.35,0,0,1,392.65,128Zm71.91.24-86.94-104L371.3,31.82a19.36,19.36,0,0,0,.18-24.6h0l35.86,42.91L443.39,7a19.35,19.35,0,0,1,29.7,24.82L432.56,80.31l40.53,48.5a19.35,19.35,0,0,1-29.7,24.82Z"/><path class="cls-2" d="M95.76,26A18.27,18.27,0,0,1,107.65,8.87c13.91-5.21,29-8.12,49.57-8.12,24.06,0,41.46,6.38,52.48,17.4,11.59,11.59,16.81,28.7,16.81,49.58v70.73A21.16,21.16,0,0,1,205,159.63c-12.76,0-21.16-9-21.16-18.26v-.29c-10.73,11.88-25.52,19.72-47,19.72-29.28,0-53.34-16.82-53.34-47.55v-.58c0-33.92,25.8-49.57,62.62-49.57a110.43,110.43,0,0,1,38,6.38V66.86c0-18.26-11.31-28.41-33.34-28.41A101,101,0,0,0,120.4,42.8,18.74,18.74,0,0,1,114,44,17.94,17.94,0,0,1,95.76,26Zm89,69.29a68.38,68.38,0,0,0-28.12-5.8c-18.85,0-30.44,7.54-30.44,21.46v.57c0,11.89,9.85,18.85,24.06,18.85,20.58,0,34.5-11.3,34.5-27.24ZM24.64,205.14h.58c29,0,47-15.65,47-49.86V22.8a22,22,0,1,0-44.07,0V155c0,10.44-4.35,14.5-10.73,14.5h-.29c-9.28,0-17.11,7-17.11,17.69C0,199.35,10.44,205.14,24.64,205.14Zm298-104.36A19.35,19.35,0,0,0,320.25,128l21.35,25.56a19.35,19.35,0,0,0,29.7-24.82l-21.35-25.56A19.35,19.35,0,0,0,322.69,100.78Zm-82.86,28a19.35,19.35,0,1,0,29.7,24.82L371.3,31.82A19.35,19.35,0,0,0,341.6,7L305.52,50.18l-36-43.23a19.35,19.35,0,1,0-29.7,24.82L280.3,80.37Z"/><path class="cls-1" d="M497.66,139.4a10.33,10.33,0,0,0-10.27,10.33v.06a10.27,10.27,0,1,0,20.54-.06v-.06A10.24,10.24,0,0,0,497.66,139.4Zm9.09,10.33a9.09,9.09,0,1,1-18.17.06v-.06a9.12,9.12,0,0,1,9.09-9.21,9,9,0,0,1,9.09,9.15Z"/><path class="cls-1" d="M502.38,147.6c0-2.18-1.71-3.3-4-3.3h-3.72a1,1,0,0,0-1,1v8.62a1,1,0,0,0,1,1.06,1,1,0,0,0,1-1.06v-2.77h2.13l2.71,3.31a1.2,1.2,0,0,0,.94.53,1,1,0,0,0,.94-1,1.14,1.14,0,0,0-.3-.77l-2-2.36A3.31,3.31,0,0,0,502.38,147.6Zm-4.19,1.89h-2.54v-3.42h2.54c1.36,0,2.12.59,2.12,1.71S499.54,149.49,498.19,149.49Z"/></g></g></svg>