<?xml version="1.0" encoding="utf-8"?>
<!-- Generator: Adobe Illustrator 22.1.0, SVG Export Plug-In . SVG Version: 6.00 Build 0)  -->
<svg version="1.1" id="jaxx_liberty" xmlns="http://www.w3.org/2000/svg" xmlns:xlink="http://www.w3.org/1999/xlink" x="0px"
	 y="0px" viewBox="0 0 274.7 136.7" style="enable-background:new 0 0 274.7 136.7;" xml:space="preserve">
<style type="text/css">
	.st0{fill:#264176;}
	.st1{fill:#FF6901;}
</style>
<path class="st0" d="M187.7,51.1c-3.7-3.1-9.3-2.6-12.4,1.1l-3,3.5l6.8,8.1c0.2,0.2,0.4,0.5,0.5,0.7l0,0c2.1,3.2,2,7.4-0.5,10.5
	l9.6-11.5C191.9,59.8,191.4,54.2,187.7,51.1z"/>
<path class="st0" d="M224.3,7.3c-3.7-3.1-9.3-2.6-12.4,1.1L195.5,28L179.3,8.5c2.6,3.3,2.6,8-0.1,11.2l-6.8,8.1l39.5,47.3
	c3.1,3.7,8.7,4.2,12.4,1.1s4.2-8.7,1.1-12.4L207,41.7l18.4-22C228.5,16,228,10.4,224.3,7.3z"/>
<path class="st1" d="M178,7.3c-3.7-3.1-9.3-2.6-12.4,1.1L149.2,28L132.8,8.4c-3.1-3.7-8.7-4.2-12.4-1.1c-3.7,3.1-4.2,8.7-1.1,12.4
	l18.4,22.1l-18.4,22c-3.1,3.7-2.6,9.3,1.1,12.4s9.3,2.6,12.4-1.1l46.3-55.4C182.2,16,181.7,10.4,178,7.3z"/>
<path class="st1" d="M33.3,5.4C27.7,5.3,23.1,9.7,23,15.3c0,0.1,0,0.2,0,0.3v60.1c0,4.7-2,6.6-4.9,6.6H18c-4.2,0-7.8,3.2-7.8,8
	c0.1,5.6,4.8,8.2,11.3,8.2h0.3c13.2,0,21.4-7.1,21.4-22.7V15.6C43.3,10.1,38.9,5.5,33.3,5.4z"/>
<path class="st1" d="M81.7,5.5c-9.3,0-16.2,1.3-22.5,3.7c-3.2,1.2-5.4,4.3-5.4,7.8c0,4.7,3.7,8.2,8.3,8.2c1,0,2-0.2,2.9-0.5
	c3.8-1.2,8.3-2,13.8-2c10.1,0,15.2,4.6,15.2,12.9v1.2c-5-1.7-10.2-2.9-17.3-2.9C60,33.9,48.3,41,48.1,56.4v0.3
	c0,14,11,21.6,24.3,21.6c9.8,0,16.5-3.6,21.4-9v0.1c0,4.2,3.8,8.3,9.6,8.3c5.4,0,9.8-4.2,9.8-9.6V35.9c0-9.5-2.3-17.2-7.6-22.5
	C100.6,8.4,92.6,5.5,81.7,5.5z M94.3,52.3c0,7.3-6.3,12.4-15.7,12.4c-6.4,0-10.9-3.2-10.9-8.6v-0.3c0-6.4,5.2-9.8,13.8-9.8
	c4.9,0,9.4,1,12.8,2.6C94.3,48.6,94.3,52.3,94.3,52.3z"/>
<path class="st1" d="M179.1,63.8l-6.8-8.1l-2.9-3.5c-3.1-3.8-8.7-4.3-12.4-1.1c-3.7,3.1-4.2,8.7-1.1,12.4l9.7,11.6
	c3.1,3.7,8.7,4.2,12.4,1.1c3.5-2.9,4.1-8,1.7-11.7l0,0C179.5,64.3,179.3,64,179.1,63.8z"/>
<path class="st0" d="M236.6,68.6c-2.6,0-4.7,2.1-4.7,4.7s2,4.7,4.6,4.8c2.6,0,4.7-2,4.8-4.6c0-0.1,0-0.1,0-0.2
	C241.3,70.7,239.2,68.6,236.6,68.6z M240.7,73.3c0.1,2.3-1.7,4.2-4,4.2c-2.3,0.1-4.2-1.7-4.2-4c0-0.1,0-0.1,0-0.2
	c0-2.3,1.8-4.2,4.1-4.2C238.9,69.1,240.7,70.9,240.7,73.3L240.7,73.3z"/>
<path class="st0" d="M238.7,72.4c0-1-0.8-1.5-1.8-1.5h-1.7c-0.3,0-0.5,0.2-0.5,0.5v3.9c0,0.3,0.2,0.5,0.4,0.5c0.3,0,0.5-0.2,0.5-0.5
	V74h1l1.2,1.5c0.1,0.1,0.3,0.2,0.4,0.2c0.2,0,0.4-0.2,0.4-0.5c0-0.1,0-0.3-0.1-0.3l-0.9-1.1C238.3,73.6,238.8,73,238.7,72.4z
	 M236.8,73.2h-1.2v-1.6h1.2c0.6,0,1,0.3,1,0.8S237.4,73.2,236.8,73.2z"/>
</svg>
