<?xml version="1.0" encoding="utf-8"?>
<!-- Generator: Adobe Illustrator 22.1.0, SVG Export Plug-In . SVG Version: 6.00 Build 0)  -->
<svg version="1.1" id="jaxx_liberty" xmlns="http://www.w3.org/2000/svg" xmlns:xlink="http://www.w3.org/1999/xlink" x="0px"
	 y="0px" viewBox="0 0 274.7 136.7" style="enable-background:new 0 0 274.7 136.7;" xml:space="preserve">
<style type="text/css">
	.st0{fill:#FFFFFF;}
	.st1{fill:#FF6901;}
</style>
<g>
	<path class="st0" d="M154.8,78.9c-0.8-1.1-2.1-2.1-3-2.5c-0.6-0.3-0.9-0.1-1.2,0.3c-5.4,9.3-17.2,23.8-19.6,29.1
		c-1.4,3.2-1.4,4.6,0.7,6.1c1.5,1.1,2.1,1.5,3.5,1.2c3.2-0.5,9.8-2.3,15.6-4.1c2.2-0.7,2.6-1.4,2.9-2.7c0.1-0.4,0.1-0.5-0.3-0.5
		c-1.9,0-8.6,0.7-15.1,1.6c2.8-6.3,12.1-17.6,15.2-22.9C155.6,81.2,155.6,79.9,154.8,78.9z"/>
	<path class="st0" d="M170.6,89.4c0.8,0,1.5-0.1,2.3-1c0.6-0.6,2.1-2,3.4-3.3c0.4-0.4,0.2-0.7-0.3-1.1c-0.6-0.5-1.8-1.2-2.9-1.5
		c-0.4-0.1-0.9,0.2-1.6,1c-1,1.1-2.2,2.7-2.9,4.3c-0.2,0.5-0.2,0.8,0,0.9C168.8,89.1,169.9,89.4,170.6,89.4z"/>
	<path class="st0" d="M207.1,106.3c-0.2,0-0.3,0.2-1.1,0.7c-1.5,1-3.6,1.7-5.4,1.7c-0.8,0-1.5-0.1-2.1-0.3c0-0.6,0-1.2,0.1-1.9
		c3.4-1,6.3-2.2,8.2-3.4c3.2-2,4.3-3.5,4.3-4.8c0-1.2-0.6-2.1-1.7-3c-1.4-2.1-2.5-2.6-3.8-2.6c-3.1,0-7.5,2.5-10.4,5.7
		c-1.2,0.6-2.5,0.9-4.1,1.2c0.4-2.4-0.1-4.1-0.9-5c-0.8-0.9-1.9-1.4-3.5-1.4c-0.7,0-1.4,0-2.1,0.1c3.1-4.7,5.8-8.8,6.7-10.5
		c2.3-4.8,1.1-6.2-0.7-6.7c-0.5-0.2-1.2-0.3-1.5-0.3c-0.6,0-1,0.3-1.9,1.7c-3.4,5-9.5,14.2-15.6,23.5l0,0c-4.4,5.8-7.6,7.3-9.9,7.4
		c0.6-1.8,2.3-4.5,5.1-8.4c1.8-2.5,2.8-4.2,2.8-5.2c0-1.9-3.2-2.2-4.4-2.2c-0.4,0-0.6,0.1-0.8,0.3c-1.1,1.3-3.6,4.7-5.8,7.9
		c-3.8,5.8-3.7,7-1.4,9c1.4,1.2,2.1,1.7,3.6,1.7c2.3,0,5.4-2.3,7.9-4.9c-0.1,0.6-0.2,1-0.2,1.3c0,2.4,2.6,3.7,3.9,3.7
		c1.1,0,1.5-1.2,2.3-2.8c1,1.3,1.7,2,3.3,2c6.1,0,11-4.8,12.6-9.1c0.1-0.2,0.2-0.4,0.2-0.6c0.9-0.1,1.9-0.3,2.8-0.6
		c-1.5,2.5-1.9,4.9-1.3,6.4c0.7,1.8,2.2,3.4,3.8,4.1c0.9,0.5,1.9,0.7,3.2,0.7c2.6,0,5-1.1,6.8-2.6c0.7-0.5,1-0.9,1.2-1.5
		c0.2-0.5,0.2-1,0.2-1.3C207.2,106.4,207.2,106.3,207.1,106.3z M207.9,96.8c0.1,1.5-0.6,2.8-2.8,4.4c-1.2,0.9-3.4,2.1-5.6,3
		C201.2,100.7,204.8,97.5,207.9,96.8z M180.2,105.4c-1.3,0.6-2.8,1.1-4.4,1.3c0.8-1.5,2-2.5,3.3-3.2c1.6-0.8,3.5-1.2,5.4-1.4
		C183.4,103.4,181.9,104.5,180.2,105.4z M186.1,100.1c-3,0.2-5.4,0.3-7.5,1.3c3.1-3.8,7.4-5.5,9.4-5.8
		C187.9,96.7,187.3,98.4,186.1,100.1z"/>
	<path class="st0" d="M240.6,107.3c0.4-0.5,0.4-0.8,0.4-1c0-0.2,0-0.6-0.1-0.8c0-0.1-0.2-0.1-0.3,0c-1.9,1.8-4.3,2.8-6,2.8
		c-0.3,0-0.6-0.1-0.9-0.1c1.6-3.5,5.6-9.5,8.6-13.7c1.9-0.3,3.6-0.7,4.8-1c0.8-0.2,1.1-0.4,1.3-0.6c0.3-0.4,0.4-1,0.4-1.2
		c0-0.3-0.1-0.3-0.8-0.3c-0.9,0-2.1,0.1-3.7,0.2c1.9-2.9,2.9-4.6,2.9-5.8c0-1.1-0.7-1.8-2-2.4c-1.2-0.6-2.1-0.9-2.5-0.9
		c-0.4,0-0.5,0.2-1.2,1.6c-1.1,2.1-3.3,5.2-5.5,8.3c-1.4,0.1-2.8,0.3-4,0.4c0.1-0.1,0.2-0.1,0.2-0.2c0.6-0.4,1-0.7,1-1.3
		c0-0.5-0.1-1.3-0.5-1.3c-0.3,0-0.7,0.2-1.6,0.7c-2.8,1.6-5.3,3.1-8.1,5.5c0.6-2.2,0.1-2.9-0.6-3.3c-0.7-0.4-1.8-0.7-2.7-0.7
		c-0.6-0.1-0.9,0-1,0.3c-0.7,1.3-2.8,4.5-5.9,8.6c-2.4,3.2-3.5,5.1-3.5,6.8c0,1.1,0.5,1.8,1.6,2.6c1.1,0.8,2,1.1,2.7,1.1
		c0.8,0,1.1-0.3,3.3-3.3c5.3-7.1,9.8-11.6,14.1-14.9c0,0.4,0.2,1.2,0.3,1.5c0.2,0.5,0.9,0.8,2.2,0.7c-1.6,2.2-3,4.1-3.9,5.5
		c-2.4,3.7-2.7,6.4-1.9,7.5c1.3,1.9,3.1,3.3,5.1,3.3C235.9,112.1,239.2,109.2,240.6,107.3z"/>
	<path class="st0" d="M265.4,110.3c-2.1,0-4.9,0.1-8,0.4c3.2-4.9,6.1-9.7,7.8-12.8c0.8-1.5,0.2-2.5-1.5-3c-1-0.3-1.7-0.7-2.2-0.7
		c-0.5,0-0.8,0.3-2,2c-3.8,5.2-6.6,7.8-8.9,9.2c0.8-1.9,2.1-4.3,2.9-6.3c1.5-3.4,0.9-4.8-1.2-5.7c-0.9-0.4-1.6-0.5-2.2-0.5
		c-0.4,0-0.7,0.2-0.8,0.8c-0.3,1.4-1.5,4.1-3.9,8c-3,4.9-3.4,6.4-2.3,7.5c1.2,1.3,2.2,1.7,3.2,1.7c0.6,0,1.7-0.3,3.1-1.2
		c0.7-0.4,2.4-1.8,4.5-4.1c-1.4,2.3-2.7,4.3-3.9,6.1c-6.3,1-12.5,2.8-16,5.8c-2.8,2.5-2.9,5.5-1.6,7.3c0.9,1.4,2.6,2.4,4.7,2.4
		c5.7,0,12.2-4.8,18.5-13.7c2.5-0.3,5.1-0.6,7.9-0.8c0.7,0,1.3-0.2,1.6-0.7c0.3-0.5,0.6-0.7,0.8-1.1
		C266,110.4,265.8,110.3,265.4,110.3z M235.2,123.1c-0.1-1.4,1.1-2.9,2.7-4.2c2.1-1.7,5.4-3.1,9.6-4.2
		C242.8,120.6,238.8,123.1,235.2,123.1z"/>
</g>
<title>Jaxx_Primary_Logo_RGB_Screen</title>
<g id="Layer_2_1_">
	<g id="Layer_1-2_1_">
		<path class="st0" d="M179.2,75L179.2,75c2.7-3.3,2.6-8-0.1-11.2l-6.8-8.1l3-3.5c3.1-3.7,8.7-4.2,12.4-1.1
			c3.7,3.1,4.2,8.7,1.1,12.4l0,0L179.2,75z M211.9,75.1l-39.5-47.3l6.8-8.1c2.7-3.2,2.7-7.9,0.1-11.2l0,0L195.5,28l16.4-19.6
			c3.1-3.7,8.7-4.2,12.4-1.1c3.7,3.1,4.2,8.7,1.1,12.4L207,41.7l18.4,22.1c3.1,3.7,2.6,9.3-1.1,12.4C220.6,79.3,215,78.8,211.9,75.1
			L211.9,75.1z"/>
		<path class="st1" d="M53.8,17c0-3.5,2.2-6.6,5.4-7.8c6.3-2.4,13.2-3.7,22.5-3.7c10.9,0,18.9,2.9,23.9,7.9c5.3,5.3,7.6,13,7.6,22.5
			v32.2c0,5.4-4.4,9.6-9.8,9.6c-5.8,0-9.6-4.1-9.6-8.3v-0.1c-4.9,5.4-11.6,9-21.4,9c-13.3,0-24.3-7.6-24.3-21.6v-0.3
			C48.3,41,60,33.9,76.7,33.9c7.1,0,12.3,1.2,17.3,2.9v-1.2c0-8.3-5.1-12.9-15.2-12.9c-5.5,0-10,0.8-13.8,2
			c-0.9,0.3-1.9,0.5-2.9,0.5C57.5,25.2,53.8,21.7,53.8,17z M94.3,48.6c-3.4-1.6-7.9-2.6-12.8-2.6c-8.6,0-13.8,3.4-13.8,9.8v0.3
			c0,5.4,4.5,8.6,10.9,8.6c9.4,0,15.7-5.1,15.7-12.4L94.3,48.6z M21.5,98.5h0.3c13.2,0,21.4-7.1,21.4-22.7V15.6
			c0.1-5.5-4.3-10.1-9.9-10.2C27.7,5.3,23.1,9.7,23,15.3c0,0.1,0,0.2,0,0.3v60.1c0,4.7-2,6.6-4.9,6.6H18c-4.2,0-7.8,3.2-7.8,8
			C10.3,95.9,15,98.5,21.5,98.5z M157,51.1c-3.7,3.1-4.2,8.7-1.1,12.4c0,0,0,0,0,0l9.7,11.6c3.1,3.7,8.7,4.2,12.4,1.1
			c3.7-3.1,4.2-8.7,1.1-12.4l-9.7-11.6C166.3,48.4,160.7,47.9,157,51.1C157,51.1,157,51.1,157,51.1z M119.3,63.8
			c-3.1,3.7-2.6,9.3,1.1,12.4c3.7,3.1,9.3,2.6,12.4-1.1l46.3-55.4c3.1-3.7,2.6-9.3-1.1-12.4s-9.3-2.6-12.4,1.1L149.2,28L132.8,8.4
			c-3.1-3.7-8.7-4.2-12.4-1.1c-3.7,3.1-4.2,8.7-1.1,12.4l18.4,22.1L119.3,63.8z"/>
		<path class="st0" d="M236.6,68.6c-2.6,0-4.7,2.1-4.7,4.7v0c0,2.6,2,4.7,4.6,4.8c2.6,0,4.7-2,4.8-4.6c0-0.1,0-0.1,0-0.2v0
			C241.3,70.7,239.2,68.6,236.6,68.6C236.6,68.6,236.6,68.6,236.6,68.6z M240.7,73.3c0.1,2.3-1.7,4.2-4,4.2c-2.3,0.1-4.2-1.7-4.2-4
			c0-0.1,0-0.1,0-0.2v0c0-2.3,1.8-4.2,4.1-4.2c0,0,0,0,0,0c2.3,0,4.1,1.8,4.1,4.1C240.7,73.2,240.7,73.3,240.7,73.3L240.7,73.3z"/>
		<path class="st0" d="M238.7,72.4c0-1-0.8-1.5-1.8-1.5h-1.7c-0.3,0-0.5,0.2-0.5,0.5v3.9c0,0.3,0.2,0.5,0.4,0.5c0,0,0,0,0,0
			c0.3,0,0.5-0.2,0.5-0.5V74h1l1.2,1.5c0.1,0.1,0.3,0.2,0.4,0.2c0.2,0,0.4-0.2,0.4-0.5c0-0.1,0-0.3-0.1-0.3l-0.9-1.1
			C238.3,73.6,238.8,73,238.7,72.4z M236.8,73.2h-1.2v-1.6h1.2c0.6,0,1,0.3,1,0.8C237.8,72.9,237.4,73.2,236.8,73.2z"/>
	</g>
</g>
</svg>
